G04 #@! TF.GenerationSoftware,KiCad,Pcbnew,(5.1.2)-1*
G04 #@! TF.CreationDate,2022-07-04T19:57:45-03:00*
G04 #@! TF.ProjectId,esp32,65737033-322e-46b6-9963-61645f706362,rev?*
G04 #@! TF.SameCoordinates,Original*
G04 #@! TF.FileFunction,Legend,Top*
G04 #@! TF.FilePolarity,Positive*
%FSLAX46Y46*%
G04 Gerber Fmt 4.6, Leading zero omitted, Abs format (unit mm)*
G04 Created by KiCad (PCBNEW (5.1.2)-1) date 2022-07-04 19:57:45*
%MOMM*%
%LPD*%
G04 APERTURE LIST*
%ADD10C,0.120000*%
%ADD11C,0.150000*%
%ADD12C,0.254000*%
%ADD13C,0.200000*%
G04 APERTURE END LIST*
D10*
X117890000Y-142500000D02*
X117890000Y-140700000D01*
X50000Y-1550000D02*
X50000Y250000D01*
X114750000Y-142500000D02*
X114750000Y-140700000D01*
X109920000Y-142500000D02*
X109920000Y-140700000D01*
X102300000Y-142500000D02*
X102300000Y-140700000D01*
X125000000Y-81350000D02*
X125000000Y-79500000D01*
X-60000Y-1100000D02*
X-60000Y750000D01*
X119950000Y-81350000D02*
X119950000Y-79500000D01*
X117400000Y-81350000D02*
X117400000Y-79450000D01*
X109750000Y-81300000D02*
X109750000Y-79450000D01*
X102150000Y-81300000D02*
X102150000Y-79450000D01*
D11*
X165552380Y-103442857D02*
X164552380Y-103442857D01*
X164552380Y-103061904D01*
X164600000Y-102966666D01*
X164647619Y-102919047D01*
X164742857Y-102871428D01*
X164885714Y-102871428D01*
X164980952Y-102919047D01*
X165028571Y-102966666D01*
X165076190Y-103061904D01*
X165076190Y-103442857D01*
X165552380Y-102300000D02*
X165504761Y-102395238D01*
X165457142Y-102442857D01*
X165361904Y-102490476D01*
X165076190Y-102490476D01*
X164980952Y-102442857D01*
X164933333Y-102395238D01*
X164885714Y-102300000D01*
X164885714Y-102157142D01*
X164933333Y-102061904D01*
X164980952Y-102014285D01*
X165076190Y-101966666D01*
X165361904Y-101966666D01*
X165457142Y-102014285D01*
X165504761Y-102061904D01*
X165552380Y-102157142D01*
X165552380Y-102300000D01*
X165552380Y-101395238D02*
X165504761Y-101490476D01*
X165457142Y-101538095D01*
X165361904Y-101585714D01*
X165076190Y-101585714D01*
X164980952Y-101538095D01*
X164933333Y-101490476D01*
X164885714Y-101395238D01*
X164885714Y-101252380D01*
X164933333Y-101157142D01*
X164980952Y-101109523D01*
X165076190Y-101061904D01*
X165361904Y-101061904D01*
X165457142Y-101109523D01*
X165504761Y-101157142D01*
X165552380Y-101252380D01*
X165552380Y-101395238D01*
X165552380Y-100490476D02*
X165504761Y-100585714D01*
X165409523Y-100633333D01*
X164552380Y-100633333D01*
X165266666Y-99395238D02*
X165266666Y-98919047D01*
X165552380Y-99490476D02*
X164552380Y-99157142D01*
X165552380Y-98823809D01*
X165504761Y-98538095D02*
X165552380Y-98442857D01*
X165552380Y-98252380D01*
X165504761Y-98157142D01*
X165409523Y-98109523D01*
X165361904Y-98109523D01*
X165266666Y-98157142D01*
X165219047Y-98252380D01*
X165219047Y-98395238D01*
X165171428Y-98490476D01*
X165076190Y-98538095D01*
X165028571Y-98538095D01*
X164933333Y-98490476D01*
X164885714Y-98395238D01*
X164885714Y-98252380D01*
X164933333Y-98157142D01*
X165504761Y-97728571D02*
X165552380Y-97633333D01*
X165552380Y-97442857D01*
X165504761Y-97347619D01*
X165409523Y-97300000D01*
X165361904Y-97300000D01*
X165266666Y-97347619D01*
X165219047Y-97442857D01*
X165219047Y-97585714D01*
X165171428Y-97680952D01*
X165076190Y-97728571D01*
X165028571Y-97728571D01*
X164933333Y-97680952D01*
X164885714Y-97585714D01*
X164885714Y-97442857D01*
X164933333Y-97347619D01*
X165552380Y-96871428D02*
X164885714Y-96871428D01*
X164552380Y-96871428D02*
X164600000Y-96919047D01*
X164647619Y-96871428D01*
X164600000Y-96823809D01*
X164552380Y-96871428D01*
X164647619Y-96871428D01*
X165504761Y-96442857D02*
X165552380Y-96347619D01*
X165552380Y-96157142D01*
X165504761Y-96061904D01*
X165409523Y-96014285D01*
X165361904Y-96014285D01*
X165266666Y-96061904D01*
X165219047Y-96157142D01*
X165219047Y-96300000D01*
X165171428Y-96395238D01*
X165076190Y-96442857D01*
X165028571Y-96442857D01*
X164933333Y-96395238D01*
X164885714Y-96300000D01*
X164885714Y-96157142D01*
X164933333Y-96061904D01*
X164885714Y-95728571D02*
X164885714Y-95347619D01*
X164552380Y-95585714D02*
X165409523Y-95585714D01*
X165504761Y-95538095D01*
X165552380Y-95442857D01*
X165552380Y-95347619D01*
X165552380Y-94585714D02*
X165028571Y-94585714D01*
X164933333Y-94633333D01*
X164885714Y-94728571D01*
X164885714Y-94919047D01*
X164933333Y-95014285D01*
X165504761Y-94585714D02*
X165552380Y-94680952D01*
X165552380Y-94919047D01*
X165504761Y-95014285D01*
X165409523Y-95061904D01*
X165314285Y-95061904D01*
X165219047Y-95014285D01*
X165171428Y-94919047D01*
X165171428Y-94680952D01*
X165123809Y-94585714D01*
X164885714Y-94109523D02*
X165552380Y-94109523D01*
X164980952Y-94109523D02*
X164933333Y-94061904D01*
X164885714Y-93966666D01*
X164885714Y-93823809D01*
X164933333Y-93728571D01*
X165028571Y-93680952D01*
X165552380Y-93680952D01*
X164885714Y-93347619D02*
X164885714Y-92966666D01*
X164552380Y-93204761D02*
X165409523Y-93204761D01*
X165504761Y-93157142D01*
X165552380Y-93061904D01*
X165552380Y-92966666D01*
X165552380Y-91871428D02*
X164552380Y-91871428D01*
X165552380Y-91252380D02*
X165504761Y-91347619D01*
X165457142Y-91395238D01*
X165361904Y-91442857D01*
X165076190Y-91442857D01*
X164980952Y-91395238D01*
X164933333Y-91347619D01*
X164885714Y-91252380D01*
X164885714Y-91109523D01*
X164933333Y-91014285D01*
X164980952Y-90966666D01*
X165076190Y-90919047D01*
X165361904Y-90919047D01*
X165457142Y-90966666D01*
X165504761Y-91014285D01*
X165552380Y-91109523D01*
X165552380Y-91252380D01*
X164552380Y-90633333D02*
X164552380Y-90061904D01*
X165552380Y-90347619D02*
X164552380Y-90347619D01*
X165171428Y-88966666D02*
X165171428Y-88204761D01*
X164552380Y-87109523D02*
X165552380Y-86776190D01*
X164552380Y-86442857D01*
X165457142Y-86109523D02*
X165504761Y-86061904D01*
X165552380Y-86109523D01*
X165504761Y-86157142D01*
X165457142Y-86109523D01*
X165552380Y-86109523D01*
X165552380Y-85109523D02*
X165552380Y-85680952D01*
X165552380Y-85395238D02*
X164552380Y-85395238D01*
X164695238Y-85490476D01*
X164790476Y-85585714D01*
X164838095Y-85680952D01*
X104568571Y-80328571D02*
X104711428Y-80376190D01*
X104759047Y-80423809D01*
X104806666Y-80519047D01*
X104806666Y-80661904D01*
X104759047Y-80757142D01*
X104711428Y-80804761D01*
X104616190Y-80852380D01*
X104235238Y-80852380D01*
X104235238Y-79852380D01*
X104568571Y-79852380D01*
X104663809Y-79900000D01*
X104711428Y-79947619D01*
X104759047Y-80042857D01*
X104759047Y-80138095D01*
X104711428Y-80233333D01*
X104663809Y-80280952D01*
X104568571Y-80328571D01*
X104235238Y-80328571D01*
X105663809Y-80852380D02*
X105663809Y-80328571D01*
X105616190Y-80233333D01*
X105520952Y-80185714D01*
X105330476Y-80185714D01*
X105235238Y-80233333D01*
X105663809Y-80804761D02*
X105568571Y-80852380D01*
X105330476Y-80852380D01*
X105235238Y-80804761D01*
X105187619Y-80709523D01*
X105187619Y-80614285D01*
X105235238Y-80519047D01*
X105330476Y-80471428D01*
X105568571Y-80471428D01*
X105663809Y-80423809D01*
X105997142Y-80185714D02*
X106378095Y-80185714D01*
X106140000Y-79852380D02*
X106140000Y-80709523D01*
X106187619Y-80804761D01*
X106282857Y-80852380D01*
X106378095Y-80852380D01*
X106568571Y-80185714D02*
X106949523Y-80185714D01*
X106711428Y-79852380D02*
X106711428Y-80709523D01*
X106759047Y-80804761D01*
X106854285Y-80852380D01*
X106949523Y-80852380D01*
X107282857Y-80471428D02*
X108044761Y-80471428D01*
X107663809Y-80852380D02*
X107663809Y-80090476D01*
X126159523Y-80852380D02*
X125588095Y-80852380D01*
X125873809Y-80852380D02*
X125873809Y-79852380D01*
X125778571Y-79995238D01*
X125683333Y-80090476D01*
X125588095Y-80138095D01*
X127016666Y-79852380D02*
X126826190Y-79852380D01*
X126730952Y-79900000D01*
X126683333Y-79947619D01*
X126588095Y-80090476D01*
X126540476Y-80280952D01*
X126540476Y-80661904D01*
X126588095Y-80757142D01*
X126635714Y-80804761D01*
X126730952Y-80852380D01*
X126921428Y-80852380D01*
X127016666Y-80804761D01*
X127064285Y-80757142D01*
X127111904Y-80661904D01*
X127111904Y-80423809D01*
X127064285Y-80328571D01*
X127016666Y-80280952D01*
X126921428Y-80233333D01*
X126730952Y-80233333D01*
X126635714Y-80280952D01*
X126588095Y-80328571D01*
X126540476Y-80423809D01*
X125648095Y-141147619D02*
X125695714Y-141100000D01*
X125790952Y-141052380D01*
X126029047Y-141052380D01*
X126124285Y-141100000D01*
X126171904Y-141147619D01*
X126219523Y-141242857D01*
X126219523Y-141338095D01*
X126171904Y-141480952D01*
X125600476Y-142052380D01*
X126219523Y-142052380D01*
X126552857Y-141052380D02*
X127171904Y-141052380D01*
X126838571Y-141433333D01*
X126981428Y-141433333D01*
X127076666Y-141480952D01*
X127124285Y-141528571D01*
X127171904Y-141623809D01*
X127171904Y-141861904D01*
X127124285Y-141957142D01*
X127076666Y-142004761D01*
X126981428Y-142052380D01*
X126695714Y-142052380D01*
X126600476Y-142004761D01*
X126552857Y-141957142D01*
X123198095Y-141147619D02*
X123245714Y-141100000D01*
X123340952Y-141052380D01*
X123579047Y-141052380D01*
X123674285Y-141100000D01*
X123721904Y-141147619D01*
X123769523Y-141242857D01*
X123769523Y-141338095D01*
X123721904Y-141480952D01*
X123150476Y-142052380D01*
X123769523Y-142052380D01*
X124674285Y-141052380D02*
X124198095Y-141052380D01*
X124150476Y-141528571D01*
X124198095Y-141480952D01*
X124293333Y-141433333D01*
X124531428Y-141433333D01*
X124626666Y-141480952D01*
X124674285Y-141528571D01*
X124721904Y-141623809D01*
X124721904Y-141861904D01*
X124674285Y-141957142D01*
X124626666Y-142004761D01*
X124531428Y-142052380D01*
X124293333Y-142052380D01*
X124198095Y-142004761D01*
X124150476Y-141957142D01*
X105308095Y-141100000D02*
X105212857Y-141052380D01*
X105070000Y-141052380D01*
X104927142Y-141100000D01*
X104831904Y-141195238D01*
X104784285Y-141290476D01*
X104736666Y-141480952D01*
X104736666Y-141623809D01*
X104784285Y-141814285D01*
X104831904Y-141909523D01*
X104927142Y-142004761D01*
X105070000Y-142052380D01*
X105165238Y-142052380D01*
X105308095Y-142004761D01*
X105355714Y-141957142D01*
X105355714Y-141623809D01*
X105165238Y-141623809D01*
X105784285Y-142052380D02*
X105784285Y-141052380D01*
X106355714Y-142052380D01*
X106355714Y-141052380D01*
X106831904Y-142052380D02*
X106831904Y-141052380D01*
X107070000Y-141052380D01*
X107212857Y-141100000D01*
X107308095Y-141195238D01*
X107355714Y-141290476D01*
X107403333Y-141480952D01*
X107403333Y-141623809D01*
X107355714Y-141814285D01*
X107308095Y-141909523D01*
X107212857Y-142004761D01*
X107070000Y-142052380D01*
X106831904Y-142052380D01*
X89989047Y-102856428D02*
X90750952Y-102856428D01*
X89949047Y-90466428D02*
X90710952Y-90466428D01*
X90330000Y-90847380D02*
X90330000Y-90085476D01*
X97168571Y-80328571D02*
X97311428Y-80376190D01*
X97359047Y-80423809D01*
X97406666Y-80519047D01*
X97406666Y-80661904D01*
X97359047Y-80757142D01*
X97311428Y-80804761D01*
X97216190Y-80852380D01*
X96835238Y-80852380D01*
X96835238Y-79852380D01*
X97168571Y-79852380D01*
X97263809Y-79900000D01*
X97311428Y-79947619D01*
X97359047Y-80042857D01*
X97359047Y-80138095D01*
X97311428Y-80233333D01*
X97263809Y-80280952D01*
X97168571Y-80328571D01*
X96835238Y-80328571D01*
X98263809Y-80852380D02*
X98263809Y-80328571D01*
X98216190Y-80233333D01*
X98120952Y-80185714D01*
X97930476Y-80185714D01*
X97835238Y-80233333D01*
X98263809Y-80804761D02*
X98168571Y-80852380D01*
X97930476Y-80852380D01*
X97835238Y-80804761D01*
X97787619Y-80709523D01*
X97787619Y-80614285D01*
X97835238Y-80519047D01*
X97930476Y-80471428D01*
X98168571Y-80471428D01*
X98263809Y-80423809D01*
X98597142Y-80185714D02*
X98978095Y-80185714D01*
X98740000Y-79852380D02*
X98740000Y-80709523D01*
X98787619Y-80804761D01*
X98882857Y-80852380D01*
X98978095Y-80852380D01*
X99168571Y-80185714D02*
X99549523Y-80185714D01*
X99311428Y-79852380D02*
X99311428Y-80709523D01*
X99359047Y-80804761D01*
X99454285Y-80852380D01*
X99549523Y-80852380D01*
X99882857Y-80471428D02*
X100644761Y-80471428D01*
X120745476Y-79894180D02*
X121316904Y-79894180D01*
X121031190Y-80894180D02*
X121031190Y-79894180D01*
X121650238Y-80370371D02*
X121983571Y-80370371D01*
X122126428Y-80894180D02*
X121650238Y-80894180D01*
X121650238Y-79894180D01*
X122126428Y-79894180D01*
X122555000Y-80894180D02*
X122555000Y-79894180D01*
X122888333Y-80608466D01*
X123221666Y-79894180D01*
X123221666Y-80894180D01*
X123697857Y-80894180D02*
X123697857Y-79894180D01*
X124078809Y-79894180D01*
X124174047Y-79941800D01*
X124221666Y-79989419D01*
X124269285Y-80084657D01*
X124269285Y-80227514D01*
X124221666Y-80322752D01*
X124174047Y-80370371D01*
X124078809Y-80417990D01*
X123697857Y-80417990D01*
X141304523Y-80872380D02*
X141495000Y-80872380D01*
X141590238Y-80824761D01*
X141637857Y-80777142D01*
X141733095Y-80634285D01*
X141780714Y-80443809D01*
X141780714Y-80062857D01*
X141733095Y-79967619D01*
X141685476Y-79920000D01*
X141590238Y-79872380D01*
X141399761Y-79872380D01*
X141304523Y-79920000D01*
X141256904Y-79967619D01*
X141209285Y-80062857D01*
X141209285Y-80300952D01*
X141256904Y-80396190D01*
X141304523Y-80443809D01*
X141399761Y-80491428D01*
X141590238Y-80491428D01*
X141685476Y-80443809D01*
X141733095Y-80396190D01*
X141780714Y-80300952D01*
X138779523Y-80872380D02*
X138208095Y-80872380D01*
X138493809Y-80872380D02*
X138493809Y-79872380D01*
X138398571Y-80015238D01*
X138303333Y-80110476D01*
X138208095Y-80158095D01*
X139398571Y-79872380D02*
X139493809Y-79872380D01*
X139589047Y-79920000D01*
X139636666Y-79967619D01*
X139684285Y-80062857D01*
X139731904Y-80253333D01*
X139731904Y-80491428D01*
X139684285Y-80681904D01*
X139636666Y-80777142D01*
X139589047Y-80824761D01*
X139493809Y-80872380D01*
X139398571Y-80872380D01*
X139303333Y-80824761D01*
X139255714Y-80777142D01*
X139208095Y-80681904D01*
X139160476Y-80491428D01*
X139160476Y-80253333D01*
X139208095Y-80062857D01*
X139255714Y-79967619D01*
X139303333Y-79920000D01*
X139398571Y-79872380D01*
X143924761Y-80300952D02*
X143829523Y-80253333D01*
X143781904Y-80205714D01*
X143734285Y-80110476D01*
X143734285Y-80062857D01*
X143781904Y-79967619D01*
X143829523Y-79920000D01*
X143924761Y-79872380D01*
X144115238Y-79872380D01*
X144210476Y-79920000D01*
X144258095Y-79967619D01*
X144305714Y-80062857D01*
X144305714Y-80110476D01*
X144258095Y-80205714D01*
X144210476Y-80253333D01*
X144115238Y-80300952D01*
X143924761Y-80300952D01*
X143829523Y-80348571D01*
X143781904Y-80396190D01*
X143734285Y-80491428D01*
X143734285Y-80681904D01*
X143781904Y-80777142D01*
X143829523Y-80824761D01*
X143924761Y-80872380D01*
X144115238Y-80872380D01*
X144210476Y-80824761D01*
X144258095Y-80777142D01*
X144305714Y-80681904D01*
X144305714Y-80491428D01*
X144258095Y-80396190D01*
X144210476Y-80348571D01*
X144115238Y-80300952D01*
X136229523Y-80872380D02*
X135658095Y-80872380D01*
X135943809Y-80872380D02*
X135943809Y-79872380D01*
X135848571Y-80015238D01*
X135753333Y-80110476D01*
X135658095Y-80158095D01*
X137181904Y-80872380D02*
X136610476Y-80872380D01*
X136896190Y-80872380D02*
X136896190Y-79872380D01*
X136800952Y-80015238D01*
X136705714Y-80110476D01*
X136610476Y-80158095D01*
X131154523Y-80872380D02*
X130583095Y-80872380D01*
X130868809Y-80872380D02*
X130868809Y-79872380D01*
X130773571Y-80015238D01*
X130678333Y-80110476D01*
X130583095Y-80158095D01*
X131487857Y-79872380D02*
X132106904Y-79872380D01*
X131773571Y-80253333D01*
X131916428Y-80253333D01*
X132011666Y-80300952D01*
X132059285Y-80348571D01*
X132106904Y-80443809D01*
X132106904Y-80681904D01*
X132059285Y-80777142D01*
X132011666Y-80824761D01*
X131916428Y-80872380D01*
X131630714Y-80872380D01*
X131535476Y-80824761D01*
X131487857Y-80777142D01*
X149310476Y-79872380D02*
X149120000Y-79872380D01*
X149024761Y-79920000D01*
X148977142Y-79967619D01*
X148881904Y-80110476D01*
X148834285Y-80300952D01*
X148834285Y-80681904D01*
X148881904Y-80777142D01*
X148929523Y-80824761D01*
X149024761Y-80872380D01*
X149215238Y-80872380D01*
X149310476Y-80824761D01*
X149358095Y-80777142D01*
X149405714Y-80681904D01*
X149405714Y-80443809D01*
X149358095Y-80348571D01*
X149310476Y-80300952D01*
X149215238Y-80253333D01*
X149024761Y-80253333D01*
X148929523Y-80300952D01*
X148881904Y-80348571D01*
X148834285Y-80443809D01*
X128629523Y-80872380D02*
X128058095Y-80872380D01*
X128343809Y-80872380D02*
X128343809Y-79872380D01*
X128248571Y-80015238D01*
X128153333Y-80110476D01*
X128058095Y-80158095D01*
X129486666Y-80205714D02*
X129486666Y-80872380D01*
X129248571Y-79824761D02*
X129010476Y-80539047D01*
X129629523Y-80539047D01*
X112566190Y-79872380D02*
X112899523Y-80872380D01*
X113232857Y-79872380D01*
X113566190Y-80872380D02*
X113566190Y-80205714D01*
X113566190Y-79872380D02*
X113518571Y-79920000D01*
X113566190Y-79967619D01*
X113613809Y-79920000D01*
X113566190Y-79872380D01*
X113566190Y-79967619D01*
X114042380Y-80205714D02*
X114042380Y-80872380D01*
X114042380Y-80300952D02*
X114090000Y-80253333D01*
X114185238Y-80205714D01*
X114328095Y-80205714D01*
X114423333Y-80253333D01*
X114470952Y-80348571D01*
X114470952Y-80872380D01*
X133704523Y-80872380D02*
X133133095Y-80872380D01*
X133418809Y-80872380D02*
X133418809Y-79872380D01*
X133323571Y-80015238D01*
X133228333Y-80110476D01*
X133133095Y-80158095D01*
X134085476Y-79967619D02*
X134133095Y-79920000D01*
X134228333Y-79872380D01*
X134466428Y-79872380D01*
X134561666Y-79920000D01*
X134609285Y-79967619D01*
X134656904Y-80062857D01*
X134656904Y-80158095D01*
X134609285Y-80300952D01*
X134037857Y-80872380D01*
X134656904Y-80872380D01*
X151908095Y-79872380D02*
X151431904Y-79872380D01*
X151384285Y-80348571D01*
X151431904Y-80300952D01*
X151527142Y-80253333D01*
X151765238Y-80253333D01*
X151860476Y-80300952D01*
X151908095Y-80348571D01*
X151955714Y-80443809D01*
X151955714Y-80681904D01*
X151908095Y-80777142D01*
X151860476Y-80824761D01*
X151765238Y-80872380D01*
X151527142Y-80872380D01*
X151431904Y-80824761D01*
X151384285Y-80777142D01*
X158218809Y-79872380D02*
X158837857Y-79872380D01*
X158504523Y-80253333D01*
X158647380Y-80253333D01*
X158742619Y-80300952D01*
X158790238Y-80348571D01*
X158837857Y-80443809D01*
X158837857Y-80681904D01*
X158790238Y-80777142D01*
X158742619Y-80824761D01*
X158647380Y-80872380D01*
X158361666Y-80872380D01*
X158266428Y-80824761D01*
X158218809Y-80777142D01*
X159266428Y-80777142D02*
X159314047Y-80824761D01*
X159266428Y-80872380D01*
X159218809Y-80824761D01*
X159266428Y-80777142D01*
X159266428Y-80872380D01*
X159647380Y-79872380D02*
X160266428Y-79872380D01*
X159933095Y-80253333D01*
X160075952Y-80253333D01*
X160171190Y-80300952D01*
X160218809Y-80348571D01*
X160266428Y-80443809D01*
X160266428Y-80681904D01*
X160218809Y-80777142D01*
X160171190Y-80824761D01*
X160075952Y-80872380D01*
X159790238Y-80872380D01*
X159695000Y-80824761D01*
X159647380Y-80777142D01*
X160552142Y-79872380D02*
X160885476Y-80872380D01*
X161218809Y-79872380D01*
X154385476Y-80205714D02*
X154385476Y-80872380D01*
X154147380Y-79824761D02*
X153909285Y-80539047D01*
X154528333Y-80539047D01*
X146236666Y-79872380D02*
X146903333Y-79872380D01*
X146474761Y-80872380D01*
X155956904Y-80348571D02*
X156290238Y-80348571D01*
X156433095Y-80872380D02*
X155956904Y-80872380D01*
X155956904Y-79872380D01*
X156433095Y-79872380D01*
X156861666Y-80872380D02*
X156861666Y-79872380D01*
X157433095Y-80872380D01*
X157433095Y-79872380D01*
X127331904Y-116067380D02*
X126998571Y-115591190D01*
X126760476Y-116067380D02*
X126760476Y-115067380D01*
X127141428Y-115067380D01*
X127236666Y-115115000D01*
X127284285Y-115162619D01*
X127331904Y-115257857D01*
X127331904Y-115400714D01*
X127284285Y-115495952D01*
X127236666Y-115543571D01*
X127141428Y-115591190D01*
X126760476Y-115591190D01*
X128141428Y-116019761D02*
X128046190Y-116067380D01*
X127855714Y-116067380D01*
X127760476Y-116019761D01*
X127712857Y-115924523D01*
X127712857Y-115543571D01*
X127760476Y-115448333D01*
X127855714Y-115400714D01*
X128046190Y-115400714D01*
X128141428Y-115448333D01*
X128189047Y-115543571D01*
X128189047Y-115638809D01*
X127712857Y-115734047D01*
X128570000Y-116019761D02*
X128665238Y-116067380D01*
X128855714Y-116067380D01*
X128950952Y-116019761D01*
X128998571Y-115924523D01*
X128998571Y-115876904D01*
X128950952Y-115781666D01*
X128855714Y-115734047D01*
X128712857Y-115734047D01*
X128617619Y-115686428D01*
X128570000Y-115591190D01*
X128570000Y-115543571D01*
X128617619Y-115448333D01*
X128712857Y-115400714D01*
X128855714Y-115400714D01*
X128950952Y-115448333D01*
X129808095Y-116019761D02*
X129712857Y-116067380D01*
X129522380Y-116067380D01*
X129427142Y-116019761D01*
X129379523Y-115924523D01*
X129379523Y-115543571D01*
X129427142Y-115448333D01*
X129522380Y-115400714D01*
X129712857Y-115400714D01*
X129808095Y-115448333D01*
X129855714Y-115543571D01*
X129855714Y-115638809D01*
X129379523Y-115734047D01*
X130141428Y-115400714D02*
X130522380Y-115400714D01*
X130284285Y-115067380D02*
X130284285Y-115924523D01*
X130331904Y-116019761D01*
X130427142Y-116067380D01*
X130522380Y-116067380D01*
X127380952Y-128153571D02*
X127523809Y-128201190D01*
X127571428Y-128248809D01*
X127619047Y-128344047D01*
X127619047Y-128486904D01*
X127571428Y-128582142D01*
X127523809Y-128629761D01*
X127428571Y-128677380D01*
X127047619Y-128677380D01*
X127047619Y-127677380D01*
X127380952Y-127677380D01*
X127476190Y-127725000D01*
X127523809Y-127772619D01*
X127571428Y-127867857D01*
X127571428Y-127963095D01*
X127523809Y-128058333D01*
X127476190Y-128105952D01*
X127380952Y-128153571D01*
X127047619Y-128153571D01*
X128190476Y-128677380D02*
X128095238Y-128629761D01*
X128047619Y-128582142D01*
X128000000Y-128486904D01*
X128000000Y-128201190D01*
X128047619Y-128105952D01*
X128095238Y-128058333D01*
X128190476Y-128010714D01*
X128333333Y-128010714D01*
X128428571Y-128058333D01*
X128476190Y-128105952D01*
X128523809Y-128201190D01*
X128523809Y-128486904D01*
X128476190Y-128582142D01*
X128428571Y-128629761D01*
X128333333Y-128677380D01*
X128190476Y-128677380D01*
X129095238Y-128677380D02*
X129000000Y-128629761D01*
X128952380Y-128582142D01*
X128904761Y-128486904D01*
X128904761Y-128201190D01*
X128952380Y-128105952D01*
X129000000Y-128058333D01*
X129095238Y-128010714D01*
X129238095Y-128010714D01*
X129333333Y-128058333D01*
X129380952Y-128105952D01*
X129428571Y-128201190D01*
X129428571Y-128486904D01*
X129380952Y-128582142D01*
X129333333Y-128629761D01*
X129238095Y-128677380D01*
X129095238Y-128677380D01*
X129714285Y-128010714D02*
X130095238Y-128010714D01*
X129857142Y-127677380D02*
X129857142Y-128534523D01*
X129904761Y-128629761D01*
X130000000Y-128677380D01*
X130095238Y-128677380D01*
X96984285Y-141671428D02*
X97746190Y-141671428D01*
X97365238Y-142052380D02*
X97365238Y-141290476D01*
X98698571Y-141052380D02*
X98222380Y-141052380D01*
X98174761Y-141528571D01*
X98222380Y-141480952D01*
X98317619Y-141433333D01*
X98555714Y-141433333D01*
X98650952Y-141480952D01*
X98698571Y-141528571D01*
X98746190Y-141623809D01*
X98746190Y-141861904D01*
X98698571Y-141957142D01*
X98650952Y-142004761D01*
X98555714Y-142052380D01*
X98317619Y-142052380D01*
X98222380Y-142004761D01*
X98174761Y-141957142D01*
X99031904Y-141052380D02*
X99365238Y-142052380D01*
X99698571Y-141052380D01*
X115137142Y-142042380D02*
X115137142Y-141042380D01*
X115375238Y-141042380D01*
X115518095Y-141090000D01*
X115613333Y-141185238D01*
X115660952Y-141280476D01*
X115708571Y-141470952D01*
X115708571Y-141613809D01*
X115660952Y-141804285D01*
X115613333Y-141899523D01*
X115518095Y-141994761D01*
X115375238Y-142042380D01*
X115137142Y-142042380D01*
X115994285Y-141042380D02*
X116565714Y-141042380D01*
X116280000Y-142042380D02*
X116280000Y-141042380D01*
X117470476Y-142042380D02*
X117137142Y-141566190D01*
X116899047Y-142042380D02*
X116899047Y-141042380D01*
X117280000Y-141042380D01*
X117375238Y-141090000D01*
X117422857Y-141137619D01*
X117470476Y-141232857D01*
X117470476Y-141375714D01*
X117422857Y-141470952D01*
X117375238Y-141518571D01*
X117280000Y-141566190D01*
X116899047Y-141566190D01*
X120822380Y-142062380D02*
X120489047Y-141586190D01*
X120250952Y-142062380D02*
X120250952Y-141062380D01*
X120631904Y-141062380D01*
X120727142Y-141110000D01*
X120774761Y-141157619D01*
X120822380Y-141252857D01*
X120822380Y-141395714D01*
X120774761Y-141490952D01*
X120727142Y-141538571D01*
X120631904Y-141586190D01*
X120250952Y-141586190D01*
X121108095Y-141062380D02*
X121679523Y-141062380D01*
X121393809Y-142062380D02*
X121393809Y-141062380D01*
X121965238Y-142014761D02*
X122108095Y-142062380D01*
X122346190Y-142062380D01*
X122441428Y-142014761D01*
X122489047Y-141967142D01*
X122536666Y-141871904D01*
X122536666Y-141776666D01*
X122489047Y-141681428D01*
X122441428Y-141633809D01*
X122346190Y-141586190D01*
X122155714Y-141538571D01*
X122060476Y-141490952D01*
X122012857Y-141443333D01*
X121965238Y-141348095D01*
X121965238Y-141252857D01*
X122012857Y-141157619D01*
X122060476Y-141110000D01*
X122155714Y-141062380D01*
X122393809Y-141062380D01*
X122536666Y-141110000D01*
X128198095Y-141147619D02*
X128245714Y-141100000D01*
X128340952Y-141052380D01*
X128579047Y-141052380D01*
X128674285Y-141100000D01*
X128721904Y-141147619D01*
X128769523Y-141242857D01*
X128769523Y-141338095D01*
X128721904Y-141480952D01*
X128150476Y-142052380D01*
X128769523Y-142052380D01*
X129626666Y-141385714D02*
X129626666Y-142052380D01*
X129388571Y-141004761D02*
X129150476Y-141719047D01*
X129769523Y-141719047D01*
X130758095Y-141147619D02*
X130805714Y-141100000D01*
X130900952Y-141052380D01*
X131139047Y-141052380D01*
X131234285Y-141100000D01*
X131281904Y-141147619D01*
X131329523Y-141242857D01*
X131329523Y-141338095D01*
X131281904Y-141480952D01*
X130710476Y-142052380D01*
X131329523Y-142052380D01*
X132186666Y-141052380D02*
X131996190Y-141052380D01*
X131900952Y-141100000D01*
X131853333Y-141147619D01*
X131758095Y-141290476D01*
X131710476Y-141480952D01*
X131710476Y-141861904D01*
X131758095Y-141957142D01*
X131805714Y-142004761D01*
X131900952Y-142052380D01*
X132091428Y-142052380D01*
X132186666Y-142004761D01*
X132234285Y-141957142D01*
X132281904Y-141861904D01*
X132281904Y-141623809D01*
X132234285Y-141528571D01*
X132186666Y-141480952D01*
X132091428Y-141433333D01*
X131900952Y-141433333D01*
X131805714Y-141480952D01*
X131758095Y-141528571D01*
X131710476Y-141623809D01*
X133308095Y-141147619D02*
X133355714Y-141100000D01*
X133450952Y-141052380D01*
X133689047Y-141052380D01*
X133784285Y-141100000D01*
X133831904Y-141147619D01*
X133879523Y-141242857D01*
X133879523Y-141338095D01*
X133831904Y-141480952D01*
X133260476Y-142052380D01*
X133879523Y-142052380D01*
X134212857Y-141052380D02*
X134879523Y-141052380D01*
X134450952Y-142052380D01*
X135833095Y-141147619D02*
X135880714Y-141100000D01*
X135975952Y-141052380D01*
X136214047Y-141052380D01*
X136309285Y-141100000D01*
X136356904Y-141147619D01*
X136404523Y-141242857D01*
X136404523Y-141338095D01*
X136356904Y-141480952D01*
X135785476Y-142052380D01*
X136404523Y-142052380D01*
X136975952Y-141480952D02*
X136880714Y-141433333D01*
X136833095Y-141385714D01*
X136785476Y-141290476D01*
X136785476Y-141242857D01*
X136833095Y-141147619D01*
X136880714Y-141100000D01*
X136975952Y-141052380D01*
X137166428Y-141052380D01*
X137261666Y-141100000D01*
X137309285Y-141147619D01*
X137356904Y-141242857D01*
X137356904Y-141290476D01*
X137309285Y-141385714D01*
X137261666Y-141433333D01*
X137166428Y-141480952D01*
X136975952Y-141480952D01*
X136880714Y-141528571D01*
X136833095Y-141576190D01*
X136785476Y-141671428D01*
X136785476Y-141861904D01*
X136833095Y-141957142D01*
X136880714Y-142004761D01*
X136975952Y-142052380D01*
X137166428Y-142052380D01*
X137261666Y-142004761D01*
X137309285Y-141957142D01*
X137356904Y-141861904D01*
X137356904Y-141671428D01*
X137309285Y-141576190D01*
X137261666Y-141528571D01*
X137166428Y-141480952D01*
X138383095Y-141147619D02*
X138430714Y-141100000D01*
X138525952Y-141052380D01*
X138764047Y-141052380D01*
X138859285Y-141100000D01*
X138906904Y-141147619D01*
X138954523Y-141242857D01*
X138954523Y-141338095D01*
X138906904Y-141480952D01*
X138335476Y-142052380D01*
X138954523Y-142052380D01*
X139430714Y-142052380D02*
X139621190Y-142052380D01*
X139716428Y-142004761D01*
X139764047Y-141957142D01*
X139859285Y-141814285D01*
X139906904Y-141623809D01*
X139906904Y-141242857D01*
X139859285Y-141147619D01*
X139811666Y-141100000D01*
X139716428Y-141052380D01*
X139525952Y-141052380D01*
X139430714Y-141100000D01*
X139383095Y-141147619D01*
X139335476Y-141242857D01*
X139335476Y-141480952D01*
X139383095Y-141576190D01*
X139430714Y-141623809D01*
X139525952Y-141671428D01*
X139716428Y-141671428D01*
X139811666Y-141623809D01*
X139859285Y-141576190D01*
X139906904Y-141480952D01*
X140860476Y-141052380D02*
X141479523Y-141052380D01*
X141146190Y-141433333D01*
X141289047Y-141433333D01*
X141384285Y-141480952D01*
X141431904Y-141528571D01*
X141479523Y-141623809D01*
X141479523Y-141861904D01*
X141431904Y-141957142D01*
X141384285Y-142004761D01*
X141289047Y-142052380D01*
X141003333Y-142052380D01*
X140908095Y-142004761D01*
X140860476Y-141957142D01*
X142098571Y-141052380D02*
X142193809Y-141052380D01*
X142289047Y-141100000D01*
X142336666Y-141147619D01*
X142384285Y-141242857D01*
X142431904Y-141433333D01*
X142431904Y-141671428D01*
X142384285Y-141861904D01*
X142336666Y-141957142D01*
X142289047Y-142004761D01*
X142193809Y-142052380D01*
X142098571Y-142052380D01*
X142003333Y-142004761D01*
X141955714Y-141957142D01*
X141908095Y-141861904D01*
X141860476Y-141671428D01*
X141860476Y-141433333D01*
X141908095Y-141242857D01*
X141955714Y-141147619D01*
X142003333Y-141100000D01*
X142098571Y-141052380D01*
X143385476Y-141052380D02*
X144004523Y-141052380D01*
X143671190Y-141433333D01*
X143814047Y-141433333D01*
X143909285Y-141480952D01*
X143956904Y-141528571D01*
X144004523Y-141623809D01*
X144004523Y-141861904D01*
X143956904Y-141957142D01*
X143909285Y-142004761D01*
X143814047Y-142052380D01*
X143528333Y-142052380D01*
X143433095Y-142004761D01*
X143385476Y-141957142D01*
X144956904Y-142052380D02*
X144385476Y-142052380D01*
X144671190Y-142052380D02*
X144671190Y-141052380D01*
X144575952Y-141195238D01*
X144480714Y-141290476D01*
X144385476Y-141338095D01*
X145935476Y-141052380D02*
X146554523Y-141052380D01*
X146221190Y-141433333D01*
X146364047Y-141433333D01*
X146459285Y-141480952D01*
X146506904Y-141528571D01*
X146554523Y-141623809D01*
X146554523Y-141861904D01*
X146506904Y-141957142D01*
X146459285Y-142004761D01*
X146364047Y-142052380D01*
X146078333Y-142052380D01*
X145983095Y-142004761D01*
X145935476Y-141957142D01*
X146887857Y-141052380D02*
X147506904Y-141052380D01*
X147173571Y-141433333D01*
X147316428Y-141433333D01*
X147411666Y-141480952D01*
X147459285Y-141528571D01*
X147506904Y-141623809D01*
X147506904Y-141861904D01*
X147459285Y-141957142D01*
X147411666Y-142004761D01*
X147316428Y-142052380D01*
X147030714Y-142052380D01*
X146935476Y-142004761D01*
X146887857Y-141957142D01*
X149199761Y-142052380D02*
X148866428Y-141576190D01*
X148628333Y-142052380D02*
X148628333Y-141052380D01*
X149009285Y-141052380D01*
X149104523Y-141100000D01*
X149152142Y-141147619D01*
X149199761Y-141242857D01*
X149199761Y-141385714D01*
X149152142Y-141480952D01*
X149104523Y-141528571D01*
X149009285Y-141576190D01*
X148628333Y-141576190D01*
X149533095Y-142052380D02*
X150056904Y-141385714D01*
X149533095Y-141385714D02*
X150056904Y-142052380D01*
X151154523Y-141052380D02*
X151725952Y-141052380D01*
X151440238Y-142052380D02*
X151440238Y-141052380D01*
X151964047Y-142052380D02*
X152487857Y-141385714D01*
X151964047Y-141385714D02*
X152487857Y-142052380D01*
X153560476Y-141052380D02*
X154179523Y-141052380D01*
X153846190Y-141433333D01*
X153989047Y-141433333D01*
X154084285Y-141480952D01*
X154131904Y-141528571D01*
X154179523Y-141623809D01*
X154179523Y-141861904D01*
X154131904Y-141957142D01*
X154084285Y-142004761D01*
X153989047Y-142052380D01*
X153703333Y-142052380D01*
X153608095Y-142004761D01*
X153560476Y-141957142D01*
X155036666Y-141052380D02*
X154846190Y-141052380D01*
X154750952Y-141100000D01*
X154703333Y-141147619D01*
X154608095Y-141290476D01*
X154560476Y-141480952D01*
X154560476Y-141861904D01*
X154608095Y-141957142D01*
X154655714Y-142004761D01*
X154750952Y-142052380D01*
X154941428Y-142052380D01*
X155036666Y-142004761D01*
X155084285Y-141957142D01*
X155131904Y-141861904D01*
X155131904Y-141623809D01*
X155084285Y-141528571D01*
X155036666Y-141480952D01*
X154941428Y-141433333D01*
X154750952Y-141433333D01*
X154655714Y-141480952D01*
X154608095Y-141528571D01*
X154560476Y-141623809D01*
X156060476Y-141052380D02*
X156679523Y-141052380D01*
X156346190Y-141433333D01*
X156489047Y-141433333D01*
X156584285Y-141480952D01*
X156631904Y-141528571D01*
X156679523Y-141623809D01*
X156679523Y-141861904D01*
X156631904Y-141957142D01*
X156584285Y-142004761D01*
X156489047Y-142052380D01*
X156203333Y-142052380D01*
X156108095Y-142004761D01*
X156060476Y-141957142D01*
X157012857Y-141052380D02*
X157679523Y-141052380D01*
X157250952Y-142052380D01*
X158933095Y-141100000D02*
X158837857Y-141052380D01*
X158695000Y-141052380D01*
X158552142Y-141100000D01*
X158456904Y-141195238D01*
X158409285Y-141290476D01*
X158361666Y-141480952D01*
X158361666Y-141623809D01*
X158409285Y-141814285D01*
X158456904Y-141909523D01*
X158552142Y-142004761D01*
X158695000Y-142052380D01*
X158790238Y-142052380D01*
X158933095Y-142004761D01*
X158980714Y-141957142D01*
X158980714Y-141623809D01*
X158790238Y-141623809D01*
X159409285Y-142052380D02*
X159409285Y-141052380D01*
X159980714Y-142052380D01*
X159980714Y-141052380D01*
X160456904Y-142052380D02*
X160456904Y-141052380D01*
X160695000Y-141052380D01*
X160837857Y-141100000D01*
X160933095Y-141195238D01*
X160980714Y-141290476D01*
X161028333Y-141480952D01*
X161028333Y-141623809D01*
X160980714Y-141814285D01*
X160933095Y-141909523D01*
X160837857Y-142004761D01*
X160695000Y-142052380D01*
X160456904Y-142052380D01*
D10*
X111960000Y-119390000D02*
X111960000Y-117990000D01*
X112660000Y-117290000D02*
X113260000Y-117290000D01*
X113960000Y-117990000D02*
X113960000Y-119390000D01*
X113260000Y-120090000D02*
X112660000Y-120090000D01*
X112660000Y-120090000D02*
G75*
G02X111960000Y-119390000I0J700000D01*
G01*
X113960000Y-119390000D02*
G75*
G02X113260000Y-120090000I-700000J0D01*
G01*
X113260000Y-117290000D02*
G75*
G02X113960000Y-117990000I0J-700000D01*
G01*
X111960000Y-117990000D02*
G75*
G02X112660000Y-117290000I700000J0D01*
G01*
X127870000Y-87063748D02*
X127870000Y-87586252D01*
X129290000Y-87063748D02*
X129290000Y-87586252D01*
X107290000Y-87586252D02*
X107290000Y-87063748D01*
X105870000Y-87586252D02*
X105870000Y-87063748D01*
X113605000Y-87300000D02*
X113605000Y-85970000D01*
X113605000Y-85970000D02*
X114935000Y-85970000D01*
X116205000Y-85970000D02*
X121345000Y-85970000D01*
X121345000Y-88630000D02*
X121345000Y-85970000D01*
X116205000Y-88630000D02*
X121345000Y-88630000D01*
X116205000Y-88630000D02*
X116205000Y-85970000D01*
X140645000Y-104605000D02*
X139865000Y-104605000D01*
X139865000Y-104605000D02*
X139865000Y-105605000D01*
X140645000Y-122845000D02*
X139865000Y-122845000D01*
X139865000Y-122845000D02*
X139865000Y-121845000D01*
X165610000Y-104605000D02*
X165610000Y-122845000D01*
X165610000Y-122845000D02*
X159190000Y-122845000D01*
X165610000Y-104605000D02*
X159190000Y-104605000D01*
X159190000Y-104605000D02*
X159190000Y-104225000D01*
X133670000Y-106143748D02*
X133670000Y-106666252D01*
X135090000Y-106143748D02*
X135090000Y-106666252D01*
X133670000Y-99953748D02*
X133670000Y-100476252D01*
X135090000Y-99953748D02*
X135090000Y-100476252D01*
X127180000Y-129585000D02*
X127480000Y-129585000D01*
X127180000Y-132885000D02*
X127180000Y-129585000D01*
X127480000Y-132885000D02*
X127180000Y-132885000D01*
X129980000Y-129585000D02*
X129680000Y-129585000D01*
X129980000Y-132885000D02*
X129980000Y-129585000D01*
X129680000Y-132885000D02*
X129980000Y-132885000D01*
X116260000Y-106433748D02*
X116260000Y-106956252D01*
X117680000Y-106433748D02*
X117680000Y-106956252D01*
X108010000Y-106956252D02*
X108010000Y-106433748D01*
X109430000Y-106956252D02*
X109430000Y-106433748D01*
X89180000Y-91545000D02*
X89180000Y-93545000D01*
X91420000Y-91545000D02*
X89180000Y-91545000D01*
X92504000Y-98165000D02*
X92411000Y-98071000D01*
X94755000Y-100415000D02*
X94696000Y-100356000D01*
X92264000Y-98335000D02*
X92206000Y-98276000D01*
X94549000Y-100620000D02*
X94456000Y-100526000D01*
X97540000Y-101905000D02*
X89420000Y-101905000D01*
X97540000Y-91785000D02*
X89420000Y-91785000D01*
X89420000Y-91785000D02*
X89420000Y-101905000D01*
X97540000Y-91785000D02*
X97540000Y-101905000D01*
X95480000Y-91785000D02*
X95480000Y-101905000D01*
X91480000Y-91785000D02*
X91480000Y-101905000D01*
X95160000Y-99345000D02*
G75*
G03X95160000Y-99345000I-1680000J0D01*
G01*
X91799550Y-94374383D02*
G75*
G02X91996000Y-93556000I1680450J29383D01*
G01*
X92690912Y-92861047D02*
G75*
G02X94269000Y-92861000I789088J-1483953D01*
G01*
X94963953Y-93555912D02*
G75*
G02X94964000Y-95134000I-1483953J-789088D01*
G01*
X94269088Y-95828953D02*
G75*
G02X92691000Y-95829000I-789088J1483953D01*
G01*
X91996648Y-95133712D02*
G75*
G02X91800000Y-94345000I1483352J788712D01*
G01*
X129290000Y-99953748D02*
X129290000Y-100476252D01*
X127870000Y-99953748D02*
X127870000Y-100476252D01*
X101080000Y-114321252D02*
X101080000Y-113798748D01*
X99660000Y-114321252D02*
X99660000Y-113798748D01*
X99680000Y-118951252D02*
X99680000Y-118428748D01*
X101100000Y-118951252D02*
X101100000Y-118428748D01*
X112260000Y-106956252D02*
X112260000Y-106433748D01*
X113680000Y-106956252D02*
X113680000Y-106433748D01*
X116260000Y-100546252D02*
X116260000Y-100023748D01*
X117680000Y-100546252D02*
X117680000Y-100023748D01*
D12*
X122755000Y-97085000D02*
G75*
G03X122755000Y-97085000I-125000J0D01*
G01*
D13*
X120430000Y-97035000D02*
X118330000Y-97035000D01*
X120430000Y-90535000D02*
X120430000Y-97035000D01*
X118330000Y-90535000D02*
X120430000Y-90535000D01*
D10*
X87742700Y-116267600D02*
X87742700Y-125462400D01*
X87742700Y-125462400D02*
X89273707Y-125462400D01*
X93301308Y-116267600D02*
X91646891Y-116267600D01*
X89273707Y-116267600D02*
X87742700Y-116267600D01*
X91646891Y-125462400D02*
X93301308Y-125462400D01*
X124930000Y-105725000D02*
X124930000Y-113025000D01*
X120630000Y-105725000D02*
X120630000Y-113025000D01*
X124930000Y-105725000D02*
X120630000Y-105725000D01*
X99680000Y-122778748D02*
X99680000Y-123301252D01*
X101100000Y-122778748D02*
X101100000Y-123301252D01*
X123630000Y-98685000D02*
X123630000Y-99635000D01*
X121030000Y-98685000D02*
X123630000Y-98685000D01*
X123630000Y-100935000D02*
X123630000Y-101735000D01*
X105180000Y-106956252D02*
X105180000Y-106433748D01*
X103760000Y-106956252D02*
X103760000Y-106433748D01*
X106340000Y-110615000D02*
X102890000Y-110615000D01*
X106340000Y-110615000D02*
X108290000Y-110615000D01*
X106340000Y-115735000D02*
X104390000Y-115735000D01*
X106340000Y-115735000D02*
X108290000Y-115735000D01*
X106580000Y-96415000D02*
X105250000Y-96415000D01*
X105250000Y-96415000D02*
X105250000Y-95085000D01*
X105250000Y-93815000D02*
X105250000Y-91215000D01*
X107910000Y-91215000D02*
X105250000Y-91215000D01*
X107910000Y-93815000D02*
X107910000Y-91215000D01*
X107910000Y-93815000D02*
X105250000Y-93815000D01*
X117670000Y-118433748D02*
X117670000Y-118956252D01*
X116250000Y-118433748D02*
X116250000Y-118956252D01*
X101440000Y-93523748D02*
X101440000Y-94046252D01*
X100020000Y-93523748D02*
X100020000Y-94046252D01*
X114105000Y-115655000D02*
X114105000Y-111595000D01*
X111835000Y-115655000D02*
X114105000Y-115655000D01*
X111835000Y-111595000D02*
X111835000Y-115655000D01*
X101420000Y-100003748D02*
X101420000Y-100526252D01*
X100000000Y-100003748D02*
X100000000Y-100526252D01*
X107480000Y-98675000D02*
X105680000Y-98675000D01*
X105680000Y-101895000D02*
X108630000Y-101895000D01*
X113680000Y-100023748D02*
X113680000Y-100546252D01*
X112260000Y-100023748D02*
X112260000Y-100546252D01*
X118105000Y-115655000D02*
X118105000Y-111595000D01*
X115835000Y-115655000D02*
X118105000Y-115655000D01*
X115835000Y-111595000D02*
X115835000Y-115655000D01*
X99640000Y-107707064D02*
X99640000Y-106502936D01*
X101460000Y-107707064D02*
X101460000Y-106502936D01*
X103930000Y-134013748D02*
X103930000Y-134536252D01*
X105350000Y-134013748D02*
X105350000Y-134536252D01*
D13*
X90195000Y-135213000D02*
X95235000Y-135213000D01*
X95235000Y-132617000D02*
X89890000Y-132617000D01*
X90195000Y-130538000D02*
X95235000Y-130538000D01*
X95235000Y-127942000D02*
X89890000Y-127942000D01*
D10*
X107420000Y-134013748D02*
X107420000Y-134536252D01*
X108840000Y-134013748D02*
X108840000Y-134536252D01*
X112955000Y-131810000D02*
G75*
G03X118005000Y-131810000I2525000J0D01*
G01*
X112955000Y-125560000D02*
G75*
G02X118005000Y-125560000I2525000J0D01*
G01*
X112955000Y-125560000D02*
X112955000Y-131810000D01*
X118005000Y-125560000D02*
X118005000Y-131810000D01*
D13*
X90190000Y-113813000D02*
X95230000Y-113813000D01*
X95230000Y-111217000D02*
X89885000Y-111217000D01*
D10*
X103760000Y-118423748D02*
X103760000Y-118946252D01*
X105180000Y-118423748D02*
X105180000Y-118946252D01*
X101100000Y-127701252D02*
X101100000Y-127178748D01*
X99680000Y-127701252D02*
X99680000Y-127178748D01*
D11*
X91165000Y-104920000D02*
X91165000Y-105020000D01*
X95815000Y-104920000D02*
X95815000Y-105120000D01*
X95815000Y-108170000D02*
X95815000Y-107970000D01*
X91165000Y-108170000D02*
X91165000Y-107970000D01*
X91165000Y-104920000D02*
X95815000Y-104920000D01*
X91165000Y-108170000D02*
X95815000Y-108170000D01*
X91165000Y-105020000D02*
X89815000Y-105020000D01*
D10*
X106340000Y-121330000D02*
X102890000Y-121330000D01*
X106340000Y-121330000D02*
X108290000Y-121330000D01*
X106340000Y-131450000D02*
X104390000Y-131450000D01*
X106340000Y-131450000D02*
X108290000Y-131450000D01*
X128580000Y-96445000D02*
X127250000Y-96445000D01*
X127250000Y-96445000D02*
X127250000Y-95115000D01*
X127250000Y-93845000D02*
X127250000Y-91245000D01*
X129910000Y-91245000D02*
X127250000Y-91245000D01*
X129910000Y-93845000D02*
X129910000Y-91245000D01*
X129910000Y-93845000D02*
X127250000Y-93845000D01*
X108010000Y-118428748D02*
X108010000Y-118951252D01*
X109430000Y-118428748D02*
X109430000Y-118951252D01*
X157981252Y-93610000D02*
X157458748Y-93610000D01*
X157981252Y-92190000D02*
X157458748Y-92190000D01*
X157463748Y-95740000D02*
X157986252Y-95740000D01*
X157463748Y-97160000D02*
X157986252Y-97160000D01*
X129975000Y-104465199D02*
X129575000Y-104465199D01*
X129775000Y-104265199D02*
X129775000Y-104665199D01*
X128950000Y-108616000D02*
X128210000Y-108616000D01*
X129117000Y-108576000D02*
X128043000Y-108576000D01*
X129244000Y-108536000D02*
X127916000Y-108536000D01*
X129348000Y-108496000D02*
X127812000Y-108496000D01*
X129439000Y-108456000D02*
X127721000Y-108456000D01*
X129520000Y-108416000D02*
X127640000Y-108416000D01*
X129593000Y-108376000D02*
X127567000Y-108376000D01*
X127740000Y-108336000D02*
X127500000Y-108336000D01*
X129660000Y-108336000D02*
X129420000Y-108336000D01*
X127740000Y-108296000D02*
X127438000Y-108296000D01*
X129722000Y-108296000D02*
X129420000Y-108296000D01*
X127740000Y-108256000D02*
X127380000Y-108256000D01*
X129780000Y-108256000D02*
X129420000Y-108256000D01*
X127740000Y-108216000D02*
X127326000Y-108216000D01*
X129834000Y-108216000D02*
X129420000Y-108216000D01*
X127740000Y-108176000D02*
X127276000Y-108176000D01*
X129884000Y-108176000D02*
X129420000Y-108176000D01*
X127740000Y-108136000D02*
X127229000Y-108136000D01*
X129931000Y-108136000D02*
X129420000Y-108136000D01*
X127740000Y-108096000D02*
X127184000Y-108096000D01*
X129976000Y-108096000D02*
X129420000Y-108096000D01*
X127740000Y-108056000D02*
X127142000Y-108056000D01*
X130018000Y-108056000D02*
X129420000Y-108056000D01*
X127740000Y-108016000D02*
X127102000Y-108016000D01*
X130058000Y-108016000D02*
X129420000Y-108016000D01*
X127740000Y-107976000D02*
X127064000Y-107976000D01*
X130096000Y-107976000D02*
X129420000Y-107976000D01*
X127740000Y-107936000D02*
X127028000Y-107936000D01*
X130132000Y-107936000D02*
X129420000Y-107936000D01*
X127740000Y-107896000D02*
X126993000Y-107896000D01*
X130167000Y-107896000D02*
X129420000Y-107896000D01*
X127740000Y-107856000D02*
X126961000Y-107856000D01*
X130199000Y-107856000D02*
X129420000Y-107856000D01*
X127740000Y-107816000D02*
X126930000Y-107816000D01*
X130230000Y-107816000D02*
X129420000Y-107816000D01*
X127740000Y-107776000D02*
X126900000Y-107776000D01*
X130260000Y-107776000D02*
X129420000Y-107776000D01*
X127740000Y-107736000D02*
X126872000Y-107736000D01*
X130288000Y-107736000D02*
X129420000Y-107736000D01*
X127740000Y-107696000D02*
X126845000Y-107696000D01*
X130315000Y-107696000D02*
X129420000Y-107696000D01*
X127740000Y-107656000D02*
X126820000Y-107656000D01*
X130340000Y-107656000D02*
X129420000Y-107656000D01*
X127740000Y-107616000D02*
X126795000Y-107616000D01*
X130365000Y-107616000D02*
X129420000Y-107616000D01*
X127740000Y-107576000D02*
X126772000Y-107576000D01*
X130388000Y-107576000D02*
X129420000Y-107576000D01*
X127740000Y-107536000D02*
X126750000Y-107536000D01*
X130410000Y-107536000D02*
X129420000Y-107536000D01*
X127740000Y-107496000D02*
X126729000Y-107496000D01*
X130431000Y-107496000D02*
X129420000Y-107496000D01*
X127740000Y-107456000D02*
X126710000Y-107456000D01*
X130450000Y-107456000D02*
X129420000Y-107456000D01*
X127740000Y-107416000D02*
X126691000Y-107416000D01*
X130469000Y-107416000D02*
X129420000Y-107416000D01*
X127740000Y-107376000D02*
X126673000Y-107376000D01*
X130487000Y-107376000D02*
X129420000Y-107376000D01*
X127740000Y-107336000D02*
X126656000Y-107336000D01*
X130504000Y-107336000D02*
X129420000Y-107336000D01*
X127740000Y-107296000D02*
X126640000Y-107296000D01*
X130520000Y-107296000D02*
X129420000Y-107296000D01*
X127740000Y-107256000D02*
X126626000Y-107256000D01*
X130534000Y-107256000D02*
X129420000Y-107256000D01*
X127740000Y-107215000D02*
X126612000Y-107215000D01*
X130548000Y-107215000D02*
X129420000Y-107215000D01*
X127740000Y-107175000D02*
X126598000Y-107175000D01*
X130562000Y-107175000D02*
X129420000Y-107175000D01*
X127740000Y-107135000D02*
X126586000Y-107135000D01*
X130574000Y-107135000D02*
X129420000Y-107135000D01*
X127740000Y-107095000D02*
X126575000Y-107095000D01*
X130585000Y-107095000D02*
X129420000Y-107095000D01*
X127740000Y-107055000D02*
X126564000Y-107055000D01*
X130596000Y-107055000D02*
X129420000Y-107055000D01*
X127740000Y-107015000D02*
X126555000Y-107015000D01*
X130605000Y-107015000D02*
X129420000Y-107015000D01*
X127740000Y-106975000D02*
X126546000Y-106975000D01*
X130614000Y-106975000D02*
X129420000Y-106975000D01*
X127740000Y-106935000D02*
X126538000Y-106935000D01*
X130622000Y-106935000D02*
X129420000Y-106935000D01*
X127740000Y-106895000D02*
X126530000Y-106895000D01*
X130630000Y-106895000D02*
X129420000Y-106895000D01*
X127740000Y-106855000D02*
X126524000Y-106855000D01*
X130636000Y-106855000D02*
X129420000Y-106855000D01*
X127740000Y-106815000D02*
X126518000Y-106815000D01*
X130642000Y-106815000D02*
X129420000Y-106815000D01*
X127740000Y-106775000D02*
X126513000Y-106775000D01*
X130647000Y-106775000D02*
X129420000Y-106775000D01*
X127740000Y-106735000D02*
X126509000Y-106735000D01*
X130651000Y-106735000D02*
X129420000Y-106735000D01*
X130654000Y-106695000D02*
X126506000Y-106695000D01*
X130657000Y-106655000D02*
X126503000Y-106655000D01*
X130659000Y-106615000D02*
X126501000Y-106615000D01*
X130660000Y-106575000D02*
X126500000Y-106575000D01*
X130660000Y-106535000D02*
X126500000Y-106535000D01*
X130700000Y-106535000D02*
G75*
G03X130700000Y-106535000I-2120000J0D01*
G01*
X135090000Y-128991252D02*
X135090000Y-128468748D01*
X133670000Y-128991252D02*
X133670000Y-128468748D01*
X129340000Y-113815000D02*
X127880000Y-113815000D01*
X129340000Y-110655000D02*
X127180000Y-110655000D01*
X129340000Y-110655000D02*
X129340000Y-111585000D01*
X129340000Y-113815000D02*
X129340000Y-112885000D01*
X129340000Y-126485000D02*
X129340000Y-125555000D01*
X129340000Y-123325000D02*
X129340000Y-124255000D01*
X129340000Y-123325000D02*
X127180000Y-123325000D01*
X129340000Y-126485000D02*
X127880000Y-126485000D01*
X122070000Y-118956252D02*
X122070000Y-118433748D01*
X123490000Y-118956252D02*
X123490000Y-118433748D01*
X123490000Y-123473748D02*
X123490000Y-123996252D01*
X122070000Y-123473748D02*
X122070000Y-123996252D01*
X127480000Y-117045000D02*
X127180000Y-117045000D01*
X127180000Y-117045000D02*
X127180000Y-120345000D01*
X127180000Y-120345000D02*
X127480000Y-120345000D01*
X129680000Y-117045000D02*
X129980000Y-117045000D01*
X129980000Y-117045000D02*
X129980000Y-120345000D01*
X129980000Y-120345000D02*
X129680000Y-120345000D01*
X133670000Y-118433748D02*
X133670000Y-118956252D01*
X135090000Y-118433748D02*
X135090000Y-118956252D01*
X122070000Y-128996252D02*
X122070000Y-128473748D01*
X123490000Y-128996252D02*
X123490000Y-128473748D01*
X123490000Y-133996252D02*
X123490000Y-133473748D01*
X122070000Y-133996252D02*
X122070000Y-133473748D01*
D11*
X110612380Y-119523333D02*
X111326666Y-119523333D01*
X111469523Y-119570952D01*
X111564761Y-119666190D01*
X111612380Y-119809047D01*
X111612380Y-119904285D01*
X111612380Y-119047142D02*
X110612380Y-119047142D01*
X110612380Y-118666190D01*
X110660000Y-118570952D01*
X110707619Y-118523333D01*
X110802857Y-118475714D01*
X110945714Y-118475714D01*
X111040952Y-118523333D01*
X111088571Y-118570952D01*
X111136190Y-118666190D01*
X111136190Y-119047142D01*
X110945714Y-117618571D02*
X111612380Y-117618571D01*
X110564761Y-117856666D02*
X111279047Y-118094761D01*
X111279047Y-117475714D01*
X127377380Y-87967857D02*
X126901190Y-88301190D01*
X127377380Y-88539285D02*
X126377380Y-88539285D01*
X126377380Y-88158333D01*
X126425000Y-88063095D01*
X126472619Y-88015476D01*
X126567857Y-87967857D01*
X126710714Y-87967857D01*
X126805952Y-88015476D01*
X126853571Y-88063095D01*
X126901190Y-88158333D01*
X126901190Y-88539285D01*
X127377380Y-87015476D02*
X127377380Y-87586904D01*
X127377380Y-87301190D02*
X126377380Y-87301190D01*
X126520238Y-87396428D01*
X126615476Y-87491666D01*
X126663095Y-87586904D01*
X126377380Y-86158333D02*
X126377380Y-86348809D01*
X126425000Y-86444047D01*
X126472619Y-86491666D01*
X126615476Y-86586904D01*
X126805952Y-86634523D01*
X127186904Y-86634523D01*
X127282142Y-86586904D01*
X127329761Y-86539285D01*
X127377380Y-86444047D01*
X127377380Y-86253571D01*
X127329761Y-86158333D01*
X127282142Y-86110714D01*
X127186904Y-86063095D01*
X126948809Y-86063095D01*
X126853571Y-86110714D01*
X126805952Y-86158333D01*
X126758333Y-86253571D01*
X126758333Y-86444047D01*
X126805952Y-86539285D01*
X126853571Y-86586904D01*
X126948809Y-86634523D01*
X105307380Y-87942857D02*
X104831190Y-88276190D01*
X105307380Y-88514285D02*
X104307380Y-88514285D01*
X104307380Y-88133333D01*
X104355000Y-88038095D01*
X104402619Y-87990476D01*
X104497857Y-87942857D01*
X104640714Y-87942857D01*
X104735952Y-87990476D01*
X104783571Y-88038095D01*
X104831190Y-88133333D01*
X104831190Y-88514285D01*
X105307380Y-86990476D02*
X105307380Y-87561904D01*
X105307380Y-87276190D02*
X104307380Y-87276190D01*
X104450238Y-87371428D01*
X104545476Y-87466666D01*
X104593095Y-87561904D01*
X104307380Y-86085714D02*
X104307380Y-86561904D01*
X104783571Y-86609523D01*
X104735952Y-86561904D01*
X104688333Y-86466666D01*
X104688333Y-86228571D01*
X104735952Y-86133333D01*
X104783571Y-86085714D01*
X104878809Y-86038095D01*
X105116904Y-86038095D01*
X105212142Y-86085714D01*
X105259761Y-86133333D01*
X105307380Y-86228571D01*
X105307380Y-86466666D01*
X105259761Y-86561904D01*
X105212142Y-86609523D01*
X111617380Y-88133333D02*
X112331666Y-88133333D01*
X112474523Y-88180952D01*
X112569761Y-88276190D01*
X112617380Y-88419047D01*
X112617380Y-88514285D01*
X112617380Y-87657142D02*
X111617380Y-87657142D01*
X111617380Y-87276190D01*
X111665000Y-87180952D01*
X111712619Y-87133333D01*
X111807857Y-87085714D01*
X111950714Y-87085714D01*
X112045952Y-87133333D01*
X112093571Y-87180952D01*
X112141190Y-87276190D01*
X112141190Y-87657142D01*
X111617380Y-86752380D02*
X111617380Y-86133333D01*
X111998333Y-86466666D01*
X111998333Y-86323809D01*
X112045952Y-86228571D01*
X112093571Y-86180952D01*
X112188809Y-86133333D01*
X112426904Y-86133333D01*
X112522142Y-86180952D01*
X112569761Y-86228571D01*
X112617380Y-86323809D01*
X112617380Y-86609523D01*
X112569761Y-86704761D01*
X112522142Y-86752380D01*
X147582142Y-102178571D02*
X147915476Y-102178571D01*
X148058333Y-102702380D02*
X147582142Y-102702380D01*
X147582142Y-101702380D01*
X148058333Y-101702380D01*
X148439285Y-102654761D02*
X148582142Y-102702380D01*
X148820238Y-102702380D01*
X148915476Y-102654761D01*
X148963095Y-102607142D01*
X149010714Y-102511904D01*
X149010714Y-102416666D01*
X148963095Y-102321428D01*
X148915476Y-102273809D01*
X148820238Y-102226190D01*
X148629761Y-102178571D01*
X148534523Y-102130952D01*
X148486904Y-102083333D01*
X148439285Y-101988095D01*
X148439285Y-101892857D01*
X148486904Y-101797619D01*
X148534523Y-101750000D01*
X148629761Y-101702380D01*
X148867857Y-101702380D01*
X149010714Y-101750000D01*
X149439285Y-102702380D02*
X149439285Y-101702380D01*
X149820238Y-101702380D01*
X149915476Y-101750000D01*
X149963095Y-101797619D01*
X150010714Y-101892857D01*
X150010714Y-102035714D01*
X149963095Y-102130952D01*
X149915476Y-102178571D01*
X149820238Y-102226190D01*
X149439285Y-102226190D01*
X150344047Y-101702380D02*
X150963095Y-101702380D01*
X150629761Y-102083333D01*
X150772619Y-102083333D01*
X150867857Y-102130952D01*
X150915476Y-102178571D01*
X150963095Y-102273809D01*
X150963095Y-102511904D01*
X150915476Y-102607142D01*
X150867857Y-102654761D01*
X150772619Y-102702380D01*
X150486904Y-102702380D01*
X150391666Y-102654761D01*
X150344047Y-102607142D01*
X151344047Y-101797619D02*
X151391666Y-101750000D01*
X151486904Y-101702380D01*
X151725000Y-101702380D01*
X151820238Y-101750000D01*
X151867857Y-101797619D01*
X151915476Y-101892857D01*
X151915476Y-101988095D01*
X151867857Y-102130952D01*
X151296428Y-102702380D01*
X151915476Y-102702380D01*
X133017142Y-107047857D02*
X133064761Y-107095476D01*
X133112380Y-107238333D01*
X133112380Y-107333571D01*
X133064761Y-107476428D01*
X132969523Y-107571666D01*
X132874285Y-107619285D01*
X132683809Y-107666904D01*
X132540952Y-107666904D01*
X132350476Y-107619285D01*
X132255238Y-107571666D01*
X132160000Y-107476428D01*
X132112380Y-107333571D01*
X132112380Y-107238333D01*
X132160000Y-107095476D01*
X132207619Y-107047857D01*
X133112380Y-106095476D02*
X133112380Y-106666904D01*
X133112380Y-106381190D02*
X132112380Y-106381190D01*
X132255238Y-106476428D01*
X132350476Y-106571666D01*
X132398095Y-106666904D01*
X132112380Y-105762142D02*
X132112380Y-105143095D01*
X132493333Y-105476428D01*
X132493333Y-105333571D01*
X132540952Y-105238333D01*
X132588571Y-105190714D01*
X132683809Y-105143095D01*
X132921904Y-105143095D01*
X133017142Y-105190714D01*
X133064761Y-105238333D01*
X133112380Y-105333571D01*
X133112380Y-105619285D01*
X133064761Y-105714523D01*
X133017142Y-105762142D01*
X133172380Y-100857857D02*
X132696190Y-101191190D01*
X133172380Y-101429285D02*
X132172380Y-101429285D01*
X132172380Y-101048333D01*
X132220000Y-100953095D01*
X132267619Y-100905476D01*
X132362857Y-100857857D01*
X132505714Y-100857857D01*
X132600952Y-100905476D01*
X132648571Y-100953095D01*
X132696190Y-101048333D01*
X132696190Y-101429285D01*
X133172380Y-99905476D02*
X133172380Y-100476904D01*
X133172380Y-100191190D02*
X132172380Y-100191190D01*
X132315238Y-100286428D01*
X132410476Y-100381666D01*
X132458095Y-100476904D01*
X132267619Y-99524523D02*
X132220000Y-99476904D01*
X132172380Y-99381666D01*
X132172380Y-99143571D01*
X132220000Y-99048333D01*
X132267619Y-99000714D01*
X132362857Y-98953095D01*
X132458095Y-98953095D01*
X132600952Y-99000714D01*
X133172380Y-99572142D01*
X133172380Y-98953095D01*
X127246666Y-131639761D02*
X127389523Y-131687380D01*
X127627619Y-131687380D01*
X127722857Y-131639761D01*
X127770476Y-131592142D01*
X127818095Y-131496904D01*
X127818095Y-131401666D01*
X127770476Y-131306428D01*
X127722857Y-131258809D01*
X127627619Y-131211190D01*
X127437142Y-131163571D01*
X127341904Y-131115952D01*
X127294285Y-131068333D01*
X127246666Y-130973095D01*
X127246666Y-130877857D01*
X127294285Y-130782619D01*
X127341904Y-130735000D01*
X127437142Y-130687380D01*
X127675238Y-130687380D01*
X127818095Y-130735000D01*
X128151428Y-130687380D02*
X128389523Y-131687380D01*
X128580000Y-130973095D01*
X128770476Y-131687380D01*
X129008571Y-130687380D01*
X129341904Y-130782619D02*
X129389523Y-130735000D01*
X129484761Y-130687380D01*
X129722857Y-130687380D01*
X129818095Y-130735000D01*
X129865714Y-130782619D01*
X129913333Y-130877857D01*
X129913333Y-130973095D01*
X129865714Y-131115952D01*
X129294285Y-131687380D01*
X129913333Y-131687380D01*
X115812380Y-106866666D02*
X115336190Y-107200000D01*
X115812380Y-107438095D02*
X114812380Y-107438095D01*
X114812380Y-107057142D01*
X114860000Y-106961904D01*
X114907619Y-106914285D01*
X115002857Y-106866666D01*
X115145714Y-106866666D01*
X115240952Y-106914285D01*
X115288571Y-106961904D01*
X115336190Y-107057142D01*
X115336190Y-107438095D01*
X114812380Y-105961904D02*
X114812380Y-106438095D01*
X115288571Y-106485714D01*
X115240952Y-106438095D01*
X115193333Y-106342857D01*
X115193333Y-106104761D01*
X115240952Y-106009523D01*
X115288571Y-105961904D01*
X115383809Y-105914285D01*
X115621904Y-105914285D01*
X115717142Y-105961904D01*
X115764761Y-106009523D01*
X115812380Y-106104761D01*
X115812380Y-106342857D01*
X115764761Y-106438095D01*
X115717142Y-106485714D01*
X107552380Y-106856666D02*
X107076190Y-107190000D01*
X107552380Y-107428095D02*
X106552380Y-107428095D01*
X106552380Y-107047142D01*
X106600000Y-106951904D01*
X106647619Y-106904285D01*
X106742857Y-106856666D01*
X106885714Y-106856666D01*
X106980952Y-106904285D01*
X107028571Y-106951904D01*
X107076190Y-107047142D01*
X107076190Y-107428095D01*
X106552380Y-105999523D02*
X106552380Y-106190000D01*
X106600000Y-106285238D01*
X106647619Y-106332857D01*
X106790476Y-106428095D01*
X106980952Y-106475714D01*
X107361904Y-106475714D01*
X107457142Y-106428095D01*
X107504761Y-106380476D01*
X107552380Y-106285238D01*
X107552380Y-106094761D01*
X107504761Y-105999523D01*
X107457142Y-105951904D01*
X107361904Y-105904285D01*
X107123809Y-105904285D01*
X107028571Y-105951904D01*
X106980952Y-105999523D01*
X106933333Y-106094761D01*
X106933333Y-106285238D01*
X106980952Y-106380476D01*
X107028571Y-106428095D01*
X107123809Y-106475714D01*
X92694285Y-90673571D02*
X92837142Y-90721190D01*
X92884761Y-90768809D01*
X92932380Y-90864047D01*
X92932380Y-91006904D01*
X92884761Y-91102142D01*
X92837142Y-91149761D01*
X92741904Y-91197380D01*
X92360952Y-91197380D01*
X92360952Y-90197380D01*
X92694285Y-90197380D01*
X92789523Y-90245000D01*
X92837142Y-90292619D01*
X92884761Y-90387857D01*
X92884761Y-90483095D01*
X92837142Y-90578333D01*
X92789523Y-90625952D01*
X92694285Y-90673571D01*
X92360952Y-90673571D01*
X93218095Y-90197380D02*
X93789523Y-90197380D01*
X93503809Y-91197380D02*
X93503809Y-90197380D01*
X94646666Y-91197380D02*
X94075238Y-91197380D01*
X94360952Y-91197380D02*
X94360952Y-90197380D01*
X94265714Y-90340238D01*
X94170476Y-90435476D01*
X94075238Y-90483095D01*
X127327142Y-100381666D02*
X127374761Y-100429285D01*
X127422380Y-100572142D01*
X127422380Y-100667380D01*
X127374761Y-100810238D01*
X127279523Y-100905476D01*
X127184285Y-100953095D01*
X126993809Y-101000714D01*
X126850952Y-101000714D01*
X126660476Y-100953095D01*
X126565238Y-100905476D01*
X126470000Y-100810238D01*
X126422380Y-100667380D01*
X126422380Y-100572142D01*
X126470000Y-100429285D01*
X126517619Y-100381666D01*
X126850952Y-99810238D02*
X126803333Y-99905476D01*
X126755714Y-99953095D01*
X126660476Y-100000714D01*
X126612857Y-100000714D01*
X126517619Y-99953095D01*
X126470000Y-99905476D01*
X126422380Y-99810238D01*
X126422380Y-99619761D01*
X126470000Y-99524523D01*
X126517619Y-99476904D01*
X126612857Y-99429285D01*
X126660476Y-99429285D01*
X126755714Y-99476904D01*
X126803333Y-99524523D01*
X126850952Y-99619761D01*
X126850952Y-99810238D01*
X126898571Y-99905476D01*
X126946190Y-99953095D01*
X127041428Y-100000714D01*
X127231904Y-100000714D01*
X127327142Y-99953095D01*
X127374761Y-99905476D01*
X127422380Y-99810238D01*
X127422380Y-99619761D01*
X127374761Y-99524523D01*
X127327142Y-99476904D01*
X127231904Y-99429285D01*
X127041428Y-99429285D01*
X126946190Y-99476904D01*
X126898571Y-99524523D01*
X126850952Y-99619761D01*
X99177142Y-114201666D02*
X99224761Y-114249285D01*
X99272380Y-114392142D01*
X99272380Y-114487380D01*
X99224761Y-114630238D01*
X99129523Y-114725476D01*
X99034285Y-114773095D01*
X98843809Y-114820714D01*
X98700952Y-114820714D01*
X98510476Y-114773095D01*
X98415238Y-114725476D01*
X98320000Y-114630238D01*
X98272380Y-114487380D01*
X98272380Y-114392142D01*
X98320000Y-114249285D01*
X98367619Y-114201666D01*
X98272380Y-113344523D02*
X98272380Y-113535000D01*
X98320000Y-113630238D01*
X98367619Y-113677857D01*
X98510476Y-113773095D01*
X98700952Y-113820714D01*
X99081904Y-113820714D01*
X99177142Y-113773095D01*
X99224761Y-113725476D01*
X99272380Y-113630238D01*
X99272380Y-113439761D01*
X99224761Y-113344523D01*
X99177142Y-113296904D01*
X99081904Y-113249285D01*
X98843809Y-113249285D01*
X98748571Y-113296904D01*
X98700952Y-113344523D01*
X98653333Y-113439761D01*
X98653333Y-113630238D01*
X98700952Y-113725476D01*
X98748571Y-113773095D01*
X98843809Y-113820714D01*
X99192380Y-118856666D02*
X98716190Y-119190000D01*
X99192380Y-119428095D02*
X98192380Y-119428095D01*
X98192380Y-119047142D01*
X98240000Y-118951904D01*
X98287619Y-118904285D01*
X98382857Y-118856666D01*
X98525714Y-118856666D01*
X98620952Y-118904285D01*
X98668571Y-118951904D01*
X98716190Y-119047142D01*
X98716190Y-119428095D01*
X98287619Y-118475714D02*
X98240000Y-118428095D01*
X98192380Y-118332857D01*
X98192380Y-118094761D01*
X98240000Y-117999523D01*
X98287619Y-117951904D01*
X98382857Y-117904285D01*
X98478095Y-117904285D01*
X98620952Y-117951904D01*
X99192380Y-118523333D01*
X99192380Y-117904285D01*
X111832380Y-106861666D02*
X111356190Y-107195000D01*
X111832380Y-107433095D02*
X110832380Y-107433095D01*
X110832380Y-107052142D01*
X110880000Y-106956904D01*
X110927619Y-106909285D01*
X111022857Y-106861666D01*
X111165714Y-106861666D01*
X111260952Y-106909285D01*
X111308571Y-106956904D01*
X111356190Y-107052142D01*
X111356190Y-107433095D01*
X110832380Y-106528333D02*
X110832380Y-105861666D01*
X111832380Y-106290238D01*
X115847380Y-100451666D02*
X115371190Y-100785000D01*
X115847380Y-101023095D02*
X114847380Y-101023095D01*
X114847380Y-100642142D01*
X114895000Y-100546904D01*
X114942619Y-100499285D01*
X115037857Y-100451666D01*
X115180714Y-100451666D01*
X115275952Y-100499285D01*
X115323571Y-100546904D01*
X115371190Y-100642142D01*
X115371190Y-101023095D01*
X115847380Y-99975476D02*
X115847380Y-99785000D01*
X115799761Y-99689761D01*
X115752142Y-99642142D01*
X115609285Y-99546904D01*
X115418809Y-99499285D01*
X115037857Y-99499285D01*
X114942619Y-99546904D01*
X114895000Y-99594523D01*
X114847380Y-99689761D01*
X114847380Y-99880238D01*
X114895000Y-99975476D01*
X114942619Y-100023095D01*
X115037857Y-100070714D01*
X115275952Y-100070714D01*
X115371190Y-100023095D01*
X115418809Y-99975476D01*
X115466428Y-99880238D01*
X115466428Y-99689761D01*
X115418809Y-99594523D01*
X115371190Y-99546904D01*
X115275952Y-99499285D01*
D12*
X116240238Y-94359523D02*
X116240238Y-93089523D01*
X117570714Y-94238571D02*
X117510238Y-94299047D01*
X117328809Y-94359523D01*
X117207857Y-94359523D01*
X117026428Y-94299047D01*
X116905476Y-94178095D01*
X116845000Y-94057142D01*
X116784523Y-93815238D01*
X116784523Y-93633809D01*
X116845000Y-93391904D01*
X116905476Y-93270952D01*
X117026428Y-93150000D01*
X117207857Y-93089523D01*
X117328809Y-93089523D01*
X117510238Y-93150000D01*
X117570714Y-93210476D01*
X118780238Y-94359523D02*
X118054523Y-94359523D01*
X118417380Y-94359523D02*
X118417380Y-93089523D01*
X118296428Y-93270952D01*
X118175476Y-93391904D01*
X118054523Y-93452380D01*
D11*
X91206666Y-120367380D02*
X91206666Y-121081666D01*
X91159047Y-121224523D01*
X91063809Y-121319761D01*
X90920952Y-121367380D01*
X90825714Y-121367380D01*
X92206666Y-121367380D02*
X91635238Y-121367380D01*
X91920952Y-121367380D02*
X91920952Y-120367380D01*
X91825714Y-120510238D01*
X91730476Y-120605476D01*
X91635238Y-120653095D01*
X96542380Y-123107857D02*
X97351904Y-123107857D01*
X97447142Y-123060238D01*
X97494761Y-123012619D01*
X97542380Y-122917380D01*
X97542380Y-122726904D01*
X97494761Y-122631666D01*
X97447142Y-122584047D01*
X97351904Y-122536428D01*
X96542380Y-122536428D01*
X97494761Y-122107857D02*
X97542380Y-121965000D01*
X97542380Y-121726904D01*
X97494761Y-121631666D01*
X97447142Y-121584047D01*
X97351904Y-121536428D01*
X97256666Y-121536428D01*
X97161428Y-121584047D01*
X97113809Y-121631666D01*
X97066190Y-121726904D01*
X97018571Y-121917380D01*
X96970952Y-122012619D01*
X96923333Y-122060238D01*
X96828095Y-122107857D01*
X96732857Y-122107857D01*
X96637619Y-122060238D01*
X96590000Y-122012619D01*
X96542380Y-121917380D01*
X96542380Y-121679285D01*
X96590000Y-121536428D01*
X97018571Y-120774523D02*
X97066190Y-120631666D01*
X97113809Y-120584047D01*
X97209047Y-120536428D01*
X97351904Y-120536428D01*
X97447142Y-120584047D01*
X97494761Y-120631666D01*
X97542380Y-120726904D01*
X97542380Y-121107857D01*
X96542380Y-121107857D01*
X96542380Y-120774523D01*
X96590000Y-120679285D01*
X96637619Y-120631666D01*
X96732857Y-120584047D01*
X96828095Y-120584047D01*
X96923333Y-120631666D01*
X96970952Y-120679285D01*
X97018571Y-120774523D01*
X97018571Y-121107857D01*
X97637619Y-120345952D02*
X97637619Y-119584047D01*
X97447142Y-118774523D02*
X97494761Y-118822142D01*
X97542380Y-118965000D01*
X97542380Y-119060238D01*
X97494761Y-119203095D01*
X97399523Y-119298333D01*
X97304285Y-119345952D01*
X97113809Y-119393571D01*
X96970952Y-119393571D01*
X96780476Y-119345952D01*
X96685238Y-119298333D01*
X96590000Y-119203095D01*
X96542380Y-119060238D01*
X96542380Y-118965000D01*
X96590000Y-118822142D01*
X96637619Y-118774523D01*
X94662680Y-115124999D02*
X94900776Y-115124999D01*
X94805538Y-115363094D02*
X94900776Y-115124999D01*
X94805538Y-114886903D01*
X95091252Y-115267856D02*
X94900776Y-115124999D01*
X95091252Y-114982141D01*
X94662680Y-115124999D02*
X94900776Y-115124999D01*
X94805538Y-115363094D02*
X94900776Y-115124999D01*
X94805538Y-114886903D01*
X95091252Y-115267856D02*
X94900776Y-115124999D01*
X95091252Y-114982141D01*
X120282380Y-111063095D02*
X119282380Y-111063095D01*
X119282380Y-110825000D01*
X119330000Y-110682142D01*
X119425238Y-110586904D01*
X119520476Y-110539285D01*
X119710952Y-110491666D01*
X119853809Y-110491666D01*
X120044285Y-110539285D01*
X120139523Y-110586904D01*
X120234761Y-110682142D01*
X120282380Y-110825000D01*
X120282380Y-111063095D01*
X119282380Y-109634523D02*
X119282380Y-109825000D01*
X119330000Y-109920238D01*
X119377619Y-109967857D01*
X119520476Y-110063095D01*
X119710952Y-110110714D01*
X120091904Y-110110714D01*
X120187142Y-110063095D01*
X120234761Y-110015476D01*
X120282380Y-109920238D01*
X120282380Y-109729761D01*
X120234761Y-109634523D01*
X120187142Y-109586904D01*
X120091904Y-109539285D01*
X119853809Y-109539285D01*
X119758571Y-109586904D01*
X119710952Y-109634523D01*
X119663333Y-109729761D01*
X119663333Y-109920238D01*
X119710952Y-110015476D01*
X119758571Y-110063095D01*
X119853809Y-110110714D01*
X99142380Y-123206666D02*
X98666190Y-123540000D01*
X99142380Y-123778095D02*
X98142380Y-123778095D01*
X98142380Y-123397142D01*
X98190000Y-123301904D01*
X98237619Y-123254285D01*
X98332857Y-123206666D01*
X98475714Y-123206666D01*
X98570952Y-123254285D01*
X98618571Y-123301904D01*
X98666190Y-123397142D01*
X98666190Y-123778095D01*
X99142380Y-122254285D02*
X99142380Y-122825714D01*
X99142380Y-122540000D02*
X98142380Y-122540000D01*
X98285238Y-122635238D01*
X98380476Y-122730476D01*
X98428095Y-122825714D01*
X120587619Y-100380238D02*
X120540000Y-100475476D01*
X120444761Y-100570714D01*
X120301904Y-100713571D01*
X120254285Y-100808809D01*
X120254285Y-100904047D01*
X120492380Y-100856428D02*
X120444761Y-100951666D01*
X120349523Y-101046904D01*
X120159047Y-101094523D01*
X119825714Y-101094523D01*
X119635238Y-101046904D01*
X119540000Y-100951666D01*
X119492380Y-100856428D01*
X119492380Y-100665952D01*
X119540000Y-100570714D01*
X119635238Y-100475476D01*
X119825714Y-100427857D01*
X120159047Y-100427857D01*
X120349523Y-100475476D01*
X120444761Y-100570714D01*
X120492380Y-100665952D01*
X120492380Y-100856428D01*
X120492380Y-99475476D02*
X120492380Y-100046904D01*
X120492380Y-99761190D02*
X119492380Y-99761190D01*
X119635238Y-99856428D01*
X119730476Y-99951666D01*
X119778095Y-100046904D01*
X103352380Y-106866666D02*
X102876190Y-107200000D01*
X103352380Y-107438095D02*
X102352380Y-107438095D01*
X102352380Y-107057142D01*
X102400000Y-106961904D01*
X102447619Y-106914285D01*
X102542857Y-106866666D01*
X102685714Y-106866666D01*
X102780952Y-106914285D01*
X102828571Y-106961904D01*
X102876190Y-107057142D01*
X102876190Y-107438095D01*
X102780952Y-106295238D02*
X102733333Y-106390476D01*
X102685714Y-106438095D01*
X102590476Y-106485714D01*
X102542857Y-106485714D01*
X102447619Y-106438095D01*
X102400000Y-106390476D01*
X102352380Y-106295238D01*
X102352380Y-106104761D01*
X102400000Y-106009523D01*
X102447619Y-105961904D01*
X102542857Y-105914285D01*
X102590476Y-105914285D01*
X102685714Y-105961904D01*
X102733333Y-106009523D01*
X102780952Y-106104761D01*
X102780952Y-106295238D01*
X102828571Y-106390476D01*
X102876190Y-106438095D01*
X102971428Y-106485714D01*
X103161904Y-106485714D01*
X103257142Y-106438095D01*
X103304761Y-106390476D01*
X103352380Y-106295238D01*
X103352380Y-106104761D01*
X103304761Y-106009523D01*
X103257142Y-105961904D01*
X103161904Y-105914285D01*
X102971428Y-105914285D01*
X102876190Y-105961904D01*
X102828571Y-106009523D01*
X102780952Y-106104761D01*
X105568095Y-109207380D02*
X105568095Y-110016904D01*
X105615714Y-110112142D01*
X105663333Y-110159761D01*
X105758571Y-110207380D01*
X105949047Y-110207380D01*
X106044285Y-110159761D01*
X106091904Y-110112142D01*
X106139523Y-110016904D01*
X106139523Y-109207380D01*
X106568095Y-109302619D02*
X106615714Y-109255000D01*
X106710952Y-109207380D01*
X106949047Y-109207380D01*
X107044285Y-109255000D01*
X107091904Y-109302619D01*
X107139523Y-109397857D01*
X107139523Y-109493095D01*
X107091904Y-109635952D01*
X106520476Y-110207380D01*
X107139523Y-110207380D01*
X103622380Y-94598333D02*
X104336666Y-94598333D01*
X104479523Y-94645952D01*
X104574761Y-94741190D01*
X104622380Y-94884047D01*
X104622380Y-94979285D01*
X104622380Y-94122142D02*
X103622380Y-94122142D01*
X103622380Y-93741190D01*
X103670000Y-93645952D01*
X103717619Y-93598333D01*
X103812857Y-93550714D01*
X103955714Y-93550714D01*
X104050952Y-93598333D01*
X104098571Y-93645952D01*
X104146190Y-93741190D01*
X104146190Y-94122142D01*
X104622380Y-92598333D02*
X104622380Y-93169761D01*
X104622380Y-92884047D02*
X103622380Y-92884047D01*
X103765238Y-92979285D01*
X103860476Y-93074523D01*
X103908095Y-93169761D01*
X115737142Y-118861666D02*
X115784761Y-118909285D01*
X115832380Y-119052142D01*
X115832380Y-119147380D01*
X115784761Y-119290238D01*
X115689523Y-119385476D01*
X115594285Y-119433095D01*
X115403809Y-119480714D01*
X115260952Y-119480714D01*
X115070476Y-119433095D01*
X114975238Y-119385476D01*
X114880000Y-119290238D01*
X114832380Y-119147380D01*
X114832380Y-119052142D01*
X114880000Y-118909285D01*
X114927619Y-118861666D01*
X114832380Y-118528333D02*
X114832380Y-117861666D01*
X115832380Y-118290238D01*
X99462380Y-94427857D02*
X98986190Y-94761190D01*
X99462380Y-94999285D02*
X98462380Y-94999285D01*
X98462380Y-94618333D01*
X98510000Y-94523095D01*
X98557619Y-94475476D01*
X98652857Y-94427857D01*
X98795714Y-94427857D01*
X98890952Y-94475476D01*
X98938571Y-94523095D01*
X98986190Y-94618333D01*
X98986190Y-94999285D01*
X99462380Y-93475476D02*
X99462380Y-94046904D01*
X99462380Y-93761190D02*
X98462380Y-93761190D01*
X98605238Y-93856428D01*
X98700476Y-93951666D01*
X98748095Y-94046904D01*
X99462380Y-92523095D02*
X99462380Y-93094523D01*
X99462380Y-92808809D02*
X98462380Y-92808809D01*
X98605238Y-92904047D01*
X98700476Y-92999285D01*
X98748095Y-93094523D01*
X111602380Y-113953095D02*
X110602380Y-113953095D01*
X110602380Y-113715000D01*
X110650000Y-113572142D01*
X110745238Y-113476904D01*
X110840476Y-113429285D01*
X111030952Y-113381666D01*
X111173809Y-113381666D01*
X111364285Y-113429285D01*
X111459523Y-113476904D01*
X111554761Y-113572142D01*
X111602380Y-113715000D01*
X111602380Y-113953095D01*
X110935714Y-112524523D02*
X111602380Y-112524523D01*
X110554761Y-112762619D02*
X111269047Y-113000714D01*
X111269047Y-112381666D01*
X99407142Y-100907857D02*
X99454761Y-100955476D01*
X99502380Y-101098333D01*
X99502380Y-101193571D01*
X99454761Y-101336428D01*
X99359523Y-101431666D01*
X99264285Y-101479285D01*
X99073809Y-101526904D01*
X98930952Y-101526904D01*
X98740476Y-101479285D01*
X98645238Y-101431666D01*
X98550000Y-101336428D01*
X98502380Y-101193571D01*
X98502380Y-101098333D01*
X98550000Y-100955476D01*
X98597619Y-100907857D01*
X99502380Y-99955476D02*
X99502380Y-100526904D01*
X99502380Y-100241190D02*
X98502380Y-100241190D01*
X98645238Y-100336428D01*
X98740476Y-100431666D01*
X98788095Y-100526904D01*
X98502380Y-99336428D02*
X98502380Y-99241190D01*
X98550000Y-99145952D01*
X98597619Y-99098333D01*
X98692857Y-99050714D01*
X98883333Y-99003095D01*
X99121428Y-99003095D01*
X99311904Y-99050714D01*
X99407142Y-99098333D01*
X99454761Y-99145952D01*
X99502380Y-99241190D01*
X99502380Y-99336428D01*
X99454761Y-99431666D01*
X99407142Y-99479285D01*
X99311904Y-99526904D01*
X99121428Y-99574523D01*
X98883333Y-99574523D01*
X98692857Y-99526904D01*
X98597619Y-99479285D01*
X98550000Y-99431666D01*
X98502380Y-99336428D01*
X102912380Y-101046904D02*
X103721904Y-101046904D01*
X103817142Y-100999285D01*
X103864761Y-100951666D01*
X103912380Y-100856428D01*
X103912380Y-100665952D01*
X103864761Y-100570714D01*
X103817142Y-100523095D01*
X103721904Y-100475476D01*
X102912380Y-100475476D01*
X102912380Y-100094523D02*
X102912380Y-99475476D01*
X103293333Y-99808809D01*
X103293333Y-99665952D01*
X103340952Y-99570714D01*
X103388571Y-99523095D01*
X103483809Y-99475476D01*
X103721904Y-99475476D01*
X103817142Y-99523095D01*
X103864761Y-99570714D01*
X103912380Y-99665952D01*
X103912380Y-99951666D01*
X103864761Y-100046904D01*
X103817142Y-100094523D01*
X111732380Y-100927857D02*
X111256190Y-101261190D01*
X111732380Y-101499285D02*
X110732380Y-101499285D01*
X110732380Y-101118333D01*
X110780000Y-101023095D01*
X110827619Y-100975476D01*
X110922857Y-100927857D01*
X111065714Y-100927857D01*
X111160952Y-100975476D01*
X111208571Y-101023095D01*
X111256190Y-101118333D01*
X111256190Y-101499285D01*
X111732380Y-99975476D02*
X111732380Y-100546904D01*
X111732380Y-100261190D02*
X110732380Y-100261190D01*
X110875238Y-100356428D01*
X110970476Y-100451666D01*
X111018095Y-100546904D01*
X110732380Y-99356428D02*
X110732380Y-99261190D01*
X110780000Y-99165952D01*
X110827619Y-99118333D01*
X110922857Y-99070714D01*
X111113333Y-99023095D01*
X111351428Y-99023095D01*
X111541904Y-99070714D01*
X111637142Y-99118333D01*
X111684761Y-99165952D01*
X111732380Y-99261190D01*
X111732380Y-99356428D01*
X111684761Y-99451666D01*
X111637142Y-99499285D01*
X111541904Y-99546904D01*
X111351428Y-99594523D01*
X111113333Y-99594523D01*
X110922857Y-99546904D01*
X110827619Y-99499285D01*
X110780000Y-99451666D01*
X110732380Y-99356428D01*
X115532380Y-113933095D02*
X114532380Y-113933095D01*
X114532380Y-113695000D01*
X114580000Y-113552142D01*
X114675238Y-113456904D01*
X114770476Y-113409285D01*
X114960952Y-113361666D01*
X115103809Y-113361666D01*
X115294285Y-113409285D01*
X115389523Y-113456904D01*
X115484761Y-113552142D01*
X115532380Y-113695000D01*
X115532380Y-113933095D01*
X114532380Y-112456904D02*
X114532380Y-112933095D01*
X115008571Y-112980714D01*
X114960952Y-112933095D01*
X114913333Y-112837857D01*
X114913333Y-112599761D01*
X114960952Y-112504523D01*
X115008571Y-112456904D01*
X115103809Y-112409285D01*
X115341904Y-112409285D01*
X115437142Y-112456904D01*
X115484761Y-112504523D01*
X115532380Y-112599761D01*
X115532380Y-112837857D01*
X115484761Y-112933095D01*
X115437142Y-112980714D01*
X98142380Y-108388214D02*
X98142380Y-107816785D01*
X99142380Y-108102500D02*
X98142380Y-108102500D01*
X99142380Y-107483452D02*
X98142380Y-107483452D01*
X98618571Y-107483452D02*
X98618571Y-106912023D01*
X99142380Y-106912023D02*
X98142380Y-106912023D01*
X99142380Y-105912023D02*
X99142380Y-106483452D01*
X99142380Y-106197738D02*
X98142380Y-106197738D01*
X98285238Y-106292976D01*
X98380476Y-106388214D01*
X98428095Y-106483452D01*
X103372142Y-134441666D02*
X103419761Y-134489285D01*
X103467380Y-134632142D01*
X103467380Y-134727380D01*
X103419761Y-134870238D01*
X103324523Y-134965476D01*
X103229285Y-135013095D01*
X103038809Y-135060714D01*
X102895952Y-135060714D01*
X102705476Y-135013095D01*
X102610238Y-134965476D01*
X102515000Y-134870238D01*
X102467380Y-134727380D01*
X102467380Y-134632142D01*
X102515000Y-134489285D01*
X102562619Y-134441666D01*
X102467380Y-133536904D02*
X102467380Y-134013095D01*
X102943571Y-134060714D01*
X102895952Y-134013095D01*
X102848333Y-133917857D01*
X102848333Y-133679761D01*
X102895952Y-133584523D01*
X102943571Y-133536904D01*
X103038809Y-133489285D01*
X103276904Y-133489285D01*
X103372142Y-133536904D01*
X103419761Y-133584523D01*
X103467380Y-133679761D01*
X103467380Y-133917857D01*
X103419761Y-134013095D01*
X103372142Y-134060714D01*
D12*
X91777619Y-134489523D02*
X91777619Y-133219523D01*
X92080000Y-133219523D01*
X92261428Y-133280000D01*
X92382380Y-133400952D01*
X92442857Y-133521904D01*
X92503333Y-133763809D01*
X92503333Y-133945238D01*
X92442857Y-134187142D01*
X92382380Y-134308095D01*
X92261428Y-134429047D01*
X92080000Y-134489523D01*
X91777619Y-134489523D01*
X93712857Y-134489523D02*
X92987142Y-134489523D01*
X93350000Y-134489523D02*
X93350000Y-133219523D01*
X93229047Y-133400952D01*
X93108095Y-133521904D01*
X92987142Y-133582380D01*
X91777619Y-129814523D02*
X91777619Y-128544523D01*
X92080000Y-128544523D01*
X92261428Y-128605000D01*
X92382380Y-128725952D01*
X92442857Y-128846904D01*
X92503333Y-129088809D01*
X92503333Y-129270238D01*
X92442857Y-129512142D01*
X92382380Y-129633095D01*
X92261428Y-129754047D01*
X92080000Y-129814523D01*
X91777619Y-129814523D01*
X92987142Y-128665476D02*
X93047619Y-128605000D01*
X93168571Y-128544523D01*
X93470952Y-128544523D01*
X93591904Y-128605000D01*
X93652380Y-128665476D01*
X93712857Y-128786428D01*
X93712857Y-128907380D01*
X93652380Y-129088809D01*
X92926666Y-129814523D01*
X93712857Y-129814523D01*
D11*
X106912142Y-134441666D02*
X106959761Y-134489285D01*
X107007380Y-134632142D01*
X107007380Y-134727380D01*
X106959761Y-134870238D01*
X106864523Y-134965476D01*
X106769285Y-135013095D01*
X106578809Y-135060714D01*
X106435952Y-135060714D01*
X106245476Y-135013095D01*
X106150238Y-134965476D01*
X106055000Y-134870238D01*
X106007380Y-134727380D01*
X106007380Y-134632142D01*
X106055000Y-134489285D01*
X106102619Y-134441666D01*
X106340714Y-133584523D02*
X107007380Y-133584523D01*
X105959761Y-133822619D02*
X106674047Y-134060714D01*
X106674047Y-133441666D01*
X114782380Y-129469523D02*
X115782380Y-128802857D01*
X114782380Y-128802857D02*
X115782380Y-129469523D01*
X115782380Y-127898095D02*
X115782380Y-128469523D01*
X115782380Y-128183809D02*
X114782380Y-128183809D01*
X114925238Y-128279047D01*
X115020476Y-128374285D01*
X115068095Y-128469523D01*
D12*
X91772619Y-113089523D02*
X91772619Y-111819523D01*
X92075000Y-111819523D01*
X92256428Y-111880000D01*
X92377380Y-112000952D01*
X92437857Y-112121904D01*
X92498333Y-112363809D01*
X92498333Y-112545238D01*
X92437857Y-112787142D01*
X92377380Y-112908095D01*
X92256428Y-113029047D01*
X92075000Y-113089523D01*
X91772619Y-113089523D01*
X92921666Y-111819523D02*
X93707857Y-111819523D01*
X93284523Y-112303333D01*
X93465952Y-112303333D01*
X93586904Y-112363809D01*
X93647380Y-112424285D01*
X93707857Y-112545238D01*
X93707857Y-112847619D01*
X93647380Y-112968571D01*
X93586904Y-113029047D01*
X93465952Y-113089523D01*
X93103095Y-113089523D01*
X92982142Y-113029047D01*
X92921666Y-112968571D01*
D11*
X103227142Y-118851666D02*
X103274761Y-118899285D01*
X103322380Y-119042142D01*
X103322380Y-119137380D01*
X103274761Y-119280238D01*
X103179523Y-119375476D01*
X103084285Y-119423095D01*
X102893809Y-119470714D01*
X102750952Y-119470714D01*
X102560476Y-119423095D01*
X102465238Y-119375476D01*
X102370000Y-119280238D01*
X102322380Y-119137380D01*
X102322380Y-119042142D01*
X102370000Y-118899285D01*
X102417619Y-118851666D01*
X102417619Y-118470714D02*
X102370000Y-118423095D01*
X102322380Y-118327857D01*
X102322380Y-118089761D01*
X102370000Y-117994523D01*
X102417619Y-117946904D01*
X102512857Y-117899285D01*
X102608095Y-117899285D01*
X102750952Y-117946904D01*
X103322380Y-118518333D01*
X103322380Y-117899285D01*
X99077142Y-127598666D02*
X99124761Y-127646285D01*
X99172380Y-127789142D01*
X99172380Y-127884380D01*
X99124761Y-128027238D01*
X99029523Y-128122476D01*
X98934285Y-128170095D01*
X98743809Y-128217714D01*
X98600952Y-128217714D01*
X98410476Y-128170095D01*
X98315238Y-128122476D01*
X98220000Y-128027238D01*
X98172380Y-127884380D01*
X98172380Y-127789142D01*
X98220000Y-127646285D01*
X98267619Y-127598666D01*
X98172380Y-127265333D02*
X98172380Y-126646285D01*
X98553333Y-126979619D01*
X98553333Y-126836761D01*
X98600952Y-126741523D01*
X98648571Y-126693904D01*
X98743809Y-126646285D01*
X98981904Y-126646285D01*
X99077142Y-126693904D01*
X99124761Y-126741523D01*
X99172380Y-126836761D01*
X99172380Y-127122476D01*
X99124761Y-127217714D01*
X99077142Y-127265333D01*
X93394761Y-104562619D02*
X93299523Y-104515000D01*
X93204285Y-104419761D01*
X93061428Y-104276904D01*
X92966190Y-104229285D01*
X92870952Y-104229285D01*
X92918571Y-104467380D02*
X92823333Y-104419761D01*
X92728095Y-104324523D01*
X92680476Y-104134047D01*
X92680476Y-103800714D01*
X92728095Y-103610238D01*
X92823333Y-103515000D01*
X92918571Y-103467380D01*
X93109047Y-103467380D01*
X93204285Y-103515000D01*
X93299523Y-103610238D01*
X93347142Y-103800714D01*
X93347142Y-104134047D01*
X93299523Y-104324523D01*
X93204285Y-104419761D01*
X93109047Y-104467380D01*
X92918571Y-104467380D01*
X93728095Y-103562619D02*
X93775714Y-103515000D01*
X93870952Y-103467380D01*
X94109047Y-103467380D01*
X94204285Y-103515000D01*
X94251904Y-103562619D01*
X94299523Y-103657857D01*
X94299523Y-103753095D01*
X94251904Y-103895952D01*
X93680476Y-104467380D01*
X94299523Y-104467380D01*
X101342380Y-131266904D02*
X102151904Y-131266904D01*
X102247142Y-131219285D01*
X102294761Y-131171666D01*
X102342380Y-131076428D01*
X102342380Y-130885952D01*
X102294761Y-130790714D01*
X102247142Y-130743095D01*
X102151904Y-130695476D01*
X101342380Y-130695476D01*
X102342380Y-129695476D02*
X102342380Y-130266904D01*
X102342380Y-129981190D02*
X101342380Y-129981190D01*
X101485238Y-130076428D01*
X101580476Y-130171666D01*
X101628095Y-130266904D01*
X125632380Y-94798333D02*
X126346666Y-94798333D01*
X126489523Y-94845952D01*
X126584761Y-94941190D01*
X126632380Y-95084047D01*
X126632380Y-95179285D01*
X126632380Y-94322142D02*
X125632380Y-94322142D01*
X125632380Y-93941190D01*
X125680000Y-93845952D01*
X125727619Y-93798333D01*
X125822857Y-93750714D01*
X125965714Y-93750714D01*
X126060952Y-93798333D01*
X126108571Y-93845952D01*
X126156190Y-93941190D01*
X126156190Y-94322142D01*
X125727619Y-93369761D02*
X125680000Y-93322142D01*
X125632380Y-93226904D01*
X125632380Y-92988809D01*
X125680000Y-92893571D01*
X125727619Y-92845952D01*
X125822857Y-92798333D01*
X125918095Y-92798333D01*
X126060952Y-92845952D01*
X126632380Y-93417380D01*
X126632380Y-92798333D01*
X107502142Y-118856666D02*
X107549761Y-118904285D01*
X107597380Y-119047142D01*
X107597380Y-119142380D01*
X107549761Y-119285238D01*
X107454523Y-119380476D01*
X107359285Y-119428095D01*
X107168809Y-119475714D01*
X107025952Y-119475714D01*
X106835476Y-119428095D01*
X106740238Y-119380476D01*
X106645000Y-119285238D01*
X106597380Y-119142380D01*
X106597380Y-119047142D01*
X106645000Y-118904285D01*
X106692619Y-118856666D01*
X107597380Y-117904285D02*
X107597380Y-118475714D01*
X107597380Y-118190000D02*
X106597380Y-118190000D01*
X106740238Y-118285238D01*
X106835476Y-118380476D01*
X106883095Y-118475714D01*
X157077142Y-91632142D02*
X157029523Y-91679761D01*
X156886666Y-91727380D01*
X156791428Y-91727380D01*
X156648571Y-91679761D01*
X156553333Y-91584523D01*
X156505714Y-91489285D01*
X156458095Y-91298809D01*
X156458095Y-91155952D01*
X156505714Y-90965476D01*
X156553333Y-90870238D01*
X156648571Y-90775000D01*
X156791428Y-90727380D01*
X156886666Y-90727380D01*
X157029523Y-90775000D01*
X157077142Y-90822619D01*
X158029523Y-91727380D02*
X157458095Y-91727380D01*
X157743809Y-91727380D02*
X157743809Y-90727380D01*
X157648571Y-90870238D01*
X157553333Y-90965476D01*
X157458095Y-91013095D01*
X158410476Y-90822619D02*
X158458095Y-90775000D01*
X158553333Y-90727380D01*
X158791428Y-90727380D01*
X158886666Y-90775000D01*
X158934285Y-90822619D01*
X158981904Y-90917857D01*
X158981904Y-91013095D01*
X158934285Y-91155952D01*
X158362857Y-91727380D01*
X158981904Y-91727380D01*
X157082142Y-95157142D02*
X157034523Y-95204761D01*
X156891666Y-95252380D01*
X156796428Y-95252380D01*
X156653571Y-95204761D01*
X156558333Y-95109523D01*
X156510714Y-95014285D01*
X156463095Y-94823809D01*
X156463095Y-94680952D01*
X156510714Y-94490476D01*
X156558333Y-94395238D01*
X156653571Y-94300000D01*
X156796428Y-94252380D01*
X156891666Y-94252380D01*
X157034523Y-94300000D01*
X157082142Y-94347619D01*
X158034523Y-95252380D02*
X157463095Y-95252380D01*
X157748809Y-95252380D02*
X157748809Y-94252380D01*
X157653571Y-94395238D01*
X157558333Y-94490476D01*
X157463095Y-94538095D01*
X158986904Y-95252380D02*
X158415476Y-95252380D01*
X158701190Y-95252380D02*
X158701190Y-94252380D01*
X158605952Y-94395238D01*
X158510714Y-94490476D01*
X158415476Y-94538095D01*
X128413333Y-104042142D02*
X128365714Y-104089761D01*
X128222857Y-104137380D01*
X128127619Y-104137380D01*
X127984761Y-104089761D01*
X127889523Y-103994523D01*
X127841904Y-103899285D01*
X127794285Y-103708809D01*
X127794285Y-103565952D01*
X127841904Y-103375476D01*
X127889523Y-103280238D01*
X127984761Y-103185000D01*
X128127619Y-103137380D01*
X128222857Y-103137380D01*
X128365714Y-103185000D01*
X128413333Y-103232619D01*
X128889523Y-104137380D02*
X129080000Y-104137380D01*
X129175238Y-104089761D01*
X129222857Y-104042142D01*
X129318095Y-103899285D01*
X129365714Y-103708809D01*
X129365714Y-103327857D01*
X129318095Y-103232619D01*
X129270476Y-103185000D01*
X129175238Y-103137380D01*
X128984761Y-103137380D01*
X128889523Y-103185000D01*
X128841904Y-103232619D01*
X128794285Y-103327857D01*
X128794285Y-103565952D01*
X128841904Y-103661190D01*
X128889523Y-103708809D01*
X128984761Y-103756428D01*
X129175238Y-103756428D01*
X129270476Y-103708809D01*
X129318095Y-103661190D01*
X129365714Y-103565952D01*
X133017142Y-129372857D02*
X133064761Y-129420476D01*
X133112380Y-129563333D01*
X133112380Y-129658571D01*
X133064761Y-129801428D01*
X132969523Y-129896666D01*
X132874285Y-129944285D01*
X132683809Y-129991904D01*
X132540952Y-129991904D01*
X132350476Y-129944285D01*
X132255238Y-129896666D01*
X132160000Y-129801428D01*
X132112380Y-129658571D01*
X132112380Y-129563333D01*
X132160000Y-129420476D01*
X132207619Y-129372857D01*
X133112380Y-128420476D02*
X133112380Y-128991904D01*
X133112380Y-128706190D02*
X132112380Y-128706190D01*
X132255238Y-128801428D01*
X132350476Y-128896666D01*
X132398095Y-128991904D01*
X132112380Y-127515714D02*
X132112380Y-127991904D01*
X132588571Y-128039523D01*
X132540952Y-127991904D01*
X132493333Y-127896666D01*
X132493333Y-127658571D01*
X132540952Y-127563333D01*
X132588571Y-127515714D01*
X132683809Y-127468095D01*
X132921904Y-127468095D01*
X133017142Y-127515714D01*
X133064761Y-127563333D01*
X133112380Y-127658571D01*
X133112380Y-127896666D01*
X133064761Y-127991904D01*
X133017142Y-128039523D01*
X126727619Y-112330238D02*
X126680000Y-112425476D01*
X126584761Y-112520714D01*
X126441904Y-112663571D01*
X126394285Y-112758809D01*
X126394285Y-112854047D01*
X126632380Y-112806428D02*
X126584761Y-112901666D01*
X126489523Y-112996904D01*
X126299047Y-113044523D01*
X125965714Y-113044523D01*
X125775238Y-112996904D01*
X125680000Y-112901666D01*
X125632380Y-112806428D01*
X125632380Y-112615952D01*
X125680000Y-112520714D01*
X125775238Y-112425476D01*
X125965714Y-112377857D01*
X126299047Y-112377857D01*
X126489523Y-112425476D01*
X126584761Y-112520714D01*
X126632380Y-112615952D01*
X126632380Y-112806428D01*
X125632380Y-112044523D02*
X125632380Y-111425476D01*
X126013333Y-111758809D01*
X126013333Y-111615952D01*
X126060952Y-111520714D01*
X126108571Y-111473095D01*
X126203809Y-111425476D01*
X126441904Y-111425476D01*
X126537142Y-111473095D01*
X126584761Y-111520714D01*
X126632380Y-111615952D01*
X126632380Y-111901666D01*
X126584761Y-111996904D01*
X126537142Y-112044523D01*
X126727619Y-125000238D02*
X126680000Y-125095476D01*
X126584761Y-125190714D01*
X126441904Y-125333571D01*
X126394285Y-125428809D01*
X126394285Y-125524047D01*
X126632380Y-125476428D02*
X126584761Y-125571666D01*
X126489523Y-125666904D01*
X126299047Y-125714523D01*
X125965714Y-125714523D01*
X125775238Y-125666904D01*
X125680000Y-125571666D01*
X125632380Y-125476428D01*
X125632380Y-125285952D01*
X125680000Y-125190714D01*
X125775238Y-125095476D01*
X125965714Y-125047857D01*
X126299047Y-125047857D01*
X126489523Y-125095476D01*
X126584761Y-125190714D01*
X126632380Y-125285952D01*
X126632380Y-125476428D01*
X125965714Y-124190714D02*
X126632380Y-124190714D01*
X125584761Y-124428809D02*
X126299047Y-124666904D01*
X126299047Y-124047857D01*
X121532380Y-119362857D02*
X121056190Y-119696190D01*
X121532380Y-119934285D02*
X120532380Y-119934285D01*
X120532380Y-119553333D01*
X120580000Y-119458095D01*
X120627619Y-119410476D01*
X120722857Y-119362857D01*
X120865714Y-119362857D01*
X120960952Y-119410476D01*
X121008571Y-119458095D01*
X121056190Y-119553333D01*
X121056190Y-119934285D01*
X121532380Y-118410476D02*
X121532380Y-118981904D01*
X121532380Y-118696190D02*
X120532380Y-118696190D01*
X120675238Y-118791428D01*
X120770476Y-118886666D01*
X120818095Y-118981904D01*
X120865714Y-117553333D02*
X121532380Y-117553333D01*
X120484761Y-117791428D02*
X121199047Y-118029523D01*
X121199047Y-117410476D01*
X121582380Y-124377857D02*
X121106190Y-124711190D01*
X121582380Y-124949285D02*
X120582380Y-124949285D01*
X120582380Y-124568333D01*
X120630000Y-124473095D01*
X120677619Y-124425476D01*
X120772857Y-124377857D01*
X120915714Y-124377857D01*
X121010952Y-124425476D01*
X121058571Y-124473095D01*
X121106190Y-124568333D01*
X121106190Y-124949285D01*
X121582380Y-123425476D02*
X121582380Y-123996904D01*
X121582380Y-123711190D02*
X120582380Y-123711190D01*
X120725238Y-123806428D01*
X120820476Y-123901666D01*
X120868095Y-123996904D01*
X120582380Y-123092142D02*
X120582380Y-122473095D01*
X120963333Y-122806428D01*
X120963333Y-122663571D01*
X121010952Y-122568333D01*
X121058571Y-122520714D01*
X121153809Y-122473095D01*
X121391904Y-122473095D01*
X121487142Y-122520714D01*
X121534761Y-122568333D01*
X121582380Y-122663571D01*
X121582380Y-122949285D01*
X121534761Y-123044523D01*
X121487142Y-123092142D01*
X127246666Y-119099761D02*
X127389523Y-119147380D01*
X127627619Y-119147380D01*
X127722857Y-119099761D01*
X127770476Y-119052142D01*
X127818095Y-118956904D01*
X127818095Y-118861666D01*
X127770476Y-118766428D01*
X127722857Y-118718809D01*
X127627619Y-118671190D01*
X127437142Y-118623571D01*
X127341904Y-118575952D01*
X127294285Y-118528333D01*
X127246666Y-118433095D01*
X127246666Y-118337857D01*
X127294285Y-118242619D01*
X127341904Y-118195000D01*
X127437142Y-118147380D01*
X127675238Y-118147380D01*
X127818095Y-118195000D01*
X128151428Y-118147380D02*
X128389523Y-119147380D01*
X128580000Y-118433095D01*
X128770476Y-119147380D01*
X129008571Y-118147380D01*
X129913333Y-119147380D02*
X129341904Y-119147380D01*
X129627619Y-119147380D02*
X129627619Y-118147380D01*
X129532380Y-118290238D01*
X129437142Y-118385476D01*
X129341904Y-118433095D01*
X133107142Y-119327857D02*
X133154761Y-119375476D01*
X133202380Y-119518333D01*
X133202380Y-119613571D01*
X133154761Y-119756428D01*
X133059523Y-119851666D01*
X132964285Y-119899285D01*
X132773809Y-119946904D01*
X132630952Y-119946904D01*
X132440476Y-119899285D01*
X132345238Y-119851666D01*
X132250000Y-119756428D01*
X132202380Y-119613571D01*
X132202380Y-119518333D01*
X132250000Y-119375476D01*
X132297619Y-119327857D01*
X133202380Y-118375476D02*
X133202380Y-118946904D01*
X133202380Y-118661190D02*
X132202380Y-118661190D01*
X132345238Y-118756428D01*
X132440476Y-118851666D01*
X132488095Y-118946904D01*
X132535714Y-117518333D02*
X133202380Y-117518333D01*
X132154761Y-117756428D02*
X132869047Y-117994523D01*
X132869047Y-117375476D01*
X121607380Y-128901666D02*
X121131190Y-129235000D01*
X121607380Y-129473095D02*
X120607380Y-129473095D01*
X120607380Y-129092142D01*
X120655000Y-128996904D01*
X120702619Y-128949285D01*
X120797857Y-128901666D01*
X120940714Y-128901666D01*
X121035952Y-128949285D01*
X121083571Y-128996904D01*
X121131190Y-129092142D01*
X121131190Y-129473095D01*
X120607380Y-128568333D02*
X120607380Y-127949285D01*
X120988333Y-128282619D01*
X120988333Y-128139761D01*
X121035952Y-128044523D01*
X121083571Y-127996904D01*
X121178809Y-127949285D01*
X121416904Y-127949285D01*
X121512142Y-127996904D01*
X121559761Y-128044523D01*
X121607380Y-128139761D01*
X121607380Y-128425476D01*
X121559761Y-128520714D01*
X121512142Y-128568333D01*
X121632380Y-133901666D02*
X121156190Y-134235000D01*
X121632380Y-134473095D02*
X120632380Y-134473095D01*
X120632380Y-134092142D01*
X120680000Y-133996904D01*
X120727619Y-133949285D01*
X120822857Y-133901666D01*
X120965714Y-133901666D01*
X121060952Y-133949285D01*
X121108571Y-133996904D01*
X121156190Y-134092142D01*
X121156190Y-134473095D01*
X120965714Y-133044523D02*
X121632380Y-133044523D01*
X120584761Y-133282619D02*
X121299047Y-133520714D01*
X121299047Y-132901666D01*
M02*
