G04 #@! TF.GenerationSoftware,KiCad,Pcbnew,(5.1.2)-1*
G04 #@! TF.CreationDate,2022-09-28T11:17:11-03:00*
G04 #@! TF.ProjectId,esp32,65737033-322e-46b6-9963-61645f706362,rev?*
G04 #@! TF.SameCoordinates,Original*
G04 #@! TF.FileFunction,Soldermask,Bot*
G04 #@! TF.FilePolarity,Negative*
%FSLAX46Y46*%
G04 Gerber Fmt 4.6, Leading zero omitted, Abs format (unit mm)*
G04 Created by KiCad (PCBNEW (5.1.2)-1) date 2022-09-28 11:17:11*
%MOMM*%
%LPD*%
G04 APERTURE LIST*
%ADD10C,0.100000*%
G04 APERTURE END LIST*
D10*
G36*
X98831617Y-139582720D02*
G01*
X98922403Y-139610260D01*
X98954335Y-139619946D01*
X99067424Y-139680394D01*
X99166554Y-139761747D01*
X99247906Y-139860875D01*
X99308354Y-139973964D01*
X99318040Y-140005896D01*
X99345580Y-140096682D01*
X99355000Y-140192327D01*
X99355000Y-140859673D01*
X99345580Y-140955318D01*
X99319604Y-141040949D01*
X99308354Y-141078036D01*
X99247906Y-141191125D01*
X99166554Y-141290254D01*
X99067425Y-141371606D01*
X98954336Y-141432054D01*
X98922404Y-141441740D01*
X98831618Y-141469280D01*
X98704000Y-141481849D01*
X98576383Y-141469280D01*
X98485597Y-141441740D01*
X98453665Y-141432054D01*
X98340576Y-141371606D01*
X98241447Y-141290254D01*
X98160096Y-141191127D01*
X98099645Y-141078033D01*
X98087237Y-141037127D01*
X98062420Y-140955318D01*
X98053000Y-140859673D01*
X98053000Y-140192328D01*
X98062420Y-140096683D01*
X98099645Y-139973969D01*
X98099646Y-139973965D01*
X98160094Y-139860876D01*
X98241447Y-139761746D01*
X98340575Y-139680394D01*
X98453664Y-139619946D01*
X98485596Y-139610260D01*
X98576382Y-139582720D01*
X98704000Y-139570151D01*
X98831617Y-139582720D01*
X98831617Y-139582720D01*
G37*
G36*
X107671617Y-139582720D02*
G01*
X107762403Y-139610260D01*
X107794335Y-139619946D01*
X107907424Y-139680394D01*
X108006554Y-139761747D01*
X108087906Y-139860875D01*
X108148354Y-139973964D01*
X108158040Y-140005896D01*
X108185580Y-140096682D01*
X108195000Y-140192327D01*
X108195000Y-140859673D01*
X108185580Y-140955318D01*
X108159604Y-141040949D01*
X108148354Y-141078036D01*
X108087906Y-141191125D01*
X108006554Y-141290254D01*
X107907425Y-141371606D01*
X107794336Y-141432054D01*
X107762404Y-141441740D01*
X107671618Y-141469280D01*
X107544000Y-141481849D01*
X107416383Y-141469280D01*
X107325597Y-141441740D01*
X107293665Y-141432054D01*
X107180576Y-141371606D01*
X107081447Y-141290254D01*
X107000096Y-141191127D01*
X106939645Y-141078033D01*
X106927237Y-141037127D01*
X106902420Y-140955318D01*
X106893000Y-140859673D01*
X106893000Y-140192328D01*
X106902420Y-140096683D01*
X106939645Y-139973969D01*
X106939646Y-139973965D01*
X107000094Y-139860876D01*
X107081447Y-139761746D01*
X107180575Y-139680394D01*
X107293664Y-139619946D01*
X107325596Y-139610260D01*
X107416382Y-139582720D01*
X107544000Y-139570151D01*
X107671617Y-139582720D01*
X107671617Y-139582720D01*
G37*
G36*
X91624549Y-138171116D02*
G01*
X91735734Y-138193232D01*
X91945203Y-138279997D01*
X92133720Y-138405960D01*
X92294040Y-138566280D01*
X92420003Y-138754797D01*
X92506768Y-138964266D01*
X92551000Y-139186636D01*
X92551000Y-139413364D01*
X92506768Y-139635734D01*
X92420003Y-139845203D01*
X92294040Y-140033720D01*
X92133720Y-140194040D01*
X91945203Y-140320003D01*
X91735734Y-140406768D01*
X91624549Y-140428884D01*
X91513365Y-140451000D01*
X91286635Y-140451000D01*
X91175451Y-140428884D01*
X91064266Y-140406768D01*
X90854797Y-140320003D01*
X90666280Y-140194040D01*
X90505960Y-140033720D01*
X90379997Y-139845203D01*
X90293232Y-139635734D01*
X90249000Y-139413364D01*
X90249000Y-139186636D01*
X90293232Y-138964266D01*
X90379997Y-138754797D01*
X90505960Y-138566280D01*
X90666280Y-138405960D01*
X90854797Y-138279997D01*
X91064266Y-138193232D01*
X91175451Y-138171116D01*
X91286635Y-138149000D01*
X91513365Y-138149000D01*
X91624549Y-138171116D01*
X91624549Y-138171116D01*
G37*
G36*
X164724549Y-138171116D02*
G01*
X164835734Y-138193232D01*
X165045203Y-138279997D01*
X165233720Y-138405960D01*
X165394040Y-138566280D01*
X165520003Y-138754797D01*
X165606768Y-138964266D01*
X165651000Y-139186636D01*
X165651000Y-139413364D01*
X165606768Y-139635734D01*
X165520003Y-139845203D01*
X165394040Y-140033720D01*
X165233720Y-140194040D01*
X165045203Y-140320003D01*
X164835734Y-140406768D01*
X164724549Y-140428884D01*
X164613365Y-140451000D01*
X164386635Y-140451000D01*
X164275451Y-140428884D01*
X164164266Y-140406768D01*
X163954797Y-140320003D01*
X163766280Y-140194040D01*
X163605960Y-140033720D01*
X163479997Y-139845203D01*
X163393232Y-139635734D01*
X163349000Y-139413364D01*
X163349000Y-139186636D01*
X163393232Y-138964266D01*
X163479997Y-138754797D01*
X163605960Y-138566280D01*
X163766280Y-138405960D01*
X163954797Y-138279997D01*
X164164266Y-138193232D01*
X164275451Y-138171116D01*
X164386635Y-138149000D01*
X164613365Y-138149000D01*
X164724549Y-138171116D01*
X164724549Y-138171116D01*
G37*
G36*
X142569500Y-140220000D02*
G01*
X140767500Y-140220000D01*
X140767500Y-138418000D01*
X142569500Y-138418000D01*
X142569500Y-140220000D01*
X142569500Y-140220000D01*
G37*
G36*
X139238942Y-138424518D02*
G01*
X139305127Y-138431037D01*
X139474966Y-138482557D01*
X139631491Y-138566222D01*
X139667229Y-138595552D01*
X139768686Y-138678814D01*
X139831044Y-138754799D01*
X139881278Y-138816009D01*
X139964943Y-138972534D01*
X140016463Y-139142373D01*
X140033859Y-139319000D01*
X140016463Y-139495627D01*
X139964943Y-139665466D01*
X139881278Y-139821991D01*
X139862230Y-139845201D01*
X139768686Y-139959186D01*
X139667229Y-140042448D01*
X139631491Y-140071778D01*
X139474966Y-140155443D01*
X139305127Y-140206963D01*
X139238942Y-140213482D01*
X139172760Y-140220000D01*
X139084240Y-140220000D01*
X139018058Y-140213482D01*
X138951873Y-140206963D01*
X138782034Y-140155443D01*
X138625509Y-140071778D01*
X138589771Y-140042448D01*
X138488314Y-139959186D01*
X138394770Y-139845201D01*
X138375722Y-139821991D01*
X138292057Y-139665466D01*
X138240537Y-139495627D01*
X138223141Y-139319000D01*
X138240537Y-139142373D01*
X138292057Y-138972534D01*
X138375722Y-138816009D01*
X138425956Y-138754799D01*
X138488314Y-138678814D01*
X138589771Y-138595552D01*
X138625509Y-138566222D01*
X138782034Y-138482557D01*
X138951873Y-138431037D01*
X139018058Y-138424518D01*
X139084240Y-138418000D01*
X139172760Y-138418000D01*
X139238942Y-138424518D01*
X139238942Y-138424518D01*
G37*
G36*
X147840000Y-140156500D02*
G01*
X146038000Y-140156500D01*
X146038000Y-138354500D01*
X147840000Y-138354500D01*
X147840000Y-140156500D01*
X147840000Y-140156500D01*
G37*
G36*
X149589443Y-138361019D02*
G01*
X149655627Y-138367537D01*
X149825466Y-138419057D01*
X149981991Y-138502722D01*
X150017729Y-138532052D01*
X150119186Y-138615314D01*
X150202448Y-138716771D01*
X150231778Y-138752509D01*
X150315443Y-138909034D01*
X150366963Y-139078873D01*
X150384359Y-139255500D01*
X150366963Y-139432127D01*
X150325094Y-139570151D01*
X150315442Y-139601968D01*
X150281501Y-139665466D01*
X150231778Y-139758491D01*
X150211227Y-139783532D01*
X150119186Y-139895686D01*
X150023801Y-139973965D01*
X149981991Y-140008278D01*
X149981989Y-140008279D01*
X149879001Y-140063328D01*
X149825466Y-140091943D01*
X149655627Y-140143463D01*
X149589443Y-140149981D01*
X149523260Y-140156500D01*
X149434740Y-140156500D01*
X149368557Y-140149981D01*
X149302373Y-140143463D01*
X149132534Y-140091943D01*
X149079000Y-140063328D01*
X148976011Y-140008279D01*
X148976009Y-140008278D01*
X148934199Y-139973965D01*
X148838814Y-139895686D01*
X148746773Y-139783532D01*
X148726222Y-139758491D01*
X148676499Y-139665466D01*
X148642558Y-139601968D01*
X148632906Y-139570151D01*
X148591037Y-139432127D01*
X148573641Y-139255500D01*
X148591037Y-139078873D01*
X148642557Y-138909034D01*
X148726222Y-138752509D01*
X148755552Y-138716771D01*
X148838814Y-138615314D01*
X148940271Y-138532052D01*
X148976009Y-138502722D01*
X149132534Y-138419057D01*
X149302373Y-138367537D01*
X149368557Y-138361019D01*
X149434740Y-138354500D01*
X149523260Y-138354500D01*
X149589443Y-138361019D01*
X149589443Y-138361019D01*
G37*
G36*
X107671617Y-135250320D02*
G01*
X107762403Y-135277860D01*
X107794335Y-135287546D01*
X107907424Y-135347994D01*
X108006554Y-135429347D01*
X108087906Y-135528475D01*
X108148354Y-135641564D01*
X108158040Y-135673496D01*
X108185580Y-135764282D01*
X108195000Y-135859927D01*
X108195000Y-136832073D01*
X108185580Y-136927718D01*
X108160332Y-137010949D01*
X108148354Y-137050436D01*
X108087906Y-137163525D01*
X108006554Y-137262654D01*
X107907425Y-137344006D01*
X107794336Y-137404454D01*
X107762404Y-137414140D01*
X107671618Y-137441680D01*
X107544000Y-137454249D01*
X107416383Y-137441680D01*
X107325597Y-137414140D01*
X107293665Y-137404454D01*
X107180576Y-137344006D01*
X107081447Y-137262654D01*
X107000095Y-137163525D01*
X106939647Y-137050436D01*
X106927669Y-137010949D01*
X106902421Y-136927718D01*
X106893000Y-136832073D01*
X106893000Y-135859928D01*
X106902420Y-135764283D01*
X106939645Y-135641569D01*
X106939646Y-135641565D01*
X107000094Y-135528476D01*
X107081447Y-135429346D01*
X107180575Y-135347994D01*
X107293664Y-135287546D01*
X107325596Y-135277860D01*
X107416382Y-135250320D01*
X107544000Y-135237751D01*
X107671617Y-135250320D01*
X107671617Y-135250320D01*
G37*
G36*
X98831617Y-135250320D02*
G01*
X98922403Y-135277860D01*
X98954335Y-135287546D01*
X99067424Y-135347994D01*
X99166554Y-135429347D01*
X99247906Y-135528475D01*
X99308354Y-135641564D01*
X99318040Y-135673496D01*
X99345580Y-135764282D01*
X99355000Y-135859927D01*
X99355000Y-136832073D01*
X99345580Y-136927718D01*
X99320332Y-137010949D01*
X99308354Y-137050436D01*
X99247906Y-137163525D01*
X99166554Y-137262654D01*
X99067425Y-137344006D01*
X98954336Y-137404454D01*
X98922404Y-137414140D01*
X98831618Y-137441680D01*
X98704000Y-137454249D01*
X98576383Y-137441680D01*
X98485597Y-137414140D01*
X98453665Y-137404454D01*
X98340576Y-137344006D01*
X98241447Y-137262654D01*
X98160095Y-137163525D01*
X98099647Y-137050436D01*
X98087669Y-137010949D01*
X98062421Y-136927718D01*
X98053000Y-136832073D01*
X98053000Y-135859928D01*
X98062420Y-135764283D01*
X98099645Y-135641569D01*
X98099646Y-135641565D01*
X98160094Y-135528476D01*
X98241447Y-135429346D01*
X98340575Y-135347994D01*
X98453664Y-135287546D01*
X98485596Y-135277860D01*
X98576382Y-135250320D01*
X98704000Y-135237751D01*
X98831617Y-135250320D01*
X98831617Y-135250320D01*
G37*
G36*
X106125188Y-136479149D02*
G01*
X106125190Y-136479150D01*
X106125191Y-136479150D01*
X106194565Y-136507885D01*
X106257000Y-136549603D01*
X106310096Y-136602699D01*
X106351814Y-136665134D01*
X106380549Y-136734508D01*
X106380550Y-136734511D01*
X106395199Y-136808154D01*
X106395199Y-136883246D01*
X106386353Y-136927718D01*
X106380549Y-136956892D01*
X106351814Y-137026266D01*
X106310096Y-137088701D01*
X106257000Y-137141797D01*
X106194565Y-137183515D01*
X106125191Y-137212250D01*
X106125190Y-137212250D01*
X106125188Y-137212251D01*
X106051545Y-137226900D01*
X105976453Y-137226900D01*
X105902810Y-137212251D01*
X105902808Y-137212250D01*
X105902807Y-137212250D01*
X105833433Y-137183515D01*
X105770998Y-137141797D01*
X105717902Y-137088701D01*
X105676184Y-137026266D01*
X105647449Y-136956892D01*
X105641646Y-136927718D01*
X105632799Y-136883246D01*
X105632799Y-136808154D01*
X105647448Y-136734511D01*
X105647449Y-136734508D01*
X105676184Y-136665134D01*
X105717902Y-136602699D01*
X105770998Y-136549603D01*
X105833433Y-136507885D01*
X105902807Y-136479150D01*
X105902808Y-136479150D01*
X105902810Y-136479149D01*
X105976453Y-136464500D01*
X106051545Y-136464500D01*
X106125188Y-136479149D01*
X106125188Y-136479149D01*
G37*
G36*
X100345190Y-136479149D02*
G01*
X100345192Y-136479150D01*
X100345193Y-136479150D01*
X100414567Y-136507885D01*
X100477002Y-136549603D01*
X100530098Y-136602699D01*
X100571816Y-136665134D01*
X100600551Y-136734508D01*
X100600552Y-136734511D01*
X100615201Y-136808154D01*
X100615201Y-136883246D01*
X100606355Y-136927718D01*
X100600551Y-136956892D01*
X100571816Y-137026266D01*
X100530098Y-137088701D01*
X100477002Y-137141797D01*
X100414567Y-137183515D01*
X100345193Y-137212250D01*
X100345192Y-137212250D01*
X100345190Y-137212251D01*
X100271547Y-137226900D01*
X100196455Y-137226900D01*
X100122812Y-137212251D01*
X100122810Y-137212250D01*
X100122809Y-137212250D01*
X100053435Y-137183515D01*
X99991000Y-137141797D01*
X99937904Y-137088701D01*
X99896186Y-137026266D01*
X99867451Y-136956892D01*
X99861648Y-136927718D01*
X99852801Y-136883246D01*
X99852801Y-136808154D01*
X99867450Y-136734511D01*
X99867451Y-136734508D01*
X99896186Y-136665134D01*
X99937904Y-136602699D01*
X99991000Y-136549603D01*
X100053435Y-136507885D01*
X100122809Y-136479150D01*
X100122810Y-136479150D01*
X100122812Y-136479149D01*
X100196455Y-136464500D01*
X100271547Y-136464500D01*
X100345190Y-136479149D01*
X100345190Y-136479149D01*
G37*
G36*
X115713642Y-130364781D02*
G01*
X115859414Y-130425162D01*
X115859416Y-130425163D01*
X115990608Y-130512822D01*
X116102178Y-130624392D01*
X116189837Y-130755584D01*
X116189838Y-130755586D01*
X116250219Y-130901358D01*
X116281000Y-131056107D01*
X116281000Y-131213893D01*
X116250219Y-131368642D01*
X116189838Y-131514414D01*
X116189837Y-131514416D01*
X116102178Y-131645608D01*
X115990608Y-131757178D01*
X115859416Y-131844837D01*
X115859415Y-131844838D01*
X115859414Y-131844838D01*
X115713642Y-131905219D01*
X115558893Y-131936000D01*
X115401107Y-131936000D01*
X115246358Y-131905219D01*
X115100586Y-131844838D01*
X115100585Y-131844838D01*
X115100584Y-131844837D01*
X114969392Y-131757178D01*
X114857822Y-131645608D01*
X114770163Y-131514416D01*
X114770162Y-131514414D01*
X114709781Y-131368642D01*
X114679000Y-131213893D01*
X114679000Y-131056107D01*
X114709781Y-130901358D01*
X114770162Y-130755586D01*
X114770163Y-130755584D01*
X114857822Y-130624392D01*
X114969392Y-130512822D01*
X115100584Y-130425163D01*
X115100586Y-130425162D01*
X115246358Y-130364781D01*
X115401107Y-130334000D01*
X115558893Y-130334000D01*
X115713642Y-130364781D01*
X115713642Y-130364781D01*
G37*
G36*
X115713642Y-125464781D02*
G01*
X115859414Y-125525162D01*
X115859416Y-125525163D01*
X115990608Y-125612822D01*
X116102178Y-125724392D01*
X116189837Y-125855584D01*
X116189838Y-125855586D01*
X116250219Y-126001358D01*
X116281000Y-126156107D01*
X116281000Y-126313893D01*
X116250219Y-126468642D01*
X116189838Y-126614414D01*
X116189837Y-126614416D01*
X116102178Y-126745608D01*
X115990608Y-126857178D01*
X115859416Y-126944837D01*
X115859415Y-126944838D01*
X115859414Y-126944838D01*
X115713642Y-127005219D01*
X115558893Y-127036000D01*
X115401107Y-127036000D01*
X115246358Y-127005219D01*
X115100586Y-126944838D01*
X115100585Y-126944838D01*
X115100584Y-126944837D01*
X114969392Y-126857178D01*
X114857822Y-126745608D01*
X114770163Y-126614416D01*
X114770162Y-126614414D01*
X114709781Y-126468642D01*
X114679000Y-126313893D01*
X114679000Y-126156107D01*
X114709781Y-126001358D01*
X114770162Y-125855586D01*
X114770163Y-125855584D01*
X114857822Y-125724392D01*
X114969392Y-125612822D01*
X115100584Y-125525163D01*
X115100586Y-125525162D01*
X115246358Y-125464781D01*
X115401107Y-125434000D01*
X115558893Y-125434000D01*
X115713642Y-125464781D01*
X115713642Y-125464781D01*
G37*
G36*
X95868442Y-120898518D02*
G01*
X95934627Y-120905037D01*
X96104466Y-120956557D01*
X96260991Y-121040222D01*
X96296729Y-121069552D01*
X96398186Y-121152814D01*
X96481448Y-121254271D01*
X96510778Y-121290009D01*
X96594443Y-121446534D01*
X96645963Y-121616373D01*
X96663359Y-121793000D01*
X96645963Y-121969627D01*
X96594443Y-122139466D01*
X96510778Y-122295991D01*
X96481448Y-122331729D01*
X96398186Y-122433186D01*
X96296729Y-122516448D01*
X96260991Y-122545778D01*
X96104466Y-122629443D01*
X95934627Y-122680963D01*
X95868443Y-122687481D01*
X95802260Y-122694000D01*
X95713740Y-122694000D01*
X95647557Y-122687481D01*
X95581373Y-122680963D01*
X95411534Y-122629443D01*
X95255009Y-122545778D01*
X95219271Y-122516448D01*
X95117814Y-122433186D01*
X95034552Y-122331729D01*
X95005222Y-122295991D01*
X94921557Y-122139466D01*
X94870037Y-121969627D01*
X94852641Y-121793000D01*
X94870037Y-121616373D01*
X94921557Y-121446534D01*
X95005222Y-121290009D01*
X95034552Y-121254271D01*
X95117814Y-121152814D01*
X95219271Y-121069552D01*
X95255009Y-121040222D01*
X95411534Y-120956557D01*
X95581373Y-120905037D01*
X95647558Y-120898518D01*
X95713740Y-120892000D01*
X95802260Y-120892000D01*
X95868442Y-120898518D01*
X95868442Y-120898518D01*
G37*
G36*
X96659000Y-120154000D02*
G01*
X94857000Y-120154000D01*
X94857000Y-118352000D01*
X96659000Y-118352000D01*
X96659000Y-120154000D01*
X96659000Y-120154000D01*
G37*
G36*
X117204442Y-113151518D02*
G01*
X117270627Y-113158037D01*
X117440466Y-113209557D01*
X117596991Y-113293222D01*
X117632729Y-113322552D01*
X117734186Y-113405814D01*
X117801939Y-113488373D01*
X117846778Y-113543009D01*
X117930443Y-113699534D01*
X117981963Y-113869373D01*
X117999359Y-114046000D01*
X117981963Y-114222627D01*
X117930443Y-114392466D01*
X117846778Y-114548991D01*
X117843518Y-114552963D01*
X117734186Y-114686186D01*
X117632729Y-114769448D01*
X117596991Y-114798778D01*
X117440466Y-114882443D01*
X117270627Y-114933963D01*
X117204442Y-114940482D01*
X117138260Y-114947000D01*
X117049740Y-114947000D01*
X116983558Y-114940482D01*
X116917373Y-114933963D01*
X116747534Y-114882443D01*
X116591009Y-114798778D01*
X116555271Y-114769448D01*
X116453814Y-114686186D01*
X116344482Y-114552963D01*
X116341222Y-114548991D01*
X116257557Y-114392466D01*
X116206037Y-114222627D01*
X116188641Y-114046000D01*
X116206037Y-113869373D01*
X116257557Y-113699534D01*
X116341222Y-113543009D01*
X116386061Y-113488373D01*
X116453814Y-113405814D01*
X116555271Y-113322552D01*
X116591009Y-113293222D01*
X116747534Y-113209557D01*
X116917373Y-113158037D01*
X116983558Y-113151518D01*
X117049740Y-113145000D01*
X117138260Y-113145000D01*
X117204442Y-113151518D01*
X117204442Y-113151518D01*
G37*
G36*
X124570442Y-113151518D02*
G01*
X124636627Y-113158037D01*
X124806466Y-113209557D01*
X124962991Y-113293222D01*
X124998729Y-113322552D01*
X125100186Y-113405814D01*
X125167939Y-113488373D01*
X125212778Y-113543009D01*
X125296443Y-113699534D01*
X125347963Y-113869373D01*
X125365359Y-114046000D01*
X125347963Y-114222627D01*
X125296443Y-114392466D01*
X125212778Y-114548991D01*
X125209518Y-114552963D01*
X125100186Y-114686186D01*
X124998729Y-114769448D01*
X124962991Y-114798778D01*
X124806466Y-114882443D01*
X124636627Y-114933963D01*
X124570442Y-114940482D01*
X124504260Y-114947000D01*
X124415740Y-114947000D01*
X124349558Y-114940482D01*
X124283373Y-114933963D01*
X124113534Y-114882443D01*
X123957009Y-114798778D01*
X123921271Y-114769448D01*
X123819814Y-114686186D01*
X123710482Y-114552963D01*
X123707222Y-114548991D01*
X123623557Y-114392466D01*
X123572037Y-114222627D01*
X123554641Y-114046000D01*
X123572037Y-113869373D01*
X123623557Y-113699534D01*
X123707222Y-113543009D01*
X123752061Y-113488373D01*
X123819814Y-113405814D01*
X123921271Y-113322552D01*
X123957009Y-113293222D01*
X124113534Y-113209557D01*
X124283373Y-113158037D01*
X124349558Y-113151518D01*
X124415740Y-113145000D01*
X124504260Y-113145000D01*
X124570442Y-113151518D01*
X124570442Y-113151518D01*
G37*
G36*
X136889442Y-112770518D02*
G01*
X136955627Y-112777037D01*
X137125466Y-112828557D01*
X137281991Y-112912222D01*
X137317729Y-112941552D01*
X137419186Y-113024814D01*
X137502448Y-113126271D01*
X137531778Y-113162009D01*
X137615443Y-113318534D01*
X137666963Y-113488373D01*
X137684359Y-113665000D01*
X137666963Y-113841627D01*
X137615443Y-114011466D01*
X137531778Y-114167991D01*
X137502448Y-114203729D01*
X137419186Y-114305186D01*
X137317729Y-114388448D01*
X137281991Y-114417778D01*
X137125466Y-114501443D01*
X136955627Y-114552963D01*
X136889442Y-114559482D01*
X136823260Y-114566000D01*
X136734740Y-114566000D01*
X136668558Y-114559482D01*
X136602373Y-114552963D01*
X136432534Y-114501443D01*
X136276009Y-114417778D01*
X136240271Y-114388448D01*
X136138814Y-114305186D01*
X136055552Y-114203729D01*
X136026222Y-114167991D01*
X135942557Y-114011466D01*
X135891037Y-113841627D01*
X135873641Y-113665000D01*
X135891037Y-113488373D01*
X135942557Y-113318534D01*
X136026222Y-113162009D01*
X136055552Y-113126271D01*
X136138814Y-113024814D01*
X136240271Y-112941552D01*
X136276009Y-112912222D01*
X136432534Y-112828557D01*
X136602373Y-112777037D01*
X136668558Y-112770518D01*
X136734740Y-112764000D01*
X136823260Y-112764000D01*
X136889442Y-112770518D01*
X136889442Y-112770518D01*
G37*
G36*
X140220000Y-114566000D02*
G01*
X138418000Y-114566000D01*
X138418000Y-112764000D01*
X140220000Y-112764000D01*
X140220000Y-114566000D01*
X140220000Y-114566000D01*
G37*
G36*
X125361000Y-112407000D02*
G01*
X123559000Y-112407000D01*
X123559000Y-110605000D01*
X125361000Y-110605000D01*
X125361000Y-112407000D01*
X125361000Y-112407000D01*
G37*
G36*
X97675000Y-112407000D02*
G01*
X95873000Y-112407000D01*
X95873000Y-110605000D01*
X97675000Y-110605000D01*
X97675000Y-112407000D01*
X97675000Y-112407000D01*
G37*
G36*
X117995000Y-112407000D02*
G01*
X116193000Y-112407000D01*
X116193000Y-110605000D01*
X117995000Y-110605000D01*
X117995000Y-112407000D01*
X117995000Y-112407000D01*
G37*
G36*
X94344443Y-110611519D02*
G01*
X94410627Y-110618037D01*
X94580466Y-110669557D01*
X94736991Y-110753222D01*
X94772729Y-110782552D01*
X94874186Y-110865814D01*
X94957448Y-110967271D01*
X94986778Y-111003009D01*
X95070443Y-111159534D01*
X95121963Y-111329373D01*
X95139359Y-111506000D01*
X95121963Y-111682627D01*
X95070443Y-111852466D01*
X94986778Y-112008991D01*
X94957448Y-112044729D01*
X94874186Y-112146186D01*
X94772729Y-112229448D01*
X94736991Y-112258778D01*
X94580466Y-112342443D01*
X94410627Y-112393963D01*
X94344443Y-112400481D01*
X94278260Y-112407000D01*
X94189740Y-112407000D01*
X94123557Y-112400481D01*
X94057373Y-112393963D01*
X93887534Y-112342443D01*
X93731009Y-112258778D01*
X93695271Y-112229448D01*
X93593814Y-112146186D01*
X93510552Y-112044729D01*
X93481222Y-112008991D01*
X93397557Y-111852466D01*
X93346037Y-111682627D01*
X93328641Y-111506000D01*
X93346037Y-111329373D01*
X93397557Y-111159534D01*
X93481222Y-111003009D01*
X93510552Y-110967271D01*
X93593814Y-110865814D01*
X93695271Y-110782552D01*
X93731009Y-110753222D01*
X93887534Y-110669557D01*
X94057373Y-110618037D01*
X94123557Y-110611519D01*
X94189740Y-110605000D01*
X94278260Y-110605000D01*
X94344443Y-110611519D01*
X94344443Y-110611519D01*
G37*
G36*
X116069890Y-101829017D02*
G01*
X116188364Y-101878091D01*
X116294988Y-101949335D01*
X116385665Y-102040012D01*
X116456909Y-102146636D01*
X116505983Y-102265110D01*
X116531000Y-102390882D01*
X116531000Y-102519118D01*
X116505983Y-102644890D01*
X116456909Y-102763364D01*
X116385665Y-102869988D01*
X116294988Y-102960665D01*
X116188364Y-103031909D01*
X116188363Y-103031910D01*
X116188362Y-103031910D01*
X116069890Y-103080983D01*
X115944119Y-103106000D01*
X115815881Y-103106000D01*
X115690110Y-103080983D01*
X115571638Y-103031910D01*
X115571637Y-103031910D01*
X115571636Y-103031909D01*
X115465012Y-102960665D01*
X115374335Y-102869988D01*
X115303091Y-102763364D01*
X115254017Y-102644890D01*
X115229000Y-102519118D01*
X115229000Y-102390882D01*
X115254017Y-102265110D01*
X115303091Y-102146636D01*
X115374335Y-102040012D01*
X115465012Y-101949335D01*
X115571636Y-101878091D01*
X115690110Y-101829017D01*
X115815881Y-101804000D01*
X115944119Y-101804000D01*
X116069890Y-101829017D01*
X116069890Y-101829017D01*
G37*
G36*
X125615000Y-103009000D02*
G01*
X123813000Y-103009000D01*
X123813000Y-101207000D01*
X125615000Y-101207000D01*
X125615000Y-103009000D01*
X125615000Y-103009000D01*
G37*
G36*
X116531000Y-101106000D02*
G01*
X115229000Y-101106000D01*
X115229000Y-99804000D01*
X116531000Y-99804000D01*
X116531000Y-101106000D01*
X116531000Y-101106000D01*
G37*
G36*
X93859487Y-98093996D02*
G01*
X94096253Y-98192068D01*
X94096255Y-98192069D01*
X94309339Y-98334447D01*
X94490553Y-98515661D01*
X94632932Y-98728747D01*
X94731004Y-98965513D01*
X94781000Y-99216861D01*
X94781000Y-99473139D01*
X94731004Y-99724487D01*
X94652312Y-99914466D01*
X94632931Y-99961255D01*
X94490553Y-100174339D01*
X94309339Y-100355553D01*
X94096255Y-100497931D01*
X94096254Y-100497932D01*
X94096253Y-100497932D01*
X93859487Y-100596004D01*
X93608139Y-100646000D01*
X93351861Y-100646000D01*
X93100513Y-100596004D01*
X92863747Y-100497932D01*
X92863746Y-100497932D01*
X92863745Y-100497931D01*
X92650661Y-100355553D01*
X92469447Y-100174339D01*
X92327069Y-99961255D01*
X92307688Y-99914466D01*
X92228996Y-99724487D01*
X92179000Y-99473139D01*
X92179000Y-99216861D01*
X92228996Y-98965513D01*
X92327068Y-98728747D01*
X92469447Y-98515661D01*
X92650661Y-98334447D01*
X92863745Y-98192069D01*
X92863747Y-98192068D01*
X93100513Y-98093996D01*
X93351861Y-98044000D01*
X93608139Y-98044000D01*
X93859487Y-98093996D01*
X93859487Y-98093996D01*
G37*
G36*
X124824442Y-98673518D02*
G01*
X124890627Y-98680037D01*
X125060466Y-98731557D01*
X125216991Y-98815222D01*
X125252729Y-98844552D01*
X125354186Y-98927814D01*
X125437448Y-99029271D01*
X125466778Y-99065009D01*
X125550443Y-99221534D01*
X125601963Y-99391373D01*
X125619359Y-99568000D01*
X125601963Y-99744627D01*
X125550443Y-99914466D01*
X125466778Y-100070991D01*
X125437448Y-100106729D01*
X125354186Y-100208186D01*
X125252729Y-100291448D01*
X125216991Y-100320778D01*
X125060466Y-100404443D01*
X124890627Y-100455963D01*
X124824442Y-100462482D01*
X124758260Y-100469000D01*
X124669740Y-100469000D01*
X124603557Y-100462481D01*
X124537373Y-100455963D01*
X124367534Y-100404443D01*
X124211009Y-100320778D01*
X124175271Y-100291448D01*
X124073814Y-100208186D01*
X123990552Y-100106729D01*
X123961222Y-100070991D01*
X123877557Y-99914466D01*
X123826037Y-99744627D01*
X123808641Y-99568000D01*
X123826037Y-99391373D01*
X123877557Y-99221534D01*
X123961222Y-99065009D01*
X123990552Y-99029271D01*
X124073814Y-98927814D01*
X124175271Y-98844552D01*
X124211009Y-98815222D01*
X124367534Y-98731557D01*
X124537373Y-98680037D01*
X124603558Y-98673518D01*
X124669740Y-98667000D01*
X124758260Y-98667000D01*
X124824442Y-98673518D01*
X124824442Y-98673518D01*
G37*
G36*
X94781000Y-95646000D02*
G01*
X92179000Y-95646000D01*
X92179000Y-93044000D01*
X94781000Y-93044000D01*
X94781000Y-95646000D01*
X94781000Y-95646000D01*
G37*
G36*
X129706822Y-92437313D02*
G01*
X129867241Y-92485976D01*
X130015077Y-92564995D01*
X130144659Y-92671341D01*
X130251004Y-92800922D01*
X130251005Y-92800924D01*
X130330024Y-92948758D01*
X130378687Y-93109177D01*
X130391000Y-93234196D01*
X130391000Y-94217803D01*
X130378687Y-94342823D01*
X130330024Y-94503242D01*
X130259114Y-94635906D01*
X130251004Y-94651078D01*
X130144659Y-94780659D01*
X130015078Y-94887004D01*
X130015076Y-94887005D01*
X129867242Y-94966024D01*
X129706823Y-95014687D01*
X129540000Y-95031117D01*
X129373178Y-95014687D01*
X129212759Y-94966024D01*
X129064925Y-94887005D01*
X129064923Y-94887004D01*
X128935342Y-94780659D01*
X128828997Y-94651078D01*
X128820887Y-94635906D01*
X128749977Y-94503242D01*
X128701314Y-94342823D01*
X128689000Y-94217803D01*
X128689000Y-93234197D01*
X128701313Y-93109178D01*
X128749976Y-92948759D01*
X128828995Y-92800923D01*
X128935341Y-92671341D01*
X129064922Y-92564996D01*
X129080094Y-92556886D01*
X129212758Y-92485976D01*
X129373177Y-92437313D01*
X129540000Y-92420883D01*
X129706822Y-92437313D01*
X129706822Y-92437313D01*
G37*
G36*
X132246822Y-92437313D02*
G01*
X132407241Y-92485976D01*
X132555077Y-92564995D01*
X132684659Y-92671341D01*
X132791004Y-92800922D01*
X132791005Y-92800924D01*
X132870024Y-92948758D01*
X132918687Y-93109177D01*
X132931000Y-93234196D01*
X132931000Y-94217803D01*
X132918687Y-94342823D01*
X132870024Y-94503242D01*
X132799114Y-94635906D01*
X132791004Y-94651078D01*
X132684659Y-94780659D01*
X132555078Y-94887004D01*
X132555076Y-94887005D01*
X132407242Y-94966024D01*
X132246823Y-95014687D01*
X132080000Y-95031117D01*
X131913178Y-95014687D01*
X131752759Y-94966024D01*
X131604925Y-94887005D01*
X131604923Y-94887004D01*
X131475342Y-94780659D01*
X131368997Y-94651078D01*
X131360887Y-94635906D01*
X131289977Y-94503242D01*
X131241314Y-94342823D01*
X131229000Y-94217803D01*
X131229000Y-93234197D01*
X131241313Y-93109178D01*
X131289976Y-92948759D01*
X131368995Y-92800923D01*
X131475341Y-92671341D01*
X131604922Y-92564996D01*
X131620094Y-92556886D01*
X131752758Y-92485976D01*
X131913177Y-92437313D01*
X132080000Y-92420883D01*
X132246822Y-92437313D01*
X132246822Y-92437313D01*
G37*
G36*
X151012822Y-92437313D02*
G01*
X151173241Y-92485976D01*
X151321077Y-92564995D01*
X151450659Y-92671341D01*
X151557004Y-92800922D01*
X151557005Y-92800924D01*
X151636024Y-92948758D01*
X151684687Y-93109177D01*
X151697000Y-93234196D01*
X151697000Y-94217803D01*
X151684687Y-94342823D01*
X151636024Y-94503242D01*
X151565114Y-94635906D01*
X151557004Y-94651078D01*
X151450659Y-94780659D01*
X151321078Y-94887004D01*
X151321076Y-94887005D01*
X151173242Y-94966024D01*
X151012823Y-95014687D01*
X150846000Y-95031117D01*
X150679178Y-95014687D01*
X150518759Y-94966024D01*
X150370925Y-94887005D01*
X150370923Y-94887004D01*
X150241342Y-94780659D01*
X150134997Y-94651078D01*
X150126887Y-94635906D01*
X150055977Y-94503242D01*
X150007314Y-94342823D01*
X149995000Y-94217803D01*
X149995000Y-93234197D01*
X150007313Y-93109178D01*
X150055976Y-92948759D01*
X150134995Y-92800923D01*
X150241341Y-92671341D01*
X150370922Y-92564996D01*
X150386094Y-92556886D01*
X150518758Y-92485976D01*
X150679177Y-92437313D01*
X150846000Y-92420883D01*
X151012822Y-92437313D01*
X151012822Y-92437313D01*
G37*
G36*
X153552822Y-92437313D02*
G01*
X153713241Y-92485976D01*
X153861077Y-92564995D01*
X153990659Y-92671341D01*
X154097004Y-92800922D01*
X154097005Y-92800924D01*
X154176024Y-92948758D01*
X154224687Y-93109177D01*
X154237000Y-93234196D01*
X154237000Y-94217803D01*
X154224687Y-94342823D01*
X154176024Y-94503242D01*
X154105114Y-94635906D01*
X154097004Y-94651078D01*
X153990659Y-94780659D01*
X153861078Y-94887004D01*
X153861076Y-94887005D01*
X153713242Y-94966024D01*
X153552823Y-95014687D01*
X153386000Y-95031117D01*
X153219178Y-95014687D01*
X153058759Y-94966024D01*
X152910925Y-94887005D01*
X152910923Y-94887004D01*
X152781342Y-94780659D01*
X152674997Y-94651078D01*
X152666887Y-94635906D01*
X152595977Y-94503242D01*
X152547314Y-94342823D01*
X152535000Y-94217803D01*
X152535000Y-93234197D01*
X152547313Y-93109178D01*
X152595976Y-92948759D01*
X152674995Y-92800923D01*
X152781341Y-92671341D01*
X152910922Y-92564996D01*
X152926094Y-92556886D01*
X153058758Y-92485976D01*
X153219177Y-92437313D01*
X153386000Y-92420883D01*
X153552822Y-92437313D01*
X153552822Y-92437313D01*
G37*
G36*
X127353057Y-85121059D02*
G01*
X127692547Y-85224042D01*
X127692549Y-85224043D01*
X128005423Y-85391277D01*
X128279661Y-85616339D01*
X128504722Y-85890577D01*
X128671958Y-86203452D01*
X128774941Y-86542942D01*
X128801000Y-86807525D01*
X128801000Y-90484475D01*
X128774941Y-90749058D01*
X128671958Y-91088548D01*
X128671957Y-91088550D01*
X128504723Y-91401422D01*
X128279661Y-91675661D01*
X128005422Y-91900723D01*
X127692550Y-92067957D01*
X127692548Y-92067958D01*
X127353058Y-92170941D01*
X127000000Y-92205714D01*
X126646943Y-92170941D01*
X126307453Y-92067958D01*
X126307451Y-92067957D01*
X125994579Y-91900723D01*
X125720340Y-91675661D01*
X125495278Y-91401422D01*
X125328044Y-91088550D01*
X125328043Y-91088548D01*
X125225060Y-90749058D01*
X125199001Y-90484475D01*
X125199000Y-86807526D01*
X125225059Y-86542943D01*
X125328042Y-86203453D01*
X125328044Y-86203450D01*
X125495277Y-85890577D01*
X125720339Y-85616339D01*
X125994578Y-85391277D01*
X126307450Y-85224043D01*
X126307452Y-85224042D01*
X126646942Y-85121059D01*
X127000000Y-85086286D01*
X127353057Y-85121059D01*
X127353057Y-85121059D01*
G37*
G36*
X158819057Y-85121059D02*
G01*
X159158547Y-85224042D01*
X159158549Y-85224043D01*
X159471423Y-85391277D01*
X159745661Y-85616339D01*
X159970722Y-85890577D01*
X160137958Y-86203452D01*
X160240941Y-86542942D01*
X160267000Y-86807525D01*
X160267000Y-90484475D01*
X160240941Y-90749058D01*
X160137958Y-91088548D01*
X160137957Y-91088550D01*
X159970723Y-91401422D01*
X159745661Y-91675661D01*
X159471422Y-91900723D01*
X159158550Y-92067957D01*
X159158548Y-92067958D01*
X158819058Y-92170941D01*
X158466000Y-92205714D01*
X158112943Y-92170941D01*
X157773453Y-92067958D01*
X157773451Y-92067957D01*
X157460579Y-91900723D01*
X157186340Y-91675661D01*
X156961278Y-91401422D01*
X156794044Y-91088550D01*
X156794043Y-91088548D01*
X156691060Y-90749058D01*
X156665001Y-90484475D01*
X156665000Y-86807526D01*
X156691059Y-86542943D01*
X156794042Y-86203453D01*
X156794044Y-86203450D01*
X156961277Y-85890577D01*
X157186339Y-85616339D01*
X157460578Y-85391277D01*
X157773450Y-85224043D01*
X157773452Y-85224042D01*
X158112942Y-85121059D01*
X158466000Y-85086286D01*
X158819057Y-85121059D01*
X158819057Y-85121059D01*
G37*
G36*
X148659057Y-85121059D02*
G01*
X148998547Y-85224042D01*
X148998549Y-85224043D01*
X149311423Y-85391277D01*
X149585661Y-85616339D01*
X149810722Y-85890577D01*
X149977958Y-86203452D01*
X150080941Y-86542942D01*
X150107000Y-86807525D01*
X150107000Y-90484475D01*
X150080941Y-90749058D01*
X149977958Y-91088548D01*
X149977957Y-91088550D01*
X149810723Y-91401422D01*
X149585661Y-91675661D01*
X149311422Y-91900723D01*
X148998550Y-92067957D01*
X148998548Y-92067958D01*
X148659058Y-92170941D01*
X148306000Y-92205714D01*
X147952943Y-92170941D01*
X147613453Y-92067958D01*
X147613451Y-92067957D01*
X147300579Y-91900723D01*
X147026340Y-91675661D01*
X146801278Y-91401422D01*
X146634044Y-91088550D01*
X146634043Y-91088548D01*
X146531060Y-90749058D01*
X146505001Y-90484475D01*
X146505000Y-86807526D01*
X146531059Y-86542943D01*
X146634042Y-86203453D01*
X146634044Y-86203450D01*
X146801277Y-85890577D01*
X147026339Y-85616339D01*
X147300578Y-85391277D01*
X147613450Y-85224043D01*
X147613452Y-85224042D01*
X147952942Y-85121059D01*
X148306000Y-85086286D01*
X148659057Y-85121059D01*
X148659057Y-85121059D01*
G37*
G36*
X137513057Y-85121059D02*
G01*
X137852547Y-85224042D01*
X137852549Y-85224043D01*
X138165423Y-85391277D01*
X138439661Y-85616339D01*
X138664722Y-85890577D01*
X138831958Y-86203452D01*
X138934941Y-86542942D01*
X138961000Y-86807525D01*
X138961000Y-90484475D01*
X138934941Y-90749058D01*
X138831958Y-91088548D01*
X138831957Y-91088550D01*
X138664723Y-91401422D01*
X138439661Y-91675661D01*
X138165422Y-91900723D01*
X137852550Y-92067957D01*
X137852548Y-92067958D01*
X137513058Y-92170941D01*
X137160000Y-92205714D01*
X136806943Y-92170941D01*
X136467453Y-92067958D01*
X136467451Y-92067957D01*
X136154579Y-91900723D01*
X135880340Y-91675661D01*
X135655278Y-91401422D01*
X135488044Y-91088550D01*
X135488043Y-91088548D01*
X135385060Y-90749058D01*
X135359001Y-90484475D01*
X135359000Y-86807526D01*
X135385059Y-86542943D01*
X135488042Y-86203453D01*
X135488044Y-86203450D01*
X135655277Y-85890577D01*
X135880339Y-85616339D01*
X136154578Y-85391277D01*
X136467450Y-85224043D01*
X136467452Y-85224042D01*
X136806942Y-85121059D01*
X137160000Y-85086286D01*
X137513057Y-85121059D01*
X137513057Y-85121059D01*
G37*
G36*
X116781000Y-90936000D02*
G01*
X114979000Y-90936000D01*
X114979000Y-89134000D01*
X116781000Y-89134000D01*
X116781000Y-90936000D01*
X116781000Y-90936000D01*
G37*
G36*
X104533000Y-90055000D02*
G01*
X102731000Y-90055000D01*
X102731000Y-88253000D01*
X104533000Y-88253000D01*
X104533000Y-90055000D01*
X104533000Y-90055000D01*
G37*
G36*
X101202443Y-88259519D02*
G01*
X101268627Y-88266037D01*
X101438466Y-88317557D01*
X101594991Y-88401222D01*
X101630729Y-88430552D01*
X101732186Y-88513814D01*
X101815448Y-88615271D01*
X101844778Y-88651009D01*
X101928443Y-88807534D01*
X101979963Y-88977373D01*
X101997359Y-89154000D01*
X101979963Y-89330627D01*
X101928443Y-89500466D01*
X101844778Y-89656991D01*
X101815448Y-89692729D01*
X101732186Y-89794186D01*
X101630729Y-89877448D01*
X101594991Y-89906778D01*
X101438466Y-89990443D01*
X101268627Y-90041963D01*
X101202443Y-90048481D01*
X101136260Y-90055000D01*
X101047740Y-90055000D01*
X100981557Y-90048481D01*
X100915373Y-90041963D01*
X100745534Y-89990443D01*
X100589009Y-89906778D01*
X100553271Y-89877448D01*
X100451814Y-89794186D01*
X100368552Y-89692729D01*
X100339222Y-89656991D01*
X100255557Y-89500466D01*
X100204037Y-89330627D01*
X100186641Y-89154000D01*
X100204037Y-88977373D01*
X100255557Y-88807534D01*
X100339222Y-88651009D01*
X100368552Y-88615271D01*
X100451814Y-88513814D01*
X100553271Y-88430552D01*
X100589009Y-88401222D01*
X100745534Y-88317557D01*
X100915373Y-88266037D01*
X100981557Y-88259519D01*
X101047740Y-88253000D01*
X101136260Y-88253000D01*
X101202443Y-88259519D01*
X101202443Y-88259519D01*
G37*
G36*
X115990442Y-86600518D02*
G01*
X116056627Y-86607037D01*
X116226466Y-86658557D01*
X116382991Y-86742222D01*
X116418729Y-86771552D01*
X116520186Y-86854814D01*
X116603448Y-86956271D01*
X116632778Y-86992009D01*
X116716443Y-87148534D01*
X116767963Y-87318373D01*
X116785359Y-87495000D01*
X116767963Y-87671627D01*
X116716443Y-87841466D01*
X116632778Y-87997991D01*
X116603448Y-88033729D01*
X116520186Y-88135186D01*
X116418729Y-88218448D01*
X116382991Y-88247778D01*
X116226466Y-88331443D01*
X116056627Y-88382963D01*
X115990442Y-88389482D01*
X115924260Y-88396000D01*
X115835740Y-88396000D01*
X115769558Y-88389482D01*
X115703373Y-88382963D01*
X115533534Y-88331443D01*
X115377009Y-88247778D01*
X115341271Y-88218448D01*
X115239814Y-88135186D01*
X115156552Y-88033729D01*
X115127222Y-87997991D01*
X115043557Y-87841466D01*
X114992037Y-87671627D01*
X114974641Y-87495000D01*
X114992037Y-87318373D01*
X115043557Y-87148534D01*
X115127222Y-86992009D01*
X115156552Y-86956271D01*
X115239814Y-86854814D01*
X115341271Y-86771552D01*
X115377009Y-86742222D01*
X115533534Y-86658557D01*
X115703373Y-86607037D01*
X115769558Y-86600518D01*
X115835740Y-86594000D01*
X115924260Y-86594000D01*
X115990442Y-86600518D01*
X115990442Y-86600518D01*
G37*
G36*
X91624549Y-82571116D02*
G01*
X91735734Y-82593232D01*
X91945203Y-82679997D01*
X92133720Y-82805960D01*
X92294040Y-82966280D01*
X92420003Y-83154797D01*
X92506768Y-83364266D01*
X92551000Y-83586636D01*
X92551000Y-83813364D01*
X92506768Y-84035734D01*
X92420003Y-84245203D01*
X92294040Y-84433720D01*
X92133720Y-84594040D01*
X91945203Y-84720003D01*
X91735734Y-84806768D01*
X91624549Y-84828884D01*
X91513365Y-84851000D01*
X91286635Y-84851000D01*
X91175451Y-84828884D01*
X91064266Y-84806768D01*
X90854797Y-84720003D01*
X90666280Y-84594040D01*
X90505960Y-84433720D01*
X90379997Y-84245203D01*
X90293232Y-84035734D01*
X90249000Y-83813364D01*
X90249000Y-83586636D01*
X90293232Y-83364266D01*
X90379997Y-83154797D01*
X90505960Y-82966280D01*
X90666280Y-82805960D01*
X90854797Y-82679997D01*
X91064266Y-82593232D01*
X91175451Y-82571116D01*
X91286635Y-82549000D01*
X91513365Y-82549000D01*
X91624549Y-82571116D01*
X91624549Y-82571116D01*
G37*
G36*
X164724549Y-82571116D02*
G01*
X164835734Y-82593232D01*
X165045203Y-82679997D01*
X165233720Y-82805960D01*
X165394040Y-82966280D01*
X165520003Y-83154797D01*
X165606768Y-83364266D01*
X165651000Y-83586636D01*
X165651000Y-83813364D01*
X165606768Y-84035734D01*
X165520003Y-84245203D01*
X165394040Y-84433720D01*
X165233720Y-84594040D01*
X165045203Y-84720003D01*
X164835734Y-84806768D01*
X164724549Y-84828884D01*
X164613365Y-84851000D01*
X164386635Y-84851000D01*
X164275451Y-84828884D01*
X164164266Y-84806768D01*
X163954797Y-84720003D01*
X163766280Y-84594040D01*
X163605960Y-84433720D01*
X163479997Y-84245203D01*
X163393232Y-84035734D01*
X163349000Y-83813364D01*
X163349000Y-83586636D01*
X163393232Y-83364266D01*
X163479997Y-83154797D01*
X163605960Y-82966280D01*
X163766280Y-82805960D01*
X163954797Y-82679997D01*
X164164266Y-82593232D01*
X164275451Y-82571116D01*
X164386635Y-82549000D01*
X164613365Y-82549000D01*
X164724549Y-82571116D01*
X164724549Y-82571116D01*
G37*
G36*
X106739642Y-81858718D02*
G01*
X106805827Y-81865237D01*
X106975666Y-81916757D01*
X107132191Y-82000422D01*
X107167929Y-82029752D01*
X107269386Y-82113014D01*
X107352648Y-82214471D01*
X107381978Y-82250209D01*
X107465643Y-82406734D01*
X107517163Y-82576573D01*
X107534559Y-82753200D01*
X107517163Y-82929827D01*
X107465643Y-83099666D01*
X107381978Y-83256191D01*
X107352648Y-83291929D01*
X107269386Y-83393386D01*
X107167929Y-83476648D01*
X107132191Y-83505978D01*
X106975666Y-83589643D01*
X106805827Y-83641163D01*
X106739643Y-83647681D01*
X106673460Y-83654200D01*
X106584940Y-83654200D01*
X106518757Y-83647681D01*
X106452573Y-83641163D01*
X106282734Y-83589643D01*
X106126209Y-83505978D01*
X106090471Y-83476648D01*
X105989014Y-83393386D01*
X105905752Y-83291929D01*
X105876422Y-83256191D01*
X105792757Y-83099666D01*
X105741237Y-82929827D01*
X105723841Y-82753200D01*
X105741237Y-82576573D01*
X105792757Y-82406734D01*
X105876422Y-82250209D01*
X105905752Y-82214471D01*
X105989014Y-82113014D01*
X106090471Y-82029752D01*
X106126209Y-82000422D01*
X106282734Y-81916757D01*
X106452573Y-81865237D01*
X106518758Y-81858718D01*
X106584940Y-81852200D01*
X106673460Y-81852200D01*
X106739642Y-81858718D01*
X106739642Y-81858718D01*
G37*
G36*
X110070200Y-83654200D02*
G01*
X108268200Y-83654200D01*
X108268200Y-81852200D01*
X110070200Y-81852200D01*
X110070200Y-83654200D01*
X110070200Y-83654200D01*
G37*
M02*
