G04 #@! TF.GenerationSoftware,KiCad,Pcbnew,(5.1.2)-1*
G04 #@! TF.CreationDate,2022-09-28T11:17:10-03:00*
G04 #@! TF.ProjectId,esp32,65737033-322e-46b6-9963-61645f706362,rev?*
G04 #@! TF.SameCoordinates,Original*
G04 #@! TF.FileFunction,Copper,L2,Bot*
G04 #@! TF.FilePolarity,Positive*
%FSLAX46Y46*%
G04 Gerber Fmt 4.6, Leading zero omitted, Abs format (unit mm)*
G04 Created by KiCad (PCBNEW (5.1.2)-1) date 2022-09-28 11:17:10*
%MOMM*%
%LPD*%
G04 APERTURE LIST*
%ADD10O,1.200000X1.803400*%
%ADD11O,1.200000X2.108200*%
%ADD12O,0.609600X1.500000*%
%ADD13O,0.609600X1.800000*%
%ADD14O,1.700000X1.700000*%
%ADD15R,1.700000X1.700000*%
%ADD16O,1.600000X2.500000*%
%ADD17O,3.500000X7.000000*%
%ADD18C,2.500000*%
%ADD19R,2.500000X2.500000*%
%ADD20C,1.500000*%
%ADD21C,1.200000*%
%ADD22R,1.200000X1.200000*%
%ADD23C,0.800000*%
%ADD24C,0.750000*%
%ADD25C,0.250000*%
%ADD26C,0.500000*%
G04 APERTURE END LIST*
D10*
X107544000Y-140526000D03*
D11*
X107544000Y-136346000D03*
D10*
X98704000Y-140526000D03*
D12*
X107444000Y-140526000D03*
D13*
X107444000Y-136346000D03*
D12*
X98804000Y-140526000D03*
D13*
X98804000Y-136346000D03*
D11*
X98704000Y-136346000D03*
D14*
X136779000Y-113665000D03*
D15*
X139319000Y-113665000D03*
D14*
X106629200Y-82753200D03*
D15*
X109169200Y-82753200D03*
D14*
X149479000Y-139255500D03*
D15*
X146939000Y-139255500D03*
D14*
X139128500Y-139319000D03*
D15*
X141668500Y-139319000D03*
D14*
X95758000Y-121793000D03*
D15*
X95758000Y-119253000D03*
D16*
X129540000Y-93726000D03*
X132080000Y-93726000D03*
D17*
X137160000Y-88646000D03*
X127000000Y-88646000D03*
D16*
X150846000Y-93726000D03*
X153386000Y-93726000D03*
D17*
X158466000Y-88646000D03*
X148306000Y-88646000D03*
D14*
X124714000Y-99568000D03*
D15*
X124714000Y-102108000D03*
D14*
X94234000Y-111506000D03*
D15*
X96774000Y-111506000D03*
D14*
X124460000Y-114046000D03*
D15*
X124460000Y-111506000D03*
D14*
X117094000Y-114046000D03*
D15*
X117094000Y-111506000D03*
D18*
X93480000Y-99345000D03*
D19*
X93480000Y-94345000D03*
D14*
X101092000Y-89154000D03*
D15*
X103632000Y-89154000D03*
D20*
X115480000Y-131135000D03*
X115480000Y-126235000D03*
D14*
X115880000Y-87495000D03*
D15*
X115880000Y-90035000D03*
D21*
X115880000Y-102455000D03*
D22*
X115880000Y-100455000D03*
D23*
X118930000Y-116975000D03*
X124714000Y-121666000D03*
X125730000Y-117348000D03*
X155448000Y-115316000D03*
X150380000Y-114566000D03*
X139192000Y-109982000D03*
X104099000Y-133350000D03*
X102649000Y-133354000D03*
X106172000Y-123190000D03*
X120650000Y-129286000D03*
X106172000Y-125222000D03*
X119380000Y-133350000D03*
X136525000Y-139319000D03*
X136525000Y-130048000D03*
X112014000Y-121412000D03*
X112014000Y-118364000D03*
X123698000Y-96774000D03*
X147840000Y-113550000D03*
X147574000Y-104648000D03*
X157861000Y-104013000D03*
X136652000Y-104648000D03*
X150368000Y-99060000D03*
X105156000Y-134366000D03*
X101092000Y-134366000D03*
X96647000Y-115570000D03*
D24*
X103335000Y-109535000D02*
X119760000Y-109535000D01*
X95480000Y-94345000D02*
X98185000Y-97050000D01*
X93480000Y-94345000D02*
X95480000Y-94345000D01*
X101500000Y-97050000D02*
X102675000Y-98225000D01*
X102675000Y-98225000D02*
X102675000Y-108875000D01*
X98185000Y-97050000D02*
X101500000Y-97050000D01*
X102675000Y-108875000D02*
X103335000Y-109535000D01*
X119760000Y-116145000D02*
X118930000Y-116975000D01*
X119760000Y-109535000D02*
X119760000Y-116145000D01*
D25*
X124714000Y-121666000D02*
X124714000Y-118364000D01*
X124714000Y-118364000D02*
X124841000Y-118237000D01*
X124841000Y-118237000D02*
X135509000Y-118237000D01*
X124841000Y-118237000D02*
X125730000Y-117348000D01*
X135509000Y-118237000D02*
X137922000Y-120650000D01*
X137922000Y-120650000D02*
X149860000Y-120650000D01*
X149860000Y-120650000D02*
X155194000Y-115316000D01*
X155194000Y-115316000D02*
X155448000Y-115316000D01*
X150380000Y-114566000D02*
X143776000Y-114566000D01*
X143776000Y-114566000D02*
X139192000Y-109982000D01*
X104099000Y-133350000D02*
X102653000Y-133350000D01*
X102653000Y-133350000D02*
X102649000Y-133354000D01*
X116840000Y-123190000D02*
X106172000Y-123190000D01*
X120650000Y-129286000D02*
X120650000Y-127000000D01*
X120650000Y-127000000D02*
X116840000Y-123190000D01*
X106284001Y-125109999D02*
X116020001Y-125109999D01*
X106172000Y-125222000D02*
X106284001Y-125109999D01*
X116020001Y-125109999D02*
X116219999Y-125109999D01*
X116219999Y-125109999D02*
X119380000Y-128270000D01*
X119380000Y-128270000D02*
X119380000Y-133350000D01*
X136525000Y-139319000D02*
X136525000Y-130048000D01*
D24*
X112014000Y-121412000D02*
X112014000Y-118364000D01*
D25*
X132334000Y-105410000D02*
X123698000Y-96774000D01*
X136144000Y-105410000D02*
X132334000Y-105410000D01*
X144284000Y-113550000D02*
X136144000Y-105410000D01*
X147840000Y-113550000D02*
X144284000Y-113550000D01*
X150846000Y-95226000D02*
X150876000Y-95256000D01*
X147574000Y-104648000D02*
X152146000Y-100076000D01*
X152146000Y-100076000D02*
X152146000Y-97536000D01*
X152146000Y-97536000D02*
X150846000Y-96236000D01*
X150846000Y-96236000D02*
X150846000Y-93726000D01*
X150846000Y-91186000D02*
X148306000Y-88646000D01*
X150846000Y-93726000D02*
X150846000Y-91186000D01*
X155926000Y-88646000D02*
X158466000Y-88646000D01*
X150846000Y-93726000D02*
X155926000Y-88646000D01*
X157861000Y-104013000D02*
X157861000Y-98679000D01*
X153386000Y-94204000D02*
X153386000Y-93726000D01*
X157861000Y-98679000D02*
X153386000Y-94204000D01*
X136652000Y-104648000D02*
X133858000Y-104648000D01*
X129540000Y-100330000D02*
X129540000Y-93726000D01*
X133858000Y-104648000D02*
X129540000Y-100330000D01*
X129540000Y-91186000D02*
X127000000Y-88646000D01*
X129540000Y-93726000D02*
X129540000Y-91186000D01*
X134620000Y-88646000D02*
X137160000Y-88646000D01*
X129540000Y-93726000D02*
X134620000Y-88646000D01*
X137668000Y-93726000D02*
X132080000Y-93726000D01*
X143002000Y-99060000D02*
X137668000Y-93726000D01*
X150368000Y-99060000D02*
X143002000Y-99060000D01*
D26*
X105156000Y-134366000D02*
X101092000Y-134366000D01*
D24*
X98298000Y-131572000D02*
X101092000Y-134366000D01*
X98298000Y-117221000D02*
X98298000Y-131572000D01*
X96647000Y-115570000D02*
X98298000Y-117221000D01*
M02*
