G04 #@! TF.GenerationSoftware,KiCad,Pcbnew,(5.1.2)-1*
G04 #@! TF.CreationDate,2022-07-04T19:57:45-03:00*
G04 #@! TF.ProjectId,esp32,65737033-322e-46b6-9963-61645f706362,rev?*
G04 #@! TF.SameCoordinates,Original*
G04 #@! TF.FileFunction,Paste,Top*
G04 #@! TF.FilePolarity,Positive*
%FSLAX46Y46*%
G04 Gerber Fmt 4.6, Leading zero omitted, Abs format (unit mm)*
G04 Created by KiCad (PCBNEW (5.1.2)-1) date 2022-07-04 19:57:45*
%MOMM*%
%LPD*%
G04 APERTURE LIST*
%ADD10C,0.100000*%
%ADD11C,1.150000*%
%ADD12R,5.000000X5.000000*%
%ADD13R,0.900000X2.000000*%
%ADD14R,2.000000X0.900000*%
%ADD15R,1.700000X0.900000*%
%ADD16R,5.850000X4.900000*%
%ADD17R,2.100000X1.000000*%
%ADD18R,1.143000X0.609600*%
%ADD19R,1.143000X0.304800*%
%ADD20O,2.108200X0.990600*%
%ADD21O,1.803400X0.990600*%
%ADD22R,2.300000X3.500000*%
%ADD23R,1.400000X1.000000*%
%ADD24C,0.600000*%
%ADD25C,1.425000*%
%ADD26R,1.560000X0.650000*%
%ADD27R,2.200000X1.550000*%
%ADD28R,1.450000X0.450000*%
%ADD29R,0.900000X0.800000*%
G04 APERTURE END LIST*
D10*
G36*
X129054505Y-87776204D02*
G01*
X129078773Y-87779804D01*
X129102572Y-87785765D01*
X129125671Y-87794030D01*
X129147850Y-87804520D01*
X129168893Y-87817132D01*
X129188599Y-87831747D01*
X129206777Y-87848223D01*
X129223253Y-87866401D01*
X129237868Y-87886107D01*
X129250480Y-87907150D01*
X129260970Y-87929329D01*
X129269235Y-87952428D01*
X129275196Y-87976227D01*
X129278796Y-88000495D01*
X129280000Y-88024999D01*
X129280000Y-88675001D01*
X129278796Y-88699505D01*
X129275196Y-88723773D01*
X129269235Y-88747572D01*
X129260970Y-88770671D01*
X129250480Y-88792850D01*
X129237868Y-88813893D01*
X129223253Y-88833599D01*
X129206777Y-88851777D01*
X129188599Y-88868253D01*
X129168893Y-88882868D01*
X129147850Y-88895480D01*
X129125671Y-88905970D01*
X129102572Y-88914235D01*
X129078773Y-88920196D01*
X129054505Y-88923796D01*
X129030001Y-88925000D01*
X128129999Y-88925000D01*
X128105495Y-88923796D01*
X128081227Y-88920196D01*
X128057428Y-88914235D01*
X128034329Y-88905970D01*
X128012150Y-88895480D01*
X127991107Y-88882868D01*
X127971401Y-88868253D01*
X127953223Y-88851777D01*
X127936747Y-88833599D01*
X127922132Y-88813893D01*
X127909520Y-88792850D01*
X127899030Y-88770671D01*
X127890765Y-88747572D01*
X127884804Y-88723773D01*
X127881204Y-88699505D01*
X127880000Y-88675001D01*
X127880000Y-88024999D01*
X127881204Y-88000495D01*
X127884804Y-87976227D01*
X127890765Y-87952428D01*
X127899030Y-87929329D01*
X127909520Y-87907150D01*
X127922132Y-87886107D01*
X127936747Y-87866401D01*
X127953223Y-87848223D01*
X127971401Y-87831747D01*
X127991107Y-87817132D01*
X128012150Y-87804520D01*
X128034329Y-87794030D01*
X128057428Y-87785765D01*
X128081227Y-87779804D01*
X128105495Y-87776204D01*
X128129999Y-87775000D01*
X129030001Y-87775000D01*
X129054505Y-87776204D01*
X129054505Y-87776204D01*
G37*
D11*
X128580000Y-88350000D03*
D10*
G36*
X129054505Y-85726204D02*
G01*
X129078773Y-85729804D01*
X129102572Y-85735765D01*
X129125671Y-85744030D01*
X129147850Y-85754520D01*
X129168893Y-85767132D01*
X129188599Y-85781747D01*
X129206777Y-85798223D01*
X129223253Y-85816401D01*
X129237868Y-85836107D01*
X129250480Y-85857150D01*
X129260970Y-85879329D01*
X129269235Y-85902428D01*
X129275196Y-85926227D01*
X129278796Y-85950495D01*
X129280000Y-85974999D01*
X129280000Y-86625001D01*
X129278796Y-86649505D01*
X129275196Y-86673773D01*
X129269235Y-86697572D01*
X129260970Y-86720671D01*
X129250480Y-86742850D01*
X129237868Y-86763893D01*
X129223253Y-86783599D01*
X129206777Y-86801777D01*
X129188599Y-86818253D01*
X129168893Y-86832868D01*
X129147850Y-86845480D01*
X129125671Y-86855970D01*
X129102572Y-86864235D01*
X129078773Y-86870196D01*
X129054505Y-86873796D01*
X129030001Y-86875000D01*
X128129999Y-86875000D01*
X128105495Y-86873796D01*
X128081227Y-86870196D01*
X128057428Y-86864235D01*
X128034329Y-86855970D01*
X128012150Y-86845480D01*
X127991107Y-86832868D01*
X127971401Y-86818253D01*
X127953223Y-86801777D01*
X127936747Y-86783599D01*
X127922132Y-86763893D01*
X127909520Y-86742850D01*
X127899030Y-86720671D01*
X127890765Y-86697572D01*
X127884804Y-86673773D01*
X127881204Y-86649505D01*
X127880000Y-86625001D01*
X127880000Y-85974999D01*
X127881204Y-85950495D01*
X127884804Y-85926227D01*
X127890765Y-85902428D01*
X127899030Y-85879329D01*
X127909520Y-85857150D01*
X127922132Y-85836107D01*
X127936747Y-85816401D01*
X127953223Y-85798223D01*
X127971401Y-85781747D01*
X127991107Y-85767132D01*
X128012150Y-85754520D01*
X128034329Y-85744030D01*
X128057428Y-85735765D01*
X128081227Y-85729804D01*
X128105495Y-85726204D01*
X128129999Y-85725000D01*
X129030001Y-85725000D01*
X129054505Y-85726204D01*
X129054505Y-85726204D01*
G37*
D11*
X128580000Y-86300000D03*
D10*
G36*
X107054505Y-85726204D02*
G01*
X107078773Y-85729804D01*
X107102572Y-85735765D01*
X107125671Y-85744030D01*
X107147850Y-85754520D01*
X107168893Y-85767132D01*
X107188599Y-85781747D01*
X107206777Y-85798223D01*
X107223253Y-85816401D01*
X107237868Y-85836107D01*
X107250480Y-85857150D01*
X107260970Y-85879329D01*
X107269235Y-85902428D01*
X107275196Y-85926227D01*
X107278796Y-85950495D01*
X107280000Y-85974999D01*
X107280000Y-86625001D01*
X107278796Y-86649505D01*
X107275196Y-86673773D01*
X107269235Y-86697572D01*
X107260970Y-86720671D01*
X107250480Y-86742850D01*
X107237868Y-86763893D01*
X107223253Y-86783599D01*
X107206777Y-86801777D01*
X107188599Y-86818253D01*
X107168893Y-86832868D01*
X107147850Y-86845480D01*
X107125671Y-86855970D01*
X107102572Y-86864235D01*
X107078773Y-86870196D01*
X107054505Y-86873796D01*
X107030001Y-86875000D01*
X106129999Y-86875000D01*
X106105495Y-86873796D01*
X106081227Y-86870196D01*
X106057428Y-86864235D01*
X106034329Y-86855970D01*
X106012150Y-86845480D01*
X105991107Y-86832868D01*
X105971401Y-86818253D01*
X105953223Y-86801777D01*
X105936747Y-86783599D01*
X105922132Y-86763893D01*
X105909520Y-86742850D01*
X105899030Y-86720671D01*
X105890765Y-86697572D01*
X105884804Y-86673773D01*
X105881204Y-86649505D01*
X105880000Y-86625001D01*
X105880000Y-85974999D01*
X105881204Y-85950495D01*
X105884804Y-85926227D01*
X105890765Y-85902428D01*
X105899030Y-85879329D01*
X105909520Y-85857150D01*
X105922132Y-85836107D01*
X105936747Y-85816401D01*
X105953223Y-85798223D01*
X105971401Y-85781747D01*
X105991107Y-85767132D01*
X106012150Y-85754520D01*
X106034329Y-85744030D01*
X106057428Y-85735765D01*
X106081227Y-85729804D01*
X106105495Y-85726204D01*
X106129999Y-85725000D01*
X107030001Y-85725000D01*
X107054505Y-85726204D01*
X107054505Y-85726204D01*
G37*
D11*
X106580000Y-86300000D03*
D10*
G36*
X107054505Y-87776204D02*
G01*
X107078773Y-87779804D01*
X107102572Y-87785765D01*
X107125671Y-87794030D01*
X107147850Y-87804520D01*
X107168893Y-87817132D01*
X107188599Y-87831747D01*
X107206777Y-87848223D01*
X107223253Y-87866401D01*
X107237868Y-87886107D01*
X107250480Y-87907150D01*
X107260970Y-87929329D01*
X107269235Y-87952428D01*
X107275196Y-87976227D01*
X107278796Y-88000495D01*
X107280000Y-88024999D01*
X107280000Y-88675001D01*
X107278796Y-88699505D01*
X107275196Y-88723773D01*
X107269235Y-88747572D01*
X107260970Y-88770671D01*
X107250480Y-88792850D01*
X107237868Y-88813893D01*
X107223253Y-88833599D01*
X107206777Y-88851777D01*
X107188599Y-88868253D01*
X107168893Y-88882868D01*
X107147850Y-88895480D01*
X107125671Y-88905970D01*
X107102572Y-88914235D01*
X107078773Y-88920196D01*
X107054505Y-88923796D01*
X107030001Y-88925000D01*
X106129999Y-88925000D01*
X106105495Y-88923796D01*
X106081227Y-88920196D01*
X106057428Y-88914235D01*
X106034329Y-88905970D01*
X106012150Y-88895480D01*
X105991107Y-88882868D01*
X105971401Y-88868253D01*
X105953223Y-88851777D01*
X105936747Y-88833599D01*
X105922132Y-88813893D01*
X105909520Y-88792850D01*
X105899030Y-88770671D01*
X105890765Y-88747572D01*
X105884804Y-88723773D01*
X105881204Y-88699505D01*
X105880000Y-88675001D01*
X105880000Y-88024999D01*
X105881204Y-88000495D01*
X105884804Y-87976227D01*
X105890765Y-87952428D01*
X105899030Y-87929329D01*
X105909520Y-87907150D01*
X105922132Y-87886107D01*
X105936747Y-87866401D01*
X105953223Y-87848223D01*
X105971401Y-87831747D01*
X105991107Y-87817132D01*
X106012150Y-87804520D01*
X106034329Y-87794030D01*
X106057428Y-87785765D01*
X106081227Y-87779804D01*
X106105495Y-87776204D01*
X106129999Y-87775000D01*
X107030001Y-87775000D01*
X107054505Y-87776204D01*
X107054505Y-87776204D01*
G37*
D11*
X106580000Y-88350000D03*
D12*
X150500000Y-112725000D03*
D13*
X158000000Y-105225000D03*
X156730000Y-105225000D03*
X155460000Y-105225000D03*
X154190000Y-105225000D03*
X152920000Y-105225000D03*
X151650000Y-105225000D03*
X150380000Y-105225000D03*
X149110000Y-105225000D03*
X147840000Y-105225000D03*
X146570000Y-105225000D03*
X145300000Y-105225000D03*
X144030000Y-105225000D03*
X142760000Y-105225000D03*
X141490000Y-105225000D03*
D14*
X140490000Y-108010000D03*
X140490000Y-109280000D03*
X140490000Y-110550000D03*
X140490000Y-111820000D03*
X140490000Y-113090000D03*
X140490000Y-114360000D03*
X140490000Y-115630000D03*
X140490000Y-116900000D03*
X140490000Y-118170000D03*
X140490000Y-119440000D03*
D13*
X141490000Y-122225000D03*
X142760000Y-122225000D03*
X144030000Y-122225000D03*
X145300000Y-122225000D03*
X146570000Y-122225000D03*
X147840000Y-122225000D03*
X149110000Y-122225000D03*
X150380000Y-122225000D03*
X151650000Y-122225000D03*
X152920000Y-122225000D03*
X154190000Y-122225000D03*
X155460000Y-122225000D03*
X156730000Y-122225000D03*
X158000000Y-122225000D03*
D10*
G36*
X134854505Y-106856204D02*
G01*
X134878773Y-106859804D01*
X134902572Y-106865765D01*
X134925671Y-106874030D01*
X134947850Y-106884520D01*
X134968893Y-106897132D01*
X134988599Y-106911747D01*
X135006777Y-106928223D01*
X135023253Y-106946401D01*
X135037868Y-106966107D01*
X135050480Y-106987150D01*
X135060970Y-107009329D01*
X135069235Y-107032428D01*
X135075196Y-107056227D01*
X135078796Y-107080495D01*
X135080000Y-107104999D01*
X135080000Y-107755001D01*
X135078796Y-107779505D01*
X135075196Y-107803773D01*
X135069235Y-107827572D01*
X135060970Y-107850671D01*
X135050480Y-107872850D01*
X135037868Y-107893893D01*
X135023253Y-107913599D01*
X135006777Y-107931777D01*
X134988599Y-107948253D01*
X134968893Y-107962868D01*
X134947850Y-107975480D01*
X134925671Y-107985970D01*
X134902572Y-107994235D01*
X134878773Y-108000196D01*
X134854505Y-108003796D01*
X134830001Y-108005000D01*
X133929999Y-108005000D01*
X133905495Y-108003796D01*
X133881227Y-108000196D01*
X133857428Y-107994235D01*
X133834329Y-107985970D01*
X133812150Y-107975480D01*
X133791107Y-107962868D01*
X133771401Y-107948253D01*
X133753223Y-107931777D01*
X133736747Y-107913599D01*
X133722132Y-107893893D01*
X133709520Y-107872850D01*
X133699030Y-107850671D01*
X133690765Y-107827572D01*
X133684804Y-107803773D01*
X133681204Y-107779505D01*
X133680000Y-107755001D01*
X133680000Y-107104999D01*
X133681204Y-107080495D01*
X133684804Y-107056227D01*
X133690765Y-107032428D01*
X133699030Y-107009329D01*
X133709520Y-106987150D01*
X133722132Y-106966107D01*
X133736747Y-106946401D01*
X133753223Y-106928223D01*
X133771401Y-106911747D01*
X133791107Y-106897132D01*
X133812150Y-106884520D01*
X133834329Y-106874030D01*
X133857428Y-106865765D01*
X133881227Y-106859804D01*
X133905495Y-106856204D01*
X133929999Y-106855000D01*
X134830001Y-106855000D01*
X134854505Y-106856204D01*
X134854505Y-106856204D01*
G37*
D11*
X134380000Y-107430000D03*
D10*
G36*
X134854505Y-104806204D02*
G01*
X134878773Y-104809804D01*
X134902572Y-104815765D01*
X134925671Y-104824030D01*
X134947850Y-104834520D01*
X134968893Y-104847132D01*
X134988599Y-104861747D01*
X135006777Y-104878223D01*
X135023253Y-104896401D01*
X135037868Y-104916107D01*
X135050480Y-104937150D01*
X135060970Y-104959329D01*
X135069235Y-104982428D01*
X135075196Y-105006227D01*
X135078796Y-105030495D01*
X135080000Y-105054999D01*
X135080000Y-105705001D01*
X135078796Y-105729505D01*
X135075196Y-105753773D01*
X135069235Y-105777572D01*
X135060970Y-105800671D01*
X135050480Y-105822850D01*
X135037868Y-105843893D01*
X135023253Y-105863599D01*
X135006777Y-105881777D01*
X134988599Y-105898253D01*
X134968893Y-105912868D01*
X134947850Y-105925480D01*
X134925671Y-105935970D01*
X134902572Y-105944235D01*
X134878773Y-105950196D01*
X134854505Y-105953796D01*
X134830001Y-105955000D01*
X133929999Y-105955000D01*
X133905495Y-105953796D01*
X133881227Y-105950196D01*
X133857428Y-105944235D01*
X133834329Y-105935970D01*
X133812150Y-105925480D01*
X133791107Y-105912868D01*
X133771401Y-105898253D01*
X133753223Y-105881777D01*
X133736747Y-105863599D01*
X133722132Y-105843893D01*
X133709520Y-105822850D01*
X133699030Y-105800671D01*
X133690765Y-105777572D01*
X133684804Y-105753773D01*
X133681204Y-105729505D01*
X133680000Y-105705001D01*
X133680000Y-105054999D01*
X133681204Y-105030495D01*
X133684804Y-105006227D01*
X133690765Y-104982428D01*
X133699030Y-104959329D01*
X133709520Y-104937150D01*
X133722132Y-104916107D01*
X133736747Y-104896401D01*
X133753223Y-104878223D01*
X133771401Y-104861747D01*
X133791107Y-104847132D01*
X133812150Y-104834520D01*
X133834329Y-104824030D01*
X133857428Y-104815765D01*
X133881227Y-104809804D01*
X133905495Y-104806204D01*
X133929999Y-104805000D01*
X134830001Y-104805000D01*
X134854505Y-104806204D01*
X134854505Y-104806204D01*
G37*
D11*
X134380000Y-105380000D03*
D10*
G36*
X134854505Y-100666204D02*
G01*
X134878773Y-100669804D01*
X134902572Y-100675765D01*
X134925671Y-100684030D01*
X134947850Y-100694520D01*
X134968893Y-100707132D01*
X134988599Y-100721747D01*
X135006777Y-100738223D01*
X135023253Y-100756401D01*
X135037868Y-100776107D01*
X135050480Y-100797150D01*
X135060970Y-100819329D01*
X135069235Y-100842428D01*
X135075196Y-100866227D01*
X135078796Y-100890495D01*
X135080000Y-100914999D01*
X135080000Y-101565001D01*
X135078796Y-101589505D01*
X135075196Y-101613773D01*
X135069235Y-101637572D01*
X135060970Y-101660671D01*
X135050480Y-101682850D01*
X135037868Y-101703893D01*
X135023253Y-101723599D01*
X135006777Y-101741777D01*
X134988599Y-101758253D01*
X134968893Y-101772868D01*
X134947850Y-101785480D01*
X134925671Y-101795970D01*
X134902572Y-101804235D01*
X134878773Y-101810196D01*
X134854505Y-101813796D01*
X134830001Y-101815000D01*
X133929999Y-101815000D01*
X133905495Y-101813796D01*
X133881227Y-101810196D01*
X133857428Y-101804235D01*
X133834329Y-101795970D01*
X133812150Y-101785480D01*
X133791107Y-101772868D01*
X133771401Y-101758253D01*
X133753223Y-101741777D01*
X133736747Y-101723599D01*
X133722132Y-101703893D01*
X133709520Y-101682850D01*
X133699030Y-101660671D01*
X133690765Y-101637572D01*
X133684804Y-101613773D01*
X133681204Y-101589505D01*
X133680000Y-101565001D01*
X133680000Y-100914999D01*
X133681204Y-100890495D01*
X133684804Y-100866227D01*
X133690765Y-100842428D01*
X133699030Y-100819329D01*
X133709520Y-100797150D01*
X133722132Y-100776107D01*
X133736747Y-100756401D01*
X133753223Y-100738223D01*
X133771401Y-100721747D01*
X133791107Y-100707132D01*
X133812150Y-100694520D01*
X133834329Y-100684030D01*
X133857428Y-100675765D01*
X133881227Y-100669804D01*
X133905495Y-100666204D01*
X133929999Y-100665000D01*
X134830001Y-100665000D01*
X134854505Y-100666204D01*
X134854505Y-100666204D01*
G37*
D11*
X134380000Y-101240000D03*
D10*
G36*
X134854505Y-98616204D02*
G01*
X134878773Y-98619804D01*
X134902572Y-98625765D01*
X134925671Y-98634030D01*
X134947850Y-98644520D01*
X134968893Y-98657132D01*
X134988599Y-98671747D01*
X135006777Y-98688223D01*
X135023253Y-98706401D01*
X135037868Y-98726107D01*
X135050480Y-98747150D01*
X135060970Y-98769329D01*
X135069235Y-98792428D01*
X135075196Y-98816227D01*
X135078796Y-98840495D01*
X135080000Y-98864999D01*
X135080000Y-99515001D01*
X135078796Y-99539505D01*
X135075196Y-99563773D01*
X135069235Y-99587572D01*
X135060970Y-99610671D01*
X135050480Y-99632850D01*
X135037868Y-99653893D01*
X135023253Y-99673599D01*
X135006777Y-99691777D01*
X134988599Y-99708253D01*
X134968893Y-99722868D01*
X134947850Y-99735480D01*
X134925671Y-99745970D01*
X134902572Y-99754235D01*
X134878773Y-99760196D01*
X134854505Y-99763796D01*
X134830001Y-99765000D01*
X133929999Y-99765000D01*
X133905495Y-99763796D01*
X133881227Y-99760196D01*
X133857428Y-99754235D01*
X133834329Y-99745970D01*
X133812150Y-99735480D01*
X133791107Y-99722868D01*
X133771401Y-99708253D01*
X133753223Y-99691777D01*
X133736747Y-99673599D01*
X133722132Y-99653893D01*
X133709520Y-99632850D01*
X133699030Y-99610671D01*
X133690765Y-99587572D01*
X133684804Y-99563773D01*
X133681204Y-99539505D01*
X133680000Y-99515001D01*
X133680000Y-98864999D01*
X133681204Y-98840495D01*
X133684804Y-98816227D01*
X133690765Y-98792428D01*
X133699030Y-98769329D01*
X133709520Y-98747150D01*
X133722132Y-98726107D01*
X133736747Y-98706401D01*
X133753223Y-98688223D01*
X133771401Y-98671747D01*
X133791107Y-98657132D01*
X133812150Y-98644520D01*
X133834329Y-98634030D01*
X133857428Y-98625765D01*
X133881227Y-98619804D01*
X133905495Y-98616204D01*
X133929999Y-98615000D01*
X134830001Y-98615000D01*
X134854505Y-98616204D01*
X134854505Y-98616204D01*
G37*
D11*
X134380000Y-99190000D03*
D15*
X128580000Y-129535000D03*
X128580000Y-132935000D03*
D10*
G36*
X117444505Y-107146204D02*
G01*
X117468773Y-107149804D01*
X117492572Y-107155765D01*
X117515671Y-107164030D01*
X117537850Y-107174520D01*
X117558893Y-107187132D01*
X117578599Y-107201747D01*
X117596777Y-107218223D01*
X117613253Y-107236401D01*
X117627868Y-107256107D01*
X117640480Y-107277150D01*
X117650970Y-107299329D01*
X117659235Y-107322428D01*
X117665196Y-107346227D01*
X117668796Y-107370495D01*
X117670000Y-107394999D01*
X117670000Y-108045001D01*
X117668796Y-108069505D01*
X117665196Y-108093773D01*
X117659235Y-108117572D01*
X117650970Y-108140671D01*
X117640480Y-108162850D01*
X117627868Y-108183893D01*
X117613253Y-108203599D01*
X117596777Y-108221777D01*
X117578599Y-108238253D01*
X117558893Y-108252868D01*
X117537850Y-108265480D01*
X117515671Y-108275970D01*
X117492572Y-108284235D01*
X117468773Y-108290196D01*
X117444505Y-108293796D01*
X117420001Y-108295000D01*
X116519999Y-108295000D01*
X116495495Y-108293796D01*
X116471227Y-108290196D01*
X116447428Y-108284235D01*
X116424329Y-108275970D01*
X116402150Y-108265480D01*
X116381107Y-108252868D01*
X116361401Y-108238253D01*
X116343223Y-108221777D01*
X116326747Y-108203599D01*
X116312132Y-108183893D01*
X116299520Y-108162850D01*
X116289030Y-108140671D01*
X116280765Y-108117572D01*
X116274804Y-108093773D01*
X116271204Y-108069505D01*
X116270000Y-108045001D01*
X116270000Y-107394999D01*
X116271204Y-107370495D01*
X116274804Y-107346227D01*
X116280765Y-107322428D01*
X116289030Y-107299329D01*
X116299520Y-107277150D01*
X116312132Y-107256107D01*
X116326747Y-107236401D01*
X116343223Y-107218223D01*
X116361401Y-107201747D01*
X116381107Y-107187132D01*
X116402150Y-107174520D01*
X116424329Y-107164030D01*
X116447428Y-107155765D01*
X116471227Y-107149804D01*
X116495495Y-107146204D01*
X116519999Y-107145000D01*
X117420001Y-107145000D01*
X117444505Y-107146204D01*
X117444505Y-107146204D01*
G37*
D11*
X116970000Y-107720000D03*
D10*
G36*
X117444505Y-105096204D02*
G01*
X117468773Y-105099804D01*
X117492572Y-105105765D01*
X117515671Y-105114030D01*
X117537850Y-105124520D01*
X117558893Y-105137132D01*
X117578599Y-105151747D01*
X117596777Y-105168223D01*
X117613253Y-105186401D01*
X117627868Y-105206107D01*
X117640480Y-105227150D01*
X117650970Y-105249329D01*
X117659235Y-105272428D01*
X117665196Y-105296227D01*
X117668796Y-105320495D01*
X117670000Y-105344999D01*
X117670000Y-105995001D01*
X117668796Y-106019505D01*
X117665196Y-106043773D01*
X117659235Y-106067572D01*
X117650970Y-106090671D01*
X117640480Y-106112850D01*
X117627868Y-106133893D01*
X117613253Y-106153599D01*
X117596777Y-106171777D01*
X117578599Y-106188253D01*
X117558893Y-106202868D01*
X117537850Y-106215480D01*
X117515671Y-106225970D01*
X117492572Y-106234235D01*
X117468773Y-106240196D01*
X117444505Y-106243796D01*
X117420001Y-106245000D01*
X116519999Y-106245000D01*
X116495495Y-106243796D01*
X116471227Y-106240196D01*
X116447428Y-106234235D01*
X116424329Y-106225970D01*
X116402150Y-106215480D01*
X116381107Y-106202868D01*
X116361401Y-106188253D01*
X116343223Y-106171777D01*
X116326747Y-106153599D01*
X116312132Y-106133893D01*
X116299520Y-106112850D01*
X116289030Y-106090671D01*
X116280765Y-106067572D01*
X116274804Y-106043773D01*
X116271204Y-106019505D01*
X116270000Y-105995001D01*
X116270000Y-105344999D01*
X116271204Y-105320495D01*
X116274804Y-105296227D01*
X116280765Y-105272428D01*
X116289030Y-105249329D01*
X116299520Y-105227150D01*
X116312132Y-105206107D01*
X116326747Y-105186401D01*
X116343223Y-105168223D01*
X116361401Y-105151747D01*
X116381107Y-105137132D01*
X116402150Y-105124520D01*
X116424329Y-105114030D01*
X116447428Y-105105765D01*
X116471227Y-105099804D01*
X116495495Y-105096204D01*
X116519999Y-105095000D01*
X117420001Y-105095000D01*
X117444505Y-105096204D01*
X117444505Y-105096204D01*
G37*
D11*
X116970000Y-105670000D03*
D10*
G36*
X109194505Y-107146204D02*
G01*
X109218773Y-107149804D01*
X109242572Y-107155765D01*
X109265671Y-107164030D01*
X109287850Y-107174520D01*
X109308893Y-107187132D01*
X109328599Y-107201747D01*
X109346777Y-107218223D01*
X109363253Y-107236401D01*
X109377868Y-107256107D01*
X109390480Y-107277150D01*
X109400970Y-107299329D01*
X109409235Y-107322428D01*
X109415196Y-107346227D01*
X109418796Y-107370495D01*
X109420000Y-107394999D01*
X109420000Y-108045001D01*
X109418796Y-108069505D01*
X109415196Y-108093773D01*
X109409235Y-108117572D01*
X109400970Y-108140671D01*
X109390480Y-108162850D01*
X109377868Y-108183893D01*
X109363253Y-108203599D01*
X109346777Y-108221777D01*
X109328599Y-108238253D01*
X109308893Y-108252868D01*
X109287850Y-108265480D01*
X109265671Y-108275970D01*
X109242572Y-108284235D01*
X109218773Y-108290196D01*
X109194505Y-108293796D01*
X109170001Y-108295000D01*
X108269999Y-108295000D01*
X108245495Y-108293796D01*
X108221227Y-108290196D01*
X108197428Y-108284235D01*
X108174329Y-108275970D01*
X108152150Y-108265480D01*
X108131107Y-108252868D01*
X108111401Y-108238253D01*
X108093223Y-108221777D01*
X108076747Y-108203599D01*
X108062132Y-108183893D01*
X108049520Y-108162850D01*
X108039030Y-108140671D01*
X108030765Y-108117572D01*
X108024804Y-108093773D01*
X108021204Y-108069505D01*
X108020000Y-108045001D01*
X108020000Y-107394999D01*
X108021204Y-107370495D01*
X108024804Y-107346227D01*
X108030765Y-107322428D01*
X108039030Y-107299329D01*
X108049520Y-107277150D01*
X108062132Y-107256107D01*
X108076747Y-107236401D01*
X108093223Y-107218223D01*
X108111401Y-107201747D01*
X108131107Y-107187132D01*
X108152150Y-107174520D01*
X108174329Y-107164030D01*
X108197428Y-107155765D01*
X108221227Y-107149804D01*
X108245495Y-107146204D01*
X108269999Y-107145000D01*
X109170001Y-107145000D01*
X109194505Y-107146204D01*
X109194505Y-107146204D01*
G37*
D11*
X108720000Y-107720000D03*
D10*
G36*
X109194505Y-105096204D02*
G01*
X109218773Y-105099804D01*
X109242572Y-105105765D01*
X109265671Y-105114030D01*
X109287850Y-105124520D01*
X109308893Y-105137132D01*
X109328599Y-105151747D01*
X109346777Y-105168223D01*
X109363253Y-105186401D01*
X109377868Y-105206107D01*
X109390480Y-105227150D01*
X109400970Y-105249329D01*
X109409235Y-105272428D01*
X109415196Y-105296227D01*
X109418796Y-105320495D01*
X109420000Y-105344999D01*
X109420000Y-105995001D01*
X109418796Y-106019505D01*
X109415196Y-106043773D01*
X109409235Y-106067572D01*
X109400970Y-106090671D01*
X109390480Y-106112850D01*
X109377868Y-106133893D01*
X109363253Y-106153599D01*
X109346777Y-106171777D01*
X109328599Y-106188253D01*
X109308893Y-106202868D01*
X109287850Y-106215480D01*
X109265671Y-106225970D01*
X109242572Y-106234235D01*
X109218773Y-106240196D01*
X109194505Y-106243796D01*
X109170001Y-106245000D01*
X108269999Y-106245000D01*
X108245495Y-106243796D01*
X108221227Y-106240196D01*
X108197428Y-106234235D01*
X108174329Y-106225970D01*
X108152150Y-106215480D01*
X108131107Y-106202868D01*
X108111401Y-106188253D01*
X108093223Y-106171777D01*
X108076747Y-106153599D01*
X108062132Y-106133893D01*
X108049520Y-106112850D01*
X108039030Y-106090671D01*
X108030765Y-106067572D01*
X108024804Y-106043773D01*
X108021204Y-106019505D01*
X108020000Y-105995001D01*
X108020000Y-105344999D01*
X108021204Y-105320495D01*
X108024804Y-105296227D01*
X108030765Y-105272428D01*
X108039030Y-105249329D01*
X108049520Y-105227150D01*
X108062132Y-105206107D01*
X108076747Y-105186401D01*
X108093223Y-105168223D01*
X108111401Y-105151747D01*
X108131107Y-105137132D01*
X108152150Y-105124520D01*
X108174329Y-105114030D01*
X108197428Y-105105765D01*
X108221227Y-105099804D01*
X108245495Y-105096204D01*
X108269999Y-105095000D01*
X109170001Y-105095000D01*
X109194505Y-105096204D01*
X109194505Y-105096204D01*
G37*
D11*
X108720000Y-105670000D03*
D10*
G36*
X129054505Y-98616204D02*
G01*
X129078773Y-98619804D01*
X129102572Y-98625765D01*
X129125671Y-98634030D01*
X129147850Y-98644520D01*
X129168893Y-98657132D01*
X129188599Y-98671747D01*
X129206777Y-98688223D01*
X129223253Y-98706401D01*
X129237868Y-98726107D01*
X129250480Y-98747150D01*
X129260970Y-98769329D01*
X129269235Y-98792428D01*
X129275196Y-98816227D01*
X129278796Y-98840495D01*
X129280000Y-98864999D01*
X129280000Y-99515001D01*
X129278796Y-99539505D01*
X129275196Y-99563773D01*
X129269235Y-99587572D01*
X129260970Y-99610671D01*
X129250480Y-99632850D01*
X129237868Y-99653893D01*
X129223253Y-99673599D01*
X129206777Y-99691777D01*
X129188599Y-99708253D01*
X129168893Y-99722868D01*
X129147850Y-99735480D01*
X129125671Y-99745970D01*
X129102572Y-99754235D01*
X129078773Y-99760196D01*
X129054505Y-99763796D01*
X129030001Y-99765000D01*
X128129999Y-99765000D01*
X128105495Y-99763796D01*
X128081227Y-99760196D01*
X128057428Y-99754235D01*
X128034329Y-99745970D01*
X128012150Y-99735480D01*
X127991107Y-99722868D01*
X127971401Y-99708253D01*
X127953223Y-99691777D01*
X127936747Y-99673599D01*
X127922132Y-99653893D01*
X127909520Y-99632850D01*
X127899030Y-99610671D01*
X127890765Y-99587572D01*
X127884804Y-99563773D01*
X127881204Y-99539505D01*
X127880000Y-99515001D01*
X127880000Y-98864999D01*
X127881204Y-98840495D01*
X127884804Y-98816227D01*
X127890765Y-98792428D01*
X127899030Y-98769329D01*
X127909520Y-98747150D01*
X127922132Y-98726107D01*
X127936747Y-98706401D01*
X127953223Y-98688223D01*
X127971401Y-98671747D01*
X127991107Y-98657132D01*
X128012150Y-98644520D01*
X128034329Y-98634030D01*
X128057428Y-98625765D01*
X128081227Y-98619804D01*
X128105495Y-98616204D01*
X128129999Y-98615000D01*
X129030001Y-98615000D01*
X129054505Y-98616204D01*
X129054505Y-98616204D01*
G37*
D11*
X128580000Y-99190000D03*
D10*
G36*
X129054505Y-100666204D02*
G01*
X129078773Y-100669804D01*
X129102572Y-100675765D01*
X129125671Y-100684030D01*
X129147850Y-100694520D01*
X129168893Y-100707132D01*
X129188599Y-100721747D01*
X129206777Y-100738223D01*
X129223253Y-100756401D01*
X129237868Y-100776107D01*
X129250480Y-100797150D01*
X129260970Y-100819329D01*
X129269235Y-100842428D01*
X129275196Y-100866227D01*
X129278796Y-100890495D01*
X129280000Y-100914999D01*
X129280000Y-101565001D01*
X129278796Y-101589505D01*
X129275196Y-101613773D01*
X129269235Y-101637572D01*
X129260970Y-101660671D01*
X129250480Y-101682850D01*
X129237868Y-101703893D01*
X129223253Y-101723599D01*
X129206777Y-101741777D01*
X129188599Y-101758253D01*
X129168893Y-101772868D01*
X129147850Y-101785480D01*
X129125671Y-101795970D01*
X129102572Y-101804235D01*
X129078773Y-101810196D01*
X129054505Y-101813796D01*
X129030001Y-101815000D01*
X128129999Y-101815000D01*
X128105495Y-101813796D01*
X128081227Y-101810196D01*
X128057428Y-101804235D01*
X128034329Y-101795970D01*
X128012150Y-101785480D01*
X127991107Y-101772868D01*
X127971401Y-101758253D01*
X127953223Y-101741777D01*
X127936747Y-101723599D01*
X127922132Y-101703893D01*
X127909520Y-101682850D01*
X127899030Y-101660671D01*
X127890765Y-101637572D01*
X127884804Y-101613773D01*
X127881204Y-101589505D01*
X127880000Y-101565001D01*
X127880000Y-100914999D01*
X127881204Y-100890495D01*
X127884804Y-100866227D01*
X127890765Y-100842428D01*
X127899030Y-100819329D01*
X127909520Y-100797150D01*
X127922132Y-100776107D01*
X127936747Y-100756401D01*
X127953223Y-100738223D01*
X127971401Y-100721747D01*
X127991107Y-100707132D01*
X128012150Y-100694520D01*
X128034329Y-100684030D01*
X128057428Y-100675765D01*
X128081227Y-100669804D01*
X128105495Y-100666204D01*
X128129999Y-100665000D01*
X129030001Y-100665000D01*
X129054505Y-100666204D01*
X129054505Y-100666204D01*
G37*
D11*
X128580000Y-101240000D03*
D10*
G36*
X100844505Y-112461204D02*
G01*
X100868773Y-112464804D01*
X100892572Y-112470765D01*
X100915671Y-112479030D01*
X100937850Y-112489520D01*
X100958893Y-112502132D01*
X100978599Y-112516747D01*
X100996777Y-112533223D01*
X101013253Y-112551401D01*
X101027868Y-112571107D01*
X101040480Y-112592150D01*
X101050970Y-112614329D01*
X101059235Y-112637428D01*
X101065196Y-112661227D01*
X101068796Y-112685495D01*
X101070000Y-112709999D01*
X101070000Y-113360001D01*
X101068796Y-113384505D01*
X101065196Y-113408773D01*
X101059235Y-113432572D01*
X101050970Y-113455671D01*
X101040480Y-113477850D01*
X101027868Y-113498893D01*
X101013253Y-113518599D01*
X100996777Y-113536777D01*
X100978599Y-113553253D01*
X100958893Y-113567868D01*
X100937850Y-113580480D01*
X100915671Y-113590970D01*
X100892572Y-113599235D01*
X100868773Y-113605196D01*
X100844505Y-113608796D01*
X100820001Y-113610000D01*
X99919999Y-113610000D01*
X99895495Y-113608796D01*
X99871227Y-113605196D01*
X99847428Y-113599235D01*
X99824329Y-113590970D01*
X99802150Y-113580480D01*
X99781107Y-113567868D01*
X99761401Y-113553253D01*
X99743223Y-113536777D01*
X99726747Y-113518599D01*
X99712132Y-113498893D01*
X99699520Y-113477850D01*
X99689030Y-113455671D01*
X99680765Y-113432572D01*
X99674804Y-113408773D01*
X99671204Y-113384505D01*
X99670000Y-113360001D01*
X99670000Y-112709999D01*
X99671204Y-112685495D01*
X99674804Y-112661227D01*
X99680765Y-112637428D01*
X99689030Y-112614329D01*
X99699520Y-112592150D01*
X99712132Y-112571107D01*
X99726747Y-112551401D01*
X99743223Y-112533223D01*
X99761401Y-112516747D01*
X99781107Y-112502132D01*
X99802150Y-112489520D01*
X99824329Y-112479030D01*
X99847428Y-112470765D01*
X99871227Y-112464804D01*
X99895495Y-112461204D01*
X99919999Y-112460000D01*
X100820001Y-112460000D01*
X100844505Y-112461204D01*
X100844505Y-112461204D01*
G37*
D11*
X100370000Y-113035000D03*
D10*
G36*
X100844505Y-114511204D02*
G01*
X100868773Y-114514804D01*
X100892572Y-114520765D01*
X100915671Y-114529030D01*
X100937850Y-114539520D01*
X100958893Y-114552132D01*
X100978599Y-114566747D01*
X100996777Y-114583223D01*
X101013253Y-114601401D01*
X101027868Y-114621107D01*
X101040480Y-114642150D01*
X101050970Y-114664329D01*
X101059235Y-114687428D01*
X101065196Y-114711227D01*
X101068796Y-114735495D01*
X101070000Y-114759999D01*
X101070000Y-115410001D01*
X101068796Y-115434505D01*
X101065196Y-115458773D01*
X101059235Y-115482572D01*
X101050970Y-115505671D01*
X101040480Y-115527850D01*
X101027868Y-115548893D01*
X101013253Y-115568599D01*
X100996777Y-115586777D01*
X100978599Y-115603253D01*
X100958893Y-115617868D01*
X100937850Y-115630480D01*
X100915671Y-115640970D01*
X100892572Y-115649235D01*
X100868773Y-115655196D01*
X100844505Y-115658796D01*
X100820001Y-115660000D01*
X99919999Y-115660000D01*
X99895495Y-115658796D01*
X99871227Y-115655196D01*
X99847428Y-115649235D01*
X99824329Y-115640970D01*
X99802150Y-115630480D01*
X99781107Y-115617868D01*
X99761401Y-115603253D01*
X99743223Y-115586777D01*
X99726747Y-115568599D01*
X99712132Y-115548893D01*
X99699520Y-115527850D01*
X99689030Y-115505671D01*
X99680765Y-115482572D01*
X99674804Y-115458773D01*
X99671204Y-115434505D01*
X99670000Y-115410001D01*
X99670000Y-114759999D01*
X99671204Y-114735495D01*
X99674804Y-114711227D01*
X99680765Y-114687428D01*
X99689030Y-114664329D01*
X99699520Y-114642150D01*
X99712132Y-114621107D01*
X99726747Y-114601401D01*
X99743223Y-114583223D01*
X99761401Y-114566747D01*
X99781107Y-114552132D01*
X99802150Y-114539520D01*
X99824329Y-114529030D01*
X99847428Y-114520765D01*
X99871227Y-114514804D01*
X99895495Y-114511204D01*
X99919999Y-114510000D01*
X100820001Y-114510000D01*
X100844505Y-114511204D01*
X100844505Y-114511204D01*
G37*
D11*
X100370000Y-115085000D03*
D10*
G36*
X100864505Y-119141204D02*
G01*
X100888773Y-119144804D01*
X100912572Y-119150765D01*
X100935671Y-119159030D01*
X100957850Y-119169520D01*
X100978893Y-119182132D01*
X100998599Y-119196747D01*
X101016777Y-119213223D01*
X101033253Y-119231401D01*
X101047868Y-119251107D01*
X101060480Y-119272150D01*
X101070970Y-119294329D01*
X101079235Y-119317428D01*
X101085196Y-119341227D01*
X101088796Y-119365495D01*
X101090000Y-119389999D01*
X101090000Y-120040001D01*
X101088796Y-120064505D01*
X101085196Y-120088773D01*
X101079235Y-120112572D01*
X101070970Y-120135671D01*
X101060480Y-120157850D01*
X101047868Y-120178893D01*
X101033253Y-120198599D01*
X101016777Y-120216777D01*
X100998599Y-120233253D01*
X100978893Y-120247868D01*
X100957850Y-120260480D01*
X100935671Y-120270970D01*
X100912572Y-120279235D01*
X100888773Y-120285196D01*
X100864505Y-120288796D01*
X100840001Y-120290000D01*
X99939999Y-120290000D01*
X99915495Y-120288796D01*
X99891227Y-120285196D01*
X99867428Y-120279235D01*
X99844329Y-120270970D01*
X99822150Y-120260480D01*
X99801107Y-120247868D01*
X99781401Y-120233253D01*
X99763223Y-120216777D01*
X99746747Y-120198599D01*
X99732132Y-120178893D01*
X99719520Y-120157850D01*
X99709030Y-120135671D01*
X99700765Y-120112572D01*
X99694804Y-120088773D01*
X99691204Y-120064505D01*
X99690000Y-120040001D01*
X99690000Y-119389999D01*
X99691204Y-119365495D01*
X99694804Y-119341227D01*
X99700765Y-119317428D01*
X99709030Y-119294329D01*
X99719520Y-119272150D01*
X99732132Y-119251107D01*
X99746747Y-119231401D01*
X99763223Y-119213223D01*
X99781401Y-119196747D01*
X99801107Y-119182132D01*
X99822150Y-119169520D01*
X99844329Y-119159030D01*
X99867428Y-119150765D01*
X99891227Y-119144804D01*
X99915495Y-119141204D01*
X99939999Y-119140000D01*
X100840001Y-119140000D01*
X100864505Y-119141204D01*
X100864505Y-119141204D01*
G37*
D11*
X100390000Y-119715000D03*
D10*
G36*
X100864505Y-117091204D02*
G01*
X100888773Y-117094804D01*
X100912572Y-117100765D01*
X100935671Y-117109030D01*
X100957850Y-117119520D01*
X100978893Y-117132132D01*
X100998599Y-117146747D01*
X101016777Y-117163223D01*
X101033253Y-117181401D01*
X101047868Y-117201107D01*
X101060480Y-117222150D01*
X101070970Y-117244329D01*
X101079235Y-117267428D01*
X101085196Y-117291227D01*
X101088796Y-117315495D01*
X101090000Y-117339999D01*
X101090000Y-117990001D01*
X101088796Y-118014505D01*
X101085196Y-118038773D01*
X101079235Y-118062572D01*
X101070970Y-118085671D01*
X101060480Y-118107850D01*
X101047868Y-118128893D01*
X101033253Y-118148599D01*
X101016777Y-118166777D01*
X100998599Y-118183253D01*
X100978893Y-118197868D01*
X100957850Y-118210480D01*
X100935671Y-118220970D01*
X100912572Y-118229235D01*
X100888773Y-118235196D01*
X100864505Y-118238796D01*
X100840001Y-118240000D01*
X99939999Y-118240000D01*
X99915495Y-118238796D01*
X99891227Y-118235196D01*
X99867428Y-118229235D01*
X99844329Y-118220970D01*
X99822150Y-118210480D01*
X99801107Y-118197868D01*
X99781401Y-118183253D01*
X99763223Y-118166777D01*
X99746747Y-118148599D01*
X99732132Y-118128893D01*
X99719520Y-118107850D01*
X99709030Y-118085671D01*
X99700765Y-118062572D01*
X99694804Y-118038773D01*
X99691204Y-118014505D01*
X99690000Y-117990001D01*
X99690000Y-117339999D01*
X99691204Y-117315495D01*
X99694804Y-117291227D01*
X99700765Y-117267428D01*
X99709030Y-117244329D01*
X99719520Y-117222150D01*
X99732132Y-117201107D01*
X99746747Y-117181401D01*
X99763223Y-117163223D01*
X99781401Y-117146747D01*
X99801107Y-117132132D01*
X99822150Y-117119520D01*
X99844329Y-117109030D01*
X99867428Y-117100765D01*
X99891227Y-117094804D01*
X99915495Y-117091204D01*
X99939999Y-117090000D01*
X100840001Y-117090000D01*
X100864505Y-117091204D01*
X100864505Y-117091204D01*
G37*
D11*
X100390000Y-117665000D03*
D10*
G36*
X113444505Y-107146204D02*
G01*
X113468773Y-107149804D01*
X113492572Y-107155765D01*
X113515671Y-107164030D01*
X113537850Y-107174520D01*
X113558893Y-107187132D01*
X113578599Y-107201747D01*
X113596777Y-107218223D01*
X113613253Y-107236401D01*
X113627868Y-107256107D01*
X113640480Y-107277150D01*
X113650970Y-107299329D01*
X113659235Y-107322428D01*
X113665196Y-107346227D01*
X113668796Y-107370495D01*
X113670000Y-107394999D01*
X113670000Y-108045001D01*
X113668796Y-108069505D01*
X113665196Y-108093773D01*
X113659235Y-108117572D01*
X113650970Y-108140671D01*
X113640480Y-108162850D01*
X113627868Y-108183893D01*
X113613253Y-108203599D01*
X113596777Y-108221777D01*
X113578599Y-108238253D01*
X113558893Y-108252868D01*
X113537850Y-108265480D01*
X113515671Y-108275970D01*
X113492572Y-108284235D01*
X113468773Y-108290196D01*
X113444505Y-108293796D01*
X113420001Y-108295000D01*
X112519999Y-108295000D01*
X112495495Y-108293796D01*
X112471227Y-108290196D01*
X112447428Y-108284235D01*
X112424329Y-108275970D01*
X112402150Y-108265480D01*
X112381107Y-108252868D01*
X112361401Y-108238253D01*
X112343223Y-108221777D01*
X112326747Y-108203599D01*
X112312132Y-108183893D01*
X112299520Y-108162850D01*
X112289030Y-108140671D01*
X112280765Y-108117572D01*
X112274804Y-108093773D01*
X112271204Y-108069505D01*
X112270000Y-108045001D01*
X112270000Y-107394999D01*
X112271204Y-107370495D01*
X112274804Y-107346227D01*
X112280765Y-107322428D01*
X112289030Y-107299329D01*
X112299520Y-107277150D01*
X112312132Y-107256107D01*
X112326747Y-107236401D01*
X112343223Y-107218223D01*
X112361401Y-107201747D01*
X112381107Y-107187132D01*
X112402150Y-107174520D01*
X112424329Y-107164030D01*
X112447428Y-107155765D01*
X112471227Y-107149804D01*
X112495495Y-107146204D01*
X112519999Y-107145000D01*
X113420001Y-107145000D01*
X113444505Y-107146204D01*
X113444505Y-107146204D01*
G37*
D11*
X112970000Y-107720000D03*
D10*
G36*
X113444505Y-105096204D02*
G01*
X113468773Y-105099804D01*
X113492572Y-105105765D01*
X113515671Y-105114030D01*
X113537850Y-105124520D01*
X113558893Y-105137132D01*
X113578599Y-105151747D01*
X113596777Y-105168223D01*
X113613253Y-105186401D01*
X113627868Y-105206107D01*
X113640480Y-105227150D01*
X113650970Y-105249329D01*
X113659235Y-105272428D01*
X113665196Y-105296227D01*
X113668796Y-105320495D01*
X113670000Y-105344999D01*
X113670000Y-105995001D01*
X113668796Y-106019505D01*
X113665196Y-106043773D01*
X113659235Y-106067572D01*
X113650970Y-106090671D01*
X113640480Y-106112850D01*
X113627868Y-106133893D01*
X113613253Y-106153599D01*
X113596777Y-106171777D01*
X113578599Y-106188253D01*
X113558893Y-106202868D01*
X113537850Y-106215480D01*
X113515671Y-106225970D01*
X113492572Y-106234235D01*
X113468773Y-106240196D01*
X113444505Y-106243796D01*
X113420001Y-106245000D01*
X112519999Y-106245000D01*
X112495495Y-106243796D01*
X112471227Y-106240196D01*
X112447428Y-106234235D01*
X112424329Y-106225970D01*
X112402150Y-106215480D01*
X112381107Y-106202868D01*
X112361401Y-106188253D01*
X112343223Y-106171777D01*
X112326747Y-106153599D01*
X112312132Y-106133893D01*
X112299520Y-106112850D01*
X112289030Y-106090671D01*
X112280765Y-106067572D01*
X112274804Y-106043773D01*
X112271204Y-106019505D01*
X112270000Y-105995001D01*
X112270000Y-105344999D01*
X112271204Y-105320495D01*
X112274804Y-105296227D01*
X112280765Y-105272428D01*
X112289030Y-105249329D01*
X112299520Y-105227150D01*
X112312132Y-105206107D01*
X112326747Y-105186401D01*
X112343223Y-105168223D01*
X112361401Y-105151747D01*
X112381107Y-105137132D01*
X112402150Y-105124520D01*
X112424329Y-105114030D01*
X112447428Y-105105765D01*
X112471227Y-105099804D01*
X112495495Y-105096204D01*
X112519999Y-105095000D01*
X113420001Y-105095000D01*
X113444505Y-105096204D01*
X113444505Y-105096204D01*
G37*
D11*
X112970000Y-105670000D03*
D10*
G36*
X117444505Y-100736204D02*
G01*
X117468773Y-100739804D01*
X117492572Y-100745765D01*
X117515671Y-100754030D01*
X117537850Y-100764520D01*
X117558893Y-100777132D01*
X117578599Y-100791747D01*
X117596777Y-100808223D01*
X117613253Y-100826401D01*
X117627868Y-100846107D01*
X117640480Y-100867150D01*
X117650970Y-100889329D01*
X117659235Y-100912428D01*
X117665196Y-100936227D01*
X117668796Y-100960495D01*
X117670000Y-100984999D01*
X117670000Y-101635001D01*
X117668796Y-101659505D01*
X117665196Y-101683773D01*
X117659235Y-101707572D01*
X117650970Y-101730671D01*
X117640480Y-101752850D01*
X117627868Y-101773893D01*
X117613253Y-101793599D01*
X117596777Y-101811777D01*
X117578599Y-101828253D01*
X117558893Y-101842868D01*
X117537850Y-101855480D01*
X117515671Y-101865970D01*
X117492572Y-101874235D01*
X117468773Y-101880196D01*
X117444505Y-101883796D01*
X117420001Y-101885000D01*
X116519999Y-101885000D01*
X116495495Y-101883796D01*
X116471227Y-101880196D01*
X116447428Y-101874235D01*
X116424329Y-101865970D01*
X116402150Y-101855480D01*
X116381107Y-101842868D01*
X116361401Y-101828253D01*
X116343223Y-101811777D01*
X116326747Y-101793599D01*
X116312132Y-101773893D01*
X116299520Y-101752850D01*
X116289030Y-101730671D01*
X116280765Y-101707572D01*
X116274804Y-101683773D01*
X116271204Y-101659505D01*
X116270000Y-101635001D01*
X116270000Y-100984999D01*
X116271204Y-100960495D01*
X116274804Y-100936227D01*
X116280765Y-100912428D01*
X116289030Y-100889329D01*
X116299520Y-100867150D01*
X116312132Y-100846107D01*
X116326747Y-100826401D01*
X116343223Y-100808223D01*
X116361401Y-100791747D01*
X116381107Y-100777132D01*
X116402150Y-100764520D01*
X116424329Y-100754030D01*
X116447428Y-100745765D01*
X116471227Y-100739804D01*
X116495495Y-100736204D01*
X116519999Y-100735000D01*
X117420001Y-100735000D01*
X117444505Y-100736204D01*
X117444505Y-100736204D01*
G37*
D11*
X116970000Y-101310000D03*
D10*
G36*
X117444505Y-98686204D02*
G01*
X117468773Y-98689804D01*
X117492572Y-98695765D01*
X117515671Y-98704030D01*
X117537850Y-98714520D01*
X117558893Y-98727132D01*
X117578599Y-98741747D01*
X117596777Y-98758223D01*
X117613253Y-98776401D01*
X117627868Y-98796107D01*
X117640480Y-98817150D01*
X117650970Y-98839329D01*
X117659235Y-98862428D01*
X117665196Y-98886227D01*
X117668796Y-98910495D01*
X117670000Y-98934999D01*
X117670000Y-99585001D01*
X117668796Y-99609505D01*
X117665196Y-99633773D01*
X117659235Y-99657572D01*
X117650970Y-99680671D01*
X117640480Y-99702850D01*
X117627868Y-99723893D01*
X117613253Y-99743599D01*
X117596777Y-99761777D01*
X117578599Y-99778253D01*
X117558893Y-99792868D01*
X117537850Y-99805480D01*
X117515671Y-99815970D01*
X117492572Y-99824235D01*
X117468773Y-99830196D01*
X117444505Y-99833796D01*
X117420001Y-99835000D01*
X116519999Y-99835000D01*
X116495495Y-99833796D01*
X116471227Y-99830196D01*
X116447428Y-99824235D01*
X116424329Y-99815970D01*
X116402150Y-99805480D01*
X116381107Y-99792868D01*
X116361401Y-99778253D01*
X116343223Y-99761777D01*
X116326747Y-99743599D01*
X116312132Y-99723893D01*
X116299520Y-99702850D01*
X116289030Y-99680671D01*
X116280765Y-99657572D01*
X116274804Y-99633773D01*
X116271204Y-99609505D01*
X116270000Y-99585001D01*
X116270000Y-98934999D01*
X116271204Y-98910495D01*
X116274804Y-98886227D01*
X116280765Y-98862428D01*
X116289030Y-98839329D01*
X116299520Y-98817150D01*
X116312132Y-98796107D01*
X116326747Y-98776401D01*
X116343223Y-98758223D01*
X116361401Y-98741747D01*
X116381107Y-98727132D01*
X116402150Y-98714520D01*
X116424329Y-98704030D01*
X116447428Y-98695765D01*
X116471227Y-98689804D01*
X116495495Y-98686204D01*
X116519999Y-98685000D01*
X117420001Y-98685000D01*
X117444505Y-98686204D01*
X117444505Y-98686204D01*
G37*
D11*
X116970000Y-99260000D03*
D16*
X115030000Y-93785000D03*
D17*
X121830000Y-91505000D03*
X121830000Y-96065000D03*
D18*
X95210300Y-117664999D03*
X95210300Y-118465000D03*
D19*
X95210300Y-119115001D03*
X95210300Y-119615000D03*
X95210300Y-120114999D03*
X95210300Y-120615000D03*
X95210300Y-121115000D03*
X95210300Y-121615001D03*
X95210300Y-122115000D03*
X95210300Y-122614999D03*
D18*
X95210300Y-123265000D03*
X95210300Y-124064999D03*
D20*
X94640300Y-116545000D03*
X94640300Y-125185000D03*
D21*
X90460299Y-116545000D03*
X90460299Y-125185000D03*
D22*
X122780000Y-113025000D03*
X122780000Y-107625000D03*
D10*
G36*
X100864505Y-123491204D02*
G01*
X100888773Y-123494804D01*
X100912572Y-123500765D01*
X100935671Y-123509030D01*
X100957850Y-123519520D01*
X100978893Y-123532132D01*
X100998599Y-123546747D01*
X101016777Y-123563223D01*
X101033253Y-123581401D01*
X101047868Y-123601107D01*
X101060480Y-123622150D01*
X101070970Y-123644329D01*
X101079235Y-123667428D01*
X101085196Y-123691227D01*
X101088796Y-123715495D01*
X101090000Y-123739999D01*
X101090000Y-124390001D01*
X101088796Y-124414505D01*
X101085196Y-124438773D01*
X101079235Y-124462572D01*
X101070970Y-124485671D01*
X101060480Y-124507850D01*
X101047868Y-124528893D01*
X101033253Y-124548599D01*
X101016777Y-124566777D01*
X100998599Y-124583253D01*
X100978893Y-124597868D01*
X100957850Y-124610480D01*
X100935671Y-124620970D01*
X100912572Y-124629235D01*
X100888773Y-124635196D01*
X100864505Y-124638796D01*
X100840001Y-124640000D01*
X99939999Y-124640000D01*
X99915495Y-124638796D01*
X99891227Y-124635196D01*
X99867428Y-124629235D01*
X99844329Y-124620970D01*
X99822150Y-124610480D01*
X99801107Y-124597868D01*
X99781401Y-124583253D01*
X99763223Y-124566777D01*
X99746747Y-124548599D01*
X99732132Y-124528893D01*
X99719520Y-124507850D01*
X99709030Y-124485671D01*
X99700765Y-124462572D01*
X99694804Y-124438773D01*
X99691204Y-124414505D01*
X99690000Y-124390001D01*
X99690000Y-123739999D01*
X99691204Y-123715495D01*
X99694804Y-123691227D01*
X99700765Y-123667428D01*
X99709030Y-123644329D01*
X99719520Y-123622150D01*
X99732132Y-123601107D01*
X99746747Y-123581401D01*
X99763223Y-123563223D01*
X99781401Y-123546747D01*
X99801107Y-123532132D01*
X99822150Y-123519520D01*
X99844329Y-123509030D01*
X99867428Y-123500765D01*
X99891227Y-123494804D01*
X99915495Y-123491204D01*
X99939999Y-123490000D01*
X100840001Y-123490000D01*
X100864505Y-123491204D01*
X100864505Y-123491204D01*
G37*
D11*
X100390000Y-124065000D03*
D10*
G36*
X100864505Y-121441204D02*
G01*
X100888773Y-121444804D01*
X100912572Y-121450765D01*
X100935671Y-121459030D01*
X100957850Y-121469520D01*
X100978893Y-121482132D01*
X100998599Y-121496747D01*
X101016777Y-121513223D01*
X101033253Y-121531401D01*
X101047868Y-121551107D01*
X101060480Y-121572150D01*
X101070970Y-121594329D01*
X101079235Y-121617428D01*
X101085196Y-121641227D01*
X101088796Y-121665495D01*
X101090000Y-121689999D01*
X101090000Y-122340001D01*
X101088796Y-122364505D01*
X101085196Y-122388773D01*
X101079235Y-122412572D01*
X101070970Y-122435671D01*
X101060480Y-122457850D01*
X101047868Y-122478893D01*
X101033253Y-122498599D01*
X101016777Y-122516777D01*
X100998599Y-122533253D01*
X100978893Y-122547868D01*
X100957850Y-122560480D01*
X100935671Y-122570970D01*
X100912572Y-122579235D01*
X100888773Y-122585196D01*
X100864505Y-122588796D01*
X100840001Y-122590000D01*
X99939999Y-122590000D01*
X99915495Y-122588796D01*
X99891227Y-122585196D01*
X99867428Y-122579235D01*
X99844329Y-122570970D01*
X99822150Y-122560480D01*
X99801107Y-122547868D01*
X99781401Y-122533253D01*
X99763223Y-122516777D01*
X99746747Y-122498599D01*
X99732132Y-122478893D01*
X99719520Y-122457850D01*
X99709030Y-122435671D01*
X99700765Y-122412572D01*
X99694804Y-122388773D01*
X99691204Y-122364505D01*
X99690000Y-122340001D01*
X99690000Y-121689999D01*
X99691204Y-121665495D01*
X99694804Y-121641227D01*
X99700765Y-121617428D01*
X99709030Y-121594329D01*
X99719520Y-121572150D01*
X99732132Y-121551107D01*
X99746747Y-121531401D01*
X99763223Y-121513223D01*
X99781401Y-121496747D01*
X99801107Y-121482132D01*
X99822150Y-121469520D01*
X99844329Y-121459030D01*
X99867428Y-121450765D01*
X99891227Y-121444804D01*
X99915495Y-121441204D01*
X99939999Y-121440000D01*
X100840001Y-121440000D01*
X100864505Y-121441204D01*
X100864505Y-121441204D01*
G37*
D11*
X100390000Y-122015000D03*
D23*
X123880000Y-100285000D03*
X121680000Y-101235000D03*
X121680000Y-99335000D03*
D10*
G36*
X104944505Y-105096204D02*
G01*
X104968773Y-105099804D01*
X104992572Y-105105765D01*
X105015671Y-105114030D01*
X105037850Y-105124520D01*
X105058893Y-105137132D01*
X105078599Y-105151747D01*
X105096777Y-105168223D01*
X105113253Y-105186401D01*
X105127868Y-105206107D01*
X105140480Y-105227150D01*
X105150970Y-105249329D01*
X105159235Y-105272428D01*
X105165196Y-105296227D01*
X105168796Y-105320495D01*
X105170000Y-105344999D01*
X105170000Y-105995001D01*
X105168796Y-106019505D01*
X105165196Y-106043773D01*
X105159235Y-106067572D01*
X105150970Y-106090671D01*
X105140480Y-106112850D01*
X105127868Y-106133893D01*
X105113253Y-106153599D01*
X105096777Y-106171777D01*
X105078599Y-106188253D01*
X105058893Y-106202868D01*
X105037850Y-106215480D01*
X105015671Y-106225970D01*
X104992572Y-106234235D01*
X104968773Y-106240196D01*
X104944505Y-106243796D01*
X104920001Y-106245000D01*
X104019999Y-106245000D01*
X103995495Y-106243796D01*
X103971227Y-106240196D01*
X103947428Y-106234235D01*
X103924329Y-106225970D01*
X103902150Y-106215480D01*
X103881107Y-106202868D01*
X103861401Y-106188253D01*
X103843223Y-106171777D01*
X103826747Y-106153599D01*
X103812132Y-106133893D01*
X103799520Y-106112850D01*
X103789030Y-106090671D01*
X103780765Y-106067572D01*
X103774804Y-106043773D01*
X103771204Y-106019505D01*
X103770000Y-105995001D01*
X103770000Y-105344999D01*
X103771204Y-105320495D01*
X103774804Y-105296227D01*
X103780765Y-105272428D01*
X103789030Y-105249329D01*
X103799520Y-105227150D01*
X103812132Y-105206107D01*
X103826747Y-105186401D01*
X103843223Y-105168223D01*
X103861401Y-105151747D01*
X103881107Y-105137132D01*
X103902150Y-105124520D01*
X103924329Y-105114030D01*
X103947428Y-105105765D01*
X103971227Y-105099804D01*
X103995495Y-105096204D01*
X104019999Y-105095000D01*
X104920001Y-105095000D01*
X104944505Y-105096204D01*
X104944505Y-105096204D01*
G37*
D11*
X104470000Y-105670000D03*
D10*
G36*
X104944505Y-107146204D02*
G01*
X104968773Y-107149804D01*
X104992572Y-107155765D01*
X105015671Y-107164030D01*
X105037850Y-107174520D01*
X105058893Y-107187132D01*
X105078599Y-107201747D01*
X105096777Y-107218223D01*
X105113253Y-107236401D01*
X105127868Y-107256107D01*
X105140480Y-107277150D01*
X105150970Y-107299329D01*
X105159235Y-107322428D01*
X105165196Y-107346227D01*
X105168796Y-107370495D01*
X105170000Y-107394999D01*
X105170000Y-108045001D01*
X105168796Y-108069505D01*
X105165196Y-108093773D01*
X105159235Y-108117572D01*
X105150970Y-108140671D01*
X105140480Y-108162850D01*
X105127868Y-108183893D01*
X105113253Y-108203599D01*
X105096777Y-108221777D01*
X105078599Y-108238253D01*
X105058893Y-108252868D01*
X105037850Y-108265480D01*
X105015671Y-108275970D01*
X104992572Y-108284235D01*
X104968773Y-108290196D01*
X104944505Y-108293796D01*
X104920001Y-108295000D01*
X104019999Y-108295000D01*
X103995495Y-108293796D01*
X103971227Y-108290196D01*
X103947428Y-108284235D01*
X103924329Y-108275970D01*
X103902150Y-108265480D01*
X103881107Y-108252868D01*
X103861401Y-108238253D01*
X103843223Y-108221777D01*
X103826747Y-108203599D01*
X103812132Y-108183893D01*
X103799520Y-108162850D01*
X103789030Y-108140671D01*
X103780765Y-108117572D01*
X103774804Y-108093773D01*
X103771204Y-108069505D01*
X103770000Y-108045001D01*
X103770000Y-107394999D01*
X103771204Y-107370495D01*
X103774804Y-107346227D01*
X103780765Y-107322428D01*
X103789030Y-107299329D01*
X103799520Y-107277150D01*
X103812132Y-107256107D01*
X103826747Y-107236401D01*
X103843223Y-107218223D01*
X103861401Y-107201747D01*
X103881107Y-107187132D01*
X103902150Y-107174520D01*
X103924329Y-107164030D01*
X103947428Y-107155765D01*
X103971227Y-107149804D01*
X103995495Y-107146204D01*
X104019999Y-107145000D01*
X104920001Y-107145000D01*
X104944505Y-107146204D01*
X104944505Y-107146204D01*
G37*
D11*
X104470000Y-107720000D03*
D10*
G36*
X109654703Y-110970722D02*
G01*
X109669264Y-110972882D01*
X109683543Y-110976459D01*
X109697403Y-110981418D01*
X109710710Y-110987712D01*
X109723336Y-110995280D01*
X109735159Y-111004048D01*
X109746066Y-111013934D01*
X109755952Y-111024841D01*
X109764720Y-111036664D01*
X109772288Y-111049290D01*
X109778582Y-111062597D01*
X109783541Y-111076457D01*
X109787118Y-111090736D01*
X109789278Y-111105297D01*
X109790000Y-111120000D01*
X109790000Y-111420000D01*
X109789278Y-111434703D01*
X109787118Y-111449264D01*
X109783541Y-111463543D01*
X109778582Y-111477403D01*
X109772288Y-111490710D01*
X109764720Y-111503336D01*
X109755952Y-111515159D01*
X109746066Y-111526066D01*
X109735159Y-111535952D01*
X109723336Y-111544720D01*
X109710710Y-111552288D01*
X109697403Y-111558582D01*
X109683543Y-111563541D01*
X109669264Y-111567118D01*
X109654703Y-111569278D01*
X109640000Y-111570000D01*
X107990000Y-111570000D01*
X107975297Y-111569278D01*
X107960736Y-111567118D01*
X107946457Y-111563541D01*
X107932597Y-111558582D01*
X107919290Y-111552288D01*
X107906664Y-111544720D01*
X107894841Y-111535952D01*
X107883934Y-111526066D01*
X107874048Y-111515159D01*
X107865280Y-111503336D01*
X107857712Y-111490710D01*
X107851418Y-111477403D01*
X107846459Y-111463543D01*
X107842882Y-111449264D01*
X107840722Y-111434703D01*
X107840000Y-111420000D01*
X107840000Y-111120000D01*
X107840722Y-111105297D01*
X107842882Y-111090736D01*
X107846459Y-111076457D01*
X107851418Y-111062597D01*
X107857712Y-111049290D01*
X107865280Y-111036664D01*
X107874048Y-111024841D01*
X107883934Y-111013934D01*
X107894841Y-111004048D01*
X107906664Y-110995280D01*
X107919290Y-110987712D01*
X107932597Y-110981418D01*
X107946457Y-110976459D01*
X107960736Y-110972882D01*
X107975297Y-110970722D01*
X107990000Y-110970000D01*
X109640000Y-110970000D01*
X109654703Y-110970722D01*
X109654703Y-110970722D01*
G37*
D24*
X108815000Y-111270000D03*
D10*
G36*
X109654703Y-112240722D02*
G01*
X109669264Y-112242882D01*
X109683543Y-112246459D01*
X109697403Y-112251418D01*
X109710710Y-112257712D01*
X109723336Y-112265280D01*
X109735159Y-112274048D01*
X109746066Y-112283934D01*
X109755952Y-112294841D01*
X109764720Y-112306664D01*
X109772288Y-112319290D01*
X109778582Y-112332597D01*
X109783541Y-112346457D01*
X109787118Y-112360736D01*
X109789278Y-112375297D01*
X109790000Y-112390000D01*
X109790000Y-112690000D01*
X109789278Y-112704703D01*
X109787118Y-112719264D01*
X109783541Y-112733543D01*
X109778582Y-112747403D01*
X109772288Y-112760710D01*
X109764720Y-112773336D01*
X109755952Y-112785159D01*
X109746066Y-112796066D01*
X109735159Y-112805952D01*
X109723336Y-112814720D01*
X109710710Y-112822288D01*
X109697403Y-112828582D01*
X109683543Y-112833541D01*
X109669264Y-112837118D01*
X109654703Y-112839278D01*
X109640000Y-112840000D01*
X107990000Y-112840000D01*
X107975297Y-112839278D01*
X107960736Y-112837118D01*
X107946457Y-112833541D01*
X107932597Y-112828582D01*
X107919290Y-112822288D01*
X107906664Y-112814720D01*
X107894841Y-112805952D01*
X107883934Y-112796066D01*
X107874048Y-112785159D01*
X107865280Y-112773336D01*
X107857712Y-112760710D01*
X107851418Y-112747403D01*
X107846459Y-112733543D01*
X107842882Y-112719264D01*
X107840722Y-112704703D01*
X107840000Y-112690000D01*
X107840000Y-112390000D01*
X107840722Y-112375297D01*
X107842882Y-112360736D01*
X107846459Y-112346457D01*
X107851418Y-112332597D01*
X107857712Y-112319290D01*
X107865280Y-112306664D01*
X107874048Y-112294841D01*
X107883934Y-112283934D01*
X107894841Y-112274048D01*
X107906664Y-112265280D01*
X107919290Y-112257712D01*
X107932597Y-112251418D01*
X107946457Y-112246459D01*
X107960736Y-112242882D01*
X107975297Y-112240722D01*
X107990000Y-112240000D01*
X109640000Y-112240000D01*
X109654703Y-112240722D01*
X109654703Y-112240722D01*
G37*
D24*
X108815000Y-112540000D03*
D10*
G36*
X109654703Y-113510722D02*
G01*
X109669264Y-113512882D01*
X109683543Y-113516459D01*
X109697403Y-113521418D01*
X109710710Y-113527712D01*
X109723336Y-113535280D01*
X109735159Y-113544048D01*
X109746066Y-113553934D01*
X109755952Y-113564841D01*
X109764720Y-113576664D01*
X109772288Y-113589290D01*
X109778582Y-113602597D01*
X109783541Y-113616457D01*
X109787118Y-113630736D01*
X109789278Y-113645297D01*
X109790000Y-113660000D01*
X109790000Y-113960000D01*
X109789278Y-113974703D01*
X109787118Y-113989264D01*
X109783541Y-114003543D01*
X109778582Y-114017403D01*
X109772288Y-114030710D01*
X109764720Y-114043336D01*
X109755952Y-114055159D01*
X109746066Y-114066066D01*
X109735159Y-114075952D01*
X109723336Y-114084720D01*
X109710710Y-114092288D01*
X109697403Y-114098582D01*
X109683543Y-114103541D01*
X109669264Y-114107118D01*
X109654703Y-114109278D01*
X109640000Y-114110000D01*
X107990000Y-114110000D01*
X107975297Y-114109278D01*
X107960736Y-114107118D01*
X107946457Y-114103541D01*
X107932597Y-114098582D01*
X107919290Y-114092288D01*
X107906664Y-114084720D01*
X107894841Y-114075952D01*
X107883934Y-114066066D01*
X107874048Y-114055159D01*
X107865280Y-114043336D01*
X107857712Y-114030710D01*
X107851418Y-114017403D01*
X107846459Y-114003543D01*
X107842882Y-113989264D01*
X107840722Y-113974703D01*
X107840000Y-113960000D01*
X107840000Y-113660000D01*
X107840722Y-113645297D01*
X107842882Y-113630736D01*
X107846459Y-113616457D01*
X107851418Y-113602597D01*
X107857712Y-113589290D01*
X107865280Y-113576664D01*
X107874048Y-113564841D01*
X107883934Y-113553934D01*
X107894841Y-113544048D01*
X107906664Y-113535280D01*
X107919290Y-113527712D01*
X107932597Y-113521418D01*
X107946457Y-113516459D01*
X107960736Y-113512882D01*
X107975297Y-113510722D01*
X107990000Y-113510000D01*
X109640000Y-113510000D01*
X109654703Y-113510722D01*
X109654703Y-113510722D01*
G37*
D24*
X108815000Y-113810000D03*
D10*
G36*
X109654703Y-114780722D02*
G01*
X109669264Y-114782882D01*
X109683543Y-114786459D01*
X109697403Y-114791418D01*
X109710710Y-114797712D01*
X109723336Y-114805280D01*
X109735159Y-114814048D01*
X109746066Y-114823934D01*
X109755952Y-114834841D01*
X109764720Y-114846664D01*
X109772288Y-114859290D01*
X109778582Y-114872597D01*
X109783541Y-114886457D01*
X109787118Y-114900736D01*
X109789278Y-114915297D01*
X109790000Y-114930000D01*
X109790000Y-115230000D01*
X109789278Y-115244703D01*
X109787118Y-115259264D01*
X109783541Y-115273543D01*
X109778582Y-115287403D01*
X109772288Y-115300710D01*
X109764720Y-115313336D01*
X109755952Y-115325159D01*
X109746066Y-115336066D01*
X109735159Y-115345952D01*
X109723336Y-115354720D01*
X109710710Y-115362288D01*
X109697403Y-115368582D01*
X109683543Y-115373541D01*
X109669264Y-115377118D01*
X109654703Y-115379278D01*
X109640000Y-115380000D01*
X107990000Y-115380000D01*
X107975297Y-115379278D01*
X107960736Y-115377118D01*
X107946457Y-115373541D01*
X107932597Y-115368582D01*
X107919290Y-115362288D01*
X107906664Y-115354720D01*
X107894841Y-115345952D01*
X107883934Y-115336066D01*
X107874048Y-115325159D01*
X107865280Y-115313336D01*
X107857712Y-115300710D01*
X107851418Y-115287403D01*
X107846459Y-115273543D01*
X107842882Y-115259264D01*
X107840722Y-115244703D01*
X107840000Y-115230000D01*
X107840000Y-114930000D01*
X107840722Y-114915297D01*
X107842882Y-114900736D01*
X107846459Y-114886457D01*
X107851418Y-114872597D01*
X107857712Y-114859290D01*
X107865280Y-114846664D01*
X107874048Y-114834841D01*
X107883934Y-114823934D01*
X107894841Y-114814048D01*
X107906664Y-114805280D01*
X107919290Y-114797712D01*
X107932597Y-114791418D01*
X107946457Y-114786459D01*
X107960736Y-114782882D01*
X107975297Y-114780722D01*
X107990000Y-114780000D01*
X109640000Y-114780000D01*
X109654703Y-114780722D01*
X109654703Y-114780722D01*
G37*
D24*
X108815000Y-115080000D03*
D10*
G36*
X104704703Y-114780722D02*
G01*
X104719264Y-114782882D01*
X104733543Y-114786459D01*
X104747403Y-114791418D01*
X104760710Y-114797712D01*
X104773336Y-114805280D01*
X104785159Y-114814048D01*
X104796066Y-114823934D01*
X104805952Y-114834841D01*
X104814720Y-114846664D01*
X104822288Y-114859290D01*
X104828582Y-114872597D01*
X104833541Y-114886457D01*
X104837118Y-114900736D01*
X104839278Y-114915297D01*
X104840000Y-114930000D01*
X104840000Y-115230000D01*
X104839278Y-115244703D01*
X104837118Y-115259264D01*
X104833541Y-115273543D01*
X104828582Y-115287403D01*
X104822288Y-115300710D01*
X104814720Y-115313336D01*
X104805952Y-115325159D01*
X104796066Y-115336066D01*
X104785159Y-115345952D01*
X104773336Y-115354720D01*
X104760710Y-115362288D01*
X104747403Y-115368582D01*
X104733543Y-115373541D01*
X104719264Y-115377118D01*
X104704703Y-115379278D01*
X104690000Y-115380000D01*
X103040000Y-115380000D01*
X103025297Y-115379278D01*
X103010736Y-115377118D01*
X102996457Y-115373541D01*
X102982597Y-115368582D01*
X102969290Y-115362288D01*
X102956664Y-115354720D01*
X102944841Y-115345952D01*
X102933934Y-115336066D01*
X102924048Y-115325159D01*
X102915280Y-115313336D01*
X102907712Y-115300710D01*
X102901418Y-115287403D01*
X102896459Y-115273543D01*
X102892882Y-115259264D01*
X102890722Y-115244703D01*
X102890000Y-115230000D01*
X102890000Y-114930000D01*
X102890722Y-114915297D01*
X102892882Y-114900736D01*
X102896459Y-114886457D01*
X102901418Y-114872597D01*
X102907712Y-114859290D01*
X102915280Y-114846664D01*
X102924048Y-114834841D01*
X102933934Y-114823934D01*
X102944841Y-114814048D01*
X102956664Y-114805280D01*
X102969290Y-114797712D01*
X102982597Y-114791418D01*
X102996457Y-114786459D01*
X103010736Y-114782882D01*
X103025297Y-114780722D01*
X103040000Y-114780000D01*
X104690000Y-114780000D01*
X104704703Y-114780722D01*
X104704703Y-114780722D01*
G37*
D24*
X103865000Y-115080000D03*
D10*
G36*
X104704703Y-113510722D02*
G01*
X104719264Y-113512882D01*
X104733543Y-113516459D01*
X104747403Y-113521418D01*
X104760710Y-113527712D01*
X104773336Y-113535280D01*
X104785159Y-113544048D01*
X104796066Y-113553934D01*
X104805952Y-113564841D01*
X104814720Y-113576664D01*
X104822288Y-113589290D01*
X104828582Y-113602597D01*
X104833541Y-113616457D01*
X104837118Y-113630736D01*
X104839278Y-113645297D01*
X104840000Y-113660000D01*
X104840000Y-113960000D01*
X104839278Y-113974703D01*
X104837118Y-113989264D01*
X104833541Y-114003543D01*
X104828582Y-114017403D01*
X104822288Y-114030710D01*
X104814720Y-114043336D01*
X104805952Y-114055159D01*
X104796066Y-114066066D01*
X104785159Y-114075952D01*
X104773336Y-114084720D01*
X104760710Y-114092288D01*
X104747403Y-114098582D01*
X104733543Y-114103541D01*
X104719264Y-114107118D01*
X104704703Y-114109278D01*
X104690000Y-114110000D01*
X103040000Y-114110000D01*
X103025297Y-114109278D01*
X103010736Y-114107118D01*
X102996457Y-114103541D01*
X102982597Y-114098582D01*
X102969290Y-114092288D01*
X102956664Y-114084720D01*
X102944841Y-114075952D01*
X102933934Y-114066066D01*
X102924048Y-114055159D01*
X102915280Y-114043336D01*
X102907712Y-114030710D01*
X102901418Y-114017403D01*
X102896459Y-114003543D01*
X102892882Y-113989264D01*
X102890722Y-113974703D01*
X102890000Y-113960000D01*
X102890000Y-113660000D01*
X102890722Y-113645297D01*
X102892882Y-113630736D01*
X102896459Y-113616457D01*
X102901418Y-113602597D01*
X102907712Y-113589290D01*
X102915280Y-113576664D01*
X102924048Y-113564841D01*
X102933934Y-113553934D01*
X102944841Y-113544048D01*
X102956664Y-113535280D01*
X102969290Y-113527712D01*
X102982597Y-113521418D01*
X102996457Y-113516459D01*
X103010736Y-113512882D01*
X103025297Y-113510722D01*
X103040000Y-113510000D01*
X104690000Y-113510000D01*
X104704703Y-113510722D01*
X104704703Y-113510722D01*
G37*
D24*
X103865000Y-113810000D03*
D10*
G36*
X104704703Y-112240722D02*
G01*
X104719264Y-112242882D01*
X104733543Y-112246459D01*
X104747403Y-112251418D01*
X104760710Y-112257712D01*
X104773336Y-112265280D01*
X104785159Y-112274048D01*
X104796066Y-112283934D01*
X104805952Y-112294841D01*
X104814720Y-112306664D01*
X104822288Y-112319290D01*
X104828582Y-112332597D01*
X104833541Y-112346457D01*
X104837118Y-112360736D01*
X104839278Y-112375297D01*
X104840000Y-112390000D01*
X104840000Y-112690000D01*
X104839278Y-112704703D01*
X104837118Y-112719264D01*
X104833541Y-112733543D01*
X104828582Y-112747403D01*
X104822288Y-112760710D01*
X104814720Y-112773336D01*
X104805952Y-112785159D01*
X104796066Y-112796066D01*
X104785159Y-112805952D01*
X104773336Y-112814720D01*
X104760710Y-112822288D01*
X104747403Y-112828582D01*
X104733543Y-112833541D01*
X104719264Y-112837118D01*
X104704703Y-112839278D01*
X104690000Y-112840000D01*
X103040000Y-112840000D01*
X103025297Y-112839278D01*
X103010736Y-112837118D01*
X102996457Y-112833541D01*
X102982597Y-112828582D01*
X102969290Y-112822288D01*
X102956664Y-112814720D01*
X102944841Y-112805952D01*
X102933934Y-112796066D01*
X102924048Y-112785159D01*
X102915280Y-112773336D01*
X102907712Y-112760710D01*
X102901418Y-112747403D01*
X102896459Y-112733543D01*
X102892882Y-112719264D01*
X102890722Y-112704703D01*
X102890000Y-112690000D01*
X102890000Y-112390000D01*
X102890722Y-112375297D01*
X102892882Y-112360736D01*
X102896459Y-112346457D01*
X102901418Y-112332597D01*
X102907712Y-112319290D01*
X102915280Y-112306664D01*
X102924048Y-112294841D01*
X102933934Y-112283934D01*
X102944841Y-112274048D01*
X102956664Y-112265280D01*
X102969290Y-112257712D01*
X102982597Y-112251418D01*
X102996457Y-112246459D01*
X103010736Y-112242882D01*
X103025297Y-112240722D01*
X103040000Y-112240000D01*
X104690000Y-112240000D01*
X104704703Y-112240722D01*
X104704703Y-112240722D01*
G37*
D24*
X103865000Y-112540000D03*
D10*
G36*
X104704703Y-110970722D02*
G01*
X104719264Y-110972882D01*
X104733543Y-110976459D01*
X104747403Y-110981418D01*
X104760710Y-110987712D01*
X104773336Y-110995280D01*
X104785159Y-111004048D01*
X104796066Y-111013934D01*
X104805952Y-111024841D01*
X104814720Y-111036664D01*
X104822288Y-111049290D01*
X104828582Y-111062597D01*
X104833541Y-111076457D01*
X104837118Y-111090736D01*
X104839278Y-111105297D01*
X104840000Y-111120000D01*
X104840000Y-111420000D01*
X104839278Y-111434703D01*
X104837118Y-111449264D01*
X104833541Y-111463543D01*
X104828582Y-111477403D01*
X104822288Y-111490710D01*
X104814720Y-111503336D01*
X104805952Y-111515159D01*
X104796066Y-111526066D01*
X104785159Y-111535952D01*
X104773336Y-111544720D01*
X104760710Y-111552288D01*
X104747403Y-111558582D01*
X104733543Y-111563541D01*
X104719264Y-111567118D01*
X104704703Y-111569278D01*
X104690000Y-111570000D01*
X103040000Y-111570000D01*
X103025297Y-111569278D01*
X103010736Y-111567118D01*
X102996457Y-111563541D01*
X102982597Y-111558582D01*
X102969290Y-111552288D01*
X102956664Y-111544720D01*
X102944841Y-111535952D01*
X102933934Y-111526066D01*
X102924048Y-111515159D01*
X102915280Y-111503336D01*
X102907712Y-111490710D01*
X102901418Y-111477403D01*
X102896459Y-111463543D01*
X102892882Y-111449264D01*
X102890722Y-111434703D01*
X102890000Y-111420000D01*
X102890000Y-111120000D01*
X102890722Y-111105297D01*
X102892882Y-111090736D01*
X102896459Y-111076457D01*
X102901418Y-111062597D01*
X102907712Y-111049290D01*
X102915280Y-111036664D01*
X102924048Y-111024841D01*
X102933934Y-111013934D01*
X102944841Y-111004048D01*
X102956664Y-110995280D01*
X102969290Y-110987712D01*
X102982597Y-110981418D01*
X102996457Y-110976459D01*
X103010736Y-110972882D01*
X103025297Y-110970722D01*
X103040000Y-110970000D01*
X104690000Y-110970000D01*
X104704703Y-110970722D01*
X104704703Y-110970722D01*
G37*
D24*
X103865000Y-111270000D03*
D10*
G36*
X117434505Y-117096204D02*
G01*
X117458773Y-117099804D01*
X117482572Y-117105765D01*
X117505671Y-117114030D01*
X117527850Y-117124520D01*
X117548893Y-117137132D01*
X117568599Y-117151747D01*
X117586777Y-117168223D01*
X117603253Y-117186401D01*
X117617868Y-117206107D01*
X117630480Y-117227150D01*
X117640970Y-117249329D01*
X117649235Y-117272428D01*
X117655196Y-117296227D01*
X117658796Y-117320495D01*
X117660000Y-117344999D01*
X117660000Y-117995001D01*
X117658796Y-118019505D01*
X117655196Y-118043773D01*
X117649235Y-118067572D01*
X117640970Y-118090671D01*
X117630480Y-118112850D01*
X117617868Y-118133893D01*
X117603253Y-118153599D01*
X117586777Y-118171777D01*
X117568599Y-118188253D01*
X117548893Y-118202868D01*
X117527850Y-118215480D01*
X117505671Y-118225970D01*
X117482572Y-118234235D01*
X117458773Y-118240196D01*
X117434505Y-118243796D01*
X117410001Y-118245000D01*
X116509999Y-118245000D01*
X116485495Y-118243796D01*
X116461227Y-118240196D01*
X116437428Y-118234235D01*
X116414329Y-118225970D01*
X116392150Y-118215480D01*
X116371107Y-118202868D01*
X116351401Y-118188253D01*
X116333223Y-118171777D01*
X116316747Y-118153599D01*
X116302132Y-118133893D01*
X116289520Y-118112850D01*
X116279030Y-118090671D01*
X116270765Y-118067572D01*
X116264804Y-118043773D01*
X116261204Y-118019505D01*
X116260000Y-117995001D01*
X116260000Y-117344999D01*
X116261204Y-117320495D01*
X116264804Y-117296227D01*
X116270765Y-117272428D01*
X116279030Y-117249329D01*
X116289520Y-117227150D01*
X116302132Y-117206107D01*
X116316747Y-117186401D01*
X116333223Y-117168223D01*
X116351401Y-117151747D01*
X116371107Y-117137132D01*
X116392150Y-117124520D01*
X116414329Y-117114030D01*
X116437428Y-117105765D01*
X116461227Y-117099804D01*
X116485495Y-117096204D01*
X116509999Y-117095000D01*
X117410001Y-117095000D01*
X117434505Y-117096204D01*
X117434505Y-117096204D01*
G37*
D11*
X116960000Y-117670000D03*
D10*
G36*
X117434505Y-119146204D02*
G01*
X117458773Y-119149804D01*
X117482572Y-119155765D01*
X117505671Y-119164030D01*
X117527850Y-119174520D01*
X117548893Y-119187132D01*
X117568599Y-119201747D01*
X117586777Y-119218223D01*
X117603253Y-119236401D01*
X117617868Y-119256107D01*
X117630480Y-119277150D01*
X117640970Y-119299329D01*
X117649235Y-119322428D01*
X117655196Y-119346227D01*
X117658796Y-119370495D01*
X117660000Y-119394999D01*
X117660000Y-120045001D01*
X117658796Y-120069505D01*
X117655196Y-120093773D01*
X117649235Y-120117572D01*
X117640970Y-120140671D01*
X117630480Y-120162850D01*
X117617868Y-120183893D01*
X117603253Y-120203599D01*
X117586777Y-120221777D01*
X117568599Y-120238253D01*
X117548893Y-120252868D01*
X117527850Y-120265480D01*
X117505671Y-120275970D01*
X117482572Y-120284235D01*
X117458773Y-120290196D01*
X117434505Y-120293796D01*
X117410001Y-120295000D01*
X116509999Y-120295000D01*
X116485495Y-120293796D01*
X116461227Y-120290196D01*
X116437428Y-120284235D01*
X116414329Y-120275970D01*
X116392150Y-120265480D01*
X116371107Y-120252868D01*
X116351401Y-120238253D01*
X116333223Y-120221777D01*
X116316747Y-120203599D01*
X116302132Y-120183893D01*
X116289520Y-120162850D01*
X116279030Y-120140671D01*
X116270765Y-120117572D01*
X116264804Y-120093773D01*
X116261204Y-120069505D01*
X116260000Y-120045001D01*
X116260000Y-119394999D01*
X116261204Y-119370495D01*
X116264804Y-119346227D01*
X116270765Y-119322428D01*
X116279030Y-119299329D01*
X116289520Y-119277150D01*
X116302132Y-119256107D01*
X116316747Y-119236401D01*
X116333223Y-119218223D01*
X116351401Y-119201747D01*
X116371107Y-119187132D01*
X116392150Y-119174520D01*
X116414329Y-119164030D01*
X116437428Y-119155765D01*
X116461227Y-119149804D01*
X116485495Y-119146204D01*
X116509999Y-119145000D01*
X117410001Y-119145000D01*
X117434505Y-119146204D01*
X117434505Y-119146204D01*
G37*
D11*
X116960000Y-119720000D03*
D10*
G36*
X101204505Y-92186204D02*
G01*
X101228773Y-92189804D01*
X101252572Y-92195765D01*
X101275671Y-92204030D01*
X101297850Y-92214520D01*
X101318893Y-92227132D01*
X101338599Y-92241747D01*
X101356777Y-92258223D01*
X101373253Y-92276401D01*
X101387868Y-92296107D01*
X101400480Y-92317150D01*
X101410970Y-92339329D01*
X101419235Y-92362428D01*
X101425196Y-92386227D01*
X101428796Y-92410495D01*
X101430000Y-92434999D01*
X101430000Y-93085001D01*
X101428796Y-93109505D01*
X101425196Y-93133773D01*
X101419235Y-93157572D01*
X101410970Y-93180671D01*
X101400480Y-93202850D01*
X101387868Y-93223893D01*
X101373253Y-93243599D01*
X101356777Y-93261777D01*
X101338599Y-93278253D01*
X101318893Y-93292868D01*
X101297850Y-93305480D01*
X101275671Y-93315970D01*
X101252572Y-93324235D01*
X101228773Y-93330196D01*
X101204505Y-93333796D01*
X101180001Y-93335000D01*
X100279999Y-93335000D01*
X100255495Y-93333796D01*
X100231227Y-93330196D01*
X100207428Y-93324235D01*
X100184329Y-93315970D01*
X100162150Y-93305480D01*
X100141107Y-93292868D01*
X100121401Y-93278253D01*
X100103223Y-93261777D01*
X100086747Y-93243599D01*
X100072132Y-93223893D01*
X100059520Y-93202850D01*
X100049030Y-93180671D01*
X100040765Y-93157572D01*
X100034804Y-93133773D01*
X100031204Y-93109505D01*
X100030000Y-93085001D01*
X100030000Y-92434999D01*
X100031204Y-92410495D01*
X100034804Y-92386227D01*
X100040765Y-92362428D01*
X100049030Y-92339329D01*
X100059520Y-92317150D01*
X100072132Y-92296107D01*
X100086747Y-92276401D01*
X100103223Y-92258223D01*
X100121401Y-92241747D01*
X100141107Y-92227132D01*
X100162150Y-92214520D01*
X100184329Y-92204030D01*
X100207428Y-92195765D01*
X100231227Y-92189804D01*
X100255495Y-92186204D01*
X100279999Y-92185000D01*
X101180001Y-92185000D01*
X101204505Y-92186204D01*
X101204505Y-92186204D01*
G37*
D11*
X100730000Y-92760000D03*
D10*
G36*
X101204505Y-94236204D02*
G01*
X101228773Y-94239804D01*
X101252572Y-94245765D01*
X101275671Y-94254030D01*
X101297850Y-94264520D01*
X101318893Y-94277132D01*
X101338599Y-94291747D01*
X101356777Y-94308223D01*
X101373253Y-94326401D01*
X101387868Y-94346107D01*
X101400480Y-94367150D01*
X101410970Y-94389329D01*
X101419235Y-94412428D01*
X101425196Y-94436227D01*
X101428796Y-94460495D01*
X101430000Y-94484999D01*
X101430000Y-95135001D01*
X101428796Y-95159505D01*
X101425196Y-95183773D01*
X101419235Y-95207572D01*
X101410970Y-95230671D01*
X101400480Y-95252850D01*
X101387868Y-95273893D01*
X101373253Y-95293599D01*
X101356777Y-95311777D01*
X101338599Y-95328253D01*
X101318893Y-95342868D01*
X101297850Y-95355480D01*
X101275671Y-95365970D01*
X101252572Y-95374235D01*
X101228773Y-95380196D01*
X101204505Y-95383796D01*
X101180001Y-95385000D01*
X100279999Y-95385000D01*
X100255495Y-95383796D01*
X100231227Y-95380196D01*
X100207428Y-95374235D01*
X100184329Y-95365970D01*
X100162150Y-95355480D01*
X100141107Y-95342868D01*
X100121401Y-95328253D01*
X100103223Y-95311777D01*
X100086747Y-95293599D01*
X100072132Y-95273893D01*
X100059520Y-95252850D01*
X100049030Y-95230671D01*
X100040765Y-95207572D01*
X100034804Y-95183773D01*
X100031204Y-95159505D01*
X100030000Y-95135001D01*
X100030000Y-94484999D01*
X100031204Y-94460495D01*
X100034804Y-94436227D01*
X100040765Y-94412428D01*
X100049030Y-94389329D01*
X100059520Y-94367150D01*
X100072132Y-94346107D01*
X100086747Y-94326401D01*
X100103223Y-94308223D01*
X100121401Y-94291747D01*
X100141107Y-94277132D01*
X100162150Y-94264520D01*
X100184329Y-94254030D01*
X100207428Y-94245765D01*
X100231227Y-94239804D01*
X100255495Y-94236204D01*
X100279999Y-94235000D01*
X101180001Y-94235000D01*
X101204505Y-94236204D01*
X101204505Y-94236204D01*
G37*
D11*
X100730000Y-94810000D03*
D10*
G36*
X113619504Y-110996204D02*
G01*
X113643773Y-110999804D01*
X113667571Y-111005765D01*
X113690671Y-111014030D01*
X113712849Y-111024520D01*
X113733893Y-111037133D01*
X113753598Y-111051747D01*
X113771777Y-111068223D01*
X113788253Y-111086402D01*
X113802867Y-111106107D01*
X113815480Y-111127151D01*
X113825970Y-111149329D01*
X113834235Y-111172429D01*
X113840196Y-111196227D01*
X113843796Y-111220496D01*
X113845000Y-111245000D01*
X113845000Y-112170000D01*
X113843796Y-112194504D01*
X113840196Y-112218773D01*
X113834235Y-112242571D01*
X113825970Y-112265671D01*
X113815480Y-112287849D01*
X113802867Y-112308893D01*
X113788253Y-112328598D01*
X113771777Y-112346777D01*
X113753598Y-112363253D01*
X113733893Y-112377867D01*
X113712849Y-112390480D01*
X113690671Y-112400970D01*
X113667571Y-112409235D01*
X113643773Y-112415196D01*
X113619504Y-112418796D01*
X113595000Y-112420000D01*
X112345000Y-112420000D01*
X112320496Y-112418796D01*
X112296227Y-112415196D01*
X112272429Y-112409235D01*
X112249329Y-112400970D01*
X112227151Y-112390480D01*
X112206107Y-112377867D01*
X112186402Y-112363253D01*
X112168223Y-112346777D01*
X112151747Y-112328598D01*
X112137133Y-112308893D01*
X112124520Y-112287849D01*
X112114030Y-112265671D01*
X112105765Y-112242571D01*
X112099804Y-112218773D01*
X112096204Y-112194504D01*
X112095000Y-112170000D01*
X112095000Y-111245000D01*
X112096204Y-111220496D01*
X112099804Y-111196227D01*
X112105765Y-111172429D01*
X112114030Y-111149329D01*
X112124520Y-111127151D01*
X112137133Y-111106107D01*
X112151747Y-111086402D01*
X112168223Y-111068223D01*
X112186402Y-111051747D01*
X112206107Y-111037133D01*
X112227151Y-111024520D01*
X112249329Y-111014030D01*
X112272429Y-111005765D01*
X112296227Y-110999804D01*
X112320496Y-110996204D01*
X112345000Y-110995000D01*
X113595000Y-110995000D01*
X113619504Y-110996204D01*
X113619504Y-110996204D01*
G37*
D25*
X112970000Y-111707500D03*
D10*
G36*
X113619504Y-113971204D02*
G01*
X113643773Y-113974804D01*
X113667571Y-113980765D01*
X113690671Y-113989030D01*
X113712849Y-113999520D01*
X113733893Y-114012133D01*
X113753598Y-114026747D01*
X113771777Y-114043223D01*
X113788253Y-114061402D01*
X113802867Y-114081107D01*
X113815480Y-114102151D01*
X113825970Y-114124329D01*
X113834235Y-114147429D01*
X113840196Y-114171227D01*
X113843796Y-114195496D01*
X113845000Y-114220000D01*
X113845000Y-115145000D01*
X113843796Y-115169504D01*
X113840196Y-115193773D01*
X113834235Y-115217571D01*
X113825970Y-115240671D01*
X113815480Y-115262849D01*
X113802867Y-115283893D01*
X113788253Y-115303598D01*
X113771777Y-115321777D01*
X113753598Y-115338253D01*
X113733893Y-115352867D01*
X113712849Y-115365480D01*
X113690671Y-115375970D01*
X113667571Y-115384235D01*
X113643773Y-115390196D01*
X113619504Y-115393796D01*
X113595000Y-115395000D01*
X112345000Y-115395000D01*
X112320496Y-115393796D01*
X112296227Y-115390196D01*
X112272429Y-115384235D01*
X112249329Y-115375970D01*
X112227151Y-115365480D01*
X112206107Y-115352867D01*
X112186402Y-115338253D01*
X112168223Y-115321777D01*
X112151747Y-115303598D01*
X112137133Y-115283893D01*
X112124520Y-115262849D01*
X112114030Y-115240671D01*
X112105765Y-115217571D01*
X112099804Y-115193773D01*
X112096204Y-115169504D01*
X112095000Y-115145000D01*
X112095000Y-114220000D01*
X112096204Y-114195496D01*
X112099804Y-114171227D01*
X112105765Y-114147429D01*
X112114030Y-114124329D01*
X112124520Y-114102151D01*
X112137133Y-114081107D01*
X112151747Y-114061402D01*
X112168223Y-114043223D01*
X112186402Y-114026747D01*
X112206107Y-114012133D01*
X112227151Y-113999520D01*
X112249329Y-113989030D01*
X112272429Y-113980765D01*
X112296227Y-113974804D01*
X112320496Y-113971204D01*
X112345000Y-113970000D01*
X113595000Y-113970000D01*
X113619504Y-113971204D01*
X113619504Y-113971204D01*
G37*
D25*
X112970000Y-114682500D03*
D10*
G36*
X101184505Y-98666204D02*
G01*
X101208773Y-98669804D01*
X101232572Y-98675765D01*
X101255671Y-98684030D01*
X101277850Y-98694520D01*
X101298893Y-98707132D01*
X101318599Y-98721747D01*
X101336777Y-98738223D01*
X101353253Y-98756401D01*
X101367868Y-98776107D01*
X101380480Y-98797150D01*
X101390970Y-98819329D01*
X101399235Y-98842428D01*
X101405196Y-98866227D01*
X101408796Y-98890495D01*
X101410000Y-98914999D01*
X101410000Y-99565001D01*
X101408796Y-99589505D01*
X101405196Y-99613773D01*
X101399235Y-99637572D01*
X101390970Y-99660671D01*
X101380480Y-99682850D01*
X101367868Y-99703893D01*
X101353253Y-99723599D01*
X101336777Y-99741777D01*
X101318599Y-99758253D01*
X101298893Y-99772868D01*
X101277850Y-99785480D01*
X101255671Y-99795970D01*
X101232572Y-99804235D01*
X101208773Y-99810196D01*
X101184505Y-99813796D01*
X101160001Y-99815000D01*
X100259999Y-99815000D01*
X100235495Y-99813796D01*
X100211227Y-99810196D01*
X100187428Y-99804235D01*
X100164329Y-99795970D01*
X100142150Y-99785480D01*
X100121107Y-99772868D01*
X100101401Y-99758253D01*
X100083223Y-99741777D01*
X100066747Y-99723599D01*
X100052132Y-99703893D01*
X100039520Y-99682850D01*
X100029030Y-99660671D01*
X100020765Y-99637572D01*
X100014804Y-99613773D01*
X100011204Y-99589505D01*
X100010000Y-99565001D01*
X100010000Y-98914999D01*
X100011204Y-98890495D01*
X100014804Y-98866227D01*
X100020765Y-98842428D01*
X100029030Y-98819329D01*
X100039520Y-98797150D01*
X100052132Y-98776107D01*
X100066747Y-98756401D01*
X100083223Y-98738223D01*
X100101401Y-98721747D01*
X100121107Y-98707132D01*
X100142150Y-98694520D01*
X100164329Y-98684030D01*
X100187428Y-98675765D01*
X100211227Y-98669804D01*
X100235495Y-98666204D01*
X100259999Y-98665000D01*
X101160001Y-98665000D01*
X101184505Y-98666204D01*
X101184505Y-98666204D01*
G37*
D11*
X100710000Y-99240000D03*
D10*
G36*
X101184505Y-100716204D02*
G01*
X101208773Y-100719804D01*
X101232572Y-100725765D01*
X101255671Y-100734030D01*
X101277850Y-100744520D01*
X101298893Y-100757132D01*
X101318599Y-100771747D01*
X101336777Y-100788223D01*
X101353253Y-100806401D01*
X101367868Y-100826107D01*
X101380480Y-100847150D01*
X101390970Y-100869329D01*
X101399235Y-100892428D01*
X101405196Y-100916227D01*
X101408796Y-100940495D01*
X101410000Y-100964999D01*
X101410000Y-101615001D01*
X101408796Y-101639505D01*
X101405196Y-101663773D01*
X101399235Y-101687572D01*
X101390970Y-101710671D01*
X101380480Y-101732850D01*
X101367868Y-101753893D01*
X101353253Y-101773599D01*
X101336777Y-101791777D01*
X101318599Y-101808253D01*
X101298893Y-101822868D01*
X101277850Y-101835480D01*
X101255671Y-101845970D01*
X101232572Y-101854235D01*
X101208773Y-101860196D01*
X101184505Y-101863796D01*
X101160001Y-101865000D01*
X100259999Y-101865000D01*
X100235495Y-101863796D01*
X100211227Y-101860196D01*
X100187428Y-101854235D01*
X100164329Y-101845970D01*
X100142150Y-101835480D01*
X100121107Y-101822868D01*
X100101401Y-101808253D01*
X100083223Y-101791777D01*
X100066747Y-101773599D01*
X100052132Y-101753893D01*
X100039520Y-101732850D01*
X100029030Y-101710671D01*
X100020765Y-101687572D01*
X100014804Y-101663773D01*
X100011204Y-101639505D01*
X100010000Y-101615001D01*
X100010000Y-100964999D01*
X100011204Y-100940495D01*
X100014804Y-100916227D01*
X100020765Y-100892428D01*
X100029030Y-100869329D01*
X100039520Y-100847150D01*
X100052132Y-100826107D01*
X100066747Y-100806401D01*
X100083223Y-100788223D01*
X100101401Y-100771747D01*
X100121107Y-100757132D01*
X100142150Y-100744520D01*
X100164329Y-100734030D01*
X100187428Y-100725765D01*
X100211227Y-100719804D01*
X100235495Y-100716204D01*
X100259999Y-100715000D01*
X101160001Y-100715000D01*
X101184505Y-100716204D01*
X101184505Y-100716204D01*
G37*
D11*
X100710000Y-101290000D03*
D26*
X107930000Y-101235000D03*
X107930000Y-100285000D03*
X107930000Y-99335000D03*
X105230000Y-99335000D03*
X105230000Y-101235000D03*
X105230000Y-100285000D03*
D10*
G36*
X113444505Y-98686204D02*
G01*
X113468773Y-98689804D01*
X113492572Y-98695765D01*
X113515671Y-98704030D01*
X113537850Y-98714520D01*
X113558893Y-98727132D01*
X113578599Y-98741747D01*
X113596777Y-98758223D01*
X113613253Y-98776401D01*
X113627868Y-98796107D01*
X113640480Y-98817150D01*
X113650970Y-98839329D01*
X113659235Y-98862428D01*
X113665196Y-98886227D01*
X113668796Y-98910495D01*
X113670000Y-98934999D01*
X113670000Y-99585001D01*
X113668796Y-99609505D01*
X113665196Y-99633773D01*
X113659235Y-99657572D01*
X113650970Y-99680671D01*
X113640480Y-99702850D01*
X113627868Y-99723893D01*
X113613253Y-99743599D01*
X113596777Y-99761777D01*
X113578599Y-99778253D01*
X113558893Y-99792868D01*
X113537850Y-99805480D01*
X113515671Y-99815970D01*
X113492572Y-99824235D01*
X113468773Y-99830196D01*
X113444505Y-99833796D01*
X113420001Y-99835000D01*
X112519999Y-99835000D01*
X112495495Y-99833796D01*
X112471227Y-99830196D01*
X112447428Y-99824235D01*
X112424329Y-99815970D01*
X112402150Y-99805480D01*
X112381107Y-99792868D01*
X112361401Y-99778253D01*
X112343223Y-99761777D01*
X112326747Y-99743599D01*
X112312132Y-99723893D01*
X112299520Y-99702850D01*
X112289030Y-99680671D01*
X112280765Y-99657572D01*
X112274804Y-99633773D01*
X112271204Y-99609505D01*
X112270000Y-99585001D01*
X112270000Y-98934999D01*
X112271204Y-98910495D01*
X112274804Y-98886227D01*
X112280765Y-98862428D01*
X112289030Y-98839329D01*
X112299520Y-98817150D01*
X112312132Y-98796107D01*
X112326747Y-98776401D01*
X112343223Y-98758223D01*
X112361401Y-98741747D01*
X112381107Y-98727132D01*
X112402150Y-98714520D01*
X112424329Y-98704030D01*
X112447428Y-98695765D01*
X112471227Y-98689804D01*
X112495495Y-98686204D01*
X112519999Y-98685000D01*
X113420001Y-98685000D01*
X113444505Y-98686204D01*
X113444505Y-98686204D01*
G37*
D11*
X112970000Y-99260000D03*
D10*
G36*
X113444505Y-100736204D02*
G01*
X113468773Y-100739804D01*
X113492572Y-100745765D01*
X113515671Y-100754030D01*
X113537850Y-100764520D01*
X113558893Y-100777132D01*
X113578599Y-100791747D01*
X113596777Y-100808223D01*
X113613253Y-100826401D01*
X113627868Y-100846107D01*
X113640480Y-100867150D01*
X113650970Y-100889329D01*
X113659235Y-100912428D01*
X113665196Y-100936227D01*
X113668796Y-100960495D01*
X113670000Y-100984999D01*
X113670000Y-101635001D01*
X113668796Y-101659505D01*
X113665196Y-101683773D01*
X113659235Y-101707572D01*
X113650970Y-101730671D01*
X113640480Y-101752850D01*
X113627868Y-101773893D01*
X113613253Y-101793599D01*
X113596777Y-101811777D01*
X113578599Y-101828253D01*
X113558893Y-101842868D01*
X113537850Y-101855480D01*
X113515671Y-101865970D01*
X113492572Y-101874235D01*
X113468773Y-101880196D01*
X113444505Y-101883796D01*
X113420001Y-101885000D01*
X112519999Y-101885000D01*
X112495495Y-101883796D01*
X112471227Y-101880196D01*
X112447428Y-101874235D01*
X112424329Y-101865970D01*
X112402150Y-101855480D01*
X112381107Y-101842868D01*
X112361401Y-101828253D01*
X112343223Y-101811777D01*
X112326747Y-101793599D01*
X112312132Y-101773893D01*
X112299520Y-101752850D01*
X112289030Y-101730671D01*
X112280765Y-101707572D01*
X112274804Y-101683773D01*
X112271204Y-101659505D01*
X112270000Y-101635001D01*
X112270000Y-100984999D01*
X112271204Y-100960495D01*
X112274804Y-100936227D01*
X112280765Y-100912428D01*
X112289030Y-100889329D01*
X112299520Y-100867150D01*
X112312132Y-100846107D01*
X112326747Y-100826401D01*
X112343223Y-100808223D01*
X112361401Y-100791747D01*
X112381107Y-100777132D01*
X112402150Y-100764520D01*
X112424329Y-100754030D01*
X112447428Y-100745765D01*
X112471227Y-100739804D01*
X112495495Y-100736204D01*
X112519999Y-100735000D01*
X113420001Y-100735000D01*
X113444505Y-100736204D01*
X113444505Y-100736204D01*
G37*
D11*
X112970000Y-101310000D03*
D10*
G36*
X117619504Y-110996204D02*
G01*
X117643773Y-110999804D01*
X117667571Y-111005765D01*
X117690671Y-111014030D01*
X117712849Y-111024520D01*
X117733893Y-111037133D01*
X117753598Y-111051747D01*
X117771777Y-111068223D01*
X117788253Y-111086402D01*
X117802867Y-111106107D01*
X117815480Y-111127151D01*
X117825970Y-111149329D01*
X117834235Y-111172429D01*
X117840196Y-111196227D01*
X117843796Y-111220496D01*
X117845000Y-111245000D01*
X117845000Y-112170000D01*
X117843796Y-112194504D01*
X117840196Y-112218773D01*
X117834235Y-112242571D01*
X117825970Y-112265671D01*
X117815480Y-112287849D01*
X117802867Y-112308893D01*
X117788253Y-112328598D01*
X117771777Y-112346777D01*
X117753598Y-112363253D01*
X117733893Y-112377867D01*
X117712849Y-112390480D01*
X117690671Y-112400970D01*
X117667571Y-112409235D01*
X117643773Y-112415196D01*
X117619504Y-112418796D01*
X117595000Y-112420000D01*
X116345000Y-112420000D01*
X116320496Y-112418796D01*
X116296227Y-112415196D01*
X116272429Y-112409235D01*
X116249329Y-112400970D01*
X116227151Y-112390480D01*
X116206107Y-112377867D01*
X116186402Y-112363253D01*
X116168223Y-112346777D01*
X116151747Y-112328598D01*
X116137133Y-112308893D01*
X116124520Y-112287849D01*
X116114030Y-112265671D01*
X116105765Y-112242571D01*
X116099804Y-112218773D01*
X116096204Y-112194504D01*
X116095000Y-112170000D01*
X116095000Y-111245000D01*
X116096204Y-111220496D01*
X116099804Y-111196227D01*
X116105765Y-111172429D01*
X116114030Y-111149329D01*
X116124520Y-111127151D01*
X116137133Y-111106107D01*
X116151747Y-111086402D01*
X116168223Y-111068223D01*
X116186402Y-111051747D01*
X116206107Y-111037133D01*
X116227151Y-111024520D01*
X116249329Y-111014030D01*
X116272429Y-111005765D01*
X116296227Y-110999804D01*
X116320496Y-110996204D01*
X116345000Y-110995000D01*
X117595000Y-110995000D01*
X117619504Y-110996204D01*
X117619504Y-110996204D01*
G37*
D25*
X116970000Y-111707500D03*
D10*
G36*
X117619504Y-113971204D02*
G01*
X117643773Y-113974804D01*
X117667571Y-113980765D01*
X117690671Y-113989030D01*
X117712849Y-113999520D01*
X117733893Y-114012133D01*
X117753598Y-114026747D01*
X117771777Y-114043223D01*
X117788253Y-114061402D01*
X117802867Y-114081107D01*
X117815480Y-114102151D01*
X117825970Y-114124329D01*
X117834235Y-114147429D01*
X117840196Y-114171227D01*
X117843796Y-114195496D01*
X117845000Y-114220000D01*
X117845000Y-115145000D01*
X117843796Y-115169504D01*
X117840196Y-115193773D01*
X117834235Y-115217571D01*
X117825970Y-115240671D01*
X117815480Y-115262849D01*
X117802867Y-115283893D01*
X117788253Y-115303598D01*
X117771777Y-115321777D01*
X117753598Y-115338253D01*
X117733893Y-115352867D01*
X117712849Y-115365480D01*
X117690671Y-115375970D01*
X117667571Y-115384235D01*
X117643773Y-115390196D01*
X117619504Y-115393796D01*
X117595000Y-115395000D01*
X116345000Y-115395000D01*
X116320496Y-115393796D01*
X116296227Y-115390196D01*
X116272429Y-115384235D01*
X116249329Y-115375970D01*
X116227151Y-115365480D01*
X116206107Y-115352867D01*
X116186402Y-115338253D01*
X116168223Y-115321777D01*
X116151747Y-115303598D01*
X116137133Y-115283893D01*
X116124520Y-115262849D01*
X116114030Y-115240671D01*
X116105765Y-115217571D01*
X116099804Y-115193773D01*
X116096204Y-115169504D01*
X116095000Y-115145000D01*
X116095000Y-114220000D01*
X116096204Y-114195496D01*
X116099804Y-114171227D01*
X116105765Y-114147429D01*
X116114030Y-114124329D01*
X116124520Y-114102151D01*
X116137133Y-114081107D01*
X116151747Y-114061402D01*
X116168223Y-114043223D01*
X116186402Y-114026747D01*
X116206107Y-114012133D01*
X116227151Y-113999520D01*
X116249329Y-113989030D01*
X116272429Y-113980765D01*
X116296227Y-113974804D01*
X116320496Y-113971204D01*
X116345000Y-113970000D01*
X117595000Y-113970000D01*
X117619504Y-113971204D01*
X117619504Y-113971204D01*
G37*
D25*
X116970000Y-114682500D03*
D10*
G36*
X101199504Y-107881204D02*
G01*
X101223773Y-107884804D01*
X101247571Y-107890765D01*
X101270671Y-107899030D01*
X101292849Y-107909520D01*
X101313893Y-107922133D01*
X101333598Y-107936747D01*
X101351777Y-107953223D01*
X101368253Y-107971402D01*
X101382867Y-107991107D01*
X101395480Y-108012151D01*
X101405970Y-108034329D01*
X101414235Y-108057429D01*
X101420196Y-108081227D01*
X101423796Y-108105496D01*
X101425000Y-108130000D01*
X101425000Y-109055000D01*
X101423796Y-109079504D01*
X101420196Y-109103773D01*
X101414235Y-109127571D01*
X101405970Y-109150671D01*
X101395480Y-109172849D01*
X101382867Y-109193893D01*
X101368253Y-109213598D01*
X101351777Y-109231777D01*
X101333598Y-109248253D01*
X101313893Y-109262867D01*
X101292849Y-109275480D01*
X101270671Y-109285970D01*
X101247571Y-109294235D01*
X101223773Y-109300196D01*
X101199504Y-109303796D01*
X101175000Y-109305000D01*
X99925000Y-109305000D01*
X99900496Y-109303796D01*
X99876227Y-109300196D01*
X99852429Y-109294235D01*
X99829329Y-109285970D01*
X99807151Y-109275480D01*
X99786107Y-109262867D01*
X99766402Y-109248253D01*
X99748223Y-109231777D01*
X99731747Y-109213598D01*
X99717133Y-109193893D01*
X99704520Y-109172849D01*
X99694030Y-109150671D01*
X99685765Y-109127571D01*
X99679804Y-109103773D01*
X99676204Y-109079504D01*
X99675000Y-109055000D01*
X99675000Y-108130000D01*
X99676204Y-108105496D01*
X99679804Y-108081227D01*
X99685765Y-108057429D01*
X99694030Y-108034329D01*
X99704520Y-108012151D01*
X99717133Y-107991107D01*
X99731747Y-107971402D01*
X99748223Y-107953223D01*
X99766402Y-107936747D01*
X99786107Y-107922133D01*
X99807151Y-107909520D01*
X99829329Y-107899030D01*
X99852429Y-107890765D01*
X99876227Y-107884804D01*
X99900496Y-107881204D01*
X99925000Y-107880000D01*
X101175000Y-107880000D01*
X101199504Y-107881204D01*
X101199504Y-107881204D01*
G37*
D25*
X100550000Y-108592500D03*
D10*
G36*
X101199504Y-104906204D02*
G01*
X101223773Y-104909804D01*
X101247571Y-104915765D01*
X101270671Y-104924030D01*
X101292849Y-104934520D01*
X101313893Y-104947133D01*
X101333598Y-104961747D01*
X101351777Y-104978223D01*
X101368253Y-104996402D01*
X101382867Y-105016107D01*
X101395480Y-105037151D01*
X101405970Y-105059329D01*
X101414235Y-105082429D01*
X101420196Y-105106227D01*
X101423796Y-105130496D01*
X101425000Y-105155000D01*
X101425000Y-106080000D01*
X101423796Y-106104504D01*
X101420196Y-106128773D01*
X101414235Y-106152571D01*
X101405970Y-106175671D01*
X101395480Y-106197849D01*
X101382867Y-106218893D01*
X101368253Y-106238598D01*
X101351777Y-106256777D01*
X101333598Y-106273253D01*
X101313893Y-106287867D01*
X101292849Y-106300480D01*
X101270671Y-106310970D01*
X101247571Y-106319235D01*
X101223773Y-106325196D01*
X101199504Y-106328796D01*
X101175000Y-106330000D01*
X99925000Y-106330000D01*
X99900496Y-106328796D01*
X99876227Y-106325196D01*
X99852429Y-106319235D01*
X99829329Y-106310970D01*
X99807151Y-106300480D01*
X99786107Y-106287867D01*
X99766402Y-106273253D01*
X99748223Y-106256777D01*
X99731747Y-106238598D01*
X99717133Y-106218893D01*
X99704520Y-106197849D01*
X99694030Y-106175671D01*
X99685765Y-106152571D01*
X99679804Y-106128773D01*
X99676204Y-106104504D01*
X99675000Y-106080000D01*
X99675000Y-105155000D01*
X99676204Y-105130496D01*
X99679804Y-105106227D01*
X99685765Y-105082429D01*
X99694030Y-105059329D01*
X99704520Y-105037151D01*
X99717133Y-105016107D01*
X99731747Y-104996402D01*
X99748223Y-104978223D01*
X99766402Y-104961747D01*
X99786107Y-104947133D01*
X99807151Y-104934520D01*
X99829329Y-104924030D01*
X99852429Y-104915765D01*
X99876227Y-104909804D01*
X99900496Y-104906204D01*
X99925000Y-104905000D01*
X101175000Y-104905000D01*
X101199504Y-104906204D01*
X101199504Y-104906204D01*
G37*
D25*
X100550000Y-105617500D03*
D10*
G36*
X105114505Y-134726204D02*
G01*
X105138773Y-134729804D01*
X105162572Y-134735765D01*
X105185671Y-134744030D01*
X105207850Y-134754520D01*
X105228893Y-134767132D01*
X105248599Y-134781747D01*
X105266777Y-134798223D01*
X105283253Y-134816401D01*
X105297868Y-134836107D01*
X105310480Y-134857150D01*
X105320970Y-134879329D01*
X105329235Y-134902428D01*
X105335196Y-134926227D01*
X105338796Y-134950495D01*
X105340000Y-134974999D01*
X105340000Y-135625001D01*
X105338796Y-135649505D01*
X105335196Y-135673773D01*
X105329235Y-135697572D01*
X105320970Y-135720671D01*
X105310480Y-135742850D01*
X105297868Y-135763893D01*
X105283253Y-135783599D01*
X105266777Y-135801777D01*
X105248599Y-135818253D01*
X105228893Y-135832868D01*
X105207850Y-135845480D01*
X105185671Y-135855970D01*
X105162572Y-135864235D01*
X105138773Y-135870196D01*
X105114505Y-135873796D01*
X105090001Y-135875000D01*
X104189999Y-135875000D01*
X104165495Y-135873796D01*
X104141227Y-135870196D01*
X104117428Y-135864235D01*
X104094329Y-135855970D01*
X104072150Y-135845480D01*
X104051107Y-135832868D01*
X104031401Y-135818253D01*
X104013223Y-135801777D01*
X103996747Y-135783599D01*
X103982132Y-135763893D01*
X103969520Y-135742850D01*
X103959030Y-135720671D01*
X103950765Y-135697572D01*
X103944804Y-135673773D01*
X103941204Y-135649505D01*
X103940000Y-135625001D01*
X103940000Y-134974999D01*
X103941204Y-134950495D01*
X103944804Y-134926227D01*
X103950765Y-134902428D01*
X103959030Y-134879329D01*
X103969520Y-134857150D01*
X103982132Y-134836107D01*
X103996747Y-134816401D01*
X104013223Y-134798223D01*
X104031401Y-134781747D01*
X104051107Y-134767132D01*
X104072150Y-134754520D01*
X104094329Y-134744030D01*
X104117428Y-134735765D01*
X104141227Y-134729804D01*
X104165495Y-134726204D01*
X104189999Y-134725000D01*
X105090001Y-134725000D01*
X105114505Y-134726204D01*
X105114505Y-134726204D01*
G37*
D11*
X104640000Y-135300000D03*
D10*
G36*
X105114505Y-132676204D02*
G01*
X105138773Y-132679804D01*
X105162572Y-132685765D01*
X105185671Y-132694030D01*
X105207850Y-132704520D01*
X105228893Y-132717132D01*
X105248599Y-132731747D01*
X105266777Y-132748223D01*
X105283253Y-132766401D01*
X105297868Y-132786107D01*
X105310480Y-132807150D01*
X105320970Y-132829329D01*
X105329235Y-132852428D01*
X105335196Y-132876227D01*
X105338796Y-132900495D01*
X105340000Y-132924999D01*
X105340000Y-133575001D01*
X105338796Y-133599505D01*
X105335196Y-133623773D01*
X105329235Y-133647572D01*
X105320970Y-133670671D01*
X105310480Y-133692850D01*
X105297868Y-133713893D01*
X105283253Y-133733599D01*
X105266777Y-133751777D01*
X105248599Y-133768253D01*
X105228893Y-133782868D01*
X105207850Y-133795480D01*
X105185671Y-133805970D01*
X105162572Y-133814235D01*
X105138773Y-133820196D01*
X105114505Y-133823796D01*
X105090001Y-133825000D01*
X104189999Y-133825000D01*
X104165495Y-133823796D01*
X104141227Y-133820196D01*
X104117428Y-133814235D01*
X104094329Y-133805970D01*
X104072150Y-133795480D01*
X104051107Y-133782868D01*
X104031401Y-133768253D01*
X104013223Y-133751777D01*
X103996747Y-133733599D01*
X103982132Y-133713893D01*
X103969520Y-133692850D01*
X103959030Y-133670671D01*
X103950765Y-133647572D01*
X103944804Y-133623773D01*
X103941204Y-133599505D01*
X103940000Y-133575001D01*
X103940000Y-132924999D01*
X103941204Y-132900495D01*
X103944804Y-132876227D01*
X103950765Y-132852428D01*
X103959030Y-132829329D01*
X103969520Y-132807150D01*
X103982132Y-132786107D01*
X103996747Y-132766401D01*
X104013223Y-132748223D01*
X104031401Y-132731747D01*
X104051107Y-132717132D01*
X104072150Y-132704520D01*
X104094329Y-132694030D01*
X104117428Y-132685765D01*
X104141227Y-132679804D01*
X104165495Y-132676204D01*
X104189999Y-132675000D01*
X105090001Y-132675000D01*
X105114505Y-132676204D01*
X105114505Y-132676204D01*
G37*
D11*
X104640000Y-133250000D03*
D27*
X94765000Y-133915000D03*
X90665000Y-133915000D03*
X94765000Y-129240000D03*
X90665000Y-129240000D03*
D10*
G36*
X108604505Y-134726204D02*
G01*
X108628773Y-134729804D01*
X108652572Y-134735765D01*
X108675671Y-134744030D01*
X108697850Y-134754520D01*
X108718893Y-134767132D01*
X108738599Y-134781747D01*
X108756777Y-134798223D01*
X108773253Y-134816401D01*
X108787868Y-134836107D01*
X108800480Y-134857150D01*
X108810970Y-134879329D01*
X108819235Y-134902428D01*
X108825196Y-134926227D01*
X108828796Y-134950495D01*
X108830000Y-134974999D01*
X108830000Y-135625001D01*
X108828796Y-135649505D01*
X108825196Y-135673773D01*
X108819235Y-135697572D01*
X108810970Y-135720671D01*
X108800480Y-135742850D01*
X108787868Y-135763893D01*
X108773253Y-135783599D01*
X108756777Y-135801777D01*
X108738599Y-135818253D01*
X108718893Y-135832868D01*
X108697850Y-135845480D01*
X108675671Y-135855970D01*
X108652572Y-135864235D01*
X108628773Y-135870196D01*
X108604505Y-135873796D01*
X108580001Y-135875000D01*
X107679999Y-135875000D01*
X107655495Y-135873796D01*
X107631227Y-135870196D01*
X107607428Y-135864235D01*
X107584329Y-135855970D01*
X107562150Y-135845480D01*
X107541107Y-135832868D01*
X107521401Y-135818253D01*
X107503223Y-135801777D01*
X107486747Y-135783599D01*
X107472132Y-135763893D01*
X107459520Y-135742850D01*
X107449030Y-135720671D01*
X107440765Y-135697572D01*
X107434804Y-135673773D01*
X107431204Y-135649505D01*
X107430000Y-135625001D01*
X107430000Y-134974999D01*
X107431204Y-134950495D01*
X107434804Y-134926227D01*
X107440765Y-134902428D01*
X107449030Y-134879329D01*
X107459520Y-134857150D01*
X107472132Y-134836107D01*
X107486747Y-134816401D01*
X107503223Y-134798223D01*
X107521401Y-134781747D01*
X107541107Y-134767132D01*
X107562150Y-134754520D01*
X107584329Y-134744030D01*
X107607428Y-134735765D01*
X107631227Y-134729804D01*
X107655495Y-134726204D01*
X107679999Y-134725000D01*
X108580001Y-134725000D01*
X108604505Y-134726204D01*
X108604505Y-134726204D01*
G37*
D11*
X108130000Y-135300000D03*
D10*
G36*
X108604505Y-132676204D02*
G01*
X108628773Y-132679804D01*
X108652572Y-132685765D01*
X108675671Y-132694030D01*
X108697850Y-132704520D01*
X108718893Y-132717132D01*
X108738599Y-132731747D01*
X108756777Y-132748223D01*
X108773253Y-132766401D01*
X108787868Y-132786107D01*
X108800480Y-132807150D01*
X108810970Y-132829329D01*
X108819235Y-132852428D01*
X108825196Y-132876227D01*
X108828796Y-132900495D01*
X108830000Y-132924999D01*
X108830000Y-133575001D01*
X108828796Y-133599505D01*
X108825196Y-133623773D01*
X108819235Y-133647572D01*
X108810970Y-133670671D01*
X108800480Y-133692850D01*
X108787868Y-133713893D01*
X108773253Y-133733599D01*
X108756777Y-133751777D01*
X108738599Y-133768253D01*
X108718893Y-133782868D01*
X108697850Y-133795480D01*
X108675671Y-133805970D01*
X108652572Y-133814235D01*
X108628773Y-133820196D01*
X108604505Y-133823796D01*
X108580001Y-133825000D01*
X107679999Y-133825000D01*
X107655495Y-133823796D01*
X107631227Y-133820196D01*
X107607428Y-133814235D01*
X107584329Y-133805970D01*
X107562150Y-133795480D01*
X107541107Y-133782868D01*
X107521401Y-133768253D01*
X107503223Y-133751777D01*
X107486747Y-133733599D01*
X107472132Y-133713893D01*
X107459520Y-133692850D01*
X107449030Y-133670671D01*
X107440765Y-133647572D01*
X107434804Y-133623773D01*
X107431204Y-133599505D01*
X107430000Y-133575001D01*
X107430000Y-132924999D01*
X107431204Y-132900495D01*
X107434804Y-132876227D01*
X107440765Y-132852428D01*
X107449030Y-132829329D01*
X107459520Y-132807150D01*
X107472132Y-132786107D01*
X107486747Y-132766401D01*
X107503223Y-132748223D01*
X107521401Y-132731747D01*
X107541107Y-132717132D01*
X107562150Y-132704520D01*
X107584329Y-132694030D01*
X107607428Y-132685765D01*
X107631227Y-132679804D01*
X107655495Y-132676204D01*
X107679999Y-132675000D01*
X108580001Y-132675000D01*
X108604505Y-132676204D01*
X108604505Y-132676204D01*
G37*
D11*
X108130000Y-133250000D03*
D27*
X94760000Y-112515000D03*
X90660000Y-112515000D03*
D10*
G36*
X104944505Y-119136204D02*
G01*
X104968773Y-119139804D01*
X104992572Y-119145765D01*
X105015671Y-119154030D01*
X105037850Y-119164520D01*
X105058893Y-119177132D01*
X105078599Y-119191747D01*
X105096777Y-119208223D01*
X105113253Y-119226401D01*
X105127868Y-119246107D01*
X105140480Y-119267150D01*
X105150970Y-119289329D01*
X105159235Y-119312428D01*
X105165196Y-119336227D01*
X105168796Y-119360495D01*
X105170000Y-119384999D01*
X105170000Y-120035001D01*
X105168796Y-120059505D01*
X105165196Y-120083773D01*
X105159235Y-120107572D01*
X105150970Y-120130671D01*
X105140480Y-120152850D01*
X105127868Y-120173893D01*
X105113253Y-120193599D01*
X105096777Y-120211777D01*
X105078599Y-120228253D01*
X105058893Y-120242868D01*
X105037850Y-120255480D01*
X105015671Y-120265970D01*
X104992572Y-120274235D01*
X104968773Y-120280196D01*
X104944505Y-120283796D01*
X104920001Y-120285000D01*
X104019999Y-120285000D01*
X103995495Y-120283796D01*
X103971227Y-120280196D01*
X103947428Y-120274235D01*
X103924329Y-120265970D01*
X103902150Y-120255480D01*
X103881107Y-120242868D01*
X103861401Y-120228253D01*
X103843223Y-120211777D01*
X103826747Y-120193599D01*
X103812132Y-120173893D01*
X103799520Y-120152850D01*
X103789030Y-120130671D01*
X103780765Y-120107572D01*
X103774804Y-120083773D01*
X103771204Y-120059505D01*
X103770000Y-120035001D01*
X103770000Y-119384999D01*
X103771204Y-119360495D01*
X103774804Y-119336227D01*
X103780765Y-119312428D01*
X103789030Y-119289329D01*
X103799520Y-119267150D01*
X103812132Y-119246107D01*
X103826747Y-119226401D01*
X103843223Y-119208223D01*
X103861401Y-119191747D01*
X103881107Y-119177132D01*
X103902150Y-119164520D01*
X103924329Y-119154030D01*
X103947428Y-119145765D01*
X103971227Y-119139804D01*
X103995495Y-119136204D01*
X104019999Y-119135000D01*
X104920001Y-119135000D01*
X104944505Y-119136204D01*
X104944505Y-119136204D01*
G37*
D11*
X104470000Y-119710000D03*
D10*
G36*
X104944505Y-117086204D02*
G01*
X104968773Y-117089804D01*
X104992572Y-117095765D01*
X105015671Y-117104030D01*
X105037850Y-117114520D01*
X105058893Y-117127132D01*
X105078599Y-117141747D01*
X105096777Y-117158223D01*
X105113253Y-117176401D01*
X105127868Y-117196107D01*
X105140480Y-117217150D01*
X105150970Y-117239329D01*
X105159235Y-117262428D01*
X105165196Y-117286227D01*
X105168796Y-117310495D01*
X105170000Y-117334999D01*
X105170000Y-117985001D01*
X105168796Y-118009505D01*
X105165196Y-118033773D01*
X105159235Y-118057572D01*
X105150970Y-118080671D01*
X105140480Y-118102850D01*
X105127868Y-118123893D01*
X105113253Y-118143599D01*
X105096777Y-118161777D01*
X105078599Y-118178253D01*
X105058893Y-118192868D01*
X105037850Y-118205480D01*
X105015671Y-118215970D01*
X104992572Y-118224235D01*
X104968773Y-118230196D01*
X104944505Y-118233796D01*
X104920001Y-118235000D01*
X104019999Y-118235000D01*
X103995495Y-118233796D01*
X103971227Y-118230196D01*
X103947428Y-118224235D01*
X103924329Y-118215970D01*
X103902150Y-118205480D01*
X103881107Y-118192868D01*
X103861401Y-118178253D01*
X103843223Y-118161777D01*
X103826747Y-118143599D01*
X103812132Y-118123893D01*
X103799520Y-118102850D01*
X103789030Y-118080671D01*
X103780765Y-118057572D01*
X103774804Y-118033773D01*
X103771204Y-118009505D01*
X103770000Y-117985001D01*
X103770000Y-117334999D01*
X103771204Y-117310495D01*
X103774804Y-117286227D01*
X103780765Y-117262428D01*
X103789030Y-117239329D01*
X103799520Y-117217150D01*
X103812132Y-117196107D01*
X103826747Y-117176401D01*
X103843223Y-117158223D01*
X103861401Y-117141747D01*
X103881107Y-117127132D01*
X103902150Y-117114520D01*
X103924329Y-117104030D01*
X103947428Y-117095765D01*
X103971227Y-117089804D01*
X103995495Y-117086204D01*
X104019999Y-117085000D01*
X104920001Y-117085000D01*
X104944505Y-117086204D01*
X104944505Y-117086204D01*
G37*
D11*
X104470000Y-117660000D03*
D10*
G36*
X100864505Y-125841204D02*
G01*
X100888773Y-125844804D01*
X100912572Y-125850765D01*
X100935671Y-125859030D01*
X100957850Y-125869520D01*
X100978893Y-125882132D01*
X100998599Y-125896747D01*
X101016777Y-125913223D01*
X101033253Y-125931401D01*
X101047868Y-125951107D01*
X101060480Y-125972150D01*
X101070970Y-125994329D01*
X101079235Y-126017428D01*
X101085196Y-126041227D01*
X101088796Y-126065495D01*
X101090000Y-126089999D01*
X101090000Y-126740001D01*
X101088796Y-126764505D01*
X101085196Y-126788773D01*
X101079235Y-126812572D01*
X101070970Y-126835671D01*
X101060480Y-126857850D01*
X101047868Y-126878893D01*
X101033253Y-126898599D01*
X101016777Y-126916777D01*
X100998599Y-126933253D01*
X100978893Y-126947868D01*
X100957850Y-126960480D01*
X100935671Y-126970970D01*
X100912572Y-126979235D01*
X100888773Y-126985196D01*
X100864505Y-126988796D01*
X100840001Y-126990000D01*
X99939999Y-126990000D01*
X99915495Y-126988796D01*
X99891227Y-126985196D01*
X99867428Y-126979235D01*
X99844329Y-126970970D01*
X99822150Y-126960480D01*
X99801107Y-126947868D01*
X99781401Y-126933253D01*
X99763223Y-126916777D01*
X99746747Y-126898599D01*
X99732132Y-126878893D01*
X99719520Y-126857850D01*
X99709030Y-126835671D01*
X99700765Y-126812572D01*
X99694804Y-126788773D01*
X99691204Y-126764505D01*
X99690000Y-126740001D01*
X99690000Y-126089999D01*
X99691204Y-126065495D01*
X99694804Y-126041227D01*
X99700765Y-126017428D01*
X99709030Y-125994329D01*
X99719520Y-125972150D01*
X99732132Y-125951107D01*
X99746747Y-125931401D01*
X99763223Y-125913223D01*
X99781401Y-125896747D01*
X99801107Y-125882132D01*
X99822150Y-125869520D01*
X99844329Y-125859030D01*
X99867428Y-125850765D01*
X99891227Y-125844804D01*
X99915495Y-125841204D01*
X99939999Y-125840000D01*
X100840001Y-125840000D01*
X100864505Y-125841204D01*
X100864505Y-125841204D01*
G37*
D11*
X100390000Y-126415000D03*
D10*
G36*
X100864505Y-127891204D02*
G01*
X100888773Y-127894804D01*
X100912572Y-127900765D01*
X100935671Y-127909030D01*
X100957850Y-127919520D01*
X100978893Y-127932132D01*
X100998599Y-127946747D01*
X101016777Y-127963223D01*
X101033253Y-127981401D01*
X101047868Y-128001107D01*
X101060480Y-128022150D01*
X101070970Y-128044329D01*
X101079235Y-128067428D01*
X101085196Y-128091227D01*
X101088796Y-128115495D01*
X101090000Y-128139999D01*
X101090000Y-128790001D01*
X101088796Y-128814505D01*
X101085196Y-128838773D01*
X101079235Y-128862572D01*
X101070970Y-128885671D01*
X101060480Y-128907850D01*
X101047868Y-128928893D01*
X101033253Y-128948599D01*
X101016777Y-128966777D01*
X100998599Y-128983253D01*
X100978893Y-128997868D01*
X100957850Y-129010480D01*
X100935671Y-129020970D01*
X100912572Y-129029235D01*
X100888773Y-129035196D01*
X100864505Y-129038796D01*
X100840001Y-129040000D01*
X99939999Y-129040000D01*
X99915495Y-129038796D01*
X99891227Y-129035196D01*
X99867428Y-129029235D01*
X99844329Y-129020970D01*
X99822150Y-129010480D01*
X99801107Y-128997868D01*
X99781401Y-128983253D01*
X99763223Y-128966777D01*
X99746747Y-128948599D01*
X99732132Y-128928893D01*
X99719520Y-128907850D01*
X99709030Y-128885671D01*
X99700765Y-128862572D01*
X99694804Y-128838773D01*
X99691204Y-128814505D01*
X99690000Y-128790001D01*
X99690000Y-128139999D01*
X99691204Y-128115495D01*
X99694804Y-128091227D01*
X99700765Y-128067428D01*
X99709030Y-128044329D01*
X99719520Y-128022150D01*
X99732132Y-128001107D01*
X99746747Y-127981401D01*
X99763223Y-127963223D01*
X99781401Y-127946747D01*
X99801107Y-127932132D01*
X99822150Y-127919520D01*
X99844329Y-127909030D01*
X99867428Y-127900765D01*
X99891227Y-127894804D01*
X99915495Y-127891204D01*
X99939999Y-127890000D01*
X100840001Y-127890000D01*
X100864505Y-127891204D01*
X100864505Y-127891204D01*
G37*
D11*
X100390000Y-128465000D03*
D28*
X90540000Y-105570000D03*
X90540000Y-106220000D03*
X90540000Y-106870000D03*
X90540000Y-107520000D03*
X96440000Y-107520000D03*
X96440000Y-106870000D03*
X96440000Y-106220000D03*
X96440000Y-105570000D03*
D10*
G36*
X109654703Y-121645722D02*
G01*
X109669264Y-121647882D01*
X109683543Y-121651459D01*
X109697403Y-121656418D01*
X109710710Y-121662712D01*
X109723336Y-121670280D01*
X109735159Y-121679048D01*
X109746066Y-121688934D01*
X109755952Y-121699841D01*
X109764720Y-121711664D01*
X109772288Y-121724290D01*
X109778582Y-121737597D01*
X109783541Y-121751457D01*
X109787118Y-121765736D01*
X109789278Y-121780297D01*
X109790000Y-121795000D01*
X109790000Y-122095000D01*
X109789278Y-122109703D01*
X109787118Y-122124264D01*
X109783541Y-122138543D01*
X109778582Y-122152403D01*
X109772288Y-122165710D01*
X109764720Y-122178336D01*
X109755952Y-122190159D01*
X109746066Y-122201066D01*
X109735159Y-122210952D01*
X109723336Y-122219720D01*
X109710710Y-122227288D01*
X109697403Y-122233582D01*
X109683543Y-122238541D01*
X109669264Y-122242118D01*
X109654703Y-122244278D01*
X109640000Y-122245000D01*
X107990000Y-122245000D01*
X107975297Y-122244278D01*
X107960736Y-122242118D01*
X107946457Y-122238541D01*
X107932597Y-122233582D01*
X107919290Y-122227288D01*
X107906664Y-122219720D01*
X107894841Y-122210952D01*
X107883934Y-122201066D01*
X107874048Y-122190159D01*
X107865280Y-122178336D01*
X107857712Y-122165710D01*
X107851418Y-122152403D01*
X107846459Y-122138543D01*
X107842882Y-122124264D01*
X107840722Y-122109703D01*
X107840000Y-122095000D01*
X107840000Y-121795000D01*
X107840722Y-121780297D01*
X107842882Y-121765736D01*
X107846459Y-121751457D01*
X107851418Y-121737597D01*
X107857712Y-121724290D01*
X107865280Y-121711664D01*
X107874048Y-121699841D01*
X107883934Y-121688934D01*
X107894841Y-121679048D01*
X107906664Y-121670280D01*
X107919290Y-121662712D01*
X107932597Y-121656418D01*
X107946457Y-121651459D01*
X107960736Y-121647882D01*
X107975297Y-121645722D01*
X107990000Y-121645000D01*
X109640000Y-121645000D01*
X109654703Y-121645722D01*
X109654703Y-121645722D01*
G37*
D24*
X108815000Y-121945000D03*
D10*
G36*
X109654703Y-122915722D02*
G01*
X109669264Y-122917882D01*
X109683543Y-122921459D01*
X109697403Y-122926418D01*
X109710710Y-122932712D01*
X109723336Y-122940280D01*
X109735159Y-122949048D01*
X109746066Y-122958934D01*
X109755952Y-122969841D01*
X109764720Y-122981664D01*
X109772288Y-122994290D01*
X109778582Y-123007597D01*
X109783541Y-123021457D01*
X109787118Y-123035736D01*
X109789278Y-123050297D01*
X109790000Y-123065000D01*
X109790000Y-123365000D01*
X109789278Y-123379703D01*
X109787118Y-123394264D01*
X109783541Y-123408543D01*
X109778582Y-123422403D01*
X109772288Y-123435710D01*
X109764720Y-123448336D01*
X109755952Y-123460159D01*
X109746066Y-123471066D01*
X109735159Y-123480952D01*
X109723336Y-123489720D01*
X109710710Y-123497288D01*
X109697403Y-123503582D01*
X109683543Y-123508541D01*
X109669264Y-123512118D01*
X109654703Y-123514278D01*
X109640000Y-123515000D01*
X107990000Y-123515000D01*
X107975297Y-123514278D01*
X107960736Y-123512118D01*
X107946457Y-123508541D01*
X107932597Y-123503582D01*
X107919290Y-123497288D01*
X107906664Y-123489720D01*
X107894841Y-123480952D01*
X107883934Y-123471066D01*
X107874048Y-123460159D01*
X107865280Y-123448336D01*
X107857712Y-123435710D01*
X107851418Y-123422403D01*
X107846459Y-123408543D01*
X107842882Y-123394264D01*
X107840722Y-123379703D01*
X107840000Y-123365000D01*
X107840000Y-123065000D01*
X107840722Y-123050297D01*
X107842882Y-123035736D01*
X107846459Y-123021457D01*
X107851418Y-123007597D01*
X107857712Y-122994290D01*
X107865280Y-122981664D01*
X107874048Y-122969841D01*
X107883934Y-122958934D01*
X107894841Y-122949048D01*
X107906664Y-122940280D01*
X107919290Y-122932712D01*
X107932597Y-122926418D01*
X107946457Y-122921459D01*
X107960736Y-122917882D01*
X107975297Y-122915722D01*
X107990000Y-122915000D01*
X109640000Y-122915000D01*
X109654703Y-122915722D01*
X109654703Y-122915722D01*
G37*
D24*
X108815000Y-123215000D03*
D10*
G36*
X109654703Y-124185722D02*
G01*
X109669264Y-124187882D01*
X109683543Y-124191459D01*
X109697403Y-124196418D01*
X109710710Y-124202712D01*
X109723336Y-124210280D01*
X109735159Y-124219048D01*
X109746066Y-124228934D01*
X109755952Y-124239841D01*
X109764720Y-124251664D01*
X109772288Y-124264290D01*
X109778582Y-124277597D01*
X109783541Y-124291457D01*
X109787118Y-124305736D01*
X109789278Y-124320297D01*
X109790000Y-124335000D01*
X109790000Y-124635000D01*
X109789278Y-124649703D01*
X109787118Y-124664264D01*
X109783541Y-124678543D01*
X109778582Y-124692403D01*
X109772288Y-124705710D01*
X109764720Y-124718336D01*
X109755952Y-124730159D01*
X109746066Y-124741066D01*
X109735159Y-124750952D01*
X109723336Y-124759720D01*
X109710710Y-124767288D01*
X109697403Y-124773582D01*
X109683543Y-124778541D01*
X109669264Y-124782118D01*
X109654703Y-124784278D01*
X109640000Y-124785000D01*
X107990000Y-124785000D01*
X107975297Y-124784278D01*
X107960736Y-124782118D01*
X107946457Y-124778541D01*
X107932597Y-124773582D01*
X107919290Y-124767288D01*
X107906664Y-124759720D01*
X107894841Y-124750952D01*
X107883934Y-124741066D01*
X107874048Y-124730159D01*
X107865280Y-124718336D01*
X107857712Y-124705710D01*
X107851418Y-124692403D01*
X107846459Y-124678543D01*
X107842882Y-124664264D01*
X107840722Y-124649703D01*
X107840000Y-124635000D01*
X107840000Y-124335000D01*
X107840722Y-124320297D01*
X107842882Y-124305736D01*
X107846459Y-124291457D01*
X107851418Y-124277597D01*
X107857712Y-124264290D01*
X107865280Y-124251664D01*
X107874048Y-124239841D01*
X107883934Y-124228934D01*
X107894841Y-124219048D01*
X107906664Y-124210280D01*
X107919290Y-124202712D01*
X107932597Y-124196418D01*
X107946457Y-124191459D01*
X107960736Y-124187882D01*
X107975297Y-124185722D01*
X107990000Y-124185000D01*
X109640000Y-124185000D01*
X109654703Y-124185722D01*
X109654703Y-124185722D01*
G37*
D24*
X108815000Y-124485000D03*
D10*
G36*
X109654703Y-125455722D02*
G01*
X109669264Y-125457882D01*
X109683543Y-125461459D01*
X109697403Y-125466418D01*
X109710710Y-125472712D01*
X109723336Y-125480280D01*
X109735159Y-125489048D01*
X109746066Y-125498934D01*
X109755952Y-125509841D01*
X109764720Y-125521664D01*
X109772288Y-125534290D01*
X109778582Y-125547597D01*
X109783541Y-125561457D01*
X109787118Y-125575736D01*
X109789278Y-125590297D01*
X109790000Y-125605000D01*
X109790000Y-125905000D01*
X109789278Y-125919703D01*
X109787118Y-125934264D01*
X109783541Y-125948543D01*
X109778582Y-125962403D01*
X109772288Y-125975710D01*
X109764720Y-125988336D01*
X109755952Y-126000159D01*
X109746066Y-126011066D01*
X109735159Y-126020952D01*
X109723336Y-126029720D01*
X109710710Y-126037288D01*
X109697403Y-126043582D01*
X109683543Y-126048541D01*
X109669264Y-126052118D01*
X109654703Y-126054278D01*
X109640000Y-126055000D01*
X107990000Y-126055000D01*
X107975297Y-126054278D01*
X107960736Y-126052118D01*
X107946457Y-126048541D01*
X107932597Y-126043582D01*
X107919290Y-126037288D01*
X107906664Y-126029720D01*
X107894841Y-126020952D01*
X107883934Y-126011066D01*
X107874048Y-126000159D01*
X107865280Y-125988336D01*
X107857712Y-125975710D01*
X107851418Y-125962403D01*
X107846459Y-125948543D01*
X107842882Y-125934264D01*
X107840722Y-125919703D01*
X107840000Y-125905000D01*
X107840000Y-125605000D01*
X107840722Y-125590297D01*
X107842882Y-125575736D01*
X107846459Y-125561457D01*
X107851418Y-125547597D01*
X107857712Y-125534290D01*
X107865280Y-125521664D01*
X107874048Y-125509841D01*
X107883934Y-125498934D01*
X107894841Y-125489048D01*
X107906664Y-125480280D01*
X107919290Y-125472712D01*
X107932597Y-125466418D01*
X107946457Y-125461459D01*
X107960736Y-125457882D01*
X107975297Y-125455722D01*
X107990000Y-125455000D01*
X109640000Y-125455000D01*
X109654703Y-125455722D01*
X109654703Y-125455722D01*
G37*
D24*
X108815000Y-125755000D03*
D10*
G36*
X109654703Y-126725722D02*
G01*
X109669264Y-126727882D01*
X109683543Y-126731459D01*
X109697403Y-126736418D01*
X109710710Y-126742712D01*
X109723336Y-126750280D01*
X109735159Y-126759048D01*
X109746066Y-126768934D01*
X109755952Y-126779841D01*
X109764720Y-126791664D01*
X109772288Y-126804290D01*
X109778582Y-126817597D01*
X109783541Y-126831457D01*
X109787118Y-126845736D01*
X109789278Y-126860297D01*
X109790000Y-126875000D01*
X109790000Y-127175000D01*
X109789278Y-127189703D01*
X109787118Y-127204264D01*
X109783541Y-127218543D01*
X109778582Y-127232403D01*
X109772288Y-127245710D01*
X109764720Y-127258336D01*
X109755952Y-127270159D01*
X109746066Y-127281066D01*
X109735159Y-127290952D01*
X109723336Y-127299720D01*
X109710710Y-127307288D01*
X109697403Y-127313582D01*
X109683543Y-127318541D01*
X109669264Y-127322118D01*
X109654703Y-127324278D01*
X109640000Y-127325000D01*
X107990000Y-127325000D01*
X107975297Y-127324278D01*
X107960736Y-127322118D01*
X107946457Y-127318541D01*
X107932597Y-127313582D01*
X107919290Y-127307288D01*
X107906664Y-127299720D01*
X107894841Y-127290952D01*
X107883934Y-127281066D01*
X107874048Y-127270159D01*
X107865280Y-127258336D01*
X107857712Y-127245710D01*
X107851418Y-127232403D01*
X107846459Y-127218543D01*
X107842882Y-127204264D01*
X107840722Y-127189703D01*
X107840000Y-127175000D01*
X107840000Y-126875000D01*
X107840722Y-126860297D01*
X107842882Y-126845736D01*
X107846459Y-126831457D01*
X107851418Y-126817597D01*
X107857712Y-126804290D01*
X107865280Y-126791664D01*
X107874048Y-126779841D01*
X107883934Y-126768934D01*
X107894841Y-126759048D01*
X107906664Y-126750280D01*
X107919290Y-126742712D01*
X107932597Y-126736418D01*
X107946457Y-126731459D01*
X107960736Y-126727882D01*
X107975297Y-126725722D01*
X107990000Y-126725000D01*
X109640000Y-126725000D01*
X109654703Y-126725722D01*
X109654703Y-126725722D01*
G37*
D24*
X108815000Y-127025000D03*
D10*
G36*
X109654703Y-127995722D02*
G01*
X109669264Y-127997882D01*
X109683543Y-128001459D01*
X109697403Y-128006418D01*
X109710710Y-128012712D01*
X109723336Y-128020280D01*
X109735159Y-128029048D01*
X109746066Y-128038934D01*
X109755952Y-128049841D01*
X109764720Y-128061664D01*
X109772288Y-128074290D01*
X109778582Y-128087597D01*
X109783541Y-128101457D01*
X109787118Y-128115736D01*
X109789278Y-128130297D01*
X109790000Y-128145000D01*
X109790000Y-128445000D01*
X109789278Y-128459703D01*
X109787118Y-128474264D01*
X109783541Y-128488543D01*
X109778582Y-128502403D01*
X109772288Y-128515710D01*
X109764720Y-128528336D01*
X109755952Y-128540159D01*
X109746066Y-128551066D01*
X109735159Y-128560952D01*
X109723336Y-128569720D01*
X109710710Y-128577288D01*
X109697403Y-128583582D01*
X109683543Y-128588541D01*
X109669264Y-128592118D01*
X109654703Y-128594278D01*
X109640000Y-128595000D01*
X107990000Y-128595000D01*
X107975297Y-128594278D01*
X107960736Y-128592118D01*
X107946457Y-128588541D01*
X107932597Y-128583582D01*
X107919290Y-128577288D01*
X107906664Y-128569720D01*
X107894841Y-128560952D01*
X107883934Y-128551066D01*
X107874048Y-128540159D01*
X107865280Y-128528336D01*
X107857712Y-128515710D01*
X107851418Y-128502403D01*
X107846459Y-128488543D01*
X107842882Y-128474264D01*
X107840722Y-128459703D01*
X107840000Y-128445000D01*
X107840000Y-128145000D01*
X107840722Y-128130297D01*
X107842882Y-128115736D01*
X107846459Y-128101457D01*
X107851418Y-128087597D01*
X107857712Y-128074290D01*
X107865280Y-128061664D01*
X107874048Y-128049841D01*
X107883934Y-128038934D01*
X107894841Y-128029048D01*
X107906664Y-128020280D01*
X107919290Y-128012712D01*
X107932597Y-128006418D01*
X107946457Y-128001459D01*
X107960736Y-127997882D01*
X107975297Y-127995722D01*
X107990000Y-127995000D01*
X109640000Y-127995000D01*
X109654703Y-127995722D01*
X109654703Y-127995722D01*
G37*
D24*
X108815000Y-128295000D03*
D10*
G36*
X109654703Y-129265722D02*
G01*
X109669264Y-129267882D01*
X109683543Y-129271459D01*
X109697403Y-129276418D01*
X109710710Y-129282712D01*
X109723336Y-129290280D01*
X109735159Y-129299048D01*
X109746066Y-129308934D01*
X109755952Y-129319841D01*
X109764720Y-129331664D01*
X109772288Y-129344290D01*
X109778582Y-129357597D01*
X109783541Y-129371457D01*
X109787118Y-129385736D01*
X109789278Y-129400297D01*
X109790000Y-129415000D01*
X109790000Y-129715000D01*
X109789278Y-129729703D01*
X109787118Y-129744264D01*
X109783541Y-129758543D01*
X109778582Y-129772403D01*
X109772288Y-129785710D01*
X109764720Y-129798336D01*
X109755952Y-129810159D01*
X109746066Y-129821066D01*
X109735159Y-129830952D01*
X109723336Y-129839720D01*
X109710710Y-129847288D01*
X109697403Y-129853582D01*
X109683543Y-129858541D01*
X109669264Y-129862118D01*
X109654703Y-129864278D01*
X109640000Y-129865000D01*
X107990000Y-129865000D01*
X107975297Y-129864278D01*
X107960736Y-129862118D01*
X107946457Y-129858541D01*
X107932597Y-129853582D01*
X107919290Y-129847288D01*
X107906664Y-129839720D01*
X107894841Y-129830952D01*
X107883934Y-129821066D01*
X107874048Y-129810159D01*
X107865280Y-129798336D01*
X107857712Y-129785710D01*
X107851418Y-129772403D01*
X107846459Y-129758543D01*
X107842882Y-129744264D01*
X107840722Y-129729703D01*
X107840000Y-129715000D01*
X107840000Y-129415000D01*
X107840722Y-129400297D01*
X107842882Y-129385736D01*
X107846459Y-129371457D01*
X107851418Y-129357597D01*
X107857712Y-129344290D01*
X107865280Y-129331664D01*
X107874048Y-129319841D01*
X107883934Y-129308934D01*
X107894841Y-129299048D01*
X107906664Y-129290280D01*
X107919290Y-129282712D01*
X107932597Y-129276418D01*
X107946457Y-129271459D01*
X107960736Y-129267882D01*
X107975297Y-129265722D01*
X107990000Y-129265000D01*
X109640000Y-129265000D01*
X109654703Y-129265722D01*
X109654703Y-129265722D01*
G37*
D24*
X108815000Y-129565000D03*
D10*
G36*
X109654703Y-130535722D02*
G01*
X109669264Y-130537882D01*
X109683543Y-130541459D01*
X109697403Y-130546418D01*
X109710710Y-130552712D01*
X109723336Y-130560280D01*
X109735159Y-130569048D01*
X109746066Y-130578934D01*
X109755952Y-130589841D01*
X109764720Y-130601664D01*
X109772288Y-130614290D01*
X109778582Y-130627597D01*
X109783541Y-130641457D01*
X109787118Y-130655736D01*
X109789278Y-130670297D01*
X109790000Y-130685000D01*
X109790000Y-130985000D01*
X109789278Y-130999703D01*
X109787118Y-131014264D01*
X109783541Y-131028543D01*
X109778582Y-131042403D01*
X109772288Y-131055710D01*
X109764720Y-131068336D01*
X109755952Y-131080159D01*
X109746066Y-131091066D01*
X109735159Y-131100952D01*
X109723336Y-131109720D01*
X109710710Y-131117288D01*
X109697403Y-131123582D01*
X109683543Y-131128541D01*
X109669264Y-131132118D01*
X109654703Y-131134278D01*
X109640000Y-131135000D01*
X107990000Y-131135000D01*
X107975297Y-131134278D01*
X107960736Y-131132118D01*
X107946457Y-131128541D01*
X107932597Y-131123582D01*
X107919290Y-131117288D01*
X107906664Y-131109720D01*
X107894841Y-131100952D01*
X107883934Y-131091066D01*
X107874048Y-131080159D01*
X107865280Y-131068336D01*
X107857712Y-131055710D01*
X107851418Y-131042403D01*
X107846459Y-131028543D01*
X107842882Y-131014264D01*
X107840722Y-130999703D01*
X107840000Y-130985000D01*
X107840000Y-130685000D01*
X107840722Y-130670297D01*
X107842882Y-130655736D01*
X107846459Y-130641457D01*
X107851418Y-130627597D01*
X107857712Y-130614290D01*
X107865280Y-130601664D01*
X107874048Y-130589841D01*
X107883934Y-130578934D01*
X107894841Y-130569048D01*
X107906664Y-130560280D01*
X107919290Y-130552712D01*
X107932597Y-130546418D01*
X107946457Y-130541459D01*
X107960736Y-130537882D01*
X107975297Y-130535722D01*
X107990000Y-130535000D01*
X109640000Y-130535000D01*
X109654703Y-130535722D01*
X109654703Y-130535722D01*
G37*
D24*
X108815000Y-130835000D03*
D10*
G36*
X104704703Y-130535722D02*
G01*
X104719264Y-130537882D01*
X104733543Y-130541459D01*
X104747403Y-130546418D01*
X104760710Y-130552712D01*
X104773336Y-130560280D01*
X104785159Y-130569048D01*
X104796066Y-130578934D01*
X104805952Y-130589841D01*
X104814720Y-130601664D01*
X104822288Y-130614290D01*
X104828582Y-130627597D01*
X104833541Y-130641457D01*
X104837118Y-130655736D01*
X104839278Y-130670297D01*
X104840000Y-130685000D01*
X104840000Y-130985000D01*
X104839278Y-130999703D01*
X104837118Y-131014264D01*
X104833541Y-131028543D01*
X104828582Y-131042403D01*
X104822288Y-131055710D01*
X104814720Y-131068336D01*
X104805952Y-131080159D01*
X104796066Y-131091066D01*
X104785159Y-131100952D01*
X104773336Y-131109720D01*
X104760710Y-131117288D01*
X104747403Y-131123582D01*
X104733543Y-131128541D01*
X104719264Y-131132118D01*
X104704703Y-131134278D01*
X104690000Y-131135000D01*
X103040000Y-131135000D01*
X103025297Y-131134278D01*
X103010736Y-131132118D01*
X102996457Y-131128541D01*
X102982597Y-131123582D01*
X102969290Y-131117288D01*
X102956664Y-131109720D01*
X102944841Y-131100952D01*
X102933934Y-131091066D01*
X102924048Y-131080159D01*
X102915280Y-131068336D01*
X102907712Y-131055710D01*
X102901418Y-131042403D01*
X102896459Y-131028543D01*
X102892882Y-131014264D01*
X102890722Y-130999703D01*
X102890000Y-130985000D01*
X102890000Y-130685000D01*
X102890722Y-130670297D01*
X102892882Y-130655736D01*
X102896459Y-130641457D01*
X102901418Y-130627597D01*
X102907712Y-130614290D01*
X102915280Y-130601664D01*
X102924048Y-130589841D01*
X102933934Y-130578934D01*
X102944841Y-130569048D01*
X102956664Y-130560280D01*
X102969290Y-130552712D01*
X102982597Y-130546418D01*
X102996457Y-130541459D01*
X103010736Y-130537882D01*
X103025297Y-130535722D01*
X103040000Y-130535000D01*
X104690000Y-130535000D01*
X104704703Y-130535722D01*
X104704703Y-130535722D01*
G37*
D24*
X103865000Y-130835000D03*
D10*
G36*
X104704703Y-129265722D02*
G01*
X104719264Y-129267882D01*
X104733543Y-129271459D01*
X104747403Y-129276418D01*
X104760710Y-129282712D01*
X104773336Y-129290280D01*
X104785159Y-129299048D01*
X104796066Y-129308934D01*
X104805952Y-129319841D01*
X104814720Y-129331664D01*
X104822288Y-129344290D01*
X104828582Y-129357597D01*
X104833541Y-129371457D01*
X104837118Y-129385736D01*
X104839278Y-129400297D01*
X104840000Y-129415000D01*
X104840000Y-129715000D01*
X104839278Y-129729703D01*
X104837118Y-129744264D01*
X104833541Y-129758543D01*
X104828582Y-129772403D01*
X104822288Y-129785710D01*
X104814720Y-129798336D01*
X104805952Y-129810159D01*
X104796066Y-129821066D01*
X104785159Y-129830952D01*
X104773336Y-129839720D01*
X104760710Y-129847288D01*
X104747403Y-129853582D01*
X104733543Y-129858541D01*
X104719264Y-129862118D01*
X104704703Y-129864278D01*
X104690000Y-129865000D01*
X103040000Y-129865000D01*
X103025297Y-129864278D01*
X103010736Y-129862118D01*
X102996457Y-129858541D01*
X102982597Y-129853582D01*
X102969290Y-129847288D01*
X102956664Y-129839720D01*
X102944841Y-129830952D01*
X102933934Y-129821066D01*
X102924048Y-129810159D01*
X102915280Y-129798336D01*
X102907712Y-129785710D01*
X102901418Y-129772403D01*
X102896459Y-129758543D01*
X102892882Y-129744264D01*
X102890722Y-129729703D01*
X102890000Y-129715000D01*
X102890000Y-129415000D01*
X102890722Y-129400297D01*
X102892882Y-129385736D01*
X102896459Y-129371457D01*
X102901418Y-129357597D01*
X102907712Y-129344290D01*
X102915280Y-129331664D01*
X102924048Y-129319841D01*
X102933934Y-129308934D01*
X102944841Y-129299048D01*
X102956664Y-129290280D01*
X102969290Y-129282712D01*
X102982597Y-129276418D01*
X102996457Y-129271459D01*
X103010736Y-129267882D01*
X103025297Y-129265722D01*
X103040000Y-129265000D01*
X104690000Y-129265000D01*
X104704703Y-129265722D01*
X104704703Y-129265722D01*
G37*
D24*
X103865000Y-129565000D03*
D10*
G36*
X104704703Y-127995722D02*
G01*
X104719264Y-127997882D01*
X104733543Y-128001459D01*
X104747403Y-128006418D01*
X104760710Y-128012712D01*
X104773336Y-128020280D01*
X104785159Y-128029048D01*
X104796066Y-128038934D01*
X104805952Y-128049841D01*
X104814720Y-128061664D01*
X104822288Y-128074290D01*
X104828582Y-128087597D01*
X104833541Y-128101457D01*
X104837118Y-128115736D01*
X104839278Y-128130297D01*
X104840000Y-128145000D01*
X104840000Y-128445000D01*
X104839278Y-128459703D01*
X104837118Y-128474264D01*
X104833541Y-128488543D01*
X104828582Y-128502403D01*
X104822288Y-128515710D01*
X104814720Y-128528336D01*
X104805952Y-128540159D01*
X104796066Y-128551066D01*
X104785159Y-128560952D01*
X104773336Y-128569720D01*
X104760710Y-128577288D01*
X104747403Y-128583582D01*
X104733543Y-128588541D01*
X104719264Y-128592118D01*
X104704703Y-128594278D01*
X104690000Y-128595000D01*
X103040000Y-128595000D01*
X103025297Y-128594278D01*
X103010736Y-128592118D01*
X102996457Y-128588541D01*
X102982597Y-128583582D01*
X102969290Y-128577288D01*
X102956664Y-128569720D01*
X102944841Y-128560952D01*
X102933934Y-128551066D01*
X102924048Y-128540159D01*
X102915280Y-128528336D01*
X102907712Y-128515710D01*
X102901418Y-128502403D01*
X102896459Y-128488543D01*
X102892882Y-128474264D01*
X102890722Y-128459703D01*
X102890000Y-128445000D01*
X102890000Y-128145000D01*
X102890722Y-128130297D01*
X102892882Y-128115736D01*
X102896459Y-128101457D01*
X102901418Y-128087597D01*
X102907712Y-128074290D01*
X102915280Y-128061664D01*
X102924048Y-128049841D01*
X102933934Y-128038934D01*
X102944841Y-128029048D01*
X102956664Y-128020280D01*
X102969290Y-128012712D01*
X102982597Y-128006418D01*
X102996457Y-128001459D01*
X103010736Y-127997882D01*
X103025297Y-127995722D01*
X103040000Y-127995000D01*
X104690000Y-127995000D01*
X104704703Y-127995722D01*
X104704703Y-127995722D01*
G37*
D24*
X103865000Y-128295000D03*
D10*
G36*
X104704703Y-126725722D02*
G01*
X104719264Y-126727882D01*
X104733543Y-126731459D01*
X104747403Y-126736418D01*
X104760710Y-126742712D01*
X104773336Y-126750280D01*
X104785159Y-126759048D01*
X104796066Y-126768934D01*
X104805952Y-126779841D01*
X104814720Y-126791664D01*
X104822288Y-126804290D01*
X104828582Y-126817597D01*
X104833541Y-126831457D01*
X104837118Y-126845736D01*
X104839278Y-126860297D01*
X104840000Y-126875000D01*
X104840000Y-127175000D01*
X104839278Y-127189703D01*
X104837118Y-127204264D01*
X104833541Y-127218543D01*
X104828582Y-127232403D01*
X104822288Y-127245710D01*
X104814720Y-127258336D01*
X104805952Y-127270159D01*
X104796066Y-127281066D01*
X104785159Y-127290952D01*
X104773336Y-127299720D01*
X104760710Y-127307288D01*
X104747403Y-127313582D01*
X104733543Y-127318541D01*
X104719264Y-127322118D01*
X104704703Y-127324278D01*
X104690000Y-127325000D01*
X103040000Y-127325000D01*
X103025297Y-127324278D01*
X103010736Y-127322118D01*
X102996457Y-127318541D01*
X102982597Y-127313582D01*
X102969290Y-127307288D01*
X102956664Y-127299720D01*
X102944841Y-127290952D01*
X102933934Y-127281066D01*
X102924048Y-127270159D01*
X102915280Y-127258336D01*
X102907712Y-127245710D01*
X102901418Y-127232403D01*
X102896459Y-127218543D01*
X102892882Y-127204264D01*
X102890722Y-127189703D01*
X102890000Y-127175000D01*
X102890000Y-126875000D01*
X102890722Y-126860297D01*
X102892882Y-126845736D01*
X102896459Y-126831457D01*
X102901418Y-126817597D01*
X102907712Y-126804290D01*
X102915280Y-126791664D01*
X102924048Y-126779841D01*
X102933934Y-126768934D01*
X102944841Y-126759048D01*
X102956664Y-126750280D01*
X102969290Y-126742712D01*
X102982597Y-126736418D01*
X102996457Y-126731459D01*
X103010736Y-126727882D01*
X103025297Y-126725722D01*
X103040000Y-126725000D01*
X104690000Y-126725000D01*
X104704703Y-126725722D01*
X104704703Y-126725722D01*
G37*
D24*
X103865000Y-127025000D03*
D10*
G36*
X104704703Y-125455722D02*
G01*
X104719264Y-125457882D01*
X104733543Y-125461459D01*
X104747403Y-125466418D01*
X104760710Y-125472712D01*
X104773336Y-125480280D01*
X104785159Y-125489048D01*
X104796066Y-125498934D01*
X104805952Y-125509841D01*
X104814720Y-125521664D01*
X104822288Y-125534290D01*
X104828582Y-125547597D01*
X104833541Y-125561457D01*
X104837118Y-125575736D01*
X104839278Y-125590297D01*
X104840000Y-125605000D01*
X104840000Y-125905000D01*
X104839278Y-125919703D01*
X104837118Y-125934264D01*
X104833541Y-125948543D01*
X104828582Y-125962403D01*
X104822288Y-125975710D01*
X104814720Y-125988336D01*
X104805952Y-126000159D01*
X104796066Y-126011066D01*
X104785159Y-126020952D01*
X104773336Y-126029720D01*
X104760710Y-126037288D01*
X104747403Y-126043582D01*
X104733543Y-126048541D01*
X104719264Y-126052118D01*
X104704703Y-126054278D01*
X104690000Y-126055000D01*
X103040000Y-126055000D01*
X103025297Y-126054278D01*
X103010736Y-126052118D01*
X102996457Y-126048541D01*
X102982597Y-126043582D01*
X102969290Y-126037288D01*
X102956664Y-126029720D01*
X102944841Y-126020952D01*
X102933934Y-126011066D01*
X102924048Y-126000159D01*
X102915280Y-125988336D01*
X102907712Y-125975710D01*
X102901418Y-125962403D01*
X102896459Y-125948543D01*
X102892882Y-125934264D01*
X102890722Y-125919703D01*
X102890000Y-125905000D01*
X102890000Y-125605000D01*
X102890722Y-125590297D01*
X102892882Y-125575736D01*
X102896459Y-125561457D01*
X102901418Y-125547597D01*
X102907712Y-125534290D01*
X102915280Y-125521664D01*
X102924048Y-125509841D01*
X102933934Y-125498934D01*
X102944841Y-125489048D01*
X102956664Y-125480280D01*
X102969290Y-125472712D01*
X102982597Y-125466418D01*
X102996457Y-125461459D01*
X103010736Y-125457882D01*
X103025297Y-125455722D01*
X103040000Y-125455000D01*
X104690000Y-125455000D01*
X104704703Y-125455722D01*
X104704703Y-125455722D01*
G37*
D24*
X103865000Y-125755000D03*
D10*
G36*
X104704703Y-124185722D02*
G01*
X104719264Y-124187882D01*
X104733543Y-124191459D01*
X104747403Y-124196418D01*
X104760710Y-124202712D01*
X104773336Y-124210280D01*
X104785159Y-124219048D01*
X104796066Y-124228934D01*
X104805952Y-124239841D01*
X104814720Y-124251664D01*
X104822288Y-124264290D01*
X104828582Y-124277597D01*
X104833541Y-124291457D01*
X104837118Y-124305736D01*
X104839278Y-124320297D01*
X104840000Y-124335000D01*
X104840000Y-124635000D01*
X104839278Y-124649703D01*
X104837118Y-124664264D01*
X104833541Y-124678543D01*
X104828582Y-124692403D01*
X104822288Y-124705710D01*
X104814720Y-124718336D01*
X104805952Y-124730159D01*
X104796066Y-124741066D01*
X104785159Y-124750952D01*
X104773336Y-124759720D01*
X104760710Y-124767288D01*
X104747403Y-124773582D01*
X104733543Y-124778541D01*
X104719264Y-124782118D01*
X104704703Y-124784278D01*
X104690000Y-124785000D01*
X103040000Y-124785000D01*
X103025297Y-124784278D01*
X103010736Y-124782118D01*
X102996457Y-124778541D01*
X102982597Y-124773582D01*
X102969290Y-124767288D01*
X102956664Y-124759720D01*
X102944841Y-124750952D01*
X102933934Y-124741066D01*
X102924048Y-124730159D01*
X102915280Y-124718336D01*
X102907712Y-124705710D01*
X102901418Y-124692403D01*
X102896459Y-124678543D01*
X102892882Y-124664264D01*
X102890722Y-124649703D01*
X102890000Y-124635000D01*
X102890000Y-124335000D01*
X102890722Y-124320297D01*
X102892882Y-124305736D01*
X102896459Y-124291457D01*
X102901418Y-124277597D01*
X102907712Y-124264290D01*
X102915280Y-124251664D01*
X102924048Y-124239841D01*
X102933934Y-124228934D01*
X102944841Y-124219048D01*
X102956664Y-124210280D01*
X102969290Y-124202712D01*
X102982597Y-124196418D01*
X102996457Y-124191459D01*
X103010736Y-124187882D01*
X103025297Y-124185722D01*
X103040000Y-124185000D01*
X104690000Y-124185000D01*
X104704703Y-124185722D01*
X104704703Y-124185722D01*
G37*
D24*
X103865000Y-124485000D03*
D10*
G36*
X104704703Y-122915722D02*
G01*
X104719264Y-122917882D01*
X104733543Y-122921459D01*
X104747403Y-122926418D01*
X104760710Y-122932712D01*
X104773336Y-122940280D01*
X104785159Y-122949048D01*
X104796066Y-122958934D01*
X104805952Y-122969841D01*
X104814720Y-122981664D01*
X104822288Y-122994290D01*
X104828582Y-123007597D01*
X104833541Y-123021457D01*
X104837118Y-123035736D01*
X104839278Y-123050297D01*
X104840000Y-123065000D01*
X104840000Y-123365000D01*
X104839278Y-123379703D01*
X104837118Y-123394264D01*
X104833541Y-123408543D01*
X104828582Y-123422403D01*
X104822288Y-123435710D01*
X104814720Y-123448336D01*
X104805952Y-123460159D01*
X104796066Y-123471066D01*
X104785159Y-123480952D01*
X104773336Y-123489720D01*
X104760710Y-123497288D01*
X104747403Y-123503582D01*
X104733543Y-123508541D01*
X104719264Y-123512118D01*
X104704703Y-123514278D01*
X104690000Y-123515000D01*
X103040000Y-123515000D01*
X103025297Y-123514278D01*
X103010736Y-123512118D01*
X102996457Y-123508541D01*
X102982597Y-123503582D01*
X102969290Y-123497288D01*
X102956664Y-123489720D01*
X102944841Y-123480952D01*
X102933934Y-123471066D01*
X102924048Y-123460159D01*
X102915280Y-123448336D01*
X102907712Y-123435710D01*
X102901418Y-123422403D01*
X102896459Y-123408543D01*
X102892882Y-123394264D01*
X102890722Y-123379703D01*
X102890000Y-123365000D01*
X102890000Y-123065000D01*
X102890722Y-123050297D01*
X102892882Y-123035736D01*
X102896459Y-123021457D01*
X102901418Y-123007597D01*
X102907712Y-122994290D01*
X102915280Y-122981664D01*
X102924048Y-122969841D01*
X102933934Y-122958934D01*
X102944841Y-122949048D01*
X102956664Y-122940280D01*
X102969290Y-122932712D01*
X102982597Y-122926418D01*
X102996457Y-122921459D01*
X103010736Y-122917882D01*
X103025297Y-122915722D01*
X103040000Y-122915000D01*
X104690000Y-122915000D01*
X104704703Y-122915722D01*
X104704703Y-122915722D01*
G37*
D24*
X103865000Y-123215000D03*
D10*
G36*
X104704703Y-121645722D02*
G01*
X104719264Y-121647882D01*
X104733543Y-121651459D01*
X104747403Y-121656418D01*
X104760710Y-121662712D01*
X104773336Y-121670280D01*
X104785159Y-121679048D01*
X104796066Y-121688934D01*
X104805952Y-121699841D01*
X104814720Y-121711664D01*
X104822288Y-121724290D01*
X104828582Y-121737597D01*
X104833541Y-121751457D01*
X104837118Y-121765736D01*
X104839278Y-121780297D01*
X104840000Y-121795000D01*
X104840000Y-122095000D01*
X104839278Y-122109703D01*
X104837118Y-122124264D01*
X104833541Y-122138543D01*
X104828582Y-122152403D01*
X104822288Y-122165710D01*
X104814720Y-122178336D01*
X104805952Y-122190159D01*
X104796066Y-122201066D01*
X104785159Y-122210952D01*
X104773336Y-122219720D01*
X104760710Y-122227288D01*
X104747403Y-122233582D01*
X104733543Y-122238541D01*
X104719264Y-122242118D01*
X104704703Y-122244278D01*
X104690000Y-122245000D01*
X103040000Y-122245000D01*
X103025297Y-122244278D01*
X103010736Y-122242118D01*
X102996457Y-122238541D01*
X102982597Y-122233582D01*
X102969290Y-122227288D01*
X102956664Y-122219720D01*
X102944841Y-122210952D01*
X102933934Y-122201066D01*
X102924048Y-122190159D01*
X102915280Y-122178336D01*
X102907712Y-122165710D01*
X102901418Y-122152403D01*
X102896459Y-122138543D01*
X102892882Y-122124264D01*
X102890722Y-122109703D01*
X102890000Y-122095000D01*
X102890000Y-121795000D01*
X102890722Y-121780297D01*
X102892882Y-121765736D01*
X102896459Y-121751457D01*
X102901418Y-121737597D01*
X102907712Y-121724290D01*
X102915280Y-121711664D01*
X102924048Y-121699841D01*
X102933934Y-121688934D01*
X102944841Y-121679048D01*
X102956664Y-121670280D01*
X102969290Y-121662712D01*
X102982597Y-121656418D01*
X102996457Y-121651459D01*
X103010736Y-121647882D01*
X103025297Y-121645722D01*
X103040000Y-121645000D01*
X104690000Y-121645000D01*
X104704703Y-121645722D01*
X104704703Y-121645722D01*
G37*
D24*
X103865000Y-121945000D03*
D10*
G36*
X109194505Y-119141204D02*
G01*
X109218773Y-119144804D01*
X109242572Y-119150765D01*
X109265671Y-119159030D01*
X109287850Y-119169520D01*
X109308893Y-119182132D01*
X109328599Y-119196747D01*
X109346777Y-119213223D01*
X109363253Y-119231401D01*
X109377868Y-119251107D01*
X109390480Y-119272150D01*
X109400970Y-119294329D01*
X109409235Y-119317428D01*
X109415196Y-119341227D01*
X109418796Y-119365495D01*
X109420000Y-119389999D01*
X109420000Y-120040001D01*
X109418796Y-120064505D01*
X109415196Y-120088773D01*
X109409235Y-120112572D01*
X109400970Y-120135671D01*
X109390480Y-120157850D01*
X109377868Y-120178893D01*
X109363253Y-120198599D01*
X109346777Y-120216777D01*
X109328599Y-120233253D01*
X109308893Y-120247868D01*
X109287850Y-120260480D01*
X109265671Y-120270970D01*
X109242572Y-120279235D01*
X109218773Y-120285196D01*
X109194505Y-120288796D01*
X109170001Y-120290000D01*
X108269999Y-120290000D01*
X108245495Y-120288796D01*
X108221227Y-120285196D01*
X108197428Y-120279235D01*
X108174329Y-120270970D01*
X108152150Y-120260480D01*
X108131107Y-120247868D01*
X108111401Y-120233253D01*
X108093223Y-120216777D01*
X108076747Y-120198599D01*
X108062132Y-120178893D01*
X108049520Y-120157850D01*
X108039030Y-120135671D01*
X108030765Y-120112572D01*
X108024804Y-120088773D01*
X108021204Y-120064505D01*
X108020000Y-120040001D01*
X108020000Y-119389999D01*
X108021204Y-119365495D01*
X108024804Y-119341227D01*
X108030765Y-119317428D01*
X108039030Y-119294329D01*
X108049520Y-119272150D01*
X108062132Y-119251107D01*
X108076747Y-119231401D01*
X108093223Y-119213223D01*
X108111401Y-119196747D01*
X108131107Y-119182132D01*
X108152150Y-119169520D01*
X108174329Y-119159030D01*
X108197428Y-119150765D01*
X108221227Y-119144804D01*
X108245495Y-119141204D01*
X108269999Y-119140000D01*
X109170001Y-119140000D01*
X109194505Y-119141204D01*
X109194505Y-119141204D01*
G37*
D11*
X108720000Y-119715000D03*
D10*
G36*
X109194505Y-117091204D02*
G01*
X109218773Y-117094804D01*
X109242572Y-117100765D01*
X109265671Y-117109030D01*
X109287850Y-117119520D01*
X109308893Y-117132132D01*
X109328599Y-117146747D01*
X109346777Y-117163223D01*
X109363253Y-117181401D01*
X109377868Y-117201107D01*
X109390480Y-117222150D01*
X109400970Y-117244329D01*
X109409235Y-117267428D01*
X109415196Y-117291227D01*
X109418796Y-117315495D01*
X109420000Y-117339999D01*
X109420000Y-117990001D01*
X109418796Y-118014505D01*
X109415196Y-118038773D01*
X109409235Y-118062572D01*
X109400970Y-118085671D01*
X109390480Y-118107850D01*
X109377868Y-118128893D01*
X109363253Y-118148599D01*
X109346777Y-118166777D01*
X109328599Y-118183253D01*
X109308893Y-118197868D01*
X109287850Y-118210480D01*
X109265671Y-118220970D01*
X109242572Y-118229235D01*
X109218773Y-118235196D01*
X109194505Y-118238796D01*
X109170001Y-118240000D01*
X108269999Y-118240000D01*
X108245495Y-118238796D01*
X108221227Y-118235196D01*
X108197428Y-118229235D01*
X108174329Y-118220970D01*
X108152150Y-118210480D01*
X108131107Y-118197868D01*
X108111401Y-118183253D01*
X108093223Y-118166777D01*
X108076747Y-118148599D01*
X108062132Y-118128893D01*
X108049520Y-118107850D01*
X108039030Y-118085671D01*
X108030765Y-118062572D01*
X108024804Y-118038773D01*
X108021204Y-118014505D01*
X108020000Y-117990001D01*
X108020000Y-117339999D01*
X108021204Y-117315495D01*
X108024804Y-117291227D01*
X108030765Y-117267428D01*
X108039030Y-117244329D01*
X108049520Y-117222150D01*
X108062132Y-117201107D01*
X108076747Y-117181401D01*
X108093223Y-117163223D01*
X108111401Y-117146747D01*
X108131107Y-117132132D01*
X108152150Y-117119520D01*
X108174329Y-117109030D01*
X108197428Y-117100765D01*
X108221227Y-117094804D01*
X108245495Y-117091204D01*
X108269999Y-117090000D01*
X109170001Y-117090000D01*
X109194505Y-117091204D01*
X109194505Y-117091204D01*
G37*
D11*
X108720000Y-117665000D03*
D10*
G36*
X159094505Y-92201204D02*
G01*
X159118773Y-92204804D01*
X159142572Y-92210765D01*
X159165671Y-92219030D01*
X159187850Y-92229520D01*
X159208893Y-92242132D01*
X159228599Y-92256747D01*
X159246777Y-92273223D01*
X159263253Y-92291401D01*
X159277868Y-92311107D01*
X159290480Y-92332150D01*
X159300970Y-92354329D01*
X159309235Y-92377428D01*
X159315196Y-92401227D01*
X159318796Y-92425495D01*
X159320000Y-92449999D01*
X159320000Y-93350001D01*
X159318796Y-93374505D01*
X159315196Y-93398773D01*
X159309235Y-93422572D01*
X159300970Y-93445671D01*
X159290480Y-93467850D01*
X159277868Y-93488893D01*
X159263253Y-93508599D01*
X159246777Y-93526777D01*
X159228599Y-93543253D01*
X159208893Y-93557868D01*
X159187850Y-93570480D01*
X159165671Y-93580970D01*
X159142572Y-93589235D01*
X159118773Y-93595196D01*
X159094505Y-93598796D01*
X159070001Y-93600000D01*
X158419999Y-93600000D01*
X158395495Y-93598796D01*
X158371227Y-93595196D01*
X158347428Y-93589235D01*
X158324329Y-93580970D01*
X158302150Y-93570480D01*
X158281107Y-93557868D01*
X158261401Y-93543253D01*
X158243223Y-93526777D01*
X158226747Y-93508599D01*
X158212132Y-93488893D01*
X158199520Y-93467850D01*
X158189030Y-93445671D01*
X158180765Y-93422572D01*
X158174804Y-93398773D01*
X158171204Y-93374505D01*
X158170000Y-93350001D01*
X158170000Y-92449999D01*
X158171204Y-92425495D01*
X158174804Y-92401227D01*
X158180765Y-92377428D01*
X158189030Y-92354329D01*
X158199520Y-92332150D01*
X158212132Y-92311107D01*
X158226747Y-92291401D01*
X158243223Y-92273223D01*
X158261401Y-92256747D01*
X158281107Y-92242132D01*
X158302150Y-92229520D01*
X158324329Y-92219030D01*
X158347428Y-92210765D01*
X158371227Y-92204804D01*
X158395495Y-92201204D01*
X158419999Y-92200000D01*
X159070001Y-92200000D01*
X159094505Y-92201204D01*
X159094505Y-92201204D01*
G37*
D11*
X158745000Y-92900000D03*
D10*
G36*
X157044505Y-92201204D02*
G01*
X157068773Y-92204804D01*
X157092572Y-92210765D01*
X157115671Y-92219030D01*
X157137850Y-92229520D01*
X157158893Y-92242132D01*
X157178599Y-92256747D01*
X157196777Y-92273223D01*
X157213253Y-92291401D01*
X157227868Y-92311107D01*
X157240480Y-92332150D01*
X157250970Y-92354329D01*
X157259235Y-92377428D01*
X157265196Y-92401227D01*
X157268796Y-92425495D01*
X157270000Y-92449999D01*
X157270000Y-93350001D01*
X157268796Y-93374505D01*
X157265196Y-93398773D01*
X157259235Y-93422572D01*
X157250970Y-93445671D01*
X157240480Y-93467850D01*
X157227868Y-93488893D01*
X157213253Y-93508599D01*
X157196777Y-93526777D01*
X157178599Y-93543253D01*
X157158893Y-93557868D01*
X157137850Y-93570480D01*
X157115671Y-93580970D01*
X157092572Y-93589235D01*
X157068773Y-93595196D01*
X157044505Y-93598796D01*
X157020001Y-93600000D01*
X156369999Y-93600000D01*
X156345495Y-93598796D01*
X156321227Y-93595196D01*
X156297428Y-93589235D01*
X156274329Y-93580970D01*
X156252150Y-93570480D01*
X156231107Y-93557868D01*
X156211401Y-93543253D01*
X156193223Y-93526777D01*
X156176747Y-93508599D01*
X156162132Y-93488893D01*
X156149520Y-93467850D01*
X156139030Y-93445671D01*
X156130765Y-93422572D01*
X156124804Y-93398773D01*
X156121204Y-93374505D01*
X156120000Y-93350001D01*
X156120000Y-92449999D01*
X156121204Y-92425495D01*
X156124804Y-92401227D01*
X156130765Y-92377428D01*
X156139030Y-92354329D01*
X156149520Y-92332150D01*
X156162132Y-92311107D01*
X156176747Y-92291401D01*
X156193223Y-92273223D01*
X156211401Y-92256747D01*
X156231107Y-92242132D01*
X156252150Y-92229520D01*
X156274329Y-92219030D01*
X156297428Y-92210765D01*
X156321227Y-92204804D01*
X156345495Y-92201204D01*
X156369999Y-92200000D01*
X157020001Y-92200000D01*
X157044505Y-92201204D01*
X157044505Y-92201204D01*
G37*
D11*
X156695000Y-92900000D03*
D10*
G36*
X157049505Y-95751204D02*
G01*
X157073773Y-95754804D01*
X157097572Y-95760765D01*
X157120671Y-95769030D01*
X157142850Y-95779520D01*
X157163893Y-95792132D01*
X157183599Y-95806747D01*
X157201777Y-95823223D01*
X157218253Y-95841401D01*
X157232868Y-95861107D01*
X157245480Y-95882150D01*
X157255970Y-95904329D01*
X157264235Y-95927428D01*
X157270196Y-95951227D01*
X157273796Y-95975495D01*
X157275000Y-95999999D01*
X157275000Y-96900001D01*
X157273796Y-96924505D01*
X157270196Y-96948773D01*
X157264235Y-96972572D01*
X157255970Y-96995671D01*
X157245480Y-97017850D01*
X157232868Y-97038893D01*
X157218253Y-97058599D01*
X157201777Y-97076777D01*
X157183599Y-97093253D01*
X157163893Y-97107868D01*
X157142850Y-97120480D01*
X157120671Y-97130970D01*
X157097572Y-97139235D01*
X157073773Y-97145196D01*
X157049505Y-97148796D01*
X157025001Y-97150000D01*
X156374999Y-97150000D01*
X156350495Y-97148796D01*
X156326227Y-97145196D01*
X156302428Y-97139235D01*
X156279329Y-97130970D01*
X156257150Y-97120480D01*
X156236107Y-97107868D01*
X156216401Y-97093253D01*
X156198223Y-97076777D01*
X156181747Y-97058599D01*
X156167132Y-97038893D01*
X156154520Y-97017850D01*
X156144030Y-96995671D01*
X156135765Y-96972572D01*
X156129804Y-96948773D01*
X156126204Y-96924505D01*
X156125000Y-96900001D01*
X156125000Y-95999999D01*
X156126204Y-95975495D01*
X156129804Y-95951227D01*
X156135765Y-95927428D01*
X156144030Y-95904329D01*
X156154520Y-95882150D01*
X156167132Y-95861107D01*
X156181747Y-95841401D01*
X156198223Y-95823223D01*
X156216401Y-95806747D01*
X156236107Y-95792132D01*
X156257150Y-95779520D01*
X156279329Y-95769030D01*
X156302428Y-95760765D01*
X156326227Y-95754804D01*
X156350495Y-95751204D01*
X156374999Y-95750000D01*
X157025001Y-95750000D01*
X157049505Y-95751204D01*
X157049505Y-95751204D01*
G37*
D11*
X156700000Y-96450000D03*
D10*
G36*
X159099505Y-95751204D02*
G01*
X159123773Y-95754804D01*
X159147572Y-95760765D01*
X159170671Y-95769030D01*
X159192850Y-95779520D01*
X159213893Y-95792132D01*
X159233599Y-95806747D01*
X159251777Y-95823223D01*
X159268253Y-95841401D01*
X159282868Y-95861107D01*
X159295480Y-95882150D01*
X159305970Y-95904329D01*
X159314235Y-95927428D01*
X159320196Y-95951227D01*
X159323796Y-95975495D01*
X159325000Y-95999999D01*
X159325000Y-96900001D01*
X159323796Y-96924505D01*
X159320196Y-96948773D01*
X159314235Y-96972572D01*
X159305970Y-96995671D01*
X159295480Y-97017850D01*
X159282868Y-97038893D01*
X159268253Y-97058599D01*
X159251777Y-97076777D01*
X159233599Y-97093253D01*
X159213893Y-97107868D01*
X159192850Y-97120480D01*
X159170671Y-97130970D01*
X159147572Y-97139235D01*
X159123773Y-97145196D01*
X159099505Y-97148796D01*
X159075001Y-97150000D01*
X158424999Y-97150000D01*
X158400495Y-97148796D01*
X158376227Y-97145196D01*
X158352428Y-97139235D01*
X158329329Y-97130970D01*
X158307150Y-97120480D01*
X158286107Y-97107868D01*
X158266401Y-97093253D01*
X158248223Y-97076777D01*
X158231747Y-97058599D01*
X158217132Y-97038893D01*
X158204520Y-97017850D01*
X158194030Y-96995671D01*
X158185765Y-96972572D01*
X158179804Y-96948773D01*
X158176204Y-96924505D01*
X158175000Y-96900001D01*
X158175000Y-95999999D01*
X158176204Y-95975495D01*
X158179804Y-95951227D01*
X158185765Y-95927428D01*
X158194030Y-95904329D01*
X158204520Y-95882150D01*
X158217132Y-95861107D01*
X158231747Y-95841401D01*
X158248223Y-95823223D01*
X158266401Y-95806747D01*
X158286107Y-95792132D01*
X158307150Y-95779520D01*
X158329329Y-95769030D01*
X158352428Y-95760765D01*
X158376227Y-95754804D01*
X158400495Y-95751204D01*
X158424999Y-95750000D01*
X159075001Y-95750000D01*
X159099505Y-95751204D01*
X159099505Y-95751204D01*
G37*
D11*
X158750000Y-96450000D03*
D10*
G36*
X134854505Y-127131204D02*
G01*
X134878773Y-127134804D01*
X134902572Y-127140765D01*
X134925671Y-127149030D01*
X134947850Y-127159520D01*
X134968893Y-127172132D01*
X134988599Y-127186747D01*
X135006777Y-127203223D01*
X135023253Y-127221401D01*
X135037868Y-127241107D01*
X135050480Y-127262150D01*
X135060970Y-127284329D01*
X135069235Y-127307428D01*
X135075196Y-127331227D01*
X135078796Y-127355495D01*
X135080000Y-127379999D01*
X135080000Y-128030001D01*
X135078796Y-128054505D01*
X135075196Y-128078773D01*
X135069235Y-128102572D01*
X135060970Y-128125671D01*
X135050480Y-128147850D01*
X135037868Y-128168893D01*
X135023253Y-128188599D01*
X135006777Y-128206777D01*
X134988599Y-128223253D01*
X134968893Y-128237868D01*
X134947850Y-128250480D01*
X134925671Y-128260970D01*
X134902572Y-128269235D01*
X134878773Y-128275196D01*
X134854505Y-128278796D01*
X134830001Y-128280000D01*
X133929999Y-128280000D01*
X133905495Y-128278796D01*
X133881227Y-128275196D01*
X133857428Y-128269235D01*
X133834329Y-128260970D01*
X133812150Y-128250480D01*
X133791107Y-128237868D01*
X133771401Y-128223253D01*
X133753223Y-128206777D01*
X133736747Y-128188599D01*
X133722132Y-128168893D01*
X133709520Y-128147850D01*
X133699030Y-128125671D01*
X133690765Y-128102572D01*
X133684804Y-128078773D01*
X133681204Y-128054505D01*
X133680000Y-128030001D01*
X133680000Y-127379999D01*
X133681204Y-127355495D01*
X133684804Y-127331227D01*
X133690765Y-127307428D01*
X133699030Y-127284329D01*
X133709520Y-127262150D01*
X133722132Y-127241107D01*
X133736747Y-127221401D01*
X133753223Y-127203223D01*
X133771401Y-127186747D01*
X133791107Y-127172132D01*
X133812150Y-127159520D01*
X133834329Y-127149030D01*
X133857428Y-127140765D01*
X133881227Y-127134804D01*
X133905495Y-127131204D01*
X133929999Y-127130000D01*
X134830001Y-127130000D01*
X134854505Y-127131204D01*
X134854505Y-127131204D01*
G37*
D11*
X134380000Y-127705000D03*
D10*
G36*
X134854505Y-129181204D02*
G01*
X134878773Y-129184804D01*
X134902572Y-129190765D01*
X134925671Y-129199030D01*
X134947850Y-129209520D01*
X134968893Y-129222132D01*
X134988599Y-129236747D01*
X135006777Y-129253223D01*
X135023253Y-129271401D01*
X135037868Y-129291107D01*
X135050480Y-129312150D01*
X135060970Y-129334329D01*
X135069235Y-129357428D01*
X135075196Y-129381227D01*
X135078796Y-129405495D01*
X135080000Y-129429999D01*
X135080000Y-130080001D01*
X135078796Y-130104505D01*
X135075196Y-130128773D01*
X135069235Y-130152572D01*
X135060970Y-130175671D01*
X135050480Y-130197850D01*
X135037868Y-130218893D01*
X135023253Y-130238599D01*
X135006777Y-130256777D01*
X134988599Y-130273253D01*
X134968893Y-130287868D01*
X134947850Y-130300480D01*
X134925671Y-130310970D01*
X134902572Y-130319235D01*
X134878773Y-130325196D01*
X134854505Y-130328796D01*
X134830001Y-130330000D01*
X133929999Y-130330000D01*
X133905495Y-130328796D01*
X133881227Y-130325196D01*
X133857428Y-130319235D01*
X133834329Y-130310970D01*
X133812150Y-130300480D01*
X133791107Y-130287868D01*
X133771401Y-130273253D01*
X133753223Y-130256777D01*
X133736747Y-130238599D01*
X133722132Y-130218893D01*
X133709520Y-130197850D01*
X133699030Y-130175671D01*
X133690765Y-130152572D01*
X133684804Y-130128773D01*
X133681204Y-130104505D01*
X133680000Y-130080001D01*
X133680000Y-129429999D01*
X133681204Y-129405495D01*
X133684804Y-129381227D01*
X133690765Y-129357428D01*
X133699030Y-129334329D01*
X133709520Y-129312150D01*
X133722132Y-129291107D01*
X133736747Y-129271401D01*
X133753223Y-129253223D01*
X133771401Y-129236747D01*
X133791107Y-129222132D01*
X133812150Y-129209520D01*
X133834329Y-129199030D01*
X133857428Y-129190765D01*
X133881227Y-129184804D01*
X133905495Y-129181204D01*
X133929999Y-129180000D01*
X134830001Y-129180000D01*
X134854505Y-129181204D01*
X134854505Y-129181204D01*
G37*
D11*
X134380000Y-129755000D03*
D29*
X129580000Y-112235000D03*
X127580000Y-113185000D03*
X127580000Y-111285000D03*
X127580000Y-123955000D03*
X127580000Y-125855000D03*
X129580000Y-124905000D03*
D10*
G36*
X123254505Y-119146204D02*
G01*
X123278773Y-119149804D01*
X123302572Y-119155765D01*
X123325671Y-119164030D01*
X123347850Y-119174520D01*
X123368893Y-119187132D01*
X123388599Y-119201747D01*
X123406777Y-119218223D01*
X123423253Y-119236401D01*
X123437868Y-119256107D01*
X123450480Y-119277150D01*
X123460970Y-119299329D01*
X123469235Y-119322428D01*
X123475196Y-119346227D01*
X123478796Y-119370495D01*
X123480000Y-119394999D01*
X123480000Y-120045001D01*
X123478796Y-120069505D01*
X123475196Y-120093773D01*
X123469235Y-120117572D01*
X123460970Y-120140671D01*
X123450480Y-120162850D01*
X123437868Y-120183893D01*
X123423253Y-120203599D01*
X123406777Y-120221777D01*
X123388599Y-120238253D01*
X123368893Y-120252868D01*
X123347850Y-120265480D01*
X123325671Y-120275970D01*
X123302572Y-120284235D01*
X123278773Y-120290196D01*
X123254505Y-120293796D01*
X123230001Y-120295000D01*
X122329999Y-120295000D01*
X122305495Y-120293796D01*
X122281227Y-120290196D01*
X122257428Y-120284235D01*
X122234329Y-120275970D01*
X122212150Y-120265480D01*
X122191107Y-120252868D01*
X122171401Y-120238253D01*
X122153223Y-120221777D01*
X122136747Y-120203599D01*
X122122132Y-120183893D01*
X122109520Y-120162850D01*
X122099030Y-120140671D01*
X122090765Y-120117572D01*
X122084804Y-120093773D01*
X122081204Y-120069505D01*
X122080000Y-120045001D01*
X122080000Y-119394999D01*
X122081204Y-119370495D01*
X122084804Y-119346227D01*
X122090765Y-119322428D01*
X122099030Y-119299329D01*
X122109520Y-119277150D01*
X122122132Y-119256107D01*
X122136747Y-119236401D01*
X122153223Y-119218223D01*
X122171401Y-119201747D01*
X122191107Y-119187132D01*
X122212150Y-119174520D01*
X122234329Y-119164030D01*
X122257428Y-119155765D01*
X122281227Y-119149804D01*
X122305495Y-119146204D01*
X122329999Y-119145000D01*
X123230001Y-119145000D01*
X123254505Y-119146204D01*
X123254505Y-119146204D01*
G37*
D11*
X122780000Y-119720000D03*
D10*
G36*
X123254505Y-117096204D02*
G01*
X123278773Y-117099804D01*
X123302572Y-117105765D01*
X123325671Y-117114030D01*
X123347850Y-117124520D01*
X123368893Y-117137132D01*
X123388599Y-117151747D01*
X123406777Y-117168223D01*
X123423253Y-117186401D01*
X123437868Y-117206107D01*
X123450480Y-117227150D01*
X123460970Y-117249329D01*
X123469235Y-117272428D01*
X123475196Y-117296227D01*
X123478796Y-117320495D01*
X123480000Y-117344999D01*
X123480000Y-117995001D01*
X123478796Y-118019505D01*
X123475196Y-118043773D01*
X123469235Y-118067572D01*
X123460970Y-118090671D01*
X123450480Y-118112850D01*
X123437868Y-118133893D01*
X123423253Y-118153599D01*
X123406777Y-118171777D01*
X123388599Y-118188253D01*
X123368893Y-118202868D01*
X123347850Y-118215480D01*
X123325671Y-118225970D01*
X123302572Y-118234235D01*
X123278773Y-118240196D01*
X123254505Y-118243796D01*
X123230001Y-118245000D01*
X122329999Y-118245000D01*
X122305495Y-118243796D01*
X122281227Y-118240196D01*
X122257428Y-118234235D01*
X122234329Y-118225970D01*
X122212150Y-118215480D01*
X122191107Y-118202868D01*
X122171401Y-118188253D01*
X122153223Y-118171777D01*
X122136747Y-118153599D01*
X122122132Y-118133893D01*
X122109520Y-118112850D01*
X122099030Y-118090671D01*
X122090765Y-118067572D01*
X122084804Y-118043773D01*
X122081204Y-118019505D01*
X122080000Y-117995001D01*
X122080000Y-117344999D01*
X122081204Y-117320495D01*
X122084804Y-117296227D01*
X122090765Y-117272428D01*
X122099030Y-117249329D01*
X122109520Y-117227150D01*
X122122132Y-117206107D01*
X122136747Y-117186401D01*
X122153223Y-117168223D01*
X122171401Y-117151747D01*
X122191107Y-117137132D01*
X122212150Y-117124520D01*
X122234329Y-117114030D01*
X122257428Y-117105765D01*
X122281227Y-117099804D01*
X122305495Y-117096204D01*
X122329999Y-117095000D01*
X123230001Y-117095000D01*
X123254505Y-117096204D01*
X123254505Y-117096204D01*
G37*
D11*
X122780000Y-117670000D03*
D10*
G36*
X123254505Y-122136204D02*
G01*
X123278773Y-122139804D01*
X123302572Y-122145765D01*
X123325671Y-122154030D01*
X123347850Y-122164520D01*
X123368893Y-122177132D01*
X123388599Y-122191747D01*
X123406777Y-122208223D01*
X123423253Y-122226401D01*
X123437868Y-122246107D01*
X123450480Y-122267150D01*
X123460970Y-122289329D01*
X123469235Y-122312428D01*
X123475196Y-122336227D01*
X123478796Y-122360495D01*
X123480000Y-122384999D01*
X123480000Y-123035001D01*
X123478796Y-123059505D01*
X123475196Y-123083773D01*
X123469235Y-123107572D01*
X123460970Y-123130671D01*
X123450480Y-123152850D01*
X123437868Y-123173893D01*
X123423253Y-123193599D01*
X123406777Y-123211777D01*
X123388599Y-123228253D01*
X123368893Y-123242868D01*
X123347850Y-123255480D01*
X123325671Y-123265970D01*
X123302572Y-123274235D01*
X123278773Y-123280196D01*
X123254505Y-123283796D01*
X123230001Y-123285000D01*
X122329999Y-123285000D01*
X122305495Y-123283796D01*
X122281227Y-123280196D01*
X122257428Y-123274235D01*
X122234329Y-123265970D01*
X122212150Y-123255480D01*
X122191107Y-123242868D01*
X122171401Y-123228253D01*
X122153223Y-123211777D01*
X122136747Y-123193599D01*
X122122132Y-123173893D01*
X122109520Y-123152850D01*
X122099030Y-123130671D01*
X122090765Y-123107572D01*
X122084804Y-123083773D01*
X122081204Y-123059505D01*
X122080000Y-123035001D01*
X122080000Y-122384999D01*
X122081204Y-122360495D01*
X122084804Y-122336227D01*
X122090765Y-122312428D01*
X122099030Y-122289329D01*
X122109520Y-122267150D01*
X122122132Y-122246107D01*
X122136747Y-122226401D01*
X122153223Y-122208223D01*
X122171401Y-122191747D01*
X122191107Y-122177132D01*
X122212150Y-122164520D01*
X122234329Y-122154030D01*
X122257428Y-122145765D01*
X122281227Y-122139804D01*
X122305495Y-122136204D01*
X122329999Y-122135000D01*
X123230001Y-122135000D01*
X123254505Y-122136204D01*
X123254505Y-122136204D01*
G37*
D11*
X122780000Y-122710000D03*
D10*
G36*
X123254505Y-124186204D02*
G01*
X123278773Y-124189804D01*
X123302572Y-124195765D01*
X123325671Y-124204030D01*
X123347850Y-124214520D01*
X123368893Y-124227132D01*
X123388599Y-124241747D01*
X123406777Y-124258223D01*
X123423253Y-124276401D01*
X123437868Y-124296107D01*
X123450480Y-124317150D01*
X123460970Y-124339329D01*
X123469235Y-124362428D01*
X123475196Y-124386227D01*
X123478796Y-124410495D01*
X123480000Y-124434999D01*
X123480000Y-125085001D01*
X123478796Y-125109505D01*
X123475196Y-125133773D01*
X123469235Y-125157572D01*
X123460970Y-125180671D01*
X123450480Y-125202850D01*
X123437868Y-125223893D01*
X123423253Y-125243599D01*
X123406777Y-125261777D01*
X123388599Y-125278253D01*
X123368893Y-125292868D01*
X123347850Y-125305480D01*
X123325671Y-125315970D01*
X123302572Y-125324235D01*
X123278773Y-125330196D01*
X123254505Y-125333796D01*
X123230001Y-125335000D01*
X122329999Y-125335000D01*
X122305495Y-125333796D01*
X122281227Y-125330196D01*
X122257428Y-125324235D01*
X122234329Y-125315970D01*
X122212150Y-125305480D01*
X122191107Y-125292868D01*
X122171401Y-125278253D01*
X122153223Y-125261777D01*
X122136747Y-125243599D01*
X122122132Y-125223893D01*
X122109520Y-125202850D01*
X122099030Y-125180671D01*
X122090765Y-125157572D01*
X122084804Y-125133773D01*
X122081204Y-125109505D01*
X122080000Y-125085001D01*
X122080000Y-124434999D01*
X122081204Y-124410495D01*
X122084804Y-124386227D01*
X122090765Y-124362428D01*
X122099030Y-124339329D01*
X122109520Y-124317150D01*
X122122132Y-124296107D01*
X122136747Y-124276401D01*
X122153223Y-124258223D01*
X122171401Y-124241747D01*
X122191107Y-124227132D01*
X122212150Y-124214520D01*
X122234329Y-124204030D01*
X122257428Y-124195765D01*
X122281227Y-124189804D01*
X122305495Y-124186204D01*
X122329999Y-124185000D01*
X123230001Y-124185000D01*
X123254505Y-124186204D01*
X123254505Y-124186204D01*
G37*
D11*
X122780000Y-124760000D03*
D15*
X128580000Y-116995000D03*
X128580000Y-120395000D03*
D10*
G36*
X134854505Y-119146204D02*
G01*
X134878773Y-119149804D01*
X134902572Y-119155765D01*
X134925671Y-119164030D01*
X134947850Y-119174520D01*
X134968893Y-119187132D01*
X134988599Y-119201747D01*
X135006777Y-119218223D01*
X135023253Y-119236401D01*
X135037868Y-119256107D01*
X135050480Y-119277150D01*
X135060970Y-119299329D01*
X135069235Y-119322428D01*
X135075196Y-119346227D01*
X135078796Y-119370495D01*
X135080000Y-119394999D01*
X135080000Y-120045001D01*
X135078796Y-120069505D01*
X135075196Y-120093773D01*
X135069235Y-120117572D01*
X135060970Y-120140671D01*
X135050480Y-120162850D01*
X135037868Y-120183893D01*
X135023253Y-120203599D01*
X135006777Y-120221777D01*
X134988599Y-120238253D01*
X134968893Y-120252868D01*
X134947850Y-120265480D01*
X134925671Y-120275970D01*
X134902572Y-120284235D01*
X134878773Y-120290196D01*
X134854505Y-120293796D01*
X134830001Y-120295000D01*
X133929999Y-120295000D01*
X133905495Y-120293796D01*
X133881227Y-120290196D01*
X133857428Y-120284235D01*
X133834329Y-120275970D01*
X133812150Y-120265480D01*
X133791107Y-120252868D01*
X133771401Y-120238253D01*
X133753223Y-120221777D01*
X133736747Y-120203599D01*
X133722132Y-120183893D01*
X133709520Y-120162850D01*
X133699030Y-120140671D01*
X133690765Y-120117572D01*
X133684804Y-120093773D01*
X133681204Y-120069505D01*
X133680000Y-120045001D01*
X133680000Y-119394999D01*
X133681204Y-119370495D01*
X133684804Y-119346227D01*
X133690765Y-119322428D01*
X133699030Y-119299329D01*
X133709520Y-119277150D01*
X133722132Y-119256107D01*
X133736747Y-119236401D01*
X133753223Y-119218223D01*
X133771401Y-119201747D01*
X133791107Y-119187132D01*
X133812150Y-119174520D01*
X133834329Y-119164030D01*
X133857428Y-119155765D01*
X133881227Y-119149804D01*
X133905495Y-119146204D01*
X133929999Y-119145000D01*
X134830001Y-119145000D01*
X134854505Y-119146204D01*
X134854505Y-119146204D01*
G37*
D11*
X134380000Y-119720000D03*
D10*
G36*
X134854505Y-117096204D02*
G01*
X134878773Y-117099804D01*
X134902572Y-117105765D01*
X134925671Y-117114030D01*
X134947850Y-117124520D01*
X134968893Y-117137132D01*
X134988599Y-117151747D01*
X135006777Y-117168223D01*
X135023253Y-117186401D01*
X135037868Y-117206107D01*
X135050480Y-117227150D01*
X135060970Y-117249329D01*
X135069235Y-117272428D01*
X135075196Y-117296227D01*
X135078796Y-117320495D01*
X135080000Y-117344999D01*
X135080000Y-117995001D01*
X135078796Y-118019505D01*
X135075196Y-118043773D01*
X135069235Y-118067572D01*
X135060970Y-118090671D01*
X135050480Y-118112850D01*
X135037868Y-118133893D01*
X135023253Y-118153599D01*
X135006777Y-118171777D01*
X134988599Y-118188253D01*
X134968893Y-118202868D01*
X134947850Y-118215480D01*
X134925671Y-118225970D01*
X134902572Y-118234235D01*
X134878773Y-118240196D01*
X134854505Y-118243796D01*
X134830001Y-118245000D01*
X133929999Y-118245000D01*
X133905495Y-118243796D01*
X133881227Y-118240196D01*
X133857428Y-118234235D01*
X133834329Y-118225970D01*
X133812150Y-118215480D01*
X133791107Y-118202868D01*
X133771401Y-118188253D01*
X133753223Y-118171777D01*
X133736747Y-118153599D01*
X133722132Y-118133893D01*
X133709520Y-118112850D01*
X133699030Y-118090671D01*
X133690765Y-118067572D01*
X133684804Y-118043773D01*
X133681204Y-118019505D01*
X133680000Y-117995001D01*
X133680000Y-117344999D01*
X133681204Y-117320495D01*
X133684804Y-117296227D01*
X133690765Y-117272428D01*
X133699030Y-117249329D01*
X133709520Y-117227150D01*
X133722132Y-117206107D01*
X133736747Y-117186401D01*
X133753223Y-117168223D01*
X133771401Y-117151747D01*
X133791107Y-117137132D01*
X133812150Y-117124520D01*
X133834329Y-117114030D01*
X133857428Y-117105765D01*
X133881227Y-117099804D01*
X133905495Y-117096204D01*
X133929999Y-117095000D01*
X134830001Y-117095000D01*
X134854505Y-117096204D01*
X134854505Y-117096204D01*
G37*
D11*
X134380000Y-117670000D03*
D10*
G36*
X123254505Y-129186204D02*
G01*
X123278773Y-129189804D01*
X123302572Y-129195765D01*
X123325671Y-129204030D01*
X123347850Y-129214520D01*
X123368893Y-129227132D01*
X123388599Y-129241747D01*
X123406777Y-129258223D01*
X123423253Y-129276401D01*
X123437868Y-129296107D01*
X123450480Y-129317150D01*
X123460970Y-129339329D01*
X123469235Y-129362428D01*
X123475196Y-129386227D01*
X123478796Y-129410495D01*
X123480000Y-129434999D01*
X123480000Y-130085001D01*
X123478796Y-130109505D01*
X123475196Y-130133773D01*
X123469235Y-130157572D01*
X123460970Y-130180671D01*
X123450480Y-130202850D01*
X123437868Y-130223893D01*
X123423253Y-130243599D01*
X123406777Y-130261777D01*
X123388599Y-130278253D01*
X123368893Y-130292868D01*
X123347850Y-130305480D01*
X123325671Y-130315970D01*
X123302572Y-130324235D01*
X123278773Y-130330196D01*
X123254505Y-130333796D01*
X123230001Y-130335000D01*
X122329999Y-130335000D01*
X122305495Y-130333796D01*
X122281227Y-130330196D01*
X122257428Y-130324235D01*
X122234329Y-130315970D01*
X122212150Y-130305480D01*
X122191107Y-130292868D01*
X122171401Y-130278253D01*
X122153223Y-130261777D01*
X122136747Y-130243599D01*
X122122132Y-130223893D01*
X122109520Y-130202850D01*
X122099030Y-130180671D01*
X122090765Y-130157572D01*
X122084804Y-130133773D01*
X122081204Y-130109505D01*
X122080000Y-130085001D01*
X122080000Y-129434999D01*
X122081204Y-129410495D01*
X122084804Y-129386227D01*
X122090765Y-129362428D01*
X122099030Y-129339329D01*
X122109520Y-129317150D01*
X122122132Y-129296107D01*
X122136747Y-129276401D01*
X122153223Y-129258223D01*
X122171401Y-129241747D01*
X122191107Y-129227132D01*
X122212150Y-129214520D01*
X122234329Y-129204030D01*
X122257428Y-129195765D01*
X122281227Y-129189804D01*
X122305495Y-129186204D01*
X122329999Y-129185000D01*
X123230001Y-129185000D01*
X123254505Y-129186204D01*
X123254505Y-129186204D01*
G37*
D11*
X122780000Y-129760000D03*
D10*
G36*
X123254505Y-127136204D02*
G01*
X123278773Y-127139804D01*
X123302572Y-127145765D01*
X123325671Y-127154030D01*
X123347850Y-127164520D01*
X123368893Y-127177132D01*
X123388599Y-127191747D01*
X123406777Y-127208223D01*
X123423253Y-127226401D01*
X123437868Y-127246107D01*
X123450480Y-127267150D01*
X123460970Y-127289329D01*
X123469235Y-127312428D01*
X123475196Y-127336227D01*
X123478796Y-127360495D01*
X123480000Y-127384999D01*
X123480000Y-128035001D01*
X123478796Y-128059505D01*
X123475196Y-128083773D01*
X123469235Y-128107572D01*
X123460970Y-128130671D01*
X123450480Y-128152850D01*
X123437868Y-128173893D01*
X123423253Y-128193599D01*
X123406777Y-128211777D01*
X123388599Y-128228253D01*
X123368893Y-128242868D01*
X123347850Y-128255480D01*
X123325671Y-128265970D01*
X123302572Y-128274235D01*
X123278773Y-128280196D01*
X123254505Y-128283796D01*
X123230001Y-128285000D01*
X122329999Y-128285000D01*
X122305495Y-128283796D01*
X122281227Y-128280196D01*
X122257428Y-128274235D01*
X122234329Y-128265970D01*
X122212150Y-128255480D01*
X122191107Y-128242868D01*
X122171401Y-128228253D01*
X122153223Y-128211777D01*
X122136747Y-128193599D01*
X122122132Y-128173893D01*
X122109520Y-128152850D01*
X122099030Y-128130671D01*
X122090765Y-128107572D01*
X122084804Y-128083773D01*
X122081204Y-128059505D01*
X122080000Y-128035001D01*
X122080000Y-127384999D01*
X122081204Y-127360495D01*
X122084804Y-127336227D01*
X122090765Y-127312428D01*
X122099030Y-127289329D01*
X122109520Y-127267150D01*
X122122132Y-127246107D01*
X122136747Y-127226401D01*
X122153223Y-127208223D01*
X122171401Y-127191747D01*
X122191107Y-127177132D01*
X122212150Y-127164520D01*
X122234329Y-127154030D01*
X122257428Y-127145765D01*
X122281227Y-127139804D01*
X122305495Y-127136204D01*
X122329999Y-127135000D01*
X123230001Y-127135000D01*
X123254505Y-127136204D01*
X123254505Y-127136204D01*
G37*
D11*
X122780000Y-127710000D03*
D10*
G36*
X123254505Y-132136204D02*
G01*
X123278773Y-132139804D01*
X123302572Y-132145765D01*
X123325671Y-132154030D01*
X123347850Y-132164520D01*
X123368893Y-132177132D01*
X123388599Y-132191747D01*
X123406777Y-132208223D01*
X123423253Y-132226401D01*
X123437868Y-132246107D01*
X123450480Y-132267150D01*
X123460970Y-132289329D01*
X123469235Y-132312428D01*
X123475196Y-132336227D01*
X123478796Y-132360495D01*
X123480000Y-132384999D01*
X123480000Y-133035001D01*
X123478796Y-133059505D01*
X123475196Y-133083773D01*
X123469235Y-133107572D01*
X123460970Y-133130671D01*
X123450480Y-133152850D01*
X123437868Y-133173893D01*
X123423253Y-133193599D01*
X123406777Y-133211777D01*
X123388599Y-133228253D01*
X123368893Y-133242868D01*
X123347850Y-133255480D01*
X123325671Y-133265970D01*
X123302572Y-133274235D01*
X123278773Y-133280196D01*
X123254505Y-133283796D01*
X123230001Y-133285000D01*
X122329999Y-133285000D01*
X122305495Y-133283796D01*
X122281227Y-133280196D01*
X122257428Y-133274235D01*
X122234329Y-133265970D01*
X122212150Y-133255480D01*
X122191107Y-133242868D01*
X122171401Y-133228253D01*
X122153223Y-133211777D01*
X122136747Y-133193599D01*
X122122132Y-133173893D01*
X122109520Y-133152850D01*
X122099030Y-133130671D01*
X122090765Y-133107572D01*
X122084804Y-133083773D01*
X122081204Y-133059505D01*
X122080000Y-133035001D01*
X122080000Y-132384999D01*
X122081204Y-132360495D01*
X122084804Y-132336227D01*
X122090765Y-132312428D01*
X122099030Y-132289329D01*
X122109520Y-132267150D01*
X122122132Y-132246107D01*
X122136747Y-132226401D01*
X122153223Y-132208223D01*
X122171401Y-132191747D01*
X122191107Y-132177132D01*
X122212150Y-132164520D01*
X122234329Y-132154030D01*
X122257428Y-132145765D01*
X122281227Y-132139804D01*
X122305495Y-132136204D01*
X122329999Y-132135000D01*
X123230001Y-132135000D01*
X123254505Y-132136204D01*
X123254505Y-132136204D01*
G37*
D11*
X122780000Y-132710000D03*
D10*
G36*
X123254505Y-134186204D02*
G01*
X123278773Y-134189804D01*
X123302572Y-134195765D01*
X123325671Y-134204030D01*
X123347850Y-134214520D01*
X123368893Y-134227132D01*
X123388599Y-134241747D01*
X123406777Y-134258223D01*
X123423253Y-134276401D01*
X123437868Y-134296107D01*
X123450480Y-134317150D01*
X123460970Y-134339329D01*
X123469235Y-134362428D01*
X123475196Y-134386227D01*
X123478796Y-134410495D01*
X123480000Y-134434999D01*
X123480000Y-135085001D01*
X123478796Y-135109505D01*
X123475196Y-135133773D01*
X123469235Y-135157572D01*
X123460970Y-135180671D01*
X123450480Y-135202850D01*
X123437868Y-135223893D01*
X123423253Y-135243599D01*
X123406777Y-135261777D01*
X123388599Y-135278253D01*
X123368893Y-135292868D01*
X123347850Y-135305480D01*
X123325671Y-135315970D01*
X123302572Y-135324235D01*
X123278773Y-135330196D01*
X123254505Y-135333796D01*
X123230001Y-135335000D01*
X122329999Y-135335000D01*
X122305495Y-135333796D01*
X122281227Y-135330196D01*
X122257428Y-135324235D01*
X122234329Y-135315970D01*
X122212150Y-135305480D01*
X122191107Y-135292868D01*
X122171401Y-135278253D01*
X122153223Y-135261777D01*
X122136747Y-135243599D01*
X122122132Y-135223893D01*
X122109520Y-135202850D01*
X122099030Y-135180671D01*
X122090765Y-135157572D01*
X122084804Y-135133773D01*
X122081204Y-135109505D01*
X122080000Y-135085001D01*
X122080000Y-134434999D01*
X122081204Y-134410495D01*
X122084804Y-134386227D01*
X122090765Y-134362428D01*
X122099030Y-134339329D01*
X122109520Y-134317150D01*
X122122132Y-134296107D01*
X122136747Y-134276401D01*
X122153223Y-134258223D01*
X122171401Y-134241747D01*
X122191107Y-134227132D01*
X122212150Y-134214520D01*
X122234329Y-134204030D01*
X122257428Y-134195765D01*
X122281227Y-134189804D01*
X122305495Y-134186204D01*
X122329999Y-134185000D01*
X123230001Y-134185000D01*
X123254505Y-134186204D01*
X123254505Y-134186204D01*
G37*
D11*
X122780000Y-134760000D03*
M02*
