M48
; DRILL file {KiCad (5.1.2)-1} date 28/9/2022 11:17:54
; FORMAT={-:-/ absolute / metric / decimal}
; #@! TF.CreationDate,2022-09-28T11:17:54-03:00
; #@! TF.GenerationSoftware,Kicad,Pcbnew,(5.1.2)-1
; #@! TF.FileFunction,Plated,1,2,PTH
FMAT,2
METRIC
T1C0.400
T2C0.600
T3C0.800
T4C0.890
T5C1.000
T6C1.300
T7C2.010
%
G90
G05
T1
X96.647Y-115.57
X101.092Y-134.366
X102.649Y-133.354
X104.099Y-133.35
X105.156Y-134.366
X106.172Y-123.19
X106.172Y-125.222
X112.014Y-118.364
X112.014Y-121.412
X118.93Y-116.975
X119.38Y-133.35
X120.65Y-129.286
X123.698Y-96.774
X124.714Y-121.666
X125.73Y-117.348
X136.525Y-130.048
X136.525Y-139.319
X136.652Y-104.648
X139.192Y-109.982
X147.574Y-104.648
X147.84Y-113.55
X150.368Y-99.06
X150.38Y-114.566
X155.448Y-115.316
X157.861Y-104.013
T2
X115.88Y-100.455
X115.88Y-102.455
T3
X115.48Y-126.235
X115.48Y-131.135
T4
X150.846Y-93.726
X153.386Y-93.726
X129.54Y-93.726
X132.08Y-93.726
T5
X115.88Y-87.495
X115.88Y-90.035
X124.46Y-111.506
X124.46Y-114.046
X146.939Y-139.255
X149.479Y-139.255
X94.234Y-111.506
X96.774Y-111.506
X101.092Y-89.154
X103.632Y-89.154
X95.758Y-119.253
X95.758Y-121.793
X124.714Y-99.568
X124.714Y-102.108
X106.629Y-82.753
X109.169Y-82.753
X117.094Y-111.506
X117.094Y-114.046
X139.129Y-139.319
X141.668Y-139.319
X136.779Y-113.665
X139.319Y-113.665
T6
X93.48Y-94.345
X93.48Y-99.345
T7
X148.306Y-88.646
X158.466Y-88.646
X127.0Y-88.646
X137.16Y-88.646
T0
M30
