G04 #@! TF.GenerationSoftware,KiCad,Pcbnew,(5.1.2)-1*
G04 #@! TF.CreationDate,2022-09-30T11:59:59-03:00*
G04 #@! TF.ProjectId,esp32,65737033-322e-46b6-9963-61645f706362,rev?*
G04 #@! TF.SameCoordinates,Original*
G04 #@! TF.FileFunction,Legend,Top*
G04 #@! TF.FilePolarity,Positive*
%FSLAX46Y46*%
G04 Gerber Fmt 4.6, Leading zero omitted, Abs format (unit mm)*
G04 Created by KiCad (PCBNEW (5.1.2)-1) date 2022-09-30 11:59:59*
%MOMM*%
%LPD*%
G04 APERTURE LIST*
%ADD10C,0.150000*%
%ADD11C,0.120000*%
%ADD12C,0.200000*%
%ADD13C,0.254000*%
G04 APERTURE END LIST*
D10*
X116406666Y-82582380D02*
X116978095Y-82582380D01*
X116692380Y-83582380D02*
X116692380Y-82582380D01*
X117692380Y-83534761D02*
X117597142Y-83582380D01*
X117406666Y-83582380D01*
X117311428Y-83534761D01*
X117263809Y-83439523D01*
X117263809Y-83058571D01*
X117311428Y-82963333D01*
X117406666Y-82915714D01*
X117597142Y-82915714D01*
X117692380Y-82963333D01*
X117740000Y-83058571D01*
X117740000Y-83153809D01*
X117263809Y-83249047D01*
X118168571Y-83582380D02*
X118168571Y-82915714D01*
X118168571Y-83010952D02*
X118216190Y-82963333D01*
X118311428Y-82915714D01*
X118454285Y-82915714D01*
X118549523Y-82963333D01*
X118597142Y-83058571D01*
X118597142Y-83582380D01*
X118597142Y-83058571D02*
X118644761Y-82963333D01*
X118740000Y-82915714D01*
X118882857Y-82915714D01*
X118978095Y-82963333D01*
X119025714Y-83058571D01*
X119025714Y-83582380D01*
X119501904Y-82915714D02*
X119501904Y-83915714D01*
X119501904Y-82963333D02*
X119597142Y-82915714D01*
X119787619Y-82915714D01*
X119882857Y-82963333D01*
X119930476Y-83010952D01*
X119978095Y-83106190D01*
X119978095Y-83391904D01*
X119930476Y-83487142D01*
X119882857Y-83534761D01*
X119787619Y-83582380D01*
X119597142Y-83582380D01*
X119501904Y-83534761D01*
X91532380Y-131248095D02*
X90532380Y-131248095D01*
X90532380Y-131010000D01*
X90580000Y-130867142D01*
X90675238Y-130771904D01*
X90770476Y-130724285D01*
X90960952Y-130676666D01*
X91103809Y-130676666D01*
X91294285Y-130724285D01*
X91389523Y-130771904D01*
X91484761Y-130867142D01*
X91532380Y-131010000D01*
X91532380Y-131248095D01*
X90532380Y-130343333D02*
X90532380Y-129724285D01*
X90913333Y-130057619D01*
X90913333Y-129914761D01*
X90960952Y-129819523D01*
X91008571Y-129771904D01*
X91103809Y-129724285D01*
X91341904Y-129724285D01*
X91437142Y-129771904D01*
X91484761Y-129819523D01*
X91532380Y-129914761D01*
X91532380Y-130200476D01*
X91484761Y-130295714D01*
X91437142Y-130343333D01*
X162345714Y-89765095D02*
X163345714Y-89765095D01*
X162393333Y-89765095D02*
X162345714Y-89669857D01*
X162345714Y-89479380D01*
X162393333Y-89384142D01*
X162440952Y-89336523D01*
X162536190Y-89288904D01*
X162821904Y-89288904D01*
X162917142Y-89336523D01*
X162964761Y-89384142D01*
X163012380Y-89479380D01*
X163012380Y-89669857D01*
X162964761Y-89765095D01*
X163012380Y-88860333D02*
X162012380Y-88860333D01*
X162488571Y-88860333D02*
X162488571Y-88288904D01*
X163012380Y-88288904D02*
X162012380Y-88288904D01*
X140930380Y-90249238D02*
X140930380Y-90058761D01*
X140978000Y-89963523D01*
X141073238Y-89868285D01*
X141263714Y-89820666D01*
X141597047Y-89820666D01*
X141787523Y-89868285D01*
X141882761Y-89963523D01*
X141930380Y-90058761D01*
X141930380Y-90249238D01*
X141882761Y-90344476D01*
X141787523Y-90439714D01*
X141597047Y-90487333D01*
X141263714Y-90487333D01*
X141073238Y-90439714D01*
X140978000Y-90344476D01*
X140930380Y-90249238D01*
X141930380Y-88820666D02*
X141454190Y-89154000D01*
X141930380Y-89392095D02*
X140930380Y-89392095D01*
X140930380Y-89011142D01*
X140978000Y-88915904D01*
X141025619Y-88868285D01*
X141120857Y-88820666D01*
X141263714Y-88820666D01*
X141358952Y-88868285D01*
X141406571Y-88915904D01*
X141454190Y-89011142D01*
X141454190Y-89392095D01*
X141930380Y-88392095D02*
X140930380Y-88392095D01*
X140930380Y-88011142D01*
X140978000Y-87915904D01*
X141025619Y-87868285D01*
X141120857Y-87820666D01*
X141263714Y-87820666D01*
X141358952Y-87868285D01*
X141406571Y-87915904D01*
X141454190Y-88011142D01*
X141454190Y-88392095D01*
X128490952Y-140328571D02*
X128633809Y-140376190D01*
X128681428Y-140423809D01*
X128729047Y-140519047D01*
X128729047Y-140661904D01*
X128681428Y-140757142D01*
X128633809Y-140804761D01*
X128538571Y-140852380D01*
X128157619Y-140852380D01*
X128157619Y-139852380D01*
X128490952Y-139852380D01*
X128586190Y-139900000D01*
X128633809Y-139947619D01*
X128681428Y-140042857D01*
X128681428Y-140138095D01*
X128633809Y-140233333D01*
X128586190Y-140280952D01*
X128490952Y-140328571D01*
X128157619Y-140328571D01*
X129300476Y-140852380D02*
X129205238Y-140804761D01*
X129157619Y-140757142D01*
X129110000Y-140661904D01*
X129110000Y-140376190D01*
X129157619Y-140280952D01*
X129205238Y-140233333D01*
X129300476Y-140185714D01*
X129443333Y-140185714D01*
X129538571Y-140233333D01*
X129586190Y-140280952D01*
X129633809Y-140376190D01*
X129633809Y-140661904D01*
X129586190Y-140757142D01*
X129538571Y-140804761D01*
X129443333Y-140852380D01*
X129300476Y-140852380D01*
X130205238Y-140852380D02*
X130110000Y-140804761D01*
X130062380Y-140757142D01*
X130014761Y-140661904D01*
X130014761Y-140376190D01*
X130062380Y-140280952D01*
X130110000Y-140233333D01*
X130205238Y-140185714D01*
X130348095Y-140185714D01*
X130443333Y-140233333D01*
X130490952Y-140280952D01*
X130538571Y-140376190D01*
X130538571Y-140661904D01*
X130490952Y-140757142D01*
X130443333Y-140804761D01*
X130348095Y-140852380D01*
X130205238Y-140852380D01*
X130824285Y-140185714D02*
X131205238Y-140185714D01*
X130967142Y-139852380D02*
X130967142Y-140709523D01*
X131014761Y-140804761D01*
X131110000Y-140852380D01*
X131205238Y-140852380D01*
D11*
X50000Y-1550000D02*
X50000Y250000D01*
X-60000Y-1100000D02*
X-60000Y750000D01*
D10*
X164452380Y-113912857D02*
X163452380Y-113912857D01*
X163452380Y-113531904D01*
X163500000Y-113436666D01*
X163547619Y-113389047D01*
X163642857Y-113341428D01*
X163785714Y-113341428D01*
X163880952Y-113389047D01*
X163928571Y-113436666D01*
X163976190Y-113531904D01*
X163976190Y-113912857D01*
X164452380Y-112770000D02*
X164404761Y-112865238D01*
X164357142Y-112912857D01*
X164261904Y-112960476D01*
X163976190Y-112960476D01*
X163880952Y-112912857D01*
X163833333Y-112865238D01*
X163785714Y-112770000D01*
X163785714Y-112627142D01*
X163833333Y-112531904D01*
X163880952Y-112484285D01*
X163976190Y-112436666D01*
X164261904Y-112436666D01*
X164357142Y-112484285D01*
X164404761Y-112531904D01*
X164452380Y-112627142D01*
X164452380Y-112770000D01*
X164452380Y-111865238D02*
X164404761Y-111960476D01*
X164357142Y-112008095D01*
X164261904Y-112055714D01*
X163976190Y-112055714D01*
X163880952Y-112008095D01*
X163833333Y-111960476D01*
X163785714Y-111865238D01*
X163785714Y-111722380D01*
X163833333Y-111627142D01*
X163880952Y-111579523D01*
X163976190Y-111531904D01*
X164261904Y-111531904D01*
X164357142Y-111579523D01*
X164404761Y-111627142D01*
X164452380Y-111722380D01*
X164452380Y-111865238D01*
X164452380Y-110960476D02*
X164404761Y-111055714D01*
X164309523Y-111103333D01*
X163452380Y-111103333D01*
X164166666Y-109865238D02*
X164166666Y-109389047D01*
X164452380Y-109960476D02*
X163452380Y-109627142D01*
X164452380Y-109293809D01*
X164404761Y-109008095D02*
X164452380Y-108912857D01*
X164452380Y-108722380D01*
X164404761Y-108627142D01*
X164309523Y-108579523D01*
X164261904Y-108579523D01*
X164166666Y-108627142D01*
X164119047Y-108722380D01*
X164119047Y-108865238D01*
X164071428Y-108960476D01*
X163976190Y-109008095D01*
X163928571Y-109008095D01*
X163833333Y-108960476D01*
X163785714Y-108865238D01*
X163785714Y-108722380D01*
X163833333Y-108627142D01*
X164404761Y-108198571D02*
X164452380Y-108103333D01*
X164452380Y-107912857D01*
X164404761Y-107817619D01*
X164309523Y-107770000D01*
X164261904Y-107770000D01*
X164166666Y-107817619D01*
X164119047Y-107912857D01*
X164119047Y-108055714D01*
X164071428Y-108150952D01*
X163976190Y-108198571D01*
X163928571Y-108198571D01*
X163833333Y-108150952D01*
X163785714Y-108055714D01*
X163785714Y-107912857D01*
X163833333Y-107817619D01*
X164452380Y-107341428D02*
X163785714Y-107341428D01*
X163452380Y-107341428D02*
X163500000Y-107389047D01*
X163547619Y-107341428D01*
X163500000Y-107293809D01*
X163452380Y-107341428D01*
X163547619Y-107341428D01*
X164404761Y-106912857D02*
X164452380Y-106817619D01*
X164452380Y-106627142D01*
X164404761Y-106531904D01*
X164309523Y-106484285D01*
X164261904Y-106484285D01*
X164166666Y-106531904D01*
X164119047Y-106627142D01*
X164119047Y-106770000D01*
X164071428Y-106865238D01*
X163976190Y-106912857D01*
X163928571Y-106912857D01*
X163833333Y-106865238D01*
X163785714Y-106770000D01*
X163785714Y-106627142D01*
X163833333Y-106531904D01*
X163785714Y-106198571D02*
X163785714Y-105817619D01*
X163452380Y-106055714D02*
X164309523Y-106055714D01*
X164404761Y-106008095D01*
X164452380Y-105912857D01*
X164452380Y-105817619D01*
X164452380Y-105055714D02*
X163928571Y-105055714D01*
X163833333Y-105103333D01*
X163785714Y-105198571D01*
X163785714Y-105389047D01*
X163833333Y-105484285D01*
X164404761Y-105055714D02*
X164452380Y-105150952D01*
X164452380Y-105389047D01*
X164404761Y-105484285D01*
X164309523Y-105531904D01*
X164214285Y-105531904D01*
X164119047Y-105484285D01*
X164071428Y-105389047D01*
X164071428Y-105150952D01*
X164023809Y-105055714D01*
X163785714Y-104579523D02*
X164452380Y-104579523D01*
X163880952Y-104579523D02*
X163833333Y-104531904D01*
X163785714Y-104436666D01*
X163785714Y-104293809D01*
X163833333Y-104198571D01*
X163928571Y-104150952D01*
X164452380Y-104150952D01*
X163785714Y-103817619D02*
X163785714Y-103436666D01*
X163452380Y-103674761D02*
X164309523Y-103674761D01*
X164404761Y-103627142D01*
X164452380Y-103531904D01*
X164452380Y-103436666D01*
X164452380Y-102341428D02*
X163452380Y-102341428D01*
X164452380Y-101722380D02*
X164404761Y-101817619D01*
X164357142Y-101865238D01*
X164261904Y-101912857D01*
X163976190Y-101912857D01*
X163880952Y-101865238D01*
X163833333Y-101817619D01*
X163785714Y-101722380D01*
X163785714Y-101579523D01*
X163833333Y-101484285D01*
X163880952Y-101436666D01*
X163976190Y-101389047D01*
X164261904Y-101389047D01*
X164357142Y-101436666D01*
X164404761Y-101484285D01*
X164452380Y-101579523D01*
X164452380Y-101722380D01*
X163452380Y-101103333D02*
X163452380Y-100531904D01*
X164452380Y-100817619D02*
X163452380Y-100817619D01*
X164071428Y-99436666D02*
X164071428Y-98674761D01*
X163452380Y-97579523D02*
X164452380Y-97246190D01*
X163452380Y-96912857D01*
X164357142Y-96579523D02*
X164404761Y-96531904D01*
X164452380Y-96579523D01*
X164404761Y-96627142D01*
X164357142Y-96579523D01*
X164452380Y-96579523D01*
X163547619Y-96150952D02*
X163500000Y-96103333D01*
X163452380Y-96008095D01*
X163452380Y-95770000D01*
X163500000Y-95674761D01*
X163547619Y-95627142D01*
X163642857Y-95579523D01*
X163738095Y-95579523D01*
X163880952Y-95627142D01*
X164452380Y-96198571D01*
X164452380Y-95579523D01*
X89839047Y-99326428D02*
X90600952Y-99326428D01*
X89799047Y-86936428D02*
X90560952Y-86936428D01*
X90180000Y-87317380D02*
X90180000Y-86555476D01*
X128371904Y-119662380D02*
X128038571Y-119186190D01*
X127800476Y-119662380D02*
X127800476Y-118662380D01*
X128181428Y-118662380D01*
X128276666Y-118710000D01*
X128324285Y-118757619D01*
X128371904Y-118852857D01*
X128371904Y-118995714D01*
X128324285Y-119090952D01*
X128276666Y-119138571D01*
X128181428Y-119186190D01*
X127800476Y-119186190D01*
X129181428Y-119614761D02*
X129086190Y-119662380D01*
X128895714Y-119662380D01*
X128800476Y-119614761D01*
X128752857Y-119519523D01*
X128752857Y-119138571D01*
X128800476Y-119043333D01*
X128895714Y-118995714D01*
X129086190Y-118995714D01*
X129181428Y-119043333D01*
X129229047Y-119138571D01*
X129229047Y-119233809D01*
X128752857Y-119329047D01*
X129610000Y-119614761D02*
X129705238Y-119662380D01*
X129895714Y-119662380D01*
X129990952Y-119614761D01*
X130038571Y-119519523D01*
X130038571Y-119471904D01*
X129990952Y-119376666D01*
X129895714Y-119329047D01*
X129752857Y-119329047D01*
X129657619Y-119281428D01*
X129610000Y-119186190D01*
X129610000Y-119138571D01*
X129657619Y-119043333D01*
X129752857Y-118995714D01*
X129895714Y-118995714D01*
X129990952Y-119043333D01*
X130848095Y-119614761D02*
X130752857Y-119662380D01*
X130562380Y-119662380D01*
X130467142Y-119614761D01*
X130419523Y-119519523D01*
X130419523Y-119138571D01*
X130467142Y-119043333D01*
X130562380Y-118995714D01*
X130752857Y-118995714D01*
X130848095Y-119043333D01*
X130895714Y-119138571D01*
X130895714Y-119233809D01*
X130419523Y-119329047D01*
X131181428Y-118995714D02*
X131562380Y-118995714D01*
X131324285Y-118662380D02*
X131324285Y-119519523D01*
X131371904Y-119614761D01*
X131467142Y-119662380D01*
X131562380Y-119662380D01*
D11*
X139200000Y-102650000D02*
X137250000Y-102650000D01*
X139200000Y-102650000D02*
X141150000Y-102650000D01*
X139200000Y-107770000D02*
X137250000Y-107770000D01*
X139200000Y-107770000D02*
X142650000Y-107770000D01*
X149138748Y-111110000D02*
X149661252Y-111110000D01*
X149138748Y-109690000D02*
X149661252Y-109690000D01*
X159190000Y-117118000D02*
X159190000Y-116738000D01*
X165610000Y-117118000D02*
X159190000Y-117118000D01*
X165610000Y-135358000D02*
X159190000Y-135358000D01*
X165610000Y-117118000D02*
X165610000Y-135358000D01*
X139865000Y-135358000D02*
X139865000Y-134358000D01*
X140645000Y-135358000D02*
X139865000Y-135358000D01*
X139865000Y-117118000D02*
X139865000Y-118118000D01*
X140645000Y-117118000D02*
X139865000Y-117118000D01*
X114415000Y-115460000D02*
X114415000Y-111400000D01*
X112145000Y-115460000D02*
X114415000Y-115460000D01*
X112145000Y-111400000D02*
X112145000Y-115460000D01*
X118975000Y-115460000D02*
X118975000Y-111400000D01*
X116705000Y-115460000D02*
X118975000Y-115460000D01*
X116705000Y-111400000D02*
X116705000Y-115460000D01*
X129030000Y-102650000D02*
X127080000Y-102650000D01*
X129030000Y-102650000D02*
X130980000Y-102650000D01*
X129030000Y-107770000D02*
X127080000Y-107770000D01*
X129030000Y-107770000D02*
X132480000Y-107770000D01*
X132380000Y-115670000D02*
X132380000Y-117000000D01*
X132380000Y-117000000D02*
X131050000Y-117000000D01*
X129780000Y-117000000D02*
X127180000Y-117000000D01*
X127180000Y-114340000D02*
X127180000Y-117000000D01*
X129780000Y-114340000D02*
X127180000Y-114340000D01*
X129780000Y-114340000D02*
X129780000Y-117000000D01*
X112910000Y-97700000D02*
X112910000Y-96370000D01*
X112910000Y-96370000D02*
X114240000Y-96370000D01*
X115510000Y-96370000D02*
X118110000Y-96370000D01*
X118110000Y-99030000D02*
X118110000Y-96370000D01*
X115510000Y-99030000D02*
X118110000Y-99030000D01*
X115510000Y-99030000D02*
X115510000Y-96370000D01*
X125410000Y-132061252D02*
X125410000Y-131538748D01*
X123990000Y-132061252D02*
X123990000Y-131538748D01*
X111951000Y-124880000D02*
X111951000Y-131130000D01*
X117001000Y-124880000D02*
X117001000Y-131130000D01*
X111951000Y-131130000D02*
G75*
G03X117001000Y-131130000I2525000J0D01*
G01*
X111951000Y-124880000D02*
G75*
G02X117001000Y-124880000I2525000J0D01*
G01*
X114075000Y-94089801D02*
X114475000Y-94089801D01*
X114275000Y-94289801D02*
X114275000Y-93889801D01*
X115100000Y-89939000D02*
X115840000Y-89939000D01*
X114933000Y-89979000D02*
X116007000Y-89979000D01*
X114806000Y-90019000D02*
X116134000Y-90019000D01*
X114702000Y-90059000D02*
X116238000Y-90059000D01*
X114611000Y-90099000D02*
X116329000Y-90099000D01*
X114530000Y-90139000D02*
X116410000Y-90139000D01*
X114457000Y-90179000D02*
X116483000Y-90179000D01*
X116310000Y-90219000D02*
X116550000Y-90219000D01*
X114390000Y-90219000D02*
X114630000Y-90219000D01*
X116310000Y-90259000D02*
X116612000Y-90259000D01*
X114328000Y-90259000D02*
X114630000Y-90259000D01*
X116310000Y-90299000D02*
X116670000Y-90299000D01*
X114270000Y-90299000D02*
X114630000Y-90299000D01*
X116310000Y-90339000D02*
X116724000Y-90339000D01*
X114216000Y-90339000D02*
X114630000Y-90339000D01*
X116310000Y-90379000D02*
X116774000Y-90379000D01*
X114166000Y-90379000D02*
X114630000Y-90379000D01*
X116310000Y-90419000D02*
X116821000Y-90419000D01*
X114119000Y-90419000D02*
X114630000Y-90419000D01*
X116310000Y-90459000D02*
X116866000Y-90459000D01*
X114074000Y-90459000D02*
X114630000Y-90459000D01*
X116310000Y-90499000D02*
X116908000Y-90499000D01*
X114032000Y-90499000D02*
X114630000Y-90499000D01*
X116310000Y-90539000D02*
X116948000Y-90539000D01*
X113992000Y-90539000D02*
X114630000Y-90539000D01*
X116310000Y-90579000D02*
X116986000Y-90579000D01*
X113954000Y-90579000D02*
X114630000Y-90579000D01*
X116310000Y-90619000D02*
X117022000Y-90619000D01*
X113918000Y-90619000D02*
X114630000Y-90619000D01*
X116310000Y-90659000D02*
X117057000Y-90659000D01*
X113883000Y-90659000D02*
X114630000Y-90659000D01*
X116310000Y-90699000D02*
X117089000Y-90699000D01*
X113851000Y-90699000D02*
X114630000Y-90699000D01*
X116310000Y-90739000D02*
X117120000Y-90739000D01*
X113820000Y-90739000D02*
X114630000Y-90739000D01*
X116310000Y-90779000D02*
X117150000Y-90779000D01*
X113790000Y-90779000D02*
X114630000Y-90779000D01*
X116310000Y-90819000D02*
X117178000Y-90819000D01*
X113762000Y-90819000D02*
X114630000Y-90819000D01*
X116310000Y-90859000D02*
X117205000Y-90859000D01*
X113735000Y-90859000D02*
X114630000Y-90859000D01*
X116310000Y-90899000D02*
X117230000Y-90899000D01*
X113710000Y-90899000D02*
X114630000Y-90899000D01*
X116310000Y-90939000D02*
X117255000Y-90939000D01*
X113685000Y-90939000D02*
X114630000Y-90939000D01*
X116310000Y-90979000D02*
X117278000Y-90979000D01*
X113662000Y-90979000D02*
X114630000Y-90979000D01*
X116310000Y-91019000D02*
X117300000Y-91019000D01*
X113640000Y-91019000D02*
X114630000Y-91019000D01*
X116310000Y-91059000D02*
X117321000Y-91059000D01*
X113619000Y-91059000D02*
X114630000Y-91059000D01*
X116310000Y-91099000D02*
X117340000Y-91099000D01*
X113600000Y-91099000D02*
X114630000Y-91099000D01*
X116310000Y-91139000D02*
X117359000Y-91139000D01*
X113581000Y-91139000D02*
X114630000Y-91139000D01*
X116310000Y-91179000D02*
X117377000Y-91179000D01*
X113563000Y-91179000D02*
X114630000Y-91179000D01*
X116310000Y-91219000D02*
X117394000Y-91219000D01*
X113546000Y-91219000D02*
X114630000Y-91219000D01*
X116310000Y-91259000D02*
X117410000Y-91259000D01*
X113530000Y-91259000D02*
X114630000Y-91259000D01*
X116310000Y-91299000D02*
X117424000Y-91299000D01*
X113516000Y-91299000D02*
X114630000Y-91299000D01*
X116310000Y-91340000D02*
X117438000Y-91340000D01*
X113502000Y-91340000D02*
X114630000Y-91340000D01*
X116310000Y-91380000D02*
X117452000Y-91380000D01*
X113488000Y-91380000D02*
X114630000Y-91380000D01*
X116310000Y-91420000D02*
X117464000Y-91420000D01*
X113476000Y-91420000D02*
X114630000Y-91420000D01*
X116310000Y-91460000D02*
X117475000Y-91460000D01*
X113465000Y-91460000D02*
X114630000Y-91460000D01*
X116310000Y-91500000D02*
X117486000Y-91500000D01*
X113454000Y-91500000D02*
X114630000Y-91500000D01*
X116310000Y-91540000D02*
X117495000Y-91540000D01*
X113445000Y-91540000D02*
X114630000Y-91540000D01*
X116310000Y-91580000D02*
X117504000Y-91580000D01*
X113436000Y-91580000D02*
X114630000Y-91580000D01*
X116310000Y-91620000D02*
X117512000Y-91620000D01*
X113428000Y-91620000D02*
X114630000Y-91620000D01*
X116310000Y-91660000D02*
X117520000Y-91660000D01*
X113420000Y-91660000D02*
X114630000Y-91660000D01*
X116310000Y-91700000D02*
X117526000Y-91700000D01*
X113414000Y-91700000D02*
X114630000Y-91700000D01*
X116310000Y-91740000D02*
X117532000Y-91740000D01*
X113408000Y-91740000D02*
X114630000Y-91740000D01*
X116310000Y-91780000D02*
X117537000Y-91780000D01*
X113403000Y-91780000D02*
X114630000Y-91780000D01*
X116310000Y-91820000D02*
X117541000Y-91820000D01*
X113399000Y-91820000D02*
X114630000Y-91820000D01*
X113396000Y-91860000D02*
X117544000Y-91860000D01*
X113393000Y-91900000D02*
X117547000Y-91900000D01*
X113391000Y-91940000D02*
X117549000Y-91940000D01*
X113390000Y-91980000D02*
X117550000Y-91980000D01*
X113390000Y-92020000D02*
X117550000Y-92020000D01*
X117590000Y-92020000D02*
G75*
G03X117590000Y-92020000I-2120000J0D01*
G01*
D10*
X91560000Y-107695000D02*
X91560000Y-109045000D01*
X94710000Y-107695000D02*
X94710000Y-103045000D01*
X91460000Y-107695000D02*
X91460000Y-103045000D01*
X94710000Y-107695000D02*
X94510000Y-107695000D01*
X94710000Y-103045000D02*
X94510000Y-103045000D01*
X91460000Y-103045000D02*
X91660000Y-103045000D01*
X91460000Y-107695000D02*
X91560000Y-107695000D01*
D11*
X93860000Y-125400000D02*
X92460000Y-125400000D01*
X91760000Y-124700000D02*
X91760000Y-124100000D01*
X92460000Y-123400000D02*
X93860000Y-123400000D01*
X94560000Y-124100000D02*
X94560000Y-124700000D01*
X94560000Y-124700000D02*
G75*
G02X93860000Y-125400000I-700000J0D01*
G01*
X93860000Y-123400000D02*
G75*
G02X94560000Y-124100000I0J-700000D01*
G01*
X91760000Y-124100000D02*
G75*
G02X92460000Y-123400000I700000J0D01*
G01*
X92460000Y-125400000D02*
G75*
G02X91760000Y-124700000I0J700000D01*
G01*
D12*
X91862000Y-127980000D02*
X91862000Y-133020000D01*
X94458000Y-133020000D02*
X94458000Y-127675000D01*
D11*
X103390000Y-90318748D02*
X103390000Y-90841252D01*
X104810000Y-90318748D02*
X104810000Y-90841252D01*
X100040000Y-101220000D02*
X97090000Y-101220000D01*
X98240000Y-104440000D02*
X100040000Y-104440000D01*
X98526600Y-143243300D02*
X107721400Y-143243300D01*
X107721400Y-143243300D02*
X107721400Y-141712293D01*
X98526600Y-137684692D02*
X98526600Y-139339109D01*
X98526600Y-141712293D02*
X98526600Y-143243300D01*
X107721400Y-139339109D02*
X107721400Y-137684692D01*
X96390000Y-137499252D02*
X96390000Y-136976748D01*
X94970000Y-137499252D02*
X94970000Y-136976748D01*
X111708000Y-137499252D02*
X111708000Y-136976748D01*
X110288000Y-137499252D02*
X110288000Y-136976748D01*
X112160000Y-85730000D02*
X112160000Y-87060000D01*
X112160000Y-87060000D02*
X110830000Y-87060000D01*
X109560000Y-87060000D02*
X106960000Y-87060000D01*
X106960000Y-84400000D02*
X106960000Y-87060000D01*
X109560000Y-84400000D02*
X106960000Y-84400000D01*
X109560000Y-84400000D02*
X109560000Y-87060000D01*
X145609000Y-139255500D02*
X145609000Y-137925500D01*
X145609000Y-137925500D02*
X146939000Y-137925500D01*
X148209000Y-137925500D02*
X150809000Y-137925500D01*
X150809000Y-140585500D02*
X150809000Y-137925500D01*
X148209000Y-140585500D02*
X150809000Y-140585500D01*
X148209000Y-140585500D02*
X148209000Y-137925500D01*
X142998500Y-139319000D02*
X142998500Y-140649000D01*
X142998500Y-140649000D02*
X141668500Y-140649000D01*
X140398500Y-140649000D02*
X137798500Y-140649000D01*
X137798500Y-137989000D02*
X137798500Y-140649000D01*
X140398500Y-137989000D02*
X137798500Y-137989000D01*
X140398500Y-137989000D02*
X140398500Y-140649000D01*
X100750000Y-130070000D02*
X98090000Y-130070000D01*
X100750000Y-130070000D02*
X100750000Y-127470000D01*
X100750000Y-127470000D02*
X98090000Y-127470000D01*
X98090000Y-130070000D02*
X98090000Y-127470000D01*
X98090000Y-132670000D02*
X98090000Y-131340000D01*
X99420000Y-132670000D02*
X98090000Y-132670000D01*
X127760000Y-121690000D02*
X131460000Y-121690000D01*
X127760000Y-127810000D02*
X127760000Y-121690000D01*
X131460000Y-127810000D02*
X127760000Y-127810000D01*
X131460000Y-121690000D02*
X131460000Y-127810000D01*
X132080000Y-81226000D02*
X133080000Y-82226000D01*
X132080000Y-81226000D02*
X131080000Y-82226000D01*
X124580000Y-96026000D02*
X124580000Y-81026000D01*
X139580000Y-96026000D02*
X124580000Y-96026000D01*
X139580000Y-81026000D02*
X139580000Y-96026000D01*
X124580000Y-81026000D02*
X139580000Y-81026000D01*
X153386000Y-81226000D02*
X154386000Y-82226000D01*
X153386000Y-81226000D02*
X152386000Y-82226000D01*
X145886000Y-96026000D02*
X145886000Y-81026000D01*
X160886000Y-96026000D02*
X145886000Y-96026000D01*
X160886000Y-81026000D02*
X160886000Y-96026000D01*
X145886000Y-81026000D02*
X160886000Y-81026000D01*
X106340000Y-121330000D02*
X102890000Y-121330000D01*
X106340000Y-121330000D02*
X108290000Y-121330000D01*
X106340000Y-131450000D02*
X104390000Y-131450000D01*
X106340000Y-131450000D02*
X108290000Y-131450000D01*
X149400000Y-107770000D02*
X152850000Y-107770000D01*
X149400000Y-107770000D02*
X147450000Y-107770000D01*
X149400000Y-102650000D02*
X151350000Y-102650000D01*
X149400000Y-102650000D02*
X147450000Y-102650000D01*
X115660000Y-87060000D02*
X115660000Y-85730000D01*
X116990000Y-87060000D02*
X115660000Y-87060000D01*
X118260000Y-87060000D02*
X118260000Y-84400000D01*
X118260000Y-84400000D02*
X120860000Y-84400000D01*
X118260000Y-87060000D02*
X120860000Y-87060000D01*
X120860000Y-87060000D02*
X120860000Y-84400000D01*
X91810000Y-116470000D02*
X93140000Y-116470000D01*
X91810000Y-117800000D02*
X91810000Y-116470000D01*
X91810000Y-119070000D02*
X94470000Y-119070000D01*
X94470000Y-119070000D02*
X94470000Y-121670000D01*
X91810000Y-119070000D02*
X91810000Y-121670000D01*
X91810000Y-121670000D02*
X94470000Y-121670000D01*
X131460000Y-137960000D02*
X127760000Y-137960000D01*
X131460000Y-131840000D02*
X131460000Y-137960000D01*
X127760000Y-131840000D02*
X131460000Y-131840000D01*
X127760000Y-137960000D02*
X127760000Y-131840000D01*
X137961252Y-99250000D02*
X137438748Y-99250000D01*
X137961252Y-100670000D02*
X137438748Y-100670000D01*
X143288748Y-100670000D02*
X143811252Y-100670000D01*
X143288748Y-99250000D02*
X143811252Y-99250000D01*
X132111252Y-109690000D02*
X131588748Y-109690000D01*
X132111252Y-111110000D02*
X131588748Y-111110000D01*
X132111252Y-99250000D02*
X131588748Y-99250000D01*
X132111252Y-100670000D02*
X131588748Y-100670000D01*
X125738748Y-111110000D02*
X126261252Y-111110000D01*
X125738748Y-109690000D02*
X126261252Y-109690000D01*
X126261252Y-99250000D02*
X125738748Y-99250000D01*
X126261252Y-100670000D02*
X125738748Y-100670000D01*
X137961252Y-111110000D02*
X137438748Y-111110000D01*
X137961252Y-109690000D02*
X137438748Y-109690000D01*
X108010000Y-107849748D02*
X108010000Y-108372252D01*
X109430000Y-107849748D02*
X109430000Y-108372252D01*
X108010000Y-103091252D02*
X108010000Y-102568748D01*
X109430000Y-103091252D02*
X109430000Y-102568748D01*
X149661252Y-99250000D02*
X149138748Y-99250000D01*
X149661252Y-100670000D02*
X149138748Y-100670000D01*
X143288748Y-111110000D02*
X143811252Y-111110000D01*
X143288748Y-109690000D02*
X143811252Y-109690000D01*
X112920000Y-109080000D02*
X112920000Y-107750000D01*
X114250000Y-109080000D02*
X112920000Y-109080000D01*
X115520000Y-109080000D02*
X115520000Y-106420000D01*
X115520000Y-106420000D02*
X118120000Y-106420000D01*
X115520000Y-109080000D02*
X118120000Y-109080000D01*
X118120000Y-109080000D02*
X118120000Y-106420000D01*
X118170000Y-104060000D02*
X118170000Y-101400000D01*
X115570000Y-104060000D02*
X118170000Y-104060000D01*
X115570000Y-101400000D02*
X118170000Y-101400000D01*
X115570000Y-104060000D02*
X115570000Y-101400000D01*
X114300000Y-104060000D02*
X112970000Y-104060000D01*
X112970000Y-104060000D02*
X112970000Y-102730000D01*
X106380000Y-98865000D02*
X109830000Y-98865000D01*
X106380000Y-98865000D02*
X104430000Y-98865000D01*
X106380000Y-93745000D02*
X108330000Y-93745000D01*
X106380000Y-93745000D02*
X104430000Y-93745000D01*
X108010000Y-90318748D02*
X108010000Y-90841252D01*
X109430000Y-90318748D02*
X109430000Y-90841252D01*
X117130000Y-118428748D02*
X117130000Y-118951252D01*
X118550000Y-118428748D02*
X118550000Y-118951252D01*
X121690000Y-118418748D02*
X121690000Y-118941252D01*
X123110000Y-118418748D02*
X123110000Y-118941252D01*
X100130000Y-113138748D02*
X100130000Y-113661252D01*
X98710000Y-113138748D02*
X98710000Y-113661252D01*
X89030000Y-88015000D02*
X89030000Y-90015000D01*
X91270000Y-88015000D02*
X89030000Y-88015000D01*
X92354000Y-94635000D02*
X92261000Y-94541000D01*
X94605000Y-96885000D02*
X94546000Y-96826000D01*
X92114000Y-94805000D02*
X92056000Y-94746000D01*
X94399000Y-97090000D02*
X94306000Y-96996000D01*
X97390000Y-98375000D02*
X89270000Y-98375000D01*
X97390000Y-88255000D02*
X89270000Y-88255000D01*
X89270000Y-88255000D02*
X89270000Y-98375000D01*
X97390000Y-88255000D02*
X97390000Y-98375000D01*
X95330000Y-88255000D02*
X95330000Y-98375000D01*
X91330000Y-88255000D02*
X91330000Y-98375000D01*
X95010000Y-95815000D02*
G75*
G03X95010000Y-95815000I-1680000J0D01*
G01*
X91649550Y-90844383D02*
G75*
G02X91846000Y-90026000I1680450J29383D01*
G01*
X92540912Y-89331047D02*
G75*
G02X94119000Y-89331000I789088J-1483953D01*
G01*
X94813953Y-90025912D02*
G75*
G02X94814000Y-91604000I-1483953J-789088D01*
G01*
X94119088Y-92298953D02*
G75*
G02X92541000Y-92299000I-789088J1483953D01*
G01*
X91846648Y-91603712D02*
G75*
G02X91650000Y-90815000I1483352J788712D01*
G01*
X104740000Y-102568748D02*
X104740000Y-103091252D01*
X103320000Y-102568748D02*
X103320000Y-103091252D01*
X100130000Y-118946252D02*
X100130000Y-118423748D01*
X98710000Y-118946252D02*
X98710000Y-118423748D01*
X103290000Y-107849748D02*
X103290000Y-108372252D01*
X104710000Y-107849748D02*
X104710000Y-108372252D01*
X92450000Y-113138748D02*
X92450000Y-113661252D01*
X93870000Y-113138748D02*
X93870000Y-113661252D01*
X106340000Y-110615000D02*
X102890000Y-110615000D01*
X106340000Y-110615000D02*
X108290000Y-110615000D01*
X106340000Y-115735000D02*
X104390000Y-115735000D01*
X106340000Y-115735000D02*
X108290000Y-115735000D01*
X103350000Y-85670000D02*
X103350000Y-87000000D01*
X103350000Y-87000000D02*
X102020000Y-87000000D01*
X100750000Y-87000000D02*
X98150000Y-87000000D01*
X98150000Y-84340000D02*
X98150000Y-87000000D01*
X100750000Y-84340000D02*
X98150000Y-84340000D01*
X100750000Y-84340000D02*
X100750000Y-87000000D01*
X113990000Y-118428748D02*
X113990000Y-118951252D01*
X112570000Y-118428748D02*
X112570000Y-118951252D01*
X100000000Y-90318748D02*
X100000000Y-90841252D01*
X98580000Y-90318748D02*
X98580000Y-90841252D01*
X100000000Y-95598748D02*
X100000000Y-96121252D01*
X98580000Y-95598748D02*
X98580000Y-96121252D01*
X100130000Y-107849748D02*
X100130000Y-108372252D01*
X98710000Y-107849748D02*
X98710000Y-108372252D01*
X113766000Y-136976748D02*
X113766000Y-137499252D01*
X115186000Y-136976748D02*
X115186000Y-137499252D01*
X117266000Y-136976748D02*
X117266000Y-137499252D01*
X118686000Y-136976748D02*
X118686000Y-137499252D01*
X103760000Y-118423748D02*
X103760000Y-118946252D01*
X105180000Y-118423748D02*
X105180000Y-118946252D01*
X100130000Y-124231252D02*
X100130000Y-123708748D01*
X98710000Y-124231252D02*
X98710000Y-123708748D01*
X108010000Y-118428748D02*
X108010000Y-118951252D01*
X109430000Y-118428748D02*
X109430000Y-118951252D01*
X155511252Y-100670000D02*
X154988748Y-100670000D01*
X155511252Y-99250000D02*
X154988748Y-99250000D01*
X154988748Y-109690000D02*
X155511252Y-109690000D01*
X154988748Y-111110000D02*
X155511252Y-111110000D01*
X135210000Y-135161252D02*
X135210000Y-134638748D01*
X133790000Y-135161252D02*
X133790000Y-134638748D01*
X125460000Y-127080000D02*
X125460000Y-126150000D01*
X125460000Y-123920000D02*
X125460000Y-124850000D01*
X125460000Y-123920000D02*
X123300000Y-123920000D01*
X125460000Y-127080000D02*
X124000000Y-127080000D01*
X119440000Y-130220000D02*
X119440000Y-131150000D01*
X119440000Y-133380000D02*
X119440000Y-132450000D01*
X119440000Y-133380000D02*
X121600000Y-133380000D01*
X119440000Y-130220000D02*
X120900000Y-130220000D01*
X120910000Y-125238748D02*
X120910000Y-125761252D01*
X119490000Y-125238748D02*
X119490000Y-125761252D01*
X133790000Y-124488748D02*
X133790000Y-125011252D01*
X135210000Y-124488748D02*
X135210000Y-125011252D01*
X124266000Y-137502252D02*
X124266000Y-136979748D01*
X125686000Y-137502252D02*
X125686000Y-136979748D01*
X122186000Y-137502252D02*
X122186000Y-136979748D01*
X120766000Y-137502252D02*
X120766000Y-136979748D01*
D10*
X134080380Y-105971904D02*
X134889904Y-105971904D01*
X134985142Y-105924285D01*
X135032761Y-105876666D01*
X135080380Y-105781428D01*
X135080380Y-105590952D01*
X135032761Y-105495714D01*
X134985142Y-105448095D01*
X134889904Y-105400476D01*
X134080380Y-105400476D01*
X134413714Y-104495714D02*
X135080380Y-104495714D01*
X134032761Y-104733809D02*
X134747047Y-104971904D01*
X134747047Y-104352857D01*
X148757142Y-112630380D02*
X148423809Y-112154190D01*
X148185714Y-112630380D02*
X148185714Y-111630380D01*
X148566666Y-111630380D01*
X148661904Y-111678000D01*
X148709523Y-111725619D01*
X148757142Y-111820857D01*
X148757142Y-111963714D01*
X148709523Y-112058952D01*
X148661904Y-112106571D01*
X148566666Y-112154190D01*
X148185714Y-112154190D01*
X149138095Y-111725619D02*
X149185714Y-111678000D01*
X149280952Y-111630380D01*
X149519047Y-111630380D01*
X149614285Y-111678000D01*
X149661904Y-111725619D01*
X149709523Y-111820857D01*
X149709523Y-111916095D01*
X149661904Y-112058952D01*
X149090476Y-112630380D01*
X149709523Y-112630380D01*
X150614285Y-111630380D02*
X150138095Y-111630380D01*
X150090476Y-112106571D01*
X150138095Y-112058952D01*
X150233333Y-112011333D01*
X150471428Y-112011333D01*
X150566666Y-112058952D01*
X150614285Y-112106571D01*
X150661904Y-112201809D01*
X150661904Y-112439904D01*
X150614285Y-112535142D01*
X150566666Y-112582761D01*
X150471428Y-112630380D01*
X150233333Y-112630380D01*
X150138095Y-112582761D01*
X150090476Y-112535142D01*
X159947142Y-136658571D02*
X160280476Y-136658571D01*
X160423333Y-137182380D02*
X159947142Y-137182380D01*
X159947142Y-136182380D01*
X160423333Y-136182380D01*
X160804285Y-137134761D02*
X160947142Y-137182380D01*
X161185238Y-137182380D01*
X161280476Y-137134761D01*
X161328095Y-137087142D01*
X161375714Y-136991904D01*
X161375714Y-136896666D01*
X161328095Y-136801428D01*
X161280476Y-136753809D01*
X161185238Y-136706190D01*
X160994761Y-136658571D01*
X160899523Y-136610952D01*
X160851904Y-136563333D01*
X160804285Y-136468095D01*
X160804285Y-136372857D01*
X160851904Y-136277619D01*
X160899523Y-136230000D01*
X160994761Y-136182380D01*
X161232857Y-136182380D01*
X161375714Y-136230000D01*
X161804285Y-137182380D02*
X161804285Y-136182380D01*
X162185238Y-136182380D01*
X162280476Y-136230000D01*
X162328095Y-136277619D01*
X162375714Y-136372857D01*
X162375714Y-136515714D01*
X162328095Y-136610952D01*
X162280476Y-136658571D01*
X162185238Y-136706190D01*
X161804285Y-136706190D01*
X162709047Y-136182380D02*
X163328095Y-136182380D01*
X162994761Y-136563333D01*
X163137619Y-136563333D01*
X163232857Y-136610952D01*
X163280476Y-136658571D01*
X163328095Y-136753809D01*
X163328095Y-136991904D01*
X163280476Y-137087142D01*
X163232857Y-137134761D01*
X163137619Y-137182380D01*
X162851904Y-137182380D01*
X162756666Y-137134761D01*
X162709047Y-137087142D01*
X163709047Y-136277619D02*
X163756666Y-136230000D01*
X163851904Y-136182380D01*
X164090000Y-136182380D01*
X164185238Y-136230000D01*
X164232857Y-136277619D01*
X164280476Y-136372857D01*
X164280476Y-136468095D01*
X164232857Y-136610952D01*
X163661428Y-137182380D01*
X164280476Y-137182380D01*
X111912380Y-113738095D02*
X110912380Y-113738095D01*
X110912380Y-113500000D01*
X110960000Y-113357142D01*
X111055238Y-113261904D01*
X111150476Y-113214285D01*
X111340952Y-113166666D01*
X111483809Y-113166666D01*
X111674285Y-113214285D01*
X111769523Y-113261904D01*
X111864761Y-113357142D01*
X111912380Y-113500000D01*
X111912380Y-113738095D01*
X110912380Y-112261904D02*
X110912380Y-112738095D01*
X111388571Y-112785714D01*
X111340952Y-112738095D01*
X111293333Y-112642857D01*
X111293333Y-112404761D01*
X111340952Y-112309523D01*
X111388571Y-112261904D01*
X111483809Y-112214285D01*
X111721904Y-112214285D01*
X111817142Y-112261904D01*
X111864761Y-112309523D01*
X111912380Y-112404761D01*
X111912380Y-112642857D01*
X111864761Y-112738095D01*
X111817142Y-112785714D01*
X116472380Y-113738095D02*
X115472380Y-113738095D01*
X115472380Y-113500000D01*
X115520000Y-113357142D01*
X115615238Y-113261904D01*
X115710476Y-113214285D01*
X115900952Y-113166666D01*
X116043809Y-113166666D01*
X116234285Y-113214285D01*
X116329523Y-113261904D01*
X116424761Y-113357142D01*
X116472380Y-113500000D01*
X116472380Y-113738095D01*
X115805714Y-112309523D02*
X116472380Y-112309523D01*
X115424761Y-112547619D02*
X116139047Y-112785714D01*
X116139047Y-112166666D01*
X123882380Y-105971904D02*
X124691904Y-105971904D01*
X124787142Y-105924285D01*
X124834761Y-105876666D01*
X124882380Y-105781428D01*
X124882380Y-105590952D01*
X124834761Y-105495714D01*
X124787142Y-105448095D01*
X124691904Y-105400476D01*
X123882380Y-105400476D01*
X123882380Y-104495714D02*
X123882380Y-104686190D01*
X123930000Y-104781428D01*
X123977619Y-104829047D01*
X124120476Y-104924285D01*
X124310952Y-104971904D01*
X124691904Y-104971904D01*
X124787142Y-104924285D01*
X124834761Y-104876666D01*
X124882380Y-104781428D01*
X124882380Y-104590952D01*
X124834761Y-104495714D01*
X124787142Y-104448095D01*
X124691904Y-104400476D01*
X124453809Y-104400476D01*
X124358571Y-104448095D01*
X124310952Y-104495714D01*
X124263333Y-104590952D01*
X124263333Y-104781428D01*
X124310952Y-104876666D01*
X124358571Y-104924285D01*
X124453809Y-104971904D01*
X125432380Y-116979523D02*
X126146666Y-116979523D01*
X126289523Y-117027142D01*
X126384761Y-117122380D01*
X126432380Y-117265238D01*
X126432380Y-117360476D01*
X126432380Y-116503333D02*
X125432380Y-116503333D01*
X125432380Y-116122380D01*
X125480000Y-116027142D01*
X125527619Y-115979523D01*
X125622857Y-115931904D01*
X125765714Y-115931904D01*
X125860952Y-115979523D01*
X125908571Y-116027142D01*
X125956190Y-116122380D01*
X125956190Y-116503333D01*
X126432380Y-114979523D02*
X126432380Y-115550952D01*
X126432380Y-115265238D02*
X125432380Y-115265238D01*
X125575238Y-115360476D01*
X125670476Y-115455714D01*
X125718095Y-115550952D01*
X126432380Y-114027142D02*
X126432380Y-114598571D01*
X126432380Y-114312857D02*
X125432380Y-114312857D01*
X125575238Y-114408095D01*
X125670476Y-114503333D01*
X125718095Y-114598571D01*
X111592380Y-98533333D02*
X112306666Y-98533333D01*
X112449523Y-98580952D01*
X112544761Y-98676190D01*
X112592380Y-98819047D01*
X112592380Y-98914285D01*
X112592380Y-98057142D02*
X111592380Y-98057142D01*
X111592380Y-97676190D01*
X111640000Y-97580952D01*
X111687619Y-97533333D01*
X111782857Y-97485714D01*
X111925714Y-97485714D01*
X112020952Y-97533333D01*
X112068571Y-97580952D01*
X112116190Y-97676190D01*
X112116190Y-98057142D01*
X111687619Y-97104761D02*
X111640000Y-97057142D01*
X111592380Y-96961904D01*
X111592380Y-96723809D01*
X111640000Y-96628571D01*
X111687619Y-96580952D01*
X111782857Y-96533333D01*
X111878095Y-96533333D01*
X112020952Y-96580952D01*
X112592380Y-97152380D01*
X112592380Y-96533333D01*
X124047142Y-129692380D02*
X123713809Y-129216190D01*
X123475714Y-129692380D02*
X123475714Y-128692380D01*
X123856666Y-128692380D01*
X123951904Y-128740000D01*
X123999523Y-128787619D01*
X124047142Y-128882857D01*
X124047142Y-129025714D01*
X123999523Y-129120952D01*
X123951904Y-129168571D01*
X123856666Y-129216190D01*
X123475714Y-129216190D01*
X124999523Y-129692380D02*
X124428095Y-129692380D01*
X124713809Y-129692380D02*
X124713809Y-128692380D01*
X124618571Y-128835238D01*
X124523333Y-128930476D01*
X124428095Y-128978095D01*
X125856666Y-129025714D02*
X125856666Y-129692380D01*
X125618571Y-128644761D02*
X125380476Y-129359047D01*
X125999523Y-129359047D01*
X113778380Y-128789523D02*
X114778380Y-128122857D01*
X113778380Y-128122857D02*
X114778380Y-128789523D01*
X114778380Y-127218095D02*
X114778380Y-127789523D01*
X114778380Y-127503809D02*
X113778380Y-127503809D01*
X113921238Y-127599047D01*
X114016476Y-127694285D01*
X114064095Y-127789523D01*
X118863333Y-92407142D02*
X118815714Y-92454761D01*
X118672857Y-92502380D01*
X118577619Y-92502380D01*
X118434761Y-92454761D01*
X118339523Y-92359523D01*
X118291904Y-92264285D01*
X118244285Y-92073809D01*
X118244285Y-91930952D01*
X118291904Y-91740476D01*
X118339523Y-91645238D01*
X118434761Y-91550000D01*
X118577619Y-91502380D01*
X118672857Y-91502380D01*
X118815714Y-91550000D01*
X118863333Y-91597619D01*
X119339523Y-92502380D02*
X119530000Y-92502380D01*
X119625238Y-92454761D01*
X119672857Y-92407142D01*
X119768095Y-92264285D01*
X119815714Y-92073809D01*
X119815714Y-91692857D01*
X119768095Y-91597619D01*
X119720476Y-91550000D01*
X119625238Y-91502380D01*
X119434761Y-91502380D01*
X119339523Y-91550000D01*
X119291904Y-91597619D01*
X119244285Y-91692857D01*
X119244285Y-91930952D01*
X119291904Y-92026190D01*
X119339523Y-92073809D01*
X119434761Y-92121428D01*
X119625238Y-92121428D01*
X119720476Y-92073809D01*
X119768095Y-92026190D01*
X119815714Y-91930952D01*
X91102619Y-105465238D02*
X91055000Y-105560476D01*
X90959761Y-105655714D01*
X90816904Y-105798571D01*
X90769285Y-105893809D01*
X90769285Y-105989047D01*
X91007380Y-105941428D02*
X90959761Y-106036666D01*
X90864523Y-106131904D01*
X90674047Y-106179523D01*
X90340714Y-106179523D01*
X90150238Y-106131904D01*
X90055000Y-106036666D01*
X90007380Y-105941428D01*
X90007380Y-105750952D01*
X90055000Y-105655714D01*
X90150238Y-105560476D01*
X90340714Y-105512857D01*
X90674047Y-105512857D01*
X90864523Y-105560476D01*
X90959761Y-105655714D01*
X91007380Y-105750952D01*
X91007380Y-105941428D01*
X90102619Y-105131904D02*
X90055000Y-105084285D01*
X90007380Y-104989047D01*
X90007380Y-104750952D01*
X90055000Y-104655714D01*
X90102619Y-104608095D01*
X90197857Y-104560476D01*
X90293095Y-104560476D01*
X90435952Y-104608095D01*
X91007380Y-105179523D01*
X91007380Y-104560476D01*
X90502380Y-125233333D02*
X91216666Y-125233333D01*
X91359523Y-125280952D01*
X91454761Y-125376190D01*
X91502380Y-125519047D01*
X91502380Y-125614285D01*
X91502380Y-124757142D02*
X90502380Y-124757142D01*
X90502380Y-124376190D01*
X90550000Y-124280952D01*
X90597619Y-124233333D01*
X90692857Y-124185714D01*
X90835714Y-124185714D01*
X90930952Y-124233333D01*
X90978571Y-124280952D01*
X91026190Y-124376190D01*
X91026190Y-124757142D01*
X90835714Y-123328571D02*
X91502380Y-123328571D01*
X90454761Y-123566666D02*
X91169047Y-123804761D01*
X91169047Y-123185714D01*
D13*
X93734523Y-131437380D02*
X92464523Y-131437380D01*
X92464523Y-131135000D01*
X92525000Y-130953571D01*
X92645952Y-130832619D01*
X92766904Y-130772142D01*
X93008809Y-130711666D01*
X93190238Y-130711666D01*
X93432142Y-130772142D01*
X93553095Y-130832619D01*
X93674047Y-130953571D01*
X93734523Y-131135000D01*
X93734523Y-131437380D01*
X92464523Y-130288333D02*
X92464523Y-129502142D01*
X92948333Y-129925476D01*
X92948333Y-129744047D01*
X93008809Y-129623095D01*
X93069285Y-129562619D01*
X93190238Y-129502142D01*
X93492619Y-129502142D01*
X93613571Y-129562619D01*
X93674047Y-129623095D01*
X93734523Y-129744047D01*
X93734523Y-130106904D01*
X93674047Y-130227857D01*
X93613571Y-130288333D01*
D10*
X106277380Y-91247857D02*
X105801190Y-91581190D01*
X106277380Y-91819285D02*
X105277380Y-91819285D01*
X105277380Y-91438333D01*
X105325000Y-91343095D01*
X105372619Y-91295476D01*
X105467857Y-91247857D01*
X105610714Y-91247857D01*
X105705952Y-91295476D01*
X105753571Y-91343095D01*
X105801190Y-91438333D01*
X105801190Y-91819285D01*
X106277380Y-90295476D02*
X106277380Y-90866904D01*
X106277380Y-90581190D02*
X105277380Y-90581190D01*
X105420238Y-90676428D01*
X105515476Y-90771666D01*
X105563095Y-90866904D01*
X105277380Y-89390714D02*
X105277380Y-89866904D01*
X105753571Y-89914523D01*
X105705952Y-89866904D01*
X105658333Y-89771666D01*
X105658333Y-89533571D01*
X105705952Y-89438333D01*
X105753571Y-89390714D01*
X105848809Y-89343095D01*
X106086904Y-89343095D01*
X106182142Y-89390714D01*
X106229761Y-89438333D01*
X106277380Y-89533571D01*
X106277380Y-89771666D01*
X106229761Y-89866904D01*
X106182142Y-89914523D01*
X98368095Y-99782380D02*
X98368095Y-100591904D01*
X98415714Y-100687142D01*
X98463333Y-100734761D01*
X98558571Y-100782380D01*
X98749047Y-100782380D01*
X98844285Y-100734761D01*
X98891904Y-100687142D01*
X98939523Y-100591904D01*
X98939523Y-99782380D01*
X99320476Y-99782380D02*
X99939523Y-99782380D01*
X99606190Y-100163333D01*
X99749047Y-100163333D01*
X99844285Y-100210952D01*
X99891904Y-100258571D01*
X99939523Y-100353809D01*
X99939523Y-100591904D01*
X99891904Y-100687142D01*
X99844285Y-100734761D01*
X99749047Y-100782380D01*
X99463333Y-100782380D01*
X99368095Y-100734761D01*
X99320476Y-100687142D01*
X102786666Y-138912380D02*
X102786666Y-139626666D01*
X102739047Y-139769523D01*
X102643809Y-139864761D01*
X102500952Y-139912380D01*
X102405714Y-139912380D01*
X103786666Y-139912380D02*
X103215238Y-139912380D01*
X103500952Y-139912380D02*
X103500952Y-138912380D01*
X103405714Y-139055238D01*
X103310476Y-139150476D01*
X103215238Y-139198095D01*
X100981142Y-133818380D02*
X100981142Y-134627904D01*
X101028761Y-134723142D01*
X101076380Y-134770761D01*
X101171619Y-134818380D01*
X101362095Y-134818380D01*
X101457333Y-134770761D01*
X101504952Y-134723142D01*
X101552571Y-134627904D01*
X101552571Y-133818380D01*
X101981142Y-134770761D02*
X102124000Y-134818380D01*
X102362095Y-134818380D01*
X102457333Y-134770761D01*
X102504952Y-134723142D01*
X102552571Y-134627904D01*
X102552571Y-134532666D01*
X102504952Y-134437428D01*
X102457333Y-134389809D01*
X102362095Y-134342190D01*
X102171619Y-134294571D01*
X102076380Y-134246952D01*
X102028761Y-134199333D01*
X101981142Y-134104095D01*
X101981142Y-134008857D01*
X102028761Y-133913619D01*
X102076380Y-133866000D01*
X102171619Y-133818380D01*
X102409714Y-133818380D01*
X102552571Y-133866000D01*
X103314476Y-134294571D02*
X103457333Y-134342190D01*
X103504952Y-134389809D01*
X103552571Y-134485047D01*
X103552571Y-134627904D01*
X103504952Y-134723142D01*
X103457333Y-134770761D01*
X103362095Y-134818380D01*
X102981142Y-134818380D01*
X102981142Y-133818380D01*
X103314476Y-133818380D01*
X103409714Y-133866000D01*
X103457333Y-133913619D01*
X103504952Y-134008857D01*
X103504952Y-134104095D01*
X103457333Y-134199333D01*
X103409714Y-134246952D01*
X103314476Y-134294571D01*
X102981142Y-134294571D01*
X103743047Y-134913619D02*
X104504952Y-134913619D01*
X105314476Y-134723142D02*
X105266857Y-134770761D01*
X105124000Y-134818380D01*
X105028761Y-134818380D01*
X104885904Y-134770761D01*
X104790666Y-134675523D01*
X104743047Y-134580285D01*
X104695428Y-134389809D01*
X104695428Y-134246952D01*
X104743047Y-134056476D01*
X104790666Y-133961238D01*
X104885904Y-133866000D01*
X105028761Y-133818380D01*
X105124000Y-133818380D01*
X105266857Y-133866000D01*
X105314476Y-133913619D01*
X97383999Y-135228080D02*
X97383999Y-135466176D01*
X97145903Y-135370938D02*
X97383999Y-135466176D01*
X97622094Y-135370938D01*
X97241141Y-135656652D02*
X97383999Y-135466176D01*
X97526856Y-135656652D01*
X97383999Y-135228080D02*
X97383999Y-135466176D01*
X97145903Y-135370938D02*
X97383999Y-135466176D01*
X97622094Y-135370938D01*
X97241141Y-135656652D02*
X97383999Y-135466176D01*
X97526856Y-135656652D01*
X95517333Y-140282380D02*
X95184000Y-139806190D01*
X94945904Y-140282380D02*
X94945904Y-139282380D01*
X95326857Y-139282380D01*
X95422095Y-139330000D01*
X95469714Y-139377619D01*
X95517333Y-139472857D01*
X95517333Y-139615714D01*
X95469714Y-139710952D01*
X95422095Y-139758571D01*
X95326857Y-139806190D01*
X94945904Y-139806190D01*
X95898285Y-139377619D02*
X95945904Y-139330000D01*
X96041142Y-139282380D01*
X96279238Y-139282380D01*
X96374476Y-139330000D01*
X96422095Y-139377619D01*
X96469714Y-139472857D01*
X96469714Y-139568095D01*
X96422095Y-139710952D01*
X95850666Y-140282380D01*
X96469714Y-140282380D01*
X110831333Y-140282380D02*
X110498000Y-139806190D01*
X110259904Y-140282380D02*
X110259904Y-139282380D01*
X110640857Y-139282380D01*
X110736095Y-139330000D01*
X110783714Y-139377619D01*
X110831333Y-139472857D01*
X110831333Y-139615714D01*
X110783714Y-139710952D01*
X110736095Y-139758571D01*
X110640857Y-139806190D01*
X110259904Y-139806190D01*
X111783714Y-140282380D02*
X111212285Y-140282380D01*
X111498000Y-140282380D02*
X111498000Y-139282380D01*
X111402761Y-139425238D01*
X111307523Y-139520476D01*
X111212285Y-139568095D01*
X108370476Y-82742380D02*
X108370476Y-83456666D01*
X108322857Y-83599523D01*
X108227619Y-83694761D01*
X108084761Y-83742380D01*
X107989523Y-83742380D01*
X108846666Y-83742380D02*
X108846666Y-82742380D01*
X109227619Y-82742380D01*
X109322857Y-82790000D01*
X109370476Y-82837619D01*
X109418095Y-82932857D01*
X109418095Y-83075714D01*
X109370476Y-83170952D01*
X109322857Y-83218571D01*
X109227619Y-83266190D01*
X108846666Y-83266190D01*
X110370476Y-83742380D02*
X109799047Y-83742380D01*
X110084761Y-83742380D02*
X110084761Y-82742380D01*
X109989523Y-82885238D01*
X109894285Y-82980476D01*
X109799047Y-83028095D01*
X110703809Y-82742380D02*
X111322857Y-82742380D01*
X110989523Y-83123333D01*
X111132380Y-83123333D01*
X111227619Y-83170952D01*
X111275238Y-83218571D01*
X111322857Y-83313809D01*
X111322857Y-83551904D01*
X111275238Y-83647142D01*
X111227619Y-83694761D01*
X111132380Y-83742380D01*
X110846666Y-83742380D01*
X110751428Y-83694761D01*
X110703809Y-83647142D01*
X146708976Y-141565380D02*
X146708976Y-142279666D01*
X146661357Y-142422523D01*
X146566119Y-142517761D01*
X146423261Y-142565380D01*
X146328023Y-142565380D01*
X147185166Y-142565380D02*
X147185166Y-141565380D01*
X147566119Y-141565380D01*
X147661357Y-141613000D01*
X147708976Y-141660619D01*
X147756595Y-141755857D01*
X147756595Y-141898714D01*
X147708976Y-141993952D01*
X147661357Y-142041571D01*
X147566119Y-142089190D01*
X147185166Y-142089190D01*
X148708976Y-142565380D02*
X148137547Y-142565380D01*
X148423261Y-142565380D02*
X148423261Y-141565380D01*
X148328023Y-141708238D01*
X148232785Y-141803476D01*
X148137547Y-141851095D01*
X149328023Y-141565380D02*
X149423261Y-141565380D01*
X149518500Y-141613000D01*
X149566119Y-141660619D01*
X149613738Y-141755857D01*
X149661357Y-141946333D01*
X149661357Y-142184428D01*
X149613738Y-142374904D01*
X149566119Y-142470142D01*
X149518500Y-142517761D01*
X149423261Y-142565380D01*
X149328023Y-142565380D01*
X149232785Y-142517761D01*
X149185166Y-142470142D01*
X149137547Y-142374904D01*
X149089928Y-142184428D01*
X149089928Y-141946333D01*
X149137547Y-141755857D01*
X149185166Y-141660619D01*
X149232785Y-141613000D01*
X149328023Y-141565380D01*
X139311166Y-141565380D02*
X139311166Y-142279666D01*
X139263547Y-142422523D01*
X139168309Y-142517761D01*
X139025452Y-142565380D01*
X138930214Y-142565380D01*
X139787357Y-142565380D02*
X139787357Y-141565380D01*
X140168309Y-141565380D01*
X140263547Y-141613000D01*
X140311166Y-141660619D01*
X140358785Y-141755857D01*
X140358785Y-141898714D01*
X140311166Y-141993952D01*
X140263547Y-142041571D01*
X140168309Y-142089190D01*
X139787357Y-142089190D01*
X140834976Y-142565380D02*
X141025452Y-142565380D01*
X141120690Y-142517761D01*
X141168309Y-142470142D01*
X141263547Y-142327285D01*
X141311166Y-142136809D01*
X141311166Y-141755857D01*
X141263547Y-141660619D01*
X141215928Y-141613000D01*
X141120690Y-141565380D01*
X140930214Y-141565380D01*
X140834976Y-141613000D01*
X140787357Y-141660619D01*
X140739738Y-141755857D01*
X140739738Y-141993952D01*
X140787357Y-142089190D01*
X140834976Y-142136809D01*
X140930214Y-142184428D01*
X141120690Y-142184428D01*
X141215928Y-142136809D01*
X141263547Y-142089190D01*
X141311166Y-141993952D01*
X96592380Y-131063333D02*
X97306666Y-131063333D01*
X97449523Y-131110952D01*
X97544761Y-131206190D01*
X97592380Y-131349047D01*
X97592380Y-131444285D01*
X97592380Y-130587142D02*
X96592380Y-130587142D01*
X96592380Y-130206190D01*
X96640000Y-130110952D01*
X96687619Y-130063333D01*
X96782857Y-130015714D01*
X96925714Y-130015714D01*
X97020952Y-130063333D01*
X97068571Y-130110952D01*
X97116190Y-130206190D01*
X97116190Y-130587142D01*
X96592380Y-129158571D02*
X96592380Y-129349047D01*
X96640000Y-129444285D01*
X96687619Y-129491904D01*
X96830476Y-129587142D01*
X97020952Y-129634761D01*
X97401904Y-129634761D01*
X97497142Y-129587142D01*
X97544761Y-129539523D01*
X97592380Y-129444285D01*
X97592380Y-129253809D01*
X97544761Y-129158571D01*
X97497142Y-129110952D01*
X97401904Y-129063333D01*
X97163809Y-129063333D01*
X97068571Y-129110952D01*
X97020952Y-129158571D01*
X96973333Y-129253809D01*
X96973333Y-129444285D01*
X97020952Y-129539523D01*
X97068571Y-129587142D01*
X97163809Y-129634761D01*
X129958761Y-126083333D02*
X130006380Y-125940476D01*
X130006380Y-125702380D01*
X129958761Y-125607142D01*
X129911142Y-125559523D01*
X129815904Y-125511904D01*
X129720666Y-125511904D01*
X129625428Y-125559523D01*
X129577809Y-125607142D01*
X129530190Y-125702380D01*
X129482571Y-125892857D01*
X129434952Y-125988095D01*
X129387333Y-126035714D01*
X129292095Y-126083333D01*
X129196857Y-126083333D01*
X129101619Y-126035714D01*
X129054000Y-125988095D01*
X129006380Y-125892857D01*
X129006380Y-125654761D01*
X129054000Y-125511904D01*
X129006380Y-125178571D02*
X130006380Y-124940476D01*
X129292095Y-124750000D01*
X130006380Y-124559523D01*
X129006380Y-124321428D01*
X130006380Y-123416666D02*
X130006380Y-123988095D01*
X130006380Y-123702380D02*
X129006380Y-123702380D01*
X129149238Y-123797619D01*
X129244476Y-123892857D01*
X129292095Y-123988095D01*
X131405380Y-88090333D02*
X132119666Y-88090333D01*
X132262523Y-88137952D01*
X132357761Y-88233190D01*
X132405380Y-88376047D01*
X132405380Y-88471285D01*
X131405380Y-87137952D02*
X131405380Y-87614142D01*
X131881571Y-87661761D01*
X131833952Y-87614142D01*
X131786333Y-87518904D01*
X131786333Y-87280809D01*
X131833952Y-87185571D01*
X131881571Y-87137952D01*
X131976809Y-87090333D01*
X132214904Y-87090333D01*
X132310142Y-87137952D01*
X132357761Y-87185571D01*
X132405380Y-87280809D01*
X132405380Y-87518904D01*
X132357761Y-87614142D01*
X132310142Y-87661761D01*
X152741380Y-88217333D02*
X153455666Y-88217333D01*
X153598523Y-88264952D01*
X153693761Y-88360190D01*
X153741380Y-88503047D01*
X153741380Y-88598285D01*
X153074714Y-87312571D02*
X153741380Y-87312571D01*
X152693761Y-87550666D02*
X153408047Y-87788761D01*
X153408047Y-87169714D01*
X105598095Y-131782380D02*
X105598095Y-132591904D01*
X105645714Y-132687142D01*
X105693333Y-132734761D01*
X105788571Y-132782380D01*
X105979047Y-132782380D01*
X106074285Y-132734761D01*
X106121904Y-132687142D01*
X106169523Y-132591904D01*
X106169523Y-131782380D01*
X107169523Y-132782380D02*
X106598095Y-132782380D01*
X106883809Y-132782380D02*
X106883809Y-131782380D01*
X106788571Y-131925238D01*
X106693333Y-132020476D01*
X106598095Y-132068095D01*
X144280380Y-105971904D02*
X145089904Y-105971904D01*
X145185142Y-105924285D01*
X145232761Y-105876666D01*
X145280380Y-105781428D01*
X145280380Y-105590952D01*
X145232761Y-105495714D01*
X145185142Y-105448095D01*
X145089904Y-105400476D01*
X144280380Y-105400476D01*
X144280380Y-104448095D02*
X144280380Y-104924285D01*
X144756571Y-104971904D01*
X144708952Y-104924285D01*
X144661333Y-104829047D01*
X144661333Y-104590952D01*
X144708952Y-104495714D01*
X144756571Y-104448095D01*
X144851809Y-104400476D01*
X145089904Y-104400476D01*
X145185142Y-104448095D01*
X145232761Y-104495714D01*
X145280380Y-104590952D01*
X145280380Y-104829047D01*
X145232761Y-104924285D01*
X145185142Y-104971904D01*
X117004285Y-87452380D02*
X117575714Y-87452380D01*
X117290000Y-88452380D02*
X117290000Y-87452380D01*
X117909047Y-88452380D02*
X117909047Y-87452380D01*
X117909047Y-87928571D02*
X118480476Y-87928571D01*
X118480476Y-88452380D02*
X118480476Y-87452380D01*
X118909047Y-87547619D02*
X118956666Y-87500000D01*
X119051904Y-87452380D01*
X119290000Y-87452380D01*
X119385238Y-87500000D01*
X119432857Y-87547619D01*
X119480476Y-87642857D01*
X119480476Y-87738095D01*
X119432857Y-87880952D01*
X118861428Y-88452380D01*
X119480476Y-88452380D01*
X90312380Y-120205714D02*
X90312380Y-119634285D01*
X91312380Y-119920000D02*
X90312380Y-119920000D01*
X91312380Y-119300952D02*
X90312380Y-119300952D01*
X90788571Y-119300952D02*
X90788571Y-118729523D01*
X91312380Y-118729523D02*
X90312380Y-118729523D01*
X91312380Y-117729523D02*
X91312380Y-118300952D01*
X91312380Y-118015238D02*
X90312380Y-118015238D01*
X90455238Y-118110476D01*
X90550476Y-118205714D01*
X90598095Y-118300952D01*
X130014761Y-136233333D02*
X130062380Y-136090476D01*
X130062380Y-135852380D01*
X130014761Y-135757142D01*
X129967142Y-135709523D01*
X129871904Y-135661904D01*
X129776666Y-135661904D01*
X129681428Y-135709523D01*
X129633809Y-135757142D01*
X129586190Y-135852380D01*
X129538571Y-136042857D01*
X129490952Y-136138095D01*
X129443333Y-136185714D01*
X129348095Y-136233333D01*
X129252857Y-136233333D01*
X129157619Y-136185714D01*
X129110000Y-136138095D01*
X129062380Y-136042857D01*
X129062380Y-135804761D01*
X129110000Y-135661904D01*
X129062380Y-135328571D02*
X130062380Y-135090476D01*
X129348095Y-134900000D01*
X130062380Y-134709523D01*
X129062380Y-134471428D01*
X129157619Y-134138095D02*
X129110000Y-134090476D01*
X129062380Y-133995238D01*
X129062380Y-133757142D01*
X129110000Y-133661904D01*
X129157619Y-133614285D01*
X129252857Y-133566666D01*
X129348095Y-133566666D01*
X129490952Y-133614285D01*
X130062380Y-134185714D01*
X130062380Y-133566666D01*
X137057142Y-98634380D02*
X136723809Y-98158190D01*
X136485714Y-98634380D02*
X136485714Y-97634380D01*
X136866666Y-97634380D01*
X136961904Y-97682000D01*
X137009523Y-97729619D01*
X137057142Y-97824857D01*
X137057142Y-97967714D01*
X137009523Y-98062952D01*
X136961904Y-98110571D01*
X136866666Y-98158190D01*
X136485714Y-98158190D01*
X137438095Y-97729619D02*
X137485714Y-97682000D01*
X137580952Y-97634380D01*
X137819047Y-97634380D01*
X137914285Y-97682000D01*
X137961904Y-97729619D01*
X138009523Y-97824857D01*
X138009523Y-97920095D01*
X137961904Y-98062952D01*
X137390476Y-98634380D01*
X138009523Y-98634380D01*
X138866666Y-97634380D02*
X138676190Y-97634380D01*
X138580952Y-97682000D01*
X138533333Y-97729619D01*
X138438095Y-97872476D01*
X138390476Y-98062952D01*
X138390476Y-98443904D01*
X138438095Y-98539142D01*
X138485714Y-98586761D01*
X138580952Y-98634380D01*
X138771428Y-98634380D01*
X138866666Y-98586761D01*
X138914285Y-98539142D01*
X138961904Y-98443904D01*
X138961904Y-98205809D01*
X138914285Y-98110571D01*
X138866666Y-98062952D01*
X138771428Y-98015333D01*
X138580952Y-98015333D01*
X138485714Y-98062952D01*
X138438095Y-98110571D01*
X138390476Y-98205809D01*
X142898142Y-98634380D02*
X142564809Y-98158190D01*
X142326714Y-98634380D02*
X142326714Y-97634380D01*
X142707666Y-97634380D01*
X142802904Y-97682000D01*
X142850523Y-97729619D01*
X142898142Y-97824857D01*
X142898142Y-97967714D01*
X142850523Y-98062952D01*
X142802904Y-98110571D01*
X142707666Y-98158190D01*
X142326714Y-98158190D01*
X143279095Y-97729619D02*
X143326714Y-97682000D01*
X143421952Y-97634380D01*
X143660047Y-97634380D01*
X143755285Y-97682000D01*
X143802904Y-97729619D01*
X143850523Y-97824857D01*
X143850523Y-97920095D01*
X143802904Y-98062952D01*
X143231476Y-98634380D01*
X143850523Y-98634380D01*
X144707666Y-97967714D02*
X144707666Y-98634380D01*
X144469571Y-97586761D02*
X144231476Y-98301047D01*
X144850523Y-98301047D01*
X131207142Y-112630380D02*
X130873809Y-112154190D01*
X130635714Y-112630380D02*
X130635714Y-111630380D01*
X131016666Y-111630380D01*
X131111904Y-111678000D01*
X131159523Y-111725619D01*
X131207142Y-111820857D01*
X131207142Y-111963714D01*
X131159523Y-112058952D01*
X131111904Y-112106571D01*
X131016666Y-112154190D01*
X130635714Y-112154190D01*
X131588095Y-111725619D02*
X131635714Y-111678000D01*
X131730952Y-111630380D01*
X131969047Y-111630380D01*
X132064285Y-111678000D01*
X132111904Y-111725619D01*
X132159523Y-111820857D01*
X132159523Y-111916095D01*
X132111904Y-112058952D01*
X131540476Y-112630380D01*
X132159523Y-112630380D01*
X132492857Y-111630380D02*
X133111904Y-111630380D01*
X132778571Y-112011333D01*
X132921428Y-112011333D01*
X133016666Y-112058952D01*
X133064285Y-112106571D01*
X133111904Y-112201809D01*
X133111904Y-112439904D01*
X133064285Y-112535142D01*
X133016666Y-112582761D01*
X132921428Y-112630380D01*
X132635714Y-112630380D01*
X132540476Y-112582761D01*
X132492857Y-112535142D01*
X131207142Y-98634380D02*
X130873809Y-98158190D01*
X130635714Y-98634380D02*
X130635714Y-97634380D01*
X131016666Y-97634380D01*
X131111904Y-97682000D01*
X131159523Y-97729619D01*
X131207142Y-97824857D01*
X131207142Y-97967714D01*
X131159523Y-98062952D01*
X131111904Y-98110571D01*
X131016666Y-98158190D01*
X130635714Y-98158190D01*
X131588095Y-97729619D02*
X131635714Y-97682000D01*
X131730952Y-97634380D01*
X131969047Y-97634380D01*
X132064285Y-97682000D01*
X132111904Y-97729619D01*
X132159523Y-97824857D01*
X132159523Y-97920095D01*
X132111904Y-98062952D01*
X131540476Y-98634380D01*
X132159523Y-98634380D01*
X132540476Y-97729619D02*
X132588095Y-97682000D01*
X132683333Y-97634380D01*
X132921428Y-97634380D01*
X133016666Y-97682000D01*
X133064285Y-97729619D01*
X133111904Y-97824857D01*
X133111904Y-97920095D01*
X133064285Y-98062952D01*
X132492857Y-98634380D01*
X133111904Y-98634380D01*
X125357142Y-112630380D02*
X125023809Y-112154190D01*
X124785714Y-112630380D02*
X124785714Y-111630380D01*
X125166666Y-111630380D01*
X125261904Y-111678000D01*
X125309523Y-111725619D01*
X125357142Y-111820857D01*
X125357142Y-111963714D01*
X125309523Y-112058952D01*
X125261904Y-112106571D01*
X125166666Y-112154190D01*
X124785714Y-112154190D01*
X125738095Y-111725619D02*
X125785714Y-111678000D01*
X125880952Y-111630380D01*
X126119047Y-111630380D01*
X126214285Y-111678000D01*
X126261904Y-111725619D01*
X126309523Y-111820857D01*
X126309523Y-111916095D01*
X126261904Y-112058952D01*
X125690476Y-112630380D01*
X126309523Y-112630380D01*
X127261904Y-112630380D02*
X126690476Y-112630380D01*
X126976190Y-112630380D02*
X126976190Y-111630380D01*
X126880952Y-111773238D01*
X126785714Y-111868476D01*
X126690476Y-111916095D01*
X125357142Y-98634380D02*
X125023809Y-98158190D01*
X124785714Y-98634380D02*
X124785714Y-97634380D01*
X125166666Y-97634380D01*
X125261904Y-97682000D01*
X125309523Y-97729619D01*
X125357142Y-97824857D01*
X125357142Y-97967714D01*
X125309523Y-98062952D01*
X125261904Y-98110571D01*
X125166666Y-98158190D01*
X124785714Y-98158190D01*
X125738095Y-97729619D02*
X125785714Y-97682000D01*
X125880952Y-97634380D01*
X126119047Y-97634380D01*
X126214285Y-97682000D01*
X126261904Y-97729619D01*
X126309523Y-97824857D01*
X126309523Y-97920095D01*
X126261904Y-98062952D01*
X125690476Y-98634380D01*
X126309523Y-98634380D01*
X126928571Y-97634380D02*
X127023809Y-97634380D01*
X127119047Y-97682000D01*
X127166666Y-97729619D01*
X127214285Y-97824857D01*
X127261904Y-98015333D01*
X127261904Y-98253428D01*
X127214285Y-98443904D01*
X127166666Y-98539142D01*
X127119047Y-98586761D01*
X127023809Y-98634380D01*
X126928571Y-98634380D01*
X126833333Y-98586761D01*
X126785714Y-98539142D01*
X126738095Y-98443904D01*
X126690476Y-98253428D01*
X126690476Y-98015333D01*
X126738095Y-97824857D01*
X126785714Y-97729619D01*
X126833333Y-97682000D01*
X126928571Y-97634380D01*
X137057142Y-112630380D02*
X136723809Y-112154190D01*
X136485714Y-112630380D02*
X136485714Y-111630380D01*
X136866666Y-111630380D01*
X136961904Y-111678000D01*
X137009523Y-111725619D01*
X137057142Y-111820857D01*
X137057142Y-111963714D01*
X137009523Y-112058952D01*
X136961904Y-112106571D01*
X136866666Y-112154190D01*
X136485714Y-112154190D01*
X138009523Y-112630380D02*
X137438095Y-112630380D01*
X137723809Y-112630380D02*
X137723809Y-111630380D01*
X137628571Y-111773238D01*
X137533333Y-111868476D01*
X137438095Y-111916095D01*
X138485714Y-112630380D02*
X138676190Y-112630380D01*
X138771428Y-112582761D01*
X138819047Y-112535142D01*
X138914285Y-112392285D01*
X138961904Y-112201809D01*
X138961904Y-111820857D01*
X138914285Y-111725619D01*
X138866666Y-111678000D01*
X138771428Y-111630380D01*
X138580952Y-111630380D01*
X138485714Y-111678000D01*
X138438095Y-111725619D01*
X138390476Y-111820857D01*
X138390476Y-112058952D01*
X138438095Y-112154190D01*
X138485714Y-112201809D01*
X138580952Y-112249428D01*
X138771428Y-112249428D01*
X138866666Y-112201809D01*
X138914285Y-112154190D01*
X138961904Y-112058952D01*
X107572380Y-108752857D02*
X107096190Y-109086190D01*
X107572380Y-109324285D02*
X106572380Y-109324285D01*
X106572380Y-108943333D01*
X106620000Y-108848095D01*
X106667619Y-108800476D01*
X106762857Y-108752857D01*
X106905714Y-108752857D01*
X107000952Y-108800476D01*
X107048571Y-108848095D01*
X107096190Y-108943333D01*
X107096190Y-109324285D01*
X107572380Y-107800476D02*
X107572380Y-108371904D01*
X107572380Y-108086190D02*
X106572380Y-108086190D01*
X106715238Y-108181428D01*
X106810476Y-108276666D01*
X106858095Y-108371904D01*
X107000952Y-107229047D02*
X106953333Y-107324285D01*
X106905714Y-107371904D01*
X106810476Y-107419523D01*
X106762857Y-107419523D01*
X106667619Y-107371904D01*
X106620000Y-107324285D01*
X106572380Y-107229047D01*
X106572380Y-107038571D01*
X106620000Y-106943333D01*
X106667619Y-106895714D01*
X106762857Y-106848095D01*
X106810476Y-106848095D01*
X106905714Y-106895714D01*
X106953333Y-106943333D01*
X107000952Y-107038571D01*
X107000952Y-107229047D01*
X107048571Y-107324285D01*
X107096190Y-107371904D01*
X107191428Y-107419523D01*
X107381904Y-107419523D01*
X107477142Y-107371904D01*
X107524761Y-107324285D01*
X107572380Y-107229047D01*
X107572380Y-107038571D01*
X107524761Y-106943333D01*
X107477142Y-106895714D01*
X107381904Y-106848095D01*
X107191428Y-106848095D01*
X107096190Y-106895714D01*
X107048571Y-106943333D01*
X107000952Y-107038571D01*
X107582380Y-103472857D02*
X107106190Y-103806190D01*
X107582380Y-104044285D02*
X106582380Y-104044285D01*
X106582380Y-103663333D01*
X106630000Y-103568095D01*
X106677619Y-103520476D01*
X106772857Y-103472857D01*
X106915714Y-103472857D01*
X107010952Y-103520476D01*
X107058571Y-103568095D01*
X107106190Y-103663333D01*
X107106190Y-104044285D01*
X107582380Y-102520476D02*
X107582380Y-103091904D01*
X107582380Y-102806190D02*
X106582380Y-102806190D01*
X106725238Y-102901428D01*
X106820476Y-102996666D01*
X106868095Y-103091904D01*
X106582380Y-102187142D02*
X106582380Y-101520476D01*
X107582380Y-101949047D01*
X149233333Y-98634380D02*
X148900000Y-98158190D01*
X148661904Y-98634380D02*
X148661904Y-97634380D01*
X149042857Y-97634380D01*
X149138095Y-97682000D01*
X149185714Y-97729619D01*
X149233333Y-97824857D01*
X149233333Y-97967714D01*
X149185714Y-98062952D01*
X149138095Y-98110571D01*
X149042857Y-98158190D01*
X148661904Y-98158190D01*
X149709523Y-98634380D02*
X149900000Y-98634380D01*
X149995238Y-98586761D01*
X150042857Y-98539142D01*
X150138095Y-98396285D01*
X150185714Y-98205809D01*
X150185714Y-97824857D01*
X150138095Y-97729619D01*
X150090476Y-97682000D01*
X149995238Y-97634380D01*
X149804761Y-97634380D01*
X149709523Y-97682000D01*
X149661904Y-97729619D01*
X149614285Y-97824857D01*
X149614285Y-98062952D01*
X149661904Y-98158190D01*
X149709523Y-98205809D01*
X149804761Y-98253428D01*
X149995238Y-98253428D01*
X150090476Y-98205809D01*
X150138095Y-98158190D01*
X150185714Y-98062952D01*
X143383333Y-112630380D02*
X143050000Y-112154190D01*
X142811904Y-112630380D02*
X142811904Y-111630380D01*
X143192857Y-111630380D01*
X143288095Y-111678000D01*
X143335714Y-111725619D01*
X143383333Y-111820857D01*
X143383333Y-111963714D01*
X143335714Y-112058952D01*
X143288095Y-112106571D01*
X143192857Y-112154190D01*
X142811904Y-112154190D01*
X144288095Y-111630380D02*
X143811904Y-111630380D01*
X143764285Y-112106571D01*
X143811904Y-112058952D01*
X143907142Y-112011333D01*
X144145238Y-112011333D01*
X144240476Y-112058952D01*
X144288095Y-112106571D01*
X144335714Y-112201809D01*
X144335714Y-112439904D01*
X144288095Y-112535142D01*
X144240476Y-112582761D01*
X144145238Y-112630380D01*
X143907142Y-112630380D01*
X143811904Y-112582761D01*
X143764285Y-112535142D01*
X111552380Y-108583333D02*
X112266666Y-108583333D01*
X112409523Y-108630952D01*
X112504761Y-108726190D01*
X112552380Y-108869047D01*
X112552380Y-108964285D01*
X112552380Y-108107142D02*
X111552380Y-108107142D01*
X111552380Y-107726190D01*
X111600000Y-107630952D01*
X111647619Y-107583333D01*
X111742857Y-107535714D01*
X111885714Y-107535714D01*
X111980952Y-107583333D01*
X112028571Y-107630952D01*
X112076190Y-107726190D01*
X112076190Y-108107142D01*
X111552380Y-106630952D02*
X111552380Y-107107142D01*
X112028571Y-107154761D01*
X111980952Y-107107142D01*
X111933333Y-107011904D01*
X111933333Y-106773809D01*
X111980952Y-106678571D01*
X112028571Y-106630952D01*
X112123809Y-106583333D01*
X112361904Y-106583333D01*
X112457142Y-106630952D01*
X112504761Y-106678571D01*
X112552380Y-106773809D01*
X112552380Y-107011904D01*
X112504761Y-107107142D01*
X112457142Y-107154761D01*
X111632380Y-103563333D02*
X112346666Y-103563333D01*
X112489523Y-103610952D01*
X112584761Y-103706190D01*
X112632380Y-103849047D01*
X112632380Y-103944285D01*
X112632380Y-103087142D02*
X111632380Y-103087142D01*
X111632380Y-102706190D01*
X111680000Y-102610952D01*
X111727619Y-102563333D01*
X111822857Y-102515714D01*
X111965714Y-102515714D01*
X112060952Y-102563333D01*
X112108571Y-102610952D01*
X112156190Y-102706190D01*
X112156190Y-103087142D01*
X111632380Y-102182380D02*
X111632380Y-101563333D01*
X112013333Y-101896666D01*
X112013333Y-101753809D01*
X112060952Y-101658571D01*
X112108571Y-101610952D01*
X112203809Y-101563333D01*
X112441904Y-101563333D01*
X112537142Y-101610952D01*
X112584761Y-101658571D01*
X112632380Y-101753809D01*
X112632380Y-102039523D01*
X112584761Y-102134761D01*
X112537142Y-102182380D01*
X106832380Y-97281190D02*
X105832380Y-97281190D01*
X106737142Y-96233571D02*
X106784761Y-96281190D01*
X106832380Y-96424047D01*
X106832380Y-96519285D01*
X106784761Y-96662142D01*
X106689523Y-96757380D01*
X106594285Y-96805000D01*
X106403809Y-96852619D01*
X106260952Y-96852619D01*
X106070476Y-96805000D01*
X105975238Y-96757380D01*
X105880000Y-96662142D01*
X105832380Y-96519285D01*
X105832380Y-96424047D01*
X105880000Y-96281190D01*
X105927619Y-96233571D01*
X106832380Y-95281190D02*
X106832380Y-95852619D01*
X106832380Y-95566904D02*
X105832380Y-95566904D01*
X105975238Y-95662142D01*
X106070476Y-95757380D01*
X106118095Y-95852619D01*
X110950380Y-91222857D02*
X110474190Y-91556190D01*
X110950380Y-91794285D02*
X109950380Y-91794285D01*
X109950380Y-91413333D01*
X109998000Y-91318095D01*
X110045619Y-91270476D01*
X110140857Y-91222857D01*
X110283714Y-91222857D01*
X110378952Y-91270476D01*
X110426571Y-91318095D01*
X110474190Y-91413333D01*
X110474190Y-91794285D01*
X110950380Y-90270476D02*
X110950380Y-90841904D01*
X110950380Y-90556190D02*
X109950380Y-90556190D01*
X110093238Y-90651428D01*
X110188476Y-90746666D01*
X110236095Y-90841904D01*
X109950380Y-89413333D02*
X109950380Y-89603809D01*
X109998000Y-89699047D01*
X110045619Y-89746666D01*
X110188476Y-89841904D01*
X110378952Y-89889523D01*
X110759904Y-89889523D01*
X110855142Y-89841904D01*
X110902761Y-89794285D01*
X110950380Y-89699047D01*
X110950380Y-89508571D01*
X110902761Y-89413333D01*
X110855142Y-89365714D01*
X110759904Y-89318095D01*
X110521809Y-89318095D01*
X110426571Y-89365714D01*
X110378952Y-89413333D01*
X110331333Y-89508571D01*
X110331333Y-89699047D01*
X110378952Y-89794285D01*
X110426571Y-89841904D01*
X110521809Y-89889523D01*
X116517142Y-119332857D02*
X116564761Y-119380476D01*
X116612380Y-119523333D01*
X116612380Y-119618571D01*
X116564761Y-119761428D01*
X116469523Y-119856666D01*
X116374285Y-119904285D01*
X116183809Y-119951904D01*
X116040952Y-119951904D01*
X115850476Y-119904285D01*
X115755238Y-119856666D01*
X115660000Y-119761428D01*
X115612380Y-119618571D01*
X115612380Y-119523333D01*
X115660000Y-119380476D01*
X115707619Y-119332857D01*
X116612380Y-118380476D02*
X116612380Y-118951904D01*
X116612380Y-118666190D02*
X115612380Y-118666190D01*
X115755238Y-118761428D01*
X115850476Y-118856666D01*
X115898095Y-118951904D01*
X115612380Y-118047142D02*
X115612380Y-117428095D01*
X115993333Y-117761428D01*
X115993333Y-117618571D01*
X116040952Y-117523333D01*
X116088571Y-117475714D01*
X116183809Y-117428095D01*
X116421904Y-117428095D01*
X116517142Y-117475714D01*
X116564761Y-117523333D01*
X116612380Y-117618571D01*
X116612380Y-117904285D01*
X116564761Y-117999523D01*
X116517142Y-118047142D01*
X121232380Y-119322857D02*
X120756190Y-119656190D01*
X121232380Y-119894285D02*
X120232380Y-119894285D01*
X120232380Y-119513333D01*
X120280000Y-119418095D01*
X120327619Y-119370476D01*
X120422857Y-119322857D01*
X120565714Y-119322857D01*
X120660952Y-119370476D01*
X120708571Y-119418095D01*
X120756190Y-119513333D01*
X120756190Y-119894285D01*
X121232380Y-118370476D02*
X121232380Y-118941904D01*
X121232380Y-118656190D02*
X120232380Y-118656190D01*
X120375238Y-118751428D01*
X120470476Y-118846666D01*
X120518095Y-118941904D01*
X120327619Y-117989523D02*
X120280000Y-117941904D01*
X120232380Y-117846666D01*
X120232380Y-117608571D01*
X120280000Y-117513333D01*
X120327619Y-117465714D01*
X120422857Y-117418095D01*
X120518095Y-117418095D01*
X120660952Y-117465714D01*
X121232380Y-118037142D01*
X121232380Y-117418095D01*
X98362380Y-113566666D02*
X97886190Y-113900000D01*
X98362380Y-114138095D02*
X97362380Y-114138095D01*
X97362380Y-113757142D01*
X97410000Y-113661904D01*
X97457619Y-113614285D01*
X97552857Y-113566666D01*
X97695714Y-113566666D01*
X97790952Y-113614285D01*
X97838571Y-113661904D01*
X97886190Y-113757142D01*
X97886190Y-114138095D01*
X97362380Y-112709523D02*
X97362380Y-112900000D01*
X97410000Y-112995238D01*
X97457619Y-113042857D01*
X97600476Y-113138095D01*
X97790952Y-113185714D01*
X98171904Y-113185714D01*
X98267142Y-113138095D01*
X98314761Y-113090476D01*
X98362380Y-112995238D01*
X98362380Y-112804761D01*
X98314761Y-112709523D01*
X98267142Y-112661904D01*
X98171904Y-112614285D01*
X97933809Y-112614285D01*
X97838571Y-112661904D01*
X97790952Y-112709523D01*
X97743333Y-112804761D01*
X97743333Y-112995238D01*
X97790952Y-113090476D01*
X97838571Y-113138095D01*
X97933809Y-113185714D01*
X92544285Y-87143571D02*
X92687142Y-87191190D01*
X92734761Y-87238809D01*
X92782380Y-87334047D01*
X92782380Y-87476904D01*
X92734761Y-87572142D01*
X92687142Y-87619761D01*
X92591904Y-87667380D01*
X92210952Y-87667380D01*
X92210952Y-86667380D01*
X92544285Y-86667380D01*
X92639523Y-86715000D01*
X92687142Y-86762619D01*
X92734761Y-86857857D01*
X92734761Y-86953095D01*
X92687142Y-87048333D01*
X92639523Y-87095952D01*
X92544285Y-87143571D01*
X92210952Y-87143571D01*
X93068095Y-86667380D02*
X93639523Y-86667380D01*
X93353809Y-87667380D02*
X93353809Y-86667380D01*
X94496666Y-87667380D02*
X93925238Y-87667380D01*
X94210952Y-87667380D02*
X94210952Y-86667380D01*
X94115714Y-86810238D01*
X94020476Y-86905476D01*
X93925238Y-86953095D01*
X102777142Y-102996666D02*
X102824761Y-103044285D01*
X102872380Y-103187142D01*
X102872380Y-103282380D01*
X102824761Y-103425238D01*
X102729523Y-103520476D01*
X102634285Y-103568095D01*
X102443809Y-103615714D01*
X102300952Y-103615714D01*
X102110476Y-103568095D01*
X102015238Y-103520476D01*
X101920000Y-103425238D01*
X101872380Y-103282380D01*
X101872380Y-103187142D01*
X101920000Y-103044285D01*
X101967619Y-102996666D01*
X102300952Y-102425238D02*
X102253333Y-102520476D01*
X102205714Y-102568095D01*
X102110476Y-102615714D01*
X102062857Y-102615714D01*
X101967619Y-102568095D01*
X101920000Y-102520476D01*
X101872380Y-102425238D01*
X101872380Y-102234761D01*
X101920000Y-102139523D01*
X101967619Y-102091904D01*
X102062857Y-102044285D01*
X102110476Y-102044285D01*
X102205714Y-102091904D01*
X102253333Y-102139523D01*
X102300952Y-102234761D01*
X102300952Y-102425238D01*
X102348571Y-102520476D01*
X102396190Y-102568095D01*
X102491428Y-102615714D01*
X102681904Y-102615714D01*
X102777142Y-102568095D01*
X102824761Y-102520476D01*
X102872380Y-102425238D01*
X102872380Y-102234761D01*
X102824761Y-102139523D01*
X102777142Y-102091904D01*
X102681904Y-102044285D01*
X102491428Y-102044285D01*
X102396190Y-102091904D01*
X102348571Y-102139523D01*
X102300952Y-102234761D01*
X98317142Y-118861666D02*
X98364761Y-118909285D01*
X98412380Y-119052142D01*
X98412380Y-119147380D01*
X98364761Y-119290238D01*
X98269523Y-119385476D01*
X98174285Y-119433095D01*
X97983809Y-119480714D01*
X97840952Y-119480714D01*
X97650476Y-119433095D01*
X97555238Y-119385476D01*
X97460000Y-119290238D01*
X97412380Y-119147380D01*
X97412380Y-119052142D01*
X97460000Y-118909285D01*
X97507619Y-118861666D01*
X97412380Y-118004523D02*
X97412380Y-118195000D01*
X97460000Y-118290238D01*
X97507619Y-118337857D01*
X97650476Y-118433095D01*
X97840952Y-118480714D01*
X98221904Y-118480714D01*
X98317142Y-118433095D01*
X98364761Y-118385476D01*
X98412380Y-118290238D01*
X98412380Y-118099761D01*
X98364761Y-118004523D01*
X98317142Y-117956904D01*
X98221904Y-117909285D01*
X97983809Y-117909285D01*
X97888571Y-117956904D01*
X97840952Y-118004523D01*
X97793333Y-118099761D01*
X97793333Y-118290238D01*
X97840952Y-118385476D01*
X97888571Y-118433095D01*
X97983809Y-118480714D01*
X102882380Y-108267666D02*
X102406190Y-108601000D01*
X102882380Y-108839095D02*
X101882380Y-108839095D01*
X101882380Y-108458142D01*
X101930000Y-108362904D01*
X101977619Y-108315285D01*
X102072857Y-108267666D01*
X102215714Y-108267666D01*
X102310952Y-108315285D01*
X102358571Y-108362904D01*
X102406190Y-108458142D01*
X102406190Y-108839095D01*
X101882380Y-107934333D02*
X101882380Y-107267666D01*
X102882380Y-107696238D01*
X92072380Y-113566666D02*
X91596190Y-113900000D01*
X92072380Y-114138095D02*
X91072380Y-114138095D01*
X91072380Y-113757142D01*
X91120000Y-113661904D01*
X91167619Y-113614285D01*
X91262857Y-113566666D01*
X91405714Y-113566666D01*
X91500952Y-113614285D01*
X91548571Y-113661904D01*
X91596190Y-113757142D01*
X91596190Y-114138095D01*
X91500952Y-112995238D02*
X91453333Y-113090476D01*
X91405714Y-113138095D01*
X91310476Y-113185714D01*
X91262857Y-113185714D01*
X91167619Y-113138095D01*
X91120000Y-113090476D01*
X91072380Y-112995238D01*
X91072380Y-112804761D01*
X91120000Y-112709523D01*
X91167619Y-112661904D01*
X91262857Y-112614285D01*
X91310476Y-112614285D01*
X91405714Y-112661904D01*
X91453333Y-112709523D01*
X91500952Y-112804761D01*
X91500952Y-112995238D01*
X91548571Y-113090476D01*
X91596190Y-113138095D01*
X91691428Y-113185714D01*
X91881904Y-113185714D01*
X91977142Y-113138095D01*
X92024761Y-113090476D01*
X92072380Y-112995238D01*
X92072380Y-112804761D01*
X92024761Y-112709523D01*
X91977142Y-112661904D01*
X91881904Y-112614285D01*
X91691428Y-112614285D01*
X91596190Y-112661904D01*
X91548571Y-112709523D01*
X91500952Y-112804761D01*
X105578095Y-116042380D02*
X105578095Y-116851904D01*
X105625714Y-116947142D01*
X105673333Y-116994761D01*
X105768571Y-117042380D01*
X105959047Y-117042380D01*
X106054285Y-116994761D01*
X106101904Y-116947142D01*
X106149523Y-116851904D01*
X106149523Y-116042380D01*
X106578095Y-116137619D02*
X106625714Y-116090000D01*
X106720952Y-116042380D01*
X106959047Y-116042380D01*
X107054285Y-116090000D01*
X107101904Y-116137619D01*
X107149523Y-116232857D01*
X107149523Y-116328095D01*
X107101904Y-116470952D01*
X106530476Y-117042380D01*
X107149523Y-117042380D01*
X99946666Y-82702380D02*
X99946666Y-83416666D01*
X99899047Y-83559523D01*
X99803809Y-83654761D01*
X99660952Y-83702380D01*
X99565714Y-83702380D01*
X100422857Y-83702380D02*
X100422857Y-82702380D01*
X100803809Y-82702380D01*
X100899047Y-82750000D01*
X100946666Y-82797619D01*
X100994285Y-82892857D01*
X100994285Y-83035714D01*
X100946666Y-83130952D01*
X100899047Y-83178571D01*
X100803809Y-83226190D01*
X100422857Y-83226190D01*
X101946666Y-83702380D02*
X101375238Y-83702380D01*
X101660952Y-83702380D02*
X101660952Y-82702380D01*
X101565714Y-82845238D01*
X101470476Y-82940476D01*
X101375238Y-82988095D01*
X112057142Y-118856666D02*
X112104761Y-118904285D01*
X112152380Y-119047142D01*
X112152380Y-119142380D01*
X112104761Y-119285238D01*
X112009523Y-119380476D01*
X111914285Y-119428095D01*
X111723809Y-119475714D01*
X111580952Y-119475714D01*
X111390476Y-119428095D01*
X111295238Y-119380476D01*
X111200000Y-119285238D01*
X111152380Y-119142380D01*
X111152380Y-119047142D01*
X111200000Y-118904285D01*
X111247619Y-118856666D01*
X111152380Y-118523333D02*
X111152380Y-117856666D01*
X112152380Y-118285238D01*
X101442380Y-91222857D02*
X100966190Y-91556190D01*
X101442380Y-91794285D02*
X100442380Y-91794285D01*
X100442380Y-91413333D01*
X100490000Y-91318095D01*
X100537619Y-91270476D01*
X100632857Y-91222857D01*
X100775714Y-91222857D01*
X100870952Y-91270476D01*
X100918571Y-91318095D01*
X100966190Y-91413333D01*
X100966190Y-91794285D01*
X101442380Y-90270476D02*
X101442380Y-90841904D01*
X101442380Y-90556190D02*
X100442380Y-90556190D01*
X100585238Y-90651428D01*
X100680476Y-90746666D01*
X100728095Y-90841904D01*
X101442380Y-89318095D02*
X101442380Y-89889523D01*
X101442380Y-89603809D02*
X100442380Y-89603809D01*
X100585238Y-89699047D01*
X100680476Y-89794285D01*
X100728095Y-89889523D01*
X101437142Y-96502857D02*
X101484761Y-96550476D01*
X101532380Y-96693333D01*
X101532380Y-96788571D01*
X101484761Y-96931428D01*
X101389523Y-97026666D01*
X101294285Y-97074285D01*
X101103809Y-97121904D01*
X100960952Y-97121904D01*
X100770476Y-97074285D01*
X100675238Y-97026666D01*
X100580000Y-96931428D01*
X100532380Y-96788571D01*
X100532380Y-96693333D01*
X100580000Y-96550476D01*
X100627619Y-96502857D01*
X101532380Y-95550476D02*
X101532380Y-96121904D01*
X101532380Y-95836190D02*
X100532380Y-95836190D01*
X100675238Y-95931428D01*
X100770476Y-96026666D01*
X100818095Y-96121904D01*
X100532380Y-94931428D02*
X100532380Y-94836190D01*
X100580000Y-94740952D01*
X100627619Y-94693333D01*
X100722857Y-94645714D01*
X100913333Y-94598095D01*
X101151428Y-94598095D01*
X101341904Y-94645714D01*
X101437142Y-94693333D01*
X101484761Y-94740952D01*
X101532380Y-94836190D01*
X101532380Y-94931428D01*
X101484761Y-95026666D01*
X101437142Y-95074285D01*
X101341904Y-95121904D01*
X101151428Y-95169523D01*
X100913333Y-95169523D01*
X100722857Y-95121904D01*
X100627619Y-95074285D01*
X100580000Y-95026666D01*
X100532380Y-94931428D01*
X98182380Y-108753857D02*
X97706190Y-109087190D01*
X98182380Y-109325285D02*
X97182380Y-109325285D01*
X97182380Y-108944333D01*
X97230000Y-108849095D01*
X97277619Y-108801476D01*
X97372857Y-108753857D01*
X97515714Y-108753857D01*
X97610952Y-108801476D01*
X97658571Y-108849095D01*
X97706190Y-108944333D01*
X97706190Y-109325285D01*
X98182380Y-107801476D02*
X98182380Y-108372904D01*
X98182380Y-108087190D02*
X97182380Y-108087190D01*
X97325238Y-108182428D01*
X97420476Y-108277666D01*
X97468095Y-108372904D01*
X97182380Y-107182428D02*
X97182380Y-107087190D01*
X97230000Y-106991952D01*
X97277619Y-106944333D01*
X97372857Y-106896714D01*
X97563333Y-106849095D01*
X97801428Y-106849095D01*
X97991904Y-106896714D01*
X98087142Y-106944333D01*
X98134761Y-106991952D01*
X98182380Y-107087190D01*
X98182380Y-107182428D01*
X98134761Y-107277666D01*
X98087142Y-107325285D01*
X97991904Y-107372904D01*
X97801428Y-107420523D01*
X97563333Y-107420523D01*
X97372857Y-107372904D01*
X97277619Y-107325285D01*
X97230000Y-107277666D01*
X97182380Y-107182428D01*
X114317333Y-140226142D02*
X114269714Y-140273761D01*
X114126857Y-140321380D01*
X114031619Y-140321380D01*
X113888761Y-140273761D01*
X113793523Y-140178523D01*
X113745904Y-140083285D01*
X113698285Y-139892809D01*
X113698285Y-139749952D01*
X113745904Y-139559476D01*
X113793523Y-139464238D01*
X113888761Y-139369000D01*
X114031619Y-139321380D01*
X114126857Y-139321380D01*
X114269714Y-139369000D01*
X114317333Y-139416619D01*
X115222095Y-139321380D02*
X114745904Y-139321380D01*
X114698285Y-139797571D01*
X114745904Y-139749952D01*
X114841142Y-139702333D01*
X115079238Y-139702333D01*
X115174476Y-139749952D01*
X115222095Y-139797571D01*
X115269714Y-139892809D01*
X115269714Y-140130904D01*
X115222095Y-140226142D01*
X115174476Y-140273761D01*
X115079238Y-140321380D01*
X114841142Y-140321380D01*
X114745904Y-140273761D01*
X114698285Y-140226142D01*
X117883333Y-140226142D02*
X117835714Y-140273761D01*
X117692857Y-140321380D01*
X117597619Y-140321380D01*
X117454761Y-140273761D01*
X117359523Y-140178523D01*
X117311904Y-140083285D01*
X117264285Y-139892809D01*
X117264285Y-139749952D01*
X117311904Y-139559476D01*
X117359523Y-139464238D01*
X117454761Y-139369000D01*
X117597619Y-139321380D01*
X117692857Y-139321380D01*
X117835714Y-139369000D01*
X117883333Y-139416619D01*
X118740476Y-139654714D02*
X118740476Y-140321380D01*
X118502380Y-139273761D02*
X118264285Y-139988047D01*
X118883333Y-139988047D01*
X103227142Y-118851666D02*
X103274761Y-118899285D01*
X103322380Y-119042142D01*
X103322380Y-119137380D01*
X103274761Y-119280238D01*
X103179523Y-119375476D01*
X103084285Y-119423095D01*
X102893809Y-119470714D01*
X102750952Y-119470714D01*
X102560476Y-119423095D01*
X102465238Y-119375476D01*
X102370000Y-119280238D01*
X102322380Y-119137380D01*
X102322380Y-119042142D01*
X102370000Y-118899285D01*
X102417619Y-118851666D01*
X102417619Y-118470714D02*
X102370000Y-118423095D01*
X102322380Y-118327857D01*
X102322380Y-118089761D01*
X102370000Y-117994523D01*
X102417619Y-117946904D01*
X102512857Y-117899285D01*
X102608095Y-117899285D01*
X102750952Y-117946904D01*
X103322380Y-118518333D01*
X103322380Y-117899285D01*
X98107142Y-124128666D02*
X98154761Y-124176285D01*
X98202380Y-124319142D01*
X98202380Y-124414380D01*
X98154761Y-124557238D01*
X98059523Y-124652476D01*
X97964285Y-124700095D01*
X97773809Y-124747714D01*
X97630952Y-124747714D01*
X97440476Y-124700095D01*
X97345238Y-124652476D01*
X97250000Y-124557238D01*
X97202380Y-124414380D01*
X97202380Y-124319142D01*
X97250000Y-124176285D01*
X97297619Y-124128666D01*
X97202380Y-123795333D02*
X97202380Y-123176285D01*
X97583333Y-123509619D01*
X97583333Y-123366761D01*
X97630952Y-123271523D01*
X97678571Y-123223904D01*
X97773809Y-123176285D01*
X98011904Y-123176285D01*
X98107142Y-123223904D01*
X98154761Y-123271523D01*
X98202380Y-123366761D01*
X98202380Y-123652476D01*
X98154761Y-123747714D01*
X98107142Y-123795333D01*
X107502142Y-118856666D02*
X107549761Y-118904285D01*
X107597380Y-119047142D01*
X107597380Y-119142380D01*
X107549761Y-119285238D01*
X107454523Y-119380476D01*
X107359285Y-119428095D01*
X107168809Y-119475714D01*
X107025952Y-119475714D01*
X106835476Y-119428095D01*
X106740238Y-119380476D01*
X106645000Y-119285238D01*
X106597380Y-119142380D01*
X106597380Y-119047142D01*
X106645000Y-118904285D01*
X106692619Y-118856666D01*
X107597380Y-117904285D02*
X107597380Y-118475714D01*
X107597380Y-118190000D02*
X106597380Y-118190000D01*
X106740238Y-118285238D01*
X106835476Y-118380476D01*
X106883095Y-118475714D01*
X154607142Y-98692142D02*
X154559523Y-98739761D01*
X154416666Y-98787380D01*
X154321428Y-98787380D01*
X154178571Y-98739761D01*
X154083333Y-98644523D01*
X154035714Y-98549285D01*
X153988095Y-98358809D01*
X153988095Y-98215952D01*
X154035714Y-98025476D01*
X154083333Y-97930238D01*
X154178571Y-97835000D01*
X154321428Y-97787380D01*
X154416666Y-97787380D01*
X154559523Y-97835000D01*
X154607142Y-97882619D01*
X155559523Y-98787380D02*
X154988095Y-98787380D01*
X155273809Y-98787380D02*
X155273809Y-97787380D01*
X155178571Y-97930238D01*
X155083333Y-98025476D01*
X154988095Y-98073095D01*
X155940476Y-97882619D02*
X155988095Y-97835000D01*
X156083333Y-97787380D01*
X156321428Y-97787380D01*
X156416666Y-97835000D01*
X156464285Y-97882619D01*
X156511904Y-97977857D01*
X156511904Y-98073095D01*
X156464285Y-98215952D01*
X155892857Y-98787380D01*
X156511904Y-98787380D01*
X154607142Y-112457142D02*
X154559523Y-112504761D01*
X154416666Y-112552380D01*
X154321428Y-112552380D01*
X154178571Y-112504761D01*
X154083333Y-112409523D01*
X154035714Y-112314285D01*
X153988095Y-112123809D01*
X153988095Y-111980952D01*
X154035714Y-111790476D01*
X154083333Y-111695238D01*
X154178571Y-111600000D01*
X154321428Y-111552380D01*
X154416666Y-111552380D01*
X154559523Y-111600000D01*
X154607142Y-111647619D01*
X155559523Y-112552380D02*
X154988095Y-112552380D01*
X155273809Y-112552380D02*
X155273809Y-111552380D01*
X155178571Y-111695238D01*
X155083333Y-111790476D01*
X154988095Y-111838095D01*
X156511904Y-112552380D02*
X155940476Y-112552380D01*
X156226190Y-112552380D02*
X156226190Y-111552380D01*
X156130952Y-111695238D01*
X156035714Y-111790476D01*
X155940476Y-111838095D01*
X133857142Y-137797142D02*
X133809523Y-137844761D01*
X133666666Y-137892380D01*
X133571428Y-137892380D01*
X133428571Y-137844761D01*
X133333333Y-137749523D01*
X133285714Y-137654285D01*
X133238095Y-137463809D01*
X133238095Y-137320952D01*
X133285714Y-137130476D01*
X133333333Y-137035238D01*
X133428571Y-136940000D01*
X133571428Y-136892380D01*
X133666666Y-136892380D01*
X133809523Y-136940000D01*
X133857142Y-136987619D01*
X134809523Y-137892380D02*
X134238095Y-137892380D01*
X134523809Y-137892380D02*
X134523809Y-136892380D01*
X134428571Y-137035238D01*
X134333333Y-137130476D01*
X134238095Y-137178095D01*
X135714285Y-136892380D02*
X135238095Y-136892380D01*
X135190476Y-137368571D01*
X135238095Y-137320952D01*
X135333333Y-137273333D01*
X135571428Y-137273333D01*
X135666666Y-137320952D01*
X135714285Y-137368571D01*
X135761904Y-137463809D01*
X135761904Y-137701904D01*
X135714285Y-137797142D01*
X135666666Y-137844761D01*
X135571428Y-137892380D01*
X135333333Y-137892380D01*
X135238095Y-137844761D01*
X135190476Y-137797142D01*
X124434761Y-123663619D02*
X124339523Y-123616000D01*
X124244285Y-123520761D01*
X124101428Y-123377904D01*
X124006190Y-123330285D01*
X123910952Y-123330285D01*
X123958571Y-123568380D02*
X123863333Y-123520761D01*
X123768095Y-123425523D01*
X123720476Y-123235047D01*
X123720476Y-122901714D01*
X123768095Y-122711238D01*
X123863333Y-122616000D01*
X123958571Y-122568380D01*
X124149047Y-122568380D01*
X124244285Y-122616000D01*
X124339523Y-122711238D01*
X124387142Y-122901714D01*
X124387142Y-123235047D01*
X124339523Y-123425523D01*
X124244285Y-123520761D01*
X124149047Y-123568380D01*
X123958571Y-123568380D01*
X124720476Y-122568380D02*
X125339523Y-122568380D01*
X125006190Y-122949333D01*
X125149047Y-122949333D01*
X125244285Y-122996952D01*
X125291904Y-123044571D01*
X125339523Y-123139809D01*
X125339523Y-123377904D01*
X125291904Y-123473142D01*
X125244285Y-123520761D01*
X125149047Y-123568380D01*
X124863333Y-123568380D01*
X124768095Y-123520761D01*
X124720476Y-123473142D01*
X120428761Y-129789619D02*
X120333523Y-129742000D01*
X120238285Y-129646761D01*
X120095428Y-129503904D01*
X120000190Y-129456285D01*
X119904952Y-129456285D01*
X119952571Y-129694380D02*
X119857333Y-129646761D01*
X119762095Y-129551523D01*
X119714476Y-129361047D01*
X119714476Y-129027714D01*
X119762095Y-128837238D01*
X119857333Y-128742000D01*
X119952571Y-128694380D01*
X120143047Y-128694380D01*
X120238285Y-128742000D01*
X120333523Y-128837238D01*
X120381142Y-129027714D01*
X120381142Y-129361047D01*
X120333523Y-129551523D01*
X120238285Y-129646761D01*
X120143047Y-129694380D01*
X119952571Y-129694380D01*
X121238285Y-129027714D02*
X121238285Y-129694380D01*
X121000190Y-128646761D02*
X120762095Y-129361047D01*
X121381142Y-129361047D01*
X119567142Y-123558380D02*
X119233809Y-123082190D01*
X118995714Y-123558380D02*
X118995714Y-122558380D01*
X119376666Y-122558380D01*
X119471904Y-122606000D01*
X119519523Y-122653619D01*
X119567142Y-122748857D01*
X119567142Y-122891714D01*
X119519523Y-122986952D01*
X119471904Y-123034571D01*
X119376666Y-123082190D01*
X118995714Y-123082190D01*
X120519523Y-123558380D02*
X119948095Y-123558380D01*
X120233809Y-123558380D02*
X120233809Y-122558380D01*
X120138571Y-122701238D01*
X120043333Y-122796476D01*
X119948095Y-122844095D01*
X120852857Y-122558380D02*
X121471904Y-122558380D01*
X121138571Y-122939333D01*
X121281428Y-122939333D01*
X121376666Y-122986952D01*
X121424285Y-123034571D01*
X121471904Y-123129809D01*
X121471904Y-123367904D01*
X121424285Y-123463142D01*
X121376666Y-123510761D01*
X121281428Y-123558380D01*
X120995714Y-123558380D01*
X120900476Y-123510761D01*
X120852857Y-123463142D01*
X133843142Y-127824142D02*
X133795523Y-127871761D01*
X133652666Y-127919380D01*
X133557428Y-127919380D01*
X133414571Y-127871761D01*
X133319333Y-127776523D01*
X133271714Y-127681285D01*
X133224095Y-127490809D01*
X133224095Y-127347952D01*
X133271714Y-127157476D01*
X133319333Y-127062238D01*
X133414571Y-126967000D01*
X133557428Y-126919380D01*
X133652666Y-126919380D01*
X133795523Y-126967000D01*
X133843142Y-127014619D01*
X134795523Y-127919380D02*
X134224095Y-127919380D01*
X134509809Y-127919380D02*
X134509809Y-126919380D01*
X134414571Y-127062238D01*
X134319333Y-127157476D01*
X134224095Y-127205095D01*
X135652666Y-127252714D02*
X135652666Y-127919380D01*
X135414571Y-126871761D02*
X135176476Y-127586047D01*
X135795523Y-127586047D01*
X124813333Y-140262380D02*
X124480000Y-139786190D01*
X124241904Y-140262380D02*
X124241904Y-139262380D01*
X124622857Y-139262380D01*
X124718095Y-139310000D01*
X124765714Y-139357619D01*
X124813333Y-139452857D01*
X124813333Y-139595714D01*
X124765714Y-139690952D01*
X124718095Y-139738571D01*
X124622857Y-139786190D01*
X124241904Y-139786190D01*
X125146666Y-139262380D02*
X125765714Y-139262380D01*
X125432380Y-139643333D01*
X125575238Y-139643333D01*
X125670476Y-139690952D01*
X125718095Y-139738571D01*
X125765714Y-139833809D01*
X125765714Y-140071904D01*
X125718095Y-140167142D01*
X125670476Y-140214761D01*
X125575238Y-140262380D01*
X125289523Y-140262380D01*
X125194285Y-140214761D01*
X125146666Y-140167142D01*
X121305333Y-140292380D02*
X120972000Y-139816190D01*
X120733904Y-140292380D02*
X120733904Y-139292380D01*
X121114857Y-139292380D01*
X121210095Y-139340000D01*
X121257714Y-139387619D01*
X121305333Y-139482857D01*
X121305333Y-139625714D01*
X121257714Y-139720952D01*
X121210095Y-139768571D01*
X121114857Y-139816190D01*
X120733904Y-139816190D01*
X122162476Y-139625714D02*
X122162476Y-140292380D01*
X121924380Y-139244761D02*
X121686285Y-139959047D01*
X122305333Y-139959047D01*
M02*
