G04 #@! TF.GenerationSoftware,KiCad,Pcbnew,(5.1.2)-1*
G04 #@! TF.CreationDate,2022-09-28T11:17:11-03:00*
G04 #@! TF.ProjectId,esp32,65737033-322e-46b6-9963-61645f706362,rev?*
G04 #@! TF.SameCoordinates,Original*
G04 #@! TF.FileFunction,Legend,Top*
G04 #@! TF.FilePolarity,Positive*
%FSLAX46Y46*%
G04 Gerber Fmt 4.6, Leading zero omitted, Abs format (unit mm)*
G04 Created by KiCad (PCBNEW (5.1.2)-1) date 2022-09-28 11:17:11*
%MOMM*%
%LPD*%
G04 APERTURE LIST*
%ADD10C,0.150000*%
%ADD11C,0.120000*%
%ADD12C,0.200000*%
%ADD13C,0.254000*%
G04 APERTURE END LIST*
D10*
X162345714Y-89765095D02*
X163345714Y-89765095D01*
X162393333Y-89765095D02*
X162345714Y-89669857D01*
X162345714Y-89479380D01*
X162393333Y-89384142D01*
X162440952Y-89336523D01*
X162536190Y-89288904D01*
X162821904Y-89288904D01*
X162917142Y-89336523D01*
X162964761Y-89384142D01*
X163012380Y-89479380D01*
X163012380Y-89669857D01*
X162964761Y-89765095D01*
X163012380Y-88860333D02*
X162012380Y-88860333D01*
X162488571Y-88860333D02*
X162488571Y-88288904D01*
X163012380Y-88288904D02*
X162012380Y-88288904D01*
X140930380Y-90249238D02*
X140930380Y-90058761D01*
X140978000Y-89963523D01*
X141073238Y-89868285D01*
X141263714Y-89820666D01*
X141597047Y-89820666D01*
X141787523Y-89868285D01*
X141882761Y-89963523D01*
X141930380Y-90058761D01*
X141930380Y-90249238D01*
X141882761Y-90344476D01*
X141787523Y-90439714D01*
X141597047Y-90487333D01*
X141263714Y-90487333D01*
X141073238Y-90439714D01*
X140978000Y-90344476D01*
X140930380Y-90249238D01*
X141930380Y-88820666D02*
X141454190Y-89154000D01*
X141930380Y-89392095D02*
X140930380Y-89392095D01*
X140930380Y-89011142D01*
X140978000Y-88915904D01*
X141025619Y-88868285D01*
X141120857Y-88820666D01*
X141263714Y-88820666D01*
X141358952Y-88868285D01*
X141406571Y-88915904D01*
X141454190Y-89011142D01*
X141454190Y-89392095D01*
X141930380Y-88392095D02*
X140930380Y-88392095D01*
X140930380Y-88011142D01*
X140978000Y-87915904D01*
X141025619Y-87868285D01*
X141120857Y-87820666D01*
X141263714Y-87820666D01*
X141358952Y-87868285D01*
X141406571Y-87915904D01*
X141454190Y-88011142D01*
X141454190Y-88392095D01*
X131500571Y-135485047D02*
X131548190Y-135342190D01*
X131595809Y-135294571D01*
X131691047Y-135246952D01*
X131833904Y-135246952D01*
X131929142Y-135294571D01*
X131976761Y-135342190D01*
X132024380Y-135437428D01*
X132024380Y-135818380D01*
X131024380Y-135818380D01*
X131024380Y-135485047D01*
X131072000Y-135389809D01*
X131119619Y-135342190D01*
X131214857Y-135294571D01*
X131310095Y-135294571D01*
X131405333Y-135342190D01*
X131452952Y-135389809D01*
X131500571Y-135485047D01*
X131500571Y-135818380D01*
X132024380Y-134675523D02*
X131976761Y-134770761D01*
X131929142Y-134818380D01*
X131833904Y-134866000D01*
X131548190Y-134866000D01*
X131452952Y-134818380D01*
X131405333Y-134770761D01*
X131357714Y-134675523D01*
X131357714Y-134532666D01*
X131405333Y-134437428D01*
X131452952Y-134389809D01*
X131548190Y-134342190D01*
X131833904Y-134342190D01*
X131929142Y-134389809D01*
X131976761Y-134437428D01*
X132024380Y-134532666D01*
X132024380Y-134675523D01*
X132024380Y-133770761D02*
X131976761Y-133866000D01*
X131929142Y-133913619D01*
X131833904Y-133961238D01*
X131548190Y-133961238D01*
X131452952Y-133913619D01*
X131405333Y-133866000D01*
X131357714Y-133770761D01*
X131357714Y-133627904D01*
X131405333Y-133532666D01*
X131452952Y-133485047D01*
X131548190Y-133437428D01*
X131833904Y-133437428D01*
X131929142Y-133485047D01*
X131976761Y-133532666D01*
X132024380Y-133627904D01*
X132024380Y-133770761D01*
X131357714Y-133151714D02*
X131357714Y-132770761D01*
X131024380Y-133008857D02*
X131881523Y-133008857D01*
X131976761Y-132961238D01*
X132024380Y-132866000D01*
X132024380Y-132770761D01*
D11*
X50000Y-1550000D02*
X50000Y250000D01*
X-60000Y-1100000D02*
X-60000Y750000D01*
D10*
X165933380Y-106678857D02*
X164933380Y-106678857D01*
X164933380Y-106297904D01*
X164981000Y-106202666D01*
X165028619Y-106155047D01*
X165123857Y-106107428D01*
X165266714Y-106107428D01*
X165361952Y-106155047D01*
X165409571Y-106202666D01*
X165457190Y-106297904D01*
X165457190Y-106678857D01*
X165933380Y-105536000D02*
X165885761Y-105631238D01*
X165838142Y-105678857D01*
X165742904Y-105726476D01*
X165457190Y-105726476D01*
X165361952Y-105678857D01*
X165314333Y-105631238D01*
X165266714Y-105536000D01*
X165266714Y-105393142D01*
X165314333Y-105297904D01*
X165361952Y-105250285D01*
X165457190Y-105202666D01*
X165742904Y-105202666D01*
X165838142Y-105250285D01*
X165885761Y-105297904D01*
X165933380Y-105393142D01*
X165933380Y-105536000D01*
X165933380Y-104631238D02*
X165885761Y-104726476D01*
X165838142Y-104774095D01*
X165742904Y-104821714D01*
X165457190Y-104821714D01*
X165361952Y-104774095D01*
X165314333Y-104726476D01*
X165266714Y-104631238D01*
X165266714Y-104488380D01*
X165314333Y-104393142D01*
X165361952Y-104345523D01*
X165457190Y-104297904D01*
X165742904Y-104297904D01*
X165838142Y-104345523D01*
X165885761Y-104393142D01*
X165933380Y-104488380D01*
X165933380Y-104631238D01*
X165933380Y-103726476D02*
X165885761Y-103821714D01*
X165790523Y-103869333D01*
X164933380Y-103869333D01*
X165647666Y-102631238D02*
X165647666Y-102155047D01*
X165933380Y-102726476D02*
X164933380Y-102393142D01*
X165933380Y-102059809D01*
X165885761Y-101774095D02*
X165933380Y-101678857D01*
X165933380Y-101488380D01*
X165885761Y-101393142D01*
X165790523Y-101345523D01*
X165742904Y-101345523D01*
X165647666Y-101393142D01*
X165600047Y-101488380D01*
X165600047Y-101631238D01*
X165552428Y-101726476D01*
X165457190Y-101774095D01*
X165409571Y-101774095D01*
X165314333Y-101726476D01*
X165266714Y-101631238D01*
X165266714Y-101488380D01*
X165314333Y-101393142D01*
X165885761Y-100964571D02*
X165933380Y-100869333D01*
X165933380Y-100678857D01*
X165885761Y-100583619D01*
X165790523Y-100536000D01*
X165742904Y-100536000D01*
X165647666Y-100583619D01*
X165600047Y-100678857D01*
X165600047Y-100821714D01*
X165552428Y-100916952D01*
X165457190Y-100964571D01*
X165409571Y-100964571D01*
X165314333Y-100916952D01*
X165266714Y-100821714D01*
X165266714Y-100678857D01*
X165314333Y-100583619D01*
X165933380Y-100107428D02*
X165266714Y-100107428D01*
X164933380Y-100107428D02*
X164981000Y-100155047D01*
X165028619Y-100107428D01*
X164981000Y-100059809D01*
X164933380Y-100107428D01*
X165028619Y-100107428D01*
X165885761Y-99678857D02*
X165933380Y-99583619D01*
X165933380Y-99393142D01*
X165885761Y-99297904D01*
X165790523Y-99250285D01*
X165742904Y-99250285D01*
X165647666Y-99297904D01*
X165600047Y-99393142D01*
X165600047Y-99536000D01*
X165552428Y-99631238D01*
X165457190Y-99678857D01*
X165409571Y-99678857D01*
X165314333Y-99631238D01*
X165266714Y-99536000D01*
X165266714Y-99393142D01*
X165314333Y-99297904D01*
X165266714Y-98964571D02*
X165266714Y-98583619D01*
X164933380Y-98821714D02*
X165790523Y-98821714D01*
X165885761Y-98774095D01*
X165933380Y-98678857D01*
X165933380Y-98583619D01*
X165933380Y-97821714D02*
X165409571Y-97821714D01*
X165314333Y-97869333D01*
X165266714Y-97964571D01*
X165266714Y-98155047D01*
X165314333Y-98250285D01*
X165885761Y-97821714D02*
X165933380Y-97916952D01*
X165933380Y-98155047D01*
X165885761Y-98250285D01*
X165790523Y-98297904D01*
X165695285Y-98297904D01*
X165600047Y-98250285D01*
X165552428Y-98155047D01*
X165552428Y-97916952D01*
X165504809Y-97821714D01*
X165266714Y-97345523D02*
X165933380Y-97345523D01*
X165361952Y-97345523D02*
X165314333Y-97297904D01*
X165266714Y-97202666D01*
X165266714Y-97059809D01*
X165314333Y-96964571D01*
X165409571Y-96916952D01*
X165933380Y-96916952D01*
X165266714Y-96583619D02*
X165266714Y-96202666D01*
X164933380Y-96440761D02*
X165790523Y-96440761D01*
X165885761Y-96393142D01*
X165933380Y-96297904D01*
X165933380Y-96202666D01*
X165933380Y-95107428D02*
X164933380Y-95107428D01*
X165933380Y-94488380D02*
X165885761Y-94583619D01*
X165838142Y-94631238D01*
X165742904Y-94678857D01*
X165457190Y-94678857D01*
X165361952Y-94631238D01*
X165314333Y-94583619D01*
X165266714Y-94488380D01*
X165266714Y-94345523D01*
X165314333Y-94250285D01*
X165361952Y-94202666D01*
X165457190Y-94155047D01*
X165742904Y-94155047D01*
X165838142Y-94202666D01*
X165885761Y-94250285D01*
X165933380Y-94345523D01*
X165933380Y-94488380D01*
X164933380Y-93869333D02*
X164933380Y-93297904D01*
X165933380Y-93583619D02*
X164933380Y-93583619D01*
X165552428Y-92202666D02*
X165552428Y-91440761D01*
X164933380Y-90345523D02*
X165933380Y-90012190D01*
X164933380Y-89678857D01*
X165838142Y-89345523D02*
X165885761Y-89297904D01*
X165933380Y-89345523D01*
X165885761Y-89393142D01*
X165838142Y-89345523D01*
X165933380Y-89345523D01*
X165028619Y-88916952D02*
X164981000Y-88869333D01*
X164933380Y-88774095D01*
X164933380Y-88536000D01*
X164981000Y-88440761D01*
X165028619Y-88393142D01*
X165123857Y-88345523D01*
X165219095Y-88345523D01*
X165361952Y-88393142D01*
X165933380Y-88964571D01*
X165933380Y-88345523D01*
X89989047Y-102856428D02*
X90750952Y-102856428D01*
X89949047Y-90466428D02*
X90710952Y-90466428D01*
X90330000Y-90847380D02*
X90330000Y-90085476D01*
X131770380Y-119856095D02*
X131294190Y-120189428D01*
X131770380Y-120427523D02*
X130770380Y-120427523D01*
X130770380Y-120046571D01*
X130818000Y-119951333D01*
X130865619Y-119903714D01*
X130960857Y-119856095D01*
X131103714Y-119856095D01*
X131198952Y-119903714D01*
X131246571Y-119951333D01*
X131294190Y-120046571D01*
X131294190Y-120427523D01*
X131722761Y-119046571D02*
X131770380Y-119141809D01*
X131770380Y-119332285D01*
X131722761Y-119427523D01*
X131627523Y-119475142D01*
X131246571Y-119475142D01*
X131151333Y-119427523D01*
X131103714Y-119332285D01*
X131103714Y-119141809D01*
X131151333Y-119046571D01*
X131246571Y-118998952D01*
X131341809Y-118998952D01*
X131437047Y-119475142D01*
X131722761Y-118618000D02*
X131770380Y-118522761D01*
X131770380Y-118332285D01*
X131722761Y-118237047D01*
X131627523Y-118189428D01*
X131579904Y-118189428D01*
X131484666Y-118237047D01*
X131437047Y-118332285D01*
X131437047Y-118475142D01*
X131389428Y-118570380D01*
X131294190Y-118618000D01*
X131246571Y-118618000D01*
X131151333Y-118570380D01*
X131103714Y-118475142D01*
X131103714Y-118332285D01*
X131151333Y-118237047D01*
X131722761Y-117379904D02*
X131770380Y-117475142D01*
X131770380Y-117665619D01*
X131722761Y-117760857D01*
X131627523Y-117808476D01*
X131246571Y-117808476D01*
X131151333Y-117760857D01*
X131103714Y-117665619D01*
X131103714Y-117475142D01*
X131151333Y-117379904D01*
X131246571Y-117332285D01*
X131341809Y-117332285D01*
X131437047Y-117808476D01*
X131103714Y-117046571D02*
X131103714Y-116665619D01*
X130770380Y-116903714D02*
X131627523Y-116903714D01*
X131722761Y-116856095D01*
X131770380Y-116760857D01*
X131770380Y-116665619D01*
X131500571Y-135485047D02*
X131548190Y-135342190D01*
X131595809Y-135294571D01*
X131691047Y-135246952D01*
X131833904Y-135246952D01*
X131929142Y-135294571D01*
X131976761Y-135342190D01*
X132024380Y-135437428D01*
X132024380Y-135818380D01*
X131024380Y-135818380D01*
X131024380Y-135485047D01*
X131072000Y-135389809D01*
X131119619Y-135342190D01*
X131214857Y-135294571D01*
X131310095Y-135294571D01*
X131405333Y-135342190D01*
X131452952Y-135389809D01*
X131500571Y-135485047D01*
X131500571Y-135818380D01*
X132024380Y-134675523D02*
X131976761Y-134770761D01*
X131929142Y-134818380D01*
X131833904Y-134866000D01*
X131548190Y-134866000D01*
X131452952Y-134818380D01*
X131405333Y-134770761D01*
X131357714Y-134675523D01*
X131357714Y-134532666D01*
X131405333Y-134437428D01*
X131452952Y-134389809D01*
X131548190Y-134342190D01*
X131833904Y-134342190D01*
X131929142Y-134389809D01*
X131976761Y-134437428D01*
X132024380Y-134532666D01*
X132024380Y-134675523D01*
X132024380Y-133770761D02*
X131976761Y-133866000D01*
X131929142Y-133913619D01*
X131833904Y-133961238D01*
X131548190Y-133961238D01*
X131452952Y-133913619D01*
X131405333Y-133866000D01*
X131357714Y-133770761D01*
X131357714Y-133627904D01*
X131405333Y-133532666D01*
X131452952Y-133485047D01*
X131548190Y-133437428D01*
X131833904Y-133437428D01*
X131929142Y-133485047D01*
X131976761Y-133532666D01*
X132024380Y-133627904D01*
X132024380Y-133770761D01*
X131357714Y-133151714D02*
X131357714Y-132770761D01*
X131024380Y-133008857D02*
X131881523Y-133008857D01*
X131976761Y-132961238D01*
X132024380Y-132866000D01*
X132024380Y-132770761D01*
D11*
X98526600Y-143243300D02*
X107721400Y-143243300D01*
X107721400Y-143243300D02*
X107721400Y-141712293D01*
X98526600Y-137684692D02*
X98526600Y-139339109D01*
X98526600Y-141712293D02*
X98526600Y-143243300D01*
X107721400Y-139339109D02*
X107721400Y-137684692D01*
X96390000Y-137499252D02*
X96390000Y-136976748D01*
X94970000Y-137499252D02*
X94970000Y-136976748D01*
X111708000Y-137499252D02*
X111708000Y-136976748D01*
X110288000Y-137499252D02*
X110288000Y-136976748D01*
X140649000Y-113665000D02*
X140649000Y-114995000D01*
X140649000Y-114995000D02*
X139319000Y-114995000D01*
X138049000Y-114995000D02*
X135449000Y-114995000D01*
X135449000Y-112335000D02*
X135449000Y-114995000D01*
X138049000Y-112335000D02*
X135449000Y-112335000D01*
X138049000Y-112335000D02*
X138049000Y-114995000D01*
X110499200Y-82753200D02*
X110499200Y-84083200D01*
X110499200Y-84083200D02*
X109169200Y-84083200D01*
X107899200Y-84083200D02*
X105299200Y-84083200D01*
X105299200Y-81423200D02*
X105299200Y-84083200D01*
X107899200Y-81423200D02*
X105299200Y-81423200D01*
X107899200Y-81423200D02*
X107899200Y-84083200D01*
X145609000Y-139255500D02*
X145609000Y-137925500D01*
X145609000Y-137925500D02*
X146939000Y-137925500D01*
X148209000Y-137925500D02*
X150809000Y-137925500D01*
X150809000Y-140585500D02*
X150809000Y-137925500D01*
X148209000Y-140585500D02*
X150809000Y-140585500D01*
X148209000Y-140585500D02*
X148209000Y-137925500D01*
X142998500Y-139319000D02*
X142998500Y-140649000D01*
X142998500Y-140649000D02*
X141668500Y-140649000D01*
X140398500Y-140649000D02*
X137798500Y-140649000D01*
X137798500Y-137989000D02*
X137798500Y-140649000D01*
X140398500Y-137989000D02*
X137798500Y-137989000D01*
X140398500Y-137989000D02*
X140398500Y-140649000D01*
X95758000Y-117923000D02*
X97088000Y-117923000D01*
X97088000Y-117923000D02*
X97088000Y-119253000D01*
X97088000Y-120523000D02*
X97088000Y-123123000D01*
X94428000Y-123123000D02*
X97088000Y-123123000D01*
X94428000Y-120523000D02*
X94428000Y-123123000D01*
X94428000Y-120523000D02*
X97088000Y-120523000D01*
X126730000Y-115635000D02*
X130430000Y-115635000D01*
X126730000Y-121755000D02*
X126730000Y-115635000D01*
X130430000Y-121755000D02*
X126730000Y-121755000D01*
X130430000Y-115635000D02*
X130430000Y-121755000D01*
X141986000Y-107208000D02*
X145436000Y-107208000D01*
X141986000Y-107208000D02*
X140036000Y-107208000D01*
X141986000Y-102088000D02*
X143936000Y-102088000D01*
X141986000Y-102088000D02*
X140036000Y-102088000D01*
X132080000Y-81226000D02*
X133080000Y-82226000D01*
X132080000Y-81226000D02*
X131080000Y-82226000D01*
X124580000Y-96026000D02*
X124580000Y-81026000D01*
X139580000Y-96026000D02*
X124580000Y-96026000D01*
X139580000Y-81026000D02*
X139580000Y-96026000D01*
X124580000Y-81026000D02*
X139580000Y-81026000D01*
X153386000Y-81226000D02*
X154386000Y-82226000D01*
X153386000Y-81226000D02*
X152386000Y-82226000D01*
X145886000Y-96026000D02*
X145886000Y-81026000D01*
X160886000Y-96026000D02*
X145886000Y-96026000D01*
X160886000Y-81026000D02*
X160886000Y-96026000D01*
X145886000Y-81026000D02*
X160886000Y-81026000D01*
X159190000Y-117118000D02*
X159190000Y-116738000D01*
X165610000Y-117118000D02*
X159190000Y-117118000D01*
X165610000Y-135358000D02*
X159190000Y-135358000D01*
X165610000Y-117118000D02*
X165610000Y-135358000D01*
X139865000Y-135358000D02*
X139865000Y-134358000D01*
X140645000Y-135358000D02*
X139865000Y-135358000D01*
X139865000Y-117118000D02*
X139865000Y-118118000D01*
X140645000Y-117118000D02*
X139865000Y-117118000D01*
X106340000Y-121330000D02*
X102890000Y-121330000D01*
X106340000Y-121330000D02*
X108290000Y-121330000D01*
X106340000Y-131450000D02*
X104390000Y-131450000D01*
X106340000Y-131450000D02*
X108290000Y-131450000D01*
X130810000Y-102088000D02*
X128860000Y-102088000D01*
X130810000Y-102088000D02*
X132760000Y-102088000D01*
X130810000Y-107208000D02*
X128860000Y-107208000D01*
X130810000Y-107208000D02*
X134260000Y-107208000D01*
X153162000Y-107208000D02*
X156612000Y-107208000D01*
X153162000Y-107208000D02*
X151212000Y-107208000D01*
X153162000Y-102088000D02*
X155112000Y-102088000D01*
X153162000Y-102088000D02*
X151212000Y-102088000D01*
X126044000Y-103438000D02*
X124714000Y-103438000D01*
X126044000Y-102108000D02*
X126044000Y-103438000D01*
X126044000Y-100838000D02*
X123384000Y-100838000D01*
X123384000Y-100838000D02*
X123384000Y-98238000D01*
X126044000Y-100838000D02*
X126044000Y-98238000D01*
X126044000Y-98238000D02*
X123384000Y-98238000D01*
X98104000Y-110176000D02*
X98104000Y-111506000D01*
X96774000Y-110176000D02*
X98104000Y-110176000D01*
X95504000Y-110176000D02*
X95504000Y-112836000D01*
X95504000Y-112836000D02*
X92904000Y-112836000D01*
X95504000Y-110176000D02*
X92904000Y-110176000D01*
X92904000Y-110176000D02*
X92904000Y-112836000D01*
X130374000Y-137680000D02*
X126674000Y-137680000D01*
X130374000Y-131560000D02*
X130374000Y-137680000D01*
X126674000Y-131560000D02*
X130374000Y-131560000D01*
X126674000Y-137680000D02*
X126674000Y-131560000D01*
X142247252Y-98858000D02*
X141724748Y-98858000D01*
X142247252Y-100278000D02*
X141724748Y-100278000D01*
X152900748Y-110438000D02*
X153423252Y-110438000D01*
X152900748Y-109018000D02*
X153423252Y-109018000D01*
X147312748Y-100278000D02*
X147835252Y-100278000D01*
X147312748Y-98858000D02*
X147835252Y-98858000D01*
X136659252Y-109018000D02*
X136136748Y-109018000D01*
X136659252Y-110438000D02*
X136136748Y-110438000D01*
X136659252Y-98858000D02*
X136136748Y-98858000D01*
X136659252Y-100278000D02*
X136136748Y-100278000D01*
X130548748Y-110438000D02*
X131071252Y-110438000D01*
X130548748Y-109018000D02*
X131071252Y-109018000D01*
X131071252Y-98858000D02*
X130548748Y-98858000D01*
X131071252Y-100278000D02*
X130548748Y-100278000D01*
X142247252Y-109018000D02*
X141724748Y-109018000D01*
X142247252Y-110438000D02*
X141724748Y-110438000D01*
X119686000Y-106427748D02*
X119686000Y-106950252D01*
X121106000Y-106427748D02*
X121106000Y-106950252D01*
X116384000Y-106409748D02*
X116384000Y-106932252D01*
X117804000Y-106409748D02*
X117804000Y-106932252D01*
X153423252Y-98858000D02*
X152900748Y-98858000D01*
X153423252Y-100278000D02*
X152900748Y-100278000D01*
X147312748Y-110438000D02*
X147835252Y-110438000D01*
X147312748Y-109018000D02*
X147835252Y-109018000D01*
X123130000Y-110176000D02*
X124460000Y-110176000D01*
X123130000Y-111506000D02*
X123130000Y-110176000D01*
X123130000Y-112776000D02*
X125790000Y-112776000D01*
X125790000Y-112776000D02*
X125790000Y-115376000D01*
X123130000Y-112776000D02*
X123130000Y-115376000D01*
X123130000Y-115376000D02*
X125790000Y-115376000D01*
X115764000Y-110176000D02*
X117094000Y-110176000D01*
X115764000Y-111506000D02*
X115764000Y-110176000D01*
X115764000Y-112776000D02*
X118424000Y-112776000D01*
X118424000Y-112776000D02*
X118424000Y-115376000D01*
X115764000Y-112776000D02*
X115764000Y-115376000D01*
X115764000Y-115376000D02*
X118424000Y-115376000D01*
X107930000Y-92964000D02*
X107930000Y-96414000D01*
X107930000Y-92964000D02*
X107930000Y-91014000D01*
X113050000Y-92964000D02*
X113050000Y-94914000D01*
X113050000Y-92964000D02*
X113050000Y-91014000D01*
X99330000Y-119064000D02*
X99330000Y-117664000D01*
X100030000Y-116964000D02*
X100630000Y-116964000D01*
X101330000Y-117664000D02*
X101330000Y-119064000D01*
X100630000Y-119764000D02*
X100030000Y-119764000D01*
X100030000Y-119764000D02*
G75*
G02X99330000Y-119064000I0J700000D01*
G01*
X101330000Y-119064000D02*
G75*
G02X100630000Y-119764000I-700000J0D01*
G01*
X100630000Y-116964000D02*
G75*
G02X101330000Y-117664000I0J-700000D01*
G01*
X99330000Y-117664000D02*
G75*
G02X100030000Y-116964000I700000J0D01*
G01*
X99061748Y-85292000D02*
X99584252Y-85292000D01*
X99061748Y-83872000D02*
X99584252Y-83872000D01*
X96876000Y-88094252D02*
X96876000Y-87571748D01*
X95456000Y-88094252D02*
X95456000Y-87571748D01*
X119446000Y-101063748D02*
X119446000Y-101586252D01*
X120866000Y-101063748D02*
X120866000Y-101586252D01*
X119446000Y-94873748D02*
X119446000Y-95396252D01*
X120866000Y-94873748D02*
X120866000Y-95396252D01*
X108010000Y-106956252D02*
X108010000Y-106433748D01*
X109430000Y-106956252D02*
X109430000Y-106433748D01*
X89180000Y-91545000D02*
X89180000Y-93545000D01*
X91420000Y-91545000D02*
X89180000Y-91545000D01*
X92504000Y-98165000D02*
X92411000Y-98071000D01*
X94755000Y-100415000D02*
X94696000Y-100356000D01*
X92264000Y-98335000D02*
X92206000Y-98276000D01*
X94549000Y-100620000D02*
X94456000Y-100526000D01*
X97540000Y-101905000D02*
X89420000Y-101905000D01*
X97540000Y-91785000D02*
X89420000Y-91785000D01*
X89420000Y-91785000D02*
X89420000Y-101905000D01*
X97540000Y-91785000D02*
X97540000Y-101905000D01*
X95480000Y-91785000D02*
X95480000Y-101905000D01*
X91480000Y-91785000D02*
X91480000Y-101905000D01*
X95160000Y-99345000D02*
G75*
G03X95160000Y-99345000I-1680000J0D01*
G01*
X91799550Y-94374383D02*
G75*
G02X91996000Y-93556000I1680450J29383D01*
G01*
X92690912Y-92861047D02*
G75*
G02X94269000Y-92861000I789088J-1483953D01*
G01*
X94963953Y-93555912D02*
G75*
G02X94964000Y-95134000I-1483953J-789088D01*
G01*
X94269088Y-95828953D02*
G75*
G02X92691000Y-95829000I-789088J1483953D01*
G01*
X91996648Y-95133712D02*
G75*
G02X91800000Y-94345000I1483352J788712D01*
G01*
X105866000Y-94489748D02*
X105866000Y-95012252D01*
X104446000Y-94489748D02*
X104446000Y-95012252D01*
X101080000Y-114321252D02*
X101080000Y-113798748D01*
X99660000Y-114321252D02*
X99660000Y-113798748D01*
X112260000Y-106956252D02*
X112260000Y-106433748D01*
X113680000Y-106956252D02*
X113680000Y-106433748D01*
X105180000Y-106956252D02*
X105180000Y-106433748D01*
X103760000Y-106956252D02*
X103760000Y-106433748D01*
X106340000Y-110615000D02*
X102890000Y-110615000D01*
X106340000Y-110615000D02*
X108290000Y-110615000D01*
X106340000Y-115735000D02*
X104390000Y-115735000D01*
X106340000Y-115735000D02*
X108290000Y-115735000D01*
X104962000Y-89154000D02*
X104962000Y-90484000D01*
X104962000Y-90484000D02*
X103632000Y-90484000D01*
X102362000Y-90484000D02*
X99762000Y-90484000D01*
X99762000Y-87824000D02*
X99762000Y-90484000D01*
X102362000Y-87824000D02*
X99762000Y-87824000D01*
X102362000Y-87824000D02*
X102362000Y-90484000D01*
X117670000Y-118433748D02*
X117670000Y-118956252D01*
X116250000Y-118433748D02*
X116250000Y-118956252D01*
X101440000Y-93523748D02*
X101440000Y-94046252D01*
X100020000Y-93523748D02*
X100020000Y-94046252D01*
X114105000Y-115655000D02*
X114105000Y-111595000D01*
X111835000Y-115655000D02*
X114105000Y-115655000D01*
X111835000Y-111595000D02*
X111835000Y-115655000D01*
X101420000Y-100003748D02*
X101420000Y-100526252D01*
X100000000Y-100003748D02*
X100000000Y-100526252D01*
X107480000Y-98675000D02*
X105680000Y-98675000D01*
X105680000Y-101895000D02*
X108630000Y-101895000D01*
X112216000Y-100331748D02*
X112216000Y-100854252D01*
X110796000Y-100331748D02*
X110796000Y-100854252D01*
X121785000Y-115655000D02*
X121785000Y-111595000D01*
X119515000Y-115655000D02*
X121785000Y-115655000D01*
X119515000Y-111595000D02*
X119515000Y-115655000D01*
X113766000Y-136976748D02*
X113766000Y-137499252D01*
X115186000Y-136976748D02*
X115186000Y-137499252D01*
X117266000Y-136976748D02*
X117266000Y-137499252D01*
X118686000Y-136976748D02*
X118686000Y-137499252D01*
X112955000Y-125560000D02*
X112955000Y-131810000D01*
X118005000Y-125560000D02*
X118005000Y-131810000D01*
X112955000Y-131810000D02*
G75*
G03X118005000Y-131810000I2525000J0D01*
G01*
X112955000Y-125560000D02*
G75*
G02X118005000Y-125560000I2525000J0D01*
G01*
D12*
X94587000Y-126004000D02*
X94587000Y-131044000D01*
X97183000Y-131044000D02*
X97183000Y-125699000D01*
D11*
X103760000Y-118423748D02*
X103760000Y-118946252D01*
X105180000Y-118423748D02*
X105180000Y-118946252D01*
X101100000Y-123451252D02*
X101100000Y-122928748D01*
X99680000Y-123451252D02*
X99680000Y-122928748D01*
D10*
X91165000Y-104920000D02*
X91165000Y-105020000D01*
X95815000Y-104920000D02*
X95815000Y-105120000D01*
X95815000Y-108170000D02*
X95815000Y-107970000D01*
X91165000Y-108170000D02*
X91165000Y-107970000D01*
X91165000Y-104920000D02*
X95815000Y-104920000D01*
X91165000Y-108170000D02*
X95815000Y-108170000D01*
X91165000Y-105020000D02*
X89815000Y-105020000D01*
D11*
X115880000Y-91365000D02*
X114550000Y-91365000D01*
X114550000Y-91365000D02*
X114550000Y-90035000D01*
X114550000Y-88765000D02*
X114550000Y-86165000D01*
X117210000Y-86165000D02*
X114550000Y-86165000D01*
X117210000Y-88765000D02*
X117210000Y-86165000D01*
X117210000Y-88765000D02*
X114550000Y-88765000D01*
X108010000Y-118428748D02*
X108010000Y-118951252D01*
X109430000Y-118428748D02*
X109430000Y-118951252D01*
X161537252Y-105802000D02*
X161014748Y-105802000D01*
X161537252Y-104382000D02*
X161014748Y-104382000D01*
X161019748Y-107932000D02*
X161542252Y-107932000D01*
X161019748Y-109352000D02*
X161542252Y-109352000D01*
X117275000Y-99385199D02*
X116875000Y-99385199D01*
X117075000Y-99185199D02*
X117075000Y-99585199D01*
X116250000Y-103536000D02*
X115510000Y-103536000D01*
X116417000Y-103496000D02*
X115343000Y-103496000D01*
X116544000Y-103456000D02*
X115216000Y-103456000D01*
X116648000Y-103416000D02*
X115112000Y-103416000D01*
X116739000Y-103376000D02*
X115021000Y-103376000D01*
X116820000Y-103336000D02*
X114940000Y-103336000D01*
X116893000Y-103296000D02*
X114867000Y-103296000D01*
X115040000Y-103256000D02*
X114800000Y-103256000D01*
X116960000Y-103256000D02*
X116720000Y-103256000D01*
X115040000Y-103216000D02*
X114738000Y-103216000D01*
X117022000Y-103216000D02*
X116720000Y-103216000D01*
X115040000Y-103176000D02*
X114680000Y-103176000D01*
X117080000Y-103176000D02*
X116720000Y-103176000D01*
X115040000Y-103136000D02*
X114626000Y-103136000D01*
X117134000Y-103136000D02*
X116720000Y-103136000D01*
X115040000Y-103096000D02*
X114576000Y-103096000D01*
X117184000Y-103096000D02*
X116720000Y-103096000D01*
X115040000Y-103056000D02*
X114529000Y-103056000D01*
X117231000Y-103056000D02*
X116720000Y-103056000D01*
X115040000Y-103016000D02*
X114484000Y-103016000D01*
X117276000Y-103016000D02*
X116720000Y-103016000D01*
X115040000Y-102976000D02*
X114442000Y-102976000D01*
X117318000Y-102976000D02*
X116720000Y-102976000D01*
X115040000Y-102936000D02*
X114402000Y-102936000D01*
X117358000Y-102936000D02*
X116720000Y-102936000D01*
X115040000Y-102896000D02*
X114364000Y-102896000D01*
X117396000Y-102896000D02*
X116720000Y-102896000D01*
X115040000Y-102856000D02*
X114328000Y-102856000D01*
X117432000Y-102856000D02*
X116720000Y-102856000D01*
X115040000Y-102816000D02*
X114293000Y-102816000D01*
X117467000Y-102816000D02*
X116720000Y-102816000D01*
X115040000Y-102776000D02*
X114261000Y-102776000D01*
X117499000Y-102776000D02*
X116720000Y-102776000D01*
X115040000Y-102736000D02*
X114230000Y-102736000D01*
X117530000Y-102736000D02*
X116720000Y-102736000D01*
X115040000Y-102696000D02*
X114200000Y-102696000D01*
X117560000Y-102696000D02*
X116720000Y-102696000D01*
X115040000Y-102656000D02*
X114172000Y-102656000D01*
X117588000Y-102656000D02*
X116720000Y-102656000D01*
X115040000Y-102616000D02*
X114145000Y-102616000D01*
X117615000Y-102616000D02*
X116720000Y-102616000D01*
X115040000Y-102576000D02*
X114120000Y-102576000D01*
X117640000Y-102576000D02*
X116720000Y-102576000D01*
X115040000Y-102536000D02*
X114095000Y-102536000D01*
X117665000Y-102536000D02*
X116720000Y-102536000D01*
X115040000Y-102496000D02*
X114072000Y-102496000D01*
X117688000Y-102496000D02*
X116720000Y-102496000D01*
X115040000Y-102456000D02*
X114050000Y-102456000D01*
X117710000Y-102456000D02*
X116720000Y-102456000D01*
X115040000Y-102416000D02*
X114029000Y-102416000D01*
X117731000Y-102416000D02*
X116720000Y-102416000D01*
X115040000Y-102376000D02*
X114010000Y-102376000D01*
X117750000Y-102376000D02*
X116720000Y-102376000D01*
X115040000Y-102336000D02*
X113991000Y-102336000D01*
X117769000Y-102336000D02*
X116720000Y-102336000D01*
X115040000Y-102296000D02*
X113973000Y-102296000D01*
X117787000Y-102296000D02*
X116720000Y-102296000D01*
X115040000Y-102256000D02*
X113956000Y-102256000D01*
X117804000Y-102256000D02*
X116720000Y-102256000D01*
X115040000Y-102216000D02*
X113940000Y-102216000D01*
X117820000Y-102216000D02*
X116720000Y-102216000D01*
X115040000Y-102176000D02*
X113926000Y-102176000D01*
X117834000Y-102176000D02*
X116720000Y-102176000D01*
X115040000Y-102135000D02*
X113912000Y-102135000D01*
X117848000Y-102135000D02*
X116720000Y-102135000D01*
X115040000Y-102095000D02*
X113898000Y-102095000D01*
X117862000Y-102095000D02*
X116720000Y-102095000D01*
X115040000Y-102055000D02*
X113886000Y-102055000D01*
X117874000Y-102055000D02*
X116720000Y-102055000D01*
X115040000Y-102015000D02*
X113875000Y-102015000D01*
X117885000Y-102015000D02*
X116720000Y-102015000D01*
X115040000Y-101975000D02*
X113864000Y-101975000D01*
X117896000Y-101975000D02*
X116720000Y-101975000D01*
X115040000Y-101935000D02*
X113855000Y-101935000D01*
X117905000Y-101935000D02*
X116720000Y-101935000D01*
X115040000Y-101895000D02*
X113846000Y-101895000D01*
X117914000Y-101895000D02*
X116720000Y-101895000D01*
X115040000Y-101855000D02*
X113838000Y-101855000D01*
X117922000Y-101855000D02*
X116720000Y-101855000D01*
X115040000Y-101815000D02*
X113830000Y-101815000D01*
X117930000Y-101815000D02*
X116720000Y-101815000D01*
X115040000Y-101775000D02*
X113824000Y-101775000D01*
X117936000Y-101775000D02*
X116720000Y-101775000D01*
X115040000Y-101735000D02*
X113818000Y-101735000D01*
X117942000Y-101735000D02*
X116720000Y-101735000D01*
X115040000Y-101695000D02*
X113813000Y-101695000D01*
X117947000Y-101695000D02*
X116720000Y-101695000D01*
X115040000Y-101655000D02*
X113809000Y-101655000D01*
X117951000Y-101655000D02*
X116720000Y-101655000D01*
X117954000Y-101615000D02*
X113806000Y-101615000D01*
X117957000Y-101575000D02*
X113803000Y-101575000D01*
X117959000Y-101535000D02*
X113801000Y-101535000D01*
X117960000Y-101495000D02*
X113800000Y-101495000D01*
X117960000Y-101455000D02*
X113800000Y-101455000D01*
X118000000Y-101455000D02*
G75*
G03X118000000Y-101455000I-2120000J0D01*
G01*
X135330000Y-134627252D02*
X135330000Y-134104748D01*
X133910000Y-134627252D02*
X133910000Y-134104748D01*
X122934000Y-123246000D02*
X121474000Y-123246000D01*
X122934000Y-120086000D02*
X120774000Y-120086000D01*
X122934000Y-120086000D02*
X122934000Y-121016000D01*
X122934000Y-123246000D02*
X122934000Y-122316000D01*
X132840000Y-128326000D02*
X132840000Y-127396000D01*
X132840000Y-125166000D02*
X132840000Y-126096000D01*
X132840000Y-125166000D02*
X130680000Y-125166000D01*
X132840000Y-128326000D02*
X131380000Y-128326000D01*
X126753252Y-126440000D02*
X126230748Y-126440000D01*
X126753252Y-125020000D02*
X126230748Y-125020000D01*
X123004000Y-126979748D02*
X123004000Y-127502252D01*
X121584000Y-126979748D02*
X121584000Y-127502252D01*
X133670000Y-118433748D02*
X133670000Y-118956252D01*
X135090000Y-118433748D02*
X135090000Y-118956252D01*
X121584000Y-132502252D02*
X121584000Y-131979748D01*
X123004000Y-132502252D02*
X123004000Y-131979748D01*
X123004000Y-137502252D02*
X123004000Y-136979748D01*
X121584000Y-137502252D02*
X121584000Y-136979748D01*
D10*
X102790666Y-132548380D02*
X102790666Y-133262666D01*
X102743047Y-133405523D01*
X102647809Y-133500761D01*
X102504952Y-133548380D01*
X102409714Y-133548380D01*
X103790666Y-133548380D02*
X103219238Y-133548380D01*
X103504952Y-133548380D02*
X103504952Y-132548380D01*
X103409714Y-132691238D01*
X103314476Y-132786476D01*
X103219238Y-132834095D01*
X100981142Y-133818380D02*
X100981142Y-134627904D01*
X101028761Y-134723142D01*
X101076380Y-134770761D01*
X101171619Y-134818380D01*
X101362095Y-134818380D01*
X101457333Y-134770761D01*
X101504952Y-134723142D01*
X101552571Y-134627904D01*
X101552571Y-133818380D01*
X101981142Y-134770761D02*
X102124000Y-134818380D01*
X102362095Y-134818380D01*
X102457333Y-134770761D01*
X102504952Y-134723142D01*
X102552571Y-134627904D01*
X102552571Y-134532666D01*
X102504952Y-134437428D01*
X102457333Y-134389809D01*
X102362095Y-134342190D01*
X102171619Y-134294571D01*
X102076380Y-134246952D01*
X102028761Y-134199333D01*
X101981142Y-134104095D01*
X101981142Y-134008857D01*
X102028761Y-133913619D01*
X102076380Y-133866000D01*
X102171619Y-133818380D01*
X102409714Y-133818380D01*
X102552571Y-133866000D01*
X103314476Y-134294571D02*
X103457333Y-134342190D01*
X103504952Y-134389809D01*
X103552571Y-134485047D01*
X103552571Y-134627904D01*
X103504952Y-134723142D01*
X103457333Y-134770761D01*
X103362095Y-134818380D01*
X102981142Y-134818380D01*
X102981142Y-133818380D01*
X103314476Y-133818380D01*
X103409714Y-133866000D01*
X103457333Y-133913619D01*
X103504952Y-134008857D01*
X103504952Y-134104095D01*
X103457333Y-134199333D01*
X103409714Y-134246952D01*
X103314476Y-134294571D01*
X102981142Y-134294571D01*
X103743047Y-134913619D02*
X104504952Y-134913619D01*
X105314476Y-134723142D02*
X105266857Y-134770761D01*
X105124000Y-134818380D01*
X105028761Y-134818380D01*
X104885904Y-134770761D01*
X104790666Y-134675523D01*
X104743047Y-134580285D01*
X104695428Y-134389809D01*
X104695428Y-134246952D01*
X104743047Y-134056476D01*
X104790666Y-133961238D01*
X104885904Y-133866000D01*
X105028761Y-133818380D01*
X105124000Y-133818380D01*
X105266857Y-133866000D01*
X105314476Y-133913619D01*
X97383999Y-135228080D02*
X97383999Y-135466176D01*
X97145903Y-135370938D02*
X97383999Y-135466176D01*
X97622094Y-135370938D01*
X97241141Y-135656652D02*
X97383999Y-135466176D01*
X97526856Y-135656652D01*
X97383999Y-135228080D02*
X97383999Y-135466176D01*
X97145903Y-135370938D02*
X97383999Y-135466176D01*
X97622094Y-135370938D01*
X97241141Y-135656652D02*
X97383999Y-135466176D01*
X97526856Y-135656652D01*
X95517333Y-140282380D02*
X95184000Y-139806190D01*
X94945904Y-140282380D02*
X94945904Y-139282380D01*
X95326857Y-139282380D01*
X95422095Y-139330000D01*
X95469714Y-139377619D01*
X95517333Y-139472857D01*
X95517333Y-139615714D01*
X95469714Y-139710952D01*
X95422095Y-139758571D01*
X95326857Y-139806190D01*
X94945904Y-139806190D01*
X95898285Y-139377619D02*
X95945904Y-139330000D01*
X96041142Y-139282380D01*
X96279238Y-139282380D01*
X96374476Y-139330000D01*
X96422095Y-139377619D01*
X96469714Y-139472857D01*
X96469714Y-139568095D01*
X96422095Y-139710952D01*
X95850666Y-140282380D01*
X96469714Y-140282380D01*
X110831333Y-140282380D02*
X110498000Y-139806190D01*
X110259904Y-140282380D02*
X110259904Y-139282380D01*
X110640857Y-139282380D01*
X110736095Y-139330000D01*
X110783714Y-139377619D01*
X110831333Y-139472857D01*
X110831333Y-139615714D01*
X110783714Y-139710952D01*
X110736095Y-139758571D01*
X110640857Y-139806190D01*
X110259904Y-139806190D01*
X111783714Y-140282380D02*
X111212285Y-140282380D01*
X111498000Y-140282380D02*
X111498000Y-139282380D01*
X111402761Y-139425238D01*
X111307523Y-139520476D01*
X111212285Y-139568095D01*
X135850476Y-115911380D02*
X135850476Y-116625666D01*
X135802857Y-116768523D01*
X135707619Y-116863761D01*
X135564761Y-116911380D01*
X135469523Y-116911380D01*
X136326666Y-116911380D02*
X136326666Y-115911380D01*
X136707619Y-115911380D01*
X136802857Y-115959000D01*
X136850476Y-116006619D01*
X136898095Y-116101857D01*
X136898095Y-116244714D01*
X136850476Y-116339952D01*
X136802857Y-116387571D01*
X136707619Y-116435190D01*
X136326666Y-116435190D01*
X137850476Y-116911380D02*
X137279047Y-116911380D01*
X137564761Y-116911380D02*
X137564761Y-115911380D01*
X137469523Y-116054238D01*
X137374285Y-116149476D01*
X137279047Y-116197095D01*
X138802857Y-116911380D02*
X138231428Y-116911380D01*
X138517142Y-116911380D02*
X138517142Y-115911380D01*
X138421904Y-116054238D01*
X138326666Y-116149476D01*
X138231428Y-116197095D01*
X111391580Y-84062723D02*
X112105866Y-84062723D01*
X112248723Y-84110342D01*
X112343961Y-84205580D01*
X112391580Y-84348438D01*
X112391580Y-84443676D01*
X112391580Y-83586533D02*
X111391580Y-83586533D01*
X111391580Y-83205580D01*
X111439200Y-83110342D01*
X111486819Y-83062723D01*
X111582057Y-83015104D01*
X111724914Y-83015104D01*
X111820152Y-83062723D01*
X111867771Y-83110342D01*
X111915390Y-83205580D01*
X111915390Y-83586533D01*
X112391580Y-82062723D02*
X112391580Y-82634152D01*
X112391580Y-82348438D02*
X111391580Y-82348438D01*
X111534438Y-82443676D01*
X111629676Y-82538914D01*
X111677295Y-82634152D01*
X111391580Y-81729390D02*
X111391580Y-81110342D01*
X111772533Y-81443676D01*
X111772533Y-81300819D01*
X111820152Y-81205580D01*
X111867771Y-81157961D01*
X111963009Y-81110342D01*
X112201104Y-81110342D01*
X112296342Y-81157961D01*
X112343961Y-81205580D01*
X112391580Y-81300819D01*
X112391580Y-81586533D01*
X112343961Y-81681771D01*
X112296342Y-81729390D01*
X146708976Y-141565380D02*
X146708976Y-142279666D01*
X146661357Y-142422523D01*
X146566119Y-142517761D01*
X146423261Y-142565380D01*
X146328023Y-142565380D01*
X147185166Y-142565380D02*
X147185166Y-141565380D01*
X147566119Y-141565380D01*
X147661357Y-141613000D01*
X147708976Y-141660619D01*
X147756595Y-141755857D01*
X147756595Y-141898714D01*
X147708976Y-141993952D01*
X147661357Y-142041571D01*
X147566119Y-142089190D01*
X147185166Y-142089190D01*
X148708976Y-142565380D02*
X148137547Y-142565380D01*
X148423261Y-142565380D02*
X148423261Y-141565380D01*
X148328023Y-141708238D01*
X148232785Y-141803476D01*
X148137547Y-141851095D01*
X149328023Y-141565380D02*
X149423261Y-141565380D01*
X149518500Y-141613000D01*
X149566119Y-141660619D01*
X149613738Y-141755857D01*
X149661357Y-141946333D01*
X149661357Y-142184428D01*
X149613738Y-142374904D01*
X149566119Y-142470142D01*
X149518500Y-142517761D01*
X149423261Y-142565380D01*
X149328023Y-142565380D01*
X149232785Y-142517761D01*
X149185166Y-142470142D01*
X149137547Y-142374904D01*
X149089928Y-142184428D01*
X149089928Y-141946333D01*
X149137547Y-141755857D01*
X149185166Y-141660619D01*
X149232785Y-141613000D01*
X149328023Y-141565380D01*
X139311166Y-141565380D02*
X139311166Y-142279666D01*
X139263547Y-142422523D01*
X139168309Y-142517761D01*
X139025452Y-142565380D01*
X138930214Y-142565380D01*
X139787357Y-142565380D02*
X139787357Y-141565380D01*
X140168309Y-141565380D01*
X140263547Y-141613000D01*
X140311166Y-141660619D01*
X140358785Y-141755857D01*
X140358785Y-141898714D01*
X140311166Y-141993952D01*
X140263547Y-142041571D01*
X140168309Y-142089190D01*
X139787357Y-142089190D01*
X140834976Y-142565380D02*
X141025452Y-142565380D01*
X141120690Y-142517761D01*
X141168309Y-142470142D01*
X141263547Y-142327285D01*
X141311166Y-142136809D01*
X141311166Y-141755857D01*
X141263547Y-141660619D01*
X141215928Y-141613000D01*
X141120690Y-141565380D01*
X140930214Y-141565380D01*
X140834976Y-141613000D01*
X140787357Y-141660619D01*
X140739738Y-141755857D01*
X140739738Y-141993952D01*
X140787357Y-142089190D01*
X140834976Y-142136809D01*
X140930214Y-142184428D01*
X141120690Y-142184428D01*
X141215928Y-142136809D01*
X141263547Y-142089190D01*
X141311166Y-141993952D01*
X94924666Y-115935380D02*
X94924666Y-116649666D01*
X94877047Y-116792523D01*
X94781809Y-116887761D01*
X94638952Y-116935380D01*
X94543714Y-116935380D01*
X95400857Y-116935380D02*
X95400857Y-115935380D01*
X95781809Y-115935380D01*
X95877047Y-115983000D01*
X95924666Y-116030619D01*
X95972285Y-116125857D01*
X95972285Y-116268714D01*
X95924666Y-116363952D01*
X95877047Y-116411571D01*
X95781809Y-116459190D01*
X95400857Y-116459190D01*
X96829428Y-115935380D02*
X96638952Y-115935380D01*
X96543714Y-115983000D01*
X96496095Y-116030619D01*
X96400857Y-116173476D01*
X96353238Y-116363952D01*
X96353238Y-116744904D01*
X96400857Y-116840142D01*
X96448476Y-116887761D01*
X96543714Y-116935380D01*
X96734190Y-116935380D01*
X96829428Y-116887761D01*
X96877047Y-116840142D01*
X96924666Y-116744904D01*
X96924666Y-116506809D01*
X96877047Y-116411571D01*
X96829428Y-116363952D01*
X96734190Y-116316333D01*
X96543714Y-116316333D01*
X96448476Y-116363952D01*
X96400857Y-116411571D01*
X96353238Y-116506809D01*
X128928761Y-120028333D02*
X128976380Y-119885476D01*
X128976380Y-119647380D01*
X128928761Y-119552142D01*
X128881142Y-119504523D01*
X128785904Y-119456904D01*
X128690666Y-119456904D01*
X128595428Y-119504523D01*
X128547809Y-119552142D01*
X128500190Y-119647380D01*
X128452571Y-119837857D01*
X128404952Y-119933095D01*
X128357333Y-119980714D01*
X128262095Y-120028333D01*
X128166857Y-120028333D01*
X128071619Y-119980714D01*
X128024000Y-119933095D01*
X127976380Y-119837857D01*
X127976380Y-119599761D01*
X128024000Y-119456904D01*
X127976380Y-119123571D02*
X128976380Y-118885476D01*
X128262095Y-118695000D01*
X128976380Y-118504523D01*
X127976380Y-118266428D01*
X128976380Y-117361666D02*
X128976380Y-117933095D01*
X128976380Y-117647380D02*
X127976380Y-117647380D01*
X128119238Y-117742619D01*
X128214476Y-117837857D01*
X128262095Y-117933095D01*
X136866380Y-105409904D02*
X137675904Y-105409904D01*
X137771142Y-105362285D01*
X137818761Y-105314666D01*
X137866380Y-105219428D01*
X137866380Y-105028952D01*
X137818761Y-104933714D01*
X137771142Y-104886095D01*
X137675904Y-104838476D01*
X136866380Y-104838476D01*
X137199714Y-103933714D02*
X137866380Y-103933714D01*
X136818761Y-104171809D02*
X137533047Y-104409904D01*
X137533047Y-103790857D01*
X131405380Y-88090333D02*
X132119666Y-88090333D01*
X132262523Y-88137952D01*
X132357761Y-88233190D01*
X132405380Y-88376047D01*
X132405380Y-88471285D01*
X131405380Y-87137952D02*
X131405380Y-87614142D01*
X131881571Y-87661761D01*
X131833952Y-87614142D01*
X131786333Y-87518904D01*
X131786333Y-87280809D01*
X131833952Y-87185571D01*
X131881571Y-87137952D01*
X131976809Y-87090333D01*
X132214904Y-87090333D01*
X132310142Y-87137952D01*
X132357761Y-87185571D01*
X132405380Y-87280809D01*
X132405380Y-87518904D01*
X132357761Y-87614142D01*
X132310142Y-87661761D01*
X152741380Y-88217333D02*
X153455666Y-88217333D01*
X153598523Y-88264952D01*
X153693761Y-88360190D01*
X153741380Y-88503047D01*
X153741380Y-88598285D01*
X153074714Y-87312571D02*
X153741380Y-87312571D01*
X152693761Y-87550666D02*
X153408047Y-87788761D01*
X153408047Y-87169714D01*
X138104571Y-128380857D02*
X138104571Y-128047523D01*
X138628380Y-127904666D02*
X138628380Y-128380857D01*
X137628380Y-128380857D01*
X137628380Y-127904666D01*
X138580761Y-127523714D02*
X138628380Y-127380857D01*
X138628380Y-127142761D01*
X138580761Y-127047523D01*
X138533142Y-126999904D01*
X138437904Y-126952285D01*
X138342666Y-126952285D01*
X138247428Y-126999904D01*
X138199809Y-127047523D01*
X138152190Y-127142761D01*
X138104571Y-127333238D01*
X138056952Y-127428476D01*
X138009333Y-127476095D01*
X137914095Y-127523714D01*
X137818857Y-127523714D01*
X137723619Y-127476095D01*
X137676000Y-127428476D01*
X137628380Y-127333238D01*
X137628380Y-127095142D01*
X137676000Y-126952285D01*
X138628380Y-126523714D02*
X137628380Y-126523714D01*
X137628380Y-126142761D01*
X137676000Y-126047523D01*
X137723619Y-125999904D01*
X137818857Y-125952285D01*
X137961714Y-125952285D01*
X138056952Y-125999904D01*
X138104571Y-126047523D01*
X138152190Y-126142761D01*
X138152190Y-126523714D01*
X137628380Y-125618952D02*
X137628380Y-124999904D01*
X138009333Y-125333238D01*
X138009333Y-125190380D01*
X138056952Y-125095142D01*
X138104571Y-125047523D01*
X138199809Y-124999904D01*
X138437904Y-124999904D01*
X138533142Y-125047523D01*
X138580761Y-125095142D01*
X138628380Y-125190380D01*
X138628380Y-125476095D01*
X138580761Y-125571333D01*
X138533142Y-125618952D01*
X137723619Y-124618952D02*
X137676000Y-124571333D01*
X137628380Y-124476095D01*
X137628380Y-124238000D01*
X137676000Y-124142761D01*
X137723619Y-124095142D01*
X137818857Y-124047523D01*
X137914095Y-124047523D01*
X138056952Y-124095142D01*
X138628380Y-124666571D01*
X138628380Y-124047523D01*
X105664095Y-125944380D02*
X105664095Y-126753904D01*
X105711714Y-126849142D01*
X105759333Y-126896761D01*
X105854571Y-126944380D01*
X106045047Y-126944380D01*
X106140285Y-126896761D01*
X106187904Y-126849142D01*
X106235523Y-126753904D01*
X106235523Y-125944380D01*
X107235523Y-126944380D02*
X106664095Y-126944380D01*
X106949809Y-126944380D02*
X106949809Y-125944380D01*
X106854571Y-126087238D01*
X106759333Y-126182476D01*
X106664095Y-126230095D01*
X125690380Y-105917904D02*
X126499904Y-105917904D01*
X126595142Y-105870285D01*
X126642761Y-105822666D01*
X126690380Y-105727428D01*
X126690380Y-105536952D01*
X126642761Y-105441714D01*
X126595142Y-105394095D01*
X126499904Y-105346476D01*
X125690380Y-105346476D01*
X125690380Y-104441714D02*
X125690380Y-104632190D01*
X125738000Y-104727428D01*
X125785619Y-104775047D01*
X125928476Y-104870285D01*
X126118952Y-104917904D01*
X126499904Y-104917904D01*
X126595142Y-104870285D01*
X126642761Y-104822666D01*
X126690380Y-104727428D01*
X126690380Y-104536952D01*
X126642761Y-104441714D01*
X126595142Y-104394095D01*
X126499904Y-104346476D01*
X126261809Y-104346476D01*
X126166571Y-104394095D01*
X126118952Y-104441714D01*
X126071333Y-104536952D01*
X126071333Y-104727428D01*
X126118952Y-104822666D01*
X126166571Y-104870285D01*
X126261809Y-104917904D01*
X148042380Y-105409904D02*
X148851904Y-105409904D01*
X148947142Y-105362285D01*
X148994761Y-105314666D01*
X149042380Y-105219428D01*
X149042380Y-105028952D01*
X148994761Y-104933714D01*
X148947142Y-104886095D01*
X148851904Y-104838476D01*
X148042380Y-104838476D01*
X148042380Y-103886095D02*
X148042380Y-104362285D01*
X148518571Y-104409904D01*
X148470952Y-104362285D01*
X148423333Y-104267047D01*
X148423333Y-104028952D01*
X148470952Y-103933714D01*
X148518571Y-103886095D01*
X148613809Y-103838476D01*
X148851904Y-103838476D01*
X148947142Y-103886095D01*
X148994761Y-103933714D01*
X149042380Y-104028952D01*
X149042380Y-104267047D01*
X148994761Y-104362285D01*
X148947142Y-104409904D01*
X126579380Y-99075714D02*
X126579380Y-98504285D01*
X127579380Y-98790000D02*
X126579380Y-98790000D01*
X127579380Y-98170952D02*
X126579380Y-98170952D01*
X127055571Y-98170952D02*
X127055571Y-97599523D01*
X127579380Y-97599523D02*
X126579380Y-97599523D01*
X126674619Y-97170952D02*
X126627000Y-97123333D01*
X126579380Y-97028095D01*
X126579380Y-96790000D01*
X126627000Y-96694761D01*
X126674619Y-96647142D01*
X126769857Y-96599523D01*
X126865095Y-96599523D01*
X127007952Y-96647142D01*
X127579380Y-97218571D01*
X127579380Y-96599523D01*
X98556380Y-112791714D02*
X98556380Y-112220285D01*
X99556380Y-112506000D02*
X98556380Y-112506000D01*
X99556380Y-111886952D02*
X98556380Y-111886952D01*
X99032571Y-111886952D02*
X99032571Y-111315523D01*
X99556380Y-111315523D02*
X98556380Y-111315523D01*
X99556380Y-110315523D02*
X99556380Y-110886952D01*
X99556380Y-110601238D02*
X98556380Y-110601238D01*
X98699238Y-110696476D01*
X98794476Y-110791714D01*
X98842095Y-110886952D01*
X128928761Y-135953333D02*
X128976380Y-135810476D01*
X128976380Y-135572380D01*
X128928761Y-135477142D01*
X128881142Y-135429523D01*
X128785904Y-135381904D01*
X128690666Y-135381904D01*
X128595428Y-135429523D01*
X128547809Y-135477142D01*
X128500190Y-135572380D01*
X128452571Y-135762857D01*
X128404952Y-135858095D01*
X128357333Y-135905714D01*
X128262095Y-135953333D01*
X128166857Y-135953333D01*
X128071619Y-135905714D01*
X128024000Y-135858095D01*
X127976380Y-135762857D01*
X127976380Y-135524761D01*
X128024000Y-135381904D01*
X127976380Y-135048571D02*
X128976380Y-134810476D01*
X128262095Y-134620000D01*
X128976380Y-134429523D01*
X127976380Y-134191428D01*
X128071619Y-133858095D02*
X128024000Y-133810476D01*
X127976380Y-133715238D01*
X127976380Y-133477142D01*
X128024000Y-133381904D01*
X128071619Y-133334285D01*
X128166857Y-133286666D01*
X128262095Y-133286666D01*
X128404952Y-133334285D01*
X128976380Y-133905714D01*
X128976380Y-133286666D01*
X141343142Y-98242380D02*
X141009809Y-97766190D01*
X140771714Y-98242380D02*
X140771714Y-97242380D01*
X141152666Y-97242380D01*
X141247904Y-97290000D01*
X141295523Y-97337619D01*
X141343142Y-97432857D01*
X141343142Y-97575714D01*
X141295523Y-97670952D01*
X141247904Y-97718571D01*
X141152666Y-97766190D01*
X140771714Y-97766190D01*
X141724095Y-97337619D02*
X141771714Y-97290000D01*
X141866952Y-97242380D01*
X142105047Y-97242380D01*
X142200285Y-97290000D01*
X142247904Y-97337619D01*
X142295523Y-97432857D01*
X142295523Y-97528095D01*
X142247904Y-97670952D01*
X141676476Y-98242380D01*
X142295523Y-98242380D01*
X143152666Y-97242380D02*
X142962190Y-97242380D01*
X142866952Y-97290000D01*
X142819333Y-97337619D01*
X142724095Y-97480476D01*
X142676476Y-97670952D01*
X142676476Y-98051904D01*
X142724095Y-98147142D01*
X142771714Y-98194761D01*
X142866952Y-98242380D01*
X143057428Y-98242380D01*
X143152666Y-98194761D01*
X143200285Y-98147142D01*
X143247904Y-98051904D01*
X143247904Y-97813809D01*
X143200285Y-97718571D01*
X143152666Y-97670952D01*
X143057428Y-97623333D01*
X142866952Y-97623333D01*
X142771714Y-97670952D01*
X142724095Y-97718571D01*
X142676476Y-97813809D01*
X152519142Y-111958380D02*
X152185809Y-111482190D01*
X151947714Y-111958380D02*
X151947714Y-110958380D01*
X152328666Y-110958380D01*
X152423904Y-111006000D01*
X152471523Y-111053619D01*
X152519142Y-111148857D01*
X152519142Y-111291714D01*
X152471523Y-111386952D01*
X152423904Y-111434571D01*
X152328666Y-111482190D01*
X151947714Y-111482190D01*
X152900095Y-111053619D02*
X152947714Y-111006000D01*
X153042952Y-110958380D01*
X153281047Y-110958380D01*
X153376285Y-111006000D01*
X153423904Y-111053619D01*
X153471523Y-111148857D01*
X153471523Y-111244095D01*
X153423904Y-111386952D01*
X152852476Y-111958380D01*
X153471523Y-111958380D01*
X154376285Y-110958380D02*
X153900095Y-110958380D01*
X153852476Y-111434571D01*
X153900095Y-111386952D01*
X153995333Y-111339333D01*
X154233428Y-111339333D01*
X154328666Y-111386952D01*
X154376285Y-111434571D01*
X154423904Y-111529809D01*
X154423904Y-111767904D01*
X154376285Y-111863142D01*
X154328666Y-111910761D01*
X154233428Y-111958380D01*
X153995333Y-111958380D01*
X153900095Y-111910761D01*
X153852476Y-111863142D01*
X146922142Y-98242380D02*
X146588809Y-97766190D01*
X146350714Y-98242380D02*
X146350714Y-97242380D01*
X146731666Y-97242380D01*
X146826904Y-97290000D01*
X146874523Y-97337619D01*
X146922142Y-97432857D01*
X146922142Y-97575714D01*
X146874523Y-97670952D01*
X146826904Y-97718571D01*
X146731666Y-97766190D01*
X146350714Y-97766190D01*
X147303095Y-97337619D02*
X147350714Y-97290000D01*
X147445952Y-97242380D01*
X147684047Y-97242380D01*
X147779285Y-97290000D01*
X147826904Y-97337619D01*
X147874523Y-97432857D01*
X147874523Y-97528095D01*
X147826904Y-97670952D01*
X147255476Y-98242380D01*
X147874523Y-98242380D01*
X148731666Y-97575714D02*
X148731666Y-98242380D01*
X148493571Y-97194761D02*
X148255476Y-97909047D01*
X148874523Y-97909047D01*
X135755142Y-111958380D02*
X135421809Y-111482190D01*
X135183714Y-111958380D02*
X135183714Y-110958380D01*
X135564666Y-110958380D01*
X135659904Y-111006000D01*
X135707523Y-111053619D01*
X135755142Y-111148857D01*
X135755142Y-111291714D01*
X135707523Y-111386952D01*
X135659904Y-111434571D01*
X135564666Y-111482190D01*
X135183714Y-111482190D01*
X136136095Y-111053619D02*
X136183714Y-111006000D01*
X136278952Y-110958380D01*
X136517047Y-110958380D01*
X136612285Y-111006000D01*
X136659904Y-111053619D01*
X136707523Y-111148857D01*
X136707523Y-111244095D01*
X136659904Y-111386952D01*
X136088476Y-111958380D01*
X136707523Y-111958380D01*
X137040857Y-110958380D02*
X137659904Y-110958380D01*
X137326571Y-111339333D01*
X137469428Y-111339333D01*
X137564666Y-111386952D01*
X137612285Y-111434571D01*
X137659904Y-111529809D01*
X137659904Y-111767904D01*
X137612285Y-111863142D01*
X137564666Y-111910761D01*
X137469428Y-111958380D01*
X137183714Y-111958380D01*
X137088476Y-111910761D01*
X137040857Y-111863142D01*
X135755142Y-98242380D02*
X135421809Y-97766190D01*
X135183714Y-98242380D02*
X135183714Y-97242380D01*
X135564666Y-97242380D01*
X135659904Y-97290000D01*
X135707523Y-97337619D01*
X135755142Y-97432857D01*
X135755142Y-97575714D01*
X135707523Y-97670952D01*
X135659904Y-97718571D01*
X135564666Y-97766190D01*
X135183714Y-97766190D01*
X136136095Y-97337619D02*
X136183714Y-97290000D01*
X136278952Y-97242380D01*
X136517047Y-97242380D01*
X136612285Y-97290000D01*
X136659904Y-97337619D01*
X136707523Y-97432857D01*
X136707523Y-97528095D01*
X136659904Y-97670952D01*
X136088476Y-98242380D01*
X136707523Y-98242380D01*
X137088476Y-97337619D02*
X137136095Y-97290000D01*
X137231333Y-97242380D01*
X137469428Y-97242380D01*
X137564666Y-97290000D01*
X137612285Y-97337619D01*
X137659904Y-97432857D01*
X137659904Y-97528095D01*
X137612285Y-97670952D01*
X137040857Y-98242380D01*
X137659904Y-98242380D01*
X130167142Y-111958380D02*
X129833809Y-111482190D01*
X129595714Y-111958380D02*
X129595714Y-110958380D01*
X129976666Y-110958380D01*
X130071904Y-111006000D01*
X130119523Y-111053619D01*
X130167142Y-111148857D01*
X130167142Y-111291714D01*
X130119523Y-111386952D01*
X130071904Y-111434571D01*
X129976666Y-111482190D01*
X129595714Y-111482190D01*
X130548095Y-111053619D02*
X130595714Y-111006000D01*
X130690952Y-110958380D01*
X130929047Y-110958380D01*
X131024285Y-111006000D01*
X131071904Y-111053619D01*
X131119523Y-111148857D01*
X131119523Y-111244095D01*
X131071904Y-111386952D01*
X130500476Y-111958380D01*
X131119523Y-111958380D01*
X132071904Y-111958380D02*
X131500476Y-111958380D01*
X131786190Y-111958380D02*
X131786190Y-110958380D01*
X131690952Y-111101238D01*
X131595714Y-111196476D01*
X131500476Y-111244095D01*
X130167142Y-98242380D02*
X129833809Y-97766190D01*
X129595714Y-98242380D02*
X129595714Y-97242380D01*
X129976666Y-97242380D01*
X130071904Y-97290000D01*
X130119523Y-97337619D01*
X130167142Y-97432857D01*
X130167142Y-97575714D01*
X130119523Y-97670952D01*
X130071904Y-97718571D01*
X129976666Y-97766190D01*
X129595714Y-97766190D01*
X130548095Y-97337619D02*
X130595714Y-97290000D01*
X130690952Y-97242380D01*
X130929047Y-97242380D01*
X131024285Y-97290000D01*
X131071904Y-97337619D01*
X131119523Y-97432857D01*
X131119523Y-97528095D01*
X131071904Y-97670952D01*
X130500476Y-98242380D01*
X131119523Y-98242380D01*
X131738571Y-97242380D02*
X131833809Y-97242380D01*
X131929047Y-97290000D01*
X131976666Y-97337619D01*
X132024285Y-97432857D01*
X132071904Y-97623333D01*
X132071904Y-97861428D01*
X132024285Y-98051904D01*
X131976666Y-98147142D01*
X131929047Y-98194761D01*
X131833809Y-98242380D01*
X131738571Y-98242380D01*
X131643333Y-98194761D01*
X131595714Y-98147142D01*
X131548095Y-98051904D01*
X131500476Y-97861428D01*
X131500476Y-97623333D01*
X131548095Y-97432857D01*
X131595714Y-97337619D01*
X131643333Y-97290000D01*
X131738571Y-97242380D01*
X141343142Y-111958380D02*
X141009809Y-111482190D01*
X140771714Y-111958380D02*
X140771714Y-110958380D01*
X141152666Y-110958380D01*
X141247904Y-111006000D01*
X141295523Y-111053619D01*
X141343142Y-111148857D01*
X141343142Y-111291714D01*
X141295523Y-111386952D01*
X141247904Y-111434571D01*
X141152666Y-111482190D01*
X140771714Y-111482190D01*
X142295523Y-111958380D02*
X141724095Y-111958380D01*
X142009809Y-111958380D02*
X142009809Y-110958380D01*
X141914571Y-111101238D01*
X141819333Y-111196476D01*
X141724095Y-111244095D01*
X142771714Y-111958380D02*
X142962190Y-111958380D01*
X143057428Y-111910761D01*
X143105047Y-111863142D01*
X143200285Y-111720285D01*
X143247904Y-111529809D01*
X143247904Y-111148857D01*
X143200285Y-111053619D01*
X143152666Y-111006000D01*
X143057428Y-110958380D01*
X142866952Y-110958380D01*
X142771714Y-111006000D01*
X142724095Y-111053619D01*
X142676476Y-111148857D01*
X142676476Y-111386952D01*
X142724095Y-111482190D01*
X142771714Y-111529809D01*
X142866952Y-111577428D01*
X143057428Y-111577428D01*
X143152666Y-111529809D01*
X143200285Y-111482190D01*
X143247904Y-111386952D01*
X122498380Y-107331857D02*
X122022190Y-107665190D01*
X122498380Y-107903285D02*
X121498380Y-107903285D01*
X121498380Y-107522333D01*
X121546000Y-107427095D01*
X121593619Y-107379476D01*
X121688857Y-107331857D01*
X121831714Y-107331857D01*
X121926952Y-107379476D01*
X121974571Y-107427095D01*
X122022190Y-107522333D01*
X122022190Y-107903285D01*
X122498380Y-106379476D02*
X122498380Y-106950904D01*
X122498380Y-106665190D02*
X121498380Y-106665190D01*
X121641238Y-106760428D01*
X121736476Y-106855666D01*
X121784095Y-106950904D01*
X121926952Y-105808047D02*
X121879333Y-105903285D01*
X121831714Y-105950904D01*
X121736476Y-105998523D01*
X121688857Y-105998523D01*
X121593619Y-105950904D01*
X121546000Y-105903285D01*
X121498380Y-105808047D01*
X121498380Y-105617571D01*
X121546000Y-105522333D01*
X121593619Y-105474714D01*
X121688857Y-105427095D01*
X121736476Y-105427095D01*
X121831714Y-105474714D01*
X121879333Y-105522333D01*
X121926952Y-105617571D01*
X121926952Y-105808047D01*
X121974571Y-105903285D01*
X122022190Y-105950904D01*
X122117428Y-105998523D01*
X122307904Y-105998523D01*
X122403142Y-105950904D01*
X122450761Y-105903285D01*
X122498380Y-105808047D01*
X122498380Y-105617571D01*
X122450761Y-105522333D01*
X122403142Y-105474714D01*
X122307904Y-105427095D01*
X122117428Y-105427095D01*
X122022190Y-105474714D01*
X121974571Y-105522333D01*
X121926952Y-105617571D01*
X119196380Y-107313857D02*
X118720190Y-107647190D01*
X119196380Y-107885285D02*
X118196380Y-107885285D01*
X118196380Y-107504333D01*
X118244000Y-107409095D01*
X118291619Y-107361476D01*
X118386857Y-107313857D01*
X118529714Y-107313857D01*
X118624952Y-107361476D01*
X118672571Y-107409095D01*
X118720190Y-107504333D01*
X118720190Y-107885285D01*
X119196380Y-106361476D02*
X119196380Y-106932904D01*
X119196380Y-106647190D02*
X118196380Y-106647190D01*
X118339238Y-106742428D01*
X118434476Y-106837666D01*
X118482095Y-106932904D01*
X118196380Y-106028142D02*
X118196380Y-105361476D01*
X119196380Y-105790047D01*
X152995333Y-98242380D02*
X152662000Y-97766190D01*
X152423904Y-98242380D02*
X152423904Y-97242380D01*
X152804857Y-97242380D01*
X152900095Y-97290000D01*
X152947714Y-97337619D01*
X152995333Y-97432857D01*
X152995333Y-97575714D01*
X152947714Y-97670952D01*
X152900095Y-97718571D01*
X152804857Y-97766190D01*
X152423904Y-97766190D01*
X153471523Y-98242380D02*
X153662000Y-98242380D01*
X153757238Y-98194761D01*
X153804857Y-98147142D01*
X153900095Y-98004285D01*
X153947714Y-97813809D01*
X153947714Y-97432857D01*
X153900095Y-97337619D01*
X153852476Y-97290000D01*
X153757238Y-97242380D01*
X153566761Y-97242380D01*
X153471523Y-97290000D01*
X153423904Y-97337619D01*
X153376285Y-97432857D01*
X153376285Y-97670952D01*
X153423904Y-97766190D01*
X153471523Y-97813809D01*
X153566761Y-97861428D01*
X153757238Y-97861428D01*
X153852476Y-97813809D01*
X153900095Y-97766190D01*
X153947714Y-97670952D01*
X147407333Y-111958380D02*
X147074000Y-111482190D01*
X146835904Y-111958380D02*
X146835904Y-110958380D01*
X147216857Y-110958380D01*
X147312095Y-111006000D01*
X147359714Y-111053619D01*
X147407333Y-111148857D01*
X147407333Y-111291714D01*
X147359714Y-111386952D01*
X147312095Y-111434571D01*
X147216857Y-111482190D01*
X146835904Y-111482190D01*
X148312095Y-110958380D02*
X147835904Y-110958380D01*
X147788285Y-111434571D01*
X147835904Y-111386952D01*
X147931142Y-111339333D01*
X148169238Y-111339333D01*
X148264476Y-111386952D01*
X148312095Y-111434571D01*
X148359714Y-111529809D01*
X148359714Y-111767904D01*
X148312095Y-111863142D01*
X148264476Y-111910761D01*
X148169238Y-111958380D01*
X147931142Y-111958380D01*
X147835904Y-111910761D01*
X147788285Y-111863142D01*
X123626666Y-108628380D02*
X123626666Y-109342666D01*
X123579047Y-109485523D01*
X123483809Y-109580761D01*
X123340952Y-109628380D01*
X123245714Y-109628380D01*
X124102857Y-109628380D02*
X124102857Y-108628380D01*
X124483809Y-108628380D01*
X124579047Y-108676000D01*
X124626666Y-108723619D01*
X124674285Y-108818857D01*
X124674285Y-108961714D01*
X124626666Y-109056952D01*
X124579047Y-109104571D01*
X124483809Y-109152190D01*
X124102857Y-109152190D01*
X125579047Y-108628380D02*
X125102857Y-108628380D01*
X125055238Y-109104571D01*
X125102857Y-109056952D01*
X125198095Y-109009333D01*
X125436190Y-109009333D01*
X125531428Y-109056952D01*
X125579047Y-109104571D01*
X125626666Y-109199809D01*
X125626666Y-109437904D01*
X125579047Y-109533142D01*
X125531428Y-109580761D01*
X125436190Y-109628380D01*
X125198095Y-109628380D01*
X125102857Y-109580761D01*
X125055238Y-109533142D01*
X116260666Y-108628380D02*
X116260666Y-109342666D01*
X116213047Y-109485523D01*
X116117809Y-109580761D01*
X115974952Y-109628380D01*
X115879714Y-109628380D01*
X116736857Y-109628380D02*
X116736857Y-108628380D01*
X117117809Y-108628380D01*
X117213047Y-108676000D01*
X117260666Y-108723619D01*
X117308285Y-108818857D01*
X117308285Y-108961714D01*
X117260666Y-109056952D01*
X117213047Y-109104571D01*
X117117809Y-109152190D01*
X116736857Y-109152190D01*
X117641619Y-108628380D02*
X118260666Y-108628380D01*
X117927333Y-109009333D01*
X118070190Y-109009333D01*
X118165428Y-109056952D01*
X118213047Y-109104571D01*
X118260666Y-109199809D01*
X118260666Y-109437904D01*
X118213047Y-109533142D01*
X118165428Y-109580761D01*
X118070190Y-109628380D01*
X117784476Y-109628380D01*
X117689238Y-109580761D01*
X117641619Y-109533142D01*
X109513809Y-93416380D02*
X109513809Y-92416380D01*
X110561428Y-93321142D02*
X110513809Y-93368761D01*
X110370952Y-93416380D01*
X110275714Y-93416380D01*
X110132857Y-93368761D01*
X110037619Y-93273523D01*
X109990000Y-93178285D01*
X109942380Y-92987809D01*
X109942380Y-92844952D01*
X109990000Y-92654476D01*
X110037619Y-92559238D01*
X110132857Y-92464000D01*
X110275714Y-92416380D01*
X110370952Y-92416380D01*
X110513809Y-92464000D01*
X110561428Y-92511619D01*
X111513809Y-93416380D02*
X110942380Y-93416380D01*
X111228095Y-93416380D02*
X111228095Y-92416380D01*
X111132857Y-92559238D01*
X111037619Y-92654476D01*
X110942380Y-92702095D01*
X97982380Y-119197333D02*
X98696666Y-119197333D01*
X98839523Y-119244952D01*
X98934761Y-119340190D01*
X98982380Y-119483047D01*
X98982380Y-119578285D01*
X98982380Y-118721142D02*
X97982380Y-118721142D01*
X97982380Y-118340190D01*
X98030000Y-118244952D01*
X98077619Y-118197333D01*
X98172857Y-118149714D01*
X98315714Y-118149714D01*
X98410952Y-118197333D01*
X98458571Y-118244952D01*
X98506190Y-118340190D01*
X98506190Y-118721142D01*
X98315714Y-117292571D02*
X98982380Y-117292571D01*
X97934761Y-117530666D02*
X98649047Y-117768761D01*
X98649047Y-117149714D01*
X98680142Y-86689380D02*
X98346809Y-86213190D01*
X98108714Y-86689380D02*
X98108714Y-85689380D01*
X98489666Y-85689380D01*
X98584904Y-85737000D01*
X98632523Y-85784619D01*
X98680142Y-85879857D01*
X98680142Y-86022714D01*
X98632523Y-86117952D01*
X98584904Y-86165571D01*
X98489666Y-86213190D01*
X98108714Y-86213190D01*
X99632523Y-86689380D02*
X99061095Y-86689380D01*
X99346809Y-86689380D02*
X99346809Y-85689380D01*
X99251571Y-85832238D01*
X99156333Y-85927476D01*
X99061095Y-85975095D01*
X100489666Y-85689380D02*
X100299190Y-85689380D01*
X100203952Y-85737000D01*
X100156333Y-85784619D01*
X100061095Y-85927476D01*
X100013476Y-86117952D01*
X100013476Y-86498904D01*
X100061095Y-86594142D01*
X100108714Y-86641761D01*
X100203952Y-86689380D01*
X100394428Y-86689380D01*
X100489666Y-86641761D01*
X100537285Y-86594142D01*
X100584904Y-86498904D01*
X100584904Y-86260809D01*
X100537285Y-86165571D01*
X100489666Y-86117952D01*
X100394428Y-86070333D01*
X100203952Y-86070333D01*
X100108714Y-86117952D01*
X100061095Y-86165571D01*
X100013476Y-86260809D01*
X94893380Y-88450857D02*
X94417190Y-88784190D01*
X94893380Y-89022285D02*
X93893380Y-89022285D01*
X93893380Y-88641333D01*
X93941000Y-88546095D01*
X93988619Y-88498476D01*
X94083857Y-88450857D01*
X94226714Y-88450857D01*
X94321952Y-88498476D01*
X94369571Y-88546095D01*
X94417190Y-88641333D01*
X94417190Y-89022285D01*
X94893380Y-87498476D02*
X94893380Y-88069904D01*
X94893380Y-87784190D02*
X93893380Y-87784190D01*
X94036238Y-87879428D01*
X94131476Y-87974666D01*
X94179095Y-88069904D01*
X93893380Y-86593714D02*
X93893380Y-87069904D01*
X94369571Y-87117523D01*
X94321952Y-87069904D01*
X94274333Y-86974666D01*
X94274333Y-86736571D01*
X94321952Y-86641333D01*
X94369571Y-86593714D01*
X94464809Y-86546095D01*
X94702904Y-86546095D01*
X94798142Y-86593714D01*
X94845761Y-86641333D01*
X94893380Y-86736571D01*
X94893380Y-86974666D01*
X94845761Y-87069904D01*
X94798142Y-87117523D01*
X122531142Y-101988857D02*
X122578761Y-102036476D01*
X122626380Y-102179333D01*
X122626380Y-102274571D01*
X122578761Y-102417428D01*
X122483523Y-102512666D01*
X122388285Y-102560285D01*
X122197809Y-102607904D01*
X122054952Y-102607904D01*
X121864476Y-102560285D01*
X121769238Y-102512666D01*
X121674000Y-102417428D01*
X121626380Y-102274571D01*
X121626380Y-102179333D01*
X121674000Y-102036476D01*
X121721619Y-101988857D01*
X122626380Y-101036476D02*
X122626380Y-101607904D01*
X122626380Y-101322190D02*
X121626380Y-101322190D01*
X121769238Y-101417428D01*
X121864476Y-101512666D01*
X121912095Y-101607904D01*
X121626380Y-100703142D02*
X121626380Y-100084095D01*
X122007333Y-100417428D01*
X122007333Y-100274571D01*
X122054952Y-100179333D01*
X122102571Y-100131714D01*
X122197809Y-100084095D01*
X122435904Y-100084095D01*
X122531142Y-100131714D01*
X122578761Y-100179333D01*
X122626380Y-100274571D01*
X122626380Y-100560285D01*
X122578761Y-100655523D01*
X122531142Y-100703142D01*
X122626380Y-95892857D02*
X122150190Y-96226190D01*
X122626380Y-96464285D02*
X121626380Y-96464285D01*
X121626380Y-96083333D01*
X121674000Y-95988095D01*
X121721619Y-95940476D01*
X121816857Y-95892857D01*
X121959714Y-95892857D01*
X122054952Y-95940476D01*
X122102571Y-95988095D01*
X122150190Y-96083333D01*
X122150190Y-96464285D01*
X122626380Y-94940476D02*
X122626380Y-95511904D01*
X122626380Y-95226190D02*
X121626380Y-95226190D01*
X121769238Y-95321428D01*
X121864476Y-95416666D01*
X121912095Y-95511904D01*
X121721619Y-94559523D02*
X121674000Y-94511904D01*
X121626380Y-94416666D01*
X121626380Y-94178571D01*
X121674000Y-94083333D01*
X121721619Y-94035714D01*
X121816857Y-93988095D01*
X121912095Y-93988095D01*
X122054952Y-94035714D01*
X122626380Y-94607142D01*
X122626380Y-93988095D01*
X107552380Y-106856666D02*
X107076190Y-107190000D01*
X107552380Y-107428095D02*
X106552380Y-107428095D01*
X106552380Y-107047142D01*
X106600000Y-106951904D01*
X106647619Y-106904285D01*
X106742857Y-106856666D01*
X106885714Y-106856666D01*
X106980952Y-106904285D01*
X107028571Y-106951904D01*
X107076190Y-107047142D01*
X107076190Y-107428095D01*
X106552380Y-105999523D02*
X106552380Y-106190000D01*
X106600000Y-106285238D01*
X106647619Y-106332857D01*
X106790476Y-106428095D01*
X106980952Y-106475714D01*
X107361904Y-106475714D01*
X107457142Y-106428095D01*
X107504761Y-106380476D01*
X107552380Y-106285238D01*
X107552380Y-106094761D01*
X107504761Y-105999523D01*
X107457142Y-105951904D01*
X107361904Y-105904285D01*
X107123809Y-105904285D01*
X107028571Y-105951904D01*
X106980952Y-105999523D01*
X106933333Y-106094761D01*
X106933333Y-106285238D01*
X106980952Y-106380476D01*
X107028571Y-106428095D01*
X107123809Y-106475714D01*
X92694285Y-90673571D02*
X92837142Y-90721190D01*
X92884761Y-90768809D01*
X92932380Y-90864047D01*
X92932380Y-91006904D01*
X92884761Y-91102142D01*
X92837142Y-91149761D01*
X92741904Y-91197380D01*
X92360952Y-91197380D01*
X92360952Y-90197380D01*
X92694285Y-90197380D01*
X92789523Y-90245000D01*
X92837142Y-90292619D01*
X92884761Y-90387857D01*
X92884761Y-90483095D01*
X92837142Y-90578333D01*
X92789523Y-90625952D01*
X92694285Y-90673571D01*
X92360952Y-90673571D01*
X93218095Y-90197380D02*
X93789523Y-90197380D01*
X93503809Y-91197380D02*
X93503809Y-90197380D01*
X94646666Y-91197380D02*
X94075238Y-91197380D01*
X94360952Y-91197380D02*
X94360952Y-90197380D01*
X94265714Y-90340238D01*
X94170476Y-90435476D01*
X94075238Y-90483095D01*
X103903142Y-94917666D02*
X103950761Y-94965285D01*
X103998380Y-95108142D01*
X103998380Y-95203380D01*
X103950761Y-95346238D01*
X103855523Y-95441476D01*
X103760285Y-95489095D01*
X103569809Y-95536714D01*
X103426952Y-95536714D01*
X103236476Y-95489095D01*
X103141238Y-95441476D01*
X103046000Y-95346238D01*
X102998380Y-95203380D01*
X102998380Y-95108142D01*
X103046000Y-94965285D01*
X103093619Y-94917666D01*
X103426952Y-94346238D02*
X103379333Y-94441476D01*
X103331714Y-94489095D01*
X103236476Y-94536714D01*
X103188857Y-94536714D01*
X103093619Y-94489095D01*
X103046000Y-94441476D01*
X102998380Y-94346238D01*
X102998380Y-94155761D01*
X103046000Y-94060523D01*
X103093619Y-94012904D01*
X103188857Y-93965285D01*
X103236476Y-93965285D01*
X103331714Y-94012904D01*
X103379333Y-94060523D01*
X103426952Y-94155761D01*
X103426952Y-94346238D01*
X103474571Y-94441476D01*
X103522190Y-94489095D01*
X103617428Y-94536714D01*
X103807904Y-94536714D01*
X103903142Y-94489095D01*
X103950761Y-94441476D01*
X103998380Y-94346238D01*
X103998380Y-94155761D01*
X103950761Y-94060523D01*
X103903142Y-94012904D01*
X103807904Y-93965285D01*
X103617428Y-93965285D01*
X103522190Y-94012904D01*
X103474571Y-94060523D01*
X103426952Y-94155761D01*
X99177142Y-114201666D02*
X99224761Y-114249285D01*
X99272380Y-114392142D01*
X99272380Y-114487380D01*
X99224761Y-114630238D01*
X99129523Y-114725476D01*
X99034285Y-114773095D01*
X98843809Y-114820714D01*
X98700952Y-114820714D01*
X98510476Y-114773095D01*
X98415238Y-114725476D01*
X98320000Y-114630238D01*
X98272380Y-114487380D01*
X98272380Y-114392142D01*
X98320000Y-114249285D01*
X98367619Y-114201666D01*
X98272380Y-113344523D02*
X98272380Y-113535000D01*
X98320000Y-113630238D01*
X98367619Y-113677857D01*
X98510476Y-113773095D01*
X98700952Y-113820714D01*
X99081904Y-113820714D01*
X99177142Y-113773095D01*
X99224761Y-113725476D01*
X99272380Y-113630238D01*
X99272380Y-113439761D01*
X99224761Y-113344523D01*
X99177142Y-113296904D01*
X99081904Y-113249285D01*
X98843809Y-113249285D01*
X98748571Y-113296904D01*
X98700952Y-113344523D01*
X98653333Y-113439761D01*
X98653333Y-113630238D01*
X98700952Y-113725476D01*
X98748571Y-113773095D01*
X98843809Y-113820714D01*
X111832380Y-106861666D02*
X111356190Y-107195000D01*
X111832380Y-107433095D02*
X110832380Y-107433095D01*
X110832380Y-107052142D01*
X110880000Y-106956904D01*
X110927619Y-106909285D01*
X111022857Y-106861666D01*
X111165714Y-106861666D01*
X111260952Y-106909285D01*
X111308571Y-106956904D01*
X111356190Y-107052142D01*
X111356190Y-107433095D01*
X110832380Y-106528333D02*
X110832380Y-105861666D01*
X111832380Y-106290238D01*
X103352380Y-106866666D02*
X102876190Y-107200000D01*
X103352380Y-107438095D02*
X102352380Y-107438095D01*
X102352380Y-107057142D01*
X102400000Y-106961904D01*
X102447619Y-106914285D01*
X102542857Y-106866666D01*
X102685714Y-106866666D01*
X102780952Y-106914285D01*
X102828571Y-106961904D01*
X102876190Y-107057142D01*
X102876190Y-107438095D01*
X102780952Y-106295238D02*
X102733333Y-106390476D01*
X102685714Y-106438095D01*
X102590476Y-106485714D01*
X102542857Y-106485714D01*
X102447619Y-106438095D01*
X102400000Y-106390476D01*
X102352380Y-106295238D01*
X102352380Y-106104761D01*
X102400000Y-106009523D01*
X102447619Y-105961904D01*
X102542857Y-105914285D01*
X102590476Y-105914285D01*
X102685714Y-105961904D01*
X102733333Y-106009523D01*
X102780952Y-106104761D01*
X102780952Y-106295238D01*
X102828571Y-106390476D01*
X102876190Y-106438095D01*
X102971428Y-106485714D01*
X103161904Y-106485714D01*
X103257142Y-106438095D01*
X103304761Y-106390476D01*
X103352380Y-106295238D01*
X103352380Y-106104761D01*
X103304761Y-106009523D01*
X103257142Y-105961904D01*
X103161904Y-105914285D01*
X102971428Y-105914285D01*
X102876190Y-105961904D01*
X102828571Y-106009523D01*
X102780952Y-106104761D01*
X105568095Y-109207380D02*
X105568095Y-110016904D01*
X105615714Y-110112142D01*
X105663333Y-110159761D01*
X105758571Y-110207380D01*
X105949047Y-110207380D01*
X106044285Y-110159761D01*
X106091904Y-110112142D01*
X106139523Y-110016904D01*
X106139523Y-109207380D01*
X106568095Y-109302619D02*
X106615714Y-109255000D01*
X106710952Y-109207380D01*
X106949047Y-109207380D01*
X107044285Y-109255000D01*
X107091904Y-109302619D01*
X107139523Y-109397857D01*
X107139523Y-109493095D01*
X107091904Y-109635952D01*
X106520476Y-110207380D01*
X107139523Y-110207380D01*
X101478666Y-91016380D02*
X101478666Y-91730666D01*
X101431047Y-91873523D01*
X101335809Y-91968761D01*
X101192952Y-92016380D01*
X101097714Y-92016380D01*
X101954857Y-92016380D02*
X101954857Y-91016380D01*
X102335809Y-91016380D01*
X102431047Y-91064000D01*
X102478666Y-91111619D01*
X102526285Y-91206857D01*
X102526285Y-91349714D01*
X102478666Y-91444952D01*
X102431047Y-91492571D01*
X102335809Y-91540190D01*
X101954857Y-91540190D01*
X103478666Y-92016380D02*
X102907238Y-92016380D01*
X103192952Y-92016380D02*
X103192952Y-91016380D01*
X103097714Y-91159238D01*
X103002476Y-91254476D01*
X102907238Y-91302095D01*
X115737142Y-118861666D02*
X115784761Y-118909285D01*
X115832380Y-119052142D01*
X115832380Y-119147380D01*
X115784761Y-119290238D01*
X115689523Y-119385476D01*
X115594285Y-119433095D01*
X115403809Y-119480714D01*
X115260952Y-119480714D01*
X115070476Y-119433095D01*
X114975238Y-119385476D01*
X114880000Y-119290238D01*
X114832380Y-119147380D01*
X114832380Y-119052142D01*
X114880000Y-118909285D01*
X114927619Y-118861666D01*
X114832380Y-118528333D02*
X114832380Y-117861666D01*
X115832380Y-118290238D01*
X99462380Y-94427857D02*
X98986190Y-94761190D01*
X99462380Y-94999285D02*
X98462380Y-94999285D01*
X98462380Y-94618333D01*
X98510000Y-94523095D01*
X98557619Y-94475476D01*
X98652857Y-94427857D01*
X98795714Y-94427857D01*
X98890952Y-94475476D01*
X98938571Y-94523095D01*
X98986190Y-94618333D01*
X98986190Y-94999285D01*
X99462380Y-93475476D02*
X99462380Y-94046904D01*
X99462380Y-93761190D02*
X98462380Y-93761190D01*
X98605238Y-93856428D01*
X98700476Y-93951666D01*
X98748095Y-94046904D01*
X99462380Y-92523095D02*
X99462380Y-93094523D01*
X99462380Y-92808809D02*
X98462380Y-92808809D01*
X98605238Y-92904047D01*
X98700476Y-92999285D01*
X98748095Y-93094523D01*
X111602380Y-113953095D02*
X110602380Y-113953095D01*
X110602380Y-113715000D01*
X110650000Y-113572142D01*
X110745238Y-113476904D01*
X110840476Y-113429285D01*
X111030952Y-113381666D01*
X111173809Y-113381666D01*
X111364285Y-113429285D01*
X111459523Y-113476904D01*
X111554761Y-113572142D01*
X111602380Y-113715000D01*
X111602380Y-113953095D01*
X110935714Y-112524523D02*
X111602380Y-112524523D01*
X110554761Y-112762619D02*
X111269047Y-113000714D01*
X111269047Y-112381666D01*
X99407142Y-100907857D02*
X99454761Y-100955476D01*
X99502380Y-101098333D01*
X99502380Y-101193571D01*
X99454761Y-101336428D01*
X99359523Y-101431666D01*
X99264285Y-101479285D01*
X99073809Y-101526904D01*
X98930952Y-101526904D01*
X98740476Y-101479285D01*
X98645238Y-101431666D01*
X98550000Y-101336428D01*
X98502380Y-101193571D01*
X98502380Y-101098333D01*
X98550000Y-100955476D01*
X98597619Y-100907857D01*
X99502380Y-99955476D02*
X99502380Y-100526904D01*
X99502380Y-100241190D02*
X98502380Y-100241190D01*
X98645238Y-100336428D01*
X98740476Y-100431666D01*
X98788095Y-100526904D01*
X98502380Y-99336428D02*
X98502380Y-99241190D01*
X98550000Y-99145952D01*
X98597619Y-99098333D01*
X98692857Y-99050714D01*
X98883333Y-99003095D01*
X99121428Y-99003095D01*
X99311904Y-99050714D01*
X99407142Y-99098333D01*
X99454761Y-99145952D01*
X99502380Y-99241190D01*
X99502380Y-99336428D01*
X99454761Y-99431666D01*
X99407142Y-99479285D01*
X99311904Y-99526904D01*
X99121428Y-99574523D01*
X98883333Y-99574523D01*
X98692857Y-99526904D01*
X98597619Y-99479285D01*
X98550000Y-99431666D01*
X98502380Y-99336428D01*
X102912380Y-101046904D02*
X103721904Y-101046904D01*
X103817142Y-100999285D01*
X103864761Y-100951666D01*
X103912380Y-100856428D01*
X103912380Y-100665952D01*
X103864761Y-100570714D01*
X103817142Y-100523095D01*
X103721904Y-100475476D01*
X102912380Y-100475476D01*
X102912380Y-100094523D02*
X102912380Y-99475476D01*
X103293333Y-99808809D01*
X103293333Y-99665952D01*
X103340952Y-99570714D01*
X103388571Y-99523095D01*
X103483809Y-99475476D01*
X103721904Y-99475476D01*
X103817142Y-99523095D01*
X103864761Y-99570714D01*
X103912380Y-99665952D01*
X103912380Y-99951666D01*
X103864761Y-100046904D01*
X103817142Y-100094523D01*
X110268380Y-101235857D02*
X109792190Y-101569190D01*
X110268380Y-101807285D02*
X109268380Y-101807285D01*
X109268380Y-101426333D01*
X109316000Y-101331095D01*
X109363619Y-101283476D01*
X109458857Y-101235857D01*
X109601714Y-101235857D01*
X109696952Y-101283476D01*
X109744571Y-101331095D01*
X109792190Y-101426333D01*
X109792190Y-101807285D01*
X110268380Y-100283476D02*
X110268380Y-100854904D01*
X110268380Y-100569190D02*
X109268380Y-100569190D01*
X109411238Y-100664428D01*
X109506476Y-100759666D01*
X109554095Y-100854904D01*
X109268380Y-99664428D02*
X109268380Y-99569190D01*
X109316000Y-99473952D01*
X109363619Y-99426333D01*
X109458857Y-99378714D01*
X109649333Y-99331095D01*
X109887428Y-99331095D01*
X110077904Y-99378714D01*
X110173142Y-99426333D01*
X110220761Y-99473952D01*
X110268380Y-99569190D01*
X110268380Y-99664428D01*
X110220761Y-99759666D01*
X110173142Y-99807285D01*
X110077904Y-99854904D01*
X109887428Y-99902523D01*
X109649333Y-99902523D01*
X109458857Y-99854904D01*
X109363619Y-99807285D01*
X109316000Y-99759666D01*
X109268380Y-99664428D01*
X119212380Y-113933095D02*
X118212380Y-113933095D01*
X118212380Y-113695000D01*
X118260000Y-113552142D01*
X118355238Y-113456904D01*
X118450476Y-113409285D01*
X118640952Y-113361666D01*
X118783809Y-113361666D01*
X118974285Y-113409285D01*
X119069523Y-113456904D01*
X119164761Y-113552142D01*
X119212380Y-113695000D01*
X119212380Y-113933095D01*
X118212380Y-112456904D02*
X118212380Y-112933095D01*
X118688571Y-112980714D01*
X118640952Y-112933095D01*
X118593333Y-112837857D01*
X118593333Y-112599761D01*
X118640952Y-112504523D01*
X118688571Y-112456904D01*
X118783809Y-112409285D01*
X119021904Y-112409285D01*
X119117142Y-112456904D01*
X119164761Y-112504523D01*
X119212380Y-112599761D01*
X119212380Y-112837857D01*
X119164761Y-112933095D01*
X119117142Y-112980714D01*
X114317333Y-140226142D02*
X114269714Y-140273761D01*
X114126857Y-140321380D01*
X114031619Y-140321380D01*
X113888761Y-140273761D01*
X113793523Y-140178523D01*
X113745904Y-140083285D01*
X113698285Y-139892809D01*
X113698285Y-139749952D01*
X113745904Y-139559476D01*
X113793523Y-139464238D01*
X113888761Y-139369000D01*
X114031619Y-139321380D01*
X114126857Y-139321380D01*
X114269714Y-139369000D01*
X114317333Y-139416619D01*
X115222095Y-139321380D02*
X114745904Y-139321380D01*
X114698285Y-139797571D01*
X114745904Y-139749952D01*
X114841142Y-139702333D01*
X115079238Y-139702333D01*
X115174476Y-139749952D01*
X115222095Y-139797571D01*
X115269714Y-139892809D01*
X115269714Y-140130904D01*
X115222095Y-140226142D01*
X115174476Y-140273761D01*
X115079238Y-140321380D01*
X114841142Y-140321380D01*
X114745904Y-140273761D01*
X114698285Y-140226142D01*
X117883333Y-140226142D02*
X117835714Y-140273761D01*
X117692857Y-140321380D01*
X117597619Y-140321380D01*
X117454761Y-140273761D01*
X117359523Y-140178523D01*
X117311904Y-140083285D01*
X117264285Y-139892809D01*
X117264285Y-139749952D01*
X117311904Y-139559476D01*
X117359523Y-139464238D01*
X117454761Y-139369000D01*
X117597619Y-139321380D01*
X117692857Y-139321380D01*
X117835714Y-139369000D01*
X117883333Y-139416619D01*
X118740476Y-139654714D02*
X118740476Y-140321380D01*
X118502380Y-139273761D02*
X118264285Y-139988047D01*
X118883333Y-139988047D01*
X114782380Y-129469523D02*
X115782380Y-128802857D01*
X114782380Y-128802857D02*
X115782380Y-129469523D01*
X115782380Y-127898095D02*
X115782380Y-128469523D01*
X115782380Y-128183809D02*
X114782380Y-128183809D01*
X114925238Y-128279047D01*
X115020476Y-128374285D01*
X115068095Y-128469523D01*
D13*
X96459523Y-129461380D02*
X95189523Y-129461380D01*
X95189523Y-129159000D01*
X95250000Y-128977571D01*
X95370952Y-128856619D01*
X95491904Y-128796142D01*
X95733809Y-128735666D01*
X95915238Y-128735666D01*
X96157142Y-128796142D01*
X96278095Y-128856619D01*
X96399047Y-128977571D01*
X96459523Y-129159000D01*
X96459523Y-129461380D01*
X95189523Y-128312333D02*
X95189523Y-127526142D01*
X95673333Y-127949476D01*
X95673333Y-127768047D01*
X95733809Y-127647095D01*
X95794285Y-127586619D01*
X95915238Y-127526142D01*
X96217619Y-127526142D01*
X96338571Y-127586619D01*
X96399047Y-127647095D01*
X96459523Y-127768047D01*
X96459523Y-128130904D01*
X96399047Y-128251857D01*
X96338571Y-128312333D01*
D10*
X103227142Y-118851666D02*
X103274761Y-118899285D01*
X103322380Y-119042142D01*
X103322380Y-119137380D01*
X103274761Y-119280238D01*
X103179523Y-119375476D01*
X103084285Y-119423095D01*
X102893809Y-119470714D01*
X102750952Y-119470714D01*
X102560476Y-119423095D01*
X102465238Y-119375476D01*
X102370000Y-119280238D01*
X102322380Y-119137380D01*
X102322380Y-119042142D01*
X102370000Y-118899285D01*
X102417619Y-118851666D01*
X102417619Y-118470714D02*
X102370000Y-118423095D01*
X102322380Y-118327857D01*
X102322380Y-118089761D01*
X102370000Y-117994523D01*
X102417619Y-117946904D01*
X102512857Y-117899285D01*
X102608095Y-117899285D01*
X102750952Y-117946904D01*
X103322380Y-118518333D01*
X103322380Y-117899285D01*
X99077142Y-123348666D02*
X99124761Y-123396285D01*
X99172380Y-123539142D01*
X99172380Y-123634380D01*
X99124761Y-123777238D01*
X99029523Y-123872476D01*
X98934285Y-123920095D01*
X98743809Y-123967714D01*
X98600952Y-123967714D01*
X98410476Y-123920095D01*
X98315238Y-123872476D01*
X98220000Y-123777238D01*
X98172380Y-123634380D01*
X98172380Y-123539142D01*
X98220000Y-123396285D01*
X98267619Y-123348666D01*
X98172380Y-123015333D02*
X98172380Y-122396285D01*
X98553333Y-122729619D01*
X98553333Y-122586761D01*
X98600952Y-122491523D01*
X98648571Y-122443904D01*
X98743809Y-122396285D01*
X98981904Y-122396285D01*
X99077142Y-122443904D01*
X99124761Y-122491523D01*
X99172380Y-122586761D01*
X99172380Y-122872476D01*
X99124761Y-122967714D01*
X99077142Y-123015333D01*
X93394761Y-104562619D02*
X93299523Y-104515000D01*
X93204285Y-104419761D01*
X93061428Y-104276904D01*
X92966190Y-104229285D01*
X92870952Y-104229285D01*
X92918571Y-104467380D02*
X92823333Y-104419761D01*
X92728095Y-104324523D01*
X92680476Y-104134047D01*
X92680476Y-103800714D01*
X92728095Y-103610238D01*
X92823333Y-103515000D01*
X92918571Y-103467380D01*
X93109047Y-103467380D01*
X93204285Y-103515000D01*
X93299523Y-103610238D01*
X93347142Y-103800714D01*
X93347142Y-104134047D01*
X93299523Y-104324523D01*
X93204285Y-104419761D01*
X93109047Y-104467380D01*
X92918571Y-104467380D01*
X93728095Y-103562619D02*
X93775714Y-103515000D01*
X93870952Y-103467380D01*
X94109047Y-103467380D01*
X94204285Y-103515000D01*
X94251904Y-103562619D01*
X94299523Y-103657857D01*
X94299523Y-103753095D01*
X94251904Y-103895952D01*
X93680476Y-104467380D01*
X94299523Y-104467380D01*
X112932380Y-89718333D02*
X113646666Y-89718333D01*
X113789523Y-89765952D01*
X113884761Y-89861190D01*
X113932380Y-90004047D01*
X113932380Y-90099285D01*
X113932380Y-89242142D02*
X112932380Y-89242142D01*
X112932380Y-88861190D01*
X112980000Y-88765952D01*
X113027619Y-88718333D01*
X113122857Y-88670714D01*
X113265714Y-88670714D01*
X113360952Y-88718333D01*
X113408571Y-88765952D01*
X113456190Y-88861190D01*
X113456190Y-89242142D01*
X113027619Y-88289761D02*
X112980000Y-88242142D01*
X112932380Y-88146904D01*
X112932380Y-87908809D01*
X112980000Y-87813571D01*
X113027619Y-87765952D01*
X113122857Y-87718333D01*
X113218095Y-87718333D01*
X113360952Y-87765952D01*
X113932380Y-88337380D01*
X113932380Y-87718333D01*
X107502142Y-118856666D02*
X107549761Y-118904285D01*
X107597380Y-119047142D01*
X107597380Y-119142380D01*
X107549761Y-119285238D01*
X107454523Y-119380476D01*
X107359285Y-119428095D01*
X107168809Y-119475714D01*
X107025952Y-119475714D01*
X106835476Y-119428095D01*
X106740238Y-119380476D01*
X106645000Y-119285238D01*
X106597380Y-119142380D01*
X106597380Y-119047142D01*
X106645000Y-118904285D01*
X106692619Y-118856666D01*
X107597380Y-117904285D02*
X107597380Y-118475714D01*
X107597380Y-118190000D02*
X106597380Y-118190000D01*
X106740238Y-118285238D01*
X106835476Y-118380476D01*
X106883095Y-118475714D01*
X160633142Y-103824142D02*
X160585523Y-103871761D01*
X160442666Y-103919380D01*
X160347428Y-103919380D01*
X160204571Y-103871761D01*
X160109333Y-103776523D01*
X160061714Y-103681285D01*
X160014095Y-103490809D01*
X160014095Y-103347952D01*
X160061714Y-103157476D01*
X160109333Y-103062238D01*
X160204571Y-102967000D01*
X160347428Y-102919380D01*
X160442666Y-102919380D01*
X160585523Y-102967000D01*
X160633142Y-103014619D01*
X161585523Y-103919380D02*
X161014095Y-103919380D01*
X161299809Y-103919380D02*
X161299809Y-102919380D01*
X161204571Y-103062238D01*
X161109333Y-103157476D01*
X161014095Y-103205095D01*
X161966476Y-103014619D02*
X162014095Y-102967000D01*
X162109333Y-102919380D01*
X162347428Y-102919380D01*
X162442666Y-102967000D01*
X162490285Y-103014619D01*
X162537904Y-103109857D01*
X162537904Y-103205095D01*
X162490285Y-103347952D01*
X161918857Y-103919380D01*
X162537904Y-103919380D01*
X160638142Y-107349142D02*
X160590523Y-107396761D01*
X160447666Y-107444380D01*
X160352428Y-107444380D01*
X160209571Y-107396761D01*
X160114333Y-107301523D01*
X160066714Y-107206285D01*
X160019095Y-107015809D01*
X160019095Y-106872952D01*
X160066714Y-106682476D01*
X160114333Y-106587238D01*
X160209571Y-106492000D01*
X160352428Y-106444380D01*
X160447666Y-106444380D01*
X160590523Y-106492000D01*
X160638142Y-106539619D01*
X161590523Y-107444380D02*
X161019095Y-107444380D01*
X161304809Y-107444380D02*
X161304809Y-106444380D01*
X161209571Y-106587238D01*
X161114333Y-106682476D01*
X161019095Y-106730095D01*
X162542904Y-107444380D02*
X161971476Y-107444380D01*
X162257190Y-107444380D02*
X162257190Y-106444380D01*
X162161952Y-106587238D01*
X162066714Y-106682476D01*
X161971476Y-106730095D01*
X115713333Y-98962142D02*
X115665714Y-99009761D01*
X115522857Y-99057380D01*
X115427619Y-99057380D01*
X115284761Y-99009761D01*
X115189523Y-98914523D01*
X115141904Y-98819285D01*
X115094285Y-98628809D01*
X115094285Y-98485952D01*
X115141904Y-98295476D01*
X115189523Y-98200238D01*
X115284761Y-98105000D01*
X115427619Y-98057380D01*
X115522857Y-98057380D01*
X115665714Y-98105000D01*
X115713333Y-98152619D01*
X116189523Y-99057380D02*
X116380000Y-99057380D01*
X116475238Y-99009761D01*
X116522857Y-98962142D01*
X116618095Y-98819285D01*
X116665714Y-98628809D01*
X116665714Y-98247857D01*
X116618095Y-98152619D01*
X116570476Y-98105000D01*
X116475238Y-98057380D01*
X116284761Y-98057380D01*
X116189523Y-98105000D01*
X116141904Y-98152619D01*
X116094285Y-98247857D01*
X116094285Y-98485952D01*
X116141904Y-98581190D01*
X116189523Y-98628809D01*
X116284761Y-98676428D01*
X116475238Y-98676428D01*
X116570476Y-98628809D01*
X116618095Y-98581190D01*
X116665714Y-98485952D01*
X133977142Y-137263142D02*
X133929523Y-137310761D01*
X133786666Y-137358380D01*
X133691428Y-137358380D01*
X133548571Y-137310761D01*
X133453333Y-137215523D01*
X133405714Y-137120285D01*
X133358095Y-136929809D01*
X133358095Y-136786952D01*
X133405714Y-136596476D01*
X133453333Y-136501238D01*
X133548571Y-136406000D01*
X133691428Y-136358380D01*
X133786666Y-136358380D01*
X133929523Y-136406000D01*
X133977142Y-136453619D01*
X134929523Y-137358380D02*
X134358095Y-137358380D01*
X134643809Y-137358380D02*
X134643809Y-136358380D01*
X134548571Y-136501238D01*
X134453333Y-136596476D01*
X134358095Y-136644095D01*
X135834285Y-136358380D02*
X135358095Y-136358380D01*
X135310476Y-136834571D01*
X135358095Y-136786952D01*
X135453333Y-136739333D01*
X135691428Y-136739333D01*
X135786666Y-136786952D01*
X135834285Y-136834571D01*
X135881904Y-136929809D01*
X135881904Y-137167904D01*
X135834285Y-137263142D01*
X135786666Y-137310761D01*
X135691428Y-137358380D01*
X135453333Y-137358380D01*
X135358095Y-137310761D01*
X135310476Y-137263142D01*
X120321619Y-121761238D02*
X120274000Y-121856476D01*
X120178761Y-121951714D01*
X120035904Y-122094571D01*
X119988285Y-122189809D01*
X119988285Y-122285047D01*
X120226380Y-122237428D02*
X120178761Y-122332666D01*
X120083523Y-122427904D01*
X119893047Y-122475523D01*
X119559714Y-122475523D01*
X119369238Y-122427904D01*
X119274000Y-122332666D01*
X119226380Y-122237428D01*
X119226380Y-122046952D01*
X119274000Y-121951714D01*
X119369238Y-121856476D01*
X119559714Y-121808857D01*
X119893047Y-121808857D01*
X120083523Y-121856476D01*
X120178761Y-121951714D01*
X120226380Y-122046952D01*
X120226380Y-122237428D01*
X119226380Y-121475523D02*
X119226380Y-120856476D01*
X119607333Y-121189809D01*
X119607333Y-121046952D01*
X119654952Y-120951714D01*
X119702571Y-120904095D01*
X119797809Y-120856476D01*
X120035904Y-120856476D01*
X120131142Y-120904095D01*
X120178761Y-120951714D01*
X120226380Y-121046952D01*
X120226380Y-121332666D01*
X120178761Y-121427904D01*
X120131142Y-121475523D01*
X130227619Y-126841238D02*
X130180000Y-126936476D01*
X130084761Y-127031714D01*
X129941904Y-127174571D01*
X129894285Y-127269809D01*
X129894285Y-127365047D01*
X130132380Y-127317428D02*
X130084761Y-127412666D01*
X129989523Y-127507904D01*
X129799047Y-127555523D01*
X129465714Y-127555523D01*
X129275238Y-127507904D01*
X129180000Y-127412666D01*
X129132380Y-127317428D01*
X129132380Y-127126952D01*
X129180000Y-127031714D01*
X129275238Y-126936476D01*
X129465714Y-126888857D01*
X129799047Y-126888857D01*
X129989523Y-126936476D01*
X130084761Y-127031714D01*
X130132380Y-127126952D01*
X130132380Y-127317428D01*
X129465714Y-126031714D02*
X130132380Y-126031714D01*
X129084761Y-126269809D02*
X129799047Y-126507904D01*
X129799047Y-125888857D01*
X125874142Y-127882380D02*
X125540809Y-127406190D01*
X125302714Y-127882380D02*
X125302714Y-126882380D01*
X125683666Y-126882380D01*
X125778904Y-126930000D01*
X125826523Y-126977619D01*
X125874142Y-127072857D01*
X125874142Y-127215714D01*
X125826523Y-127310952D01*
X125778904Y-127358571D01*
X125683666Y-127406190D01*
X125302714Y-127406190D01*
X126826523Y-127882380D02*
X126255095Y-127882380D01*
X126540809Y-127882380D02*
X126540809Y-126882380D01*
X126445571Y-127025238D01*
X126350333Y-127120476D01*
X126255095Y-127168095D01*
X127683666Y-127215714D02*
X127683666Y-127882380D01*
X127445571Y-126834761D02*
X127207476Y-127549047D01*
X127826523Y-127549047D01*
X121096380Y-127883857D02*
X120620190Y-128217190D01*
X121096380Y-128455285D02*
X120096380Y-128455285D01*
X120096380Y-128074333D01*
X120144000Y-127979095D01*
X120191619Y-127931476D01*
X120286857Y-127883857D01*
X120429714Y-127883857D01*
X120524952Y-127931476D01*
X120572571Y-127979095D01*
X120620190Y-128074333D01*
X120620190Y-128455285D01*
X121096380Y-126931476D02*
X121096380Y-127502904D01*
X121096380Y-127217190D02*
X120096380Y-127217190D01*
X120239238Y-127312428D01*
X120334476Y-127407666D01*
X120382095Y-127502904D01*
X120096380Y-126598142D02*
X120096380Y-125979095D01*
X120477333Y-126312428D01*
X120477333Y-126169571D01*
X120524952Y-126074333D01*
X120572571Y-126026714D01*
X120667809Y-125979095D01*
X120905904Y-125979095D01*
X121001142Y-126026714D01*
X121048761Y-126074333D01*
X121096380Y-126169571D01*
X121096380Y-126455285D01*
X121048761Y-126550523D01*
X121001142Y-126598142D01*
X133723142Y-121769142D02*
X133675523Y-121816761D01*
X133532666Y-121864380D01*
X133437428Y-121864380D01*
X133294571Y-121816761D01*
X133199333Y-121721523D01*
X133151714Y-121626285D01*
X133104095Y-121435809D01*
X133104095Y-121292952D01*
X133151714Y-121102476D01*
X133199333Y-121007238D01*
X133294571Y-120912000D01*
X133437428Y-120864380D01*
X133532666Y-120864380D01*
X133675523Y-120912000D01*
X133723142Y-120959619D01*
X134675523Y-121864380D02*
X134104095Y-121864380D01*
X134389809Y-121864380D02*
X134389809Y-120864380D01*
X134294571Y-121007238D01*
X134199333Y-121102476D01*
X134104095Y-121150095D01*
X135532666Y-121197714D02*
X135532666Y-121864380D01*
X135294571Y-120816761D02*
X135056476Y-121531047D01*
X135675523Y-121531047D01*
X121121380Y-132407666D02*
X120645190Y-132741000D01*
X121121380Y-132979095D02*
X120121380Y-132979095D01*
X120121380Y-132598142D01*
X120169000Y-132502904D01*
X120216619Y-132455285D01*
X120311857Y-132407666D01*
X120454714Y-132407666D01*
X120549952Y-132455285D01*
X120597571Y-132502904D01*
X120645190Y-132598142D01*
X120645190Y-132979095D01*
X120121380Y-132074333D02*
X120121380Y-131455285D01*
X120502333Y-131788619D01*
X120502333Y-131645761D01*
X120549952Y-131550523D01*
X120597571Y-131502904D01*
X120692809Y-131455285D01*
X120930904Y-131455285D01*
X121026142Y-131502904D01*
X121073761Y-131550523D01*
X121121380Y-131645761D01*
X121121380Y-131931476D01*
X121073761Y-132026714D01*
X121026142Y-132074333D01*
X122123333Y-140292380D02*
X121790000Y-139816190D01*
X121551904Y-140292380D02*
X121551904Y-139292380D01*
X121932857Y-139292380D01*
X122028095Y-139340000D01*
X122075714Y-139387619D01*
X122123333Y-139482857D01*
X122123333Y-139625714D01*
X122075714Y-139720952D01*
X122028095Y-139768571D01*
X121932857Y-139816190D01*
X121551904Y-139816190D01*
X122980476Y-139625714D02*
X122980476Y-140292380D01*
X122742380Y-139244761D02*
X122504285Y-139959047D01*
X123123333Y-139959047D01*
M02*
