M48
; DRILL file {KiCad (5.1.2)-1} date 4/7/2022 19:58:17
; FORMAT={-:-/ absolute / metric / decimal}
; #@! TF.CreationDate,2022-07-04T19:58:17-03:00
; #@! TF.GenerationSoftware,Kicad,Pcbnew,(5.1.2)-1
; #@! TF.FileFunction,Plated,1,2,PTH
FMAT,2
METRIC
T1C0.400
T2C0.600
T3C0.800
T4C1.000
T5C1.300
%
G90
G05
T1
X92.825Y-136.7
X92.83Y-123.095
X92.85Y-118.655
X96.91Y-129.245
X96.92Y-112.515
X96.92Y-133.915
X96.94Y-124.065
X96.94Y-117.665
X98.95Y-109.45
X106.24Y-124.995
X106.28Y-123.235
X108.725Y-87.3
X115.19Y-120.5
X118.35Y-103.35
X118.86Y-80.35
X118.93Y-116.975
X119.76Y-99.295
X120.93Y-131.965
X120.97Y-127.055
X124.85Y-134.75
X124.9Y-128.55
X125.8Y-119.2
X125.8Y-126.8
X131.525Y-124.9
X132.15Y-103.175
X132.15Y-112.225
X135.695Y-99.2
X138.05Y-106.4
X138.4Y-109.3
X141.5Y-124.9
X152.92Y-128.555
X154.19Y-134.74
X155.46Y-103.165
X156.7Y-99.2
T2
X128.58Y-105.535
X128.58Y-107.535
T3
X115.48Y-126.235
X115.48Y-131.135
T4
X128.58Y-92.575
X128.58Y-95.115
X95.97Y-139.49
X98.51Y-139.49
X101.05Y-139.49
X103.59Y-139.49
X106.13Y-139.49
X108.67Y-139.49
X111.21Y-139.49
X113.75Y-139.49
X116.29Y-139.49
X118.83Y-139.49
X121.37Y-139.49
X123.91Y-139.49
X126.45Y-139.49
X128.99Y-139.49
X131.53Y-139.49
X134.07Y-139.49
X136.61Y-139.49
X139.15Y-139.49
X141.69Y-139.49
X144.23Y-139.49
X146.77Y-139.49
X149.31Y-139.49
X151.85Y-139.49
X154.39Y-139.49
X156.93Y-139.49
X159.47Y-139.49
X106.58Y-92.545
X106.58Y-95.085
X114.935Y-87.3
X117.475Y-87.3
X120.015Y-87.3
X95.8Y-82.7
X98.34Y-82.7
X100.88Y-82.7
X103.42Y-82.7
X105.96Y-82.7
X108.5Y-82.7
X111.04Y-82.7
X113.58Y-82.7
X116.12Y-82.7
X118.66Y-82.7
X121.2Y-82.7
X123.74Y-82.7
X126.28Y-82.7
X128.82Y-82.7
X131.36Y-82.7
X133.9Y-82.7
X136.44Y-82.7
X138.98Y-82.7
X141.52Y-82.7
X144.06Y-82.7
X146.6Y-82.7
X149.14Y-82.7
X151.68Y-82.7
X154.22Y-82.7
X156.76Y-82.7
X159.3Y-82.7
T5
X93.48Y-94.345
X93.48Y-99.345
T0
M30
