G04 #@! TF.GenerationSoftware,KiCad,Pcbnew,(5.1.2)-1*
G04 #@! TF.CreationDate,2022-09-30T11:59:59-03:00*
G04 #@! TF.ProjectId,esp32,65737033-322e-46b6-9963-61645f706362,rev?*
G04 #@! TF.SameCoordinates,Original*
G04 #@! TF.FileFunction,Soldermask,Top*
G04 #@! TF.FilePolarity,Negative*
%FSLAX46Y46*%
G04 Gerber Fmt 4.6, Leading zero omitted, Abs format (unit mm)*
G04 Created by KiCad (PCBNEW (5.1.2)-1) date 2022-09-30 11:59:59*
%MOMM*%
%LPD*%
G04 APERTURE LIST*
%ADD10C,0.100000*%
G04 APERTURE END LIST*
D10*
G36*
X98831617Y-139582421D02*
G01*
X98922403Y-139609961D01*
X98954335Y-139619647D01*
X99067424Y-139680095D01*
X99166554Y-139761448D01*
X99247906Y-139860576D01*
X99308354Y-139973665D01*
X99318040Y-140005597D01*
X99345580Y-140096383D01*
X99355000Y-140192028D01*
X99355000Y-140859374D01*
X99345580Y-140955019D01*
X99335371Y-140988673D01*
X99308354Y-141077737D01*
X99247906Y-141190826D01*
X99166554Y-141289955D01*
X99067425Y-141371307D01*
X98954336Y-141431755D01*
X98922404Y-141441441D01*
X98831618Y-141468981D01*
X98704000Y-141481550D01*
X98576383Y-141468981D01*
X98485597Y-141441441D01*
X98453665Y-141431755D01*
X98340576Y-141371307D01*
X98241447Y-141289955D01*
X98160096Y-141190828D01*
X98099645Y-141077734D01*
X98072629Y-140988673D01*
X98062420Y-140955019D01*
X98053000Y-140859374D01*
X98053000Y-140192029D01*
X98062420Y-140096384D01*
X98099645Y-139973670D01*
X98099646Y-139973666D01*
X98160094Y-139860577D01*
X98241447Y-139761447D01*
X98340575Y-139680095D01*
X98453664Y-139619647D01*
X98485596Y-139609961D01*
X98576382Y-139582421D01*
X98704000Y-139569852D01*
X98831617Y-139582421D01*
X98831617Y-139582421D01*
G37*
G36*
X107671617Y-139582421D02*
G01*
X107762403Y-139609961D01*
X107794335Y-139619647D01*
X107907424Y-139680095D01*
X108006554Y-139761448D01*
X108087906Y-139860576D01*
X108148354Y-139973665D01*
X108158040Y-140005597D01*
X108185580Y-140096383D01*
X108195000Y-140192028D01*
X108195000Y-140859374D01*
X108185580Y-140955019D01*
X108175371Y-140988673D01*
X108148354Y-141077737D01*
X108087906Y-141190826D01*
X108006554Y-141289955D01*
X107907425Y-141371307D01*
X107794336Y-141431755D01*
X107762404Y-141441441D01*
X107671618Y-141468981D01*
X107544000Y-141481550D01*
X107416383Y-141468981D01*
X107325597Y-141441441D01*
X107293665Y-141431755D01*
X107180576Y-141371307D01*
X107081447Y-141289955D01*
X107000096Y-141190828D01*
X106939645Y-141077734D01*
X106912629Y-140988673D01*
X106902420Y-140955019D01*
X106893000Y-140859374D01*
X106893000Y-140192029D01*
X106902420Y-140096384D01*
X106939645Y-139973670D01*
X106939646Y-139973666D01*
X107000094Y-139860577D01*
X107081447Y-139761447D01*
X107180575Y-139680095D01*
X107293664Y-139619647D01*
X107325596Y-139609961D01*
X107416382Y-139582421D01*
X107544000Y-139569852D01*
X107671617Y-139582421D01*
X107671617Y-139582421D01*
G37*
G36*
X91624549Y-138171116D02*
G01*
X91735734Y-138193232D01*
X91945203Y-138279997D01*
X92133720Y-138405960D01*
X92294040Y-138566280D01*
X92420003Y-138754797D01*
X92506768Y-138964266D01*
X92551000Y-139186636D01*
X92551000Y-139413364D01*
X92506768Y-139635734D01*
X92420003Y-139845203D01*
X92294040Y-140033720D01*
X92133720Y-140194040D01*
X91945203Y-140320003D01*
X91735734Y-140406768D01*
X91624549Y-140428884D01*
X91513365Y-140451000D01*
X91286635Y-140451000D01*
X91175451Y-140428884D01*
X91064266Y-140406768D01*
X90854797Y-140320003D01*
X90666280Y-140194040D01*
X90505960Y-140033720D01*
X90379997Y-139845203D01*
X90293232Y-139635734D01*
X90249000Y-139413364D01*
X90249000Y-139186636D01*
X90293232Y-138964266D01*
X90379997Y-138754797D01*
X90505960Y-138566280D01*
X90666280Y-138405960D01*
X90854797Y-138279997D01*
X91064266Y-138193232D01*
X91175451Y-138171116D01*
X91286635Y-138149000D01*
X91513365Y-138149000D01*
X91624549Y-138171116D01*
X91624549Y-138171116D01*
G37*
G36*
X164724549Y-138171116D02*
G01*
X164835734Y-138193232D01*
X165045203Y-138279997D01*
X165233720Y-138405960D01*
X165394040Y-138566280D01*
X165520003Y-138754797D01*
X165606768Y-138964266D01*
X165651000Y-139186636D01*
X165651000Y-139413364D01*
X165606768Y-139635734D01*
X165520003Y-139845203D01*
X165394040Y-140033720D01*
X165233720Y-140194040D01*
X165045203Y-140320003D01*
X164835734Y-140406768D01*
X164724549Y-140428884D01*
X164613365Y-140451000D01*
X164386635Y-140451000D01*
X164275451Y-140428884D01*
X164164266Y-140406768D01*
X163954797Y-140320003D01*
X163766280Y-140194040D01*
X163605960Y-140033720D01*
X163479997Y-139845203D01*
X163393232Y-139635734D01*
X163349000Y-139413364D01*
X163349000Y-139186636D01*
X163393232Y-138964266D01*
X163479997Y-138754797D01*
X163605960Y-138566280D01*
X163766280Y-138405960D01*
X163954797Y-138279997D01*
X164164266Y-138193232D01*
X164275451Y-138171116D01*
X164386635Y-138149000D01*
X164613365Y-138149000D01*
X164724549Y-138171116D01*
X164724549Y-138171116D01*
G37*
G36*
X142569500Y-140220000D02*
G01*
X140767500Y-140220000D01*
X140767500Y-138418000D01*
X142569500Y-138418000D01*
X142569500Y-140220000D01*
X142569500Y-140220000D01*
G37*
G36*
X139238942Y-138424518D02*
G01*
X139305127Y-138431037D01*
X139474966Y-138482557D01*
X139631491Y-138566222D01*
X139667229Y-138595552D01*
X139768686Y-138678814D01*
X139831044Y-138754799D01*
X139881278Y-138816009D01*
X139964943Y-138972534D01*
X140016463Y-139142373D01*
X140033859Y-139319000D01*
X140016463Y-139495627D01*
X139964943Y-139665466D01*
X139881278Y-139821991D01*
X139862230Y-139845201D01*
X139768686Y-139959186D01*
X139667229Y-140042448D01*
X139631491Y-140071778D01*
X139474966Y-140155443D01*
X139305127Y-140206963D01*
X139238942Y-140213482D01*
X139172760Y-140220000D01*
X139084240Y-140220000D01*
X139018058Y-140213482D01*
X138951873Y-140206963D01*
X138782034Y-140155443D01*
X138625509Y-140071778D01*
X138589771Y-140042448D01*
X138488314Y-139959186D01*
X138394770Y-139845201D01*
X138375722Y-139821991D01*
X138292057Y-139665466D01*
X138240537Y-139495627D01*
X138223141Y-139319000D01*
X138240537Y-139142373D01*
X138292057Y-138972534D01*
X138375722Y-138816009D01*
X138425956Y-138754799D01*
X138488314Y-138678814D01*
X138589771Y-138595552D01*
X138625509Y-138566222D01*
X138782034Y-138482557D01*
X138951873Y-138431037D01*
X139018058Y-138424518D01*
X139084240Y-138418000D01*
X139172760Y-138418000D01*
X139238942Y-138424518D01*
X139238942Y-138424518D01*
G37*
G36*
X149589443Y-138361019D02*
G01*
X149655627Y-138367537D01*
X149825466Y-138419057D01*
X149981991Y-138502722D01*
X150017729Y-138532052D01*
X150119186Y-138615314D01*
X150202448Y-138716771D01*
X150231778Y-138752509D01*
X150231779Y-138752511D01*
X150303952Y-138887535D01*
X150315443Y-138909034D01*
X150366963Y-139078873D01*
X150384359Y-139255500D01*
X150366963Y-139432127D01*
X150315736Y-139601000D01*
X150315442Y-139601968D01*
X150281501Y-139665466D01*
X150231778Y-139758491D01*
X150229351Y-139761448D01*
X150119186Y-139895686D01*
X150024167Y-139973665D01*
X149981991Y-140008278D01*
X149981989Y-140008279D01*
X149879001Y-140063328D01*
X149825466Y-140091943D01*
X149655627Y-140143463D01*
X149589443Y-140149981D01*
X149523260Y-140156500D01*
X149434740Y-140156500D01*
X149368557Y-140149981D01*
X149302373Y-140143463D01*
X149132534Y-140091943D01*
X149079000Y-140063328D01*
X148976011Y-140008279D01*
X148976009Y-140008278D01*
X148933833Y-139973665D01*
X148838814Y-139895686D01*
X148728649Y-139761448D01*
X148726222Y-139758491D01*
X148676499Y-139665466D01*
X148642558Y-139601968D01*
X148642264Y-139601000D01*
X148591037Y-139432127D01*
X148573641Y-139255500D01*
X148591037Y-139078873D01*
X148642557Y-138909034D01*
X148654049Y-138887535D01*
X148726221Y-138752511D01*
X148726222Y-138752509D01*
X148755552Y-138716771D01*
X148838814Y-138615314D01*
X148940271Y-138532052D01*
X148976009Y-138502722D01*
X149132534Y-138419057D01*
X149302373Y-138367537D01*
X149368557Y-138361019D01*
X149434740Y-138354500D01*
X149523260Y-138354500D01*
X149589443Y-138361019D01*
X149589443Y-138361019D01*
G37*
G36*
X147840000Y-140156500D02*
G01*
X146038000Y-140156500D01*
X146038000Y-138354500D01*
X147840000Y-138354500D01*
X147840000Y-140156500D01*
X147840000Y-140156500D01*
G37*
G36*
X130411000Y-139601000D02*
G01*
X128809000Y-139601000D01*
X128809000Y-137999000D01*
X130411000Y-137999000D01*
X130411000Y-139601000D01*
X130411000Y-139601000D01*
G37*
G36*
X125564674Y-137644465D02*
G01*
X125602367Y-137655899D01*
X125637103Y-137674466D01*
X125667548Y-137699452D01*
X125692534Y-137729897D01*
X125711101Y-137764633D01*
X125722535Y-137802326D01*
X125727000Y-137847661D01*
X125727000Y-138684339D01*
X125722535Y-138729674D01*
X125711101Y-138767367D01*
X125692534Y-138802103D01*
X125667548Y-138832548D01*
X125637103Y-138857534D01*
X125602367Y-138876101D01*
X125564674Y-138887535D01*
X125519339Y-138892000D01*
X124432661Y-138892000D01*
X124387326Y-138887535D01*
X124349633Y-138876101D01*
X124314897Y-138857534D01*
X124284452Y-138832548D01*
X124259466Y-138802103D01*
X124240899Y-138767367D01*
X124229465Y-138729674D01*
X124225000Y-138684339D01*
X124225000Y-137847661D01*
X124229465Y-137802326D01*
X124240899Y-137764633D01*
X124259466Y-137729897D01*
X124284452Y-137699452D01*
X124314897Y-137674466D01*
X124349633Y-137655899D01*
X124387326Y-137644465D01*
X124432661Y-137640000D01*
X125519339Y-137640000D01*
X125564674Y-137644465D01*
X125564674Y-137644465D01*
G37*
G36*
X122064674Y-137644465D02*
G01*
X122102367Y-137655899D01*
X122137103Y-137674466D01*
X122167548Y-137699452D01*
X122192534Y-137729897D01*
X122211101Y-137764633D01*
X122222535Y-137802326D01*
X122227000Y-137847661D01*
X122227000Y-138684339D01*
X122222535Y-138729674D01*
X122211101Y-138767367D01*
X122192534Y-138802103D01*
X122167548Y-138832548D01*
X122137103Y-138857534D01*
X122102367Y-138876101D01*
X122064674Y-138887535D01*
X122019339Y-138892000D01*
X120932661Y-138892000D01*
X120887326Y-138887535D01*
X120849633Y-138876101D01*
X120814897Y-138857534D01*
X120784452Y-138832548D01*
X120759466Y-138802103D01*
X120740899Y-138767367D01*
X120729465Y-138729674D01*
X120725000Y-138684339D01*
X120725000Y-137847661D01*
X120729465Y-137802326D01*
X120740899Y-137764633D01*
X120759466Y-137729897D01*
X120784452Y-137699452D01*
X120814897Y-137674466D01*
X120849633Y-137655899D01*
X120887326Y-137644465D01*
X120932661Y-137640000D01*
X122019339Y-137640000D01*
X122064674Y-137644465D01*
X122064674Y-137644465D01*
G37*
G36*
X96268674Y-137641465D02*
G01*
X96306367Y-137652899D01*
X96341103Y-137671466D01*
X96371548Y-137696452D01*
X96396534Y-137726897D01*
X96415101Y-137761633D01*
X96426535Y-137799326D01*
X96431000Y-137844661D01*
X96431000Y-138681339D01*
X96426535Y-138726674D01*
X96415101Y-138764367D01*
X96396534Y-138799103D01*
X96371548Y-138829548D01*
X96341103Y-138854534D01*
X96306367Y-138873101D01*
X96268674Y-138884535D01*
X96223339Y-138889000D01*
X95136661Y-138889000D01*
X95091326Y-138884535D01*
X95053633Y-138873101D01*
X95018897Y-138854534D01*
X94988452Y-138829548D01*
X94963466Y-138799103D01*
X94944899Y-138764367D01*
X94933465Y-138726674D01*
X94929000Y-138681339D01*
X94929000Y-137844661D01*
X94933465Y-137799326D01*
X94944899Y-137761633D01*
X94963466Y-137726897D01*
X94988452Y-137696452D01*
X95018897Y-137671466D01*
X95053633Y-137652899D01*
X95091326Y-137641465D01*
X95136661Y-137637000D01*
X96223339Y-137637000D01*
X96268674Y-137641465D01*
X96268674Y-137641465D01*
G37*
G36*
X118564674Y-137641465D02*
G01*
X118602367Y-137652899D01*
X118637103Y-137671466D01*
X118667548Y-137696452D01*
X118692534Y-137726897D01*
X118711101Y-137761633D01*
X118722535Y-137799326D01*
X118727000Y-137844661D01*
X118727000Y-138681339D01*
X118722535Y-138726674D01*
X118711101Y-138764367D01*
X118692534Y-138799103D01*
X118667548Y-138829548D01*
X118637103Y-138854534D01*
X118602367Y-138873101D01*
X118564674Y-138884535D01*
X118519339Y-138889000D01*
X117432661Y-138889000D01*
X117387326Y-138884535D01*
X117349633Y-138873101D01*
X117314897Y-138854534D01*
X117284452Y-138829548D01*
X117259466Y-138799103D01*
X117240899Y-138764367D01*
X117229465Y-138726674D01*
X117225000Y-138681339D01*
X117225000Y-137844661D01*
X117229465Y-137799326D01*
X117240899Y-137761633D01*
X117259466Y-137726897D01*
X117284452Y-137696452D01*
X117314897Y-137671466D01*
X117349633Y-137652899D01*
X117387326Y-137641465D01*
X117432661Y-137637000D01*
X118519339Y-137637000D01*
X118564674Y-137641465D01*
X118564674Y-137641465D01*
G37*
G36*
X111586674Y-137641465D02*
G01*
X111624367Y-137652899D01*
X111659103Y-137671466D01*
X111689548Y-137696452D01*
X111714534Y-137726897D01*
X111733101Y-137761633D01*
X111744535Y-137799326D01*
X111749000Y-137844661D01*
X111749000Y-138681339D01*
X111744535Y-138726674D01*
X111733101Y-138764367D01*
X111714534Y-138799103D01*
X111689548Y-138829548D01*
X111659103Y-138854534D01*
X111624367Y-138873101D01*
X111586674Y-138884535D01*
X111541339Y-138889000D01*
X110454661Y-138889000D01*
X110409326Y-138884535D01*
X110371633Y-138873101D01*
X110336897Y-138854534D01*
X110306452Y-138829548D01*
X110281466Y-138799103D01*
X110262899Y-138764367D01*
X110251465Y-138726674D01*
X110247000Y-138681339D01*
X110247000Y-137844661D01*
X110251465Y-137799326D01*
X110262899Y-137761633D01*
X110281466Y-137726897D01*
X110306452Y-137696452D01*
X110336897Y-137671466D01*
X110371633Y-137652899D01*
X110409326Y-137641465D01*
X110454661Y-137637000D01*
X111541339Y-137637000D01*
X111586674Y-137641465D01*
X111586674Y-137641465D01*
G37*
G36*
X115064674Y-137641465D02*
G01*
X115102367Y-137652899D01*
X115137103Y-137671466D01*
X115167548Y-137696452D01*
X115192534Y-137726897D01*
X115211101Y-137761633D01*
X115222535Y-137799326D01*
X115227000Y-137844661D01*
X115227000Y-138681339D01*
X115222535Y-138726674D01*
X115211101Y-138764367D01*
X115192534Y-138799103D01*
X115167548Y-138829548D01*
X115137103Y-138854534D01*
X115102367Y-138873101D01*
X115064674Y-138884535D01*
X115019339Y-138889000D01*
X113932661Y-138889000D01*
X113887326Y-138884535D01*
X113849633Y-138873101D01*
X113814897Y-138854534D01*
X113784452Y-138829548D01*
X113759466Y-138799103D01*
X113740899Y-138764367D01*
X113729465Y-138726674D01*
X113725000Y-138681339D01*
X113725000Y-137844661D01*
X113729465Y-137799326D01*
X113740899Y-137761633D01*
X113759466Y-137726897D01*
X113784452Y-137696452D01*
X113814897Y-137671466D01*
X113849633Y-137652899D01*
X113887326Y-137641465D01*
X113932661Y-137637000D01*
X115019339Y-137637000D01*
X115064674Y-137641465D01*
X115064674Y-137641465D01*
G37*
G36*
X106679799Y-135655191D02*
G01*
X106682201Y-135679577D01*
X106689314Y-135703026D01*
X106700865Y-135724637D01*
X106716410Y-135743579D01*
X106735352Y-135759124D01*
X106756963Y-135770675D01*
X106780412Y-135777788D01*
X106804798Y-135780190D01*
X106829184Y-135777788D01*
X106852633Y-135770675D01*
X106874244Y-135759124D01*
X106893186Y-135743579D01*
X106908731Y-135724637D01*
X106920282Y-135703026D01*
X106924415Y-135691476D01*
X106928025Y-135679577D01*
X106939645Y-135641269D01*
X106939646Y-135641266D01*
X107000094Y-135528176D01*
X107081447Y-135429046D01*
X107180575Y-135347694D01*
X107293664Y-135287246D01*
X107325596Y-135277560D01*
X107416382Y-135250020D01*
X107544000Y-135237451D01*
X107671617Y-135250020D01*
X107762403Y-135277560D01*
X107794335Y-135287246D01*
X107907424Y-135347694D01*
X108006554Y-135429047D01*
X108087906Y-135528175D01*
X108148354Y-135641264D01*
X108152579Y-135655191D01*
X108185580Y-135763982D01*
X108195000Y-135859627D01*
X108195000Y-136831773D01*
X108185580Y-136927418D01*
X108160241Y-137010949D01*
X108148354Y-137050136D01*
X108087906Y-137163225D01*
X108006554Y-137262354D01*
X107907425Y-137343706D01*
X107794336Y-137404154D01*
X107762404Y-137413840D01*
X107671618Y-137441380D01*
X107544000Y-137453949D01*
X107416383Y-137441380D01*
X107325597Y-137413840D01*
X107293665Y-137404154D01*
X107180576Y-137343706D01*
X107081447Y-137262354D01*
X107000095Y-137163225D01*
X106939647Y-137050136D01*
X106927760Y-137010949D01*
X106902421Y-136927418D01*
X106893000Y-136831773D01*
X106893000Y-136523198D01*
X106890598Y-136498813D01*
X106883485Y-136475364D01*
X106871934Y-136453753D01*
X106856389Y-136434811D01*
X106837447Y-136419266D01*
X106815836Y-136407715D01*
X106792387Y-136400602D01*
X106768001Y-136398200D01*
X106407311Y-136398200D01*
X106382925Y-136400602D01*
X106359476Y-136407715D01*
X106337865Y-136419266D01*
X106318923Y-136434811D01*
X106303378Y-136453753D01*
X106291827Y-136475364D01*
X106284714Y-136498813D01*
X106282312Y-136523199D01*
X106284714Y-136547585D01*
X106291827Y-136571034D01*
X106303378Y-136592644D01*
X106351812Y-136665131D01*
X106351814Y-136665134D01*
X106380549Y-136734508D01*
X106380550Y-136734511D01*
X106395199Y-136808154D01*
X106395199Y-136883246D01*
X106386413Y-136927416D01*
X106380549Y-136956892D01*
X106351814Y-137026266D01*
X106310096Y-137088701D01*
X106257000Y-137141797D01*
X106194565Y-137183515D01*
X106125191Y-137212250D01*
X106125190Y-137212250D01*
X106125188Y-137212251D01*
X106051545Y-137226900D01*
X105976453Y-137226900D01*
X105902810Y-137212251D01*
X105902808Y-137212250D01*
X105902807Y-137212250D01*
X105833433Y-137183515D01*
X105770998Y-137141797D01*
X105717902Y-137088701D01*
X105676184Y-137026266D01*
X105647449Y-136956892D01*
X105641586Y-136927416D01*
X105632799Y-136883246D01*
X105632799Y-136808154D01*
X105647448Y-136734511D01*
X105647449Y-136734508D01*
X105676184Y-136665134D01*
X105676186Y-136665131D01*
X105724620Y-136592644D01*
X105736171Y-136571033D01*
X105743284Y-136547584D01*
X105745686Y-136523198D01*
X105743284Y-136498812D01*
X105736171Y-136475363D01*
X105724619Y-136453753D01*
X105709074Y-136434811D01*
X105690132Y-136419266D01*
X105668521Y-136407715D01*
X105645072Y-136400602D01*
X105620687Y-136398200D01*
X100627313Y-136398200D01*
X100602927Y-136400602D01*
X100579478Y-136407715D01*
X100557867Y-136419266D01*
X100538925Y-136434811D01*
X100523380Y-136453753D01*
X100511829Y-136475364D01*
X100504716Y-136498813D01*
X100502314Y-136523199D01*
X100504716Y-136547585D01*
X100511829Y-136571034D01*
X100523380Y-136592644D01*
X100571814Y-136665131D01*
X100571816Y-136665134D01*
X100600551Y-136734508D01*
X100600552Y-136734511D01*
X100615201Y-136808154D01*
X100615201Y-136883246D01*
X100606415Y-136927416D01*
X100600551Y-136956892D01*
X100571816Y-137026266D01*
X100530098Y-137088701D01*
X100477002Y-137141797D01*
X100414567Y-137183515D01*
X100345193Y-137212250D01*
X100345192Y-137212250D01*
X100345190Y-137212251D01*
X100271547Y-137226900D01*
X100196455Y-137226900D01*
X100122812Y-137212251D01*
X100122810Y-137212250D01*
X100122809Y-137212250D01*
X100053435Y-137183515D01*
X99991000Y-137141797D01*
X99937904Y-137088701D01*
X99896186Y-137026266D01*
X99867451Y-136956892D01*
X99861588Y-136927416D01*
X99852801Y-136883246D01*
X99852801Y-136808154D01*
X99867450Y-136734511D01*
X99867451Y-136734508D01*
X99896186Y-136665134D01*
X99896188Y-136665131D01*
X99944622Y-136592644D01*
X99956173Y-136571033D01*
X99963286Y-136547584D01*
X99965688Y-136523198D01*
X99963286Y-136498812D01*
X99956173Y-136475363D01*
X99944621Y-136453753D01*
X99929076Y-136434811D01*
X99910134Y-136419266D01*
X99888523Y-136407715D01*
X99865074Y-136400602D01*
X99840689Y-136398200D01*
X99479999Y-136398200D01*
X99455613Y-136400602D01*
X99432164Y-136407715D01*
X99410553Y-136419266D01*
X99391611Y-136434811D01*
X99376066Y-136453753D01*
X99364515Y-136475364D01*
X99357402Y-136498813D01*
X99355000Y-136523198D01*
X99355000Y-136831773D01*
X99345580Y-136927418D01*
X99320241Y-137010949D01*
X99308354Y-137050136D01*
X99247906Y-137163225D01*
X99166554Y-137262354D01*
X99067425Y-137343706D01*
X98954336Y-137404154D01*
X98922404Y-137413840D01*
X98831618Y-137441380D01*
X98704000Y-137453949D01*
X98576383Y-137441380D01*
X98485597Y-137413840D01*
X98453665Y-137404154D01*
X98340576Y-137343706D01*
X98241447Y-137262354D01*
X98160095Y-137163225D01*
X98099647Y-137050136D01*
X98087760Y-137010949D01*
X98062421Y-136927418D01*
X98053000Y-136831773D01*
X98053000Y-135859628D01*
X98062420Y-135763983D01*
X98099645Y-135641269D01*
X98099646Y-135641265D01*
X98160094Y-135528176D01*
X98241447Y-135429046D01*
X98340575Y-135347694D01*
X98453664Y-135287246D01*
X98485596Y-135277560D01*
X98576382Y-135250020D01*
X98704000Y-135237451D01*
X98831617Y-135250020D01*
X98922403Y-135277560D01*
X98954335Y-135287246D01*
X99067424Y-135347694D01*
X99166554Y-135429047D01*
X99247906Y-135528175D01*
X99308354Y-135641264D01*
X99309928Y-135646452D01*
X99323584Y-135691472D01*
X99332960Y-135714108D01*
X99346574Y-135734482D01*
X99363901Y-135751809D01*
X99384275Y-135765423D01*
X99406914Y-135774800D01*
X99430947Y-135779581D01*
X99455451Y-135779581D01*
X99479485Y-135774801D01*
X99502124Y-135765424D01*
X99522498Y-135751810D01*
X99539825Y-135734483D01*
X99553439Y-135714109D01*
X99562816Y-135691470D01*
X99567597Y-135667437D01*
X99568199Y-135655184D01*
X99568199Y-135153200D01*
X106679799Y-135153200D01*
X106679799Y-135655191D01*
X106679799Y-135655191D01*
G37*
G36*
X125564674Y-135594465D02*
G01*
X125602367Y-135605899D01*
X125637103Y-135624466D01*
X125667548Y-135649452D01*
X125692534Y-135679897D01*
X125711101Y-135714633D01*
X125722535Y-135752326D01*
X125727000Y-135797661D01*
X125727000Y-136634339D01*
X125722535Y-136679674D01*
X125711101Y-136717367D01*
X125692534Y-136752103D01*
X125667548Y-136782548D01*
X125637103Y-136807534D01*
X125602367Y-136826101D01*
X125564674Y-136837535D01*
X125519339Y-136842000D01*
X124432661Y-136842000D01*
X124387326Y-136837535D01*
X124349633Y-136826101D01*
X124314897Y-136807534D01*
X124284452Y-136782548D01*
X124259466Y-136752103D01*
X124240899Y-136717367D01*
X124229465Y-136679674D01*
X124225000Y-136634339D01*
X124225000Y-135797661D01*
X124229465Y-135752326D01*
X124240899Y-135714633D01*
X124259466Y-135679897D01*
X124284452Y-135649452D01*
X124314897Y-135624466D01*
X124349633Y-135605899D01*
X124387326Y-135594465D01*
X124432661Y-135590000D01*
X125519339Y-135590000D01*
X125564674Y-135594465D01*
X125564674Y-135594465D01*
G37*
G36*
X122064674Y-135594465D02*
G01*
X122102367Y-135605899D01*
X122137103Y-135624466D01*
X122167548Y-135649452D01*
X122192534Y-135679897D01*
X122211101Y-135714633D01*
X122222535Y-135752326D01*
X122227000Y-135797661D01*
X122227000Y-136634339D01*
X122222535Y-136679674D01*
X122211101Y-136717367D01*
X122192534Y-136752103D01*
X122167548Y-136782548D01*
X122137103Y-136807534D01*
X122102367Y-136826101D01*
X122064674Y-136837535D01*
X122019339Y-136842000D01*
X120932661Y-136842000D01*
X120887326Y-136837535D01*
X120849633Y-136826101D01*
X120814897Y-136807534D01*
X120784452Y-136782548D01*
X120759466Y-136752103D01*
X120740899Y-136717367D01*
X120729465Y-136679674D01*
X120725000Y-136634339D01*
X120725000Y-135797661D01*
X120729465Y-135752326D01*
X120740899Y-135714633D01*
X120759466Y-135679897D01*
X120784452Y-135649452D01*
X120814897Y-135624466D01*
X120849633Y-135605899D01*
X120887326Y-135594465D01*
X120932661Y-135590000D01*
X122019339Y-135590000D01*
X122064674Y-135594465D01*
X122064674Y-135594465D01*
G37*
G36*
X115064674Y-135591465D02*
G01*
X115102367Y-135602899D01*
X115137103Y-135621466D01*
X115167548Y-135646452D01*
X115192534Y-135676897D01*
X115211101Y-135711633D01*
X115222535Y-135749326D01*
X115227000Y-135794661D01*
X115227000Y-136631339D01*
X115222535Y-136676674D01*
X115211101Y-136714367D01*
X115192534Y-136749103D01*
X115167548Y-136779548D01*
X115137103Y-136804534D01*
X115102367Y-136823101D01*
X115064674Y-136834535D01*
X115019339Y-136839000D01*
X113932661Y-136839000D01*
X113887326Y-136834535D01*
X113849633Y-136823101D01*
X113814897Y-136804534D01*
X113784452Y-136779548D01*
X113759466Y-136749103D01*
X113740899Y-136714367D01*
X113729465Y-136676674D01*
X113725000Y-136631339D01*
X113725000Y-135794661D01*
X113729465Y-135749326D01*
X113740899Y-135711633D01*
X113759466Y-135676897D01*
X113784452Y-135646452D01*
X113814897Y-135621466D01*
X113849633Y-135602899D01*
X113887326Y-135591465D01*
X113932661Y-135587000D01*
X115019339Y-135587000D01*
X115064674Y-135591465D01*
X115064674Y-135591465D01*
G37*
G36*
X111586674Y-135591465D02*
G01*
X111624367Y-135602899D01*
X111659103Y-135621466D01*
X111689548Y-135646452D01*
X111714534Y-135676897D01*
X111733101Y-135711633D01*
X111744535Y-135749326D01*
X111749000Y-135794661D01*
X111749000Y-136631339D01*
X111744535Y-136676674D01*
X111733101Y-136714367D01*
X111714534Y-136749103D01*
X111689548Y-136779548D01*
X111659103Y-136804534D01*
X111624367Y-136823101D01*
X111586674Y-136834535D01*
X111541339Y-136839000D01*
X110454661Y-136839000D01*
X110409326Y-136834535D01*
X110371633Y-136823101D01*
X110336897Y-136804534D01*
X110306452Y-136779548D01*
X110281466Y-136749103D01*
X110262899Y-136714367D01*
X110251465Y-136676674D01*
X110247000Y-136631339D01*
X110247000Y-135794661D01*
X110251465Y-135749326D01*
X110262899Y-135711633D01*
X110281466Y-135676897D01*
X110306452Y-135646452D01*
X110336897Y-135621466D01*
X110371633Y-135602899D01*
X110409326Y-135591465D01*
X110454661Y-135587000D01*
X111541339Y-135587000D01*
X111586674Y-135591465D01*
X111586674Y-135591465D01*
G37*
G36*
X118564674Y-135591465D02*
G01*
X118602367Y-135602899D01*
X118637103Y-135621466D01*
X118667548Y-135646452D01*
X118692534Y-135676897D01*
X118711101Y-135711633D01*
X118722535Y-135749326D01*
X118727000Y-135794661D01*
X118727000Y-136631339D01*
X118722535Y-136676674D01*
X118711101Y-136714367D01*
X118692534Y-136749103D01*
X118667548Y-136779548D01*
X118637103Y-136804534D01*
X118602367Y-136823101D01*
X118564674Y-136834535D01*
X118519339Y-136839000D01*
X117432661Y-136839000D01*
X117387326Y-136834535D01*
X117349633Y-136823101D01*
X117314897Y-136804534D01*
X117284452Y-136779548D01*
X117259466Y-136749103D01*
X117240899Y-136714367D01*
X117229465Y-136676674D01*
X117225000Y-136631339D01*
X117225000Y-135794661D01*
X117229465Y-135749326D01*
X117240899Y-135711633D01*
X117259466Y-135676897D01*
X117284452Y-135646452D01*
X117314897Y-135621466D01*
X117349633Y-135602899D01*
X117387326Y-135591465D01*
X117432661Y-135587000D01*
X118519339Y-135587000D01*
X118564674Y-135591465D01*
X118564674Y-135591465D01*
G37*
G36*
X96268674Y-135591465D02*
G01*
X96306367Y-135602899D01*
X96341103Y-135621466D01*
X96371548Y-135646452D01*
X96396534Y-135676897D01*
X96415101Y-135711633D01*
X96426535Y-135749326D01*
X96431000Y-135794661D01*
X96431000Y-136631339D01*
X96426535Y-136676674D01*
X96415101Y-136714367D01*
X96396534Y-136749103D01*
X96371548Y-136779548D01*
X96341103Y-136804534D01*
X96306367Y-136823101D01*
X96268674Y-136834535D01*
X96223339Y-136839000D01*
X95136661Y-136839000D01*
X95091326Y-136834535D01*
X95053633Y-136823101D01*
X95018897Y-136804534D01*
X94988452Y-136779548D01*
X94963466Y-136749103D01*
X94944899Y-136714367D01*
X94933465Y-136676674D01*
X94929000Y-136631339D01*
X94929000Y-135794661D01*
X94933465Y-135749326D01*
X94944899Y-135711633D01*
X94963466Y-135676897D01*
X94988452Y-135646452D01*
X95018897Y-135621466D01*
X95053633Y-135602899D01*
X95091326Y-135591465D01*
X95136661Y-135587000D01*
X96223339Y-135587000D01*
X96268674Y-135591465D01*
X96268674Y-135591465D01*
G37*
G36*
X135088674Y-135303465D02*
G01*
X135126367Y-135314899D01*
X135161103Y-135333466D01*
X135191548Y-135358452D01*
X135216534Y-135388897D01*
X135235101Y-135423633D01*
X135246535Y-135461326D01*
X135251000Y-135506661D01*
X135251000Y-136343339D01*
X135246535Y-136388674D01*
X135235101Y-136426367D01*
X135216534Y-136461103D01*
X135191548Y-136491548D01*
X135161103Y-136516534D01*
X135126367Y-136535101D01*
X135088674Y-136546535D01*
X135043339Y-136551000D01*
X133956661Y-136551000D01*
X133911326Y-136546535D01*
X133873633Y-136535101D01*
X133838897Y-136516534D01*
X133808452Y-136491548D01*
X133783466Y-136461103D01*
X133764899Y-136426367D01*
X133753465Y-136388674D01*
X133749000Y-136343339D01*
X133749000Y-135506661D01*
X133753465Y-135461326D01*
X133764899Y-135423633D01*
X133783466Y-135388897D01*
X133808452Y-135358452D01*
X133838897Y-135333466D01*
X133873633Y-135314899D01*
X133911326Y-135303465D01*
X133956661Y-135299000D01*
X135043339Y-135299000D01*
X135088674Y-135303465D01*
X135088674Y-135303465D01*
G37*
G36*
X148341000Y-135789000D02*
G01*
X147339000Y-135789000D01*
X147339000Y-133687000D01*
X148341000Y-133687000D01*
X148341000Y-135789000D01*
X148341000Y-135789000D01*
G37*
G36*
X152151000Y-135789000D02*
G01*
X151149000Y-135789000D01*
X151149000Y-133687000D01*
X152151000Y-133687000D01*
X152151000Y-135789000D01*
X152151000Y-135789000D01*
G37*
G36*
X158501000Y-135789000D02*
G01*
X157499000Y-135789000D01*
X157499000Y-133687000D01*
X158501000Y-133687000D01*
X158501000Y-135789000D01*
X158501000Y-135789000D01*
G37*
G36*
X157231000Y-135789000D02*
G01*
X156229000Y-135789000D01*
X156229000Y-133687000D01*
X157231000Y-133687000D01*
X157231000Y-135789000D01*
X157231000Y-135789000D01*
G37*
G36*
X155961000Y-135789000D02*
G01*
X154959000Y-135789000D01*
X154959000Y-133687000D01*
X155961000Y-133687000D01*
X155961000Y-135789000D01*
X155961000Y-135789000D01*
G37*
G36*
X154691000Y-135789000D02*
G01*
X153689000Y-135789000D01*
X153689000Y-133687000D01*
X154691000Y-133687000D01*
X154691000Y-135789000D01*
X154691000Y-135789000D01*
G37*
G36*
X153421000Y-135789000D02*
G01*
X152419000Y-135789000D01*
X152419000Y-133687000D01*
X153421000Y-133687000D01*
X153421000Y-135789000D01*
X153421000Y-135789000D01*
G37*
G36*
X150881000Y-135789000D02*
G01*
X149879000Y-135789000D01*
X149879000Y-133687000D01*
X150881000Y-133687000D01*
X150881000Y-135789000D01*
X150881000Y-135789000D01*
G37*
G36*
X145801000Y-135789000D02*
G01*
X144799000Y-135789000D01*
X144799000Y-133687000D01*
X145801000Y-133687000D01*
X145801000Y-135789000D01*
X145801000Y-135789000D01*
G37*
G36*
X144531000Y-135789000D02*
G01*
X143529000Y-135789000D01*
X143529000Y-133687000D01*
X144531000Y-133687000D01*
X144531000Y-135789000D01*
X144531000Y-135789000D01*
G37*
G36*
X143261000Y-135789000D02*
G01*
X142259000Y-135789000D01*
X142259000Y-133687000D01*
X143261000Y-133687000D01*
X143261000Y-135789000D01*
X143261000Y-135789000D01*
G37*
G36*
X141991000Y-135789000D02*
G01*
X140989000Y-135789000D01*
X140989000Y-133687000D01*
X141991000Y-133687000D01*
X141991000Y-135789000D01*
X141991000Y-135789000D01*
G37*
G36*
X147071000Y-135789000D02*
G01*
X146069000Y-135789000D01*
X146069000Y-133687000D01*
X147071000Y-133687000D01*
X147071000Y-135789000D01*
X147071000Y-135789000D01*
G37*
G36*
X149611000Y-135789000D02*
G01*
X148609000Y-135789000D01*
X148609000Y-133687000D01*
X149611000Y-133687000D01*
X149611000Y-135789000D01*
X149611000Y-135789000D01*
G37*
G36*
X135088674Y-133253465D02*
G01*
X135126367Y-133264899D01*
X135161103Y-133283466D01*
X135191548Y-133308452D01*
X135216534Y-133338897D01*
X135235101Y-133373633D01*
X135246535Y-133411326D01*
X135251000Y-133456661D01*
X135251000Y-134293339D01*
X135246535Y-134338674D01*
X135235101Y-134376367D01*
X135216534Y-134411103D01*
X135191548Y-134441548D01*
X135161103Y-134466534D01*
X135126367Y-134485101D01*
X135088674Y-134496535D01*
X135043339Y-134501000D01*
X133956661Y-134501000D01*
X133911326Y-134496535D01*
X133873633Y-134485101D01*
X133838897Y-134466534D01*
X133808452Y-134441548D01*
X133783466Y-134411103D01*
X133764899Y-134376367D01*
X133753465Y-134338674D01*
X133749000Y-134293339D01*
X133749000Y-133456661D01*
X133753465Y-133411326D01*
X133764899Y-133373633D01*
X133783466Y-133338897D01*
X133808452Y-133308452D01*
X133838897Y-133283466D01*
X133873633Y-133264899D01*
X133911326Y-133253465D01*
X133956661Y-133249000D01*
X135043339Y-133249000D01*
X135088674Y-133253465D01*
X135088674Y-133253465D01*
G37*
G36*
X93986000Y-133701000D02*
G01*
X92334000Y-133701000D01*
X92334000Y-131399000D01*
X93986000Y-131399000D01*
X93986000Y-133701000D01*
X93986000Y-133701000D01*
G37*
G36*
X125288674Y-132203465D02*
G01*
X125326367Y-132214899D01*
X125361103Y-132233466D01*
X125391548Y-132258452D01*
X125416534Y-132288897D01*
X125435101Y-132323633D01*
X125446535Y-132361326D01*
X125451000Y-132406661D01*
X125451000Y-133243339D01*
X125446535Y-133288674D01*
X125435101Y-133326367D01*
X125416534Y-133361103D01*
X125391548Y-133391548D01*
X125361103Y-133416534D01*
X125326367Y-133435101D01*
X125288674Y-133446535D01*
X125243339Y-133451000D01*
X124156661Y-133451000D01*
X124111326Y-133446535D01*
X124073633Y-133435101D01*
X124038897Y-133416534D01*
X124008452Y-133391548D01*
X123983466Y-133361103D01*
X123964899Y-133326367D01*
X123953465Y-133288674D01*
X123949000Y-133243339D01*
X123949000Y-132406661D01*
X123953465Y-132361326D01*
X123964899Y-132323633D01*
X123983466Y-132288897D01*
X124008452Y-132258452D01*
X124038897Y-132233466D01*
X124073633Y-132214899D01*
X124111326Y-132203465D01*
X124156661Y-132199000D01*
X125243339Y-132199000D01*
X125288674Y-132203465D01*
X125288674Y-132203465D01*
G37*
G36*
X121701000Y-133201000D02*
G01*
X120699000Y-133201000D01*
X120699000Y-132299000D01*
X121701000Y-132299000D01*
X121701000Y-133201000D01*
X121701000Y-133201000D01*
G37*
G36*
X141541000Y-132454000D02*
G01*
X139439000Y-132454000D01*
X139439000Y-131452000D01*
X141541000Y-131452000D01*
X141541000Y-132454000D01*
X141541000Y-132454000D01*
G37*
G36*
X119701000Y-132251000D02*
G01*
X118699000Y-132251000D01*
X118699000Y-131349000D01*
X119701000Y-131349000D01*
X119701000Y-132251000D01*
X119701000Y-132251000D01*
G37*
G36*
X100321000Y-132241000D02*
G01*
X98519000Y-132241000D01*
X98519000Y-130439000D01*
X100321000Y-130439000D01*
X100321000Y-132241000D01*
X100321000Y-132241000D01*
G37*
G36*
X130411000Y-131801000D02*
G01*
X128809000Y-131801000D01*
X128809000Y-130199000D01*
X130411000Y-130199000D01*
X130411000Y-131801000D01*
X130411000Y-131801000D01*
G37*
G36*
X125288674Y-130153465D02*
G01*
X125326367Y-130164899D01*
X125361103Y-130183466D01*
X125391548Y-130208452D01*
X125416534Y-130238897D01*
X125435101Y-130273633D01*
X125446535Y-130311326D01*
X125451000Y-130356661D01*
X125451000Y-131193339D01*
X125446535Y-131238674D01*
X125435101Y-131276367D01*
X125416534Y-131311103D01*
X125391548Y-131341548D01*
X125361103Y-131366534D01*
X125326367Y-131385101D01*
X125288674Y-131396535D01*
X125243339Y-131401000D01*
X124156661Y-131401000D01*
X124111326Y-131396535D01*
X124073633Y-131385101D01*
X124038897Y-131366534D01*
X124008452Y-131341548D01*
X123983466Y-131311103D01*
X123964899Y-131276367D01*
X123953465Y-131238674D01*
X123949000Y-131193339D01*
X123949000Y-130356661D01*
X123953465Y-130311326D01*
X123964899Y-130273633D01*
X123983466Y-130238897D01*
X124008452Y-130208452D01*
X124038897Y-130183466D01*
X124073633Y-130164899D01*
X124111326Y-130153465D01*
X124156661Y-130149000D01*
X125243339Y-130149000D01*
X125288674Y-130153465D01*
X125288674Y-130153465D01*
G37*
G36*
X121701000Y-131301000D02*
G01*
X120699000Y-131301000D01*
X120699000Y-130399000D01*
X121701000Y-130399000D01*
X121701000Y-131301000D01*
X121701000Y-131301000D01*
G37*
G36*
X114709642Y-129684781D02*
G01*
X114855414Y-129745162D01*
X114855416Y-129745163D01*
X114986608Y-129832822D01*
X115098178Y-129944392D01*
X115185837Y-130075584D01*
X115185838Y-130075586D01*
X115246219Y-130221358D01*
X115277000Y-130376107D01*
X115277000Y-130533893D01*
X115246219Y-130688642D01*
X115185838Y-130834414D01*
X115185837Y-130834416D01*
X115098178Y-130965608D01*
X114986608Y-131077178D01*
X114855416Y-131164837D01*
X114855415Y-131164838D01*
X114855414Y-131164838D01*
X114709642Y-131225219D01*
X114554893Y-131256000D01*
X114397107Y-131256000D01*
X114242358Y-131225219D01*
X114096586Y-131164838D01*
X114096585Y-131164838D01*
X114096584Y-131164837D01*
X113965392Y-131077178D01*
X113853822Y-130965608D01*
X113766163Y-130834416D01*
X113766162Y-130834414D01*
X113705781Y-130688642D01*
X113675000Y-130533893D01*
X113675000Y-130376107D01*
X113705781Y-130221358D01*
X113766162Y-130075586D01*
X113766163Y-130075584D01*
X113853822Y-129944392D01*
X113965392Y-129832822D01*
X114096584Y-129745163D01*
X114096586Y-129745162D01*
X114242358Y-129684781D01*
X114397107Y-129654000D01*
X114554893Y-129654000D01*
X114709642Y-129684781D01*
X114709642Y-129684781D01*
G37*
G36*
X109749928Y-130486764D02*
G01*
X109771009Y-130493160D01*
X109790445Y-130503548D01*
X109807476Y-130517524D01*
X109821452Y-130534555D01*
X109831840Y-130553991D01*
X109838236Y-130575072D01*
X109841000Y-130603140D01*
X109841000Y-131066860D01*
X109838236Y-131094928D01*
X109831840Y-131116009D01*
X109821452Y-131135445D01*
X109807476Y-131152476D01*
X109790445Y-131166452D01*
X109771009Y-131176840D01*
X109749928Y-131183236D01*
X109721860Y-131186000D01*
X107908140Y-131186000D01*
X107880072Y-131183236D01*
X107858991Y-131176840D01*
X107839555Y-131166452D01*
X107822524Y-131152476D01*
X107808548Y-131135445D01*
X107798160Y-131116009D01*
X107791764Y-131094928D01*
X107789000Y-131066860D01*
X107789000Y-130603140D01*
X107791764Y-130575072D01*
X107798160Y-130553991D01*
X107808548Y-130534555D01*
X107822524Y-130517524D01*
X107839555Y-130503548D01*
X107858991Y-130493160D01*
X107880072Y-130486764D01*
X107908140Y-130484000D01*
X109721860Y-130484000D01*
X109749928Y-130486764D01*
X109749928Y-130486764D01*
G37*
G36*
X104799928Y-130486764D02*
G01*
X104821009Y-130493160D01*
X104840445Y-130503548D01*
X104857476Y-130517524D01*
X104871452Y-130534555D01*
X104881840Y-130553991D01*
X104888236Y-130575072D01*
X104891000Y-130603140D01*
X104891000Y-131066860D01*
X104888236Y-131094928D01*
X104881840Y-131116009D01*
X104871452Y-131135445D01*
X104857476Y-131152476D01*
X104840445Y-131166452D01*
X104821009Y-131176840D01*
X104799928Y-131183236D01*
X104771860Y-131186000D01*
X102958140Y-131186000D01*
X102930072Y-131183236D01*
X102908991Y-131176840D01*
X102889555Y-131166452D01*
X102872524Y-131152476D01*
X102858548Y-131135445D01*
X102848160Y-131116009D01*
X102841764Y-131094928D01*
X102839000Y-131066860D01*
X102839000Y-130603140D01*
X102841764Y-130575072D01*
X102848160Y-130553991D01*
X102858548Y-130534555D01*
X102872524Y-130517524D01*
X102889555Y-130503548D01*
X102908991Y-130493160D01*
X102930072Y-130486764D01*
X102958140Y-130484000D01*
X104771860Y-130484000D01*
X104799928Y-130486764D01*
X104799928Y-130486764D01*
G37*
G36*
X141541000Y-131184000D02*
G01*
X139439000Y-131184000D01*
X139439000Y-130182000D01*
X141541000Y-130182000D01*
X141541000Y-131184000D01*
X141541000Y-131184000D01*
G37*
G36*
X104799928Y-129216764D02*
G01*
X104821009Y-129223160D01*
X104840445Y-129233548D01*
X104857476Y-129247524D01*
X104871452Y-129264555D01*
X104881840Y-129283991D01*
X104888236Y-129305072D01*
X104891000Y-129333140D01*
X104891000Y-129796860D01*
X104888236Y-129824928D01*
X104881840Y-129846009D01*
X104871452Y-129865445D01*
X104857476Y-129882476D01*
X104840445Y-129896452D01*
X104821009Y-129906840D01*
X104799928Y-129913236D01*
X104771860Y-129916000D01*
X102958140Y-129916000D01*
X102930072Y-129913236D01*
X102908991Y-129906840D01*
X102889555Y-129896452D01*
X102872524Y-129882476D01*
X102858548Y-129865445D01*
X102848160Y-129846009D01*
X102841764Y-129824928D01*
X102839000Y-129796860D01*
X102839000Y-129333140D01*
X102841764Y-129305072D01*
X102848160Y-129283991D01*
X102858548Y-129264555D01*
X102872524Y-129247524D01*
X102889555Y-129233548D01*
X102908991Y-129223160D01*
X102930072Y-129216764D01*
X102958140Y-129214000D01*
X104771860Y-129214000D01*
X104799928Y-129216764D01*
X104799928Y-129216764D01*
G37*
G36*
X109749928Y-129216764D02*
G01*
X109771009Y-129223160D01*
X109790445Y-129233548D01*
X109807476Y-129247524D01*
X109821452Y-129264555D01*
X109831840Y-129283991D01*
X109838236Y-129305072D01*
X109841000Y-129333140D01*
X109841000Y-129796860D01*
X109838236Y-129824928D01*
X109831840Y-129846009D01*
X109821452Y-129865445D01*
X109807476Y-129882476D01*
X109790445Y-129896452D01*
X109771009Y-129906840D01*
X109749928Y-129913236D01*
X109721860Y-129916000D01*
X107908140Y-129916000D01*
X107880072Y-129913236D01*
X107858991Y-129906840D01*
X107839555Y-129896452D01*
X107822524Y-129882476D01*
X107808548Y-129865445D01*
X107798160Y-129846009D01*
X107791764Y-129824928D01*
X107789000Y-129796860D01*
X107789000Y-129333140D01*
X107791764Y-129305072D01*
X107798160Y-129283991D01*
X107808548Y-129264555D01*
X107822524Y-129247524D01*
X107839555Y-129233548D01*
X107858991Y-129223160D01*
X107880072Y-129216764D01*
X107908140Y-129214000D01*
X109721860Y-129214000D01*
X109749928Y-129216764D01*
X109749928Y-129216764D01*
G37*
G36*
X141541000Y-129914000D02*
G01*
X139439000Y-129914000D01*
X139439000Y-128912000D01*
X141541000Y-128912000D01*
X141541000Y-129914000D01*
X141541000Y-129914000D01*
G37*
G36*
X99530442Y-127905518D02*
G01*
X99596627Y-127912037D01*
X99766466Y-127963557D01*
X99922991Y-128047222D01*
X99942387Y-128063140D01*
X100060186Y-128159814D01*
X100143448Y-128261271D01*
X100172778Y-128297009D01*
X100256443Y-128453534D01*
X100307963Y-128623373D01*
X100325359Y-128800000D01*
X100307963Y-128976627D01*
X100256443Y-129146466D01*
X100172778Y-129302991D01*
X100171070Y-129305072D01*
X100060186Y-129440186D01*
X99958729Y-129523448D01*
X99922991Y-129552778D01*
X99766466Y-129636443D01*
X99596627Y-129687963D01*
X99530442Y-129694482D01*
X99464260Y-129701000D01*
X99375740Y-129701000D01*
X99309558Y-129694482D01*
X99243373Y-129687963D01*
X99073534Y-129636443D01*
X98917009Y-129552778D01*
X98881271Y-129523448D01*
X98779814Y-129440186D01*
X98668930Y-129305072D01*
X98667222Y-129302991D01*
X98583557Y-129146466D01*
X98532037Y-128976627D01*
X98514641Y-128800000D01*
X98532037Y-128623373D01*
X98583557Y-128453534D01*
X98667222Y-128297009D01*
X98696552Y-128261271D01*
X98779814Y-128159814D01*
X98897613Y-128063140D01*
X98917009Y-128047222D01*
X99073534Y-127963557D01*
X99243373Y-127912037D01*
X99309558Y-127905518D01*
X99375740Y-127899000D01*
X99464260Y-127899000D01*
X99530442Y-127905518D01*
X99530442Y-127905518D01*
G37*
G36*
X93986000Y-129601000D02*
G01*
X92334000Y-129601000D01*
X92334000Y-127299000D01*
X93986000Y-127299000D01*
X93986000Y-129601000D01*
X93986000Y-129601000D01*
G37*
G36*
X130411000Y-129451000D02*
G01*
X128809000Y-129451000D01*
X128809000Y-127849000D01*
X130411000Y-127849000D01*
X130411000Y-129451000D01*
X130411000Y-129451000D01*
G37*
G36*
X109749928Y-127946764D02*
G01*
X109771009Y-127953160D01*
X109790445Y-127963548D01*
X109807476Y-127977524D01*
X109821452Y-127994555D01*
X109831840Y-128013991D01*
X109838236Y-128035072D01*
X109841000Y-128063140D01*
X109841000Y-128526860D01*
X109838236Y-128554928D01*
X109831840Y-128576009D01*
X109821452Y-128595445D01*
X109807476Y-128612476D01*
X109790445Y-128626452D01*
X109771009Y-128636840D01*
X109749928Y-128643236D01*
X109721860Y-128646000D01*
X107908140Y-128646000D01*
X107880072Y-128643236D01*
X107858991Y-128636840D01*
X107839555Y-128626452D01*
X107822524Y-128612476D01*
X107808548Y-128595445D01*
X107798160Y-128576009D01*
X107791764Y-128554928D01*
X107789000Y-128526860D01*
X107789000Y-128063140D01*
X107791764Y-128035072D01*
X107798160Y-128013991D01*
X107808548Y-127994555D01*
X107822524Y-127977524D01*
X107839555Y-127963548D01*
X107858991Y-127953160D01*
X107880072Y-127946764D01*
X107908140Y-127944000D01*
X109721860Y-127944000D01*
X109749928Y-127946764D01*
X109749928Y-127946764D01*
G37*
G36*
X104799928Y-127946764D02*
G01*
X104821009Y-127953160D01*
X104840445Y-127963548D01*
X104857476Y-127977524D01*
X104871452Y-127994555D01*
X104881840Y-128013991D01*
X104888236Y-128035072D01*
X104891000Y-128063140D01*
X104891000Y-128526860D01*
X104888236Y-128554928D01*
X104881840Y-128576009D01*
X104871452Y-128595445D01*
X104857476Y-128612476D01*
X104840445Y-128626452D01*
X104821009Y-128636840D01*
X104799928Y-128643236D01*
X104771860Y-128646000D01*
X102958140Y-128646000D01*
X102930072Y-128643236D01*
X102908991Y-128636840D01*
X102889555Y-128626452D01*
X102872524Y-128612476D01*
X102858548Y-128595445D01*
X102848160Y-128576009D01*
X102841764Y-128554928D01*
X102839000Y-128526860D01*
X102839000Y-128063140D01*
X102841764Y-128035072D01*
X102848160Y-128013991D01*
X102858548Y-127994555D01*
X102872524Y-127977524D01*
X102889555Y-127963548D01*
X102908991Y-127953160D01*
X102930072Y-127946764D01*
X102958140Y-127944000D01*
X104771860Y-127944000D01*
X104799928Y-127946764D01*
X104799928Y-127946764D01*
G37*
G36*
X141541000Y-128644000D02*
G01*
X139439000Y-128644000D01*
X139439000Y-127642000D01*
X141541000Y-127642000D01*
X141541000Y-128644000D01*
X141541000Y-128644000D01*
G37*
G36*
X153051000Y-127789000D02*
G01*
X147949000Y-127789000D01*
X147949000Y-122687000D01*
X153051000Y-122687000D01*
X153051000Y-127789000D01*
X153051000Y-127789000D01*
G37*
G36*
X109749928Y-126676764D02*
G01*
X109771009Y-126683160D01*
X109790445Y-126693548D01*
X109807476Y-126707524D01*
X109821452Y-126724555D01*
X109831840Y-126743991D01*
X109838236Y-126765072D01*
X109841000Y-126793140D01*
X109841000Y-127256860D01*
X109838236Y-127284928D01*
X109831840Y-127306009D01*
X109821452Y-127325445D01*
X109807476Y-127342476D01*
X109790445Y-127356452D01*
X109771009Y-127366840D01*
X109749928Y-127373236D01*
X109721860Y-127376000D01*
X107908140Y-127376000D01*
X107880072Y-127373236D01*
X107858991Y-127366840D01*
X107839555Y-127356452D01*
X107822524Y-127342476D01*
X107808548Y-127325445D01*
X107798160Y-127306009D01*
X107791764Y-127284928D01*
X107789000Y-127256860D01*
X107789000Y-126793140D01*
X107791764Y-126765072D01*
X107798160Y-126743991D01*
X107808548Y-126724555D01*
X107822524Y-126707524D01*
X107839555Y-126693548D01*
X107858991Y-126683160D01*
X107880072Y-126676764D01*
X107908140Y-126674000D01*
X109721860Y-126674000D01*
X109749928Y-126676764D01*
X109749928Y-126676764D01*
G37*
G36*
X104799928Y-126676764D02*
G01*
X104821009Y-126683160D01*
X104840445Y-126693548D01*
X104857476Y-126707524D01*
X104871452Y-126724555D01*
X104881840Y-126743991D01*
X104888236Y-126765072D01*
X104891000Y-126793140D01*
X104891000Y-127256860D01*
X104888236Y-127284928D01*
X104881840Y-127306009D01*
X104871452Y-127325445D01*
X104857476Y-127342476D01*
X104840445Y-127356452D01*
X104821009Y-127366840D01*
X104799928Y-127373236D01*
X104771860Y-127376000D01*
X102958140Y-127376000D01*
X102930072Y-127373236D01*
X102908991Y-127366840D01*
X102889555Y-127356452D01*
X102872524Y-127342476D01*
X102858548Y-127325445D01*
X102848160Y-127306009D01*
X102841764Y-127284928D01*
X102839000Y-127256860D01*
X102839000Y-126793140D01*
X102841764Y-126765072D01*
X102848160Y-126743991D01*
X102858548Y-126724555D01*
X102872524Y-126707524D01*
X102889555Y-126693548D01*
X102908991Y-126683160D01*
X102930072Y-126676764D01*
X102958140Y-126674000D01*
X104771860Y-126674000D01*
X104799928Y-126676764D01*
X104799928Y-126676764D01*
G37*
G36*
X141541000Y-127374000D02*
G01*
X139439000Y-127374000D01*
X139439000Y-126372000D01*
X141541000Y-126372000D01*
X141541000Y-127374000D01*
X141541000Y-127374000D01*
G37*
G36*
X120788674Y-125903465D02*
G01*
X120826367Y-125914899D01*
X120861103Y-125933466D01*
X120891548Y-125958452D01*
X120916534Y-125988897D01*
X120935101Y-126023633D01*
X120946535Y-126061326D01*
X120951000Y-126106661D01*
X120951000Y-126943339D01*
X120946535Y-126988674D01*
X120935101Y-127026367D01*
X120916534Y-127061103D01*
X120891548Y-127091548D01*
X120861103Y-127116534D01*
X120826367Y-127135101D01*
X120788674Y-127146535D01*
X120743339Y-127151000D01*
X119656661Y-127151000D01*
X119611326Y-127146535D01*
X119573633Y-127135101D01*
X119538897Y-127116534D01*
X119508452Y-127091548D01*
X119483466Y-127061103D01*
X119464899Y-127026367D01*
X119453465Y-126988674D01*
X119449000Y-126943339D01*
X119449000Y-126106661D01*
X119453465Y-126061326D01*
X119464899Y-126023633D01*
X119483466Y-125988897D01*
X119508452Y-125958452D01*
X119538897Y-125933466D01*
X119573633Y-125914899D01*
X119611326Y-125903465D01*
X119656661Y-125899000D01*
X120743339Y-125899000D01*
X120788674Y-125903465D01*
X120788674Y-125903465D01*
G37*
G36*
X124201000Y-126901000D02*
G01*
X123199000Y-126901000D01*
X123199000Y-125999000D01*
X124201000Y-125999000D01*
X124201000Y-126901000D01*
X124201000Y-126901000D01*
G37*
G36*
X135088674Y-125153465D02*
G01*
X135126367Y-125164899D01*
X135161103Y-125183466D01*
X135191548Y-125208452D01*
X135216534Y-125238897D01*
X135235101Y-125273633D01*
X135246535Y-125311326D01*
X135251000Y-125356661D01*
X135251000Y-126193339D01*
X135246535Y-126238674D01*
X135235101Y-126276367D01*
X135216534Y-126311103D01*
X135191548Y-126341548D01*
X135161103Y-126366534D01*
X135126367Y-126385101D01*
X135088674Y-126396535D01*
X135043339Y-126401000D01*
X133956661Y-126401000D01*
X133911326Y-126396535D01*
X133873633Y-126385101D01*
X133838897Y-126366534D01*
X133808452Y-126341548D01*
X133783466Y-126311103D01*
X133764899Y-126276367D01*
X133753465Y-126238674D01*
X133749000Y-126193339D01*
X133749000Y-125356661D01*
X133753465Y-125311326D01*
X133764899Y-125273633D01*
X133783466Y-125238897D01*
X133808452Y-125208452D01*
X133838897Y-125183466D01*
X133873633Y-125164899D01*
X133911326Y-125153465D01*
X133956661Y-125149000D01*
X135043339Y-125149000D01*
X135088674Y-125153465D01*
X135088674Y-125153465D01*
G37*
G36*
X114709642Y-124784781D02*
G01*
X114833295Y-124836000D01*
X114855416Y-124845163D01*
X114986608Y-124932822D01*
X115098178Y-125044392D01*
X115185837Y-125175584D01*
X115185838Y-125175586D01*
X115246219Y-125321358D01*
X115277000Y-125476107D01*
X115277000Y-125633893D01*
X115246219Y-125788642D01*
X115193921Y-125914899D01*
X115185837Y-125934416D01*
X115098178Y-126065608D01*
X114986608Y-126177178D01*
X114855416Y-126264837D01*
X114855415Y-126264838D01*
X114855414Y-126264838D01*
X114709642Y-126325219D01*
X114554893Y-126356000D01*
X114397107Y-126356000D01*
X114242358Y-126325219D01*
X114096586Y-126264838D01*
X114096585Y-126264838D01*
X114096584Y-126264837D01*
X113965392Y-126177178D01*
X113853822Y-126065608D01*
X113766163Y-125934416D01*
X113758079Y-125914899D01*
X113705781Y-125788642D01*
X113675000Y-125633893D01*
X113675000Y-125476107D01*
X113705781Y-125321358D01*
X113766162Y-125175586D01*
X113766163Y-125175584D01*
X113853822Y-125044392D01*
X113965392Y-124932822D01*
X114096584Y-124845163D01*
X114118705Y-124836000D01*
X114242358Y-124784781D01*
X114397107Y-124754000D01*
X114554893Y-124754000D01*
X114709642Y-124784781D01*
X114709642Y-124784781D01*
G37*
G36*
X109749928Y-125406764D02*
G01*
X109771009Y-125413160D01*
X109790445Y-125423548D01*
X109807476Y-125437524D01*
X109821452Y-125454555D01*
X109831840Y-125473991D01*
X109838236Y-125495072D01*
X109841000Y-125523140D01*
X109841000Y-125986860D01*
X109838236Y-126014928D01*
X109831840Y-126036009D01*
X109821452Y-126055445D01*
X109807476Y-126072476D01*
X109790445Y-126086452D01*
X109771009Y-126096840D01*
X109749928Y-126103236D01*
X109721860Y-126106000D01*
X107908140Y-126106000D01*
X107880072Y-126103236D01*
X107858991Y-126096840D01*
X107839555Y-126086452D01*
X107822524Y-126072476D01*
X107808548Y-126055445D01*
X107798160Y-126036009D01*
X107791764Y-126014928D01*
X107789000Y-125986860D01*
X107789000Y-125523140D01*
X107791764Y-125495072D01*
X107798160Y-125473991D01*
X107808548Y-125454555D01*
X107822524Y-125437524D01*
X107839555Y-125423548D01*
X107858991Y-125413160D01*
X107880072Y-125406764D01*
X107908140Y-125404000D01*
X109721860Y-125404000D01*
X109749928Y-125406764D01*
X109749928Y-125406764D01*
G37*
G36*
X104799928Y-125406764D02*
G01*
X104821009Y-125413160D01*
X104840445Y-125423548D01*
X104857476Y-125437524D01*
X104871452Y-125454555D01*
X104881840Y-125473991D01*
X104888236Y-125495072D01*
X104891000Y-125523140D01*
X104891000Y-125986860D01*
X104888236Y-126014928D01*
X104881840Y-126036009D01*
X104871452Y-126055445D01*
X104857476Y-126072476D01*
X104840445Y-126086452D01*
X104821009Y-126096840D01*
X104799928Y-126103236D01*
X104771860Y-126106000D01*
X102958140Y-126106000D01*
X102930072Y-126103236D01*
X102908991Y-126096840D01*
X102889555Y-126086452D01*
X102872524Y-126072476D01*
X102858548Y-126055445D01*
X102848160Y-126036009D01*
X102841764Y-126014928D01*
X102839000Y-125986860D01*
X102839000Y-125523140D01*
X102841764Y-125495072D01*
X102848160Y-125473991D01*
X102858548Y-125454555D01*
X102872524Y-125437524D01*
X102889555Y-125423548D01*
X102908991Y-125413160D01*
X102930072Y-125406764D01*
X102958140Y-125404000D01*
X104771860Y-125404000D01*
X104799928Y-125406764D01*
X104799928Y-125406764D01*
G37*
G36*
X141541000Y-126104000D02*
G01*
X139439000Y-126104000D01*
X139439000Y-125102000D01*
X141541000Y-125102000D01*
X141541000Y-126104000D01*
X141541000Y-126104000D01*
G37*
G36*
X126201000Y-125951000D02*
G01*
X125199000Y-125951000D01*
X125199000Y-125049000D01*
X126201000Y-125049000D01*
X126201000Y-125951000D01*
X126201000Y-125951000D01*
G37*
G36*
X100008674Y-124373465D02*
G01*
X100046367Y-124384899D01*
X100081103Y-124403466D01*
X100111548Y-124428452D01*
X100136534Y-124458897D01*
X100155101Y-124493633D01*
X100166535Y-124531326D01*
X100171000Y-124576661D01*
X100171000Y-125413339D01*
X100166535Y-125458674D01*
X100155101Y-125496367D01*
X100136534Y-125531103D01*
X100111548Y-125561548D01*
X100081103Y-125586534D01*
X100046367Y-125605101D01*
X100008674Y-125616535D01*
X99963339Y-125621000D01*
X98876661Y-125621000D01*
X98831326Y-125616535D01*
X98793633Y-125605101D01*
X98758897Y-125586534D01*
X98728452Y-125561548D01*
X98703466Y-125531103D01*
X98684899Y-125496367D01*
X98673465Y-125458674D01*
X98669000Y-125413339D01*
X98669000Y-124576661D01*
X98673465Y-124531326D01*
X98684899Y-124493633D01*
X98703466Y-124458897D01*
X98728452Y-124428452D01*
X98758897Y-124403466D01*
X98793633Y-124384899D01*
X98831326Y-124373465D01*
X98876661Y-124369000D01*
X99963339Y-124369000D01*
X100008674Y-124373465D01*
X100008674Y-124373465D01*
G37*
G36*
X93019999Y-123599737D02*
G01*
X93029608Y-123602652D01*
X93038472Y-123607390D01*
X93046237Y-123613763D01*
X93056448Y-123626206D01*
X93063378Y-123636575D01*
X93080705Y-123653902D01*
X93101080Y-123667515D01*
X93123720Y-123676891D01*
X93147753Y-123681671D01*
X93172257Y-123681670D01*
X93196290Y-123676888D01*
X93218929Y-123667510D01*
X93239302Y-123653895D01*
X93256629Y-123636568D01*
X93263558Y-123626198D01*
X93273763Y-123613763D01*
X93281528Y-123607390D01*
X93290392Y-123602652D01*
X93300001Y-123599737D01*
X93316140Y-123598148D01*
X93803861Y-123598148D01*
X93822199Y-123599954D01*
X93834450Y-123600556D01*
X93852869Y-123600556D01*
X93875149Y-123602750D01*
X93959233Y-123619476D01*
X93980660Y-123625976D01*
X94059858Y-123658780D01*
X94065303Y-123661691D01*
X94065309Y-123661693D01*
X94074169Y-123666429D01*
X94074173Y-123666432D01*
X94079614Y-123669340D01*
X94150899Y-123716971D01*
X94168204Y-123731172D01*
X94228828Y-123791796D01*
X94243029Y-123809101D01*
X94290660Y-123880386D01*
X94293568Y-123885827D01*
X94293571Y-123885831D01*
X94298307Y-123894691D01*
X94298309Y-123894697D01*
X94301220Y-123900142D01*
X94334024Y-123979340D01*
X94340524Y-124000767D01*
X94357250Y-124084851D01*
X94359444Y-124107131D01*
X94359444Y-124125550D01*
X94360046Y-124137801D01*
X94361852Y-124156139D01*
X94361852Y-124643861D01*
X94360046Y-124662199D01*
X94359444Y-124674450D01*
X94359444Y-124692869D01*
X94357250Y-124715149D01*
X94340524Y-124799233D01*
X94334024Y-124820660D01*
X94301220Y-124899858D01*
X94298309Y-124905303D01*
X94298307Y-124905309D01*
X94293571Y-124914169D01*
X94293568Y-124914173D01*
X94290660Y-124919614D01*
X94243029Y-124990899D01*
X94228828Y-125008204D01*
X94168204Y-125068828D01*
X94150899Y-125083029D01*
X94079614Y-125130660D01*
X94074173Y-125133568D01*
X94074169Y-125133571D01*
X94065309Y-125138307D01*
X94065303Y-125138309D01*
X94059858Y-125141220D01*
X93980660Y-125174024D01*
X93959233Y-125180524D01*
X93875149Y-125197250D01*
X93852869Y-125199444D01*
X93834450Y-125199444D01*
X93822199Y-125200046D01*
X93803862Y-125201852D01*
X93316140Y-125201852D01*
X93300001Y-125200263D01*
X93290392Y-125197348D01*
X93281528Y-125192610D01*
X93273763Y-125186237D01*
X93263552Y-125173794D01*
X93256622Y-125163425D01*
X93239295Y-125146098D01*
X93218920Y-125132485D01*
X93196280Y-125123109D01*
X93172247Y-125118329D01*
X93147743Y-125118330D01*
X93123710Y-125123112D01*
X93101071Y-125132490D01*
X93080698Y-125146105D01*
X93063371Y-125163432D01*
X93056442Y-125173802D01*
X93046237Y-125186237D01*
X93038472Y-125192610D01*
X93029608Y-125197348D01*
X93019999Y-125200263D01*
X93003860Y-125201852D01*
X92516138Y-125201852D01*
X92497801Y-125200046D01*
X92485550Y-125199444D01*
X92467131Y-125199444D01*
X92444851Y-125197250D01*
X92360767Y-125180524D01*
X92339340Y-125174024D01*
X92260142Y-125141220D01*
X92254697Y-125138309D01*
X92254691Y-125138307D01*
X92245831Y-125133571D01*
X92245827Y-125133568D01*
X92240386Y-125130660D01*
X92169101Y-125083029D01*
X92151796Y-125068828D01*
X92091172Y-125008204D01*
X92076971Y-124990899D01*
X92029340Y-124919614D01*
X92026432Y-124914173D01*
X92026429Y-124914169D01*
X92021693Y-124905309D01*
X92021691Y-124905303D01*
X92018780Y-124899858D01*
X91985976Y-124820660D01*
X91979476Y-124799233D01*
X91962750Y-124715149D01*
X91960556Y-124692869D01*
X91960556Y-124674450D01*
X91959954Y-124662199D01*
X91958148Y-124643862D01*
X91958148Y-124156139D01*
X91959954Y-124137801D01*
X91960556Y-124125550D01*
X91960556Y-124107131D01*
X91962750Y-124084851D01*
X91979476Y-124000767D01*
X91985976Y-123979340D01*
X92018780Y-123900142D01*
X92021691Y-123894697D01*
X92021693Y-123894691D01*
X92026429Y-123885831D01*
X92026432Y-123885827D01*
X92029340Y-123880386D01*
X92076971Y-123809101D01*
X92091172Y-123791796D01*
X92151796Y-123731172D01*
X92169101Y-123716971D01*
X92240386Y-123669340D01*
X92245827Y-123666432D01*
X92245831Y-123666429D01*
X92254691Y-123661693D01*
X92254697Y-123661691D01*
X92260142Y-123658780D01*
X92339340Y-123625976D01*
X92360767Y-123619476D01*
X92444851Y-123602750D01*
X92467131Y-123600556D01*
X92485550Y-123600556D01*
X92497801Y-123599954D01*
X92516139Y-123598148D01*
X93003860Y-123598148D01*
X93019999Y-123599737D01*
X93019999Y-123599737D01*
G37*
G36*
X120788674Y-123853465D02*
G01*
X120826367Y-123864899D01*
X120861103Y-123883466D01*
X120891548Y-123908452D01*
X120916534Y-123938897D01*
X120935101Y-123973633D01*
X120946535Y-124011326D01*
X120951000Y-124056661D01*
X120951000Y-124893339D01*
X120946535Y-124938674D01*
X120935101Y-124976367D01*
X120916534Y-125011103D01*
X120891548Y-125041548D01*
X120861103Y-125066534D01*
X120826367Y-125085101D01*
X120788674Y-125096535D01*
X120743339Y-125101000D01*
X119656661Y-125101000D01*
X119611326Y-125096535D01*
X119573633Y-125085101D01*
X119538897Y-125066534D01*
X119508452Y-125041548D01*
X119483466Y-125011103D01*
X119464899Y-124976367D01*
X119453465Y-124938674D01*
X119449000Y-124893339D01*
X119449000Y-124056661D01*
X119453465Y-124011326D01*
X119464899Y-123973633D01*
X119483466Y-123938897D01*
X119508452Y-123908452D01*
X119538897Y-123883466D01*
X119573633Y-123864899D01*
X119611326Y-123853465D01*
X119656661Y-123849000D01*
X120743339Y-123849000D01*
X120788674Y-123853465D01*
X120788674Y-123853465D01*
G37*
G36*
X124201000Y-125001000D02*
G01*
X123199000Y-125001000D01*
X123199000Y-124099000D01*
X124201000Y-124099000D01*
X124201000Y-125001000D01*
X124201000Y-125001000D01*
G37*
G36*
X104799928Y-124136764D02*
G01*
X104821009Y-124143160D01*
X104840445Y-124153548D01*
X104857476Y-124167524D01*
X104871452Y-124184555D01*
X104881840Y-124203991D01*
X104888236Y-124225072D01*
X104891000Y-124253140D01*
X104891000Y-124716860D01*
X104888236Y-124744928D01*
X104881840Y-124766009D01*
X104871452Y-124785445D01*
X104857476Y-124802476D01*
X104840445Y-124816452D01*
X104821009Y-124826840D01*
X104799928Y-124833236D01*
X104771860Y-124836000D01*
X102958140Y-124836000D01*
X102930072Y-124833236D01*
X102908991Y-124826840D01*
X102889555Y-124816452D01*
X102872524Y-124802476D01*
X102858548Y-124785445D01*
X102848160Y-124766009D01*
X102841764Y-124744928D01*
X102839000Y-124716860D01*
X102839000Y-124253140D01*
X102841764Y-124225072D01*
X102848160Y-124203991D01*
X102858548Y-124184555D01*
X102872524Y-124167524D01*
X102889555Y-124153548D01*
X102908991Y-124143160D01*
X102930072Y-124136764D01*
X102958140Y-124134000D01*
X104771860Y-124134000D01*
X104799928Y-124136764D01*
X104799928Y-124136764D01*
G37*
G36*
X109749928Y-124136764D02*
G01*
X109771009Y-124143160D01*
X109790445Y-124153548D01*
X109807476Y-124167524D01*
X109821452Y-124184555D01*
X109831840Y-124203991D01*
X109838236Y-124225072D01*
X109841000Y-124253140D01*
X109841000Y-124716860D01*
X109838236Y-124744928D01*
X109831840Y-124766009D01*
X109821452Y-124785445D01*
X109807476Y-124802476D01*
X109790445Y-124816452D01*
X109771009Y-124826840D01*
X109749928Y-124833236D01*
X109721860Y-124836000D01*
X107908140Y-124836000D01*
X107880072Y-124833236D01*
X107858991Y-124826840D01*
X107839555Y-124816452D01*
X107822524Y-124802476D01*
X107808548Y-124785445D01*
X107798160Y-124766009D01*
X107791764Y-124744928D01*
X107789000Y-124716860D01*
X107789000Y-124253140D01*
X107791764Y-124225072D01*
X107798160Y-124203991D01*
X107808548Y-124184555D01*
X107822524Y-124167524D01*
X107839555Y-124153548D01*
X107858991Y-124143160D01*
X107880072Y-124136764D01*
X107908140Y-124134000D01*
X109721860Y-124134000D01*
X109749928Y-124136764D01*
X109749928Y-124136764D01*
G37*
G36*
X141541000Y-124834000D02*
G01*
X139439000Y-124834000D01*
X139439000Y-123832000D01*
X141541000Y-123832000D01*
X141541000Y-124834000D01*
X141541000Y-124834000D01*
G37*
G36*
X135088674Y-123103465D02*
G01*
X135126367Y-123114899D01*
X135161103Y-123133466D01*
X135191548Y-123158452D01*
X135216534Y-123188897D01*
X135235101Y-123223633D01*
X135246535Y-123261326D01*
X135251000Y-123306661D01*
X135251000Y-124143339D01*
X135246535Y-124188674D01*
X135235101Y-124226367D01*
X135216534Y-124261103D01*
X135191548Y-124291548D01*
X135161103Y-124316534D01*
X135126367Y-124335101D01*
X135088674Y-124346535D01*
X135043339Y-124351000D01*
X133956661Y-124351000D01*
X133911326Y-124346535D01*
X133873633Y-124335101D01*
X133838897Y-124316534D01*
X133808452Y-124291548D01*
X133783466Y-124261103D01*
X133764899Y-124226367D01*
X133753465Y-124188674D01*
X133749000Y-124143339D01*
X133749000Y-123306661D01*
X133753465Y-123261326D01*
X133764899Y-123223633D01*
X133783466Y-123188897D01*
X133808452Y-123158452D01*
X133838897Y-123133466D01*
X133873633Y-123114899D01*
X133911326Y-123103465D01*
X133956661Y-123099000D01*
X135043339Y-123099000D01*
X135088674Y-123103465D01*
X135088674Y-123103465D01*
G37*
G36*
X100008674Y-122323465D02*
G01*
X100046367Y-122334899D01*
X100081103Y-122353466D01*
X100111548Y-122378452D01*
X100136534Y-122408897D01*
X100155101Y-122443633D01*
X100166535Y-122481326D01*
X100171000Y-122526661D01*
X100171000Y-123363339D01*
X100166535Y-123408674D01*
X100155101Y-123446367D01*
X100136534Y-123481103D01*
X100111548Y-123511548D01*
X100081103Y-123536534D01*
X100046367Y-123555101D01*
X100008674Y-123566535D01*
X99963339Y-123571000D01*
X98876661Y-123571000D01*
X98831326Y-123566535D01*
X98793633Y-123555101D01*
X98758897Y-123536534D01*
X98728452Y-123511548D01*
X98703466Y-123481103D01*
X98684899Y-123446367D01*
X98673465Y-123408674D01*
X98669000Y-123363339D01*
X98669000Y-122526661D01*
X98673465Y-122481326D01*
X98684899Y-122443633D01*
X98703466Y-122408897D01*
X98728452Y-122378452D01*
X98758897Y-122353466D01*
X98793633Y-122334899D01*
X98831326Y-122323465D01*
X98876661Y-122319000D01*
X99963339Y-122319000D01*
X100008674Y-122323465D01*
X100008674Y-122323465D01*
G37*
G36*
X109749928Y-122866764D02*
G01*
X109771009Y-122873160D01*
X109790445Y-122883548D01*
X109807476Y-122897524D01*
X109821452Y-122914555D01*
X109831840Y-122933991D01*
X109838236Y-122955072D01*
X109841000Y-122983140D01*
X109841000Y-123446860D01*
X109838236Y-123474928D01*
X109831840Y-123496009D01*
X109821452Y-123515445D01*
X109807476Y-123532476D01*
X109790445Y-123546452D01*
X109771009Y-123556840D01*
X109749928Y-123563236D01*
X109721860Y-123566000D01*
X107908140Y-123566000D01*
X107880072Y-123563236D01*
X107858991Y-123556840D01*
X107839555Y-123546452D01*
X107822524Y-123532476D01*
X107808548Y-123515445D01*
X107798160Y-123496009D01*
X107791764Y-123474928D01*
X107789000Y-123446860D01*
X107789000Y-122983140D01*
X107791764Y-122955072D01*
X107798160Y-122933991D01*
X107808548Y-122914555D01*
X107822524Y-122897524D01*
X107839555Y-122883548D01*
X107858991Y-122873160D01*
X107880072Y-122866764D01*
X107908140Y-122864000D01*
X109721860Y-122864000D01*
X109749928Y-122866764D01*
X109749928Y-122866764D01*
G37*
G36*
X104799928Y-122866764D02*
G01*
X104821009Y-122873160D01*
X104840445Y-122883548D01*
X104857476Y-122897524D01*
X104871452Y-122914555D01*
X104881840Y-122933991D01*
X104888236Y-122955072D01*
X104891000Y-122983140D01*
X104891000Y-123446860D01*
X104888236Y-123474928D01*
X104881840Y-123496009D01*
X104871452Y-123515445D01*
X104857476Y-123532476D01*
X104840445Y-123546452D01*
X104821009Y-123556840D01*
X104799928Y-123563236D01*
X104771860Y-123566000D01*
X102958140Y-123566000D01*
X102930072Y-123563236D01*
X102908991Y-123556840D01*
X102889555Y-123546452D01*
X102872524Y-123532476D01*
X102858548Y-123515445D01*
X102848160Y-123496009D01*
X102841764Y-123474928D01*
X102839000Y-123446860D01*
X102839000Y-122983140D01*
X102841764Y-122955072D01*
X102848160Y-122933991D01*
X102858548Y-122914555D01*
X102872524Y-122897524D01*
X102889555Y-122883548D01*
X102908991Y-122873160D01*
X102930072Y-122866764D01*
X102958140Y-122864000D01*
X104771860Y-122864000D01*
X104799928Y-122866764D01*
X104799928Y-122866764D01*
G37*
G36*
X141541000Y-123564000D02*
G01*
X139439000Y-123564000D01*
X139439000Y-122562000D01*
X141541000Y-122562000D01*
X141541000Y-123564000D01*
X141541000Y-123564000D01*
G37*
G36*
X104799928Y-121596764D02*
G01*
X104821009Y-121603160D01*
X104840445Y-121613548D01*
X104857476Y-121627524D01*
X104871452Y-121644555D01*
X104881840Y-121663991D01*
X104888236Y-121685072D01*
X104891000Y-121713140D01*
X104891000Y-122176860D01*
X104888236Y-122204928D01*
X104881840Y-122226009D01*
X104871452Y-122245445D01*
X104857476Y-122262476D01*
X104840445Y-122276452D01*
X104821009Y-122286840D01*
X104799928Y-122293236D01*
X104771860Y-122296000D01*
X102958140Y-122296000D01*
X102930072Y-122293236D01*
X102908991Y-122286840D01*
X102889555Y-122276452D01*
X102872524Y-122262476D01*
X102858548Y-122245445D01*
X102848160Y-122226009D01*
X102841764Y-122204928D01*
X102839000Y-122176860D01*
X102839000Y-121713140D01*
X102841764Y-121685072D01*
X102848160Y-121663991D01*
X102858548Y-121644555D01*
X102872524Y-121627524D01*
X102889555Y-121613548D01*
X102908991Y-121603160D01*
X102930072Y-121596764D01*
X102958140Y-121594000D01*
X104771860Y-121594000D01*
X104799928Y-121596764D01*
X104799928Y-121596764D01*
G37*
G36*
X109749928Y-121596764D02*
G01*
X109771009Y-121603160D01*
X109790445Y-121613548D01*
X109807476Y-121627524D01*
X109821452Y-121644555D01*
X109831840Y-121663991D01*
X109838236Y-121685072D01*
X109841000Y-121713140D01*
X109841000Y-122176860D01*
X109838236Y-122204928D01*
X109831840Y-122226009D01*
X109821452Y-122245445D01*
X109807476Y-122262476D01*
X109790445Y-122276452D01*
X109771009Y-122286840D01*
X109749928Y-122293236D01*
X109721860Y-122296000D01*
X107908140Y-122296000D01*
X107880072Y-122293236D01*
X107858991Y-122286840D01*
X107839555Y-122276452D01*
X107822524Y-122262476D01*
X107808548Y-122245445D01*
X107798160Y-122226009D01*
X107791764Y-122204928D01*
X107789000Y-122176860D01*
X107789000Y-121713140D01*
X107791764Y-121685072D01*
X107798160Y-121663991D01*
X107808548Y-121644555D01*
X107822524Y-121627524D01*
X107839555Y-121613548D01*
X107858991Y-121603160D01*
X107880072Y-121596764D01*
X107908140Y-121594000D01*
X109721860Y-121594000D01*
X109749928Y-121596764D01*
X109749928Y-121596764D01*
G37*
G36*
X141541000Y-122294000D02*
G01*
X139439000Y-122294000D01*
X139439000Y-121292000D01*
X141541000Y-121292000D01*
X141541000Y-122294000D01*
X141541000Y-122294000D01*
G37*
G36*
X130411000Y-121651000D02*
G01*
X128809000Y-121651000D01*
X128809000Y-120049000D01*
X130411000Y-120049000D01*
X130411000Y-121651000D01*
X130411000Y-121651000D01*
G37*
G36*
X93250442Y-119445518D02*
G01*
X93316627Y-119452037D01*
X93486466Y-119503557D01*
X93642991Y-119587222D01*
X93678729Y-119616552D01*
X93780186Y-119699814D01*
X93863448Y-119801271D01*
X93892778Y-119837009D01*
X93976443Y-119993534D01*
X94027963Y-120163373D01*
X94045359Y-120340000D01*
X94027963Y-120516627D01*
X93976443Y-120686466D01*
X93892778Y-120842991D01*
X93863448Y-120878729D01*
X93780186Y-120980186D01*
X93678729Y-121063448D01*
X93642991Y-121092778D01*
X93486466Y-121176443D01*
X93316627Y-121227963D01*
X93250442Y-121234482D01*
X93184260Y-121241000D01*
X93095740Y-121241000D01*
X93029558Y-121234482D01*
X92963373Y-121227963D01*
X92793534Y-121176443D01*
X92637009Y-121092778D01*
X92601271Y-121063448D01*
X92499814Y-120980186D01*
X92416552Y-120878729D01*
X92387222Y-120842991D01*
X92303557Y-120686466D01*
X92252037Y-120516627D01*
X92234641Y-120340000D01*
X92252037Y-120163373D01*
X92303557Y-119993534D01*
X92387222Y-119837009D01*
X92416552Y-119801271D01*
X92499814Y-119699814D01*
X92601271Y-119616552D01*
X92637009Y-119587222D01*
X92793534Y-119503557D01*
X92963373Y-119452037D01*
X93029558Y-119445518D01*
X93095740Y-119439000D01*
X93184260Y-119439000D01*
X93250442Y-119445518D01*
X93250442Y-119445518D01*
G37*
G36*
X141541000Y-121024000D02*
G01*
X139439000Y-121024000D01*
X139439000Y-120022000D01*
X141541000Y-120022000D01*
X141541000Y-121024000D01*
X141541000Y-121024000D01*
G37*
G36*
X118428674Y-119093465D02*
G01*
X118466367Y-119104899D01*
X118501103Y-119123466D01*
X118531548Y-119148452D01*
X118556534Y-119178897D01*
X118575101Y-119213633D01*
X118586535Y-119251326D01*
X118591000Y-119296661D01*
X118591000Y-120133339D01*
X118586535Y-120178674D01*
X118575101Y-120216367D01*
X118556534Y-120251103D01*
X118531548Y-120281548D01*
X118501103Y-120306534D01*
X118466367Y-120325101D01*
X118428674Y-120336535D01*
X118383339Y-120341000D01*
X117296661Y-120341000D01*
X117251326Y-120336535D01*
X117213633Y-120325101D01*
X117178897Y-120306534D01*
X117148452Y-120281548D01*
X117123466Y-120251103D01*
X117104899Y-120216367D01*
X117093465Y-120178674D01*
X117089000Y-120133339D01*
X117089000Y-119296661D01*
X117093465Y-119251326D01*
X117104899Y-119213633D01*
X117123466Y-119178897D01*
X117148452Y-119148452D01*
X117178897Y-119123466D01*
X117213633Y-119104899D01*
X117251326Y-119093465D01*
X117296661Y-119089000D01*
X118383339Y-119089000D01*
X118428674Y-119093465D01*
X118428674Y-119093465D01*
G37*
G36*
X113868674Y-119093465D02*
G01*
X113906367Y-119104899D01*
X113941103Y-119123466D01*
X113971548Y-119148452D01*
X113996534Y-119178897D01*
X114015101Y-119213633D01*
X114026535Y-119251326D01*
X114031000Y-119296661D01*
X114031000Y-120133339D01*
X114026535Y-120178674D01*
X114015101Y-120216367D01*
X113996534Y-120251103D01*
X113971548Y-120281548D01*
X113941103Y-120306534D01*
X113906367Y-120325101D01*
X113868674Y-120336535D01*
X113823339Y-120341000D01*
X112736661Y-120341000D01*
X112691326Y-120336535D01*
X112653633Y-120325101D01*
X112618897Y-120306534D01*
X112588452Y-120281548D01*
X112563466Y-120251103D01*
X112544899Y-120216367D01*
X112533465Y-120178674D01*
X112529000Y-120133339D01*
X112529000Y-119296661D01*
X112533465Y-119251326D01*
X112544899Y-119213633D01*
X112563466Y-119178897D01*
X112588452Y-119148452D01*
X112618897Y-119123466D01*
X112653633Y-119104899D01*
X112691326Y-119093465D01*
X112736661Y-119089000D01*
X113823339Y-119089000D01*
X113868674Y-119093465D01*
X113868674Y-119093465D01*
G37*
G36*
X109308674Y-119093465D02*
G01*
X109346367Y-119104899D01*
X109381103Y-119123466D01*
X109411548Y-119148452D01*
X109436534Y-119178897D01*
X109455101Y-119213633D01*
X109466535Y-119251326D01*
X109471000Y-119296661D01*
X109471000Y-120133339D01*
X109466535Y-120178674D01*
X109455101Y-120216367D01*
X109436534Y-120251103D01*
X109411548Y-120281548D01*
X109381103Y-120306534D01*
X109346367Y-120325101D01*
X109308674Y-120336535D01*
X109263339Y-120341000D01*
X108176661Y-120341000D01*
X108131326Y-120336535D01*
X108093633Y-120325101D01*
X108058897Y-120306534D01*
X108028452Y-120281548D01*
X108003466Y-120251103D01*
X107984899Y-120216367D01*
X107973465Y-120178674D01*
X107969000Y-120133339D01*
X107969000Y-119296661D01*
X107973465Y-119251326D01*
X107984899Y-119213633D01*
X108003466Y-119178897D01*
X108028452Y-119148452D01*
X108058897Y-119123466D01*
X108093633Y-119104899D01*
X108131326Y-119093465D01*
X108176661Y-119089000D01*
X109263339Y-119089000D01*
X109308674Y-119093465D01*
X109308674Y-119093465D01*
G37*
G36*
X105058674Y-119088465D02*
G01*
X105096367Y-119099899D01*
X105131103Y-119118466D01*
X105161548Y-119143452D01*
X105186534Y-119173897D01*
X105205101Y-119208633D01*
X105216535Y-119246326D01*
X105221000Y-119291661D01*
X105221000Y-120128339D01*
X105216535Y-120173674D01*
X105205101Y-120211367D01*
X105186534Y-120246103D01*
X105161548Y-120276548D01*
X105131103Y-120301534D01*
X105096367Y-120320101D01*
X105058674Y-120331535D01*
X105013339Y-120336000D01*
X103926661Y-120336000D01*
X103881326Y-120331535D01*
X103843633Y-120320101D01*
X103808897Y-120301534D01*
X103778452Y-120276548D01*
X103753466Y-120246103D01*
X103734899Y-120211367D01*
X103723465Y-120173674D01*
X103719000Y-120128339D01*
X103719000Y-119291661D01*
X103723465Y-119246326D01*
X103734899Y-119208633D01*
X103753466Y-119173897D01*
X103778452Y-119143452D01*
X103808897Y-119118466D01*
X103843633Y-119099899D01*
X103881326Y-119088465D01*
X103926661Y-119084000D01*
X105013339Y-119084000D01*
X105058674Y-119088465D01*
X105058674Y-119088465D01*
G37*
G36*
X100008674Y-119088465D02*
G01*
X100046367Y-119099899D01*
X100081103Y-119118466D01*
X100111548Y-119143452D01*
X100136534Y-119173897D01*
X100155101Y-119208633D01*
X100166535Y-119246326D01*
X100171000Y-119291661D01*
X100171000Y-120128339D01*
X100166535Y-120173674D01*
X100155101Y-120211367D01*
X100136534Y-120246103D01*
X100111548Y-120276548D01*
X100081103Y-120301534D01*
X100046367Y-120320101D01*
X100008674Y-120331535D01*
X99963339Y-120336000D01*
X98876661Y-120336000D01*
X98831326Y-120331535D01*
X98793633Y-120320101D01*
X98758897Y-120301534D01*
X98728452Y-120276548D01*
X98703466Y-120246103D01*
X98684899Y-120211367D01*
X98673465Y-120173674D01*
X98669000Y-120128339D01*
X98669000Y-119291661D01*
X98673465Y-119246326D01*
X98684899Y-119208633D01*
X98703466Y-119173897D01*
X98728452Y-119143452D01*
X98758897Y-119118466D01*
X98793633Y-119099899D01*
X98831326Y-119088465D01*
X98876661Y-119084000D01*
X99963339Y-119084000D01*
X100008674Y-119088465D01*
X100008674Y-119088465D01*
G37*
G36*
X122988674Y-119083465D02*
G01*
X123026367Y-119094899D01*
X123061103Y-119113466D01*
X123091548Y-119138452D01*
X123116534Y-119168897D01*
X123135101Y-119203633D01*
X123146535Y-119241326D01*
X123151000Y-119286661D01*
X123151000Y-120123339D01*
X123146535Y-120168674D01*
X123135101Y-120206367D01*
X123116534Y-120241103D01*
X123091548Y-120271548D01*
X123061103Y-120296534D01*
X123026367Y-120315101D01*
X122988674Y-120326535D01*
X122943339Y-120331000D01*
X121856661Y-120331000D01*
X121811326Y-120326535D01*
X121773633Y-120315101D01*
X121738897Y-120296534D01*
X121708452Y-120271548D01*
X121683466Y-120241103D01*
X121664899Y-120206367D01*
X121653465Y-120168674D01*
X121649000Y-120123339D01*
X121649000Y-119286661D01*
X121653465Y-119241326D01*
X121664899Y-119203633D01*
X121683466Y-119168897D01*
X121708452Y-119138452D01*
X121738897Y-119113466D01*
X121773633Y-119094899D01*
X121811326Y-119083465D01*
X121856661Y-119079000D01*
X122943339Y-119079000D01*
X122988674Y-119083465D01*
X122988674Y-119083465D01*
G37*
G36*
X153421000Y-118789000D02*
G01*
X152419000Y-118789000D01*
X152419000Y-116687000D01*
X153421000Y-116687000D01*
X153421000Y-118789000D01*
X153421000Y-118789000D01*
G37*
G36*
X157231000Y-118789000D02*
G01*
X156229000Y-118789000D01*
X156229000Y-116687000D01*
X157231000Y-116687000D01*
X157231000Y-118789000D01*
X157231000Y-118789000D01*
G37*
G36*
X158501000Y-118789000D02*
G01*
X157499000Y-118789000D01*
X157499000Y-116687000D01*
X158501000Y-116687000D01*
X158501000Y-118789000D01*
X158501000Y-118789000D01*
G37*
G36*
X145801000Y-118789000D02*
G01*
X144799000Y-118789000D01*
X144799000Y-116687000D01*
X145801000Y-116687000D01*
X145801000Y-118789000D01*
X145801000Y-118789000D01*
G37*
G36*
X148341000Y-118789000D02*
G01*
X147339000Y-118789000D01*
X147339000Y-116687000D01*
X148341000Y-116687000D01*
X148341000Y-118789000D01*
X148341000Y-118789000D01*
G37*
G36*
X149611000Y-118789000D02*
G01*
X148609000Y-118789000D01*
X148609000Y-116687000D01*
X149611000Y-116687000D01*
X149611000Y-118789000D01*
X149611000Y-118789000D01*
G37*
G36*
X150881000Y-118789000D02*
G01*
X149879000Y-118789000D01*
X149879000Y-116687000D01*
X150881000Y-116687000D01*
X150881000Y-118789000D01*
X150881000Y-118789000D01*
G37*
G36*
X152151000Y-118789000D02*
G01*
X151149000Y-118789000D01*
X151149000Y-116687000D01*
X152151000Y-116687000D01*
X152151000Y-118789000D01*
X152151000Y-118789000D01*
G37*
G36*
X154691000Y-118789000D02*
G01*
X153689000Y-118789000D01*
X153689000Y-116687000D01*
X154691000Y-116687000D01*
X154691000Y-118789000D01*
X154691000Y-118789000D01*
G37*
G36*
X155961000Y-118789000D02*
G01*
X154959000Y-118789000D01*
X154959000Y-116687000D01*
X155961000Y-116687000D01*
X155961000Y-118789000D01*
X155961000Y-118789000D01*
G37*
G36*
X144531000Y-118789000D02*
G01*
X143529000Y-118789000D01*
X143529000Y-116687000D01*
X144531000Y-116687000D01*
X144531000Y-118789000D01*
X144531000Y-118789000D01*
G37*
G36*
X147071000Y-118789000D02*
G01*
X146069000Y-118789000D01*
X146069000Y-116687000D01*
X147071000Y-116687000D01*
X147071000Y-118789000D01*
X147071000Y-118789000D01*
G37*
G36*
X141991000Y-118789000D02*
G01*
X140989000Y-118789000D01*
X140989000Y-116687000D01*
X141991000Y-116687000D01*
X141991000Y-118789000D01*
X141991000Y-118789000D01*
G37*
G36*
X143261000Y-118789000D02*
G01*
X142259000Y-118789000D01*
X142259000Y-116687000D01*
X143261000Y-116687000D01*
X143261000Y-118789000D01*
X143261000Y-118789000D01*
G37*
G36*
X94041000Y-118701000D02*
G01*
X92239000Y-118701000D01*
X92239000Y-116899000D01*
X94041000Y-116899000D01*
X94041000Y-118701000D01*
X94041000Y-118701000D01*
G37*
G36*
X113868674Y-117043465D02*
G01*
X113906367Y-117054899D01*
X113941103Y-117073466D01*
X113971548Y-117098452D01*
X113996534Y-117128897D01*
X114015101Y-117163633D01*
X114026535Y-117201326D01*
X114031000Y-117246661D01*
X114031000Y-118083339D01*
X114026535Y-118128674D01*
X114015101Y-118166367D01*
X113996534Y-118201103D01*
X113971548Y-118231548D01*
X113941103Y-118256534D01*
X113906367Y-118275101D01*
X113868674Y-118286535D01*
X113823339Y-118291000D01*
X112736661Y-118291000D01*
X112691326Y-118286535D01*
X112653633Y-118275101D01*
X112618897Y-118256534D01*
X112588452Y-118231548D01*
X112563466Y-118201103D01*
X112544899Y-118166367D01*
X112533465Y-118128674D01*
X112529000Y-118083339D01*
X112529000Y-117246661D01*
X112533465Y-117201326D01*
X112544899Y-117163633D01*
X112563466Y-117128897D01*
X112588452Y-117098452D01*
X112618897Y-117073466D01*
X112653633Y-117054899D01*
X112691326Y-117043465D01*
X112736661Y-117039000D01*
X113823339Y-117039000D01*
X113868674Y-117043465D01*
X113868674Y-117043465D01*
G37*
G36*
X118428674Y-117043465D02*
G01*
X118466367Y-117054899D01*
X118501103Y-117073466D01*
X118531548Y-117098452D01*
X118556534Y-117128897D01*
X118575101Y-117163633D01*
X118586535Y-117201326D01*
X118591000Y-117246661D01*
X118591000Y-118083339D01*
X118586535Y-118128674D01*
X118575101Y-118166367D01*
X118556534Y-118201103D01*
X118531548Y-118231548D01*
X118501103Y-118256534D01*
X118466367Y-118275101D01*
X118428674Y-118286535D01*
X118383339Y-118291000D01*
X117296661Y-118291000D01*
X117251326Y-118286535D01*
X117213633Y-118275101D01*
X117178897Y-118256534D01*
X117148452Y-118231548D01*
X117123466Y-118201103D01*
X117104899Y-118166367D01*
X117093465Y-118128674D01*
X117089000Y-118083339D01*
X117089000Y-117246661D01*
X117093465Y-117201326D01*
X117104899Y-117163633D01*
X117123466Y-117128897D01*
X117148452Y-117098452D01*
X117178897Y-117073466D01*
X117213633Y-117054899D01*
X117251326Y-117043465D01*
X117296661Y-117039000D01*
X118383339Y-117039000D01*
X118428674Y-117043465D01*
X118428674Y-117043465D01*
G37*
G36*
X109308674Y-117043465D02*
G01*
X109346367Y-117054899D01*
X109381103Y-117073466D01*
X109411548Y-117098452D01*
X109436534Y-117128897D01*
X109455101Y-117163633D01*
X109466535Y-117201326D01*
X109471000Y-117246661D01*
X109471000Y-118083339D01*
X109466535Y-118128674D01*
X109455101Y-118166367D01*
X109436534Y-118201103D01*
X109411548Y-118231548D01*
X109381103Y-118256534D01*
X109346367Y-118275101D01*
X109308674Y-118286535D01*
X109263339Y-118291000D01*
X108176661Y-118291000D01*
X108131326Y-118286535D01*
X108093633Y-118275101D01*
X108058897Y-118256534D01*
X108028452Y-118231548D01*
X108003466Y-118201103D01*
X107984899Y-118166367D01*
X107973465Y-118128674D01*
X107969000Y-118083339D01*
X107969000Y-117246661D01*
X107973465Y-117201326D01*
X107984899Y-117163633D01*
X108003466Y-117128897D01*
X108028452Y-117098452D01*
X108058897Y-117073466D01*
X108093633Y-117054899D01*
X108131326Y-117043465D01*
X108176661Y-117039000D01*
X109263339Y-117039000D01*
X109308674Y-117043465D01*
X109308674Y-117043465D01*
G37*
G36*
X100008674Y-117038465D02*
G01*
X100046367Y-117049899D01*
X100081103Y-117068466D01*
X100111548Y-117093452D01*
X100136534Y-117123897D01*
X100155101Y-117158633D01*
X100166535Y-117196326D01*
X100171000Y-117241661D01*
X100171000Y-118078339D01*
X100166535Y-118123674D01*
X100155101Y-118161367D01*
X100136534Y-118196103D01*
X100111548Y-118226548D01*
X100081103Y-118251534D01*
X100046367Y-118270101D01*
X100008674Y-118281535D01*
X99963339Y-118286000D01*
X98876661Y-118286000D01*
X98831326Y-118281535D01*
X98793633Y-118270101D01*
X98758897Y-118251534D01*
X98728452Y-118226548D01*
X98703466Y-118196103D01*
X98684899Y-118161367D01*
X98673465Y-118123674D01*
X98669000Y-118078339D01*
X98669000Y-117241661D01*
X98673465Y-117196326D01*
X98684899Y-117158633D01*
X98703466Y-117123897D01*
X98728452Y-117093452D01*
X98758897Y-117068466D01*
X98793633Y-117049899D01*
X98831326Y-117038465D01*
X98876661Y-117034000D01*
X99963339Y-117034000D01*
X100008674Y-117038465D01*
X100008674Y-117038465D01*
G37*
G36*
X105058674Y-117038465D02*
G01*
X105096367Y-117049899D01*
X105131103Y-117068466D01*
X105161548Y-117093452D01*
X105186534Y-117123897D01*
X105205101Y-117158633D01*
X105216535Y-117196326D01*
X105221000Y-117241661D01*
X105221000Y-118078339D01*
X105216535Y-118123674D01*
X105205101Y-118161367D01*
X105186534Y-118196103D01*
X105161548Y-118226548D01*
X105131103Y-118251534D01*
X105096367Y-118270101D01*
X105058674Y-118281535D01*
X105013339Y-118286000D01*
X103926661Y-118286000D01*
X103881326Y-118281535D01*
X103843633Y-118270101D01*
X103808897Y-118251534D01*
X103778452Y-118226548D01*
X103753466Y-118196103D01*
X103734899Y-118161367D01*
X103723465Y-118123674D01*
X103719000Y-118078339D01*
X103719000Y-117241661D01*
X103723465Y-117196326D01*
X103734899Y-117158633D01*
X103753466Y-117123897D01*
X103778452Y-117093452D01*
X103808897Y-117068466D01*
X103843633Y-117049899D01*
X103881326Y-117038465D01*
X103926661Y-117034000D01*
X105013339Y-117034000D01*
X105058674Y-117038465D01*
X105058674Y-117038465D01*
G37*
G36*
X122988674Y-117033465D02*
G01*
X123026367Y-117044899D01*
X123061103Y-117063466D01*
X123091548Y-117088452D01*
X123116534Y-117118897D01*
X123135101Y-117153633D01*
X123146535Y-117191326D01*
X123151000Y-117236661D01*
X123151000Y-118073339D01*
X123146535Y-118118674D01*
X123135101Y-118156367D01*
X123116534Y-118191103D01*
X123091548Y-118221548D01*
X123061103Y-118246534D01*
X123026367Y-118265101D01*
X122988674Y-118276535D01*
X122943339Y-118281000D01*
X121856661Y-118281000D01*
X121811326Y-118276535D01*
X121773633Y-118265101D01*
X121738897Y-118246534D01*
X121708452Y-118221548D01*
X121683466Y-118191103D01*
X121664899Y-118156367D01*
X121653465Y-118118674D01*
X121649000Y-118073339D01*
X121649000Y-117236661D01*
X121653465Y-117191326D01*
X121664899Y-117153633D01*
X121683466Y-117118897D01*
X121708452Y-117088452D01*
X121738897Y-117063466D01*
X121773633Y-117044899D01*
X121811326Y-117033465D01*
X121856661Y-117029000D01*
X122943339Y-117029000D01*
X122988674Y-117033465D01*
X122988674Y-117033465D01*
G37*
G36*
X128620443Y-114775519D02*
G01*
X128686627Y-114782037D01*
X128856466Y-114833557D01*
X129012991Y-114917222D01*
X129024134Y-114926367D01*
X129150186Y-115029814D01*
X129233448Y-115131271D01*
X129262778Y-115167009D01*
X129346443Y-115323534D01*
X129397963Y-115493373D01*
X129415359Y-115670000D01*
X129397963Y-115846627D01*
X129346443Y-116016466D01*
X129262778Y-116172991D01*
X129233448Y-116208729D01*
X129150186Y-116310186D01*
X129048729Y-116393448D01*
X129012991Y-116422778D01*
X128856466Y-116506443D01*
X128686627Y-116557963D01*
X128620443Y-116564481D01*
X128554260Y-116571000D01*
X128465740Y-116571000D01*
X128399557Y-116564481D01*
X128333373Y-116557963D01*
X128163534Y-116506443D01*
X128007009Y-116422778D01*
X127971271Y-116393448D01*
X127869814Y-116310186D01*
X127786552Y-116208729D01*
X127757222Y-116172991D01*
X127673557Y-116016466D01*
X127622037Y-115846627D01*
X127604641Y-115670000D01*
X127622037Y-115493373D01*
X127673557Y-115323534D01*
X127757222Y-115167009D01*
X127786552Y-115131271D01*
X127869814Y-115029814D01*
X127995866Y-114926367D01*
X128007009Y-114917222D01*
X128163534Y-114833557D01*
X128333373Y-114782037D01*
X128399557Y-114775519D01*
X128465740Y-114769000D01*
X128554260Y-114769000D01*
X128620443Y-114775519D01*
X128620443Y-114775519D01*
G37*
G36*
X131951000Y-116571000D02*
G01*
X130149000Y-116571000D01*
X130149000Y-114769000D01*
X131951000Y-114769000D01*
X131951000Y-116571000D01*
X131951000Y-116571000D01*
G37*
G36*
X109749928Y-114731764D02*
G01*
X109771009Y-114738160D01*
X109790445Y-114748548D01*
X109807476Y-114762524D01*
X109821452Y-114779555D01*
X109831840Y-114798991D01*
X109838236Y-114820072D01*
X109841000Y-114848140D01*
X109841000Y-115311860D01*
X109838236Y-115339928D01*
X109831840Y-115361009D01*
X109821452Y-115380445D01*
X109807476Y-115397476D01*
X109790445Y-115411452D01*
X109771009Y-115421840D01*
X109749928Y-115428236D01*
X109721860Y-115431000D01*
X107908140Y-115431000D01*
X107880072Y-115428236D01*
X107858991Y-115421840D01*
X107839555Y-115411452D01*
X107822524Y-115397476D01*
X107808548Y-115380445D01*
X107798160Y-115361009D01*
X107791764Y-115339928D01*
X107789000Y-115311860D01*
X107789000Y-114848140D01*
X107791764Y-114820072D01*
X107798160Y-114798991D01*
X107808548Y-114779555D01*
X107822524Y-114762524D01*
X107839555Y-114748548D01*
X107858991Y-114738160D01*
X107880072Y-114731764D01*
X107908140Y-114729000D01*
X109721860Y-114729000D01*
X109749928Y-114731764D01*
X109749928Y-114731764D01*
G37*
G36*
X104799928Y-114731764D02*
G01*
X104821009Y-114738160D01*
X104840445Y-114748548D01*
X104857476Y-114762524D01*
X104871452Y-114779555D01*
X104881840Y-114798991D01*
X104888236Y-114820072D01*
X104891000Y-114848140D01*
X104891000Y-115311860D01*
X104888236Y-115339928D01*
X104881840Y-115361009D01*
X104871452Y-115380445D01*
X104857476Y-115397476D01*
X104840445Y-115411452D01*
X104821009Y-115421840D01*
X104799928Y-115428236D01*
X104771860Y-115431000D01*
X102958140Y-115431000D01*
X102930072Y-115428236D01*
X102908991Y-115421840D01*
X102889555Y-115411452D01*
X102872524Y-115397476D01*
X102858548Y-115380445D01*
X102848160Y-115361009D01*
X102841764Y-115339928D01*
X102839000Y-115311860D01*
X102839000Y-114848140D01*
X102841764Y-114820072D01*
X102848160Y-114798991D01*
X102858548Y-114779555D01*
X102872524Y-114762524D01*
X102889555Y-114748548D01*
X102908991Y-114738160D01*
X102930072Y-114731764D01*
X102958140Y-114729000D01*
X104771860Y-114729000D01*
X104799928Y-114731764D01*
X104799928Y-114731764D01*
G37*
G36*
X118615562Y-113728181D02*
G01*
X118650481Y-113738774D01*
X118682663Y-113755976D01*
X118710873Y-113779127D01*
X118734024Y-113807337D01*
X118751226Y-113839519D01*
X118761819Y-113874438D01*
X118766000Y-113916895D01*
X118766000Y-115058105D01*
X118761819Y-115100562D01*
X118751226Y-115135481D01*
X118734024Y-115167663D01*
X118710873Y-115195873D01*
X118682663Y-115219024D01*
X118650481Y-115236226D01*
X118615562Y-115246819D01*
X118573105Y-115251000D01*
X117106895Y-115251000D01*
X117064438Y-115246819D01*
X117029519Y-115236226D01*
X116997337Y-115219024D01*
X116969127Y-115195873D01*
X116945976Y-115167663D01*
X116928774Y-115135481D01*
X116918181Y-115100562D01*
X116914000Y-115058105D01*
X116914000Y-113916895D01*
X116918181Y-113874438D01*
X116928774Y-113839519D01*
X116945976Y-113807337D01*
X116969127Y-113779127D01*
X116997337Y-113755976D01*
X117029519Y-113738774D01*
X117064438Y-113728181D01*
X117106895Y-113724000D01*
X118573105Y-113724000D01*
X118615562Y-113728181D01*
X118615562Y-113728181D01*
G37*
G36*
X114055562Y-113728181D02*
G01*
X114090481Y-113738774D01*
X114122663Y-113755976D01*
X114150873Y-113779127D01*
X114174024Y-113807337D01*
X114191226Y-113839519D01*
X114201819Y-113874438D01*
X114206000Y-113916895D01*
X114206000Y-115058105D01*
X114201819Y-115100562D01*
X114191226Y-115135481D01*
X114174024Y-115167663D01*
X114150873Y-115195873D01*
X114122663Y-115219024D01*
X114090481Y-115236226D01*
X114055562Y-115246819D01*
X114013105Y-115251000D01*
X112546895Y-115251000D01*
X112504438Y-115246819D01*
X112469519Y-115236226D01*
X112437337Y-115219024D01*
X112409127Y-115195873D01*
X112385976Y-115167663D01*
X112368774Y-115135481D01*
X112358181Y-115100562D01*
X112354000Y-115058105D01*
X112354000Y-113916895D01*
X112358181Y-113874438D01*
X112368774Y-113839519D01*
X112385976Y-113807337D01*
X112409127Y-113779127D01*
X112437337Y-113755976D01*
X112469519Y-113738774D01*
X112504438Y-113728181D01*
X112546895Y-113724000D01*
X114013105Y-113724000D01*
X114055562Y-113728181D01*
X114055562Y-113728181D01*
G37*
G36*
X93748674Y-113803465D02*
G01*
X93786367Y-113814899D01*
X93821103Y-113833466D01*
X93851548Y-113858452D01*
X93876534Y-113888897D01*
X93895101Y-113923633D01*
X93906535Y-113961326D01*
X93911000Y-114006661D01*
X93911000Y-114843339D01*
X93906535Y-114888674D01*
X93895101Y-114926367D01*
X93876534Y-114961103D01*
X93851548Y-114991548D01*
X93821103Y-115016534D01*
X93786367Y-115035101D01*
X93748674Y-115046535D01*
X93703339Y-115051000D01*
X92616661Y-115051000D01*
X92571326Y-115046535D01*
X92533633Y-115035101D01*
X92498897Y-115016534D01*
X92468452Y-114991548D01*
X92443466Y-114961103D01*
X92424899Y-114926367D01*
X92413465Y-114888674D01*
X92409000Y-114843339D01*
X92409000Y-114006661D01*
X92413465Y-113961326D01*
X92424899Y-113923633D01*
X92443466Y-113888897D01*
X92468452Y-113858452D01*
X92498897Y-113833466D01*
X92533633Y-113814899D01*
X92571326Y-113803465D01*
X92616661Y-113799000D01*
X93703339Y-113799000D01*
X93748674Y-113803465D01*
X93748674Y-113803465D01*
G37*
G36*
X100008674Y-113803465D02*
G01*
X100046367Y-113814899D01*
X100081103Y-113833466D01*
X100111548Y-113858452D01*
X100136534Y-113888897D01*
X100155101Y-113923633D01*
X100166535Y-113961326D01*
X100171000Y-114006661D01*
X100171000Y-114843339D01*
X100166535Y-114888674D01*
X100155101Y-114926367D01*
X100136534Y-114961103D01*
X100111548Y-114991548D01*
X100081103Y-115016534D01*
X100046367Y-115035101D01*
X100008674Y-115046535D01*
X99963339Y-115051000D01*
X98876661Y-115051000D01*
X98831326Y-115046535D01*
X98793633Y-115035101D01*
X98758897Y-115016534D01*
X98728452Y-114991548D01*
X98703466Y-114961103D01*
X98684899Y-114926367D01*
X98673465Y-114888674D01*
X98669000Y-114843339D01*
X98669000Y-114006661D01*
X98673465Y-113961326D01*
X98684899Y-113923633D01*
X98703466Y-113888897D01*
X98728452Y-113858452D01*
X98758897Y-113833466D01*
X98793633Y-113814899D01*
X98831326Y-113803465D01*
X98876661Y-113799000D01*
X99963339Y-113799000D01*
X100008674Y-113803465D01*
X100008674Y-113803465D01*
G37*
G36*
X109749928Y-113461764D02*
G01*
X109771009Y-113468160D01*
X109790445Y-113478548D01*
X109807476Y-113492524D01*
X109821452Y-113509555D01*
X109831840Y-113528991D01*
X109838236Y-113550072D01*
X109841000Y-113578140D01*
X109841000Y-114041860D01*
X109838236Y-114069928D01*
X109831840Y-114091009D01*
X109821452Y-114110445D01*
X109807476Y-114127476D01*
X109790445Y-114141452D01*
X109771009Y-114151840D01*
X109749928Y-114158236D01*
X109721860Y-114161000D01*
X107908140Y-114161000D01*
X107880072Y-114158236D01*
X107858991Y-114151840D01*
X107839555Y-114141452D01*
X107822524Y-114127476D01*
X107808548Y-114110445D01*
X107798160Y-114091009D01*
X107791764Y-114069928D01*
X107789000Y-114041860D01*
X107789000Y-113578140D01*
X107791764Y-113550072D01*
X107798160Y-113528991D01*
X107808548Y-113509555D01*
X107822524Y-113492524D01*
X107839555Y-113478548D01*
X107858991Y-113468160D01*
X107880072Y-113461764D01*
X107908140Y-113459000D01*
X109721860Y-113459000D01*
X109749928Y-113461764D01*
X109749928Y-113461764D01*
G37*
G36*
X104799928Y-113461764D02*
G01*
X104821009Y-113468160D01*
X104840445Y-113478548D01*
X104857476Y-113492524D01*
X104871452Y-113509555D01*
X104881840Y-113528991D01*
X104888236Y-113550072D01*
X104891000Y-113578140D01*
X104891000Y-114041860D01*
X104888236Y-114069928D01*
X104881840Y-114091009D01*
X104871452Y-114110445D01*
X104857476Y-114127476D01*
X104840445Y-114141452D01*
X104821009Y-114151840D01*
X104799928Y-114158236D01*
X104771860Y-114161000D01*
X102958140Y-114161000D01*
X102930072Y-114158236D01*
X102908991Y-114151840D01*
X102889555Y-114141452D01*
X102872524Y-114127476D01*
X102858548Y-114110445D01*
X102848160Y-114091009D01*
X102841764Y-114069928D01*
X102839000Y-114041860D01*
X102839000Y-113578140D01*
X102841764Y-113550072D01*
X102848160Y-113528991D01*
X102858548Y-113509555D01*
X102872524Y-113492524D01*
X102889555Y-113478548D01*
X102908991Y-113468160D01*
X102930072Y-113461764D01*
X102958140Y-113459000D01*
X104771860Y-113459000D01*
X104799928Y-113461764D01*
X104799928Y-113461764D01*
G37*
G36*
X100008674Y-111753465D02*
G01*
X100046367Y-111764899D01*
X100081103Y-111783466D01*
X100111548Y-111808452D01*
X100136534Y-111838897D01*
X100155101Y-111873633D01*
X100166535Y-111911326D01*
X100171000Y-111956661D01*
X100171000Y-112793339D01*
X100166535Y-112838674D01*
X100155101Y-112876367D01*
X100136534Y-112911103D01*
X100111548Y-112941548D01*
X100081103Y-112966534D01*
X100046367Y-112985101D01*
X100008674Y-112996535D01*
X99963339Y-113001000D01*
X98876661Y-113001000D01*
X98831326Y-112996535D01*
X98793633Y-112985101D01*
X98758897Y-112966534D01*
X98728452Y-112941548D01*
X98703466Y-112911103D01*
X98684899Y-112876367D01*
X98673465Y-112838674D01*
X98669000Y-112793339D01*
X98669000Y-111956661D01*
X98673465Y-111911326D01*
X98684899Y-111873633D01*
X98703466Y-111838897D01*
X98728452Y-111808452D01*
X98758897Y-111783466D01*
X98793633Y-111764899D01*
X98831326Y-111753465D01*
X98876661Y-111749000D01*
X99963339Y-111749000D01*
X100008674Y-111753465D01*
X100008674Y-111753465D01*
G37*
G36*
X93748674Y-111753465D02*
G01*
X93786367Y-111764899D01*
X93821103Y-111783466D01*
X93851548Y-111808452D01*
X93876534Y-111838897D01*
X93895101Y-111873633D01*
X93906535Y-111911326D01*
X93911000Y-111956661D01*
X93911000Y-112793339D01*
X93906535Y-112838674D01*
X93895101Y-112876367D01*
X93876534Y-112911103D01*
X93851548Y-112941548D01*
X93821103Y-112966534D01*
X93786367Y-112985101D01*
X93748674Y-112996535D01*
X93703339Y-113001000D01*
X92616661Y-113001000D01*
X92571326Y-112996535D01*
X92533633Y-112985101D01*
X92498897Y-112966534D01*
X92468452Y-112941548D01*
X92443466Y-112911103D01*
X92424899Y-112876367D01*
X92413465Y-112838674D01*
X92409000Y-112793339D01*
X92409000Y-111956661D01*
X92413465Y-111911326D01*
X92424899Y-111873633D01*
X92443466Y-111838897D01*
X92468452Y-111808452D01*
X92498897Y-111783466D01*
X92533633Y-111764899D01*
X92571326Y-111753465D01*
X92616661Y-111749000D01*
X93703339Y-111749000D01*
X93748674Y-111753465D01*
X93748674Y-111753465D01*
G37*
G36*
X109749928Y-112191764D02*
G01*
X109771009Y-112198160D01*
X109790445Y-112208548D01*
X109807476Y-112222524D01*
X109821452Y-112239555D01*
X109831840Y-112258991D01*
X109838236Y-112280072D01*
X109841000Y-112308140D01*
X109841000Y-112771860D01*
X109838236Y-112799928D01*
X109831840Y-112821009D01*
X109821452Y-112840445D01*
X109807476Y-112857476D01*
X109790445Y-112871452D01*
X109771009Y-112881840D01*
X109749928Y-112888236D01*
X109721860Y-112891000D01*
X107908140Y-112891000D01*
X107880072Y-112888236D01*
X107858991Y-112881840D01*
X107839555Y-112871452D01*
X107822524Y-112857476D01*
X107808548Y-112840445D01*
X107798160Y-112821009D01*
X107791764Y-112799928D01*
X107789000Y-112771860D01*
X107789000Y-112308140D01*
X107791764Y-112280072D01*
X107798160Y-112258991D01*
X107808548Y-112239555D01*
X107822524Y-112222524D01*
X107839555Y-112208548D01*
X107858991Y-112198160D01*
X107880072Y-112191764D01*
X107908140Y-112189000D01*
X109721860Y-112189000D01*
X109749928Y-112191764D01*
X109749928Y-112191764D01*
G37*
G36*
X104799928Y-112191764D02*
G01*
X104821009Y-112198160D01*
X104840445Y-112208548D01*
X104857476Y-112222524D01*
X104871452Y-112239555D01*
X104881840Y-112258991D01*
X104888236Y-112280072D01*
X104891000Y-112308140D01*
X104891000Y-112771860D01*
X104888236Y-112799928D01*
X104881840Y-112821009D01*
X104871452Y-112840445D01*
X104857476Y-112857476D01*
X104840445Y-112871452D01*
X104821009Y-112881840D01*
X104799928Y-112888236D01*
X104771860Y-112891000D01*
X102958140Y-112891000D01*
X102930072Y-112888236D01*
X102908991Y-112881840D01*
X102889555Y-112871452D01*
X102872524Y-112857476D01*
X102858548Y-112840445D01*
X102848160Y-112821009D01*
X102841764Y-112799928D01*
X102839000Y-112771860D01*
X102839000Y-112308140D01*
X102841764Y-112280072D01*
X102848160Y-112258991D01*
X102858548Y-112239555D01*
X102872524Y-112222524D01*
X102889555Y-112208548D01*
X102908991Y-112198160D01*
X102930072Y-112191764D01*
X102958140Y-112189000D01*
X104771860Y-112189000D01*
X104799928Y-112191764D01*
X104799928Y-112191764D01*
G37*
G36*
X114055562Y-110753181D02*
G01*
X114090481Y-110763774D01*
X114122663Y-110780976D01*
X114150873Y-110804127D01*
X114174024Y-110832337D01*
X114191226Y-110864519D01*
X114201819Y-110899438D01*
X114206000Y-110941895D01*
X114206000Y-112083105D01*
X114201819Y-112125562D01*
X114191226Y-112160481D01*
X114174024Y-112192663D01*
X114150873Y-112220873D01*
X114122663Y-112244024D01*
X114090481Y-112261226D01*
X114055562Y-112271819D01*
X114013105Y-112276000D01*
X112546895Y-112276000D01*
X112504438Y-112271819D01*
X112469519Y-112261226D01*
X112437337Y-112244024D01*
X112409127Y-112220873D01*
X112385976Y-112192663D01*
X112368774Y-112160481D01*
X112358181Y-112125562D01*
X112354000Y-112083105D01*
X112354000Y-110941895D01*
X112358181Y-110899438D01*
X112368774Y-110864519D01*
X112385976Y-110832337D01*
X112409127Y-110804127D01*
X112437337Y-110780976D01*
X112469519Y-110763774D01*
X112504438Y-110753181D01*
X112546895Y-110749000D01*
X114013105Y-110749000D01*
X114055562Y-110753181D01*
X114055562Y-110753181D01*
G37*
G36*
X118615562Y-110753181D02*
G01*
X118650481Y-110763774D01*
X118682663Y-110780976D01*
X118710873Y-110804127D01*
X118734024Y-110832337D01*
X118751226Y-110864519D01*
X118761819Y-110899438D01*
X118766000Y-110941895D01*
X118766000Y-112083105D01*
X118761819Y-112125562D01*
X118751226Y-112160481D01*
X118734024Y-112192663D01*
X118710873Y-112220873D01*
X118682663Y-112244024D01*
X118650481Y-112261226D01*
X118615562Y-112271819D01*
X118573105Y-112276000D01*
X117106895Y-112276000D01*
X117064438Y-112271819D01*
X117029519Y-112261226D01*
X116997337Y-112244024D01*
X116969127Y-112220873D01*
X116945976Y-112192663D01*
X116928774Y-112160481D01*
X116918181Y-112125562D01*
X116914000Y-112083105D01*
X116914000Y-110941895D01*
X116918181Y-110899438D01*
X116928774Y-110864519D01*
X116945976Y-110832337D01*
X116969127Y-110804127D01*
X116997337Y-110780976D01*
X117029519Y-110763774D01*
X117064438Y-110753181D01*
X117106895Y-110749000D01*
X118573105Y-110749000D01*
X118615562Y-110753181D01*
X118615562Y-110753181D01*
G37*
G36*
X104799928Y-110921764D02*
G01*
X104821009Y-110928160D01*
X104840445Y-110938548D01*
X104857476Y-110952524D01*
X104871452Y-110969555D01*
X104881840Y-110988991D01*
X104888236Y-111010072D01*
X104891000Y-111038140D01*
X104891000Y-111501860D01*
X104888236Y-111529928D01*
X104881840Y-111551009D01*
X104871452Y-111570445D01*
X104857476Y-111587476D01*
X104840445Y-111601452D01*
X104821009Y-111611840D01*
X104799928Y-111618236D01*
X104771860Y-111621000D01*
X102958140Y-111621000D01*
X102930072Y-111618236D01*
X102908991Y-111611840D01*
X102889555Y-111601452D01*
X102872524Y-111587476D01*
X102858548Y-111570445D01*
X102848160Y-111551009D01*
X102841764Y-111529928D01*
X102839000Y-111501860D01*
X102839000Y-111038140D01*
X102841764Y-111010072D01*
X102848160Y-110988991D01*
X102858548Y-110969555D01*
X102872524Y-110952524D01*
X102889555Y-110938548D01*
X102908991Y-110928160D01*
X102930072Y-110921764D01*
X102958140Y-110919000D01*
X104771860Y-110919000D01*
X104799928Y-110921764D01*
X104799928Y-110921764D01*
G37*
G36*
X109749928Y-110921764D02*
G01*
X109771009Y-110928160D01*
X109790445Y-110938548D01*
X109807476Y-110952524D01*
X109821452Y-110969555D01*
X109831840Y-110988991D01*
X109838236Y-111010072D01*
X109841000Y-111038140D01*
X109841000Y-111501860D01*
X109838236Y-111529928D01*
X109831840Y-111551009D01*
X109821452Y-111570445D01*
X109807476Y-111587476D01*
X109790445Y-111601452D01*
X109771009Y-111611840D01*
X109749928Y-111618236D01*
X109721860Y-111621000D01*
X107908140Y-111621000D01*
X107880072Y-111618236D01*
X107858991Y-111611840D01*
X107839555Y-111601452D01*
X107822524Y-111587476D01*
X107808548Y-111570445D01*
X107798160Y-111551009D01*
X107791764Y-111529928D01*
X107789000Y-111501860D01*
X107789000Y-111038140D01*
X107791764Y-111010072D01*
X107798160Y-110988991D01*
X107808548Y-110969555D01*
X107822524Y-110952524D01*
X107839555Y-110938548D01*
X107858991Y-110928160D01*
X107880072Y-110921764D01*
X107908140Y-110919000D01*
X109721860Y-110919000D01*
X109749928Y-110921764D01*
X109749928Y-110921764D01*
G37*
G36*
X131288674Y-109653465D02*
G01*
X131326367Y-109664899D01*
X131361103Y-109683466D01*
X131391548Y-109708452D01*
X131416534Y-109738897D01*
X131435101Y-109773633D01*
X131446535Y-109811326D01*
X131451000Y-109856661D01*
X131451000Y-110943339D01*
X131446535Y-110988674D01*
X131435101Y-111026367D01*
X131416534Y-111061103D01*
X131391548Y-111091548D01*
X131361103Y-111116534D01*
X131326367Y-111135101D01*
X131288674Y-111146535D01*
X131243339Y-111151000D01*
X130406661Y-111151000D01*
X130361326Y-111146535D01*
X130323633Y-111135101D01*
X130288897Y-111116534D01*
X130258452Y-111091548D01*
X130233466Y-111061103D01*
X130214899Y-111026367D01*
X130203465Y-110988674D01*
X130199000Y-110943339D01*
X130199000Y-109856661D01*
X130203465Y-109811326D01*
X130214899Y-109773633D01*
X130233466Y-109738897D01*
X130258452Y-109708452D01*
X130288897Y-109683466D01*
X130323633Y-109664899D01*
X130361326Y-109653465D01*
X130406661Y-109649000D01*
X131243339Y-109649000D01*
X131288674Y-109653465D01*
X131288674Y-109653465D01*
G37*
G36*
X150888674Y-109653465D02*
G01*
X150926367Y-109664899D01*
X150961103Y-109683466D01*
X150991548Y-109708452D01*
X151016534Y-109738897D01*
X151035101Y-109773633D01*
X151046535Y-109811326D01*
X151051000Y-109856661D01*
X151051000Y-110943339D01*
X151046535Y-110988674D01*
X151035101Y-111026367D01*
X151016534Y-111061103D01*
X150991548Y-111091548D01*
X150961103Y-111116534D01*
X150926367Y-111135101D01*
X150888674Y-111146535D01*
X150843339Y-111151000D01*
X150006661Y-111151000D01*
X149961326Y-111146535D01*
X149923633Y-111135101D01*
X149888897Y-111116534D01*
X149858452Y-111091548D01*
X149833466Y-111061103D01*
X149814899Y-111026367D01*
X149803465Y-110988674D01*
X149799000Y-110943339D01*
X149799000Y-109856661D01*
X149803465Y-109811326D01*
X149814899Y-109773633D01*
X149833466Y-109738897D01*
X149858452Y-109708452D01*
X149888897Y-109683466D01*
X149923633Y-109664899D01*
X149961326Y-109653465D01*
X150006661Y-109649000D01*
X150843339Y-109649000D01*
X150888674Y-109653465D01*
X150888674Y-109653465D01*
G37*
G36*
X133338674Y-109653465D02*
G01*
X133376367Y-109664899D01*
X133411103Y-109683466D01*
X133441548Y-109708452D01*
X133466534Y-109738897D01*
X133485101Y-109773633D01*
X133496535Y-109811326D01*
X133501000Y-109856661D01*
X133501000Y-110943339D01*
X133496535Y-110988674D01*
X133485101Y-111026367D01*
X133466534Y-111061103D01*
X133441548Y-111091548D01*
X133411103Y-111116534D01*
X133376367Y-111135101D01*
X133338674Y-111146535D01*
X133293339Y-111151000D01*
X132456661Y-111151000D01*
X132411326Y-111146535D01*
X132373633Y-111135101D01*
X132338897Y-111116534D01*
X132308452Y-111091548D01*
X132283466Y-111061103D01*
X132264899Y-111026367D01*
X132253465Y-110988674D01*
X132249000Y-110943339D01*
X132249000Y-109856661D01*
X132253465Y-109811326D01*
X132264899Y-109773633D01*
X132283466Y-109738897D01*
X132308452Y-109708452D01*
X132338897Y-109683466D01*
X132373633Y-109664899D01*
X132411326Y-109653465D01*
X132456661Y-109649000D01*
X133293339Y-109649000D01*
X133338674Y-109653465D01*
X133338674Y-109653465D01*
G37*
G36*
X127488674Y-109653465D02*
G01*
X127526367Y-109664899D01*
X127561103Y-109683466D01*
X127591548Y-109708452D01*
X127616534Y-109738897D01*
X127635101Y-109773633D01*
X127646535Y-109811326D01*
X127651000Y-109856661D01*
X127651000Y-110943339D01*
X127646535Y-110988674D01*
X127635101Y-111026367D01*
X127616534Y-111061103D01*
X127591548Y-111091548D01*
X127561103Y-111116534D01*
X127526367Y-111135101D01*
X127488674Y-111146535D01*
X127443339Y-111151000D01*
X126606661Y-111151000D01*
X126561326Y-111146535D01*
X126523633Y-111135101D01*
X126488897Y-111116534D01*
X126458452Y-111091548D01*
X126433466Y-111061103D01*
X126414899Y-111026367D01*
X126403465Y-110988674D01*
X126399000Y-110943339D01*
X126399000Y-109856661D01*
X126403465Y-109811326D01*
X126414899Y-109773633D01*
X126433466Y-109738897D01*
X126458452Y-109708452D01*
X126488897Y-109683466D01*
X126523633Y-109664899D01*
X126561326Y-109653465D01*
X126606661Y-109649000D01*
X127443339Y-109649000D01*
X127488674Y-109653465D01*
X127488674Y-109653465D01*
G37*
G36*
X125438674Y-109653465D02*
G01*
X125476367Y-109664899D01*
X125511103Y-109683466D01*
X125541548Y-109708452D01*
X125566534Y-109738897D01*
X125585101Y-109773633D01*
X125596535Y-109811326D01*
X125601000Y-109856661D01*
X125601000Y-110943339D01*
X125596535Y-110988674D01*
X125585101Y-111026367D01*
X125566534Y-111061103D01*
X125541548Y-111091548D01*
X125511103Y-111116534D01*
X125476367Y-111135101D01*
X125438674Y-111146535D01*
X125393339Y-111151000D01*
X124556661Y-111151000D01*
X124511326Y-111146535D01*
X124473633Y-111135101D01*
X124438897Y-111116534D01*
X124408452Y-111091548D01*
X124383466Y-111061103D01*
X124364899Y-111026367D01*
X124353465Y-110988674D01*
X124349000Y-110943339D01*
X124349000Y-109856661D01*
X124353465Y-109811326D01*
X124364899Y-109773633D01*
X124383466Y-109738897D01*
X124408452Y-109708452D01*
X124438897Y-109683466D01*
X124473633Y-109664899D01*
X124511326Y-109653465D01*
X124556661Y-109649000D01*
X125393339Y-109649000D01*
X125438674Y-109653465D01*
X125438674Y-109653465D01*
G37*
G36*
X139188674Y-109653465D02*
G01*
X139226367Y-109664899D01*
X139261103Y-109683466D01*
X139291548Y-109708452D01*
X139316534Y-109738897D01*
X139335101Y-109773633D01*
X139346535Y-109811326D01*
X139351000Y-109856661D01*
X139351000Y-110943339D01*
X139346535Y-110988674D01*
X139335101Y-111026367D01*
X139316534Y-111061103D01*
X139291548Y-111091548D01*
X139261103Y-111116534D01*
X139226367Y-111135101D01*
X139188674Y-111146535D01*
X139143339Y-111151000D01*
X138306661Y-111151000D01*
X138261326Y-111146535D01*
X138223633Y-111135101D01*
X138188897Y-111116534D01*
X138158452Y-111091548D01*
X138133466Y-111061103D01*
X138114899Y-111026367D01*
X138103465Y-110988674D01*
X138099000Y-110943339D01*
X138099000Y-109856661D01*
X138103465Y-109811326D01*
X138114899Y-109773633D01*
X138133466Y-109738897D01*
X138158452Y-109708452D01*
X138188897Y-109683466D01*
X138223633Y-109664899D01*
X138261326Y-109653465D01*
X138306661Y-109649000D01*
X139143339Y-109649000D01*
X139188674Y-109653465D01*
X139188674Y-109653465D01*
G37*
G36*
X137138674Y-109653465D02*
G01*
X137176367Y-109664899D01*
X137211103Y-109683466D01*
X137241548Y-109708452D01*
X137266534Y-109738897D01*
X137285101Y-109773633D01*
X137296535Y-109811326D01*
X137301000Y-109856661D01*
X137301000Y-110943339D01*
X137296535Y-110988674D01*
X137285101Y-111026367D01*
X137266534Y-111061103D01*
X137241548Y-111091548D01*
X137211103Y-111116534D01*
X137176367Y-111135101D01*
X137138674Y-111146535D01*
X137093339Y-111151000D01*
X136256661Y-111151000D01*
X136211326Y-111146535D01*
X136173633Y-111135101D01*
X136138897Y-111116534D01*
X136108452Y-111091548D01*
X136083466Y-111061103D01*
X136064899Y-111026367D01*
X136053465Y-110988674D01*
X136049000Y-110943339D01*
X136049000Y-109856661D01*
X136053465Y-109811326D01*
X136064899Y-109773633D01*
X136083466Y-109738897D01*
X136108452Y-109708452D01*
X136138897Y-109683466D01*
X136173633Y-109664899D01*
X136211326Y-109653465D01*
X136256661Y-109649000D01*
X137093339Y-109649000D01*
X137138674Y-109653465D01*
X137138674Y-109653465D01*
G37*
G36*
X145038674Y-109653465D02*
G01*
X145076367Y-109664899D01*
X145111103Y-109683466D01*
X145141548Y-109708452D01*
X145166534Y-109738897D01*
X145185101Y-109773633D01*
X145196535Y-109811326D01*
X145201000Y-109856661D01*
X145201000Y-110943339D01*
X145196535Y-110988674D01*
X145185101Y-111026367D01*
X145166534Y-111061103D01*
X145141548Y-111091548D01*
X145111103Y-111116534D01*
X145076367Y-111135101D01*
X145038674Y-111146535D01*
X144993339Y-111151000D01*
X144156661Y-111151000D01*
X144111326Y-111146535D01*
X144073633Y-111135101D01*
X144038897Y-111116534D01*
X144008452Y-111091548D01*
X143983466Y-111061103D01*
X143964899Y-111026367D01*
X143953465Y-110988674D01*
X143949000Y-110943339D01*
X143949000Y-109856661D01*
X143953465Y-109811326D01*
X143964899Y-109773633D01*
X143983466Y-109738897D01*
X144008452Y-109708452D01*
X144038897Y-109683466D01*
X144073633Y-109664899D01*
X144111326Y-109653465D01*
X144156661Y-109649000D01*
X144993339Y-109649000D01*
X145038674Y-109653465D01*
X145038674Y-109653465D01*
G37*
G36*
X142988674Y-109653465D02*
G01*
X143026367Y-109664899D01*
X143061103Y-109683466D01*
X143091548Y-109708452D01*
X143116534Y-109738897D01*
X143135101Y-109773633D01*
X143146535Y-109811326D01*
X143151000Y-109856661D01*
X143151000Y-110943339D01*
X143146535Y-110988674D01*
X143135101Y-111026367D01*
X143116534Y-111061103D01*
X143091548Y-111091548D01*
X143061103Y-111116534D01*
X143026367Y-111135101D01*
X142988674Y-111146535D01*
X142943339Y-111151000D01*
X142106661Y-111151000D01*
X142061326Y-111146535D01*
X142023633Y-111135101D01*
X141988897Y-111116534D01*
X141958452Y-111091548D01*
X141933466Y-111061103D01*
X141914899Y-111026367D01*
X141903465Y-110988674D01*
X141899000Y-110943339D01*
X141899000Y-109856661D01*
X141903465Y-109811326D01*
X141914899Y-109773633D01*
X141933466Y-109738897D01*
X141958452Y-109708452D01*
X141988897Y-109683466D01*
X142023633Y-109664899D01*
X142061326Y-109653465D01*
X142106661Y-109649000D01*
X142943339Y-109649000D01*
X142988674Y-109653465D01*
X142988674Y-109653465D01*
G37*
G36*
X156738674Y-109653465D02*
G01*
X156776367Y-109664899D01*
X156811103Y-109683466D01*
X156841548Y-109708452D01*
X156866534Y-109738897D01*
X156885101Y-109773633D01*
X156896535Y-109811326D01*
X156901000Y-109856661D01*
X156901000Y-110943339D01*
X156896535Y-110988674D01*
X156885101Y-111026367D01*
X156866534Y-111061103D01*
X156841548Y-111091548D01*
X156811103Y-111116534D01*
X156776367Y-111135101D01*
X156738674Y-111146535D01*
X156693339Y-111151000D01*
X155856661Y-111151000D01*
X155811326Y-111146535D01*
X155773633Y-111135101D01*
X155738897Y-111116534D01*
X155708452Y-111091548D01*
X155683466Y-111061103D01*
X155664899Y-111026367D01*
X155653465Y-110988674D01*
X155649000Y-110943339D01*
X155649000Y-109856661D01*
X155653465Y-109811326D01*
X155664899Y-109773633D01*
X155683466Y-109738897D01*
X155708452Y-109708452D01*
X155738897Y-109683466D01*
X155773633Y-109664899D01*
X155811326Y-109653465D01*
X155856661Y-109649000D01*
X156693339Y-109649000D01*
X156738674Y-109653465D01*
X156738674Y-109653465D01*
G37*
G36*
X154688674Y-109653465D02*
G01*
X154726367Y-109664899D01*
X154761103Y-109683466D01*
X154791548Y-109708452D01*
X154816534Y-109738897D01*
X154835101Y-109773633D01*
X154846535Y-109811326D01*
X154851000Y-109856661D01*
X154851000Y-110943339D01*
X154846535Y-110988674D01*
X154835101Y-111026367D01*
X154816534Y-111061103D01*
X154791548Y-111091548D01*
X154761103Y-111116534D01*
X154726367Y-111135101D01*
X154688674Y-111146535D01*
X154643339Y-111151000D01*
X153806661Y-111151000D01*
X153761326Y-111146535D01*
X153723633Y-111135101D01*
X153688897Y-111116534D01*
X153658452Y-111091548D01*
X153633466Y-111061103D01*
X153614899Y-111026367D01*
X153603465Y-110988674D01*
X153599000Y-110943339D01*
X153599000Y-109856661D01*
X153603465Y-109811326D01*
X153614899Y-109773633D01*
X153633466Y-109738897D01*
X153658452Y-109708452D01*
X153688897Y-109683466D01*
X153723633Y-109664899D01*
X153761326Y-109653465D01*
X153806661Y-109649000D01*
X154643339Y-109649000D01*
X154688674Y-109653465D01*
X154688674Y-109653465D01*
G37*
G36*
X148838674Y-109653465D02*
G01*
X148876367Y-109664899D01*
X148911103Y-109683466D01*
X148941548Y-109708452D01*
X148966534Y-109738897D01*
X148985101Y-109773633D01*
X148996535Y-109811326D01*
X149001000Y-109856661D01*
X149001000Y-110943339D01*
X148996535Y-110988674D01*
X148985101Y-111026367D01*
X148966534Y-111061103D01*
X148941548Y-111091548D01*
X148911103Y-111116534D01*
X148876367Y-111135101D01*
X148838674Y-111146535D01*
X148793339Y-111151000D01*
X147956661Y-111151000D01*
X147911326Y-111146535D01*
X147873633Y-111135101D01*
X147838897Y-111116534D01*
X147808452Y-111091548D01*
X147783466Y-111061103D01*
X147764899Y-111026367D01*
X147753465Y-110988674D01*
X147749000Y-110943339D01*
X147749000Y-109856661D01*
X147753465Y-109811326D01*
X147764899Y-109773633D01*
X147783466Y-109738897D01*
X147808452Y-109708452D01*
X147838897Y-109683466D01*
X147873633Y-109664899D01*
X147911326Y-109653465D01*
X147956661Y-109649000D01*
X148793339Y-109649000D01*
X148838674Y-109653465D01*
X148838674Y-109653465D01*
G37*
G36*
X109308674Y-108514465D02*
G01*
X109346367Y-108525899D01*
X109381103Y-108544466D01*
X109411548Y-108569452D01*
X109436534Y-108599897D01*
X109455101Y-108634633D01*
X109466535Y-108672326D01*
X109471000Y-108717661D01*
X109471000Y-109554339D01*
X109466535Y-109599674D01*
X109455101Y-109637367D01*
X109436534Y-109672103D01*
X109411548Y-109702548D01*
X109381103Y-109727534D01*
X109346367Y-109746101D01*
X109308674Y-109757535D01*
X109263339Y-109762000D01*
X108176661Y-109762000D01*
X108131326Y-109757535D01*
X108093633Y-109746101D01*
X108058897Y-109727534D01*
X108028452Y-109702548D01*
X108003466Y-109672103D01*
X107984899Y-109637367D01*
X107973465Y-109599674D01*
X107969000Y-109554339D01*
X107969000Y-108717661D01*
X107973465Y-108672326D01*
X107984899Y-108634633D01*
X108003466Y-108599897D01*
X108028452Y-108569452D01*
X108058897Y-108544466D01*
X108093633Y-108525899D01*
X108131326Y-108514465D01*
X108176661Y-108510000D01*
X109263339Y-108510000D01*
X109308674Y-108514465D01*
X109308674Y-108514465D01*
G37*
G36*
X104588674Y-108514465D02*
G01*
X104626367Y-108525899D01*
X104661103Y-108544466D01*
X104691548Y-108569452D01*
X104716534Y-108599897D01*
X104735101Y-108634633D01*
X104746535Y-108672326D01*
X104751000Y-108717661D01*
X104751000Y-109554339D01*
X104746535Y-109599674D01*
X104735101Y-109637367D01*
X104716534Y-109672103D01*
X104691548Y-109702548D01*
X104661103Y-109727534D01*
X104626367Y-109746101D01*
X104588674Y-109757535D01*
X104543339Y-109762000D01*
X103456661Y-109762000D01*
X103411326Y-109757535D01*
X103373633Y-109746101D01*
X103338897Y-109727534D01*
X103308452Y-109702548D01*
X103283466Y-109672103D01*
X103264899Y-109637367D01*
X103253465Y-109599674D01*
X103249000Y-109554339D01*
X103249000Y-108717661D01*
X103253465Y-108672326D01*
X103264899Y-108634633D01*
X103283466Y-108599897D01*
X103308452Y-108569452D01*
X103338897Y-108544466D01*
X103373633Y-108525899D01*
X103411326Y-108514465D01*
X103456661Y-108510000D01*
X104543339Y-108510000D01*
X104588674Y-108514465D01*
X104588674Y-108514465D01*
G37*
G36*
X100008674Y-108514465D02*
G01*
X100046367Y-108525899D01*
X100081103Y-108544466D01*
X100111548Y-108569452D01*
X100136534Y-108599897D01*
X100155101Y-108634633D01*
X100166535Y-108672326D01*
X100171000Y-108717661D01*
X100171000Y-109554339D01*
X100166535Y-109599674D01*
X100155101Y-109637367D01*
X100136534Y-109672103D01*
X100111548Y-109702548D01*
X100081103Y-109727534D01*
X100046367Y-109746101D01*
X100008674Y-109757535D01*
X99963339Y-109762000D01*
X98876661Y-109762000D01*
X98831326Y-109757535D01*
X98793633Y-109746101D01*
X98758897Y-109727534D01*
X98728452Y-109702548D01*
X98703466Y-109672103D01*
X98684899Y-109637367D01*
X98673465Y-109599674D01*
X98669000Y-109554339D01*
X98669000Y-108717661D01*
X98673465Y-108672326D01*
X98684899Y-108634633D01*
X98703466Y-108599897D01*
X98728452Y-108569452D01*
X98758897Y-108544466D01*
X98793633Y-108525899D01*
X98831326Y-108514465D01*
X98876661Y-108510000D01*
X99963339Y-108510000D01*
X100008674Y-108514465D01*
X100008674Y-108514465D01*
G37*
G36*
X94336000Y-109096000D02*
G01*
X91834000Y-109096000D01*
X91834000Y-107544000D01*
X94336000Y-107544000D01*
X94336000Y-109096000D01*
X94336000Y-109096000D01*
G37*
G36*
X116895909Y-106855072D02*
G01*
X116966627Y-106862037D01*
X117136466Y-106913557D01*
X117292991Y-106997222D01*
X117328729Y-107026552D01*
X117430186Y-107109814D01*
X117513448Y-107211271D01*
X117542778Y-107247009D01*
X117626443Y-107403534D01*
X117677963Y-107573373D01*
X117695359Y-107750000D01*
X117677963Y-107926627D01*
X117626443Y-108096466D01*
X117542778Y-108252991D01*
X117513448Y-108288729D01*
X117430186Y-108390186D01*
X117328729Y-108473448D01*
X117292991Y-108502778D01*
X117292989Y-108502779D01*
X117193666Y-108555869D01*
X117136466Y-108586443D01*
X116966627Y-108637963D01*
X116900443Y-108644481D01*
X116834260Y-108651000D01*
X116745740Y-108651000D01*
X116679557Y-108644481D01*
X116613373Y-108637963D01*
X116443534Y-108586443D01*
X116386335Y-108555869D01*
X116287011Y-108502779D01*
X116287009Y-108502778D01*
X116251271Y-108473448D01*
X116149814Y-108390186D01*
X116066552Y-108288729D01*
X116037222Y-108252991D01*
X115953557Y-108096466D01*
X115902037Y-107926627D01*
X115884641Y-107750000D01*
X115902037Y-107573373D01*
X115953557Y-107403534D01*
X116037222Y-107247009D01*
X116066552Y-107211271D01*
X116149814Y-107109814D01*
X116251271Y-107026552D01*
X116287009Y-106997222D01*
X116443534Y-106913557D01*
X116613373Y-106862037D01*
X116684091Y-106855072D01*
X116745740Y-106849000D01*
X116834260Y-106849000D01*
X116895909Y-106855072D01*
X116895909Y-106855072D01*
G37*
G36*
X115151000Y-108651000D02*
G01*
X113349000Y-108651000D01*
X113349000Y-106849000D01*
X115151000Y-106849000D01*
X115151000Y-108651000D01*
X115151000Y-108651000D01*
G37*
G36*
X100008674Y-106464465D02*
G01*
X100046367Y-106475899D01*
X100081103Y-106494466D01*
X100111548Y-106519452D01*
X100136534Y-106549897D01*
X100155101Y-106584633D01*
X100166535Y-106622326D01*
X100171000Y-106667661D01*
X100171000Y-107504339D01*
X100166535Y-107549674D01*
X100155101Y-107587367D01*
X100136534Y-107622103D01*
X100111548Y-107652548D01*
X100081103Y-107677534D01*
X100046367Y-107696101D01*
X100008674Y-107707535D01*
X99963339Y-107712000D01*
X98876661Y-107712000D01*
X98831326Y-107707535D01*
X98793633Y-107696101D01*
X98758897Y-107677534D01*
X98728452Y-107652548D01*
X98703466Y-107622103D01*
X98684899Y-107587367D01*
X98673465Y-107549674D01*
X98669000Y-107504339D01*
X98669000Y-106667661D01*
X98673465Y-106622326D01*
X98684899Y-106584633D01*
X98703466Y-106549897D01*
X98728452Y-106519452D01*
X98758897Y-106494466D01*
X98793633Y-106475899D01*
X98831326Y-106464465D01*
X98876661Y-106460000D01*
X99963339Y-106460000D01*
X100008674Y-106464465D01*
X100008674Y-106464465D01*
G37*
G36*
X104588674Y-106464465D02*
G01*
X104626367Y-106475899D01*
X104661103Y-106494466D01*
X104691548Y-106519452D01*
X104716534Y-106549897D01*
X104735101Y-106584633D01*
X104746535Y-106622326D01*
X104751000Y-106667661D01*
X104751000Y-107504339D01*
X104746535Y-107549674D01*
X104735101Y-107587367D01*
X104716534Y-107622103D01*
X104691548Y-107652548D01*
X104661103Y-107677534D01*
X104626367Y-107696101D01*
X104588674Y-107707535D01*
X104543339Y-107712000D01*
X103456661Y-107712000D01*
X103411326Y-107707535D01*
X103373633Y-107696101D01*
X103338897Y-107677534D01*
X103308452Y-107652548D01*
X103283466Y-107622103D01*
X103264899Y-107587367D01*
X103253465Y-107549674D01*
X103249000Y-107504339D01*
X103249000Y-106667661D01*
X103253465Y-106622326D01*
X103264899Y-106584633D01*
X103283466Y-106549897D01*
X103308452Y-106519452D01*
X103338897Y-106494466D01*
X103373633Y-106475899D01*
X103411326Y-106464465D01*
X103456661Y-106460000D01*
X104543339Y-106460000D01*
X104588674Y-106464465D01*
X104588674Y-106464465D01*
G37*
G36*
X109308674Y-106464465D02*
G01*
X109346367Y-106475899D01*
X109381103Y-106494466D01*
X109411548Y-106519452D01*
X109436534Y-106549897D01*
X109455101Y-106584633D01*
X109466535Y-106622326D01*
X109471000Y-106667661D01*
X109471000Y-107504339D01*
X109466535Y-107549674D01*
X109455101Y-107587367D01*
X109436534Y-107622103D01*
X109411548Y-107652548D01*
X109381103Y-107677534D01*
X109346367Y-107696101D01*
X109308674Y-107707535D01*
X109263339Y-107712000D01*
X108176661Y-107712000D01*
X108131326Y-107707535D01*
X108093633Y-107696101D01*
X108058897Y-107677534D01*
X108028452Y-107652548D01*
X108003466Y-107622103D01*
X107984899Y-107587367D01*
X107973465Y-107549674D01*
X107969000Y-107504339D01*
X107969000Y-106667661D01*
X107973465Y-106622326D01*
X107984899Y-106584633D01*
X108003466Y-106549897D01*
X108028452Y-106519452D01*
X108058897Y-106494466D01*
X108093633Y-106475899D01*
X108131326Y-106464465D01*
X108176661Y-106460000D01*
X109263339Y-106460000D01*
X109308674Y-106464465D01*
X109308674Y-106464465D01*
G37*
G36*
X152809928Y-106766764D02*
G01*
X152831009Y-106773160D01*
X152850445Y-106783548D01*
X152867476Y-106797524D01*
X152881452Y-106814555D01*
X152891840Y-106833991D01*
X152898236Y-106855072D01*
X152901000Y-106883140D01*
X152901000Y-107346860D01*
X152898236Y-107374928D01*
X152891840Y-107396009D01*
X152881452Y-107415445D01*
X152867476Y-107432476D01*
X152850445Y-107446452D01*
X152831009Y-107456840D01*
X152809928Y-107463236D01*
X152781860Y-107466000D01*
X150968140Y-107466000D01*
X150940072Y-107463236D01*
X150918991Y-107456840D01*
X150899555Y-107446452D01*
X150882524Y-107432476D01*
X150868548Y-107415445D01*
X150858160Y-107396009D01*
X150851764Y-107374928D01*
X150849000Y-107346860D01*
X150849000Y-106883140D01*
X150851764Y-106855072D01*
X150858160Y-106833991D01*
X150868548Y-106814555D01*
X150882524Y-106797524D01*
X150899555Y-106783548D01*
X150918991Y-106773160D01*
X150940072Y-106766764D01*
X150968140Y-106764000D01*
X152781860Y-106764000D01*
X152809928Y-106766764D01*
X152809928Y-106766764D01*
G37*
G36*
X132439928Y-106766764D02*
G01*
X132461009Y-106773160D01*
X132480445Y-106783548D01*
X132497476Y-106797524D01*
X132511452Y-106814555D01*
X132521840Y-106833991D01*
X132528236Y-106855072D01*
X132531000Y-106883140D01*
X132531000Y-107346860D01*
X132528236Y-107374928D01*
X132521840Y-107396009D01*
X132511452Y-107415445D01*
X132497476Y-107432476D01*
X132480445Y-107446452D01*
X132461009Y-107456840D01*
X132439928Y-107463236D01*
X132411860Y-107466000D01*
X130598140Y-107466000D01*
X130570072Y-107463236D01*
X130548991Y-107456840D01*
X130529555Y-107446452D01*
X130512524Y-107432476D01*
X130498548Y-107415445D01*
X130488160Y-107396009D01*
X130481764Y-107374928D01*
X130479000Y-107346860D01*
X130479000Y-106883140D01*
X130481764Y-106855072D01*
X130488160Y-106833991D01*
X130498548Y-106814555D01*
X130512524Y-106797524D01*
X130529555Y-106783548D01*
X130548991Y-106773160D01*
X130570072Y-106766764D01*
X130598140Y-106764000D01*
X132411860Y-106764000D01*
X132439928Y-106766764D01*
X132439928Y-106766764D01*
G37*
G36*
X137659928Y-106766764D02*
G01*
X137681009Y-106773160D01*
X137700445Y-106783548D01*
X137717476Y-106797524D01*
X137731452Y-106814555D01*
X137741840Y-106833991D01*
X137748236Y-106855072D01*
X137751000Y-106883140D01*
X137751000Y-107346860D01*
X137748236Y-107374928D01*
X137741840Y-107396009D01*
X137731452Y-107415445D01*
X137717476Y-107432476D01*
X137700445Y-107446452D01*
X137681009Y-107456840D01*
X137659928Y-107463236D01*
X137631860Y-107466000D01*
X135818140Y-107466000D01*
X135790072Y-107463236D01*
X135768991Y-107456840D01*
X135749555Y-107446452D01*
X135732524Y-107432476D01*
X135718548Y-107415445D01*
X135708160Y-107396009D01*
X135701764Y-107374928D01*
X135699000Y-107346860D01*
X135699000Y-106883140D01*
X135701764Y-106855072D01*
X135708160Y-106833991D01*
X135718548Y-106814555D01*
X135732524Y-106797524D01*
X135749555Y-106783548D01*
X135768991Y-106773160D01*
X135790072Y-106766764D01*
X135818140Y-106764000D01*
X137631860Y-106764000D01*
X137659928Y-106766764D01*
X137659928Y-106766764D01*
G37*
G36*
X147859928Y-106766764D02*
G01*
X147881009Y-106773160D01*
X147900445Y-106783548D01*
X147917476Y-106797524D01*
X147931452Y-106814555D01*
X147941840Y-106833991D01*
X147948236Y-106855072D01*
X147951000Y-106883140D01*
X147951000Y-107346860D01*
X147948236Y-107374928D01*
X147941840Y-107396009D01*
X147931452Y-107415445D01*
X147917476Y-107432476D01*
X147900445Y-107446452D01*
X147881009Y-107456840D01*
X147859928Y-107463236D01*
X147831860Y-107466000D01*
X146018140Y-107466000D01*
X145990072Y-107463236D01*
X145968991Y-107456840D01*
X145949555Y-107446452D01*
X145932524Y-107432476D01*
X145918548Y-107415445D01*
X145908160Y-107396009D01*
X145901764Y-107374928D01*
X145899000Y-107346860D01*
X145899000Y-106883140D01*
X145901764Y-106855072D01*
X145908160Y-106833991D01*
X145918548Y-106814555D01*
X145932524Y-106797524D01*
X145949555Y-106783548D01*
X145968991Y-106773160D01*
X145990072Y-106766764D01*
X146018140Y-106764000D01*
X147831860Y-106764000D01*
X147859928Y-106766764D01*
X147859928Y-106766764D01*
G37*
G36*
X142609928Y-106766764D02*
G01*
X142631009Y-106773160D01*
X142650445Y-106783548D01*
X142667476Y-106797524D01*
X142681452Y-106814555D01*
X142691840Y-106833991D01*
X142698236Y-106855072D01*
X142701000Y-106883140D01*
X142701000Y-107346860D01*
X142698236Y-107374928D01*
X142691840Y-107396009D01*
X142681452Y-107415445D01*
X142667476Y-107432476D01*
X142650445Y-107446452D01*
X142631009Y-107456840D01*
X142609928Y-107463236D01*
X142581860Y-107466000D01*
X140768140Y-107466000D01*
X140740072Y-107463236D01*
X140718991Y-107456840D01*
X140699555Y-107446452D01*
X140682524Y-107432476D01*
X140668548Y-107415445D01*
X140658160Y-107396009D01*
X140651764Y-107374928D01*
X140649000Y-107346860D01*
X140649000Y-106883140D01*
X140651764Y-106855072D01*
X140658160Y-106833991D01*
X140668548Y-106814555D01*
X140682524Y-106797524D01*
X140699555Y-106783548D01*
X140718991Y-106773160D01*
X140740072Y-106766764D01*
X140768140Y-106764000D01*
X142581860Y-106764000D01*
X142609928Y-106766764D01*
X142609928Y-106766764D01*
G37*
G36*
X127489928Y-106766764D02*
G01*
X127511009Y-106773160D01*
X127530445Y-106783548D01*
X127547476Y-106797524D01*
X127561452Y-106814555D01*
X127571840Y-106833991D01*
X127578236Y-106855072D01*
X127581000Y-106883140D01*
X127581000Y-107346860D01*
X127578236Y-107374928D01*
X127571840Y-107396009D01*
X127561452Y-107415445D01*
X127547476Y-107432476D01*
X127530445Y-107446452D01*
X127511009Y-107456840D01*
X127489928Y-107463236D01*
X127461860Y-107466000D01*
X125648140Y-107466000D01*
X125620072Y-107463236D01*
X125598991Y-107456840D01*
X125579555Y-107446452D01*
X125562524Y-107432476D01*
X125548548Y-107415445D01*
X125538160Y-107396009D01*
X125531764Y-107374928D01*
X125529000Y-107346860D01*
X125529000Y-106883140D01*
X125531764Y-106855072D01*
X125538160Y-106833991D01*
X125548548Y-106814555D01*
X125562524Y-106797524D01*
X125579555Y-106783548D01*
X125598991Y-106773160D01*
X125620072Y-106766764D01*
X125648140Y-106764000D01*
X127461860Y-106764000D01*
X127489928Y-106766764D01*
X127489928Y-106766764D01*
G37*
G36*
X127489928Y-105496764D02*
G01*
X127511009Y-105503160D01*
X127530445Y-105513548D01*
X127547476Y-105527524D01*
X127561452Y-105544555D01*
X127571840Y-105563991D01*
X127578236Y-105585072D01*
X127581000Y-105613140D01*
X127581000Y-106076860D01*
X127578236Y-106104928D01*
X127571840Y-106126009D01*
X127561452Y-106145445D01*
X127547476Y-106162476D01*
X127530445Y-106176452D01*
X127511009Y-106186840D01*
X127489928Y-106193236D01*
X127461860Y-106196000D01*
X125648140Y-106196000D01*
X125620072Y-106193236D01*
X125598991Y-106186840D01*
X125579555Y-106176452D01*
X125562524Y-106162476D01*
X125548548Y-106145445D01*
X125538160Y-106126009D01*
X125531764Y-106104928D01*
X125529000Y-106076860D01*
X125529000Y-105613140D01*
X125531764Y-105585072D01*
X125538160Y-105563991D01*
X125548548Y-105544555D01*
X125562524Y-105527524D01*
X125579555Y-105513548D01*
X125598991Y-105503160D01*
X125620072Y-105496764D01*
X125648140Y-105494000D01*
X127461860Y-105494000D01*
X127489928Y-105496764D01*
X127489928Y-105496764D01*
G37*
G36*
X137659928Y-105496764D02*
G01*
X137681009Y-105503160D01*
X137700445Y-105513548D01*
X137717476Y-105527524D01*
X137731452Y-105544555D01*
X137741840Y-105563991D01*
X137748236Y-105585072D01*
X137751000Y-105613140D01*
X137751000Y-106076860D01*
X137748236Y-106104928D01*
X137741840Y-106126009D01*
X137731452Y-106145445D01*
X137717476Y-106162476D01*
X137700445Y-106176452D01*
X137681009Y-106186840D01*
X137659928Y-106193236D01*
X137631860Y-106196000D01*
X135818140Y-106196000D01*
X135790072Y-106193236D01*
X135768991Y-106186840D01*
X135749555Y-106176452D01*
X135732524Y-106162476D01*
X135718548Y-106145445D01*
X135708160Y-106126009D01*
X135701764Y-106104928D01*
X135699000Y-106076860D01*
X135699000Y-105613140D01*
X135701764Y-105585072D01*
X135708160Y-105563991D01*
X135718548Y-105544555D01*
X135732524Y-105527524D01*
X135749555Y-105513548D01*
X135768991Y-105503160D01*
X135790072Y-105496764D01*
X135818140Y-105494000D01*
X137631860Y-105494000D01*
X137659928Y-105496764D01*
X137659928Y-105496764D01*
G37*
G36*
X132439928Y-105496764D02*
G01*
X132461009Y-105503160D01*
X132480445Y-105513548D01*
X132497476Y-105527524D01*
X132511452Y-105544555D01*
X132521840Y-105563991D01*
X132528236Y-105585072D01*
X132531000Y-105613140D01*
X132531000Y-106076860D01*
X132528236Y-106104928D01*
X132521840Y-106126009D01*
X132511452Y-106145445D01*
X132497476Y-106162476D01*
X132480445Y-106176452D01*
X132461009Y-106186840D01*
X132439928Y-106193236D01*
X132411860Y-106196000D01*
X130598140Y-106196000D01*
X130570072Y-106193236D01*
X130548991Y-106186840D01*
X130529555Y-106176452D01*
X130512524Y-106162476D01*
X130498548Y-106145445D01*
X130488160Y-106126009D01*
X130481764Y-106104928D01*
X130479000Y-106076860D01*
X130479000Y-105613140D01*
X130481764Y-105585072D01*
X130488160Y-105563991D01*
X130498548Y-105544555D01*
X130512524Y-105527524D01*
X130529555Y-105513548D01*
X130548991Y-105503160D01*
X130570072Y-105496764D01*
X130598140Y-105494000D01*
X132411860Y-105494000D01*
X132439928Y-105496764D01*
X132439928Y-105496764D01*
G37*
G36*
X147859928Y-105496764D02*
G01*
X147881009Y-105503160D01*
X147900445Y-105513548D01*
X147917476Y-105527524D01*
X147931452Y-105544555D01*
X147941840Y-105563991D01*
X147948236Y-105585072D01*
X147951000Y-105613140D01*
X147951000Y-106076860D01*
X147948236Y-106104928D01*
X147941840Y-106126009D01*
X147931452Y-106145445D01*
X147917476Y-106162476D01*
X147900445Y-106176452D01*
X147881009Y-106186840D01*
X147859928Y-106193236D01*
X147831860Y-106196000D01*
X146018140Y-106196000D01*
X145990072Y-106193236D01*
X145968991Y-106186840D01*
X145949555Y-106176452D01*
X145932524Y-106162476D01*
X145918548Y-106145445D01*
X145908160Y-106126009D01*
X145901764Y-106104928D01*
X145899000Y-106076860D01*
X145899000Y-105613140D01*
X145901764Y-105585072D01*
X145908160Y-105563991D01*
X145918548Y-105544555D01*
X145932524Y-105527524D01*
X145949555Y-105513548D01*
X145968991Y-105503160D01*
X145990072Y-105496764D01*
X146018140Y-105494000D01*
X147831860Y-105494000D01*
X147859928Y-105496764D01*
X147859928Y-105496764D01*
G37*
G36*
X152809928Y-105496764D02*
G01*
X152831009Y-105503160D01*
X152850445Y-105513548D01*
X152867476Y-105527524D01*
X152881452Y-105544555D01*
X152891840Y-105563991D01*
X152898236Y-105585072D01*
X152901000Y-105613140D01*
X152901000Y-106076860D01*
X152898236Y-106104928D01*
X152891840Y-106126009D01*
X152881452Y-106145445D01*
X152867476Y-106162476D01*
X152850445Y-106176452D01*
X152831009Y-106186840D01*
X152809928Y-106193236D01*
X152781860Y-106196000D01*
X150968140Y-106196000D01*
X150940072Y-106193236D01*
X150918991Y-106186840D01*
X150899555Y-106176452D01*
X150882524Y-106162476D01*
X150868548Y-106145445D01*
X150858160Y-106126009D01*
X150851764Y-106104928D01*
X150849000Y-106076860D01*
X150849000Y-105613140D01*
X150851764Y-105585072D01*
X150858160Y-105563991D01*
X150868548Y-105544555D01*
X150882524Y-105527524D01*
X150899555Y-105513548D01*
X150918991Y-105503160D01*
X150940072Y-105496764D01*
X150968140Y-105494000D01*
X152781860Y-105494000D01*
X152809928Y-105496764D01*
X152809928Y-105496764D01*
G37*
G36*
X142609928Y-105496764D02*
G01*
X142631009Y-105503160D01*
X142650445Y-105513548D01*
X142667476Y-105527524D01*
X142681452Y-105544555D01*
X142691840Y-105563991D01*
X142698236Y-105585072D01*
X142701000Y-105613140D01*
X142701000Y-106076860D01*
X142698236Y-106104928D01*
X142691840Y-106126009D01*
X142681452Y-106145445D01*
X142667476Y-106162476D01*
X142650445Y-106176452D01*
X142631009Y-106186840D01*
X142609928Y-106193236D01*
X142581860Y-106196000D01*
X140768140Y-106196000D01*
X140740072Y-106193236D01*
X140718991Y-106186840D01*
X140699555Y-106176452D01*
X140682524Y-106162476D01*
X140668548Y-106145445D01*
X140658160Y-106126009D01*
X140651764Y-106104928D01*
X140649000Y-106076860D01*
X140649000Y-105613140D01*
X140651764Y-105585072D01*
X140658160Y-105563991D01*
X140668548Y-105544555D01*
X140682524Y-105527524D01*
X140699555Y-105513548D01*
X140718991Y-105503160D01*
X140740072Y-105496764D01*
X140768140Y-105494000D01*
X142581860Y-105494000D01*
X142609928Y-105496764D01*
X142609928Y-105496764D01*
G37*
G36*
X147859928Y-104226764D02*
G01*
X147881009Y-104233160D01*
X147900445Y-104243548D01*
X147917476Y-104257524D01*
X147931452Y-104274555D01*
X147941840Y-104293991D01*
X147948236Y-104315072D01*
X147951000Y-104343140D01*
X147951000Y-104806860D01*
X147948236Y-104834928D01*
X147941840Y-104856009D01*
X147931452Y-104875445D01*
X147917476Y-104892476D01*
X147900445Y-104906452D01*
X147881009Y-104916840D01*
X147859928Y-104923236D01*
X147831860Y-104926000D01*
X146018140Y-104926000D01*
X145990072Y-104923236D01*
X145968991Y-104916840D01*
X145949555Y-104906452D01*
X145932524Y-104892476D01*
X145918548Y-104875445D01*
X145908160Y-104856009D01*
X145901764Y-104834928D01*
X145899000Y-104806860D01*
X145899000Y-104343140D01*
X145901764Y-104315072D01*
X145908160Y-104293991D01*
X145918548Y-104274555D01*
X145932524Y-104257524D01*
X145949555Y-104243548D01*
X145968991Y-104233160D01*
X145990072Y-104226764D01*
X146018140Y-104224000D01*
X147831860Y-104224000D01*
X147859928Y-104226764D01*
X147859928Y-104226764D01*
G37*
G36*
X152809928Y-104226764D02*
G01*
X152831009Y-104233160D01*
X152850445Y-104243548D01*
X152867476Y-104257524D01*
X152881452Y-104274555D01*
X152891840Y-104293991D01*
X152898236Y-104315072D01*
X152901000Y-104343140D01*
X152901000Y-104806860D01*
X152898236Y-104834928D01*
X152891840Y-104856009D01*
X152881452Y-104875445D01*
X152867476Y-104892476D01*
X152850445Y-104906452D01*
X152831009Y-104916840D01*
X152809928Y-104923236D01*
X152781860Y-104926000D01*
X150968140Y-104926000D01*
X150940072Y-104923236D01*
X150918991Y-104916840D01*
X150899555Y-104906452D01*
X150882524Y-104892476D01*
X150868548Y-104875445D01*
X150858160Y-104856009D01*
X150851764Y-104834928D01*
X150849000Y-104806860D01*
X150849000Y-104343140D01*
X150851764Y-104315072D01*
X150858160Y-104293991D01*
X150868548Y-104274555D01*
X150882524Y-104257524D01*
X150899555Y-104243548D01*
X150918991Y-104233160D01*
X150940072Y-104226764D01*
X150968140Y-104224000D01*
X152781860Y-104224000D01*
X152809928Y-104226764D01*
X152809928Y-104226764D01*
G37*
G36*
X137659928Y-104226764D02*
G01*
X137681009Y-104233160D01*
X137700445Y-104243548D01*
X137717476Y-104257524D01*
X137731452Y-104274555D01*
X137741840Y-104293991D01*
X137748236Y-104315072D01*
X137751000Y-104343140D01*
X137751000Y-104806860D01*
X137748236Y-104834928D01*
X137741840Y-104856009D01*
X137731452Y-104875445D01*
X137717476Y-104892476D01*
X137700445Y-104906452D01*
X137681009Y-104916840D01*
X137659928Y-104923236D01*
X137631860Y-104926000D01*
X135818140Y-104926000D01*
X135790072Y-104923236D01*
X135768991Y-104916840D01*
X135749555Y-104906452D01*
X135732524Y-104892476D01*
X135718548Y-104875445D01*
X135708160Y-104856009D01*
X135701764Y-104834928D01*
X135699000Y-104806860D01*
X135699000Y-104343140D01*
X135701764Y-104315072D01*
X135708160Y-104293991D01*
X135718548Y-104274555D01*
X135732524Y-104257524D01*
X135749555Y-104243548D01*
X135768991Y-104233160D01*
X135790072Y-104226764D01*
X135818140Y-104224000D01*
X137631860Y-104224000D01*
X137659928Y-104226764D01*
X137659928Y-104226764D01*
G37*
G36*
X127489928Y-104226764D02*
G01*
X127511009Y-104233160D01*
X127530445Y-104243548D01*
X127547476Y-104257524D01*
X127561452Y-104274555D01*
X127571840Y-104293991D01*
X127578236Y-104315072D01*
X127581000Y-104343140D01*
X127581000Y-104806860D01*
X127578236Y-104834928D01*
X127571840Y-104856009D01*
X127561452Y-104875445D01*
X127547476Y-104892476D01*
X127530445Y-104906452D01*
X127511009Y-104916840D01*
X127489928Y-104923236D01*
X127461860Y-104926000D01*
X125648140Y-104926000D01*
X125620072Y-104923236D01*
X125598991Y-104916840D01*
X125579555Y-104906452D01*
X125562524Y-104892476D01*
X125548548Y-104875445D01*
X125538160Y-104856009D01*
X125531764Y-104834928D01*
X125529000Y-104806860D01*
X125529000Y-104343140D01*
X125531764Y-104315072D01*
X125538160Y-104293991D01*
X125548548Y-104274555D01*
X125562524Y-104257524D01*
X125579555Y-104243548D01*
X125598991Y-104233160D01*
X125620072Y-104226764D01*
X125648140Y-104224000D01*
X127461860Y-104224000D01*
X127489928Y-104226764D01*
X127489928Y-104226764D01*
G37*
G36*
X132439928Y-104226764D02*
G01*
X132461009Y-104233160D01*
X132480445Y-104243548D01*
X132497476Y-104257524D01*
X132511452Y-104274555D01*
X132521840Y-104293991D01*
X132528236Y-104315072D01*
X132531000Y-104343140D01*
X132531000Y-104806860D01*
X132528236Y-104834928D01*
X132521840Y-104856009D01*
X132511452Y-104875445D01*
X132497476Y-104892476D01*
X132480445Y-104906452D01*
X132461009Y-104916840D01*
X132439928Y-104923236D01*
X132411860Y-104926000D01*
X130598140Y-104926000D01*
X130570072Y-104923236D01*
X130548991Y-104916840D01*
X130529555Y-104906452D01*
X130512524Y-104892476D01*
X130498548Y-104875445D01*
X130488160Y-104856009D01*
X130481764Y-104834928D01*
X130479000Y-104806860D01*
X130479000Y-104343140D01*
X130481764Y-104315072D01*
X130488160Y-104293991D01*
X130498548Y-104274555D01*
X130512524Y-104257524D01*
X130529555Y-104243548D01*
X130548991Y-104233160D01*
X130570072Y-104226764D01*
X130598140Y-104224000D01*
X132411860Y-104224000D01*
X132439928Y-104226764D01*
X132439928Y-104226764D01*
G37*
G36*
X142609928Y-104226764D02*
G01*
X142631009Y-104233160D01*
X142650445Y-104243548D01*
X142667476Y-104257524D01*
X142681452Y-104274555D01*
X142691840Y-104293991D01*
X142698236Y-104315072D01*
X142701000Y-104343140D01*
X142701000Y-104806860D01*
X142698236Y-104834928D01*
X142691840Y-104856009D01*
X142681452Y-104875445D01*
X142667476Y-104892476D01*
X142650445Y-104906452D01*
X142631009Y-104916840D01*
X142609928Y-104923236D01*
X142581860Y-104926000D01*
X140768140Y-104926000D01*
X140740072Y-104923236D01*
X140718991Y-104916840D01*
X140699555Y-104906452D01*
X140682524Y-104892476D01*
X140668548Y-104875445D01*
X140658160Y-104856009D01*
X140651764Y-104834928D01*
X140649000Y-104806860D01*
X140649000Y-104343140D01*
X140651764Y-104315072D01*
X140658160Y-104293991D01*
X140668548Y-104274555D01*
X140682524Y-104257524D01*
X140699555Y-104243548D01*
X140718991Y-104233160D01*
X140740072Y-104226764D01*
X140768140Y-104224000D01*
X142581860Y-104224000D01*
X142609928Y-104226764D01*
X142609928Y-104226764D01*
G37*
G36*
X109308674Y-103233465D02*
G01*
X109346367Y-103244899D01*
X109381103Y-103263466D01*
X109411548Y-103288452D01*
X109436534Y-103318897D01*
X109455101Y-103353633D01*
X109466535Y-103391326D01*
X109471000Y-103436661D01*
X109471000Y-104273339D01*
X109466535Y-104318674D01*
X109455101Y-104356367D01*
X109436534Y-104391103D01*
X109411548Y-104421548D01*
X109381103Y-104446534D01*
X109346367Y-104465101D01*
X109308674Y-104476535D01*
X109263339Y-104481000D01*
X108176661Y-104481000D01*
X108131326Y-104476535D01*
X108093633Y-104465101D01*
X108058897Y-104446534D01*
X108028452Y-104421548D01*
X108003466Y-104391103D01*
X107984899Y-104356367D01*
X107973465Y-104318674D01*
X107969000Y-104273339D01*
X107969000Y-103436661D01*
X107973465Y-103391326D01*
X107984899Y-103353633D01*
X108003466Y-103318897D01*
X108028452Y-103288452D01*
X108058897Y-103263466D01*
X108093633Y-103244899D01*
X108131326Y-103233465D01*
X108176661Y-103229000D01*
X109263339Y-103229000D01*
X109308674Y-103233465D01*
X109308674Y-103233465D01*
G37*
G36*
X104618674Y-103233465D02*
G01*
X104656367Y-103244899D01*
X104691103Y-103263466D01*
X104721548Y-103288452D01*
X104746534Y-103318897D01*
X104765101Y-103353633D01*
X104776535Y-103391326D01*
X104781000Y-103436661D01*
X104781000Y-104273339D01*
X104776535Y-104318674D01*
X104765101Y-104356367D01*
X104746534Y-104391103D01*
X104721548Y-104421548D01*
X104691103Y-104446534D01*
X104656367Y-104465101D01*
X104618674Y-104476535D01*
X104573339Y-104481000D01*
X103486661Y-104481000D01*
X103441326Y-104476535D01*
X103403633Y-104465101D01*
X103368897Y-104446534D01*
X103338452Y-104421548D01*
X103313466Y-104391103D01*
X103294899Y-104356367D01*
X103283465Y-104318674D01*
X103279000Y-104273339D01*
X103279000Y-103436661D01*
X103283465Y-103391326D01*
X103294899Y-103353633D01*
X103313466Y-103318897D01*
X103338452Y-103288452D01*
X103368897Y-103263466D01*
X103403633Y-103244899D01*
X103441326Y-103233465D01*
X103486661Y-103229000D01*
X104573339Y-103229000D01*
X104618674Y-103233465D01*
X104618674Y-103233465D01*
G37*
G36*
X101321000Y-104156000D02*
G01*
X99659000Y-104156000D01*
X99659000Y-101504000D01*
X101321000Y-101504000D01*
X101321000Y-104156000D01*
X101321000Y-104156000D01*
G37*
G36*
X98621000Y-104156000D02*
G01*
X96959000Y-104156000D01*
X96959000Y-101504000D01*
X98621000Y-101504000D01*
X98621000Y-104156000D01*
X98621000Y-104156000D01*
G37*
G36*
X142609928Y-102956764D02*
G01*
X142631009Y-102963160D01*
X142650445Y-102973548D01*
X142667476Y-102987524D01*
X142681452Y-103004555D01*
X142691840Y-103023991D01*
X142698236Y-103045072D01*
X142701000Y-103073140D01*
X142701000Y-103536860D01*
X142698236Y-103564928D01*
X142691840Y-103586009D01*
X142681452Y-103605445D01*
X142667476Y-103622476D01*
X142650445Y-103636452D01*
X142631009Y-103646840D01*
X142609928Y-103653236D01*
X142581860Y-103656000D01*
X140768140Y-103656000D01*
X140740072Y-103653236D01*
X140718991Y-103646840D01*
X140699555Y-103636452D01*
X140682524Y-103622476D01*
X140668548Y-103605445D01*
X140658160Y-103586009D01*
X140651764Y-103564928D01*
X140649000Y-103536860D01*
X140649000Y-103073140D01*
X140651764Y-103045072D01*
X140658160Y-103023991D01*
X140668548Y-103004555D01*
X140682524Y-102987524D01*
X140699555Y-102973548D01*
X140718991Y-102963160D01*
X140740072Y-102956764D01*
X140768140Y-102954000D01*
X142581860Y-102954000D01*
X142609928Y-102956764D01*
X142609928Y-102956764D01*
G37*
G36*
X132439928Y-102956764D02*
G01*
X132461009Y-102963160D01*
X132480445Y-102973548D01*
X132497476Y-102987524D01*
X132511452Y-103004555D01*
X132521840Y-103023991D01*
X132528236Y-103045072D01*
X132531000Y-103073140D01*
X132531000Y-103536860D01*
X132528236Y-103564928D01*
X132521840Y-103586009D01*
X132511452Y-103605445D01*
X132497476Y-103622476D01*
X132480445Y-103636452D01*
X132461009Y-103646840D01*
X132439928Y-103653236D01*
X132411860Y-103656000D01*
X130598140Y-103656000D01*
X130570072Y-103653236D01*
X130548991Y-103646840D01*
X130529555Y-103636452D01*
X130512524Y-103622476D01*
X130498548Y-103605445D01*
X130488160Y-103586009D01*
X130481764Y-103564928D01*
X130479000Y-103536860D01*
X130479000Y-103073140D01*
X130481764Y-103045072D01*
X130488160Y-103023991D01*
X130498548Y-103004555D01*
X130512524Y-102987524D01*
X130529555Y-102973548D01*
X130548991Y-102963160D01*
X130570072Y-102956764D01*
X130598140Y-102954000D01*
X132411860Y-102954000D01*
X132439928Y-102956764D01*
X132439928Y-102956764D01*
G37*
G36*
X147859928Y-102956764D02*
G01*
X147881009Y-102963160D01*
X147900445Y-102973548D01*
X147917476Y-102987524D01*
X147931452Y-103004555D01*
X147941840Y-103023991D01*
X147948236Y-103045072D01*
X147951000Y-103073140D01*
X147951000Y-103536860D01*
X147948236Y-103564928D01*
X147941840Y-103586009D01*
X147931452Y-103605445D01*
X147917476Y-103622476D01*
X147900445Y-103636452D01*
X147881009Y-103646840D01*
X147859928Y-103653236D01*
X147831860Y-103656000D01*
X146018140Y-103656000D01*
X145990072Y-103653236D01*
X145968991Y-103646840D01*
X145949555Y-103636452D01*
X145932524Y-103622476D01*
X145918548Y-103605445D01*
X145908160Y-103586009D01*
X145901764Y-103564928D01*
X145899000Y-103536860D01*
X145899000Y-103073140D01*
X145901764Y-103045072D01*
X145908160Y-103023991D01*
X145918548Y-103004555D01*
X145932524Y-102987524D01*
X145949555Y-102973548D01*
X145968991Y-102963160D01*
X145990072Y-102956764D01*
X146018140Y-102954000D01*
X147831860Y-102954000D01*
X147859928Y-102956764D01*
X147859928Y-102956764D01*
G37*
G36*
X127489928Y-102956764D02*
G01*
X127511009Y-102963160D01*
X127530445Y-102973548D01*
X127547476Y-102987524D01*
X127561452Y-103004555D01*
X127571840Y-103023991D01*
X127578236Y-103045072D01*
X127581000Y-103073140D01*
X127581000Y-103536860D01*
X127578236Y-103564928D01*
X127571840Y-103586009D01*
X127561452Y-103605445D01*
X127547476Y-103622476D01*
X127530445Y-103636452D01*
X127511009Y-103646840D01*
X127489928Y-103653236D01*
X127461860Y-103656000D01*
X125648140Y-103656000D01*
X125620072Y-103653236D01*
X125598991Y-103646840D01*
X125579555Y-103636452D01*
X125562524Y-103622476D01*
X125548548Y-103605445D01*
X125538160Y-103586009D01*
X125531764Y-103564928D01*
X125529000Y-103536860D01*
X125529000Y-103073140D01*
X125531764Y-103045072D01*
X125538160Y-103023991D01*
X125548548Y-103004555D01*
X125562524Y-102987524D01*
X125579555Y-102973548D01*
X125598991Y-102963160D01*
X125620072Y-102956764D01*
X125648140Y-102954000D01*
X127461860Y-102954000D01*
X127489928Y-102956764D01*
X127489928Y-102956764D01*
G37*
G36*
X137659928Y-102956764D02*
G01*
X137681009Y-102963160D01*
X137700445Y-102973548D01*
X137717476Y-102987524D01*
X137731452Y-103004555D01*
X137741840Y-103023991D01*
X137748236Y-103045072D01*
X137751000Y-103073140D01*
X137751000Y-103536860D01*
X137748236Y-103564928D01*
X137741840Y-103586009D01*
X137731452Y-103605445D01*
X137717476Y-103622476D01*
X137700445Y-103636452D01*
X137681009Y-103646840D01*
X137659928Y-103653236D01*
X137631860Y-103656000D01*
X135818140Y-103656000D01*
X135790072Y-103653236D01*
X135768991Y-103646840D01*
X135749555Y-103636452D01*
X135732524Y-103622476D01*
X135718548Y-103605445D01*
X135708160Y-103586009D01*
X135701764Y-103564928D01*
X135699000Y-103536860D01*
X135699000Y-103073140D01*
X135701764Y-103045072D01*
X135708160Y-103023991D01*
X135718548Y-103004555D01*
X135732524Y-102987524D01*
X135749555Y-102973548D01*
X135768991Y-102963160D01*
X135790072Y-102956764D01*
X135818140Y-102954000D01*
X137631860Y-102954000D01*
X137659928Y-102956764D01*
X137659928Y-102956764D01*
G37*
G36*
X152809928Y-102956764D02*
G01*
X152831009Y-102963160D01*
X152850445Y-102973548D01*
X152867476Y-102987524D01*
X152881452Y-103004555D01*
X152891840Y-103023991D01*
X152898236Y-103045072D01*
X152901000Y-103073140D01*
X152901000Y-103536860D01*
X152898236Y-103564928D01*
X152891840Y-103586009D01*
X152881452Y-103605445D01*
X152867476Y-103622476D01*
X152850445Y-103636452D01*
X152831009Y-103646840D01*
X152809928Y-103653236D01*
X152781860Y-103656000D01*
X150968140Y-103656000D01*
X150940072Y-103653236D01*
X150918991Y-103646840D01*
X150899555Y-103636452D01*
X150882524Y-103622476D01*
X150868548Y-103605445D01*
X150858160Y-103586009D01*
X150851764Y-103564928D01*
X150849000Y-103536860D01*
X150849000Y-103073140D01*
X150851764Y-103045072D01*
X150858160Y-103023991D01*
X150868548Y-103004555D01*
X150882524Y-102987524D01*
X150899555Y-102973548D01*
X150918991Y-102963160D01*
X150940072Y-102956764D01*
X150968140Y-102954000D01*
X152781860Y-102954000D01*
X152809928Y-102956764D01*
X152809928Y-102956764D01*
G37*
G36*
X116950443Y-101835519D02*
G01*
X117016627Y-101842037D01*
X117186466Y-101893557D01*
X117342991Y-101977222D01*
X117378729Y-102006552D01*
X117480186Y-102089814D01*
X117563448Y-102191271D01*
X117592778Y-102227009D01*
X117676443Y-102383534D01*
X117727963Y-102553373D01*
X117745359Y-102730000D01*
X117727963Y-102906627D01*
X117676443Y-103076466D01*
X117592778Y-103232991D01*
X117591761Y-103234230D01*
X117480186Y-103370186D01*
X117378729Y-103453448D01*
X117342991Y-103482778D01*
X117264729Y-103524610D01*
X117241812Y-103536860D01*
X117186466Y-103566443D01*
X117016627Y-103617963D01*
X116950443Y-103624481D01*
X116884260Y-103631000D01*
X116795740Y-103631000D01*
X116729557Y-103624481D01*
X116663373Y-103617963D01*
X116493534Y-103566443D01*
X116438189Y-103536860D01*
X116415271Y-103524610D01*
X116337009Y-103482778D01*
X116301271Y-103453448D01*
X116199814Y-103370186D01*
X116088239Y-103234230D01*
X116087222Y-103232991D01*
X116003557Y-103076466D01*
X115952037Y-102906627D01*
X115934641Y-102730000D01*
X115952037Y-102553373D01*
X116003557Y-102383534D01*
X116087222Y-102227009D01*
X116116552Y-102191271D01*
X116199814Y-102089814D01*
X116301271Y-102006552D01*
X116337009Y-101977222D01*
X116493534Y-101893557D01*
X116663373Y-101842037D01*
X116729557Y-101835519D01*
X116795740Y-101829000D01*
X116884260Y-101829000D01*
X116950443Y-101835519D01*
X116950443Y-101835519D01*
G37*
G36*
X115201000Y-103631000D02*
G01*
X113399000Y-103631000D01*
X113399000Y-101829000D01*
X115201000Y-101829000D01*
X115201000Y-103631000D01*
X115201000Y-103631000D01*
G37*
G36*
X94336000Y-103196000D02*
G01*
X91834000Y-103196000D01*
X91834000Y-101644000D01*
X94336000Y-101644000D01*
X94336000Y-103196000D01*
X94336000Y-103196000D01*
G37*
G36*
X104618674Y-101183465D02*
G01*
X104656367Y-101194899D01*
X104691103Y-101213466D01*
X104721548Y-101238452D01*
X104746534Y-101268897D01*
X104765101Y-101303633D01*
X104776535Y-101341326D01*
X104781000Y-101386661D01*
X104781000Y-102223339D01*
X104776535Y-102268674D01*
X104765101Y-102306367D01*
X104746534Y-102341103D01*
X104721548Y-102371548D01*
X104691103Y-102396534D01*
X104656367Y-102415101D01*
X104618674Y-102426535D01*
X104573339Y-102431000D01*
X103486661Y-102431000D01*
X103441326Y-102426535D01*
X103403633Y-102415101D01*
X103368897Y-102396534D01*
X103338452Y-102371548D01*
X103313466Y-102341103D01*
X103294899Y-102306367D01*
X103283465Y-102268674D01*
X103279000Y-102223339D01*
X103279000Y-101386661D01*
X103283465Y-101341326D01*
X103294899Y-101303633D01*
X103313466Y-101268897D01*
X103338452Y-101238452D01*
X103368897Y-101213466D01*
X103403633Y-101194899D01*
X103441326Y-101183465D01*
X103486661Y-101179000D01*
X104573339Y-101179000D01*
X104618674Y-101183465D01*
X104618674Y-101183465D01*
G37*
G36*
X109308674Y-101183465D02*
G01*
X109346367Y-101194899D01*
X109381103Y-101213466D01*
X109411548Y-101238452D01*
X109436534Y-101268897D01*
X109455101Y-101303633D01*
X109466535Y-101341326D01*
X109471000Y-101386661D01*
X109471000Y-102223339D01*
X109466535Y-102268674D01*
X109455101Y-102306367D01*
X109436534Y-102341103D01*
X109411548Y-102371548D01*
X109381103Y-102396534D01*
X109346367Y-102415101D01*
X109308674Y-102426535D01*
X109263339Y-102431000D01*
X108176661Y-102431000D01*
X108131326Y-102426535D01*
X108093633Y-102415101D01*
X108058897Y-102396534D01*
X108028452Y-102371548D01*
X108003466Y-102341103D01*
X107984899Y-102306367D01*
X107973465Y-102268674D01*
X107969000Y-102223339D01*
X107969000Y-101386661D01*
X107973465Y-101341326D01*
X107984899Y-101303633D01*
X108003466Y-101268897D01*
X108028452Y-101238452D01*
X108058897Y-101213466D01*
X108093633Y-101194899D01*
X108131326Y-101183465D01*
X108176661Y-101179000D01*
X109263339Y-101179000D01*
X109308674Y-101183465D01*
X109308674Y-101183465D01*
G37*
G36*
X131288674Y-99213465D02*
G01*
X131326367Y-99224899D01*
X131361103Y-99243466D01*
X131391548Y-99268452D01*
X131416534Y-99298897D01*
X131435101Y-99333633D01*
X131446535Y-99371326D01*
X131451000Y-99416661D01*
X131451000Y-100503339D01*
X131446535Y-100548674D01*
X131435101Y-100586367D01*
X131416534Y-100621103D01*
X131391548Y-100651548D01*
X131361103Y-100676534D01*
X131326367Y-100695101D01*
X131288674Y-100706535D01*
X131243339Y-100711000D01*
X130406661Y-100711000D01*
X130361326Y-100706535D01*
X130323633Y-100695101D01*
X130288897Y-100676534D01*
X130258452Y-100651548D01*
X130233466Y-100621103D01*
X130214899Y-100586367D01*
X130203465Y-100548674D01*
X130199000Y-100503339D01*
X130199000Y-99416661D01*
X130203465Y-99371326D01*
X130214899Y-99333633D01*
X130233466Y-99298897D01*
X130258452Y-99268452D01*
X130288897Y-99243466D01*
X130323633Y-99224899D01*
X130361326Y-99213465D01*
X130406661Y-99209000D01*
X131243339Y-99209000D01*
X131288674Y-99213465D01*
X131288674Y-99213465D01*
G37*
G36*
X145038674Y-99213465D02*
G01*
X145076367Y-99224899D01*
X145111103Y-99243466D01*
X145141548Y-99268452D01*
X145166534Y-99298897D01*
X145185101Y-99333633D01*
X145196535Y-99371326D01*
X145201000Y-99416661D01*
X145201000Y-100503339D01*
X145196535Y-100548674D01*
X145185101Y-100586367D01*
X145166534Y-100621103D01*
X145141548Y-100651548D01*
X145111103Y-100676534D01*
X145076367Y-100695101D01*
X145038674Y-100706535D01*
X144993339Y-100711000D01*
X144156661Y-100711000D01*
X144111326Y-100706535D01*
X144073633Y-100695101D01*
X144038897Y-100676534D01*
X144008452Y-100651548D01*
X143983466Y-100621103D01*
X143964899Y-100586367D01*
X143953465Y-100548674D01*
X143949000Y-100503339D01*
X143949000Y-99416661D01*
X143953465Y-99371326D01*
X143964899Y-99333633D01*
X143983466Y-99298897D01*
X144008452Y-99268452D01*
X144038897Y-99243466D01*
X144073633Y-99224899D01*
X144111326Y-99213465D01*
X144156661Y-99209000D01*
X144993339Y-99209000D01*
X145038674Y-99213465D01*
X145038674Y-99213465D01*
G37*
G36*
X142988674Y-99213465D02*
G01*
X143026367Y-99224899D01*
X143061103Y-99243466D01*
X143091548Y-99268452D01*
X143116534Y-99298897D01*
X143135101Y-99333633D01*
X143146535Y-99371326D01*
X143151000Y-99416661D01*
X143151000Y-100503339D01*
X143146535Y-100548674D01*
X143135101Y-100586367D01*
X143116534Y-100621103D01*
X143091548Y-100651548D01*
X143061103Y-100676534D01*
X143026367Y-100695101D01*
X142988674Y-100706535D01*
X142943339Y-100711000D01*
X142106661Y-100711000D01*
X142061326Y-100706535D01*
X142023633Y-100695101D01*
X141988897Y-100676534D01*
X141958452Y-100651548D01*
X141933466Y-100621103D01*
X141914899Y-100586367D01*
X141903465Y-100548674D01*
X141899000Y-100503339D01*
X141899000Y-99416661D01*
X141903465Y-99371326D01*
X141914899Y-99333633D01*
X141933466Y-99298897D01*
X141958452Y-99268452D01*
X141988897Y-99243466D01*
X142023633Y-99224899D01*
X142061326Y-99213465D01*
X142106661Y-99209000D01*
X142943339Y-99209000D01*
X142988674Y-99213465D01*
X142988674Y-99213465D01*
G37*
G36*
X139188674Y-99213465D02*
G01*
X139226367Y-99224899D01*
X139261103Y-99243466D01*
X139291548Y-99268452D01*
X139316534Y-99298897D01*
X139335101Y-99333633D01*
X139346535Y-99371326D01*
X139351000Y-99416661D01*
X139351000Y-100503339D01*
X139346535Y-100548674D01*
X139335101Y-100586367D01*
X139316534Y-100621103D01*
X139291548Y-100651548D01*
X139261103Y-100676534D01*
X139226367Y-100695101D01*
X139188674Y-100706535D01*
X139143339Y-100711000D01*
X138306661Y-100711000D01*
X138261326Y-100706535D01*
X138223633Y-100695101D01*
X138188897Y-100676534D01*
X138158452Y-100651548D01*
X138133466Y-100621103D01*
X138114899Y-100586367D01*
X138103465Y-100548674D01*
X138099000Y-100503339D01*
X138099000Y-99416661D01*
X138103465Y-99371326D01*
X138114899Y-99333633D01*
X138133466Y-99298897D01*
X138158452Y-99268452D01*
X138188897Y-99243466D01*
X138223633Y-99224899D01*
X138261326Y-99213465D01*
X138306661Y-99209000D01*
X139143339Y-99209000D01*
X139188674Y-99213465D01*
X139188674Y-99213465D01*
G37*
G36*
X137138674Y-99213465D02*
G01*
X137176367Y-99224899D01*
X137211103Y-99243466D01*
X137241548Y-99268452D01*
X137266534Y-99298897D01*
X137285101Y-99333633D01*
X137296535Y-99371326D01*
X137301000Y-99416661D01*
X137301000Y-100503339D01*
X137296535Y-100548674D01*
X137285101Y-100586367D01*
X137266534Y-100621103D01*
X137241548Y-100651548D01*
X137211103Y-100676534D01*
X137176367Y-100695101D01*
X137138674Y-100706535D01*
X137093339Y-100711000D01*
X136256661Y-100711000D01*
X136211326Y-100706535D01*
X136173633Y-100695101D01*
X136138897Y-100676534D01*
X136108452Y-100651548D01*
X136083466Y-100621103D01*
X136064899Y-100586367D01*
X136053465Y-100548674D01*
X136049000Y-100503339D01*
X136049000Y-99416661D01*
X136053465Y-99371326D01*
X136064899Y-99333633D01*
X136083466Y-99298897D01*
X136108452Y-99268452D01*
X136138897Y-99243466D01*
X136173633Y-99224899D01*
X136211326Y-99213465D01*
X136256661Y-99209000D01*
X137093339Y-99209000D01*
X137138674Y-99213465D01*
X137138674Y-99213465D01*
G37*
G36*
X133338674Y-99213465D02*
G01*
X133376367Y-99224899D01*
X133411103Y-99243466D01*
X133441548Y-99268452D01*
X133466534Y-99298897D01*
X133485101Y-99333633D01*
X133496535Y-99371326D01*
X133501000Y-99416661D01*
X133501000Y-100503339D01*
X133496535Y-100548674D01*
X133485101Y-100586367D01*
X133466534Y-100621103D01*
X133441548Y-100651548D01*
X133411103Y-100676534D01*
X133376367Y-100695101D01*
X133338674Y-100706535D01*
X133293339Y-100711000D01*
X132456661Y-100711000D01*
X132411326Y-100706535D01*
X132373633Y-100695101D01*
X132338897Y-100676534D01*
X132308452Y-100651548D01*
X132283466Y-100621103D01*
X132264899Y-100586367D01*
X132253465Y-100548674D01*
X132249000Y-100503339D01*
X132249000Y-99416661D01*
X132253465Y-99371326D01*
X132264899Y-99333633D01*
X132283466Y-99298897D01*
X132308452Y-99268452D01*
X132338897Y-99243466D01*
X132373633Y-99224899D01*
X132411326Y-99213465D01*
X132456661Y-99209000D01*
X133293339Y-99209000D01*
X133338674Y-99213465D01*
X133338674Y-99213465D01*
G37*
G36*
X125438674Y-99213465D02*
G01*
X125476367Y-99224899D01*
X125511103Y-99243466D01*
X125541548Y-99268452D01*
X125566534Y-99298897D01*
X125585101Y-99333633D01*
X125596535Y-99371326D01*
X125601000Y-99416661D01*
X125601000Y-100503339D01*
X125596535Y-100548674D01*
X125585101Y-100586367D01*
X125566534Y-100621103D01*
X125541548Y-100651548D01*
X125511103Y-100676534D01*
X125476367Y-100695101D01*
X125438674Y-100706535D01*
X125393339Y-100711000D01*
X124556661Y-100711000D01*
X124511326Y-100706535D01*
X124473633Y-100695101D01*
X124438897Y-100676534D01*
X124408452Y-100651548D01*
X124383466Y-100621103D01*
X124364899Y-100586367D01*
X124353465Y-100548674D01*
X124349000Y-100503339D01*
X124349000Y-99416661D01*
X124353465Y-99371326D01*
X124364899Y-99333633D01*
X124383466Y-99298897D01*
X124408452Y-99268452D01*
X124438897Y-99243466D01*
X124473633Y-99224899D01*
X124511326Y-99213465D01*
X124556661Y-99209000D01*
X125393339Y-99209000D01*
X125438674Y-99213465D01*
X125438674Y-99213465D01*
G37*
G36*
X127488674Y-99213465D02*
G01*
X127526367Y-99224899D01*
X127561103Y-99243466D01*
X127591548Y-99268452D01*
X127616534Y-99298897D01*
X127635101Y-99333633D01*
X127646535Y-99371326D01*
X127651000Y-99416661D01*
X127651000Y-100503339D01*
X127646535Y-100548674D01*
X127635101Y-100586367D01*
X127616534Y-100621103D01*
X127591548Y-100651548D01*
X127561103Y-100676534D01*
X127526367Y-100695101D01*
X127488674Y-100706535D01*
X127443339Y-100711000D01*
X126606661Y-100711000D01*
X126561326Y-100706535D01*
X126523633Y-100695101D01*
X126488897Y-100676534D01*
X126458452Y-100651548D01*
X126433466Y-100621103D01*
X126414899Y-100586367D01*
X126403465Y-100548674D01*
X126399000Y-100503339D01*
X126399000Y-99416661D01*
X126403465Y-99371326D01*
X126414899Y-99333633D01*
X126433466Y-99298897D01*
X126458452Y-99268452D01*
X126488897Y-99243466D01*
X126523633Y-99224899D01*
X126561326Y-99213465D01*
X126606661Y-99209000D01*
X127443339Y-99209000D01*
X127488674Y-99213465D01*
X127488674Y-99213465D01*
G37*
G36*
X154688674Y-99213465D02*
G01*
X154726367Y-99224899D01*
X154761103Y-99243466D01*
X154791548Y-99268452D01*
X154816534Y-99298897D01*
X154835101Y-99333633D01*
X154846535Y-99371326D01*
X154851000Y-99416661D01*
X154851000Y-100503339D01*
X154846535Y-100548674D01*
X154835101Y-100586367D01*
X154816534Y-100621103D01*
X154791548Y-100651548D01*
X154761103Y-100676534D01*
X154726367Y-100695101D01*
X154688674Y-100706535D01*
X154643339Y-100711000D01*
X153806661Y-100711000D01*
X153761326Y-100706535D01*
X153723633Y-100695101D01*
X153688897Y-100676534D01*
X153658452Y-100651548D01*
X153633466Y-100621103D01*
X153614899Y-100586367D01*
X153603465Y-100548674D01*
X153599000Y-100503339D01*
X153599000Y-99416661D01*
X153603465Y-99371326D01*
X153614899Y-99333633D01*
X153633466Y-99298897D01*
X153658452Y-99268452D01*
X153688897Y-99243466D01*
X153723633Y-99224899D01*
X153761326Y-99213465D01*
X153806661Y-99209000D01*
X154643339Y-99209000D01*
X154688674Y-99213465D01*
X154688674Y-99213465D01*
G37*
G36*
X148838674Y-99213465D02*
G01*
X148876367Y-99224899D01*
X148911103Y-99243466D01*
X148941548Y-99268452D01*
X148966534Y-99298897D01*
X148985101Y-99333633D01*
X148996535Y-99371326D01*
X149001000Y-99416661D01*
X149001000Y-100503339D01*
X148996535Y-100548674D01*
X148985101Y-100586367D01*
X148966534Y-100621103D01*
X148941548Y-100651548D01*
X148911103Y-100676534D01*
X148876367Y-100695101D01*
X148838674Y-100706535D01*
X148793339Y-100711000D01*
X147956661Y-100711000D01*
X147911326Y-100706535D01*
X147873633Y-100695101D01*
X147838897Y-100676534D01*
X147808452Y-100651548D01*
X147783466Y-100621103D01*
X147764899Y-100586367D01*
X147753465Y-100548674D01*
X147749000Y-100503339D01*
X147749000Y-99416661D01*
X147753465Y-99371326D01*
X147764899Y-99333633D01*
X147783466Y-99298897D01*
X147808452Y-99268452D01*
X147838897Y-99243466D01*
X147873633Y-99224899D01*
X147911326Y-99213465D01*
X147956661Y-99209000D01*
X148793339Y-99209000D01*
X148838674Y-99213465D01*
X148838674Y-99213465D01*
G37*
G36*
X150888674Y-99213465D02*
G01*
X150926367Y-99224899D01*
X150961103Y-99243466D01*
X150991548Y-99268452D01*
X151016534Y-99298897D01*
X151035101Y-99333633D01*
X151046535Y-99371326D01*
X151051000Y-99416661D01*
X151051000Y-100503339D01*
X151046535Y-100548674D01*
X151035101Y-100586367D01*
X151016534Y-100621103D01*
X150991548Y-100651548D01*
X150961103Y-100676534D01*
X150926367Y-100695101D01*
X150888674Y-100706535D01*
X150843339Y-100711000D01*
X150006661Y-100711000D01*
X149961326Y-100706535D01*
X149923633Y-100695101D01*
X149888897Y-100676534D01*
X149858452Y-100651548D01*
X149833466Y-100621103D01*
X149814899Y-100586367D01*
X149803465Y-100548674D01*
X149799000Y-100503339D01*
X149799000Y-99416661D01*
X149803465Y-99371326D01*
X149814899Y-99333633D01*
X149833466Y-99298897D01*
X149858452Y-99268452D01*
X149888897Y-99243466D01*
X149923633Y-99224899D01*
X149961326Y-99213465D01*
X150006661Y-99209000D01*
X150843339Y-99209000D01*
X150888674Y-99213465D01*
X150888674Y-99213465D01*
G37*
G36*
X156738674Y-99213465D02*
G01*
X156776367Y-99224899D01*
X156811103Y-99243466D01*
X156841548Y-99268452D01*
X156866534Y-99298897D01*
X156885101Y-99333633D01*
X156896535Y-99371326D01*
X156901000Y-99416661D01*
X156901000Y-100503339D01*
X156896535Y-100548674D01*
X156885101Y-100586367D01*
X156866534Y-100621103D01*
X156841548Y-100651548D01*
X156811103Y-100676534D01*
X156776367Y-100695101D01*
X156738674Y-100706535D01*
X156693339Y-100711000D01*
X155856661Y-100711000D01*
X155811326Y-100706535D01*
X155773633Y-100695101D01*
X155738897Y-100676534D01*
X155708452Y-100651548D01*
X155683466Y-100621103D01*
X155664899Y-100586367D01*
X155653465Y-100548674D01*
X155649000Y-100503339D01*
X155649000Y-99416661D01*
X155653465Y-99371326D01*
X155664899Y-99333633D01*
X155683466Y-99298897D01*
X155708452Y-99268452D01*
X155738897Y-99243466D01*
X155773633Y-99224899D01*
X155811326Y-99213465D01*
X155856661Y-99209000D01*
X156693339Y-99209000D01*
X156738674Y-99213465D01*
X156738674Y-99213465D01*
G37*
G36*
X116890443Y-96805519D02*
G01*
X116956627Y-96812037D01*
X117126466Y-96863557D01*
X117282991Y-96947222D01*
X117308225Y-96967931D01*
X117420186Y-97059814D01*
X117503448Y-97161271D01*
X117532778Y-97197009D01*
X117616443Y-97353534D01*
X117667963Y-97523373D01*
X117685359Y-97700000D01*
X117667963Y-97876627D01*
X117616443Y-98046466D01*
X117532778Y-98202991D01*
X117503448Y-98238729D01*
X117420186Y-98340186D01*
X117323250Y-98419738D01*
X117282991Y-98452778D01*
X117282989Y-98452779D01*
X117175105Y-98510445D01*
X117126466Y-98536443D01*
X116956627Y-98587963D01*
X116890442Y-98594482D01*
X116824260Y-98601000D01*
X116735740Y-98601000D01*
X116669558Y-98594482D01*
X116603373Y-98587963D01*
X116433534Y-98536443D01*
X116384896Y-98510445D01*
X116277011Y-98452779D01*
X116277009Y-98452778D01*
X116236750Y-98419738D01*
X116139814Y-98340186D01*
X116056552Y-98238729D01*
X116027222Y-98202991D01*
X115943557Y-98046466D01*
X115892037Y-97876627D01*
X115874641Y-97700000D01*
X115892037Y-97523373D01*
X115943557Y-97353534D01*
X116027222Y-97197009D01*
X116056552Y-97161271D01*
X116139814Y-97059814D01*
X116251775Y-96967931D01*
X116277009Y-96947222D01*
X116433534Y-96863557D01*
X116603373Y-96812037D01*
X116669558Y-96805518D01*
X116735740Y-96799000D01*
X116824260Y-96799000D01*
X116890443Y-96805519D01*
X116890443Y-96805519D01*
G37*
G36*
X115141000Y-98601000D02*
G01*
X113339000Y-98601000D01*
X113339000Y-96799000D01*
X115141000Y-96799000D01*
X115141000Y-98601000D01*
X115141000Y-98601000D01*
G37*
G36*
X109789928Y-97861764D02*
G01*
X109811009Y-97868160D01*
X109830445Y-97878548D01*
X109847476Y-97892524D01*
X109861452Y-97909555D01*
X109871840Y-97928991D01*
X109878236Y-97950072D01*
X109881000Y-97978140D01*
X109881000Y-98441860D01*
X109878236Y-98469928D01*
X109871840Y-98491009D01*
X109861452Y-98510445D01*
X109847476Y-98527476D01*
X109830445Y-98541452D01*
X109811009Y-98551840D01*
X109789928Y-98558236D01*
X109761860Y-98561000D01*
X108148140Y-98561000D01*
X108120072Y-98558236D01*
X108098991Y-98551840D01*
X108079555Y-98541452D01*
X108062524Y-98527476D01*
X108048548Y-98510445D01*
X108038160Y-98491009D01*
X108031764Y-98469928D01*
X108029000Y-98441860D01*
X108029000Y-97978140D01*
X108031764Y-97950072D01*
X108038160Y-97928991D01*
X108048548Y-97909555D01*
X108062524Y-97892524D01*
X108079555Y-97878548D01*
X108098991Y-97868160D01*
X108120072Y-97861764D01*
X108148140Y-97859000D01*
X109761860Y-97859000D01*
X109789928Y-97861764D01*
X109789928Y-97861764D01*
G37*
G36*
X104639928Y-97861764D02*
G01*
X104661009Y-97868160D01*
X104680445Y-97878548D01*
X104697476Y-97892524D01*
X104711452Y-97909555D01*
X104721840Y-97928991D01*
X104728236Y-97950072D01*
X104731000Y-97978140D01*
X104731000Y-98441860D01*
X104728236Y-98469928D01*
X104721840Y-98491009D01*
X104711452Y-98510445D01*
X104697476Y-98527476D01*
X104680445Y-98541452D01*
X104661009Y-98551840D01*
X104639928Y-98558236D01*
X104611860Y-98561000D01*
X102998140Y-98561000D01*
X102970072Y-98558236D01*
X102948991Y-98551840D01*
X102929555Y-98541452D01*
X102912524Y-98527476D01*
X102898548Y-98510445D01*
X102888160Y-98491009D01*
X102881764Y-98469928D01*
X102879000Y-98441860D01*
X102879000Y-97978140D01*
X102881764Y-97950072D01*
X102888160Y-97928991D01*
X102898548Y-97909555D01*
X102912524Y-97892524D01*
X102929555Y-97878548D01*
X102948991Y-97868160D01*
X102970072Y-97861764D01*
X102998140Y-97859000D01*
X104611860Y-97859000D01*
X104639928Y-97861764D01*
X104639928Y-97861764D01*
G37*
G36*
X99878674Y-96263465D02*
G01*
X99916367Y-96274899D01*
X99951103Y-96293466D01*
X99981548Y-96318452D01*
X100006534Y-96348897D01*
X100025101Y-96383633D01*
X100036535Y-96421326D01*
X100041000Y-96466661D01*
X100041000Y-97303339D01*
X100036535Y-97348674D01*
X100025101Y-97386367D01*
X100006534Y-97421103D01*
X99981548Y-97451548D01*
X99951103Y-97476534D01*
X99916367Y-97495101D01*
X99878674Y-97506535D01*
X99833339Y-97511000D01*
X98746661Y-97511000D01*
X98701326Y-97506535D01*
X98663633Y-97495101D01*
X98628897Y-97476534D01*
X98598452Y-97451548D01*
X98573466Y-97421103D01*
X98554899Y-97386367D01*
X98543465Y-97348674D01*
X98539000Y-97303339D01*
X98539000Y-96466661D01*
X98543465Y-96421326D01*
X98554899Y-96383633D01*
X98573466Y-96348897D01*
X98598452Y-96318452D01*
X98628897Y-96293466D01*
X98663633Y-96274899D01*
X98701326Y-96263465D01*
X98746661Y-96259000D01*
X99833339Y-96259000D01*
X99878674Y-96263465D01*
X99878674Y-96263465D01*
G37*
G36*
X104639928Y-96591764D02*
G01*
X104661009Y-96598160D01*
X104680445Y-96608548D01*
X104697476Y-96622524D01*
X104711452Y-96639555D01*
X104721840Y-96658991D01*
X104728236Y-96680072D01*
X104731000Y-96708140D01*
X104731000Y-97171860D01*
X104728236Y-97199928D01*
X104721840Y-97221009D01*
X104711452Y-97240445D01*
X104697476Y-97257476D01*
X104680445Y-97271452D01*
X104661009Y-97281840D01*
X104639928Y-97288236D01*
X104611860Y-97291000D01*
X102998140Y-97291000D01*
X102970072Y-97288236D01*
X102948991Y-97281840D01*
X102929555Y-97271452D01*
X102912524Y-97257476D01*
X102898548Y-97240445D01*
X102888160Y-97221009D01*
X102881764Y-97199928D01*
X102879000Y-97171860D01*
X102879000Y-96708140D01*
X102881764Y-96680072D01*
X102888160Y-96658991D01*
X102898548Y-96639555D01*
X102912524Y-96622524D01*
X102929555Y-96608548D01*
X102948991Y-96598160D01*
X102970072Y-96591764D01*
X102998140Y-96589000D01*
X104611860Y-96589000D01*
X104639928Y-96591764D01*
X104639928Y-96591764D01*
G37*
G36*
X109789928Y-96591764D02*
G01*
X109811009Y-96598160D01*
X109830445Y-96608548D01*
X109847476Y-96622524D01*
X109861452Y-96639555D01*
X109871840Y-96658991D01*
X109878236Y-96680072D01*
X109881000Y-96708140D01*
X109881000Y-97171860D01*
X109878236Y-97199928D01*
X109871840Y-97221009D01*
X109861452Y-97240445D01*
X109847476Y-97257476D01*
X109830445Y-97271452D01*
X109811009Y-97281840D01*
X109789928Y-97288236D01*
X109761860Y-97291000D01*
X108148140Y-97291000D01*
X108120072Y-97288236D01*
X108098991Y-97281840D01*
X108079555Y-97271452D01*
X108062524Y-97257476D01*
X108048548Y-97240445D01*
X108038160Y-97221009D01*
X108031764Y-97199928D01*
X108029000Y-97171860D01*
X108029000Y-96708140D01*
X108031764Y-96680072D01*
X108038160Y-96658991D01*
X108048548Y-96639555D01*
X108062524Y-96622524D01*
X108079555Y-96608548D01*
X108098991Y-96598160D01*
X108120072Y-96591764D01*
X108148140Y-96589000D01*
X109761860Y-96589000D01*
X109789928Y-96591764D01*
X109789928Y-96591764D01*
G37*
G36*
X93709487Y-94563996D02*
G01*
X93946253Y-94662068D01*
X93946255Y-94662069D01*
X94159339Y-94804447D01*
X94340553Y-94985661D01*
X94359948Y-95014687D01*
X94482932Y-95198747D01*
X94581004Y-95435513D01*
X94631000Y-95686861D01*
X94631000Y-95943139D01*
X94581004Y-96194487D01*
X94482932Y-96431253D01*
X94482931Y-96431255D01*
X94340553Y-96644339D01*
X94159339Y-96825553D01*
X93946255Y-96967931D01*
X93946254Y-96967932D01*
X93946253Y-96967932D01*
X93709487Y-97066004D01*
X93458139Y-97116000D01*
X93201861Y-97116000D01*
X92950513Y-97066004D01*
X92713747Y-96967932D01*
X92713746Y-96967932D01*
X92713745Y-96967931D01*
X92500661Y-96825553D01*
X92319447Y-96644339D01*
X92177069Y-96431255D01*
X92177068Y-96431253D01*
X92078996Y-96194487D01*
X92029000Y-95943139D01*
X92029000Y-95686861D01*
X92078996Y-95435513D01*
X92177068Y-95198747D01*
X92300053Y-95014687D01*
X92319447Y-94985661D01*
X92500661Y-94804447D01*
X92713745Y-94662069D01*
X92713747Y-94662068D01*
X92950513Y-94563996D01*
X93201861Y-94514000D01*
X93458139Y-94514000D01*
X93709487Y-94563996D01*
X93709487Y-94563996D01*
G37*
G36*
X109789928Y-95321764D02*
G01*
X109811009Y-95328160D01*
X109830445Y-95338548D01*
X109847476Y-95352524D01*
X109861452Y-95369555D01*
X109871840Y-95388991D01*
X109878236Y-95410072D01*
X109881000Y-95438140D01*
X109881000Y-95901860D01*
X109878236Y-95929928D01*
X109871840Y-95951009D01*
X109861452Y-95970445D01*
X109847476Y-95987476D01*
X109830445Y-96001452D01*
X109811009Y-96011840D01*
X109789928Y-96018236D01*
X109761860Y-96021000D01*
X108148140Y-96021000D01*
X108120072Y-96018236D01*
X108098991Y-96011840D01*
X108079555Y-96001452D01*
X108062524Y-95987476D01*
X108048548Y-95970445D01*
X108038160Y-95951009D01*
X108031764Y-95929928D01*
X108029000Y-95901860D01*
X108029000Y-95438140D01*
X108031764Y-95410072D01*
X108038160Y-95388991D01*
X108048548Y-95369555D01*
X108062524Y-95352524D01*
X108079555Y-95338548D01*
X108098991Y-95328160D01*
X108120072Y-95321764D01*
X108148140Y-95319000D01*
X109761860Y-95319000D01*
X109789928Y-95321764D01*
X109789928Y-95321764D01*
G37*
G36*
X104639928Y-95321764D02*
G01*
X104661009Y-95328160D01*
X104680445Y-95338548D01*
X104697476Y-95352524D01*
X104711452Y-95369555D01*
X104721840Y-95388991D01*
X104728236Y-95410072D01*
X104731000Y-95438140D01*
X104731000Y-95901860D01*
X104728236Y-95929928D01*
X104721840Y-95951009D01*
X104711452Y-95970445D01*
X104697476Y-95987476D01*
X104680445Y-96001452D01*
X104661009Y-96011840D01*
X104639928Y-96018236D01*
X104611860Y-96021000D01*
X102998140Y-96021000D01*
X102970072Y-96018236D01*
X102948991Y-96011840D01*
X102929555Y-96001452D01*
X102912524Y-95987476D01*
X102898548Y-95970445D01*
X102888160Y-95951009D01*
X102881764Y-95929928D01*
X102879000Y-95901860D01*
X102879000Y-95438140D01*
X102881764Y-95410072D01*
X102888160Y-95388991D01*
X102898548Y-95369555D01*
X102912524Y-95352524D01*
X102929555Y-95338548D01*
X102948991Y-95328160D01*
X102970072Y-95321764D01*
X102998140Y-95319000D01*
X104611860Y-95319000D01*
X104639928Y-95321764D01*
X104639928Y-95321764D01*
G37*
G36*
X99878674Y-94213465D02*
G01*
X99916367Y-94224899D01*
X99951103Y-94243466D01*
X99981548Y-94268452D01*
X100006534Y-94298897D01*
X100025101Y-94333633D01*
X100036535Y-94371326D01*
X100041000Y-94416661D01*
X100041000Y-95253339D01*
X100036535Y-95298674D01*
X100025101Y-95336367D01*
X100006534Y-95371103D01*
X99981548Y-95401548D01*
X99951103Y-95426534D01*
X99916367Y-95445101D01*
X99878674Y-95456535D01*
X99833339Y-95461000D01*
X98746661Y-95461000D01*
X98701326Y-95456535D01*
X98663633Y-95445101D01*
X98628897Y-95426534D01*
X98598452Y-95401548D01*
X98573466Y-95371103D01*
X98554899Y-95336367D01*
X98543465Y-95298674D01*
X98539000Y-95253339D01*
X98539000Y-94416661D01*
X98543465Y-94371326D01*
X98554899Y-94333633D01*
X98573466Y-94298897D01*
X98598452Y-94268452D01*
X98628897Y-94243466D01*
X98663633Y-94224899D01*
X98701326Y-94213465D01*
X98746661Y-94209000D01*
X99833339Y-94209000D01*
X99878674Y-94213465D01*
X99878674Y-94213465D01*
G37*
G36*
X132246822Y-92437313D02*
G01*
X132407241Y-92485976D01*
X132555077Y-92564995D01*
X132684659Y-92671341D01*
X132791004Y-92800922D01*
X132791005Y-92800924D01*
X132870024Y-92948758D01*
X132918687Y-93109177D01*
X132931000Y-93234196D01*
X132931000Y-94217803D01*
X132918687Y-94342823D01*
X132870024Y-94503242D01*
X132831401Y-94575500D01*
X132791004Y-94651078D01*
X132684659Y-94780659D01*
X132555078Y-94887004D01*
X132555076Y-94887005D01*
X132407242Y-94966024D01*
X132246823Y-95014687D01*
X132080000Y-95031117D01*
X131913178Y-95014687D01*
X131752759Y-94966024D01*
X131604925Y-94887005D01*
X131604923Y-94887004D01*
X131475342Y-94780659D01*
X131368997Y-94651078D01*
X131328600Y-94575500D01*
X131289977Y-94503242D01*
X131241314Y-94342823D01*
X131229000Y-94217803D01*
X131229000Y-93234197D01*
X131241313Y-93109178D01*
X131289976Y-92948759D01*
X131368995Y-92800923D01*
X131475341Y-92671341D01*
X131604922Y-92564996D01*
X131620094Y-92556886D01*
X131752758Y-92485976D01*
X131913177Y-92437313D01*
X132080000Y-92420883D01*
X132246822Y-92437313D01*
X132246822Y-92437313D01*
G37*
G36*
X129706822Y-92437313D02*
G01*
X129867241Y-92485976D01*
X130015077Y-92564995D01*
X130144659Y-92671341D01*
X130251004Y-92800922D01*
X130251005Y-92800924D01*
X130330024Y-92948758D01*
X130378687Y-93109177D01*
X130391000Y-93234196D01*
X130391000Y-94217803D01*
X130378687Y-94342823D01*
X130330024Y-94503242D01*
X130291401Y-94575500D01*
X130251004Y-94651078D01*
X130144659Y-94780659D01*
X130015078Y-94887004D01*
X130015076Y-94887005D01*
X129867242Y-94966024D01*
X129706823Y-95014687D01*
X129540000Y-95031117D01*
X129373178Y-95014687D01*
X129212759Y-94966024D01*
X129064925Y-94887005D01*
X129064923Y-94887004D01*
X128935342Y-94780659D01*
X128828997Y-94651078D01*
X128788600Y-94575500D01*
X128749977Y-94503242D01*
X128701314Y-94342823D01*
X128689000Y-94217803D01*
X128689000Y-93234197D01*
X128701313Y-93109178D01*
X128749976Y-92948759D01*
X128828995Y-92800923D01*
X128935341Y-92671341D01*
X129064922Y-92564996D01*
X129080094Y-92556886D01*
X129212758Y-92485976D01*
X129373177Y-92437313D01*
X129540000Y-92420883D01*
X129706822Y-92437313D01*
X129706822Y-92437313D01*
G37*
G36*
X151012822Y-92437313D02*
G01*
X151173241Y-92485976D01*
X151321077Y-92564995D01*
X151450659Y-92671341D01*
X151557004Y-92800922D01*
X151557005Y-92800924D01*
X151636024Y-92948758D01*
X151684687Y-93109177D01*
X151697000Y-93234196D01*
X151697000Y-94217803D01*
X151684687Y-94342823D01*
X151636024Y-94503242D01*
X151597401Y-94575500D01*
X151557004Y-94651078D01*
X151450659Y-94780659D01*
X151321078Y-94887004D01*
X151321076Y-94887005D01*
X151173242Y-94966024D01*
X151012823Y-95014687D01*
X150846000Y-95031117D01*
X150679178Y-95014687D01*
X150518759Y-94966024D01*
X150370925Y-94887005D01*
X150370923Y-94887004D01*
X150241342Y-94780659D01*
X150134997Y-94651078D01*
X150094600Y-94575500D01*
X150055977Y-94503242D01*
X150007314Y-94342823D01*
X149995000Y-94217803D01*
X149995000Y-93234197D01*
X150007313Y-93109178D01*
X150055976Y-92948759D01*
X150134995Y-92800923D01*
X150241341Y-92671341D01*
X150370922Y-92564996D01*
X150386094Y-92556886D01*
X150518758Y-92485976D01*
X150679177Y-92437313D01*
X150846000Y-92420883D01*
X151012822Y-92437313D01*
X151012822Y-92437313D01*
G37*
G36*
X153552822Y-92437313D02*
G01*
X153713241Y-92485976D01*
X153861077Y-92564995D01*
X153990659Y-92671341D01*
X154097004Y-92800922D01*
X154097005Y-92800924D01*
X154176024Y-92948758D01*
X154224687Y-93109177D01*
X154237000Y-93234196D01*
X154237000Y-94217803D01*
X154224687Y-94342823D01*
X154176024Y-94503242D01*
X154137401Y-94575500D01*
X154097004Y-94651078D01*
X153990659Y-94780659D01*
X153861078Y-94887004D01*
X153861076Y-94887005D01*
X153713242Y-94966024D01*
X153552823Y-95014687D01*
X153386000Y-95031117D01*
X153219178Y-95014687D01*
X153058759Y-94966024D01*
X152910925Y-94887005D01*
X152910923Y-94887004D01*
X152781342Y-94780659D01*
X152674997Y-94651078D01*
X152634600Y-94575500D01*
X152595977Y-94503242D01*
X152547314Y-94342823D01*
X152535000Y-94217803D01*
X152535000Y-93234197D01*
X152547313Y-93109178D01*
X152595976Y-92948759D01*
X152674995Y-92800923D01*
X152781341Y-92671341D01*
X152910922Y-92564996D01*
X152926094Y-92556886D01*
X153058758Y-92485976D01*
X153219177Y-92437313D01*
X153386000Y-92420883D01*
X153552822Y-92437313D01*
X153552822Y-92437313D01*
G37*
G36*
X104639928Y-94051764D02*
G01*
X104661009Y-94058160D01*
X104680445Y-94068548D01*
X104697476Y-94082524D01*
X104711452Y-94099555D01*
X104721840Y-94118991D01*
X104728236Y-94140072D01*
X104731000Y-94168140D01*
X104731000Y-94631860D01*
X104728236Y-94659928D01*
X104721840Y-94681009D01*
X104711452Y-94700445D01*
X104697476Y-94717476D01*
X104680445Y-94731452D01*
X104661009Y-94741840D01*
X104639928Y-94748236D01*
X104611860Y-94751000D01*
X102998140Y-94751000D01*
X102970072Y-94748236D01*
X102948991Y-94741840D01*
X102929555Y-94731452D01*
X102912524Y-94717476D01*
X102898548Y-94700445D01*
X102888160Y-94681009D01*
X102881764Y-94659928D01*
X102879000Y-94631860D01*
X102879000Y-94168140D01*
X102881764Y-94140072D01*
X102888160Y-94118991D01*
X102898548Y-94099555D01*
X102912524Y-94082524D01*
X102929555Y-94068548D01*
X102948991Y-94058160D01*
X102970072Y-94051764D01*
X102998140Y-94049000D01*
X104611860Y-94049000D01*
X104639928Y-94051764D01*
X104639928Y-94051764D01*
G37*
G36*
X109789928Y-94051764D02*
G01*
X109811009Y-94058160D01*
X109830445Y-94068548D01*
X109847476Y-94082524D01*
X109861452Y-94099555D01*
X109871840Y-94118991D01*
X109878236Y-94140072D01*
X109881000Y-94168140D01*
X109881000Y-94631860D01*
X109878236Y-94659928D01*
X109871840Y-94681009D01*
X109861452Y-94700445D01*
X109847476Y-94717476D01*
X109830445Y-94731452D01*
X109811009Y-94741840D01*
X109789928Y-94748236D01*
X109761860Y-94751000D01*
X108148140Y-94751000D01*
X108120072Y-94748236D01*
X108098991Y-94741840D01*
X108079555Y-94731452D01*
X108062524Y-94717476D01*
X108048548Y-94700445D01*
X108038160Y-94681009D01*
X108031764Y-94659928D01*
X108029000Y-94631860D01*
X108029000Y-94168140D01*
X108031764Y-94140072D01*
X108038160Y-94118991D01*
X108048548Y-94099555D01*
X108062524Y-94082524D01*
X108079555Y-94068548D01*
X108098991Y-94058160D01*
X108120072Y-94051764D01*
X108148140Y-94049000D01*
X109761860Y-94049000D01*
X109789928Y-94051764D01*
X109789928Y-94051764D01*
G37*
G36*
X116121000Y-93671000D02*
G01*
X114819000Y-93671000D01*
X114819000Y-92369000D01*
X116121000Y-92369000D01*
X116121000Y-93671000D01*
X116121000Y-93671000D01*
G37*
G36*
X104688674Y-90983465D02*
G01*
X104726367Y-90994899D01*
X104761103Y-91013466D01*
X104791548Y-91038452D01*
X104816534Y-91068897D01*
X104835101Y-91103633D01*
X104846535Y-91141326D01*
X104851000Y-91186661D01*
X104851000Y-92023339D01*
X104846535Y-92068674D01*
X104835101Y-92106367D01*
X104816534Y-92141103D01*
X104791548Y-92171548D01*
X104761103Y-92196534D01*
X104726367Y-92215101D01*
X104688674Y-92226535D01*
X104643339Y-92231000D01*
X103556661Y-92231000D01*
X103511326Y-92226535D01*
X103473633Y-92215101D01*
X103438897Y-92196534D01*
X103408452Y-92171548D01*
X103383466Y-92141103D01*
X103364899Y-92106367D01*
X103353465Y-92068674D01*
X103349000Y-92023339D01*
X103349000Y-91186661D01*
X103353465Y-91141326D01*
X103364899Y-91103633D01*
X103383466Y-91068897D01*
X103408452Y-91038452D01*
X103438897Y-91013466D01*
X103473633Y-90994899D01*
X103511326Y-90983465D01*
X103556661Y-90979000D01*
X104643339Y-90979000D01*
X104688674Y-90983465D01*
X104688674Y-90983465D01*
G37*
G36*
X109308674Y-90983465D02*
G01*
X109346367Y-90994899D01*
X109381103Y-91013466D01*
X109411548Y-91038452D01*
X109436534Y-91068897D01*
X109455101Y-91103633D01*
X109466535Y-91141326D01*
X109471000Y-91186661D01*
X109471000Y-92023339D01*
X109466535Y-92068674D01*
X109455101Y-92106367D01*
X109436534Y-92141103D01*
X109411548Y-92171548D01*
X109381103Y-92196534D01*
X109346367Y-92215101D01*
X109308674Y-92226535D01*
X109263339Y-92231000D01*
X108176661Y-92231000D01*
X108131326Y-92226535D01*
X108093633Y-92215101D01*
X108058897Y-92196534D01*
X108028452Y-92171548D01*
X108003466Y-92141103D01*
X107984899Y-92106367D01*
X107973465Y-92068674D01*
X107969000Y-92023339D01*
X107969000Y-91186661D01*
X107973465Y-91141326D01*
X107984899Y-91103633D01*
X108003466Y-91068897D01*
X108028452Y-91038452D01*
X108058897Y-91013466D01*
X108093633Y-90994899D01*
X108131326Y-90983465D01*
X108176661Y-90979000D01*
X109263339Y-90979000D01*
X109308674Y-90983465D01*
X109308674Y-90983465D01*
G37*
G36*
X99878674Y-90983465D02*
G01*
X99916367Y-90994899D01*
X99951103Y-91013466D01*
X99981548Y-91038452D01*
X100006534Y-91068897D01*
X100025101Y-91103633D01*
X100036535Y-91141326D01*
X100041000Y-91186661D01*
X100041000Y-92023339D01*
X100036535Y-92068674D01*
X100025101Y-92106367D01*
X100006534Y-92141103D01*
X99981548Y-92171548D01*
X99951103Y-92196534D01*
X99916367Y-92215101D01*
X99878674Y-92226535D01*
X99833339Y-92231000D01*
X98746661Y-92231000D01*
X98701326Y-92226535D01*
X98663633Y-92215101D01*
X98628897Y-92196534D01*
X98598452Y-92171548D01*
X98573466Y-92141103D01*
X98554899Y-92106367D01*
X98543465Y-92068674D01*
X98539000Y-92023339D01*
X98539000Y-91186661D01*
X98543465Y-91141326D01*
X98554899Y-91103633D01*
X98573466Y-91068897D01*
X98598452Y-91038452D01*
X98628897Y-91013466D01*
X98663633Y-90994899D01*
X98701326Y-90983465D01*
X98746661Y-90979000D01*
X99833339Y-90979000D01*
X99878674Y-90983465D01*
X99878674Y-90983465D01*
G37*
G36*
X137513057Y-85121059D02*
G01*
X137852547Y-85224042D01*
X137852549Y-85224043D01*
X138165423Y-85391277D01*
X138439661Y-85616339D01*
X138664723Y-85890578D01*
X138815675Y-86172989D01*
X138831958Y-86203452D01*
X138934941Y-86542942D01*
X138961000Y-86807525D01*
X138961000Y-90484475D01*
X138934941Y-90749058D01*
X138831958Y-91088548D01*
X138831957Y-91088550D01*
X138664723Y-91401422D01*
X138439661Y-91675661D01*
X138165422Y-91900723D01*
X138056717Y-91958827D01*
X137852548Y-92067958D01*
X137513058Y-92170941D01*
X137160000Y-92205714D01*
X136806943Y-92170941D01*
X136467453Y-92067958D01*
X136263284Y-91958827D01*
X136154579Y-91900723D01*
X135880340Y-91675661D01*
X135655278Y-91401422D01*
X135488044Y-91088550D01*
X135488043Y-91088548D01*
X135385060Y-90749058D01*
X135359001Y-90484475D01*
X135359000Y-86807526D01*
X135385059Y-86542943D01*
X135488042Y-86203453D01*
X135555918Y-86076466D01*
X135655277Y-85890577D01*
X135880339Y-85616339D01*
X136154578Y-85391277D01*
X136467450Y-85224043D01*
X136467452Y-85224042D01*
X136806942Y-85121059D01*
X137160000Y-85086286D01*
X137513057Y-85121059D01*
X137513057Y-85121059D01*
G37*
G36*
X127353057Y-85121059D02*
G01*
X127692547Y-85224042D01*
X127692549Y-85224043D01*
X128005423Y-85391277D01*
X128279661Y-85616339D01*
X128504723Y-85890578D01*
X128655675Y-86172989D01*
X128671958Y-86203452D01*
X128774941Y-86542942D01*
X128801000Y-86807525D01*
X128801000Y-90484475D01*
X128774941Y-90749058D01*
X128671958Y-91088548D01*
X128671957Y-91088550D01*
X128504723Y-91401422D01*
X128279661Y-91675661D01*
X128005422Y-91900723D01*
X127896717Y-91958827D01*
X127692548Y-92067958D01*
X127353058Y-92170941D01*
X127000000Y-92205714D01*
X126646943Y-92170941D01*
X126307453Y-92067958D01*
X126103284Y-91958827D01*
X125994579Y-91900723D01*
X125720340Y-91675661D01*
X125495278Y-91401422D01*
X125328044Y-91088550D01*
X125328043Y-91088548D01*
X125225060Y-90749058D01*
X125199001Y-90484475D01*
X125199000Y-86807526D01*
X125225059Y-86542943D01*
X125328042Y-86203453D01*
X125395918Y-86076466D01*
X125495277Y-85890577D01*
X125720339Y-85616339D01*
X125994578Y-85391277D01*
X126307450Y-85224043D01*
X126307452Y-85224042D01*
X126646942Y-85121059D01*
X127000000Y-85086286D01*
X127353057Y-85121059D01*
X127353057Y-85121059D01*
G37*
G36*
X148659057Y-85121059D02*
G01*
X148998547Y-85224042D01*
X148998549Y-85224043D01*
X149311423Y-85391277D01*
X149585661Y-85616339D01*
X149810723Y-85890578D01*
X149961675Y-86172989D01*
X149977958Y-86203452D01*
X150080941Y-86542942D01*
X150107000Y-86807525D01*
X150107000Y-90484475D01*
X150080941Y-90749058D01*
X149977958Y-91088548D01*
X149977957Y-91088550D01*
X149810723Y-91401422D01*
X149585661Y-91675661D01*
X149311422Y-91900723D01*
X149202717Y-91958827D01*
X148998548Y-92067958D01*
X148659058Y-92170941D01*
X148306000Y-92205714D01*
X147952943Y-92170941D01*
X147613453Y-92067958D01*
X147409284Y-91958827D01*
X147300579Y-91900723D01*
X147026340Y-91675661D01*
X146801278Y-91401422D01*
X146634044Y-91088550D01*
X146634043Y-91088548D01*
X146531060Y-90749058D01*
X146505001Y-90484475D01*
X146505000Y-86807526D01*
X146531059Y-86542943D01*
X146634042Y-86203453D01*
X146701918Y-86076466D01*
X146801277Y-85890577D01*
X147026339Y-85616339D01*
X147300578Y-85391277D01*
X147613450Y-85224043D01*
X147613452Y-85224042D01*
X147952942Y-85121059D01*
X148306000Y-85086286D01*
X148659057Y-85121059D01*
X148659057Y-85121059D01*
G37*
G36*
X158819057Y-85121059D02*
G01*
X159158547Y-85224042D01*
X159158549Y-85224043D01*
X159471423Y-85391277D01*
X159745661Y-85616339D01*
X159970723Y-85890578D01*
X160121675Y-86172989D01*
X160137958Y-86203452D01*
X160240941Y-86542942D01*
X160267000Y-86807525D01*
X160267000Y-90484475D01*
X160240941Y-90749058D01*
X160137958Y-91088548D01*
X160137957Y-91088550D01*
X159970723Y-91401422D01*
X159745661Y-91675661D01*
X159471422Y-91900723D01*
X159362717Y-91958827D01*
X159158548Y-92067958D01*
X158819058Y-92170941D01*
X158466000Y-92205714D01*
X158112943Y-92170941D01*
X157773453Y-92067958D01*
X157569284Y-91958827D01*
X157460579Y-91900723D01*
X157186340Y-91675661D01*
X156961278Y-91401422D01*
X156794044Y-91088550D01*
X156794043Y-91088548D01*
X156691060Y-90749058D01*
X156665001Y-90484475D01*
X156665000Y-86807526D01*
X156691059Y-86542943D01*
X156794042Y-86203453D01*
X156861918Y-86076466D01*
X156961277Y-85890577D01*
X157186339Y-85616339D01*
X157460578Y-85391277D01*
X157773450Y-85224043D01*
X157773452Y-85224042D01*
X158112942Y-85121059D01*
X158466000Y-85086286D01*
X158819057Y-85121059D01*
X158819057Y-85121059D01*
G37*
G36*
X94631000Y-92116000D02*
G01*
X92029000Y-92116000D01*
X92029000Y-89514000D01*
X94631000Y-89514000D01*
X94631000Y-92116000D01*
X94631000Y-92116000D01*
G37*
G36*
X115659890Y-90394017D02*
G01*
X115778364Y-90443091D01*
X115840299Y-90484475D01*
X115884988Y-90514335D01*
X115975665Y-90605012D01*
X116046910Y-90711638D01*
X116095983Y-90830110D01*
X116121000Y-90955881D01*
X116121000Y-91084119D01*
X116117849Y-91099962D01*
X116095983Y-91209890D01*
X116046909Y-91328364D01*
X115975665Y-91434988D01*
X115884988Y-91525665D01*
X115778364Y-91596909D01*
X115778363Y-91596910D01*
X115778362Y-91596910D01*
X115659890Y-91645983D01*
X115534119Y-91671000D01*
X115405881Y-91671000D01*
X115280110Y-91645983D01*
X115161638Y-91596910D01*
X115161637Y-91596910D01*
X115161636Y-91596909D01*
X115055012Y-91525665D01*
X114964335Y-91434988D01*
X114893091Y-91328364D01*
X114844017Y-91209890D01*
X114822151Y-91099962D01*
X114819000Y-91084119D01*
X114819000Y-90955881D01*
X114844017Y-90830110D01*
X114893090Y-90711638D01*
X114964335Y-90605012D01*
X115055012Y-90514335D01*
X115099701Y-90484475D01*
X115161636Y-90443091D01*
X115280110Y-90394017D01*
X115405881Y-90369000D01*
X115534119Y-90369000D01*
X115659890Y-90394017D01*
X115659890Y-90394017D01*
G37*
G36*
X99878674Y-88933465D02*
G01*
X99916367Y-88944899D01*
X99951103Y-88963466D01*
X99981548Y-88988452D01*
X100006534Y-89018897D01*
X100025101Y-89053633D01*
X100036535Y-89091326D01*
X100041000Y-89136661D01*
X100041000Y-89973339D01*
X100036535Y-90018674D01*
X100025101Y-90056367D01*
X100006534Y-90091103D01*
X99981548Y-90121548D01*
X99951103Y-90146534D01*
X99916367Y-90165101D01*
X99878674Y-90176535D01*
X99833339Y-90181000D01*
X98746661Y-90181000D01*
X98701326Y-90176535D01*
X98663633Y-90165101D01*
X98628897Y-90146534D01*
X98598452Y-90121548D01*
X98573466Y-90091103D01*
X98554899Y-90056367D01*
X98543465Y-90018674D01*
X98539000Y-89973339D01*
X98539000Y-89136661D01*
X98543465Y-89091326D01*
X98554899Y-89053633D01*
X98573466Y-89018897D01*
X98598452Y-88988452D01*
X98628897Y-88963466D01*
X98663633Y-88944899D01*
X98701326Y-88933465D01*
X98746661Y-88929000D01*
X99833339Y-88929000D01*
X99878674Y-88933465D01*
X99878674Y-88933465D01*
G37*
G36*
X104688674Y-88933465D02*
G01*
X104726367Y-88944899D01*
X104761103Y-88963466D01*
X104791548Y-88988452D01*
X104816534Y-89018897D01*
X104835101Y-89053633D01*
X104846535Y-89091326D01*
X104851000Y-89136661D01*
X104851000Y-89973339D01*
X104846535Y-90018674D01*
X104835101Y-90056367D01*
X104816534Y-90091103D01*
X104791548Y-90121548D01*
X104761103Y-90146534D01*
X104726367Y-90165101D01*
X104688674Y-90176535D01*
X104643339Y-90181000D01*
X103556661Y-90181000D01*
X103511326Y-90176535D01*
X103473633Y-90165101D01*
X103438897Y-90146534D01*
X103408452Y-90121548D01*
X103383466Y-90091103D01*
X103364899Y-90056367D01*
X103353465Y-90018674D01*
X103349000Y-89973339D01*
X103349000Y-89136661D01*
X103353465Y-89091326D01*
X103364899Y-89053633D01*
X103383466Y-89018897D01*
X103408452Y-88988452D01*
X103438897Y-88963466D01*
X103473633Y-88944899D01*
X103511326Y-88933465D01*
X103556661Y-88929000D01*
X104643339Y-88929000D01*
X104688674Y-88933465D01*
X104688674Y-88933465D01*
G37*
G36*
X109308674Y-88933465D02*
G01*
X109346367Y-88944899D01*
X109381103Y-88963466D01*
X109411548Y-88988452D01*
X109436534Y-89018897D01*
X109455101Y-89053633D01*
X109466535Y-89091326D01*
X109471000Y-89136661D01*
X109471000Y-89973339D01*
X109466535Y-90018674D01*
X109455101Y-90056367D01*
X109436534Y-90091103D01*
X109411548Y-90121548D01*
X109381103Y-90146534D01*
X109346367Y-90165101D01*
X109308674Y-90176535D01*
X109263339Y-90181000D01*
X108176661Y-90181000D01*
X108131326Y-90176535D01*
X108093633Y-90165101D01*
X108058897Y-90146534D01*
X108028452Y-90121548D01*
X108003466Y-90091103D01*
X107984899Y-90056367D01*
X107973465Y-90018674D01*
X107969000Y-89973339D01*
X107969000Y-89136661D01*
X107973465Y-89091326D01*
X107984899Y-89053633D01*
X108003466Y-89018897D01*
X108028452Y-88988452D01*
X108058897Y-88963466D01*
X108093633Y-88944899D01*
X108131326Y-88933465D01*
X108176661Y-88929000D01*
X109263339Y-88929000D01*
X109308674Y-88933465D01*
X109308674Y-88933465D01*
G37*
G36*
X117891000Y-86631000D02*
G01*
X116089000Y-86631000D01*
X116089000Y-84829000D01*
X117891000Y-84829000D01*
X117891000Y-86631000D01*
X117891000Y-86631000D01*
G37*
G36*
X119620527Y-84833557D02*
G01*
X119706627Y-84842037D01*
X119876466Y-84893557D01*
X120032991Y-84977222D01*
X120068729Y-85006552D01*
X120170186Y-85089814D01*
X120233537Y-85167009D01*
X120282778Y-85227009D01*
X120366443Y-85383534D01*
X120417963Y-85553373D01*
X120435359Y-85730000D01*
X120417963Y-85906627D01*
X120366443Y-86076466D01*
X120282778Y-86232991D01*
X120253448Y-86268729D01*
X120170186Y-86370186D01*
X120068729Y-86453448D01*
X120032991Y-86482778D01*
X119876466Y-86566443D01*
X119706627Y-86617963D01*
X119640442Y-86624482D01*
X119574260Y-86631000D01*
X119485740Y-86631000D01*
X119419558Y-86624482D01*
X119353373Y-86617963D01*
X119183534Y-86566443D01*
X119027009Y-86482778D01*
X118991271Y-86453448D01*
X118889814Y-86370186D01*
X118806552Y-86268729D01*
X118777222Y-86232991D01*
X118693557Y-86076466D01*
X118642037Y-85906627D01*
X118624641Y-85730000D01*
X118642037Y-85553373D01*
X118693557Y-85383534D01*
X118777222Y-85227009D01*
X118826463Y-85167009D01*
X118889814Y-85089814D01*
X118991271Y-85006552D01*
X119027009Y-84977222D01*
X119183534Y-84893557D01*
X119353373Y-84842037D01*
X119439473Y-84833557D01*
X119485740Y-84829000D01*
X119574260Y-84829000D01*
X119620527Y-84833557D01*
X119620527Y-84833557D01*
G37*
G36*
X111731000Y-86631000D02*
G01*
X109929000Y-86631000D01*
X109929000Y-84829000D01*
X111731000Y-84829000D01*
X111731000Y-86631000D01*
X111731000Y-86631000D01*
G37*
G36*
X108380527Y-84833557D02*
G01*
X108466627Y-84842037D01*
X108636466Y-84893557D01*
X108792991Y-84977222D01*
X108828729Y-85006552D01*
X108930186Y-85089814D01*
X108993537Y-85167009D01*
X109042778Y-85227009D01*
X109126443Y-85383534D01*
X109177963Y-85553373D01*
X109195359Y-85730000D01*
X109177963Y-85906627D01*
X109126443Y-86076466D01*
X109042778Y-86232991D01*
X109013448Y-86268729D01*
X108930186Y-86370186D01*
X108828729Y-86453448D01*
X108792991Y-86482778D01*
X108636466Y-86566443D01*
X108466627Y-86617963D01*
X108400442Y-86624482D01*
X108334260Y-86631000D01*
X108245740Y-86631000D01*
X108179558Y-86624482D01*
X108113373Y-86617963D01*
X107943534Y-86566443D01*
X107787009Y-86482778D01*
X107751271Y-86453448D01*
X107649814Y-86370186D01*
X107566552Y-86268729D01*
X107537222Y-86232991D01*
X107453557Y-86076466D01*
X107402037Y-85906627D01*
X107384641Y-85730000D01*
X107402037Y-85553373D01*
X107453557Y-85383534D01*
X107537222Y-85227009D01*
X107586463Y-85167009D01*
X107649814Y-85089814D01*
X107751271Y-85006552D01*
X107787009Y-84977222D01*
X107943534Y-84893557D01*
X108113373Y-84842037D01*
X108199473Y-84833557D01*
X108245740Y-84829000D01*
X108334260Y-84829000D01*
X108380527Y-84833557D01*
X108380527Y-84833557D01*
G37*
G36*
X99590443Y-84775519D02*
G01*
X99656627Y-84782037D01*
X99826466Y-84833557D01*
X99982991Y-84917222D01*
X100018729Y-84946552D01*
X100120186Y-85029814D01*
X100195068Y-85121059D01*
X100232778Y-85167009D01*
X100316443Y-85323534D01*
X100367963Y-85493373D01*
X100385359Y-85670000D01*
X100367963Y-85846627D01*
X100316443Y-86016466D01*
X100232778Y-86172991D01*
X100207781Y-86203450D01*
X100120186Y-86310186D01*
X100018729Y-86393448D01*
X99982991Y-86422778D01*
X99826466Y-86506443D01*
X99656627Y-86557963D01*
X99590443Y-86564481D01*
X99524260Y-86571000D01*
X99435740Y-86571000D01*
X99369557Y-86564481D01*
X99303373Y-86557963D01*
X99133534Y-86506443D01*
X98977009Y-86422778D01*
X98941271Y-86393448D01*
X98839814Y-86310186D01*
X98752219Y-86203450D01*
X98727222Y-86172991D01*
X98643557Y-86016466D01*
X98592037Y-85846627D01*
X98574641Y-85670000D01*
X98592037Y-85493373D01*
X98643557Y-85323534D01*
X98727222Y-85167009D01*
X98764932Y-85121059D01*
X98839814Y-85029814D01*
X98941271Y-84946552D01*
X98977009Y-84917222D01*
X99133534Y-84833557D01*
X99303373Y-84782037D01*
X99369557Y-84775519D01*
X99435740Y-84769000D01*
X99524260Y-84769000D01*
X99590443Y-84775519D01*
X99590443Y-84775519D01*
G37*
G36*
X102921000Y-86571000D02*
G01*
X101119000Y-86571000D01*
X101119000Y-84769000D01*
X102921000Y-84769000D01*
X102921000Y-86571000D01*
X102921000Y-86571000D01*
G37*
G36*
X164724549Y-82571116D02*
G01*
X164835734Y-82593232D01*
X165045203Y-82679997D01*
X165233720Y-82805960D01*
X165394040Y-82966280D01*
X165520003Y-83154797D01*
X165606768Y-83364266D01*
X165651000Y-83586636D01*
X165651000Y-83813364D01*
X165606768Y-84035734D01*
X165520003Y-84245203D01*
X165394040Y-84433720D01*
X165233720Y-84594040D01*
X165045203Y-84720003D01*
X164835734Y-84806768D01*
X164724549Y-84828884D01*
X164613365Y-84851000D01*
X164386635Y-84851000D01*
X164275451Y-84828884D01*
X164164266Y-84806768D01*
X163954797Y-84720003D01*
X163766280Y-84594040D01*
X163605960Y-84433720D01*
X163479997Y-84245203D01*
X163393232Y-84035734D01*
X163349000Y-83813364D01*
X163349000Y-83586636D01*
X163393232Y-83364266D01*
X163479997Y-83154797D01*
X163605960Y-82966280D01*
X163766280Y-82805960D01*
X163954797Y-82679997D01*
X164164266Y-82593232D01*
X164275451Y-82571116D01*
X164386635Y-82549000D01*
X164613365Y-82549000D01*
X164724549Y-82571116D01*
X164724549Y-82571116D01*
G37*
G36*
X91624549Y-82571116D02*
G01*
X91735734Y-82593232D01*
X91945203Y-82679997D01*
X92133720Y-82805960D01*
X92294040Y-82966280D01*
X92420003Y-83154797D01*
X92506768Y-83364266D01*
X92551000Y-83586636D01*
X92551000Y-83813364D01*
X92506768Y-84035734D01*
X92420003Y-84245203D01*
X92294040Y-84433720D01*
X92133720Y-84594040D01*
X91945203Y-84720003D01*
X91735734Y-84806768D01*
X91624549Y-84828884D01*
X91513365Y-84851000D01*
X91286635Y-84851000D01*
X91175451Y-84828884D01*
X91064266Y-84806768D01*
X90854797Y-84720003D01*
X90666280Y-84594040D01*
X90505960Y-84433720D01*
X90379997Y-84245203D01*
X90293232Y-84035734D01*
X90249000Y-83813364D01*
X90249000Y-83586636D01*
X90293232Y-83364266D01*
X90379997Y-83154797D01*
X90505960Y-82966280D01*
X90666280Y-82805960D01*
X90854797Y-82679997D01*
X91064266Y-82593232D01*
X91175451Y-82571116D01*
X91286635Y-82549000D01*
X91513365Y-82549000D01*
X91624549Y-82571116D01*
X91624549Y-82571116D01*
G37*
M02*
