M48
; DRILL file {KiCad (5.1.2)-1} date 30/9/2022 12:21:32
; FORMAT={-:-/ absolute / metric / decimal}
; #@! TF.CreationDate,2022-09-30T12:21:32-03:00
; #@! TF.GenerationSoftware,Kicad,Pcbnew,(5.1.2)-1
; #@! TF.FileFunction,Plated,1,2,PTH
FMAT,2
METRIC
T1C0.400
T2C0.600
T3C0.800
T4C0.890
T5C1.000
T6C1.300
T7C2.010
%
G90
G05
T1
X96.37Y-132.78
X96.4Y-127.46
X101.092Y-134.366
X102.649Y-133.354
X104.099Y-133.35
X105.156Y-134.366
X105.92Y-127.77
X106.25Y-123.35
X106.37Y-116.36
X111.19Y-118.51
X111.24Y-120.95
X116.2Y-141.59
X117.5Y-127.62
X126.5Y-122.5
X131.0Y-126.0
X134.65Y-103.87
X136.15Y-120.51
X141.14Y-112.15
X144.73Y-103.9
X146.57Y-100.02
X146.96Y-112.18
X149.51Y-103.95
X153.82Y-114.41
X155.46Y-115.14
X156.29Y-137.16
X159.68Y-108.57
T2
X115.47Y-91.02
X115.47Y-93.02
T3
X114.476Y-125.555
X114.476Y-130.455
T4
X129.54Y-93.726
X132.08Y-93.726
X150.846Y-93.726
X153.386Y-93.726
T5
X146.939Y-139.255
X149.479Y-139.255
X128.51Y-115.67
X131.05Y-115.67
X114.24Y-97.7
X116.78Y-97.7
X108.29Y-85.73
X110.83Y-85.73
X114.25Y-107.75
X116.79Y-107.75
X139.129Y-139.319
X141.668Y-139.319
X99.48Y-85.67
X102.02Y-85.67
X93.14Y-117.8
X93.14Y-120.34
X116.99Y-85.73
X119.53Y-85.73
X99.42Y-128.8
X99.42Y-131.34
X114.3Y-102.73
X116.84Y-102.73
T6
X93.33Y-90.815
X93.33Y-95.815
T7
X127.0Y-88.646
X137.16Y-88.646
X148.306Y-88.646
X158.466Y-88.646
T0
M30
