G04 #@! TF.GenerationSoftware,KiCad,Pcbnew,(5.1.2)-1*
G04 #@! TF.CreationDate,2022-07-04T19:57:45-03:00*
G04 #@! TF.ProjectId,esp32,65737033-322e-46b6-9963-61645f706362,rev?*
G04 #@! TF.SameCoordinates,Original*
G04 #@! TF.FileFunction,Legend,Bot*
G04 #@! TF.FilePolarity,Positive*
%FSLAX46Y46*%
G04 Gerber Fmt 4.6, Leading zero omitted, Abs format (unit mm)*
G04 Created by KiCad (PCBNEW (5.1.2)-1) date 2022-07-04 19:57:45*
%MOMM*%
%LPD*%
G04 APERTURE LIST*
%ADD10C,0.120000*%
%ADD11C,0.150000*%
%ADD12C,0.010000*%
G04 APERTURE END LIST*
D10*
X117900000Y-138150000D02*
X117900000Y-135700000D01*
X114750000Y-138150000D02*
X114750000Y-135700000D01*
X109920000Y-138150000D02*
X109920000Y-135700000D01*
X102300000Y-138150000D02*
X102300000Y-135700000D01*
X125010000Y-84050000D02*
X125010000Y-86650000D01*
X119930000Y-84050000D02*
X119930000Y-86300000D01*
X117390000Y-84050000D02*
X117390000Y-86200000D01*
X109770000Y-84050000D02*
X109770000Y-86700000D01*
X102150000Y-84050000D02*
X102150000Y-86700000D01*
D11*
X163890595Y-100250000D02*
X163985833Y-100202380D01*
X164128690Y-100202380D01*
X164271547Y-100250000D01*
X164366785Y-100345238D01*
X164414404Y-100440476D01*
X164462023Y-100630952D01*
X164462023Y-100773809D01*
X164414404Y-100964285D01*
X164366785Y-101059523D01*
X164271547Y-101154761D01*
X164128690Y-101202380D01*
X164033452Y-101202380D01*
X163890595Y-101154761D01*
X163842976Y-101107142D01*
X163842976Y-100773809D01*
X164033452Y-100773809D01*
X163271547Y-101202380D02*
X163366785Y-101154761D01*
X163414404Y-101107142D01*
X163462023Y-101011904D01*
X163462023Y-100726190D01*
X163414404Y-100630952D01*
X163366785Y-100583333D01*
X163271547Y-100535714D01*
X163128690Y-100535714D01*
X163033452Y-100583333D01*
X162985833Y-100630952D01*
X162938214Y-100726190D01*
X162938214Y-101011904D01*
X162985833Y-101107142D01*
X163033452Y-101154761D01*
X163128690Y-101202380D01*
X163271547Y-101202380D01*
X162509642Y-100535714D02*
X162509642Y-101202380D01*
X162509642Y-100630952D02*
X162462023Y-100583333D01*
X162366785Y-100535714D01*
X162223928Y-100535714D01*
X162128690Y-100583333D01*
X162081071Y-100678571D01*
X162081071Y-101202380D01*
X161700119Y-100535714D02*
X161176309Y-100535714D01*
X161700119Y-101202380D01*
X161176309Y-101202380D01*
X160366785Y-101202380D02*
X160366785Y-100678571D01*
X160414404Y-100583333D01*
X160509642Y-100535714D01*
X160700119Y-100535714D01*
X160795357Y-100583333D01*
X160366785Y-101154761D02*
X160462023Y-101202380D01*
X160700119Y-101202380D01*
X160795357Y-101154761D01*
X160842976Y-101059523D01*
X160842976Y-100964285D01*
X160795357Y-100869047D01*
X160700119Y-100821428D01*
X160462023Y-100821428D01*
X160366785Y-100773809D01*
X159747738Y-101202380D02*
X159842976Y-101154761D01*
X159890595Y-101059523D01*
X159890595Y-100202380D01*
X159223928Y-101202380D02*
X159319166Y-101154761D01*
X159366785Y-101107142D01*
X159414404Y-101011904D01*
X159414404Y-100726190D01*
X159366785Y-100630952D01*
X159319166Y-100583333D01*
X159223928Y-100535714D01*
X159081071Y-100535714D01*
X158985833Y-100583333D01*
X158938214Y-100630952D01*
X158890595Y-100726190D01*
X158890595Y-101011904D01*
X158938214Y-101107142D01*
X158985833Y-101154761D01*
X159081071Y-101202380D01*
X159223928Y-101202380D01*
X157176309Y-100250000D02*
X157271547Y-100202380D01*
X157414404Y-100202380D01*
X157557261Y-100250000D01*
X157652500Y-100345238D01*
X157700119Y-100440476D01*
X157747738Y-100630952D01*
X157747738Y-100773809D01*
X157700119Y-100964285D01*
X157652500Y-101059523D01*
X157557261Y-101154761D01*
X157414404Y-101202380D01*
X157319166Y-101202380D01*
X157176309Y-101154761D01*
X157128690Y-101107142D01*
X157128690Y-100773809D01*
X157319166Y-100773809D01*
X156700119Y-101202380D02*
X156700119Y-100535714D01*
X156700119Y-100202380D02*
X156747738Y-100250000D01*
X156700119Y-100297619D01*
X156652500Y-100250000D01*
X156700119Y-100202380D01*
X156700119Y-100297619D01*
X156081071Y-101202380D02*
X156176309Y-101154761D01*
X156223928Y-101059523D01*
X156223928Y-100202380D01*
X155271547Y-101154761D02*
X155366785Y-101202380D01*
X155557261Y-101202380D01*
X155652500Y-101154761D01*
X155700119Y-101107142D01*
X155747738Y-101011904D01*
X155747738Y-100726190D01*
X155700119Y-100630952D01*
X155652500Y-100583333D01*
X155557261Y-100535714D01*
X155366785Y-100535714D01*
X155271547Y-100583333D01*
X154462023Y-101154761D02*
X154557261Y-101202380D01*
X154747738Y-101202380D01*
X154842976Y-101154761D01*
X154890595Y-101059523D01*
X154890595Y-100678571D01*
X154842976Y-100583333D01*
X154747738Y-100535714D01*
X154557261Y-100535714D01*
X154462023Y-100583333D01*
X154414404Y-100678571D01*
X154414404Y-100773809D01*
X154890595Y-100869047D01*
X154033452Y-101154761D02*
X153938214Y-101202380D01*
X153747738Y-101202380D01*
X153652500Y-101154761D01*
X153604880Y-101059523D01*
X153604880Y-101011904D01*
X153652500Y-100916666D01*
X153747738Y-100869047D01*
X153890595Y-100869047D01*
X153985833Y-100821428D01*
X154033452Y-100726190D01*
X154033452Y-100678571D01*
X153985833Y-100583333D01*
X153890595Y-100535714D01*
X153747738Y-100535714D01*
X153652500Y-100583333D01*
X152414404Y-101202380D02*
X152414404Y-100202380D01*
X152176309Y-100202380D01*
X152033452Y-100250000D01*
X151938214Y-100345238D01*
X151890595Y-100440476D01*
X151842976Y-100630952D01*
X151842976Y-100773809D01*
X151890595Y-100964285D01*
X151938214Y-101059523D01*
X152033452Y-101154761D01*
X152176309Y-101202380D01*
X152414404Y-101202380D01*
X150985833Y-100535714D02*
X150985833Y-101202380D01*
X151414404Y-100535714D02*
X151414404Y-101059523D01*
X151366785Y-101154761D01*
X151271547Y-101202380D01*
X151128690Y-101202380D01*
X151033452Y-101154761D01*
X150985833Y-101107142D01*
X150509642Y-101202380D02*
X150509642Y-100535714D01*
X150509642Y-100726190D02*
X150462023Y-100630952D01*
X150414404Y-100583333D01*
X150319166Y-100535714D01*
X150223928Y-100535714D01*
X149462023Y-101202380D02*
X149462023Y-100678571D01*
X149509642Y-100583333D01*
X149604880Y-100535714D01*
X149795357Y-100535714D01*
X149890595Y-100583333D01*
X149462023Y-101154761D02*
X149557261Y-101202380D01*
X149795357Y-101202380D01*
X149890595Y-101154761D01*
X149938214Y-101059523D01*
X149938214Y-100964285D01*
X149890595Y-100869047D01*
X149795357Y-100821428D01*
X149557261Y-100821428D01*
X149462023Y-100773809D01*
X148985833Y-100535714D02*
X148985833Y-101202380D01*
X148985833Y-100630952D02*
X148938214Y-100583333D01*
X148842976Y-100535714D01*
X148700119Y-100535714D01*
X148604880Y-100583333D01*
X148557261Y-100678571D01*
X148557261Y-101202380D01*
X163842976Y-102852380D02*
X164176309Y-102376190D01*
X164414404Y-102852380D02*
X164414404Y-101852380D01*
X164033452Y-101852380D01*
X163938214Y-101900000D01*
X163890595Y-101947619D01*
X163842976Y-102042857D01*
X163842976Y-102185714D01*
X163890595Y-102280952D01*
X163938214Y-102328571D01*
X164033452Y-102376190D01*
X164414404Y-102376190D01*
X163271547Y-102852380D02*
X163366785Y-102804761D01*
X163414404Y-102757142D01*
X163462023Y-102661904D01*
X163462023Y-102376190D01*
X163414404Y-102280952D01*
X163366785Y-102233333D01*
X163271547Y-102185714D01*
X163128690Y-102185714D01*
X163033452Y-102233333D01*
X162985833Y-102280952D01*
X162938214Y-102376190D01*
X162938214Y-102661904D01*
X162985833Y-102757142D01*
X163033452Y-102804761D01*
X163128690Y-102852380D01*
X163271547Y-102852380D01*
X162081071Y-102852380D02*
X162081071Y-101852380D01*
X162081071Y-102804761D02*
X162176309Y-102852380D01*
X162366785Y-102852380D01*
X162462023Y-102804761D01*
X162509642Y-102757142D01*
X162557261Y-102661904D01*
X162557261Y-102376190D01*
X162509642Y-102280952D01*
X162462023Y-102233333D01*
X162366785Y-102185714D01*
X162176309Y-102185714D01*
X162081071Y-102233333D01*
X161604880Y-102852380D02*
X161604880Y-102185714D01*
X161604880Y-102376190D02*
X161557261Y-102280952D01*
X161509642Y-102233333D01*
X161414404Y-102185714D01*
X161319166Y-102185714D01*
X160985833Y-102852380D02*
X160985833Y-102185714D01*
X160985833Y-101852380D02*
X161033452Y-101900000D01*
X160985833Y-101947619D01*
X160938214Y-101900000D01*
X160985833Y-101852380D01*
X160985833Y-101947619D01*
X160081071Y-102185714D02*
X160081071Y-102995238D01*
X160128690Y-103090476D01*
X160176309Y-103138095D01*
X160271547Y-103185714D01*
X160414404Y-103185714D01*
X160509642Y-103138095D01*
X160081071Y-102804761D02*
X160176309Y-102852380D01*
X160366785Y-102852380D01*
X160462023Y-102804761D01*
X160509642Y-102757142D01*
X160557261Y-102661904D01*
X160557261Y-102376190D01*
X160509642Y-102280952D01*
X160462023Y-102233333D01*
X160366785Y-102185714D01*
X160176309Y-102185714D01*
X160081071Y-102233333D01*
X159462023Y-102852380D02*
X159557261Y-102804761D01*
X159604880Y-102757142D01*
X159652500Y-102661904D01*
X159652500Y-102376190D01*
X159604880Y-102280952D01*
X159557261Y-102233333D01*
X159462023Y-102185714D01*
X159319166Y-102185714D01*
X159223928Y-102233333D01*
X159176309Y-102280952D01*
X159128690Y-102376190D01*
X159128690Y-102661904D01*
X159176309Y-102757142D01*
X159223928Y-102804761D01*
X159319166Y-102852380D01*
X159462023Y-102852380D01*
X157938214Y-102852380D02*
X157938214Y-101852380D01*
X157366785Y-102852380D01*
X157366785Y-101852380D01*
X156462023Y-102852380D02*
X156462023Y-102328571D01*
X156509642Y-102233333D01*
X156604880Y-102185714D01*
X156795357Y-102185714D01*
X156890595Y-102233333D01*
X156462023Y-102804761D02*
X156557261Y-102852380D01*
X156795357Y-102852380D01*
X156890595Y-102804761D01*
X156938214Y-102709523D01*
X156938214Y-102614285D01*
X156890595Y-102519047D01*
X156795357Y-102471428D01*
X156557261Y-102471428D01*
X156462023Y-102423809D01*
X155985833Y-102852380D02*
X155985833Y-101852380D01*
X155557261Y-102852380D02*
X155557261Y-102328571D01*
X155604880Y-102233333D01*
X155700119Y-102185714D01*
X155842976Y-102185714D01*
X155938214Y-102233333D01*
X155985833Y-102280952D01*
X154652500Y-102185714D02*
X154652500Y-102852380D01*
X155081071Y-102185714D02*
X155081071Y-102709523D01*
X155033452Y-102804761D01*
X154938214Y-102852380D01*
X154795357Y-102852380D01*
X154700119Y-102804761D01*
X154652500Y-102757142D01*
X153795357Y-102804761D02*
X153890595Y-102852380D01*
X154081071Y-102852380D01*
X154176309Y-102804761D01*
X154223928Y-102709523D01*
X154223928Y-102328571D01*
X154176309Y-102233333D01*
X154081071Y-102185714D01*
X153890595Y-102185714D01*
X153795357Y-102233333D01*
X153747738Y-102328571D01*
X153747738Y-102423809D01*
X154223928Y-102519047D01*
X153176309Y-102852380D02*
X153271547Y-102804761D01*
X153319166Y-102709523D01*
X153319166Y-101852380D01*
X152033452Y-102852380D02*
X152033452Y-101852380D01*
X151652500Y-101852380D01*
X151557261Y-101900000D01*
X151509642Y-101947619D01*
X151462023Y-102042857D01*
X151462023Y-102185714D01*
X151509642Y-102280952D01*
X151557261Y-102328571D01*
X151652500Y-102376190D01*
X152033452Y-102376190D01*
X150604880Y-102852380D02*
X150604880Y-102328571D01*
X150652500Y-102233333D01*
X150747738Y-102185714D01*
X150938214Y-102185714D01*
X151033452Y-102233333D01*
X150604880Y-102804761D02*
X150700119Y-102852380D01*
X150938214Y-102852380D01*
X151033452Y-102804761D01*
X151081071Y-102709523D01*
X151081071Y-102614285D01*
X151033452Y-102519047D01*
X150938214Y-102471428D01*
X150700119Y-102471428D01*
X150604880Y-102423809D01*
X150128690Y-102852380D02*
X150128690Y-102185714D01*
X150128690Y-102376190D02*
X150081071Y-102280952D01*
X150033452Y-102233333D01*
X149938214Y-102185714D01*
X149842976Y-102185714D01*
X149509642Y-102852380D02*
X149509642Y-102185714D01*
X149509642Y-102376190D02*
X149462023Y-102280952D01*
X149414404Y-102233333D01*
X149319166Y-102185714D01*
X149223928Y-102185714D01*
X148462023Y-102852380D02*
X148462023Y-102328571D01*
X148509642Y-102233333D01*
X148604880Y-102185714D01*
X148795357Y-102185714D01*
X148890595Y-102233333D01*
X148462023Y-102804761D02*
X148557261Y-102852380D01*
X148795357Y-102852380D01*
X148890595Y-102804761D01*
X148938214Y-102709523D01*
X148938214Y-102614285D01*
X148890595Y-102519047D01*
X148795357Y-102471428D01*
X148557261Y-102471428D01*
X148462023Y-102423809D01*
X164462023Y-104454761D02*
X164319166Y-104502380D01*
X164081071Y-104502380D01*
X163985833Y-104454761D01*
X163938214Y-104407142D01*
X163890595Y-104311904D01*
X163890595Y-104216666D01*
X163938214Y-104121428D01*
X163985833Y-104073809D01*
X164081071Y-104026190D01*
X164271547Y-103978571D01*
X164366785Y-103930952D01*
X164414404Y-103883333D01*
X164462023Y-103788095D01*
X164462023Y-103692857D01*
X164414404Y-103597619D01*
X164366785Y-103550000D01*
X164271547Y-103502380D01*
X164033452Y-103502380D01*
X163890595Y-103550000D01*
X163081071Y-104454761D02*
X163176309Y-104502380D01*
X163366785Y-104502380D01*
X163462023Y-104454761D01*
X163509642Y-104359523D01*
X163509642Y-103978571D01*
X163462023Y-103883333D01*
X163366785Y-103835714D01*
X163176309Y-103835714D01*
X163081071Y-103883333D01*
X163033452Y-103978571D01*
X163033452Y-104073809D01*
X163509642Y-104169047D01*
X162176309Y-103835714D02*
X162176309Y-104645238D01*
X162223928Y-104740476D01*
X162271547Y-104788095D01*
X162366785Y-104835714D01*
X162509642Y-104835714D01*
X162604880Y-104788095D01*
X162176309Y-104454761D02*
X162271547Y-104502380D01*
X162462023Y-104502380D01*
X162557261Y-104454761D01*
X162604880Y-104407142D01*
X162652500Y-104311904D01*
X162652500Y-104026190D01*
X162604880Y-103930952D01*
X162557261Y-103883333D01*
X162462023Y-103835714D01*
X162271547Y-103835714D01*
X162176309Y-103883333D01*
X161271547Y-103835714D02*
X161271547Y-104502380D01*
X161700119Y-103835714D02*
X161700119Y-104359523D01*
X161652500Y-104454761D01*
X161557261Y-104502380D01*
X161414404Y-104502380D01*
X161319166Y-104454761D01*
X161271547Y-104407142D01*
X160795357Y-103835714D02*
X160795357Y-104502380D01*
X160795357Y-103930952D02*
X160747738Y-103883333D01*
X160652500Y-103835714D01*
X160509642Y-103835714D01*
X160414404Y-103883333D01*
X160366785Y-103978571D01*
X160366785Y-104502380D01*
X159462023Y-104502380D02*
X159462023Y-103502380D01*
X159462023Y-104454761D02*
X159557261Y-104502380D01*
X159747738Y-104502380D01*
X159842976Y-104454761D01*
X159890595Y-104407142D01*
X159938214Y-104311904D01*
X159938214Y-104026190D01*
X159890595Y-103930952D01*
X159842976Y-103883333D01*
X159747738Y-103835714D01*
X159557261Y-103835714D01*
X159462023Y-103883333D01*
X158842976Y-104502380D02*
X158938214Y-104454761D01*
X158985833Y-104407142D01*
X159033452Y-104311904D01*
X159033452Y-104026190D01*
X158985833Y-103930952D01*
X158938214Y-103883333D01*
X158842976Y-103835714D01*
X158700119Y-103835714D01*
X158604880Y-103883333D01*
X158557261Y-103930952D01*
X158509642Y-104026190D01*
X158509642Y-104311904D01*
X158557261Y-104407142D01*
X158604880Y-104454761D01*
X158700119Y-104502380D01*
X158842976Y-104502380D01*
X157319166Y-104502380D02*
X157319166Y-103502380D01*
X156985833Y-104216666D01*
X156652500Y-103502380D01*
X156652500Y-104502380D01*
X156033452Y-104502380D02*
X156128690Y-104454761D01*
X156176309Y-104407142D01*
X156223928Y-104311904D01*
X156223928Y-104026190D01*
X156176309Y-103930952D01*
X156128690Y-103883333D01*
X156033452Y-103835714D01*
X155890595Y-103835714D01*
X155795357Y-103883333D01*
X155747738Y-103930952D01*
X155700119Y-104026190D01*
X155700119Y-104311904D01*
X155747738Y-104407142D01*
X155795357Y-104454761D01*
X155890595Y-104502380D01*
X156033452Y-104502380D01*
X155128690Y-104502380D02*
X155223928Y-104454761D01*
X155271547Y-104359523D01*
X155271547Y-103502380D01*
X154747738Y-104502380D02*
X154747738Y-103835714D01*
X154747738Y-103502380D02*
X154795357Y-103550000D01*
X154747738Y-103597619D01*
X154700119Y-103550000D01*
X154747738Y-103502380D01*
X154747738Y-103597619D01*
X154271547Y-103835714D02*
X154271547Y-104502380D01*
X154271547Y-103930952D02*
X154223928Y-103883333D01*
X154128690Y-103835714D01*
X153985833Y-103835714D01*
X153890595Y-103883333D01*
X153842976Y-103978571D01*
X153842976Y-104502380D01*
X152938214Y-104502380D02*
X152938214Y-103978571D01*
X152985833Y-103883333D01*
X153081071Y-103835714D01*
X153271547Y-103835714D01*
X153366785Y-103883333D01*
X152938214Y-104454761D02*
X153033452Y-104502380D01*
X153271547Y-104502380D01*
X153366785Y-104454761D01*
X153414404Y-104359523D01*
X153414404Y-104264285D01*
X153366785Y-104169047D01*
X153271547Y-104121428D01*
X153033452Y-104121428D01*
X152938214Y-104073809D01*
X151747738Y-104216666D02*
X151271547Y-104216666D01*
X151842976Y-104502380D02*
X151509642Y-103502380D01*
X151176309Y-104502380D01*
X150842976Y-104502380D02*
X150842976Y-103502380D01*
X150842976Y-103883333D02*
X150747738Y-103835714D01*
X150557261Y-103835714D01*
X150462023Y-103883333D01*
X150414404Y-103930952D01*
X150366785Y-104026190D01*
X150366785Y-104311904D01*
X150414404Y-104407142D01*
X150462023Y-104454761D01*
X150557261Y-104502380D01*
X150747738Y-104502380D01*
X150842976Y-104454761D01*
X149557261Y-104454761D02*
X149652500Y-104502380D01*
X149842976Y-104502380D01*
X149938214Y-104454761D01*
X149985833Y-104359523D01*
X149985833Y-103978571D01*
X149938214Y-103883333D01*
X149842976Y-103835714D01*
X149652500Y-103835714D01*
X149557261Y-103883333D01*
X149509642Y-103978571D01*
X149509642Y-104073809D01*
X149985833Y-104169047D01*
X149081071Y-103835714D02*
X149081071Y-104502380D01*
X149081071Y-103930952D02*
X149033452Y-103883333D01*
X148938214Y-103835714D01*
X148795357Y-103835714D01*
X148700119Y-103883333D01*
X148652500Y-103978571D01*
X148652500Y-104502380D01*
X148176309Y-104502380D02*
X148176309Y-103835714D01*
X148176309Y-103502380D02*
X148223928Y-103550000D01*
X148176309Y-103597619D01*
X148128690Y-103550000D01*
X148176309Y-103502380D01*
X148176309Y-103597619D01*
X147271547Y-104502380D02*
X147271547Y-103978571D01*
X147319166Y-103883333D01*
X147414404Y-103835714D01*
X147604880Y-103835714D01*
X147700119Y-103883333D01*
X147271547Y-104454761D02*
X147366785Y-104502380D01*
X147604880Y-104502380D01*
X147700119Y-104454761D01*
X147747738Y-104359523D01*
X147747738Y-104264285D01*
X147700119Y-104169047D01*
X147604880Y-104121428D01*
X147366785Y-104121428D01*
X147271547Y-104073809D01*
X146366785Y-104454761D02*
X146462023Y-104502380D01*
X146652500Y-104502380D01*
X146747738Y-104454761D01*
X146795357Y-104407142D01*
X146842976Y-104311904D01*
X146842976Y-104026190D01*
X146795357Y-103930952D01*
X146747738Y-103883333D01*
X146652500Y-103835714D01*
X146462023Y-103835714D01*
X146366785Y-103883333D01*
X145509642Y-104502380D02*
X145509642Y-103978571D01*
X145557261Y-103883333D01*
X145652500Y-103835714D01*
X145842976Y-103835714D01*
X145938214Y-103883333D01*
X145509642Y-104454761D02*
X145604880Y-104502380D01*
X145842976Y-104502380D01*
X145938214Y-104454761D01*
X145985833Y-104359523D01*
X145985833Y-104264285D01*
X145938214Y-104169047D01*
X145842976Y-104121428D01*
X145604880Y-104121428D01*
X145509642Y-104073809D01*
X145033452Y-104502380D02*
X145033452Y-103835714D01*
X145033452Y-104026190D02*
X144985833Y-103930952D01*
X144938214Y-103883333D01*
X144842976Y-103835714D01*
X144747738Y-103835714D01*
X107261428Y-85478571D02*
X107118571Y-85526190D01*
X107070952Y-85573809D01*
X107023333Y-85669047D01*
X107023333Y-85811904D01*
X107070952Y-85907142D01*
X107118571Y-85954761D01*
X107213809Y-86002380D01*
X107594761Y-86002380D01*
X107594761Y-85002380D01*
X107261428Y-85002380D01*
X107166190Y-85050000D01*
X107118571Y-85097619D01*
X107070952Y-85192857D01*
X107070952Y-85288095D01*
X107118571Y-85383333D01*
X107166190Y-85430952D01*
X107261428Y-85478571D01*
X107594761Y-85478571D01*
X106166190Y-86002380D02*
X106166190Y-85478571D01*
X106213809Y-85383333D01*
X106309047Y-85335714D01*
X106499523Y-85335714D01*
X106594761Y-85383333D01*
X106166190Y-85954761D02*
X106261428Y-86002380D01*
X106499523Y-86002380D01*
X106594761Y-85954761D01*
X106642380Y-85859523D01*
X106642380Y-85764285D01*
X106594761Y-85669047D01*
X106499523Y-85621428D01*
X106261428Y-85621428D01*
X106166190Y-85573809D01*
X105832857Y-85335714D02*
X105451904Y-85335714D01*
X105690000Y-85002380D02*
X105690000Y-85859523D01*
X105642380Y-85954761D01*
X105547142Y-86002380D01*
X105451904Y-86002380D01*
X105261428Y-85335714D02*
X104880476Y-85335714D01*
X105118571Y-85002380D02*
X105118571Y-85859523D01*
X105070952Y-85954761D01*
X104975714Y-86002380D01*
X104880476Y-86002380D01*
X104547142Y-85621428D02*
X103785238Y-85621428D01*
X104166190Y-86002380D02*
X104166190Y-85240476D01*
X126540476Y-86022380D02*
X127111904Y-86022380D01*
X126826190Y-86022380D02*
X126826190Y-85022380D01*
X126921428Y-85165238D01*
X127016666Y-85260476D01*
X127111904Y-85308095D01*
X125683333Y-85022380D02*
X125873809Y-85022380D01*
X125969047Y-85070000D01*
X126016666Y-85117619D01*
X126111904Y-85260476D01*
X126159523Y-85450952D01*
X126159523Y-85831904D01*
X126111904Y-85927142D01*
X126064285Y-85974761D01*
X125969047Y-86022380D01*
X125778571Y-86022380D01*
X125683333Y-85974761D01*
X125635714Y-85927142D01*
X125588095Y-85831904D01*
X125588095Y-85593809D01*
X125635714Y-85498571D01*
X125683333Y-85450952D01*
X125778571Y-85403333D01*
X125969047Y-85403333D01*
X126064285Y-85450952D01*
X126111904Y-85498571D01*
X126159523Y-85593809D01*
X124756904Y-136347619D02*
X124709285Y-136300000D01*
X124614047Y-136252380D01*
X124375952Y-136252380D01*
X124280714Y-136300000D01*
X124233095Y-136347619D01*
X124185476Y-136442857D01*
X124185476Y-136538095D01*
X124233095Y-136680952D01*
X124804523Y-137252380D01*
X124185476Y-137252380D01*
X123280714Y-136252380D02*
X123756904Y-136252380D01*
X123804523Y-136728571D01*
X123756904Y-136680952D01*
X123661666Y-136633333D01*
X123423571Y-136633333D01*
X123328333Y-136680952D01*
X123280714Y-136728571D01*
X123233095Y-136823809D01*
X123233095Y-137061904D01*
X123280714Y-137157142D01*
X123328333Y-137204761D01*
X123423571Y-137252380D01*
X123661666Y-137252380D01*
X123756904Y-137204761D01*
X123804523Y-137157142D01*
X127206904Y-136347619D02*
X127159285Y-136300000D01*
X127064047Y-136252380D01*
X126825952Y-136252380D01*
X126730714Y-136300000D01*
X126683095Y-136347619D01*
X126635476Y-136442857D01*
X126635476Y-136538095D01*
X126683095Y-136680952D01*
X127254523Y-137252380D01*
X126635476Y-137252380D01*
X126302142Y-136252380D02*
X125683095Y-136252380D01*
X126016428Y-136633333D01*
X125873571Y-136633333D01*
X125778333Y-136680952D01*
X125730714Y-136728571D01*
X125683095Y-136823809D01*
X125683095Y-137061904D01*
X125730714Y-137157142D01*
X125778333Y-137204761D01*
X125873571Y-137252380D01*
X126159285Y-137252380D01*
X126254523Y-137204761D01*
X126302142Y-137157142D01*
X106836904Y-136450000D02*
X106932142Y-136402380D01*
X107075000Y-136402380D01*
X107217857Y-136450000D01*
X107313095Y-136545238D01*
X107360714Y-136640476D01*
X107408333Y-136830952D01*
X107408333Y-136973809D01*
X107360714Y-137164285D01*
X107313095Y-137259523D01*
X107217857Y-137354761D01*
X107075000Y-137402380D01*
X106979761Y-137402380D01*
X106836904Y-137354761D01*
X106789285Y-137307142D01*
X106789285Y-136973809D01*
X106979761Y-136973809D01*
X106360714Y-137402380D02*
X106360714Y-136402380D01*
X105789285Y-137402380D01*
X105789285Y-136402380D01*
X105313095Y-137402380D02*
X105313095Y-136402380D01*
X105075000Y-136402380D01*
X104932142Y-136450000D01*
X104836904Y-136545238D01*
X104789285Y-136640476D01*
X104741666Y-136830952D01*
X104741666Y-136973809D01*
X104789285Y-137164285D01*
X104836904Y-137259523D01*
X104932142Y-137354761D01*
X105075000Y-137402380D01*
X105313095Y-137402380D01*
X147554523Y-136252380D02*
X146935476Y-136252380D01*
X147268809Y-136633333D01*
X147125952Y-136633333D01*
X147030714Y-136680952D01*
X146983095Y-136728571D01*
X146935476Y-136823809D01*
X146935476Y-137061904D01*
X146983095Y-137157142D01*
X147030714Y-137204761D01*
X147125952Y-137252380D01*
X147411666Y-137252380D01*
X147506904Y-137204761D01*
X147554523Y-137157142D01*
X146602142Y-136252380D02*
X145983095Y-136252380D01*
X146316428Y-136633333D01*
X146173571Y-136633333D01*
X146078333Y-136680952D01*
X146030714Y-136728571D01*
X145983095Y-136823809D01*
X145983095Y-137061904D01*
X146030714Y-137157142D01*
X146078333Y-137204761D01*
X146173571Y-137252380D01*
X146459285Y-137252380D01*
X146554523Y-137204761D01*
X146602142Y-137157142D01*
X137356904Y-136347619D02*
X137309285Y-136300000D01*
X137214047Y-136252380D01*
X136975952Y-136252380D01*
X136880714Y-136300000D01*
X136833095Y-136347619D01*
X136785476Y-136442857D01*
X136785476Y-136538095D01*
X136833095Y-136680952D01*
X137404523Y-137252380D01*
X136785476Y-137252380D01*
X136214047Y-136680952D02*
X136309285Y-136633333D01*
X136356904Y-136585714D01*
X136404523Y-136490476D01*
X136404523Y-136442857D01*
X136356904Y-136347619D01*
X136309285Y-136300000D01*
X136214047Y-136252380D01*
X136023571Y-136252380D01*
X135928333Y-136300000D01*
X135880714Y-136347619D01*
X135833095Y-136442857D01*
X135833095Y-136490476D01*
X135880714Y-136585714D01*
X135928333Y-136633333D01*
X136023571Y-136680952D01*
X136214047Y-136680952D01*
X136309285Y-136728571D01*
X136356904Y-136776190D01*
X136404523Y-136871428D01*
X136404523Y-137061904D01*
X136356904Y-137157142D01*
X136309285Y-137204761D01*
X136214047Y-137252380D01*
X136023571Y-137252380D01*
X135928333Y-137204761D01*
X135880714Y-137157142D01*
X135833095Y-137061904D01*
X135833095Y-136871428D01*
X135880714Y-136776190D01*
X135928333Y-136728571D01*
X136023571Y-136680952D01*
X161231190Y-85022380D02*
X160612142Y-85022380D01*
X160945476Y-85403333D01*
X160802619Y-85403333D01*
X160707380Y-85450952D01*
X160659761Y-85498571D01*
X160612142Y-85593809D01*
X160612142Y-85831904D01*
X160659761Y-85927142D01*
X160707380Y-85974761D01*
X160802619Y-86022380D01*
X161088333Y-86022380D01*
X161183571Y-85974761D01*
X161231190Y-85927142D01*
X160183571Y-85927142D02*
X160135952Y-85974761D01*
X160183571Y-86022380D01*
X160231190Y-85974761D01*
X160183571Y-85927142D01*
X160183571Y-86022380D01*
X159802619Y-85022380D02*
X159183571Y-85022380D01*
X159516904Y-85403333D01*
X159374047Y-85403333D01*
X159278809Y-85450952D01*
X159231190Y-85498571D01*
X159183571Y-85593809D01*
X159183571Y-85831904D01*
X159231190Y-85927142D01*
X159278809Y-85974761D01*
X159374047Y-86022380D01*
X159659761Y-86022380D01*
X159755000Y-85974761D01*
X159802619Y-85927142D01*
X158897857Y-85022380D02*
X158564523Y-86022380D01*
X158231190Y-85022380D01*
X129070476Y-86022380D02*
X129641904Y-86022380D01*
X129356190Y-86022380D02*
X129356190Y-85022380D01*
X129451428Y-85165238D01*
X129546666Y-85260476D01*
X129641904Y-85308095D01*
X128213333Y-85355714D02*
X128213333Y-86022380D01*
X128451428Y-84974761D02*
X128689523Y-85689047D01*
X128070476Y-85689047D01*
X136670476Y-86022380D02*
X137241904Y-86022380D01*
X136956190Y-86022380D02*
X136956190Y-85022380D01*
X137051428Y-85165238D01*
X137146666Y-85260476D01*
X137241904Y-85308095D01*
X135718095Y-86022380D02*
X136289523Y-86022380D01*
X136003809Y-86022380D02*
X136003809Y-85022380D01*
X136099047Y-85165238D01*
X136194285Y-85260476D01*
X136289523Y-85308095D01*
X141745476Y-86022380D02*
X141555000Y-86022380D01*
X141459761Y-85974761D01*
X141412142Y-85927142D01*
X141316904Y-85784285D01*
X141269285Y-85593809D01*
X141269285Y-85212857D01*
X141316904Y-85117619D01*
X141364523Y-85070000D01*
X141459761Y-85022380D01*
X141650238Y-85022380D01*
X141745476Y-85070000D01*
X141793095Y-85117619D01*
X141840714Y-85212857D01*
X141840714Y-85450952D01*
X141793095Y-85546190D01*
X141745476Y-85593809D01*
X141650238Y-85641428D01*
X141459761Y-85641428D01*
X141364523Y-85593809D01*
X141316904Y-85546190D01*
X141269285Y-85450952D01*
X146963333Y-85022380D02*
X146296666Y-85022380D01*
X146725238Y-86022380D01*
X131595476Y-86022380D02*
X132166904Y-86022380D01*
X131881190Y-86022380D02*
X131881190Y-85022380D01*
X131976428Y-85165238D01*
X132071666Y-85260476D01*
X132166904Y-85308095D01*
X131262142Y-85022380D02*
X130643095Y-85022380D01*
X130976428Y-85403333D01*
X130833571Y-85403333D01*
X130738333Y-85450952D01*
X130690714Y-85498571D01*
X130643095Y-85593809D01*
X130643095Y-85831904D01*
X130690714Y-85927142D01*
X130738333Y-85974761D01*
X130833571Y-86022380D01*
X131119285Y-86022380D01*
X131214523Y-85974761D01*
X131262142Y-85927142D01*
X148989523Y-85022380D02*
X149180000Y-85022380D01*
X149275238Y-85070000D01*
X149322857Y-85117619D01*
X149418095Y-85260476D01*
X149465714Y-85450952D01*
X149465714Y-85831904D01*
X149418095Y-85927142D01*
X149370476Y-85974761D01*
X149275238Y-86022380D01*
X149084761Y-86022380D01*
X148989523Y-85974761D01*
X148941904Y-85927142D01*
X148894285Y-85831904D01*
X148894285Y-85593809D01*
X148941904Y-85498571D01*
X148989523Y-85450952D01*
X149084761Y-85403333D01*
X149275238Y-85403333D01*
X149370476Y-85450952D01*
X149418095Y-85498571D01*
X149465714Y-85593809D01*
X99761428Y-85478571D02*
X99618571Y-85526190D01*
X99570952Y-85573809D01*
X99523333Y-85669047D01*
X99523333Y-85811904D01*
X99570952Y-85907142D01*
X99618571Y-85954761D01*
X99713809Y-86002380D01*
X100094761Y-86002380D01*
X100094761Y-85002380D01*
X99761428Y-85002380D01*
X99666190Y-85050000D01*
X99618571Y-85097619D01*
X99570952Y-85192857D01*
X99570952Y-85288095D01*
X99618571Y-85383333D01*
X99666190Y-85430952D01*
X99761428Y-85478571D01*
X100094761Y-85478571D01*
X98666190Y-86002380D02*
X98666190Y-85478571D01*
X98713809Y-85383333D01*
X98809047Y-85335714D01*
X98999523Y-85335714D01*
X99094761Y-85383333D01*
X98666190Y-85954761D02*
X98761428Y-86002380D01*
X98999523Y-86002380D01*
X99094761Y-85954761D01*
X99142380Y-85859523D01*
X99142380Y-85764285D01*
X99094761Y-85669047D01*
X98999523Y-85621428D01*
X98761428Y-85621428D01*
X98666190Y-85573809D01*
X98332857Y-85335714D02*
X97951904Y-85335714D01*
X98190000Y-85002380D02*
X98190000Y-85859523D01*
X98142380Y-85954761D01*
X98047142Y-86002380D01*
X97951904Y-86002380D01*
X97761428Y-85335714D02*
X97380476Y-85335714D01*
X97618571Y-85002380D02*
X97618571Y-85859523D01*
X97570952Y-85954761D01*
X97475714Y-86002380D01*
X97380476Y-86002380D01*
X97047142Y-85621428D02*
X96285238Y-85621428D01*
X157493095Y-85498571D02*
X157159761Y-85498571D01*
X157016904Y-86022380D02*
X157493095Y-86022380D01*
X157493095Y-85022380D01*
X157016904Y-85022380D01*
X156588333Y-86022380D02*
X156588333Y-85022380D01*
X156016904Y-86022380D01*
X156016904Y-85022380D01*
X114613809Y-85022380D02*
X114280476Y-86022380D01*
X113947142Y-85022380D01*
X113613809Y-86022380D02*
X113613809Y-85355714D01*
X113613809Y-85022380D02*
X113661428Y-85070000D01*
X113613809Y-85117619D01*
X113566190Y-85070000D01*
X113613809Y-85022380D01*
X113613809Y-85117619D01*
X113137619Y-85355714D02*
X113137619Y-86022380D01*
X113137619Y-85450952D02*
X113090000Y-85403333D01*
X112994761Y-85355714D01*
X112851904Y-85355714D01*
X112756666Y-85403333D01*
X112709047Y-85498571D01*
X112709047Y-86022380D01*
X144175238Y-85450952D02*
X144270476Y-85403333D01*
X144318095Y-85355714D01*
X144365714Y-85260476D01*
X144365714Y-85212857D01*
X144318095Y-85117619D01*
X144270476Y-85070000D01*
X144175238Y-85022380D01*
X143984761Y-85022380D01*
X143889523Y-85070000D01*
X143841904Y-85117619D01*
X143794285Y-85212857D01*
X143794285Y-85260476D01*
X143841904Y-85355714D01*
X143889523Y-85403333D01*
X143984761Y-85450952D01*
X144175238Y-85450952D01*
X144270476Y-85498571D01*
X144318095Y-85546190D01*
X144365714Y-85641428D01*
X144365714Y-85831904D01*
X144318095Y-85927142D01*
X144270476Y-85974761D01*
X144175238Y-86022380D01*
X143984761Y-86022380D01*
X143889523Y-85974761D01*
X143841904Y-85927142D01*
X143794285Y-85831904D01*
X143794285Y-85641428D01*
X143841904Y-85546190D01*
X143889523Y-85498571D01*
X143984761Y-85450952D01*
X134145476Y-86022380D02*
X134716904Y-86022380D01*
X134431190Y-86022380D02*
X134431190Y-85022380D01*
X134526428Y-85165238D01*
X134621666Y-85260476D01*
X134716904Y-85308095D01*
X133764523Y-85117619D02*
X133716904Y-85070000D01*
X133621666Y-85022380D01*
X133383571Y-85022380D01*
X133288333Y-85070000D01*
X133240714Y-85117619D01*
X133193095Y-85212857D01*
X133193095Y-85308095D01*
X133240714Y-85450952D01*
X133812142Y-86022380D01*
X133193095Y-86022380D01*
X139220476Y-86022380D02*
X139791904Y-86022380D01*
X139506190Y-86022380D02*
X139506190Y-85022380D01*
X139601428Y-85165238D01*
X139696666Y-85260476D01*
X139791904Y-85308095D01*
X138601428Y-85022380D02*
X138506190Y-85022380D01*
X138410952Y-85070000D01*
X138363333Y-85117619D01*
X138315714Y-85212857D01*
X138268095Y-85403333D01*
X138268095Y-85641428D01*
X138315714Y-85831904D01*
X138363333Y-85927142D01*
X138410952Y-85974761D01*
X138506190Y-86022380D01*
X138601428Y-86022380D01*
X138696666Y-85974761D01*
X138744285Y-85927142D01*
X138791904Y-85831904D01*
X138839523Y-85641428D01*
X138839523Y-85403333D01*
X138791904Y-85212857D01*
X138744285Y-85117619D01*
X138696666Y-85070000D01*
X138601428Y-85022380D01*
X151491904Y-85022380D02*
X151968095Y-85022380D01*
X152015714Y-85498571D01*
X151968095Y-85450952D01*
X151872857Y-85403333D01*
X151634761Y-85403333D01*
X151539523Y-85450952D01*
X151491904Y-85498571D01*
X151444285Y-85593809D01*
X151444285Y-85831904D01*
X151491904Y-85927142D01*
X151539523Y-85974761D01*
X151634761Y-86022380D01*
X151872857Y-86022380D01*
X151968095Y-85974761D01*
X152015714Y-85927142D01*
X154064523Y-85355714D02*
X154064523Y-86022380D01*
X154302619Y-84974761D02*
X154540714Y-85689047D01*
X153921666Y-85689047D01*
X124279523Y-85012380D02*
X123708095Y-85012380D01*
X123993809Y-86012380D02*
X123993809Y-85012380D01*
X123374761Y-85488571D02*
X123041428Y-85488571D01*
X122898571Y-86012380D02*
X123374761Y-86012380D01*
X123374761Y-85012380D01*
X122898571Y-85012380D01*
X122470000Y-86012380D02*
X122470000Y-85012380D01*
X122136666Y-85726666D01*
X121803333Y-85012380D01*
X121803333Y-86012380D01*
X121327142Y-86012380D02*
X121327142Y-85012380D01*
X120946190Y-85012380D01*
X120850952Y-85060000D01*
X120803333Y-85107619D01*
X120755714Y-85202857D01*
X120755714Y-85345714D01*
X120803333Y-85440952D01*
X120850952Y-85488571D01*
X120946190Y-85536190D01*
X121327142Y-85536190D01*
X129756904Y-136347619D02*
X129709285Y-136300000D01*
X129614047Y-136252380D01*
X129375952Y-136252380D01*
X129280714Y-136300000D01*
X129233095Y-136347619D01*
X129185476Y-136442857D01*
X129185476Y-136538095D01*
X129233095Y-136680952D01*
X129804523Y-137252380D01*
X129185476Y-137252380D01*
X128328333Y-136585714D02*
X128328333Y-137252380D01*
X128566428Y-136204761D02*
X128804523Y-136919047D01*
X128185476Y-136919047D01*
X117432857Y-137252380D02*
X117432857Y-136252380D01*
X117194761Y-136252380D01*
X117051904Y-136300000D01*
X116956666Y-136395238D01*
X116909047Y-136490476D01*
X116861428Y-136680952D01*
X116861428Y-136823809D01*
X116909047Y-137014285D01*
X116956666Y-137109523D01*
X117051904Y-137204761D01*
X117194761Y-137252380D01*
X117432857Y-137252380D01*
X116575714Y-136252380D02*
X116004285Y-136252380D01*
X116290000Y-137252380D02*
X116290000Y-136252380D01*
X115099523Y-137252380D02*
X115432857Y-136776190D01*
X115670952Y-137252380D02*
X115670952Y-136252380D01*
X115290000Y-136252380D01*
X115194761Y-136300000D01*
X115147142Y-136347619D01*
X115099523Y-136442857D01*
X115099523Y-136585714D01*
X115147142Y-136680952D01*
X115194761Y-136728571D01*
X115290000Y-136776190D01*
X115670952Y-136776190D01*
X132281904Y-136347619D02*
X132234285Y-136300000D01*
X132139047Y-136252380D01*
X131900952Y-136252380D01*
X131805714Y-136300000D01*
X131758095Y-136347619D01*
X131710476Y-136442857D01*
X131710476Y-136538095D01*
X131758095Y-136680952D01*
X132329523Y-137252380D01*
X131710476Y-137252380D01*
X130853333Y-136252380D02*
X131043809Y-136252380D01*
X131139047Y-136300000D01*
X131186666Y-136347619D01*
X131281904Y-136490476D01*
X131329523Y-136680952D01*
X131329523Y-137061904D01*
X131281904Y-137157142D01*
X131234285Y-137204761D01*
X131139047Y-137252380D01*
X130948571Y-137252380D01*
X130853333Y-137204761D01*
X130805714Y-137157142D01*
X130758095Y-137061904D01*
X130758095Y-136823809D01*
X130805714Y-136728571D01*
X130853333Y-136680952D01*
X130948571Y-136633333D01*
X131139047Y-136633333D01*
X131234285Y-136680952D01*
X131281904Y-136728571D01*
X131329523Y-136823809D01*
X134831904Y-136347619D02*
X134784285Y-136300000D01*
X134689047Y-136252380D01*
X134450952Y-136252380D01*
X134355714Y-136300000D01*
X134308095Y-136347619D01*
X134260476Y-136442857D01*
X134260476Y-136538095D01*
X134308095Y-136680952D01*
X134879523Y-137252380D01*
X134260476Y-137252380D01*
X133927142Y-136252380D02*
X133260476Y-136252380D01*
X133689047Y-137252380D01*
X99875714Y-136921428D02*
X99113809Y-136921428D01*
X99494761Y-137302380D02*
X99494761Y-136540476D01*
X98161428Y-136302380D02*
X98637619Y-136302380D01*
X98685238Y-136778571D01*
X98637619Y-136730952D01*
X98542380Y-136683333D01*
X98304285Y-136683333D01*
X98209047Y-136730952D01*
X98161428Y-136778571D01*
X98113809Y-136873809D01*
X98113809Y-137111904D01*
X98161428Y-137207142D01*
X98209047Y-137254761D01*
X98304285Y-137302380D01*
X98542380Y-137302380D01*
X98637619Y-137254761D01*
X98685238Y-137207142D01*
X97828095Y-136302380D02*
X97494761Y-137302380D01*
X97161428Y-136302380D01*
X121917619Y-137252380D02*
X122250952Y-136776190D01*
X122489047Y-137252380D02*
X122489047Y-136252380D01*
X122108095Y-136252380D01*
X122012857Y-136300000D01*
X121965238Y-136347619D01*
X121917619Y-136442857D01*
X121917619Y-136585714D01*
X121965238Y-136680952D01*
X122012857Y-136728571D01*
X122108095Y-136776190D01*
X122489047Y-136776190D01*
X121631904Y-136252380D02*
X121060476Y-136252380D01*
X121346190Y-137252380D02*
X121346190Y-136252380D01*
X120774761Y-137204761D02*
X120631904Y-137252380D01*
X120393809Y-137252380D01*
X120298571Y-137204761D01*
X120250952Y-137157142D01*
X120203333Y-137061904D01*
X120203333Y-136966666D01*
X120250952Y-136871428D01*
X120298571Y-136823809D01*
X120393809Y-136776190D01*
X120584285Y-136728571D01*
X120679523Y-136680952D01*
X120727142Y-136633333D01*
X120774761Y-136538095D01*
X120774761Y-136442857D01*
X120727142Y-136347619D01*
X120679523Y-136300000D01*
X120584285Y-136252380D01*
X120346190Y-136252380D01*
X120203333Y-136300000D01*
X142479523Y-136252380D02*
X141860476Y-136252380D01*
X142193809Y-136633333D01*
X142050952Y-136633333D01*
X141955714Y-136680952D01*
X141908095Y-136728571D01*
X141860476Y-136823809D01*
X141860476Y-137061904D01*
X141908095Y-137157142D01*
X141955714Y-137204761D01*
X142050952Y-137252380D01*
X142336666Y-137252380D01*
X142431904Y-137204761D01*
X142479523Y-137157142D01*
X141241428Y-136252380D02*
X141146190Y-136252380D01*
X141050952Y-136300000D01*
X141003333Y-136347619D01*
X140955714Y-136442857D01*
X140908095Y-136633333D01*
X140908095Y-136871428D01*
X140955714Y-137061904D01*
X141003333Y-137157142D01*
X141050952Y-137204761D01*
X141146190Y-137252380D01*
X141241428Y-137252380D01*
X141336666Y-137204761D01*
X141384285Y-137157142D01*
X141431904Y-137061904D01*
X141479523Y-136871428D01*
X141479523Y-136633333D01*
X141431904Y-136442857D01*
X141384285Y-136347619D01*
X141336666Y-136300000D01*
X141241428Y-136252380D01*
X139906904Y-136347619D02*
X139859285Y-136300000D01*
X139764047Y-136252380D01*
X139525952Y-136252380D01*
X139430714Y-136300000D01*
X139383095Y-136347619D01*
X139335476Y-136442857D01*
X139335476Y-136538095D01*
X139383095Y-136680952D01*
X139954523Y-137252380D01*
X139335476Y-137252380D01*
X138859285Y-137252380D02*
X138668809Y-137252380D01*
X138573571Y-137204761D01*
X138525952Y-137157142D01*
X138430714Y-137014285D01*
X138383095Y-136823809D01*
X138383095Y-136442857D01*
X138430714Y-136347619D01*
X138478333Y-136300000D01*
X138573571Y-136252380D01*
X138764047Y-136252380D01*
X138859285Y-136300000D01*
X138906904Y-136347619D01*
X138954523Y-136442857D01*
X138954523Y-136680952D01*
X138906904Y-136776190D01*
X138859285Y-136823809D01*
X138764047Y-136871428D01*
X138573571Y-136871428D01*
X138478333Y-136823809D01*
X138430714Y-136776190D01*
X138383095Y-136680952D01*
X145004523Y-136252380D02*
X144385476Y-136252380D01*
X144718809Y-136633333D01*
X144575952Y-136633333D01*
X144480714Y-136680952D01*
X144433095Y-136728571D01*
X144385476Y-136823809D01*
X144385476Y-137061904D01*
X144433095Y-137157142D01*
X144480714Y-137204761D01*
X144575952Y-137252380D01*
X144861666Y-137252380D01*
X144956904Y-137204761D01*
X145004523Y-137157142D01*
X143433095Y-137252380D02*
X144004523Y-137252380D01*
X143718809Y-137252380D02*
X143718809Y-136252380D01*
X143814047Y-136395238D01*
X143909285Y-136490476D01*
X144004523Y-136538095D01*
X149390238Y-137252380D02*
X149723571Y-136776190D01*
X149961666Y-137252380D02*
X149961666Y-136252380D01*
X149580714Y-136252380D01*
X149485476Y-136300000D01*
X149437857Y-136347619D01*
X149390238Y-136442857D01*
X149390238Y-136585714D01*
X149437857Y-136680952D01*
X149485476Y-136728571D01*
X149580714Y-136776190D01*
X149961666Y-136776190D01*
X149056904Y-137252380D02*
X148533095Y-136585714D01*
X149056904Y-136585714D02*
X148533095Y-137252380D01*
X152535476Y-136252380D02*
X151964047Y-136252380D01*
X152249761Y-137252380D02*
X152249761Y-136252380D01*
X151725952Y-137252380D02*
X151202142Y-136585714D01*
X151725952Y-136585714D02*
X151202142Y-137252380D01*
X157679523Y-136252380D02*
X157060476Y-136252380D01*
X157393809Y-136633333D01*
X157250952Y-136633333D01*
X157155714Y-136680952D01*
X157108095Y-136728571D01*
X157060476Y-136823809D01*
X157060476Y-137061904D01*
X157108095Y-137157142D01*
X157155714Y-137204761D01*
X157250952Y-137252380D01*
X157536666Y-137252380D01*
X157631904Y-137204761D01*
X157679523Y-137157142D01*
X156727142Y-136252380D02*
X156060476Y-136252380D01*
X156489047Y-137252380D01*
X155179523Y-136252380D02*
X154560476Y-136252380D01*
X154893809Y-136633333D01*
X154750952Y-136633333D01*
X154655714Y-136680952D01*
X154608095Y-136728571D01*
X154560476Y-136823809D01*
X154560476Y-137061904D01*
X154608095Y-137157142D01*
X154655714Y-137204761D01*
X154750952Y-137252380D01*
X155036666Y-137252380D01*
X155131904Y-137204761D01*
X155179523Y-137157142D01*
X153703333Y-136252380D02*
X153893809Y-136252380D01*
X153989047Y-136300000D01*
X154036666Y-136347619D01*
X154131904Y-136490476D01*
X154179523Y-136680952D01*
X154179523Y-137061904D01*
X154131904Y-137157142D01*
X154084285Y-137204761D01*
X153989047Y-137252380D01*
X153798571Y-137252380D01*
X153703333Y-137204761D01*
X153655714Y-137157142D01*
X153608095Y-137061904D01*
X153608095Y-136823809D01*
X153655714Y-136728571D01*
X153703333Y-136680952D01*
X153798571Y-136633333D01*
X153989047Y-136633333D01*
X154084285Y-136680952D01*
X154131904Y-136728571D01*
X154179523Y-136823809D01*
X160456904Y-136300000D02*
X160552142Y-136252380D01*
X160695000Y-136252380D01*
X160837857Y-136300000D01*
X160933095Y-136395238D01*
X160980714Y-136490476D01*
X161028333Y-136680952D01*
X161028333Y-136823809D01*
X160980714Y-137014285D01*
X160933095Y-137109523D01*
X160837857Y-137204761D01*
X160695000Y-137252380D01*
X160599761Y-137252380D01*
X160456904Y-137204761D01*
X160409285Y-137157142D01*
X160409285Y-136823809D01*
X160599761Y-136823809D01*
X159980714Y-137252380D02*
X159980714Y-136252380D01*
X159409285Y-137252380D01*
X159409285Y-136252380D01*
X158933095Y-137252380D02*
X158933095Y-136252380D01*
X158695000Y-136252380D01*
X158552142Y-136300000D01*
X158456904Y-136395238D01*
X158409285Y-136490476D01*
X158361666Y-136680952D01*
X158361666Y-136823809D01*
X158409285Y-137014285D01*
X158456904Y-137109523D01*
X158552142Y-137204761D01*
X158695000Y-137252380D01*
X158933095Y-137252380D01*
D10*
X160800000Y-140820000D02*
X160800000Y-139490000D01*
X159470000Y-140820000D02*
X160800000Y-140820000D01*
X158200000Y-140820000D02*
X158200000Y-138160000D01*
X158200000Y-138160000D02*
X94640000Y-138160000D01*
X158200000Y-140820000D02*
X94640000Y-140820000D01*
X94640000Y-140820000D02*
X94640000Y-138160000D01*
X94470000Y-84030000D02*
X94470000Y-81370000D01*
X158030000Y-84030000D02*
X94470000Y-84030000D01*
X158030000Y-81370000D02*
X94470000Y-81370000D01*
X158030000Y-84030000D02*
X158030000Y-81370000D01*
X159300000Y-84030000D02*
X160630000Y-84030000D01*
X160630000Y-84030000D02*
X160630000Y-82700000D01*
D12*
G36*
X162825606Y-90612016D02*
G01*
X162767950Y-90742198D01*
X162763000Y-90805113D01*
X162806721Y-90985421D01*
X162937379Y-91113502D01*
X163059461Y-91165598D01*
X163141729Y-91182425D01*
X163147467Y-91146235D01*
X163129343Y-91108107D01*
X163106989Y-90985265D01*
X163121412Y-90912800D01*
X163162900Y-90741834D01*
X163124272Y-90626183D01*
X163067800Y-90582600D01*
X162932187Y-90553975D01*
X162825606Y-90612016D01*
X162825606Y-90612016D01*
G37*
X162825606Y-90612016D02*
X162767950Y-90742198D01*
X162763000Y-90805113D01*
X162806721Y-90985421D01*
X162937379Y-91113502D01*
X163059461Y-91165598D01*
X163141729Y-91182425D01*
X163147467Y-91146235D01*
X163129343Y-91108107D01*
X163106989Y-90985265D01*
X163121412Y-90912800D01*
X163162900Y-90741834D01*
X163124272Y-90626183D01*
X163067800Y-90582600D01*
X162932187Y-90553975D01*
X162825606Y-90612016D01*
G36*
X163670550Y-90659230D02*
G01*
X163581727Y-90746278D01*
X163536232Y-90873178D01*
X163551411Y-91019471D01*
X163577478Y-91077285D01*
X163655403Y-91183067D01*
X163727704Y-91232077D01*
X163773058Y-91213559D01*
X163779000Y-91178906D01*
X163813962Y-91092607D01*
X163880600Y-91014400D01*
X163968475Y-90887792D01*
X163966253Y-90762451D01*
X163908797Y-90686520D01*
X163785355Y-90632491D01*
X163670550Y-90659230D01*
X163670550Y-90659230D01*
G37*
X163670550Y-90659230D02*
X163581727Y-90746278D01*
X163536232Y-90873178D01*
X163551411Y-91019471D01*
X163577478Y-91077285D01*
X163655403Y-91183067D01*
X163727704Y-91232077D01*
X163773058Y-91213559D01*
X163779000Y-91178906D01*
X163813962Y-91092607D01*
X163880600Y-91014400D01*
X163968475Y-90887792D01*
X163966253Y-90762451D01*
X163908797Y-90686520D01*
X163785355Y-90632491D01*
X163670550Y-90659230D01*
G36*
X164313495Y-91068260D02*
G01*
X164243910Y-91170166D01*
X164190405Y-91360262D01*
X164224828Y-91510811D01*
X164250516Y-91547800D01*
X164296933Y-91583504D01*
X164356676Y-91567171D01*
X164452977Y-91489086D01*
X164502900Y-91442239D01*
X164640379Y-91287257D01*
X164687029Y-91167583D01*
X164644370Y-91076165D01*
X164589882Y-91038773D01*
X164440936Y-91006082D01*
X164313495Y-91068260D01*
X164313495Y-91068260D01*
G37*
X164313495Y-91068260D02*
X164243910Y-91170166D01*
X164190405Y-91360262D01*
X164224828Y-91510811D01*
X164250516Y-91547800D01*
X164296933Y-91583504D01*
X164356676Y-91567171D01*
X164452977Y-91489086D01*
X164502900Y-91442239D01*
X164640379Y-91287257D01*
X164687029Y-91167583D01*
X164644370Y-91076165D01*
X164589882Y-91038773D01*
X164440936Y-91006082D01*
X164313495Y-91068260D01*
G36*
X143217700Y-89574375D02*
G01*
X142940229Y-89583980D01*
X142741060Y-89597366D01*
X142596895Y-89618402D01*
X142484437Y-89650958D01*
X142380387Y-89698903D01*
X142342039Y-89719816D01*
X142131671Y-89870918D01*
X141986718Y-90060446D01*
X141899647Y-90304683D01*
X141862924Y-90619909D01*
X141860599Y-90760400D01*
X141885154Y-91129468D01*
X141959367Y-91420783D01*
X142088922Y-91648183D01*
X142279506Y-91825507D01*
X142305498Y-91843251D01*
X142395826Y-91899034D01*
X142483341Y-91937815D01*
X142589527Y-91963315D01*
X142735866Y-91979259D01*
X142943843Y-91989369D01*
X143188344Y-91996235D01*
X143865400Y-92012871D01*
X143865400Y-89871400D01*
X143560600Y-89871400D01*
X143560600Y-90777333D01*
X143558558Y-91071423D01*
X143552888Y-91330105D01*
X143544279Y-91536334D01*
X143533417Y-91673064D01*
X143522500Y-91722404D01*
X143456701Y-91738473D01*
X143317516Y-91745218D01*
X143132830Y-91741500D01*
X143098302Y-91739712D01*
X142836942Y-91713068D01*
X142646165Y-91663145D01*
X142531927Y-91606465D01*
X142353028Y-91437033D01*
X142239697Y-91190292D01*
X142191852Y-90866037D01*
X142190116Y-90772071D01*
X142220680Y-90464008D01*
X142305526Y-90209022D01*
X142437870Y-90023120D01*
X142538086Y-89950968D01*
X142702197Y-89900194D01*
X142952855Y-89874871D01*
X143126278Y-89871400D01*
X143560600Y-89871400D01*
X143865400Y-89871400D01*
X143865400Y-89556396D01*
X143217700Y-89574375D01*
X143217700Y-89574375D01*
G37*
X143217700Y-89574375D02*
X142940229Y-89583980D01*
X142741060Y-89597366D01*
X142596895Y-89618402D01*
X142484437Y-89650958D01*
X142380387Y-89698903D01*
X142342039Y-89719816D01*
X142131671Y-89870918D01*
X141986718Y-90060446D01*
X141899647Y-90304683D01*
X141862924Y-90619909D01*
X141860599Y-90760400D01*
X141885154Y-91129468D01*
X141959367Y-91420783D01*
X142088922Y-91648183D01*
X142279506Y-91825507D01*
X142305498Y-91843251D01*
X142395826Y-91899034D01*
X142483341Y-91937815D01*
X142589527Y-91963315D01*
X142735866Y-91979259D01*
X142943843Y-91989369D01*
X143188344Y-91996235D01*
X143865400Y-92012871D01*
X143865400Y-89871400D01*
X143560600Y-89871400D01*
X143560600Y-90777333D01*
X143558558Y-91071423D01*
X143552888Y-91330105D01*
X143544279Y-91536334D01*
X143533417Y-91673064D01*
X143522500Y-91722404D01*
X143456701Y-91738473D01*
X143317516Y-91745218D01*
X143132830Y-91741500D01*
X143098302Y-91739712D01*
X142836942Y-91713068D01*
X142646165Y-91663145D01*
X142531927Y-91606465D01*
X142353028Y-91437033D01*
X142239697Y-91190292D01*
X142191852Y-90866037D01*
X142190116Y-90772071D01*
X142220680Y-90464008D01*
X142305526Y-90209022D01*
X142437870Y-90023120D01*
X142538086Y-89950968D01*
X142702197Y-89900194D01*
X142952855Y-89874871D01*
X143126278Y-89871400D01*
X143560600Y-89871400D01*
X143865400Y-89871400D01*
X143865400Y-89556396D01*
X143217700Y-89574375D01*
G36*
X144616866Y-90608000D02*
G01*
X144494429Y-90921492D01*
X144380004Y-91214245D01*
X144280363Y-91468952D01*
X144202277Y-91668302D01*
X144152521Y-91794988D01*
X144144817Y-91814500D01*
X144069423Y-92005000D01*
X144451953Y-92005000D01*
X144573017Y-91649400D01*
X144694080Y-91293800D01*
X145730957Y-91293800D01*
X145856248Y-91636700D01*
X145924021Y-91814805D01*
X145977369Y-91918635D01*
X146035206Y-91969888D01*
X146116445Y-91990265D01*
X146168905Y-91995416D01*
X146356272Y-92011232D01*
X146278908Y-91817616D01*
X146237250Y-91712616D01*
X146165273Y-91530402D01*
X146069816Y-91288323D01*
X145957719Y-91003724D01*
X145938928Y-90955972D01*
X145592600Y-90955972D01*
X145545948Y-90971759D01*
X145422541Y-90983438D01*
X145247209Y-90988855D01*
X145211600Y-90989000D01*
X145029470Y-90986198D01*
X144894746Y-90978786D01*
X144832260Y-90968256D01*
X144830600Y-90966120D01*
X144846897Y-90910110D01*
X144889825Y-90784246D01*
X144950438Y-90613110D01*
X145019793Y-90421281D01*
X145088945Y-90233340D01*
X145148950Y-90073868D01*
X145190862Y-89967444D01*
X145204983Y-89937284D01*
X145226864Y-89974975D01*
X145274081Y-90085005D01*
X145337758Y-90244047D01*
X145409019Y-90428772D01*
X145478987Y-90615853D01*
X145538786Y-90781964D01*
X145579539Y-90903776D01*
X145592600Y-90955972D01*
X145938928Y-90955972D01*
X145835820Y-90693955D01*
X145802015Y-90608000D01*
X145402485Y-89592000D01*
X145013520Y-89592000D01*
X144616866Y-90608000D01*
X144616866Y-90608000D01*
G37*
X144616866Y-90608000D02*
X144494429Y-90921492D01*
X144380004Y-91214245D01*
X144280363Y-91468952D01*
X144202277Y-91668302D01*
X144152521Y-91794988D01*
X144144817Y-91814500D01*
X144069423Y-92005000D01*
X144451953Y-92005000D01*
X144573017Y-91649400D01*
X144694080Y-91293800D01*
X145730957Y-91293800D01*
X145856248Y-91636700D01*
X145924021Y-91814805D01*
X145977369Y-91918635D01*
X146035206Y-91969888D01*
X146116445Y-91990265D01*
X146168905Y-91995416D01*
X146356272Y-92011232D01*
X146278908Y-91817616D01*
X146237250Y-91712616D01*
X146165273Y-91530402D01*
X146069816Y-91288323D01*
X145957719Y-91003724D01*
X145938928Y-90955972D01*
X145592600Y-90955972D01*
X145545948Y-90971759D01*
X145422541Y-90983438D01*
X145247209Y-90988855D01*
X145211600Y-90989000D01*
X145029470Y-90986198D01*
X144894746Y-90978786D01*
X144832260Y-90968256D01*
X144830600Y-90966120D01*
X144846897Y-90910110D01*
X144889825Y-90784246D01*
X144950438Y-90613110D01*
X145019793Y-90421281D01*
X145088945Y-90233340D01*
X145148950Y-90073868D01*
X145190862Y-89967444D01*
X145204983Y-89937284D01*
X145226864Y-89974975D01*
X145274081Y-90085005D01*
X145337758Y-90244047D01*
X145409019Y-90428772D01*
X145478987Y-90615853D01*
X145538786Y-90781964D01*
X145579539Y-90903776D01*
X145592600Y-90955972D01*
X145938928Y-90955972D01*
X145835820Y-90693955D01*
X145802015Y-90608000D01*
X145402485Y-89592000D01*
X145013520Y-89592000D01*
X144616866Y-90608000D01*
G36*
X146303800Y-89871400D02*
G01*
X147116600Y-89871400D01*
X147116600Y-92005000D01*
X147421400Y-92005000D01*
X147421400Y-89871400D01*
X148285000Y-89871400D01*
X148285000Y-89566600D01*
X146303800Y-89566600D01*
X146303800Y-89871400D01*
X146303800Y-89871400D01*
G37*
X146303800Y-89871400D02*
X147116600Y-89871400D01*
X147116600Y-92005000D01*
X147421400Y-92005000D01*
X147421400Y-89871400D01*
X148285000Y-89871400D01*
X148285000Y-89566600D01*
X146303800Y-89566600D01*
X146303800Y-89871400D01*
G36*
X149555000Y-91751000D02*
G01*
X148234200Y-91751000D01*
X148234200Y-92005000D01*
X149859800Y-92005000D01*
X149859800Y-89566600D01*
X149555000Y-89566600D01*
X149555000Y-91751000D01*
X149555000Y-91751000D01*
G37*
X149555000Y-91751000D02*
X148234200Y-91751000D01*
X148234200Y-92005000D01*
X149859800Y-92005000D01*
X149859800Y-89566600D01*
X149555000Y-89566600D01*
X149555000Y-91751000D01*
G36*
X155486364Y-90696900D02*
G01*
X155360982Y-91018964D01*
X155246687Y-91312833D01*
X155149055Y-91564146D01*
X155073663Y-91758540D01*
X155026088Y-91881653D01*
X155012929Y-91916100D01*
X155006886Y-91975258D01*
X155063201Y-92000572D01*
X155164560Y-92005000D01*
X155292229Y-91989186D01*
X155366798Y-91950086D01*
X155371449Y-91941500D01*
X155399891Y-91862103D01*
X155451083Y-91721158D01*
X155500505Y-91585900D01*
X155607500Y-91293800D01*
X156645291Y-91293800D01*
X156768600Y-91649400D01*
X156834238Y-91831597D01*
X156884840Y-91937768D01*
X156937125Y-91988395D01*
X157007811Y-92003961D01*
X157058855Y-92005000D01*
X157171935Y-91994849D01*
X157224935Y-91970091D01*
X157225494Y-91966900D01*
X157207579Y-91910934D01*
X157157380Y-91773781D01*
X157079955Y-91568743D01*
X156980362Y-91309123D01*
X156863658Y-91008222D01*
X156839005Y-90945178D01*
X156498171Y-90945178D01*
X156466223Y-90971862D01*
X156375342Y-90984852D01*
X156206979Y-90988850D01*
X156139036Y-90989000D01*
X155955435Y-90984396D01*
X155819010Y-90972208D01*
X155754434Y-90954865D01*
X155752311Y-90950900D01*
X155768400Y-90879359D01*
X155811082Y-90744609D01*
X155871251Y-90571253D01*
X155939805Y-90383895D01*
X156007638Y-90207141D01*
X156065647Y-90065594D01*
X156104727Y-89983858D01*
X156114119Y-89973095D01*
X156144403Y-90017359D01*
X156198769Y-90135785D01*
X156267611Y-90306679D01*
X156299715Y-90392100D01*
X156373856Y-90592605D01*
X156437844Y-90764024D01*
X156481177Y-90878282D01*
X156489732Y-90900100D01*
X156498171Y-90945178D01*
X156839005Y-90945178D01*
X156768294Y-90764354D01*
X156642332Y-90442676D01*
X156529666Y-90153713D01*
X156435323Y-89910459D01*
X156364331Y-89725910D01*
X156321716Y-89613060D01*
X156311400Y-89583254D01*
X156266433Y-89572583D01*
X156154821Y-89566891D01*
X156119001Y-89566600D01*
X155926602Y-89566600D01*
X155486364Y-90696900D01*
X155486364Y-90696900D01*
G37*
X155486364Y-90696900D02*
X155360982Y-91018964D01*
X155246687Y-91312833D01*
X155149055Y-91564146D01*
X155073663Y-91758540D01*
X155026088Y-91881653D01*
X155012929Y-91916100D01*
X155006886Y-91975258D01*
X155063201Y-92000572D01*
X155164560Y-92005000D01*
X155292229Y-91989186D01*
X155366798Y-91950086D01*
X155371449Y-91941500D01*
X155399891Y-91862103D01*
X155451083Y-91721158D01*
X155500505Y-91585900D01*
X155607500Y-91293800D01*
X156645291Y-91293800D01*
X156768600Y-91649400D01*
X156834238Y-91831597D01*
X156884840Y-91937768D01*
X156937125Y-91988395D01*
X157007811Y-92003961D01*
X157058855Y-92005000D01*
X157171935Y-91994849D01*
X157224935Y-91970091D01*
X157225494Y-91966900D01*
X157207579Y-91910934D01*
X157157380Y-91773781D01*
X157079955Y-91568743D01*
X156980362Y-91309123D01*
X156863658Y-91008222D01*
X156839005Y-90945178D01*
X156498171Y-90945178D01*
X156466223Y-90971862D01*
X156375342Y-90984852D01*
X156206979Y-90988850D01*
X156139036Y-90989000D01*
X155955435Y-90984396D01*
X155819010Y-90972208D01*
X155754434Y-90954865D01*
X155752311Y-90950900D01*
X155768400Y-90879359D01*
X155811082Y-90744609D01*
X155871251Y-90571253D01*
X155939805Y-90383895D01*
X156007638Y-90207141D01*
X156065647Y-90065594D01*
X156104727Y-89983858D01*
X156114119Y-89973095D01*
X156144403Y-90017359D01*
X156198769Y-90135785D01*
X156267611Y-90306679D01*
X156299715Y-90392100D01*
X156373856Y-90592605D01*
X156437844Y-90764024D01*
X156481177Y-90878282D01*
X156489732Y-90900100D01*
X156498171Y-90945178D01*
X156839005Y-90945178D01*
X156768294Y-90764354D01*
X156642332Y-90442676D01*
X156529666Y-90153713D01*
X156435323Y-89910459D01*
X156364331Y-89725910D01*
X156321716Y-89613060D01*
X156311400Y-89583254D01*
X156266433Y-89572583D01*
X156154821Y-89566891D01*
X156119001Y-89566600D01*
X155926602Y-89566600D01*
X155486364Y-90696900D01*
G36*
X157276600Y-89871400D02*
G01*
X158601852Y-89871400D01*
X158572000Y-90608000D01*
X158000500Y-90622363D01*
X157753286Y-90629281D01*
X157590164Y-90638016D01*
X157493652Y-90652791D01*
X157446272Y-90677827D01*
X157430542Y-90717346D01*
X157429000Y-90760400D01*
X157432256Y-90813978D01*
X157453676Y-90849817D01*
X157510742Y-90872136D01*
X157620932Y-90885158D01*
X157801727Y-90893106D01*
X158000500Y-90898436D01*
X158572000Y-90912800D01*
X158600838Y-92005000D01*
X158902200Y-92005000D01*
X158902200Y-89566600D01*
X157276600Y-89566600D01*
X157276600Y-89871400D01*
X157276600Y-89871400D01*
G37*
X157276600Y-89871400D02*
X158601852Y-89871400D01*
X158572000Y-90608000D01*
X158000500Y-90622363D01*
X157753286Y-90629281D01*
X157590164Y-90638016D01*
X157493652Y-90652791D01*
X157446272Y-90677827D01*
X157430542Y-90717346D01*
X157429000Y-90760400D01*
X157432256Y-90813978D01*
X157453676Y-90849817D01*
X157510742Y-90872136D01*
X157620932Y-90885158D01*
X157801727Y-90893106D01*
X158000500Y-90898436D01*
X158572000Y-90912800D01*
X158600838Y-92005000D01*
X158902200Y-92005000D01*
X158902200Y-89566600D01*
X157276600Y-89566600D01*
X157276600Y-89871400D01*
G36*
X151992652Y-90468300D02*
G01*
X151988844Y-90862577D01*
X151977959Y-91160250D01*
X151959701Y-91366087D01*
X151933770Y-91484858D01*
X151928445Y-91497000D01*
X151801737Y-91645986D01*
X151613718Y-91744670D01*
X151393444Y-91789188D01*
X151169968Y-91775679D01*
X150972345Y-91700281D01*
X150889249Y-91635139D01*
X150817458Y-91544105D01*
X150763131Y-91424226D01*
X150724051Y-91261544D01*
X150698001Y-91042103D01*
X150682764Y-90751948D01*
X150676122Y-90377121D01*
X150675629Y-90290500D01*
X150672600Y-89566600D01*
X150367800Y-89566600D01*
X150367800Y-90490361D01*
X150368895Y-90827053D01*
X150373210Y-91079394D01*
X150382288Y-91264618D01*
X150397676Y-91399960D01*
X150420917Y-91502653D01*
X150453556Y-91589933D01*
X150469405Y-91624009D01*
X150607184Y-91827030D01*
X150797407Y-91962132D01*
X151052544Y-92035470D01*
X151339917Y-92053811D01*
X151548683Y-92043576D01*
X151737496Y-92018641D01*
X151865731Y-91984384D01*
X151866400Y-91984088D01*
X152086858Y-91835269D01*
X152246987Y-91623433D01*
X152299414Y-91492769D01*
X152315916Y-91385024D01*
X152330092Y-91196650D01*
X152340952Y-90948607D01*
X152347505Y-90661857D01*
X152349000Y-90443235D01*
X152349000Y-89566600D01*
X151993400Y-89566600D01*
X151992652Y-90468300D01*
X151992652Y-90468300D01*
G37*
X151992652Y-90468300D02*
X151988844Y-90862577D01*
X151977959Y-91160250D01*
X151959701Y-91366087D01*
X151933770Y-91484858D01*
X151928445Y-91497000D01*
X151801737Y-91645986D01*
X151613718Y-91744670D01*
X151393444Y-91789188D01*
X151169968Y-91775679D01*
X150972345Y-91700281D01*
X150889249Y-91635139D01*
X150817458Y-91544105D01*
X150763131Y-91424226D01*
X150724051Y-91261544D01*
X150698001Y-91042103D01*
X150682764Y-90751948D01*
X150676122Y-90377121D01*
X150675629Y-90290500D01*
X150672600Y-89566600D01*
X150367800Y-89566600D01*
X150367800Y-90490361D01*
X150368895Y-90827053D01*
X150373210Y-91079394D01*
X150382288Y-91264618D01*
X150397676Y-91399960D01*
X150420917Y-91502653D01*
X150453556Y-91589933D01*
X150469405Y-91624009D01*
X150607184Y-91827030D01*
X150797407Y-91962132D01*
X151052544Y-92035470D01*
X151339917Y-92053811D01*
X151548683Y-92043576D01*
X151737496Y-92018641D01*
X151865731Y-91984384D01*
X151866400Y-91984088D01*
X152086858Y-91835269D01*
X152246987Y-91623433D01*
X152299414Y-91492769D01*
X152315916Y-91385024D01*
X152330092Y-91196650D01*
X152340952Y-90948607D01*
X152347505Y-90661857D01*
X152349000Y-90443235D01*
X152349000Y-89566600D01*
X151993400Y-89566600D01*
X151992652Y-90468300D01*
G36*
X153501640Y-89535788D02*
G01*
X153208139Y-89618811D01*
X152978126Y-89779985D01*
X152809222Y-90020759D01*
X152733013Y-90214300D01*
X152720120Y-90290347D01*
X152761631Y-90322218D01*
X152878009Y-90328600D01*
X153006218Y-90315414D01*
X153069043Y-90262621D01*
X153088931Y-90206417D01*
X153181661Y-90027530D01*
X153343940Y-89898210D01*
X153553988Y-89823510D01*
X153790024Y-89808484D01*
X154030267Y-89858186D01*
X154208780Y-89946584D01*
X154356728Y-90098659D01*
X154466724Y-90321562D01*
X154533330Y-90589866D01*
X154551106Y-90878140D01*
X154514612Y-91160956D01*
X154488274Y-91253160D01*
X154360982Y-91484400D01*
X154163825Y-91659599D01*
X153918594Y-91766553D01*
X153647079Y-91793059D01*
X153546681Y-91780479D01*
X153374441Y-91704785D01*
X153210624Y-91560962D01*
X153085090Y-91380193D01*
X153035629Y-91246773D01*
X152995212Y-91135603D01*
X152917420Y-91094613D01*
X152846317Y-91090600D01*
X152746329Y-91097018D01*
X152709089Y-91135969D01*
X152715247Y-91237000D01*
X152722090Y-91280296D01*
X152800209Y-91507718D01*
X152945307Y-91730429D01*
X153128935Y-91908848D01*
X153211808Y-91961644D01*
X153418100Y-92030829D01*
X153675978Y-92060534D01*
X153946781Y-92051459D01*
X154191850Y-92004305D01*
X154340847Y-91941191D01*
X154585826Y-91735388D01*
X154759960Y-91460782D01*
X154860504Y-91123972D01*
X154884708Y-90731557D01*
X154880072Y-90645950D01*
X154813133Y-90283795D01*
X154672666Y-89985084D01*
X154464164Y-89755837D01*
X154193120Y-89602069D01*
X153865026Y-89529799D01*
X153861013Y-89529471D01*
X153501640Y-89535788D01*
X153501640Y-89535788D01*
G37*
X153501640Y-89535788D02*
X153208139Y-89618811D01*
X152978126Y-89779985D01*
X152809222Y-90020759D01*
X152733013Y-90214300D01*
X152720120Y-90290347D01*
X152761631Y-90322218D01*
X152878009Y-90328600D01*
X153006218Y-90315414D01*
X153069043Y-90262621D01*
X153088931Y-90206417D01*
X153181661Y-90027530D01*
X153343940Y-89898210D01*
X153553988Y-89823510D01*
X153790024Y-89808484D01*
X154030267Y-89858186D01*
X154208780Y-89946584D01*
X154356728Y-90098659D01*
X154466724Y-90321562D01*
X154533330Y-90589866D01*
X154551106Y-90878140D01*
X154514612Y-91160956D01*
X154488274Y-91253160D01*
X154360982Y-91484400D01*
X154163825Y-91659599D01*
X153918594Y-91766553D01*
X153647079Y-91793059D01*
X153546681Y-91780479D01*
X153374441Y-91704785D01*
X153210624Y-91560962D01*
X153085090Y-91380193D01*
X153035629Y-91246773D01*
X152995212Y-91135603D01*
X152917420Y-91094613D01*
X152846317Y-91090600D01*
X152746329Y-91097018D01*
X152709089Y-91135969D01*
X152715247Y-91237000D01*
X152722090Y-91280296D01*
X152800209Y-91507718D01*
X152945307Y-91730429D01*
X153128935Y-91908848D01*
X153211808Y-91961644D01*
X153418100Y-92030829D01*
X153675978Y-92060534D01*
X153946781Y-92051459D01*
X154191850Y-92004305D01*
X154340847Y-91941191D01*
X154585826Y-91735388D01*
X154759960Y-91460782D01*
X154860504Y-91123972D01*
X154884708Y-90731557D01*
X154880072Y-90645950D01*
X154813133Y-90283795D01*
X154672666Y-89985084D01*
X154464164Y-89755837D01*
X154193120Y-89602069D01*
X153865026Y-89529799D01*
X153861013Y-89529471D01*
X153501640Y-89535788D01*
G36*
X160529320Y-92486661D02*
G01*
X160487605Y-92558081D01*
X160477000Y-92633603D01*
X160493368Y-92702722D01*
X160556042Y-92759926D01*
X160685383Y-92819713D01*
X160794500Y-92859719D01*
X160974384Y-92917321D01*
X161128011Y-92956746D01*
X161213600Y-92968887D01*
X161269050Y-92959462D01*
X161256906Y-92923905D01*
X161170553Y-92845275D01*
X161162800Y-92838762D01*
X160996775Y-92711990D01*
X160826211Y-92601884D01*
X160674468Y-92521428D01*
X160564906Y-92483606D01*
X160529320Y-92486661D01*
X160529320Y-92486661D01*
G37*
X160529320Y-92486661D02*
X160487605Y-92558081D01*
X160477000Y-92633603D01*
X160493368Y-92702722D01*
X160556042Y-92759926D01*
X160685383Y-92819713D01*
X160794500Y-92859719D01*
X160974384Y-92917321D01*
X161128011Y-92956746D01*
X161213600Y-92968887D01*
X161269050Y-92959462D01*
X161256906Y-92923905D01*
X161170553Y-92845275D01*
X161162800Y-92838762D01*
X160996775Y-92711990D01*
X160826211Y-92601884D01*
X160674468Y-92521428D01*
X160564906Y-92483606D01*
X160529320Y-92486661D01*
G36*
X136957520Y-93541700D02*
G01*
X136851548Y-93826051D01*
X136747174Y-94105803D01*
X136654638Y-94353530D01*
X136584180Y-94541805D01*
X136568689Y-94583100D01*
X136449474Y-94900600D01*
X136749897Y-94900600D01*
X136918041Y-94897999D01*
X137013476Y-94880663D01*
X137065093Y-94834285D01*
X137101784Y-94744561D01*
X137109000Y-94722800D01*
X137167680Y-94545000D01*
X137876185Y-94545000D01*
X137950474Y-94722800D01*
X137998952Y-94824892D01*
X138055391Y-94877789D01*
X138151854Y-94897640D01*
X138303482Y-94900600D01*
X138456326Y-94897614D01*
X138557563Y-94889916D01*
X138582200Y-94882496D01*
X138565248Y-94831259D01*
X138518419Y-94701439D01*
X138447755Y-94509493D01*
X138359297Y-94271878D01*
X138297776Y-94107796D01*
X138271378Y-94037572D01*
X137712457Y-94037572D01*
X137689061Y-94106418D01*
X137613298Y-94134199D01*
X137515400Y-94138600D01*
X137388137Y-94128746D01*
X137317371Y-94104131D01*
X137312200Y-94094186D01*
X137328034Y-94024096D01*
X137368265Y-93892139D01*
X137421991Y-93731720D01*
X137478308Y-93576243D01*
X137496684Y-93529000D01*
X137529325Y-93521569D01*
X137580303Y-93609187D01*
X137618900Y-93706800D01*
X137687674Y-93910189D01*
X137712457Y-94037572D01*
X138271378Y-94037572D01*
X138191306Y-93824570D01*
X138088957Y-93552297D01*
X137999900Y-93315371D01*
X137933303Y-93138187D01*
X137913126Y-93084500D01*
X137812901Y-92817800D01*
X137227136Y-92817800D01*
X136957520Y-93541700D01*
X136957520Y-93541700D01*
G37*
X136957520Y-93541700D02*
X136851548Y-93826051D01*
X136747174Y-94105803D01*
X136654638Y-94353530D01*
X136584180Y-94541805D01*
X136568689Y-94583100D01*
X136449474Y-94900600D01*
X136749897Y-94900600D01*
X136918041Y-94897999D01*
X137013476Y-94880663D01*
X137065093Y-94834285D01*
X137101784Y-94744561D01*
X137109000Y-94722800D01*
X137167680Y-94545000D01*
X137876185Y-94545000D01*
X137950474Y-94722800D01*
X137998952Y-94824892D01*
X138055391Y-94877789D01*
X138151854Y-94897640D01*
X138303482Y-94900600D01*
X138456326Y-94897614D01*
X138557563Y-94889916D01*
X138582200Y-94882496D01*
X138565248Y-94831259D01*
X138518419Y-94701439D01*
X138447755Y-94509493D01*
X138359297Y-94271878D01*
X138297776Y-94107796D01*
X138271378Y-94037572D01*
X137712457Y-94037572D01*
X137689061Y-94106418D01*
X137613298Y-94134199D01*
X137515400Y-94138600D01*
X137388137Y-94128746D01*
X137317371Y-94104131D01*
X137312200Y-94094186D01*
X137328034Y-94024096D01*
X137368265Y-93892139D01*
X137421991Y-93731720D01*
X137478308Y-93576243D01*
X137496684Y-93529000D01*
X137529325Y-93521569D01*
X137580303Y-93609187D01*
X137618900Y-93706800D01*
X137687674Y-93910189D01*
X137712457Y-94037572D01*
X138271378Y-94037572D01*
X138191306Y-93824570D01*
X138088957Y-93552297D01*
X137999900Y-93315371D01*
X137933303Y-93138187D01*
X137913126Y-93084500D01*
X137812901Y-92817800D01*
X137227136Y-92817800D01*
X136957520Y-93541700D01*
G36*
X138734600Y-94900600D02*
G01*
X139293400Y-94900600D01*
X139293400Y-92817800D01*
X138734600Y-92817800D01*
X138734600Y-94900600D01*
X138734600Y-94900600D01*
G37*
X138734600Y-94900600D02*
X139293400Y-94900600D01*
X139293400Y-92817800D01*
X138734600Y-92817800D01*
X138734600Y-94900600D01*
G36*
X140354059Y-92825119D02*
G01*
X140081520Y-92850310D01*
X139882574Y-92898225D01*
X139743639Y-92973716D01*
X139651129Y-93081635D01*
X139594153Y-93217676D01*
X139568423Y-93418539D01*
X139599288Y-93617224D01*
X139677978Y-93778124D01*
X139748485Y-93844267D01*
X139800538Y-93886428D01*
X139802060Y-93938575D01*
X139749056Y-94031575D01*
X139718301Y-94077399D01*
X139640078Y-94232562D01*
X139599703Y-94390603D01*
X139598200Y-94418738D01*
X139587270Y-94596336D01*
X139565871Y-94744745D01*
X139533542Y-94906390D01*
X140080800Y-94875200D01*
X140114741Y-94597096D01*
X140166453Y-94370334D01*
X140263953Y-94227055D01*
X140420654Y-94154437D01*
X140594428Y-94138600D01*
X140817400Y-94138600D01*
X140817400Y-94900600D01*
X141376200Y-94900600D01*
X141376200Y-93478200D01*
X140817400Y-93478200D01*
X140817400Y-93732200D01*
X140539172Y-93732200D01*
X140369554Y-93725553D01*
X140267794Y-93697976D01*
X140200593Y-93638011D01*
X140179961Y-93608606D01*
X140130090Y-93469855D01*
X140173215Y-93357479D01*
X140303019Y-93276421D01*
X140513185Y-93231622D01*
X140671350Y-93224200D01*
X140757835Y-93230293D01*
X140800966Y-93266026D01*
X140815795Y-93357581D01*
X140817400Y-93478200D01*
X141376200Y-93478200D01*
X141376200Y-92817800D01*
X140713777Y-92817800D01*
X140354059Y-92825119D01*
X140354059Y-92825119D01*
G37*
X140354059Y-92825119D02*
X140081520Y-92850310D01*
X139882574Y-92898225D01*
X139743639Y-92973716D01*
X139651129Y-93081635D01*
X139594153Y-93217676D01*
X139568423Y-93418539D01*
X139599288Y-93617224D01*
X139677978Y-93778124D01*
X139748485Y-93844267D01*
X139800538Y-93886428D01*
X139802060Y-93938575D01*
X139749056Y-94031575D01*
X139718301Y-94077399D01*
X139640078Y-94232562D01*
X139599703Y-94390603D01*
X139598200Y-94418738D01*
X139587270Y-94596336D01*
X139565871Y-94744745D01*
X139533542Y-94906390D01*
X140080800Y-94875200D01*
X140114741Y-94597096D01*
X140166453Y-94370334D01*
X140263953Y-94227055D01*
X140420654Y-94154437D01*
X140594428Y-94138600D01*
X140817400Y-94138600D01*
X140817400Y-94900600D01*
X141376200Y-94900600D01*
X141376200Y-93478200D01*
X140817400Y-93478200D01*
X140817400Y-93732200D01*
X140539172Y-93732200D01*
X140369554Y-93725553D01*
X140267794Y-93697976D01*
X140200593Y-93638011D01*
X140179961Y-93608606D01*
X140130090Y-93469855D01*
X140173215Y-93357479D01*
X140303019Y-93276421D01*
X140513185Y-93231622D01*
X140671350Y-93224200D01*
X140757835Y-93230293D01*
X140800966Y-93266026D01*
X140815795Y-93357581D01*
X140817400Y-93478200D01*
X141376200Y-93478200D01*
X141376200Y-92817800D01*
X140713777Y-92817800D01*
X140354059Y-92825119D01*
G36*
X141681000Y-93220872D02*
G01*
X142824000Y-93249600D01*
X142855534Y-93630600D01*
X141782600Y-93630600D01*
X141782600Y-94037000D01*
X142849400Y-94037000D01*
X142849400Y-94443400D01*
X141681000Y-94443400D01*
X141681000Y-94900600D01*
X143408200Y-94900600D01*
X143408200Y-92817800D01*
X141681000Y-92817800D01*
X141681000Y-93220872D01*
X141681000Y-93220872D01*
G37*
X141681000Y-93220872D02*
X142824000Y-93249600D01*
X142855534Y-93630600D01*
X141782600Y-93630600D01*
X141782600Y-94037000D01*
X142849400Y-94037000D01*
X142849400Y-94443400D01*
X141681000Y-94443400D01*
X141681000Y-94900600D01*
X143408200Y-94900600D01*
X143408200Y-92817800D01*
X141681000Y-92817800D01*
X141681000Y-93220872D01*
G36*
X143763800Y-94900600D02*
G01*
X144271800Y-94900600D01*
X144271800Y-92817800D01*
X143763800Y-92817800D01*
X143763800Y-94900600D01*
X143763800Y-94900600D01*
G37*
X143763800Y-94900600D02*
X144271800Y-94900600D01*
X144271800Y-92817800D01*
X143763800Y-92817800D01*
X143763800Y-94900600D01*
G36*
X146164457Y-92827964D02*
G01*
X145872714Y-92843200D01*
X145530172Y-93452800D01*
X145187631Y-94062400D01*
X145186356Y-93630600D01*
X145181978Y-93403360D01*
X145171525Y-93190701D01*
X145157065Y-93031862D01*
X145153595Y-93008300D01*
X145130140Y-92894459D01*
X145089227Y-92838418D01*
X145000866Y-92819688D01*
X144874754Y-92817800D01*
X144627400Y-92817800D01*
X144627400Y-94900600D01*
X145229194Y-94900600D01*
X145922800Y-93656000D01*
X145951328Y-94900600D01*
X146456200Y-94900600D01*
X146456200Y-92812729D01*
X146164457Y-92827964D01*
X146164457Y-92827964D01*
G37*
X146164457Y-92827964D02*
X145872714Y-92843200D01*
X145530172Y-93452800D01*
X145187631Y-94062400D01*
X145186356Y-93630600D01*
X145181978Y-93403360D01*
X145171525Y-93190701D01*
X145157065Y-93031862D01*
X145153595Y-93008300D01*
X145130140Y-92894459D01*
X145089227Y-92838418D01*
X145000866Y-92819688D01*
X144874754Y-92817800D01*
X144627400Y-92817800D01*
X144627400Y-94900600D01*
X145229194Y-94900600D01*
X145922800Y-93656000D01*
X145951328Y-94900600D01*
X146456200Y-94900600D01*
X146456200Y-92812729D01*
X146164457Y-92827964D01*
G36*
X146761000Y-93220872D02*
G01*
X147904000Y-93249600D01*
X147904000Y-93605200D01*
X146862600Y-93634154D01*
X146862600Y-94033445D01*
X147383300Y-94047922D01*
X147904000Y-94062400D01*
X147935534Y-94443400D01*
X146761000Y-94443400D01*
X146761000Y-94900600D01*
X148437400Y-94900600D01*
X148437400Y-92817800D01*
X146761000Y-92817800D01*
X146761000Y-93220872D01*
X146761000Y-93220872D01*
G37*
X146761000Y-93220872D02*
X147904000Y-93249600D01*
X147904000Y-93605200D01*
X146862600Y-93634154D01*
X146862600Y-94033445D01*
X147383300Y-94047922D01*
X147904000Y-94062400D01*
X147935534Y-94443400D01*
X146761000Y-94443400D01*
X146761000Y-94900600D01*
X148437400Y-94900600D01*
X148437400Y-92817800D01*
X146761000Y-92817800D01*
X146761000Y-93220872D01*
G36*
X151079000Y-94900600D02*
G01*
X151667256Y-94900600D01*
X152374400Y-93656000D01*
X152402928Y-94900600D01*
X152907800Y-94900600D01*
X152907800Y-92817800D01*
X152615700Y-92818334D01*
X152323600Y-92818869D01*
X152000296Y-93403124D01*
X151876519Y-93622928D01*
X151767479Y-93809371D01*
X151683767Y-93944853D01*
X151635970Y-94011778D01*
X151631996Y-94015187D01*
X151614411Y-93978919D01*
X151600157Y-93858471D01*
X151590575Y-93671245D01*
X151587002Y-93434641D01*
X151587000Y-93430398D01*
X151587000Y-92817800D01*
X151079000Y-92817800D01*
X151079000Y-94900600D01*
X151079000Y-94900600D01*
G37*
X151079000Y-94900600D02*
X151667256Y-94900600D01*
X152374400Y-93656000D01*
X152402928Y-94900600D01*
X152907800Y-94900600D01*
X152907800Y-92817800D01*
X152615700Y-92818334D01*
X152323600Y-92818869D01*
X152000296Y-93403124D01*
X151876519Y-93622928D01*
X151767479Y-93809371D01*
X151683767Y-93944853D01*
X151635970Y-94011778D01*
X151631996Y-94015187D01*
X151614411Y-93978919D01*
X151600157Y-93858471D01*
X151590575Y-93671245D01*
X151587002Y-93434641D01*
X151587000Y-93430398D01*
X151587000Y-92817800D01*
X151079000Y-92817800D01*
X151079000Y-94900600D01*
G36*
X153263400Y-94900600D02*
G01*
X153822200Y-94900600D01*
X153822200Y-92817800D01*
X153263400Y-92817800D01*
X153263400Y-94900600D01*
X153263400Y-94900600D01*
G37*
X153263400Y-94900600D02*
X153822200Y-94900600D01*
X153822200Y-92817800D01*
X153263400Y-92817800D01*
X153263400Y-94900600D01*
G36*
X155041400Y-93220762D02*
G01*
X156133600Y-93249600D01*
X156165134Y-93630600D01*
X155143000Y-93630600D01*
X155143000Y-94037000D01*
X156159000Y-94037000D01*
X156159000Y-94443400D01*
X154990600Y-94443400D01*
X154990600Y-94900600D01*
X156717800Y-94900600D01*
X156717800Y-92817800D01*
X155041400Y-92817800D01*
X155041400Y-93220762D01*
X155041400Y-93220762D01*
G37*
X155041400Y-93220762D02*
X156133600Y-93249600D01*
X156165134Y-93630600D01*
X155143000Y-93630600D01*
X155143000Y-94037000D01*
X156159000Y-94037000D01*
X156159000Y-94443400D01*
X154990600Y-94443400D01*
X154990600Y-94900600D01*
X156717800Y-94900600D01*
X156717800Y-92817800D01*
X155041400Y-92817800D01*
X155041400Y-93220762D01*
G36*
X158330700Y-92818915D02*
G01*
X157970753Y-92828787D01*
X157694623Y-92860185D01*
X157485903Y-92917974D01*
X157328186Y-93007018D01*
X157205064Y-93132181D01*
X157185699Y-93158375D01*
X157064733Y-93400131D01*
X156998886Y-93687767D01*
X156989250Y-93989054D01*
X157036919Y-94271763D01*
X157140236Y-94499665D01*
X157242340Y-94638518D01*
X157342937Y-94738670D01*
X157461194Y-94806922D01*
X157616280Y-94850074D01*
X157827362Y-94874927D01*
X158113610Y-94888282D01*
X158245321Y-94891739D01*
X158953000Y-94908279D01*
X158953000Y-94443400D01*
X158397528Y-94443400D01*
X158170571Y-94443400D01*
X157996527Y-94431900D01*
X157842883Y-94403267D01*
X157810850Y-94392923D01*
X157675579Y-94291772D01*
X157586484Y-94126684D01*
X157546893Y-93925844D01*
X157560136Y-93717436D01*
X157629539Y-93529645D01*
X157698300Y-93439809D01*
X157803894Y-93359589D01*
X157937575Y-93319703D01*
X158095795Y-93307860D01*
X158368800Y-93300400D01*
X158397528Y-94443400D01*
X158953000Y-94443400D01*
X158953000Y-92817800D01*
X158330700Y-92818915D01*
X158330700Y-92818915D01*
G37*
X158330700Y-92818915D02*
X157970753Y-92828787D01*
X157694623Y-92860185D01*
X157485903Y-92917974D01*
X157328186Y-93007018D01*
X157205064Y-93132181D01*
X157185699Y-93158375D01*
X157064733Y-93400131D01*
X156998886Y-93687767D01*
X156989250Y-93989054D01*
X157036919Y-94271763D01*
X157140236Y-94499665D01*
X157242340Y-94638518D01*
X157342937Y-94738670D01*
X157461194Y-94806922D01*
X157616280Y-94850074D01*
X157827362Y-94874927D01*
X158113610Y-94888282D01*
X158245321Y-94891739D01*
X158953000Y-94908279D01*
X158953000Y-94443400D01*
X158397528Y-94443400D01*
X158170571Y-94443400D01*
X157996527Y-94431900D01*
X157842883Y-94403267D01*
X157810850Y-94392923D01*
X157675579Y-94291772D01*
X157586484Y-94126684D01*
X157546893Y-93925844D01*
X157560136Y-93717436D01*
X157629539Y-93529645D01*
X157698300Y-93439809D01*
X157803894Y-93359589D01*
X157937575Y-93319703D01*
X158095795Y-93307860D01*
X158368800Y-93300400D01*
X158397528Y-94443400D01*
X158953000Y-94443400D01*
X158953000Y-92817800D01*
X158330700Y-92818915D01*
G36*
X149406476Y-92817043D02*
G01*
X149166506Y-92937962D01*
X148970070Y-93122841D01*
X148834934Y-93369911D01*
X148820307Y-93414700D01*
X148807590Y-93480958D01*
X148835423Y-93514951D01*
X148925727Y-93527383D01*
X149054369Y-93529000D01*
X149223031Y-93521256D01*
X149329100Y-93488651D01*
X149411006Y-93417124D01*
X149433056Y-93390454D01*
X149537782Y-93292727D01*
X149669439Y-93255022D01*
X149748407Y-93251909D01*
X149959571Y-93290214D01*
X150113678Y-93409180D01*
X150218597Y-93614885D01*
X150218685Y-93615151D01*
X150260570Y-93859591D01*
X150229977Y-94085926D01*
X150137671Y-94276466D01*
X149994419Y-94413523D01*
X149810989Y-94479407D01*
X149693240Y-94478423D01*
X149533825Y-94434912D01*
X149396789Y-94360340D01*
X149313129Y-94274154D01*
X149301000Y-94232326D01*
X149345682Y-94203946D01*
X149455541Y-94189768D01*
X149478800Y-94189400D01*
X149592640Y-94183248D01*
X149643230Y-94145265D01*
X149656203Y-94046159D01*
X149656600Y-93986200D01*
X149656600Y-93783000D01*
X148793000Y-93783000D01*
X148793000Y-94900600D01*
X148970800Y-94900600D01*
X149102304Y-94884076D01*
X149148279Y-94831339D01*
X149148600Y-94824400D01*
X149161887Y-94760561D01*
X149212690Y-94762964D01*
X149317423Y-94833810D01*
X149337939Y-94849800D01*
X149494433Y-94920724D01*
X149708839Y-94951452D01*
X149945792Y-94942060D01*
X150169927Y-94892626D01*
X150276174Y-94847740D01*
X150512829Y-94668828D01*
X150684703Y-94427768D01*
X150787421Y-94144102D01*
X150816607Y-93837371D01*
X150767889Y-93527119D01*
X150637441Y-93233775D01*
X150446326Y-93008355D01*
X150209904Y-92855741D01*
X149945943Y-92774164D01*
X149672211Y-92761854D01*
X149406476Y-92817043D01*
X149406476Y-92817043D01*
G37*
X149406476Y-92817043D02*
X149166506Y-92937962D01*
X148970070Y-93122841D01*
X148834934Y-93369911D01*
X148820307Y-93414700D01*
X148807590Y-93480958D01*
X148835423Y-93514951D01*
X148925727Y-93527383D01*
X149054369Y-93529000D01*
X149223031Y-93521256D01*
X149329100Y-93488651D01*
X149411006Y-93417124D01*
X149433056Y-93390454D01*
X149537782Y-93292727D01*
X149669439Y-93255022D01*
X149748407Y-93251909D01*
X149959571Y-93290214D01*
X150113678Y-93409180D01*
X150218597Y-93614885D01*
X150218685Y-93615151D01*
X150260570Y-93859591D01*
X150229977Y-94085926D01*
X150137671Y-94276466D01*
X149994419Y-94413523D01*
X149810989Y-94479407D01*
X149693240Y-94478423D01*
X149533825Y-94434912D01*
X149396789Y-94360340D01*
X149313129Y-94274154D01*
X149301000Y-94232326D01*
X149345682Y-94203946D01*
X149455541Y-94189768D01*
X149478800Y-94189400D01*
X149592640Y-94183248D01*
X149643230Y-94145265D01*
X149656203Y-94046159D01*
X149656600Y-93986200D01*
X149656600Y-93783000D01*
X148793000Y-93783000D01*
X148793000Y-94900600D01*
X148970800Y-94900600D01*
X149102304Y-94884076D01*
X149148279Y-94831339D01*
X149148600Y-94824400D01*
X149161887Y-94760561D01*
X149212690Y-94762964D01*
X149317423Y-94833810D01*
X149337939Y-94849800D01*
X149494433Y-94920724D01*
X149708839Y-94951452D01*
X149945792Y-94942060D01*
X150169927Y-94892626D01*
X150276174Y-94847740D01*
X150512829Y-94668828D01*
X150684703Y-94427768D01*
X150787421Y-94144102D01*
X150816607Y-93837371D01*
X150767889Y-93527119D01*
X150637441Y-93233775D01*
X150446326Y-93008355D01*
X150209904Y-92855741D01*
X149945943Y-92774164D01*
X149672211Y-92761854D01*
X149406476Y-92817043D01*
G36*
X160223000Y-90446744D02*
G01*
X160223284Y-90814260D01*
X160224993Y-91093821D01*
X160229416Y-91299075D01*
X160237844Y-91443667D01*
X160251564Y-91541242D01*
X160271867Y-91605448D01*
X160300041Y-91649930D01*
X160337375Y-91688334D01*
X160340575Y-91691344D01*
X160412211Y-91748241D01*
X160492638Y-91783460D01*
X160593981Y-91794700D01*
X160728366Y-91779655D01*
X160907918Y-91736021D01*
X161144763Y-91661495D01*
X161451025Y-91553773D01*
X161838831Y-91410549D01*
X161860031Y-91402620D01*
X162147723Y-91315044D01*
X162363100Y-91296182D01*
X162509587Y-91347030D01*
X162590609Y-91468584D01*
X162610600Y-91620660D01*
X162590212Y-91727931D01*
X162532913Y-91740955D01*
X162458200Y-91674800D01*
X162381866Y-91622134D01*
X162261424Y-91604369D01*
X162086517Y-91623153D01*
X161846782Y-91680133D01*
X161531858Y-91776956D01*
X161282960Y-91861678D01*
X160530098Y-92124756D01*
X161309379Y-92644904D01*
X161644676Y-92872892D01*
X161900718Y-93057642D01*
X162086152Y-93206862D01*
X162209625Y-93328259D01*
X162279787Y-93429541D01*
X162305286Y-93518415D01*
X162305800Y-93532970D01*
X162344511Y-93629778D01*
X162416315Y-93702246D01*
X162478666Y-93760157D01*
X162509781Y-93841294D01*
X162517413Y-93976023D01*
X162514320Y-94086161D01*
X162537648Y-94452316D01*
X162631759Y-94791139D01*
X162786909Y-95088639D01*
X162993354Y-95330825D01*
X163241351Y-95503709D01*
X163521157Y-95593298D01*
X163567890Y-95598937D01*
X163732540Y-95602607D01*
X163860612Y-95565642D01*
X164005943Y-95472399D01*
X164007600Y-95471177D01*
X164154494Y-95335952D01*
X164279207Y-95176568D01*
X164309548Y-95123658D01*
X164409939Y-94954316D01*
X164528489Y-94794687D01*
X164547020Y-94773600D01*
X164619596Y-94680315D01*
X164666769Y-94574752D01*
X164697554Y-94427387D01*
X164720967Y-94208695D01*
X164721532Y-94202100D01*
X164733853Y-94010596D01*
X164735543Y-93865034D01*
X164726627Y-93788899D01*
X164721070Y-93783000D01*
X164640991Y-93817374D01*
X164517116Y-93906152D01*
X164373164Y-94027820D01*
X164232857Y-94160860D01*
X164119916Y-94283758D01*
X164058062Y-94374996D01*
X164053748Y-94388287D01*
X163990462Y-94603214D01*
X163903717Y-94736386D01*
X163801718Y-94800019D01*
X163642149Y-94843699D01*
X163520075Y-94822057D01*
X163393348Y-94725484D01*
X163368693Y-94701307D01*
X163250275Y-94560182D01*
X163222793Y-94463046D01*
X163286577Y-94407923D01*
X163419977Y-94392600D01*
X163563854Y-94378558D01*
X163635642Y-94329102D01*
X163650022Y-94297232D01*
X163706454Y-94220421D01*
X163823148Y-94115700D01*
X163953810Y-94020259D01*
X164263462Y-93770463D01*
X164285382Y-93741980D01*
X163664932Y-93741980D01*
X163653665Y-93912970D01*
X163552710Y-94064709D01*
X163384906Y-94169239D01*
X163189515Y-94176586D01*
X163020634Y-94115078D01*
X162891712Y-94015165D01*
X162839409Y-93905019D01*
X162860697Y-93808035D01*
X162952548Y-93747605D01*
X163069089Y-93740663D01*
X163199624Y-93719628D01*
X163327964Y-93617156D01*
X163339999Y-93603885D01*
X163474511Y-93452800D01*
X163575956Y-93572727D01*
X163664932Y-93741980D01*
X164285382Y-93741980D01*
X164479538Y-93489699D01*
X164598415Y-93191198D01*
X163293782Y-93191198D01*
X163257085Y-93359417D01*
X163150371Y-93492157D01*
X163102285Y-93521834D01*
X162953677Y-93556589D01*
X162774813Y-93547319D01*
X162619153Y-93499067D01*
X162578216Y-93472403D01*
X162523685Y-93375363D01*
X162519249Y-93304845D01*
X162562088Y-93222902D01*
X162675398Y-93185595D01*
X162699500Y-93182881D01*
X162822806Y-93152030D01*
X162864310Y-93085087D01*
X162864600Y-93076454D01*
X162900167Y-92975365D01*
X162965248Y-92894862D01*
X163050509Y-92835363D01*
X163119228Y-92850161D01*
X163148340Y-92872201D01*
X163258265Y-93018469D01*
X163293782Y-93191198D01*
X164598415Y-93191198D01*
X164608097Y-93166887D01*
X164655196Y-92790948D01*
X164655546Y-92749052D01*
X162801106Y-92749052D01*
X162722019Y-92895477D01*
X162573033Y-92992727D01*
X162403449Y-93021000D01*
X162234354Y-92993591D01*
X162099757Y-92927312D01*
X162018416Y-92820491D01*
X162032821Y-92722991D01*
X162137336Y-92650804D01*
X162203660Y-92632488D01*
X162336718Y-92572293D01*
X162388503Y-92479778D01*
X162448347Y-92364515D01*
X162511260Y-92308590D01*
X162591494Y-92291821D01*
X162670922Y-92348151D01*
X162708616Y-92392981D01*
X162800052Y-92574528D01*
X162801106Y-92749052D01*
X164655546Y-92749052D01*
X164655649Y-92736795D01*
X164619872Y-92366455D01*
X164583890Y-92264880D01*
X162217543Y-92264880D01*
X162196253Y-92355209D01*
X162146468Y-92437423D01*
X162061710Y-92448498D01*
X162013334Y-92438257D01*
X161873297Y-92381788D01*
X161782635Y-92321137D01*
X161712960Y-92209136D01*
X161702450Y-92079350D01*
X161746097Y-91968217D01*
X161838838Y-91912181D01*
X161985440Y-91932019D01*
X162123629Y-92012340D01*
X162209849Y-92126396D01*
X162215239Y-92143322D01*
X162217543Y-92264880D01*
X164583890Y-92264880D01*
X164509779Y-92055672D01*
X164316804Y-91788787D01*
X164032385Y-91550142D01*
X163991700Y-91522656D01*
X163857773Y-91446847D01*
X163712076Y-91397713D01*
X163520872Y-91366161D01*
X163352903Y-91350518D01*
X163091407Y-91320431D01*
X162907221Y-91269869D01*
X162776380Y-91186501D01*
X162674922Y-91057996D01*
X162630800Y-90978942D01*
X162569409Y-90818695D01*
X162583936Y-90689930D01*
X162680624Y-90556319D01*
X162708293Y-90527892D01*
X162872925Y-90407863D01*
X163028362Y-90388683D01*
X163178217Y-90470410D01*
X163241799Y-90536546D01*
X163374028Y-90693692D01*
X163466594Y-90579378D01*
X163598256Y-90487760D01*
X163762144Y-90468530D01*
X163928934Y-90513238D01*
X164069307Y-90613436D01*
X164153941Y-90760672D01*
X164158453Y-90778754D01*
X164186461Y-90877535D01*
X164231494Y-90899489D01*
X164328615Y-90858957D01*
X164340303Y-90853137D01*
X164475593Y-90810090D01*
X164591420Y-90811079D01*
X164591436Y-90811084D01*
X164630500Y-90819410D01*
X164658054Y-90805896D01*
X164676104Y-90756119D01*
X164686656Y-90655654D01*
X164691717Y-90490077D01*
X164693292Y-90244964D01*
X164693400Y-90078023D01*
X164693400Y-89312600D01*
X160223000Y-89312600D01*
X160223000Y-90446744D01*
X160223000Y-90446744D01*
G37*
X160223000Y-90446744D02*
X160223284Y-90814260D01*
X160224993Y-91093821D01*
X160229416Y-91299075D01*
X160237844Y-91443667D01*
X160251564Y-91541242D01*
X160271867Y-91605448D01*
X160300041Y-91649930D01*
X160337375Y-91688334D01*
X160340575Y-91691344D01*
X160412211Y-91748241D01*
X160492638Y-91783460D01*
X160593981Y-91794700D01*
X160728366Y-91779655D01*
X160907918Y-91736021D01*
X161144763Y-91661495D01*
X161451025Y-91553773D01*
X161838831Y-91410549D01*
X161860031Y-91402620D01*
X162147723Y-91315044D01*
X162363100Y-91296182D01*
X162509587Y-91347030D01*
X162590609Y-91468584D01*
X162610600Y-91620660D01*
X162590212Y-91727931D01*
X162532913Y-91740955D01*
X162458200Y-91674800D01*
X162381866Y-91622134D01*
X162261424Y-91604369D01*
X162086517Y-91623153D01*
X161846782Y-91680133D01*
X161531858Y-91776956D01*
X161282960Y-91861678D01*
X160530098Y-92124756D01*
X161309379Y-92644904D01*
X161644676Y-92872892D01*
X161900718Y-93057642D01*
X162086152Y-93206862D01*
X162209625Y-93328259D01*
X162279787Y-93429541D01*
X162305286Y-93518415D01*
X162305800Y-93532970D01*
X162344511Y-93629778D01*
X162416315Y-93702246D01*
X162478666Y-93760157D01*
X162509781Y-93841294D01*
X162517413Y-93976023D01*
X162514320Y-94086161D01*
X162537648Y-94452316D01*
X162631759Y-94791139D01*
X162786909Y-95088639D01*
X162993354Y-95330825D01*
X163241351Y-95503709D01*
X163521157Y-95593298D01*
X163567890Y-95598937D01*
X163732540Y-95602607D01*
X163860612Y-95565642D01*
X164005943Y-95472399D01*
X164007600Y-95471177D01*
X164154494Y-95335952D01*
X164279207Y-95176568D01*
X164309548Y-95123658D01*
X164409939Y-94954316D01*
X164528489Y-94794687D01*
X164547020Y-94773600D01*
X164619596Y-94680315D01*
X164666769Y-94574752D01*
X164697554Y-94427387D01*
X164720967Y-94208695D01*
X164721532Y-94202100D01*
X164733853Y-94010596D01*
X164735543Y-93865034D01*
X164726627Y-93788899D01*
X164721070Y-93783000D01*
X164640991Y-93817374D01*
X164517116Y-93906152D01*
X164373164Y-94027820D01*
X164232857Y-94160860D01*
X164119916Y-94283758D01*
X164058062Y-94374996D01*
X164053748Y-94388287D01*
X163990462Y-94603214D01*
X163903717Y-94736386D01*
X163801718Y-94800019D01*
X163642149Y-94843699D01*
X163520075Y-94822057D01*
X163393348Y-94725484D01*
X163368693Y-94701307D01*
X163250275Y-94560182D01*
X163222793Y-94463046D01*
X163286577Y-94407923D01*
X163419977Y-94392600D01*
X163563854Y-94378558D01*
X163635642Y-94329102D01*
X163650022Y-94297232D01*
X163706454Y-94220421D01*
X163823148Y-94115700D01*
X163953810Y-94020259D01*
X164263462Y-93770463D01*
X164285382Y-93741980D01*
X163664932Y-93741980D01*
X163653665Y-93912970D01*
X163552710Y-94064709D01*
X163384906Y-94169239D01*
X163189515Y-94176586D01*
X163020634Y-94115078D01*
X162891712Y-94015165D01*
X162839409Y-93905019D01*
X162860697Y-93808035D01*
X162952548Y-93747605D01*
X163069089Y-93740663D01*
X163199624Y-93719628D01*
X163327964Y-93617156D01*
X163339999Y-93603885D01*
X163474511Y-93452800D01*
X163575956Y-93572727D01*
X163664932Y-93741980D01*
X164285382Y-93741980D01*
X164479538Y-93489699D01*
X164598415Y-93191198D01*
X163293782Y-93191198D01*
X163257085Y-93359417D01*
X163150371Y-93492157D01*
X163102285Y-93521834D01*
X162953677Y-93556589D01*
X162774813Y-93547319D01*
X162619153Y-93499067D01*
X162578216Y-93472403D01*
X162523685Y-93375363D01*
X162519249Y-93304845D01*
X162562088Y-93222902D01*
X162675398Y-93185595D01*
X162699500Y-93182881D01*
X162822806Y-93152030D01*
X162864310Y-93085087D01*
X162864600Y-93076454D01*
X162900167Y-92975365D01*
X162965248Y-92894862D01*
X163050509Y-92835363D01*
X163119228Y-92850161D01*
X163148340Y-92872201D01*
X163258265Y-93018469D01*
X163293782Y-93191198D01*
X164598415Y-93191198D01*
X164608097Y-93166887D01*
X164655196Y-92790948D01*
X164655546Y-92749052D01*
X162801106Y-92749052D01*
X162722019Y-92895477D01*
X162573033Y-92992727D01*
X162403449Y-93021000D01*
X162234354Y-92993591D01*
X162099757Y-92927312D01*
X162018416Y-92820491D01*
X162032821Y-92722991D01*
X162137336Y-92650804D01*
X162203660Y-92632488D01*
X162336718Y-92572293D01*
X162388503Y-92479778D01*
X162448347Y-92364515D01*
X162511260Y-92308590D01*
X162591494Y-92291821D01*
X162670922Y-92348151D01*
X162708616Y-92392981D01*
X162800052Y-92574528D01*
X162801106Y-92749052D01*
X164655546Y-92749052D01*
X164655649Y-92736795D01*
X164619872Y-92366455D01*
X164583890Y-92264880D01*
X162217543Y-92264880D01*
X162196253Y-92355209D01*
X162146468Y-92437423D01*
X162061710Y-92448498D01*
X162013334Y-92438257D01*
X161873297Y-92381788D01*
X161782635Y-92321137D01*
X161712960Y-92209136D01*
X161702450Y-92079350D01*
X161746097Y-91968217D01*
X161838838Y-91912181D01*
X161985440Y-91932019D01*
X162123629Y-92012340D01*
X162209849Y-92126396D01*
X162215239Y-92143322D01*
X162217543Y-92264880D01*
X164583890Y-92264880D01*
X164509779Y-92055672D01*
X164316804Y-91788787D01*
X164032385Y-91550142D01*
X163991700Y-91522656D01*
X163857773Y-91446847D01*
X163712076Y-91397713D01*
X163520872Y-91366161D01*
X163352903Y-91350518D01*
X163091407Y-91320431D01*
X162907221Y-91269869D01*
X162776380Y-91186501D01*
X162674922Y-91057996D01*
X162630800Y-90978942D01*
X162569409Y-90818695D01*
X162583936Y-90689930D01*
X162680624Y-90556319D01*
X162708293Y-90527892D01*
X162872925Y-90407863D01*
X163028362Y-90388683D01*
X163178217Y-90470410D01*
X163241799Y-90536546D01*
X163374028Y-90693692D01*
X163466594Y-90579378D01*
X163598256Y-90487760D01*
X163762144Y-90468530D01*
X163928934Y-90513238D01*
X164069307Y-90613436D01*
X164153941Y-90760672D01*
X164158453Y-90778754D01*
X164186461Y-90877535D01*
X164231494Y-90899489D01*
X164328615Y-90858957D01*
X164340303Y-90853137D01*
X164475593Y-90810090D01*
X164591420Y-90811079D01*
X164591436Y-90811084D01*
X164630500Y-90819410D01*
X164658054Y-90805896D01*
X164676104Y-90756119D01*
X164686656Y-90655654D01*
X164691717Y-90490077D01*
X164693292Y-90244964D01*
X164693400Y-90078023D01*
X164693400Y-89312600D01*
X160223000Y-89312600D01*
X160223000Y-90446744D01*
G36*
X146457333Y-95865855D02*
G01*
X145286237Y-95866038D01*
X144209087Y-95866375D01*
X143222055Y-95866892D01*
X142321313Y-95867615D01*
X141503034Y-95868570D01*
X140763392Y-95869783D01*
X140098557Y-95871280D01*
X139504704Y-95873086D01*
X138978004Y-95875228D01*
X138514631Y-95877732D01*
X138110757Y-95880624D01*
X137762554Y-95883929D01*
X137466196Y-95887674D01*
X137217855Y-95891884D01*
X137013703Y-95896587D01*
X136849913Y-95901807D01*
X136722659Y-95907570D01*
X136628111Y-95913903D01*
X136562444Y-95920832D01*
X136521830Y-95928382D01*
X136502441Y-95936580D01*
X136499400Y-95942000D01*
X136507551Y-95950612D01*
X136534553Y-95958560D01*
X136584236Y-95965871D01*
X136660425Y-95972571D01*
X136766948Y-95978684D01*
X136907633Y-95984238D01*
X137086307Y-95989258D01*
X137306798Y-95993771D01*
X137572932Y-95997802D01*
X137888538Y-96001376D01*
X138257441Y-96004521D01*
X138683471Y-96007263D01*
X139170454Y-96009626D01*
X139722217Y-96011638D01*
X140342589Y-96013323D01*
X141035395Y-96014709D01*
X141804464Y-96015820D01*
X142653624Y-96016684D01*
X143586700Y-96017326D01*
X144607521Y-96017772D01*
X145719915Y-96018047D01*
X146927707Y-96018179D01*
X147726200Y-96018200D01*
X148995068Y-96018144D01*
X150166164Y-96017961D01*
X151243314Y-96017624D01*
X152230346Y-96017107D01*
X153131088Y-96016384D01*
X153949367Y-96015429D01*
X154689009Y-96014216D01*
X155353844Y-96012719D01*
X155947697Y-96010913D01*
X156474397Y-96008771D01*
X156937770Y-96006267D01*
X157341644Y-96003375D01*
X157689847Y-96000070D01*
X157986205Y-95996325D01*
X158234546Y-95992115D01*
X158438698Y-95987412D01*
X158602488Y-95982192D01*
X158729742Y-95976429D01*
X158824290Y-95970096D01*
X158889957Y-95963167D01*
X158930571Y-95955617D01*
X158949960Y-95947419D01*
X158953000Y-95942000D01*
X158944850Y-95933387D01*
X158917848Y-95925439D01*
X158868165Y-95918128D01*
X158791976Y-95911428D01*
X158685453Y-95905315D01*
X158544768Y-95899761D01*
X158366094Y-95894741D01*
X158145603Y-95890228D01*
X157879469Y-95886197D01*
X157563863Y-95882623D01*
X157194960Y-95879478D01*
X156768930Y-95876736D01*
X156281947Y-95874373D01*
X155730184Y-95872361D01*
X155109812Y-95870676D01*
X154417006Y-95869290D01*
X153647937Y-95868179D01*
X152798777Y-95867315D01*
X151865701Y-95866673D01*
X150844880Y-95866227D01*
X149732486Y-95865952D01*
X148524694Y-95865820D01*
X147726200Y-95865800D01*
X146457333Y-95865855D01*
X146457333Y-95865855D01*
G37*
X146457333Y-95865855D02*
X145286237Y-95866038D01*
X144209087Y-95866375D01*
X143222055Y-95866892D01*
X142321313Y-95867615D01*
X141503034Y-95868570D01*
X140763392Y-95869783D01*
X140098557Y-95871280D01*
X139504704Y-95873086D01*
X138978004Y-95875228D01*
X138514631Y-95877732D01*
X138110757Y-95880624D01*
X137762554Y-95883929D01*
X137466196Y-95887674D01*
X137217855Y-95891884D01*
X137013703Y-95896587D01*
X136849913Y-95901807D01*
X136722659Y-95907570D01*
X136628111Y-95913903D01*
X136562444Y-95920832D01*
X136521830Y-95928382D01*
X136502441Y-95936580D01*
X136499400Y-95942000D01*
X136507551Y-95950612D01*
X136534553Y-95958560D01*
X136584236Y-95965871D01*
X136660425Y-95972571D01*
X136766948Y-95978684D01*
X136907633Y-95984238D01*
X137086307Y-95989258D01*
X137306798Y-95993771D01*
X137572932Y-95997802D01*
X137888538Y-96001376D01*
X138257441Y-96004521D01*
X138683471Y-96007263D01*
X139170454Y-96009626D01*
X139722217Y-96011638D01*
X140342589Y-96013323D01*
X141035395Y-96014709D01*
X141804464Y-96015820D01*
X142653624Y-96016684D01*
X143586700Y-96017326D01*
X144607521Y-96017772D01*
X145719915Y-96018047D01*
X146927707Y-96018179D01*
X147726200Y-96018200D01*
X148995068Y-96018144D01*
X150166164Y-96017961D01*
X151243314Y-96017624D01*
X152230346Y-96017107D01*
X153131088Y-96016384D01*
X153949367Y-96015429D01*
X154689009Y-96014216D01*
X155353844Y-96012719D01*
X155947697Y-96010913D01*
X156474397Y-96008771D01*
X156937770Y-96006267D01*
X157341644Y-96003375D01*
X157689847Y-96000070D01*
X157986205Y-95996325D01*
X158234546Y-95992115D01*
X158438698Y-95987412D01*
X158602488Y-95982192D01*
X158729742Y-95976429D01*
X158824290Y-95970096D01*
X158889957Y-95963167D01*
X158930571Y-95955617D01*
X158949960Y-95947419D01*
X158953000Y-95942000D01*
X158944850Y-95933387D01*
X158917848Y-95925439D01*
X158868165Y-95918128D01*
X158791976Y-95911428D01*
X158685453Y-95905315D01*
X158544768Y-95899761D01*
X158366094Y-95894741D01*
X158145603Y-95890228D01*
X157879469Y-95886197D01*
X157563863Y-95882623D01*
X157194960Y-95879478D01*
X156768930Y-95876736D01*
X156281947Y-95874373D01*
X155730184Y-95872361D01*
X155109812Y-95870676D01*
X154417006Y-95869290D01*
X153647937Y-95868179D01*
X152798777Y-95867315D01*
X151865701Y-95866673D01*
X150844880Y-95866227D01*
X149732486Y-95865952D01*
X148524694Y-95865820D01*
X147726200Y-95865800D01*
X146457333Y-95865855D01*
G36*
X138997451Y-96871663D02*
G01*
X138988600Y-96907200D01*
X139029264Y-96974549D01*
X139064800Y-96983400D01*
X139132150Y-96942736D01*
X139141000Y-96907200D01*
X139100337Y-96839850D01*
X139064800Y-96831000D01*
X138997451Y-96871663D01*
X138997451Y-96871663D01*
G37*
X138997451Y-96871663D02*
X138988600Y-96907200D01*
X139029264Y-96974549D01*
X139064800Y-96983400D01*
X139132150Y-96942736D01*
X139141000Y-96907200D01*
X139100337Y-96839850D01*
X139064800Y-96831000D01*
X138997451Y-96871663D01*
G36*
X152967451Y-96871663D02*
G01*
X152958600Y-96907200D01*
X152999264Y-96974549D01*
X153034800Y-96983400D01*
X153102150Y-96942736D01*
X153111000Y-96907200D01*
X153070337Y-96839850D01*
X153034800Y-96831000D01*
X152967451Y-96871663D01*
X152967451Y-96871663D01*
G37*
X152967451Y-96871663D02*
X152958600Y-96907200D01*
X152999264Y-96974549D01*
X153034800Y-96983400D01*
X153102150Y-96942736D01*
X153111000Y-96907200D01*
X153070337Y-96839850D01*
X153034800Y-96831000D01*
X152967451Y-96871663D01*
G36*
X156574251Y-96871663D02*
G01*
X156565400Y-96907200D01*
X156606064Y-96974549D01*
X156641600Y-96983400D01*
X156708950Y-96942736D01*
X156717800Y-96907200D01*
X156677137Y-96839850D01*
X156641600Y-96831000D01*
X156574251Y-96871663D01*
X156574251Y-96871663D01*
G37*
X156574251Y-96871663D02*
X156565400Y-96907200D01*
X156606064Y-96974549D01*
X156641600Y-96983400D01*
X156708950Y-96942736D01*
X156717800Y-96907200D01*
X156677137Y-96839850D01*
X156641600Y-96831000D01*
X156574251Y-96871663D01*
G36*
X136821871Y-97163726D02*
G01*
X136681062Y-97216072D01*
X136617975Y-97292601D01*
X136610167Y-97326300D01*
X136628834Y-97416679D01*
X136691806Y-97441704D01*
X136758471Y-97391798D01*
X136771771Y-97364400D01*
X136841262Y-97304334D01*
X136954949Y-97291839D01*
X137066996Y-97327399D01*
X137106060Y-97360857D01*
X137127039Y-97428937D01*
X137062634Y-97488674D01*
X136905950Y-97545158D01*
X136829885Y-97564656D01*
X136699473Y-97607765D01*
X136613985Y-97654104D01*
X136557535Y-97756982D01*
X136555603Y-97891745D01*
X136603916Y-98009545D01*
X136648461Y-98048412D01*
X136788600Y-98087888D01*
X136970132Y-98097158D01*
X137141063Y-98076427D01*
X137223300Y-98046130D01*
X137290563Y-97971433D01*
X137309840Y-97879487D01*
X137279102Y-97810238D01*
X137236000Y-97796200D01*
X137168406Y-97824207D01*
X137159800Y-97848089D01*
X137116145Y-97918809D01*
X137012210Y-97964933D01*
X136888538Y-97974391D01*
X136810626Y-97952039D01*
X136717356Y-97877865D01*
X136725252Y-97808331D01*
X136834516Y-97742063D01*
X136842300Y-97738946D01*
X137058382Y-97652250D01*
X137196133Y-97589719D01*
X137272135Y-97539271D01*
X137302971Y-97488819D01*
X137305222Y-97426280D01*
X137302802Y-97403349D01*
X137241168Y-97257707D01*
X137108970Y-97169068D01*
X136925519Y-97147054D01*
X136821871Y-97163726D01*
X136821871Y-97163726D01*
G37*
X136821871Y-97163726D02*
X136681062Y-97216072D01*
X136617975Y-97292601D01*
X136610167Y-97326300D01*
X136628834Y-97416679D01*
X136691806Y-97441704D01*
X136758471Y-97391798D01*
X136771771Y-97364400D01*
X136841262Y-97304334D01*
X136954949Y-97291839D01*
X137066996Y-97327399D01*
X137106060Y-97360857D01*
X137127039Y-97428937D01*
X137062634Y-97488674D01*
X136905950Y-97545158D01*
X136829885Y-97564656D01*
X136699473Y-97607765D01*
X136613985Y-97654104D01*
X136557535Y-97756982D01*
X136555603Y-97891745D01*
X136603916Y-98009545D01*
X136648461Y-98048412D01*
X136788600Y-98087888D01*
X136970132Y-98097158D01*
X137141063Y-98076427D01*
X137223300Y-98046130D01*
X137290563Y-97971433D01*
X137309840Y-97879487D01*
X137279102Y-97810238D01*
X137236000Y-97796200D01*
X137168406Y-97824207D01*
X137159800Y-97848089D01*
X137116145Y-97918809D01*
X137012210Y-97964933D01*
X136888538Y-97974391D01*
X136810626Y-97952039D01*
X136717356Y-97877865D01*
X136725252Y-97808331D01*
X136834516Y-97742063D01*
X136842300Y-97738946D01*
X137058382Y-97652250D01*
X137196133Y-97589719D01*
X137272135Y-97539271D01*
X137302971Y-97488819D01*
X137305222Y-97426280D01*
X137302802Y-97403349D01*
X137241168Y-97257707D01*
X137108970Y-97169068D01*
X136925519Y-97147054D01*
X136821871Y-97163726D01*
G36*
X137605126Y-97213351D02*
G01*
X137478612Y-97348349D01*
X137416698Y-97536177D01*
X137413800Y-97590477D01*
X137423473Y-97646756D01*
X137467523Y-97678128D01*
X137568500Y-97691706D01*
X137744000Y-97694600D01*
X137952685Y-97707372D01*
X138063115Y-97745751D01*
X138075378Y-97809830D01*
X137989566Y-97899700D01*
X137961297Y-97920319D01*
X137824157Y-97990312D01*
X137715468Y-97973915D01*
X137630613Y-97897800D01*
X137538694Y-97820698D01*
X137456807Y-97797227D01*
X137414821Y-97834383D01*
X137413800Y-97847000D01*
X137446590Y-97917081D01*
X137515400Y-97999400D01*
X137656422Y-98078487D01*
X137836826Y-98102325D01*
X138012378Y-98070535D01*
X138119828Y-98004572D01*
X138218392Y-97844577D01*
X138249771Y-97652272D01*
X138219374Y-97457301D01*
X138217850Y-97454349D01*
X138064732Y-97454349D01*
X138059362Y-97506844D01*
X138002325Y-97533358D01*
X137871609Y-97541922D01*
X137823925Y-97542200D01*
X137677799Y-97534581D01*
X137584400Y-97515077D01*
X137566200Y-97499273D01*
X137600188Y-97436735D01*
X137669339Y-97363007D01*
X137773739Y-97299695D01*
X137893306Y-97312397D01*
X137910145Y-97318084D01*
X138016337Y-97381674D01*
X138064732Y-97454349D01*
X138217850Y-97454349D01*
X138132606Y-97289311D01*
X137994876Y-97177946D01*
X137967034Y-97166865D01*
X137775010Y-97147438D01*
X137605126Y-97213351D01*
X137605126Y-97213351D01*
G37*
X137605126Y-97213351D02*
X137478612Y-97348349D01*
X137416698Y-97536177D01*
X137413800Y-97590477D01*
X137423473Y-97646756D01*
X137467523Y-97678128D01*
X137568500Y-97691706D01*
X137744000Y-97694600D01*
X137952685Y-97707372D01*
X138063115Y-97745751D01*
X138075378Y-97809830D01*
X137989566Y-97899700D01*
X137961297Y-97920319D01*
X137824157Y-97990312D01*
X137715468Y-97973915D01*
X137630613Y-97897800D01*
X137538694Y-97820698D01*
X137456807Y-97797227D01*
X137414821Y-97834383D01*
X137413800Y-97847000D01*
X137446590Y-97917081D01*
X137515400Y-97999400D01*
X137656422Y-98078487D01*
X137836826Y-98102325D01*
X138012378Y-98070535D01*
X138119828Y-98004572D01*
X138218392Y-97844577D01*
X138249771Y-97652272D01*
X138219374Y-97457301D01*
X138217850Y-97454349D01*
X138064732Y-97454349D01*
X138059362Y-97506844D01*
X138002325Y-97533358D01*
X137871609Y-97541922D01*
X137823925Y-97542200D01*
X137677799Y-97534581D01*
X137584400Y-97515077D01*
X137566200Y-97499273D01*
X137600188Y-97436735D01*
X137669339Y-97363007D01*
X137773739Y-97299695D01*
X137893306Y-97312397D01*
X137910145Y-97318084D01*
X138016337Y-97381674D01*
X138064732Y-97454349D01*
X138217850Y-97454349D01*
X138132606Y-97289311D01*
X137994876Y-97177946D01*
X137967034Y-97166865D01*
X137775010Y-97147438D01*
X137605126Y-97213351D01*
G36*
X138282404Y-97165583D02*
G01*
X138286069Y-97233043D01*
X138343700Y-97305348D01*
X138401312Y-97337825D01*
X138528339Y-97420535D01*
X138602663Y-97561144D01*
X138631863Y-97776203D01*
X138633000Y-97843660D01*
X138640961Y-98004560D01*
X138668578Y-98083755D01*
X138709200Y-98101000D01*
X138746375Y-98083182D01*
X138769531Y-98018156D01*
X138781562Y-97888558D01*
X138785360Y-97677024D01*
X138785400Y-97643800D01*
X138782431Y-97420750D01*
X138771593Y-97281815D01*
X138749994Y-97209633D01*
X138714738Y-97186841D01*
X138709200Y-97186600D01*
X138641621Y-97215553D01*
X138633000Y-97240280D01*
X138598770Y-97255132D01*
X138520097Y-97214880D01*
X138412523Y-97155228D01*
X138342297Y-97135800D01*
X138282404Y-97165583D01*
X138282404Y-97165583D01*
G37*
X138282404Y-97165583D02*
X138286069Y-97233043D01*
X138343700Y-97305348D01*
X138401312Y-97337825D01*
X138528339Y-97420535D01*
X138602663Y-97561144D01*
X138631863Y-97776203D01*
X138633000Y-97843660D01*
X138640961Y-98004560D01*
X138668578Y-98083755D01*
X138709200Y-98101000D01*
X138746375Y-98083182D01*
X138769531Y-98018156D01*
X138781562Y-97888558D01*
X138785360Y-97677024D01*
X138785400Y-97643800D01*
X138782431Y-97420750D01*
X138771593Y-97281815D01*
X138749994Y-97209633D01*
X138714738Y-97186841D01*
X138709200Y-97186600D01*
X138641621Y-97215553D01*
X138633000Y-97240280D01*
X138598770Y-97255132D01*
X138520097Y-97214880D01*
X138412523Y-97155228D01*
X138342297Y-97135800D01*
X138282404Y-97165583D01*
G36*
X139027626Y-97204417D02*
G01*
X139004470Y-97269443D01*
X138992439Y-97399041D01*
X138988641Y-97610575D01*
X138988600Y-97643800D01*
X138991570Y-97866849D01*
X139002408Y-98005784D01*
X139024007Y-98077966D01*
X139059263Y-98100758D01*
X139064800Y-98101000D01*
X139101975Y-98083182D01*
X139125131Y-98018156D01*
X139137162Y-97888558D01*
X139140960Y-97677024D01*
X139141000Y-97643800D01*
X139138031Y-97420750D01*
X139127193Y-97281815D01*
X139105594Y-97209633D01*
X139070338Y-97186841D01*
X139064800Y-97186600D01*
X139027626Y-97204417D01*
X139027626Y-97204417D01*
G37*
X139027626Y-97204417D02*
X139004470Y-97269443D01*
X138992439Y-97399041D01*
X138988641Y-97610575D01*
X138988600Y-97643800D01*
X138991570Y-97866849D01*
X139002408Y-98005784D01*
X139024007Y-98077966D01*
X139059263Y-98100758D01*
X139064800Y-98101000D01*
X139101975Y-98083182D01*
X139125131Y-98018156D01*
X139137162Y-97888558D01*
X139140960Y-97677024D01*
X139141000Y-97643800D01*
X139138031Y-97420750D01*
X139127193Y-97281815D01*
X139105594Y-97209633D01*
X139070338Y-97186841D01*
X139064800Y-97186600D01*
X139027626Y-97204417D01*
G36*
X139778405Y-96845042D02*
G01*
X139727736Y-96896914D01*
X139669015Y-97001231D01*
X139594006Y-97172608D01*
X139495260Y-97423600D01*
X139407211Y-97653062D01*
X139332208Y-97848276D01*
X139277834Y-97989520D01*
X139251673Y-98057073D01*
X139251067Y-98058600D01*
X139278371Y-98093038D01*
X139332261Y-98101000D01*
X139421251Y-98056865D01*
X139501431Y-97919471D01*
X139510208Y-97897800D01*
X139563435Y-97776577D01*
X139621557Y-97716740D01*
X139719765Y-97696634D01*
X139840408Y-97694600D01*
X139991565Y-97699152D01*
X140076331Y-97727246D01*
X140129896Y-97800539D01*
X140170608Y-97897800D01*
X140240093Y-98029579D01*
X140312713Y-98097228D01*
X140330714Y-98101000D01*
X140400992Y-98081686D01*
X140411000Y-98063713D01*
X140393213Y-98004825D01*
X140344640Y-97870915D01*
X140272469Y-97681197D01*
X140194474Y-97481933D01*
X139995149Y-97481933D01*
X139951322Y-97529172D01*
X139844001Y-97542095D01*
X139826800Y-97542200D01*
X139709195Y-97538086D01*
X139650505Y-97527973D01*
X139649000Y-97525849D01*
X139663966Y-97472703D01*
X139702326Y-97354193D01*
X139734269Y-97259249D01*
X139819538Y-97008999D01*
X139910737Y-97212099D01*
X139980086Y-97382276D01*
X139995149Y-97481933D01*
X140194474Y-97481933D01*
X140183887Y-97454886D01*
X140173502Y-97428713D01*
X140070156Y-97175083D01*
X139992318Y-97002882D01*
X139931705Y-96897726D01*
X139880029Y-96845227D01*
X139829261Y-96831000D01*
X139778405Y-96845042D01*
X139778405Y-96845042D01*
G37*
X139778405Y-96845042D02*
X139727736Y-96896914D01*
X139669015Y-97001231D01*
X139594006Y-97172608D01*
X139495260Y-97423600D01*
X139407211Y-97653062D01*
X139332208Y-97848276D01*
X139277834Y-97989520D01*
X139251673Y-98057073D01*
X139251067Y-98058600D01*
X139278371Y-98093038D01*
X139332261Y-98101000D01*
X139421251Y-98056865D01*
X139501431Y-97919471D01*
X139510208Y-97897800D01*
X139563435Y-97776577D01*
X139621557Y-97716740D01*
X139719765Y-97696634D01*
X139840408Y-97694600D01*
X139991565Y-97699152D01*
X140076331Y-97727246D01*
X140129896Y-97800539D01*
X140170608Y-97897800D01*
X140240093Y-98029579D01*
X140312713Y-98097228D01*
X140330714Y-98101000D01*
X140400992Y-98081686D01*
X140411000Y-98063713D01*
X140393213Y-98004825D01*
X140344640Y-97870915D01*
X140272469Y-97681197D01*
X140194474Y-97481933D01*
X139995149Y-97481933D01*
X139951322Y-97529172D01*
X139844001Y-97542095D01*
X139826800Y-97542200D01*
X139709195Y-97538086D01*
X139650505Y-97527973D01*
X139649000Y-97525849D01*
X139663966Y-97472703D01*
X139702326Y-97354193D01*
X139734269Y-97259249D01*
X139819538Y-97008999D01*
X139910737Y-97212099D01*
X139980086Y-97382276D01*
X139995149Y-97481933D01*
X140194474Y-97481933D01*
X140183887Y-97454886D01*
X140173502Y-97428713D01*
X140070156Y-97175083D01*
X139992318Y-97002882D01*
X139931705Y-96897726D01*
X139880029Y-96845227D01*
X139829261Y-96831000D01*
X139778405Y-96845042D01*
G36*
X141184573Y-97164691D02*
G01*
X141057408Y-97235961D01*
X140979405Y-97326499D01*
X140969800Y-97367280D01*
X141003481Y-97430356D01*
X141081680Y-97430187D01*
X141170134Y-97367680D01*
X141175132Y-97361831D01*
X141266247Y-97309854D01*
X141384800Y-97301807D01*
X141484348Y-97335707D01*
X141515973Y-97376370D01*
X141517368Y-97412964D01*
X141483342Y-97448329D01*
X141396497Y-97492423D01*
X141239434Y-97555202D01*
X141134254Y-97594798D01*
X140991890Y-97686325D01*
X140930522Y-97811260D01*
X140957762Y-97947048D01*
X140997053Y-98001446D01*
X141122541Y-98077669D01*
X141292527Y-98107625D01*
X141467763Y-98092112D01*
X141609002Y-98031930D01*
X141652720Y-97988096D01*
X141721693Y-97863121D01*
X141715847Y-97801487D01*
X141642605Y-97806883D01*
X141509393Y-97882995D01*
X141481545Y-97903064D01*
X141342927Y-97970809D01*
X141220053Y-97973321D01*
X141139417Y-97914842D01*
X141122200Y-97845534D01*
X141154823Y-97771178D01*
X141264283Y-97713805D01*
X141338100Y-97691591D01*
X141527344Y-97629258D01*
X141634113Y-97558604D01*
X141677286Y-97464229D01*
X141681000Y-97411860D01*
X141635303Y-97286082D01*
X141518543Y-97186751D01*
X141361222Y-97137548D01*
X141325400Y-97135800D01*
X141184573Y-97164691D01*
X141184573Y-97164691D01*
G37*
X141184573Y-97164691D02*
X141057408Y-97235961D01*
X140979405Y-97326499D01*
X140969800Y-97367280D01*
X141003481Y-97430356D01*
X141081680Y-97430187D01*
X141170134Y-97367680D01*
X141175132Y-97361831D01*
X141266247Y-97309854D01*
X141384800Y-97301807D01*
X141484348Y-97335707D01*
X141515973Y-97376370D01*
X141517368Y-97412964D01*
X141483342Y-97448329D01*
X141396497Y-97492423D01*
X141239434Y-97555202D01*
X141134254Y-97594798D01*
X140991890Y-97686325D01*
X140930522Y-97811260D01*
X140957762Y-97947048D01*
X140997053Y-98001446D01*
X141122541Y-98077669D01*
X141292527Y-98107625D01*
X141467763Y-98092112D01*
X141609002Y-98031930D01*
X141652720Y-97988096D01*
X141721693Y-97863121D01*
X141715847Y-97801487D01*
X141642605Y-97806883D01*
X141509393Y-97882995D01*
X141481545Y-97903064D01*
X141342927Y-97970809D01*
X141220053Y-97973321D01*
X141139417Y-97914842D01*
X141122200Y-97845534D01*
X141154823Y-97771178D01*
X141264283Y-97713805D01*
X141338100Y-97691591D01*
X141527344Y-97629258D01*
X141634113Y-97558604D01*
X141677286Y-97464229D01*
X141681000Y-97411860D01*
X141635303Y-97286082D01*
X141518543Y-97186751D01*
X141361222Y-97137548D01*
X141325400Y-97135800D01*
X141184573Y-97164691D01*
G36*
X142065926Y-97190011D02*
G01*
X141931264Y-97276314D01*
X141911061Y-97301531D01*
X141845722Y-97463433D01*
X141831686Y-97659394D01*
X141866550Y-97847943D01*
X141947913Y-97987611D01*
X141950975Y-97990544D01*
X142112858Y-98083614D01*
X142300288Y-98106030D01*
X142477347Y-98059105D01*
X142591713Y-97967149D01*
X142667870Y-97805732D01*
X142690578Y-97655103D01*
X142544600Y-97655103D01*
X142508772Y-97794202D01*
X142420586Y-97918416D01*
X142308987Y-97992077D01*
X142265200Y-97999400D01*
X142175058Y-97965771D01*
X142087400Y-97897800D01*
X142002735Y-97747396D01*
X141996093Y-97567354D01*
X142064881Y-97401103D01*
X142176982Y-97307015D01*
X142302968Y-97296360D01*
X142420871Y-97357507D01*
X142508724Y-97478823D01*
X142544558Y-97648679D01*
X142544600Y-97655103D01*
X142690578Y-97655103D01*
X142698684Y-97601340D01*
X142677916Y-97404770D01*
X142665444Y-97366675D01*
X142571626Y-97249858D01*
X142418703Y-97179598D01*
X142239271Y-97158711D01*
X142065926Y-97190011D01*
X142065926Y-97190011D01*
G37*
X142065926Y-97190011D02*
X141931264Y-97276314D01*
X141911061Y-97301531D01*
X141845722Y-97463433D01*
X141831686Y-97659394D01*
X141866550Y-97847943D01*
X141947913Y-97987611D01*
X141950975Y-97990544D01*
X142112858Y-98083614D01*
X142300288Y-98106030D01*
X142477347Y-98059105D01*
X142591713Y-97967149D01*
X142667870Y-97805732D01*
X142690578Y-97655103D01*
X142544600Y-97655103D01*
X142508772Y-97794202D01*
X142420586Y-97918416D01*
X142308987Y-97992077D01*
X142265200Y-97999400D01*
X142175058Y-97965771D01*
X142087400Y-97897800D01*
X142002735Y-97747396D01*
X141996093Y-97567354D01*
X142064881Y-97401103D01*
X142176982Y-97307015D01*
X142302968Y-97296360D01*
X142420871Y-97357507D01*
X142508724Y-97478823D01*
X142544558Y-97648679D01*
X142544600Y-97655103D01*
X142690578Y-97655103D01*
X142698684Y-97601340D01*
X142677916Y-97404770D01*
X142665444Y-97366675D01*
X142571626Y-97249858D01*
X142418703Y-97179598D01*
X142239271Y-97158711D01*
X142065926Y-97190011D01*
G36*
X142975000Y-97198159D02*
G01*
X142907592Y-97316493D01*
X142869678Y-97516531D01*
X142857303Y-97690079D01*
X142850644Y-97896174D01*
X142855666Y-98020406D01*
X142875332Y-98082139D01*
X142912609Y-98100734D01*
X142920222Y-98101000D01*
X142965933Y-98082375D01*
X142991099Y-98012776D01*
X143000960Y-97871612D01*
X143001800Y-97780509D01*
X143018194Y-97533386D01*
X143069783Y-97375983D01*
X143160178Y-97301456D01*
X143257375Y-97296075D01*
X143385510Y-97362896D01*
X143469415Y-97517821D01*
X143507075Y-97756540D01*
X143509052Y-97834300D01*
X143517025Y-97998599D01*
X143543400Y-98081070D01*
X143586000Y-98101000D01*
X143623247Y-98083136D01*
X143646416Y-98017951D01*
X143658419Y-97888055D01*
X143662167Y-97676058D01*
X143662200Y-97645845D01*
X143662200Y-97190690D01*
X143522500Y-97191756D01*
X143363941Y-97181542D01*
X143230400Y-97161095D01*
X143079928Y-97150152D01*
X142975000Y-97198159D01*
X142975000Y-97198159D01*
G37*
X142975000Y-97198159D02*
X142907592Y-97316493D01*
X142869678Y-97516531D01*
X142857303Y-97690079D01*
X142850644Y-97896174D01*
X142855666Y-98020406D01*
X142875332Y-98082139D01*
X142912609Y-98100734D01*
X142920222Y-98101000D01*
X142965933Y-98082375D01*
X142991099Y-98012776D01*
X143000960Y-97871612D01*
X143001800Y-97780509D01*
X143018194Y-97533386D01*
X143069783Y-97375983D01*
X143160178Y-97301456D01*
X143257375Y-97296075D01*
X143385510Y-97362896D01*
X143469415Y-97517821D01*
X143507075Y-97756540D01*
X143509052Y-97834300D01*
X143517025Y-97998599D01*
X143543400Y-98081070D01*
X143586000Y-98101000D01*
X143623247Y-98083136D01*
X143646416Y-98017951D01*
X143658419Y-97888055D01*
X143662167Y-97676058D01*
X143662200Y-97645845D01*
X143662200Y-97190690D01*
X143522500Y-97191756D01*
X143363941Y-97181542D01*
X143230400Y-97161095D01*
X143079928Y-97150152D01*
X142975000Y-97198159D01*
G36*
X144045184Y-97181190D02*
G01*
X143902030Y-97298372D01*
X143803231Y-97458863D01*
X143782796Y-97529500D01*
X143751100Y-97694600D01*
X144108295Y-97694600D01*
X144293999Y-97696632D01*
X144398253Y-97707043D01*
X144441191Y-97732304D01*
X144442944Y-97778885D01*
X144437795Y-97800501D01*
X144361149Y-97918518D01*
X144231891Y-97976854D01*
X144089342Y-97959083D01*
X144075026Y-97952039D01*
X143991458Y-97889272D01*
X143967000Y-97845212D01*
X143925827Y-97801720D01*
X143890800Y-97796200D01*
X143823362Y-97832812D01*
X143814600Y-97864526D01*
X143860885Y-97973496D01*
X143982780Y-98056634D01*
X144154847Y-98098673D01*
X144208613Y-98101000D01*
X144368094Y-98083722D01*
X144476545Y-98018610D01*
X144522113Y-97967149D01*
X144616993Y-97771301D01*
X144622887Y-97559200D01*
X144596653Y-97494908D01*
X144451475Y-97494908D01*
X144442580Y-97528729D01*
X144366852Y-97540710D01*
X144227197Y-97542200D01*
X144060244Y-97532960D01*
X143979645Y-97502772D01*
X143967000Y-97472220D01*
X144006479Y-97364251D01*
X144104308Y-97307889D01*
X144229573Y-97306213D01*
X144351364Y-97362303D01*
X144411875Y-97427900D01*
X144451475Y-97494908D01*
X144596653Y-97494908D01*
X144541645Y-97360101D01*
X144478908Y-97284292D01*
X144344832Y-97182679D01*
X144215680Y-97136433D01*
X144202341Y-97135800D01*
X144045184Y-97181190D01*
X144045184Y-97181190D01*
G37*
X144045184Y-97181190D02*
X143902030Y-97298372D01*
X143803231Y-97458863D01*
X143782796Y-97529500D01*
X143751100Y-97694600D01*
X144108295Y-97694600D01*
X144293999Y-97696632D01*
X144398253Y-97707043D01*
X144441191Y-97732304D01*
X144442944Y-97778885D01*
X144437795Y-97800501D01*
X144361149Y-97918518D01*
X144231891Y-97976854D01*
X144089342Y-97959083D01*
X144075026Y-97952039D01*
X143991458Y-97889272D01*
X143967000Y-97845212D01*
X143925827Y-97801720D01*
X143890800Y-97796200D01*
X143823362Y-97832812D01*
X143814600Y-97864526D01*
X143860885Y-97973496D01*
X143982780Y-98056634D01*
X144154847Y-98098673D01*
X144208613Y-98101000D01*
X144368094Y-98083722D01*
X144476545Y-98018610D01*
X144522113Y-97967149D01*
X144616993Y-97771301D01*
X144622887Y-97559200D01*
X144596653Y-97494908D01*
X144451475Y-97494908D01*
X144442580Y-97528729D01*
X144366852Y-97540710D01*
X144227197Y-97542200D01*
X144060244Y-97532960D01*
X143979645Y-97502772D01*
X143967000Y-97472220D01*
X144006479Y-97364251D01*
X144104308Y-97307889D01*
X144229573Y-97306213D01*
X144351364Y-97362303D01*
X144411875Y-97427900D01*
X144451475Y-97494908D01*
X144596653Y-97494908D01*
X144541645Y-97360101D01*
X144478908Y-97284292D01*
X144344832Y-97182679D01*
X144215680Y-97136433D01*
X144202341Y-97135800D01*
X144045184Y-97181190D01*
G36*
X144818826Y-97204417D02*
G01*
X144795670Y-97269443D01*
X144783639Y-97399041D01*
X144779841Y-97610575D01*
X144779800Y-97643800D01*
X144782770Y-97866849D01*
X144793608Y-98005784D01*
X144815207Y-98077966D01*
X144850463Y-98100758D01*
X144856000Y-98101000D01*
X144923514Y-98068220D01*
X144932200Y-98040040D01*
X144947195Y-98004697D01*
X144993160Y-98040040D01*
X145082241Y-98081104D01*
X145219212Y-98100720D01*
X145237000Y-98101000D01*
X145376200Y-98084994D01*
X145474167Y-98045876D01*
X145480840Y-98040040D01*
X145513923Y-97954639D01*
X145535108Y-97788048D01*
X145541800Y-97582840D01*
X145538059Y-97377316D01*
X145524506Y-97255021D01*
X145497645Y-97197780D01*
X145465600Y-97186600D01*
X145423681Y-97207941D01*
X145399956Y-97284499D01*
X145390278Y-97435074D01*
X145389400Y-97532040D01*
X145371908Y-97780038D01*
X145320827Y-97937729D01*
X145238254Y-98002956D01*
X145126286Y-97973561D01*
X145033800Y-97897800D01*
X144971749Y-97808662D01*
X144940495Y-97680497D01*
X144932200Y-97491400D01*
X144926348Y-97314416D01*
X144905603Y-97219394D01*
X144865182Y-97187201D01*
X144856000Y-97186600D01*
X144818826Y-97204417D01*
X144818826Y-97204417D01*
G37*
X144818826Y-97204417D02*
X144795670Y-97269443D01*
X144783639Y-97399041D01*
X144779841Y-97610575D01*
X144779800Y-97643800D01*
X144782770Y-97866849D01*
X144793608Y-98005784D01*
X144815207Y-98077966D01*
X144850463Y-98100758D01*
X144856000Y-98101000D01*
X144923514Y-98068220D01*
X144932200Y-98040040D01*
X144947195Y-98004697D01*
X144993160Y-98040040D01*
X145082241Y-98081104D01*
X145219212Y-98100720D01*
X145237000Y-98101000D01*
X145376200Y-98084994D01*
X145474167Y-98045876D01*
X145480840Y-98040040D01*
X145513923Y-97954639D01*
X145535108Y-97788048D01*
X145541800Y-97582840D01*
X145538059Y-97377316D01*
X145524506Y-97255021D01*
X145497645Y-97197780D01*
X145465600Y-97186600D01*
X145423681Y-97207941D01*
X145399956Y-97284499D01*
X145390278Y-97435074D01*
X145389400Y-97532040D01*
X145371908Y-97780038D01*
X145320827Y-97937729D01*
X145238254Y-98002956D01*
X145126286Y-97973561D01*
X145033800Y-97897800D01*
X144971749Y-97808662D01*
X144940495Y-97680497D01*
X144932200Y-97491400D01*
X144926348Y-97314416D01*
X144905603Y-97219394D01*
X144865182Y-97187201D01*
X144856000Y-97186600D01*
X144818826Y-97204417D01*
G36*
X146105370Y-96838709D02*
G01*
X145959472Y-96864053D01*
X145876107Y-96910353D01*
X145875629Y-96910828D01*
X145812954Y-97029076D01*
X145799168Y-97177178D01*
X145836731Y-97304072D01*
X145855560Y-97327639D01*
X145884668Y-97393767D01*
X145832692Y-97478686D01*
X145830160Y-97481499D01*
X145758324Y-97628350D01*
X145753935Y-97803905D01*
X145815533Y-97962206D01*
X145846600Y-97999400D01*
X145919926Y-98054052D01*
X146021573Y-98085301D01*
X146178858Y-98098900D01*
X146329200Y-98101000D01*
X146710200Y-98101000D01*
X146710200Y-97948600D01*
X146557800Y-97948600D01*
X146307429Y-97948600D01*
X146099176Y-97927337D01*
X145974692Y-97866234D01*
X145912118Y-97754360D01*
X145938409Y-97649150D01*
X146040969Y-97562604D01*
X146207202Y-97506722D01*
X146367300Y-97492148D01*
X146557800Y-97491400D01*
X146557800Y-97948600D01*
X146710200Y-97948600D01*
X146710200Y-97403013D01*
X146557800Y-97403013D01*
X146323965Y-97376656D01*
X146163584Y-97343142D01*
X146037159Y-97290081D01*
X146007326Y-97267496D01*
X145950214Y-97166872D01*
X145986626Y-97082695D01*
X146108900Y-97022231D01*
X146296333Y-96993445D01*
X146557800Y-96978090D01*
X146557800Y-97403013D01*
X146710200Y-97403013D01*
X146710200Y-96831000D01*
X146332829Y-96831000D01*
X146105370Y-96838709D01*
X146105370Y-96838709D01*
G37*
X146105370Y-96838709D02*
X145959472Y-96864053D01*
X145876107Y-96910353D01*
X145875629Y-96910828D01*
X145812954Y-97029076D01*
X145799168Y-97177178D01*
X145836731Y-97304072D01*
X145855560Y-97327639D01*
X145884668Y-97393767D01*
X145832692Y-97478686D01*
X145830160Y-97481499D01*
X145758324Y-97628350D01*
X145753935Y-97803905D01*
X145815533Y-97962206D01*
X145846600Y-97999400D01*
X145919926Y-98054052D01*
X146021573Y-98085301D01*
X146178858Y-98098900D01*
X146329200Y-98101000D01*
X146710200Y-98101000D01*
X146710200Y-97948600D01*
X146557800Y-97948600D01*
X146307429Y-97948600D01*
X146099176Y-97927337D01*
X145974692Y-97866234D01*
X145912118Y-97754360D01*
X145938409Y-97649150D01*
X146040969Y-97562604D01*
X146207202Y-97506722D01*
X146367300Y-97492148D01*
X146557800Y-97491400D01*
X146557800Y-97948600D01*
X146710200Y-97948600D01*
X146710200Y-97403013D01*
X146557800Y-97403013D01*
X146323965Y-97376656D01*
X146163584Y-97343142D01*
X146037159Y-97290081D01*
X146007326Y-97267496D01*
X145950214Y-97166872D01*
X145986626Y-97082695D01*
X146108900Y-97022231D01*
X146296333Y-96993445D01*
X146557800Y-96978090D01*
X146557800Y-97403013D01*
X146710200Y-97403013D01*
X146710200Y-96831000D01*
X146332829Y-96831000D01*
X146105370Y-96838709D01*
G36*
X147651984Y-97181190D02*
G01*
X147508830Y-97298372D01*
X147410031Y-97458863D01*
X147389596Y-97529500D01*
X147357900Y-97694600D01*
X147715095Y-97694600D01*
X147900806Y-97696647D01*
X148005065Y-97707085D01*
X148048003Y-97732356D01*
X148049750Y-97778903D01*
X148044701Y-97800097D01*
X147974832Y-97904144D01*
X147855482Y-97959576D01*
X147722137Y-97963316D01*
X147610286Y-97912290D01*
X147563595Y-97841783D01*
X147505726Y-97802296D01*
X147452721Y-97803101D01*
X147397027Y-97822518D01*
X147400791Y-97864650D01*
X147467121Y-97956322D01*
X147471041Y-97961300D01*
X147566768Y-98055027D01*
X147684102Y-98094841D01*
X147802400Y-98101000D01*
X147962877Y-98086844D01*
X148068834Y-98032182D01*
X148128913Y-97967149D01*
X148223793Y-97771301D01*
X148229687Y-97559200D01*
X148202344Y-97492190D01*
X148056812Y-97492190D01*
X148050616Y-97526283D01*
X147981617Y-97539758D01*
X147831720Y-97542194D01*
X147802400Y-97542200D01*
X147639361Y-97540564D01*
X147559826Y-97529269D01*
X147545700Y-97498737D01*
X147578888Y-97439386D01*
X147586500Y-97427900D01*
X147707509Y-97330731D01*
X147802400Y-97313600D01*
X147952045Y-97359718D01*
X148018300Y-97427900D01*
X148056812Y-97492190D01*
X148202344Y-97492190D01*
X148148445Y-97360101D01*
X148085708Y-97284292D01*
X147951632Y-97182679D01*
X147822480Y-97136433D01*
X147809141Y-97135800D01*
X147651984Y-97181190D01*
X147651984Y-97181190D01*
G37*
X147651984Y-97181190D02*
X147508830Y-97298372D01*
X147410031Y-97458863D01*
X147389596Y-97529500D01*
X147357900Y-97694600D01*
X147715095Y-97694600D01*
X147900806Y-97696647D01*
X148005065Y-97707085D01*
X148048003Y-97732356D01*
X148049750Y-97778903D01*
X148044701Y-97800097D01*
X147974832Y-97904144D01*
X147855482Y-97959576D01*
X147722137Y-97963316D01*
X147610286Y-97912290D01*
X147563595Y-97841783D01*
X147505726Y-97802296D01*
X147452721Y-97803101D01*
X147397027Y-97822518D01*
X147400791Y-97864650D01*
X147467121Y-97956322D01*
X147471041Y-97961300D01*
X147566768Y-98055027D01*
X147684102Y-98094841D01*
X147802400Y-98101000D01*
X147962877Y-98086844D01*
X148068834Y-98032182D01*
X148128913Y-97967149D01*
X148223793Y-97771301D01*
X148229687Y-97559200D01*
X148202344Y-97492190D01*
X148056812Y-97492190D01*
X148050616Y-97526283D01*
X147981617Y-97539758D01*
X147831720Y-97542194D01*
X147802400Y-97542200D01*
X147639361Y-97540564D01*
X147559826Y-97529269D01*
X147545700Y-97498737D01*
X147578888Y-97439386D01*
X147586500Y-97427900D01*
X147707509Y-97330731D01*
X147802400Y-97313600D01*
X147952045Y-97359718D01*
X148018300Y-97427900D01*
X148056812Y-97492190D01*
X148202344Y-97492190D01*
X148148445Y-97360101D01*
X148085708Y-97284292D01*
X147951632Y-97182679D01*
X147822480Y-97136433D01*
X147809141Y-97135800D01*
X147651984Y-97181190D01*
G36*
X148430320Y-96846091D02*
G01*
X148408331Y-96901615D01*
X148394963Y-97012944D01*
X148388343Y-97195451D01*
X148386600Y-97456907D01*
X148386600Y-98082814D01*
X148714866Y-98091859D01*
X148904228Y-98091669D01*
X149023958Y-98073221D01*
X149105448Y-98029095D01*
X149146666Y-97989772D01*
X149232234Y-97831202D01*
X149257141Y-97631522D01*
X149250238Y-97591015D01*
X149096575Y-97591015D01*
X149083182Y-97751450D01*
X148999258Y-97894703D01*
X148996200Y-97897800D01*
X148885921Y-97983176D01*
X148781671Y-97987827D01*
X148690247Y-97947982D01*
X148596524Y-97850270D01*
X148556912Y-97708110D01*
X148566322Y-97551323D01*
X148619662Y-97409729D01*
X148711842Y-97313152D01*
X148802872Y-97288200D01*
X148947490Y-97331232D01*
X149048368Y-97441556D01*
X149096575Y-97591015D01*
X149250238Y-97591015D01*
X149222805Y-97430053D01*
X149130643Y-97266113D01*
X149120186Y-97255167D01*
X148980939Y-97162601D01*
X148816800Y-97151393D01*
X148627900Y-97210250D01*
X148571334Y-97220562D01*
X148545386Y-97172733D01*
X148539005Y-97045553D01*
X148539000Y-97039635D01*
X148527065Y-96896306D01*
X148487252Y-96835741D01*
X148462800Y-96831000D01*
X148430320Y-96846091D01*
X148430320Y-96846091D01*
G37*
X148430320Y-96846091D02*
X148408331Y-96901615D01*
X148394963Y-97012944D01*
X148388343Y-97195451D01*
X148386600Y-97456907D01*
X148386600Y-98082814D01*
X148714866Y-98091859D01*
X148904228Y-98091669D01*
X149023958Y-98073221D01*
X149105448Y-98029095D01*
X149146666Y-97989772D01*
X149232234Y-97831202D01*
X149257141Y-97631522D01*
X149250238Y-97591015D01*
X149096575Y-97591015D01*
X149083182Y-97751450D01*
X148999258Y-97894703D01*
X148996200Y-97897800D01*
X148885921Y-97983176D01*
X148781671Y-97987827D01*
X148690247Y-97947982D01*
X148596524Y-97850270D01*
X148556912Y-97708110D01*
X148566322Y-97551323D01*
X148619662Y-97409729D01*
X148711842Y-97313152D01*
X148802872Y-97288200D01*
X148947490Y-97331232D01*
X149048368Y-97441556D01*
X149096575Y-97591015D01*
X149250238Y-97591015D01*
X149222805Y-97430053D01*
X149130643Y-97266113D01*
X149120186Y-97255167D01*
X148980939Y-97162601D01*
X148816800Y-97151393D01*
X148627900Y-97210250D01*
X148571334Y-97220562D01*
X148545386Y-97172733D01*
X148539005Y-97045553D01*
X148539000Y-97039635D01*
X148527065Y-96896306D01*
X148487252Y-96835741D01*
X148462800Y-96831000D01*
X148430320Y-96846091D01*
G36*
X149954320Y-96846091D02*
G01*
X149932331Y-96901615D01*
X149918963Y-97012944D01*
X149912343Y-97195451D01*
X149910600Y-97456907D01*
X149910600Y-98082814D01*
X150238866Y-98091859D01*
X150428228Y-98091669D01*
X150547958Y-98073221D01*
X150629448Y-98029095D01*
X150670666Y-97989772D01*
X150755064Y-97832926D01*
X150778067Y-97655103D01*
X150621800Y-97655103D01*
X150585972Y-97794202D01*
X150497786Y-97918416D01*
X150386187Y-97992077D01*
X150342400Y-97999400D01*
X150252258Y-97965771D01*
X150164600Y-97897800D01*
X150079935Y-97747396D01*
X150073293Y-97567354D01*
X150142081Y-97401103D01*
X150254182Y-97307015D01*
X150380168Y-97296360D01*
X150498071Y-97357507D01*
X150585924Y-97478823D01*
X150621758Y-97648679D01*
X150621800Y-97655103D01*
X150778067Y-97655103D01*
X150780766Y-97634239D01*
X150748940Y-97433963D01*
X150660753Y-97272348D01*
X150649510Y-97260490D01*
X150507361Y-97159796D01*
X150349440Y-97142670D01*
X150193308Y-97185342D01*
X150109905Y-97210578D01*
X150072805Y-97185918D01*
X150063283Y-97089463D01*
X150063000Y-97032942D01*
X150050260Y-96892125D01*
X150008090Y-96834457D01*
X149986800Y-96831000D01*
X149954320Y-96846091D01*
X149954320Y-96846091D01*
G37*
X149954320Y-96846091D02*
X149932331Y-96901615D01*
X149918963Y-97012944D01*
X149912343Y-97195451D01*
X149910600Y-97456907D01*
X149910600Y-98082814D01*
X150238866Y-98091859D01*
X150428228Y-98091669D01*
X150547958Y-98073221D01*
X150629448Y-98029095D01*
X150670666Y-97989772D01*
X150755064Y-97832926D01*
X150778067Y-97655103D01*
X150621800Y-97655103D01*
X150585972Y-97794202D01*
X150497786Y-97918416D01*
X150386187Y-97992077D01*
X150342400Y-97999400D01*
X150252258Y-97965771D01*
X150164600Y-97897800D01*
X150079935Y-97747396D01*
X150073293Y-97567354D01*
X150142081Y-97401103D01*
X150254182Y-97307015D01*
X150380168Y-97296360D01*
X150498071Y-97357507D01*
X150585924Y-97478823D01*
X150621758Y-97648679D01*
X150621800Y-97655103D01*
X150778067Y-97655103D01*
X150780766Y-97634239D01*
X150748940Y-97433963D01*
X150660753Y-97272348D01*
X150649510Y-97260490D01*
X150507361Y-97159796D01*
X150349440Y-97142670D01*
X150193308Y-97185342D01*
X150109905Y-97210578D01*
X150072805Y-97185918D01*
X150063283Y-97089463D01*
X150063000Y-97032942D01*
X150050260Y-96892125D01*
X150008090Y-96834457D01*
X149986800Y-96831000D01*
X149954320Y-96846091D01*
G36*
X151085968Y-97182871D02*
G01*
X151027659Y-97226668D01*
X150994742Y-97296947D01*
X150980306Y-97419745D01*
X150977400Y-97591789D01*
X150970542Y-97771514D01*
X150952541Y-97908452D01*
X150927255Y-97973566D01*
X150926600Y-97974000D01*
X150876667Y-98023840D01*
X150916288Y-98058888D01*
X151049446Y-98080575D01*
X151248455Y-98089771D01*
X151463580Y-98085717D01*
X151616195Y-98065463D01*
X151680255Y-98038225D01*
X151731656Y-97926089D01*
X151729387Y-97842663D01*
X151583107Y-97842663D01*
X151550674Y-97897319D01*
X151513791Y-97926304D01*
X151438491Y-97980744D01*
X151386707Y-97993163D01*
X151307931Y-97968252D01*
X151260108Y-97949857D01*
X151155657Y-97875217D01*
X151129800Y-97768021D01*
X151139137Y-97679972D01*
X151187432Y-97654109D01*
X151294900Y-97670266D01*
X151434437Y-97716704D01*
X151536200Y-97779007D01*
X151583107Y-97842663D01*
X151729387Y-97842663D01*
X151727789Y-97783917D01*
X151695479Y-97703989D01*
X151624427Y-97653378D01*
X151490761Y-97599071D01*
X151404157Y-97573670D01*
X151247058Y-97523390D01*
X151171093Y-97468099D01*
X151155200Y-97411880D01*
X151196231Y-97333005D01*
X151294361Y-97296782D01*
X151412149Y-97308652D01*
X151500785Y-97361642D01*
X151598856Y-97430444D01*
X151668503Y-97426604D01*
X151688600Y-97370620D01*
X151643270Y-97274103D01*
X151527994Y-97198120D01*
X151373845Y-97152353D01*
X151211896Y-97146481D01*
X151085968Y-97182871D01*
X151085968Y-97182871D01*
G37*
X151085968Y-97182871D02*
X151027659Y-97226668D01*
X150994742Y-97296947D01*
X150980306Y-97419745D01*
X150977400Y-97591789D01*
X150970542Y-97771514D01*
X150952541Y-97908452D01*
X150927255Y-97973566D01*
X150926600Y-97974000D01*
X150876667Y-98023840D01*
X150916288Y-98058888D01*
X151049446Y-98080575D01*
X151248455Y-98089771D01*
X151463580Y-98085717D01*
X151616195Y-98065463D01*
X151680255Y-98038225D01*
X151731656Y-97926089D01*
X151729387Y-97842663D01*
X151583107Y-97842663D01*
X151550674Y-97897319D01*
X151513791Y-97926304D01*
X151438491Y-97980744D01*
X151386707Y-97993163D01*
X151307931Y-97968252D01*
X151260108Y-97949857D01*
X151155657Y-97875217D01*
X151129800Y-97768021D01*
X151139137Y-97679972D01*
X151187432Y-97654109D01*
X151294900Y-97670266D01*
X151434437Y-97716704D01*
X151536200Y-97779007D01*
X151583107Y-97842663D01*
X151729387Y-97842663D01*
X151727789Y-97783917D01*
X151695479Y-97703989D01*
X151624427Y-97653378D01*
X151490761Y-97599071D01*
X151404157Y-97573670D01*
X151247058Y-97523390D01*
X151171093Y-97468099D01*
X151155200Y-97411880D01*
X151196231Y-97333005D01*
X151294361Y-97296782D01*
X151412149Y-97308652D01*
X151500785Y-97361642D01*
X151598856Y-97430444D01*
X151668503Y-97426604D01*
X151688600Y-97370620D01*
X151643270Y-97274103D01*
X151527994Y-97198120D01*
X151373845Y-97152353D01*
X151211896Y-97146481D01*
X151085968Y-97182871D01*
G36*
X151935520Y-96846091D02*
G01*
X151913531Y-96901615D01*
X151900163Y-97012944D01*
X151893543Y-97195451D01*
X151891800Y-97456907D01*
X151891800Y-98082814D01*
X152220066Y-98091859D01*
X152409428Y-98091669D01*
X152529158Y-98073221D01*
X152610648Y-98029095D01*
X152651866Y-97989772D01*
X152736264Y-97832926D01*
X152759267Y-97655103D01*
X152603000Y-97655103D01*
X152567172Y-97794202D01*
X152478986Y-97918416D01*
X152367387Y-97992077D01*
X152323600Y-97999400D01*
X152233458Y-97965771D01*
X152145800Y-97897800D01*
X152061135Y-97747396D01*
X152054493Y-97567354D01*
X152123281Y-97401103D01*
X152235382Y-97307015D01*
X152361368Y-97296360D01*
X152479271Y-97357507D01*
X152567124Y-97478823D01*
X152602958Y-97648679D01*
X152603000Y-97655103D01*
X152759267Y-97655103D01*
X152761966Y-97634239D01*
X152730140Y-97433963D01*
X152641953Y-97272348D01*
X152630710Y-97260490D01*
X152488561Y-97159796D01*
X152330640Y-97142670D01*
X152174508Y-97185342D01*
X152091105Y-97210578D01*
X152054005Y-97185918D01*
X152044483Y-97089463D01*
X152044200Y-97032942D01*
X152031460Y-96892125D01*
X151989290Y-96834457D01*
X151968000Y-96831000D01*
X151935520Y-96846091D01*
X151935520Y-96846091D01*
G37*
X151935520Y-96846091D02*
X151913531Y-96901615D01*
X151900163Y-97012944D01*
X151893543Y-97195451D01*
X151891800Y-97456907D01*
X151891800Y-98082814D01*
X152220066Y-98091859D01*
X152409428Y-98091669D01*
X152529158Y-98073221D01*
X152610648Y-98029095D01*
X152651866Y-97989772D01*
X152736264Y-97832926D01*
X152759267Y-97655103D01*
X152603000Y-97655103D01*
X152567172Y-97794202D01*
X152478986Y-97918416D01*
X152367387Y-97992077D01*
X152323600Y-97999400D01*
X152233458Y-97965771D01*
X152145800Y-97897800D01*
X152061135Y-97747396D01*
X152054493Y-97567354D01*
X152123281Y-97401103D01*
X152235382Y-97307015D01*
X152361368Y-97296360D01*
X152479271Y-97357507D01*
X152567124Y-97478823D01*
X152602958Y-97648679D01*
X152603000Y-97655103D01*
X152759267Y-97655103D01*
X152761966Y-97634239D01*
X152730140Y-97433963D01*
X152641953Y-97272348D01*
X152630710Y-97260490D01*
X152488561Y-97159796D01*
X152330640Y-97142670D01*
X152174508Y-97185342D01*
X152091105Y-97210578D01*
X152054005Y-97185918D01*
X152044483Y-97089463D01*
X152044200Y-97032942D01*
X152031460Y-96892125D01*
X151989290Y-96834457D01*
X151968000Y-96831000D01*
X151935520Y-96846091D01*
G36*
X152997626Y-97204417D02*
G01*
X152974470Y-97269443D01*
X152962439Y-97399041D01*
X152958641Y-97610575D01*
X152958600Y-97643800D01*
X152961570Y-97866849D01*
X152972408Y-98005784D01*
X152994007Y-98077966D01*
X153029263Y-98100758D01*
X153034800Y-98101000D01*
X153071975Y-98083182D01*
X153095131Y-98018156D01*
X153107162Y-97888558D01*
X153110960Y-97677024D01*
X153111000Y-97643800D01*
X153108031Y-97420750D01*
X153097193Y-97281815D01*
X153075594Y-97209633D01*
X153040338Y-97186841D01*
X153034800Y-97186600D01*
X152997626Y-97204417D01*
X152997626Y-97204417D01*
G37*
X152997626Y-97204417D02*
X152974470Y-97269443D01*
X152962439Y-97399041D01*
X152958641Y-97610575D01*
X152958600Y-97643800D01*
X152961570Y-97866849D01*
X152972408Y-98005784D01*
X152994007Y-98077966D01*
X153029263Y-98100758D01*
X153034800Y-98101000D01*
X153071975Y-98083182D01*
X153095131Y-98018156D01*
X153107162Y-97888558D01*
X153110960Y-97677024D01*
X153111000Y-97643800D01*
X153108031Y-97420750D01*
X153097193Y-97281815D01*
X153075594Y-97209633D01*
X153040338Y-97186841D01*
X153034800Y-97186600D01*
X152997626Y-97204417D01*
G36*
X153535071Y-97163726D02*
G01*
X153394262Y-97216072D01*
X153331175Y-97292601D01*
X153323367Y-97326300D01*
X153342034Y-97416679D01*
X153405006Y-97441704D01*
X153471671Y-97391798D01*
X153484971Y-97364400D01*
X153554462Y-97304334D01*
X153668149Y-97291839D01*
X153780196Y-97327399D01*
X153819260Y-97360857D01*
X153840239Y-97428937D01*
X153775834Y-97488674D01*
X153619150Y-97545158D01*
X153543085Y-97564656D01*
X153412673Y-97607765D01*
X153327185Y-97654104D01*
X153270735Y-97756982D01*
X153268803Y-97891745D01*
X153317116Y-98009545D01*
X153361661Y-98048412D01*
X153501800Y-98087888D01*
X153683332Y-98097158D01*
X153854263Y-98076427D01*
X153936500Y-98046130D01*
X154003763Y-97971433D01*
X154023040Y-97879487D01*
X153992302Y-97810238D01*
X153949200Y-97796200D01*
X153881606Y-97824207D01*
X153873000Y-97848089D01*
X153829345Y-97918809D01*
X153725410Y-97964933D01*
X153601738Y-97974391D01*
X153523826Y-97952039D01*
X153430556Y-97877865D01*
X153438452Y-97808331D01*
X153547716Y-97742063D01*
X153555500Y-97738946D01*
X153771582Y-97652250D01*
X153909333Y-97589719D01*
X153985335Y-97539271D01*
X154016171Y-97488819D01*
X154018422Y-97426280D01*
X154016002Y-97403349D01*
X153954368Y-97257707D01*
X153822170Y-97169068D01*
X153638719Y-97147054D01*
X153535071Y-97163726D01*
X153535071Y-97163726D01*
G37*
X153535071Y-97163726D02*
X153394262Y-97216072D01*
X153331175Y-97292601D01*
X153323367Y-97326300D01*
X153342034Y-97416679D01*
X153405006Y-97441704D01*
X153471671Y-97391798D01*
X153484971Y-97364400D01*
X153554462Y-97304334D01*
X153668149Y-97291839D01*
X153780196Y-97327399D01*
X153819260Y-97360857D01*
X153840239Y-97428937D01*
X153775834Y-97488674D01*
X153619150Y-97545158D01*
X153543085Y-97564656D01*
X153412673Y-97607765D01*
X153327185Y-97654104D01*
X153270735Y-97756982D01*
X153268803Y-97891745D01*
X153317116Y-98009545D01*
X153361661Y-98048412D01*
X153501800Y-98087888D01*
X153683332Y-98097158D01*
X153854263Y-98076427D01*
X153936500Y-98046130D01*
X154003763Y-97971433D01*
X154023040Y-97879487D01*
X153992302Y-97810238D01*
X153949200Y-97796200D01*
X153881606Y-97824207D01*
X153873000Y-97848089D01*
X153829345Y-97918809D01*
X153725410Y-97964933D01*
X153601738Y-97974391D01*
X153523826Y-97952039D01*
X153430556Y-97877865D01*
X153438452Y-97808331D01*
X153547716Y-97742063D01*
X153555500Y-97738946D01*
X153771582Y-97652250D01*
X153909333Y-97589719D01*
X153985335Y-97539271D01*
X154016171Y-97488819D01*
X154018422Y-97426280D01*
X154016002Y-97403349D01*
X153954368Y-97257707D01*
X153822170Y-97169068D01*
X153638719Y-97147054D01*
X153535071Y-97163726D01*
G36*
X154101950Y-97156135D02*
G01*
X154076200Y-97237400D01*
X154112639Y-97322962D01*
X154171580Y-97339000D01*
X154279740Y-97370637D01*
X154354416Y-97473211D01*
X154401833Y-97658215D01*
X154418101Y-97794302D01*
X154445204Y-97986679D01*
X154484080Y-98084675D01*
X154515056Y-98101000D01*
X154549571Y-98076782D01*
X154571051Y-97994000D01*
X154581793Y-97837460D01*
X154584200Y-97643800D01*
X154581231Y-97420750D01*
X154570393Y-97281815D01*
X154548794Y-97209633D01*
X154513538Y-97186841D01*
X154508000Y-97186600D01*
X154440421Y-97215553D01*
X154431800Y-97240280D01*
X154397570Y-97255132D01*
X154318897Y-97214880D01*
X154184755Y-97145008D01*
X154101950Y-97156135D01*
X154101950Y-97156135D01*
G37*
X154101950Y-97156135D02*
X154076200Y-97237400D01*
X154112639Y-97322962D01*
X154171580Y-97339000D01*
X154279740Y-97370637D01*
X154354416Y-97473211D01*
X154401833Y-97658215D01*
X154418101Y-97794302D01*
X154445204Y-97986679D01*
X154484080Y-98084675D01*
X154515056Y-98101000D01*
X154549571Y-98076782D01*
X154571051Y-97994000D01*
X154581793Y-97837460D01*
X154584200Y-97643800D01*
X154581231Y-97420750D01*
X154570393Y-97281815D01*
X154548794Y-97209633D01*
X154513538Y-97186841D01*
X154508000Y-97186600D01*
X154440421Y-97215553D01*
X154431800Y-97240280D01*
X154397570Y-97255132D01*
X154318897Y-97214880D01*
X154184755Y-97145008D01*
X154101950Y-97156135D01*
G36*
X154967184Y-97181190D02*
G01*
X154824030Y-97298372D01*
X154725231Y-97458863D01*
X154704796Y-97529500D01*
X154673100Y-97694600D01*
X155030295Y-97694600D01*
X155216006Y-97696647D01*
X155320265Y-97707085D01*
X155363203Y-97732356D01*
X155364950Y-97778903D01*
X155359901Y-97800097D01*
X155290032Y-97904144D01*
X155170682Y-97959576D01*
X155037337Y-97963316D01*
X154925486Y-97912290D01*
X154878795Y-97841783D01*
X154820926Y-97802296D01*
X154767921Y-97803101D01*
X154712227Y-97822518D01*
X154715991Y-97864650D01*
X154782321Y-97956322D01*
X154786241Y-97961300D01*
X154881968Y-98055027D01*
X154999302Y-98094841D01*
X155117600Y-98101000D01*
X155278077Y-98086844D01*
X155384034Y-98032182D01*
X155444113Y-97967149D01*
X155538993Y-97771301D01*
X155544887Y-97559200D01*
X155517544Y-97492190D01*
X155372012Y-97492190D01*
X155365816Y-97526283D01*
X155296817Y-97539758D01*
X155146920Y-97542194D01*
X155117600Y-97542200D01*
X154954561Y-97540564D01*
X154875026Y-97529269D01*
X154860900Y-97498737D01*
X154894088Y-97439386D01*
X154901700Y-97427900D01*
X155022709Y-97330731D01*
X155117600Y-97313600D01*
X155267245Y-97359718D01*
X155333500Y-97427900D01*
X155372012Y-97492190D01*
X155517544Y-97492190D01*
X155463645Y-97360101D01*
X155400908Y-97284292D01*
X155266832Y-97182679D01*
X155137680Y-97136433D01*
X155124341Y-97135800D01*
X154967184Y-97181190D01*
X154967184Y-97181190D01*
G37*
X154967184Y-97181190D02*
X154824030Y-97298372D01*
X154725231Y-97458863D01*
X154704796Y-97529500D01*
X154673100Y-97694600D01*
X155030295Y-97694600D01*
X155216006Y-97696647D01*
X155320265Y-97707085D01*
X155363203Y-97732356D01*
X155364950Y-97778903D01*
X155359901Y-97800097D01*
X155290032Y-97904144D01*
X155170682Y-97959576D01*
X155037337Y-97963316D01*
X154925486Y-97912290D01*
X154878795Y-97841783D01*
X154820926Y-97802296D01*
X154767921Y-97803101D01*
X154712227Y-97822518D01*
X154715991Y-97864650D01*
X154782321Y-97956322D01*
X154786241Y-97961300D01*
X154881968Y-98055027D01*
X154999302Y-98094841D01*
X155117600Y-98101000D01*
X155278077Y-98086844D01*
X155384034Y-98032182D01*
X155444113Y-97967149D01*
X155538993Y-97771301D01*
X155544887Y-97559200D01*
X155517544Y-97492190D01*
X155372012Y-97492190D01*
X155365816Y-97526283D01*
X155296817Y-97539758D01*
X155146920Y-97542194D01*
X155117600Y-97542200D01*
X154954561Y-97540564D01*
X154875026Y-97529269D01*
X154860900Y-97498737D01*
X154894088Y-97439386D01*
X154901700Y-97427900D01*
X155022709Y-97330731D01*
X155117600Y-97313600D01*
X155267245Y-97359718D01*
X155333500Y-97427900D01*
X155372012Y-97492190D01*
X155517544Y-97492190D01*
X155463645Y-97360101D01*
X155400908Y-97284292D01*
X155266832Y-97182679D01*
X155137680Y-97136433D01*
X155124341Y-97135800D01*
X154967184Y-97181190D01*
G36*
X155663436Y-97195247D02*
G01*
X155650474Y-97232765D01*
X155667193Y-97316517D01*
X155716534Y-97463867D01*
X155778423Y-97631100D01*
X155886576Y-97887509D01*
X155980956Y-98045053D01*
X156061129Y-98103199D01*
X156126660Y-98061413D01*
X156127598Y-98059912D01*
X156157366Y-97993500D01*
X156211838Y-97856698D01*
X156281109Y-97674644D01*
X156308856Y-97599899D01*
X156380594Y-97401283D01*
X156418279Y-97279069D01*
X156424362Y-97214845D01*
X156401293Y-97190197D01*
X156363852Y-97186600D01*
X156303933Y-97209072D01*
X156248054Y-97287991D01*
X156185986Y-97440613D01*
X156150604Y-97546320D01*
X156034748Y-97906041D01*
X155914841Y-97546320D01*
X155841384Y-97347324D01*
X155779381Y-97233029D01*
X155720081Y-97188563D01*
X155703138Y-97186600D01*
X155663436Y-97195247D01*
X155663436Y-97195247D01*
G37*
X155663436Y-97195247D02*
X155650474Y-97232765D01*
X155667193Y-97316517D01*
X155716534Y-97463867D01*
X155778423Y-97631100D01*
X155886576Y-97887509D01*
X155980956Y-98045053D01*
X156061129Y-98103199D01*
X156126660Y-98061413D01*
X156127598Y-98059912D01*
X156157366Y-97993500D01*
X156211838Y-97856698D01*
X156281109Y-97674644D01*
X156308856Y-97599899D01*
X156380594Y-97401283D01*
X156418279Y-97279069D01*
X156424362Y-97214845D01*
X156401293Y-97190197D01*
X156363852Y-97186600D01*
X156303933Y-97209072D01*
X156248054Y-97287991D01*
X156185986Y-97440613D01*
X156150604Y-97546320D01*
X156034748Y-97906041D01*
X155914841Y-97546320D01*
X155841384Y-97347324D01*
X155779381Y-97233029D01*
X155720081Y-97188563D01*
X155703138Y-97186600D01*
X155663436Y-97195247D01*
G36*
X156604426Y-97204417D02*
G01*
X156581270Y-97269443D01*
X156569239Y-97399041D01*
X156565441Y-97610575D01*
X156565400Y-97643800D01*
X156568370Y-97866849D01*
X156579208Y-98005784D01*
X156600807Y-98077966D01*
X156636063Y-98100758D01*
X156641600Y-98101000D01*
X156678775Y-98083182D01*
X156701931Y-98018156D01*
X156713962Y-97888558D01*
X156717760Y-97677024D01*
X156717800Y-97643800D01*
X156714831Y-97420750D01*
X156703993Y-97281815D01*
X156682394Y-97209633D01*
X156647138Y-97186841D01*
X156641600Y-97186600D01*
X156604426Y-97204417D01*
X156604426Y-97204417D01*
G37*
X156604426Y-97204417D02*
X156581270Y-97269443D01*
X156569239Y-97399041D01*
X156565441Y-97610575D01*
X156565400Y-97643800D01*
X156568370Y-97866849D01*
X156579208Y-98005784D01*
X156600807Y-98077966D01*
X156636063Y-98100758D01*
X156641600Y-98101000D01*
X156678775Y-98083182D01*
X156701931Y-98018156D01*
X156713962Y-97888558D01*
X156717760Y-97677024D01*
X156717800Y-97643800D01*
X156714831Y-97420750D01*
X156703993Y-97281815D01*
X156682394Y-97209633D01*
X156647138Y-97186841D01*
X156641600Y-97186600D01*
X156604426Y-97204417D01*
G36*
X157185035Y-97150948D02*
G01*
X157055874Y-97228700D01*
X157011500Y-97322710D01*
X156981735Y-97472452D01*
X156966893Y-97650456D01*
X156967290Y-97829251D01*
X156983241Y-97981366D01*
X157015061Y-98079331D01*
X157045864Y-98101000D01*
X157085928Y-98077093D01*
X157112242Y-97994290D01*
X157128561Y-97835963D01*
X157134764Y-97707300D01*
X157143876Y-97509322D01*
X157158078Y-97390999D01*
X157185377Y-97330425D01*
X157233780Y-97305697D01*
X157284389Y-97297999D01*
X157426570Y-97324280D01*
X157523083Y-97440774D01*
X157573479Y-97646711D01*
X157581400Y-97807503D01*
X157587660Y-97980742D01*
X157609756Y-98072130D01*
X157652665Y-98100836D01*
X157657600Y-98101000D01*
X157694775Y-98083182D01*
X157717931Y-98018156D01*
X157729962Y-97888558D01*
X157733760Y-97677024D01*
X157733800Y-97643800D01*
X157730831Y-97420750D01*
X157719993Y-97281815D01*
X157698394Y-97209633D01*
X157663138Y-97186841D01*
X157657600Y-97186600D01*
X157590066Y-97218181D01*
X157581400Y-97245273D01*
X157552056Y-97263433D01*
X157488500Y-97219873D01*
X157343894Y-97146851D01*
X157185035Y-97150948D01*
X157185035Y-97150948D01*
G37*
X157185035Y-97150948D02*
X157055874Y-97228700D01*
X157011500Y-97322710D01*
X156981735Y-97472452D01*
X156966893Y-97650456D01*
X156967290Y-97829251D01*
X156983241Y-97981366D01*
X157015061Y-98079331D01*
X157045864Y-98101000D01*
X157085928Y-98077093D01*
X157112242Y-97994290D01*
X157128561Y-97835963D01*
X157134764Y-97707300D01*
X157143876Y-97509322D01*
X157158078Y-97390999D01*
X157185377Y-97330425D01*
X157233780Y-97305697D01*
X157284389Y-97297999D01*
X157426570Y-97324280D01*
X157523083Y-97440774D01*
X157573479Y-97646711D01*
X157581400Y-97807503D01*
X157587660Y-97980742D01*
X157609756Y-98072130D01*
X157652665Y-98100836D01*
X157657600Y-98101000D01*
X157694775Y-98083182D01*
X157717931Y-98018156D01*
X157729962Y-97888558D01*
X157733760Y-97677024D01*
X157733800Y-97643800D01*
X157730831Y-97420750D01*
X157719993Y-97281815D01*
X157698394Y-97209633D01*
X157663138Y-97186841D01*
X157657600Y-97186600D01*
X157590066Y-97218181D01*
X157581400Y-97245273D01*
X157552056Y-97263433D01*
X157488500Y-97219873D01*
X157343894Y-97146851D01*
X157185035Y-97150948D01*
G36*
X157988845Y-96839163D02*
G01*
X157958619Y-96877008D01*
X157943125Y-96964567D01*
X157937564Y-97121871D01*
X157937000Y-97255219D01*
X157951628Y-97591334D01*
X157996407Y-97835238D01*
X158072683Y-97992147D01*
X158142204Y-98051272D01*
X158267735Y-98086561D01*
X158441511Y-98099411D01*
X158621618Y-98090683D01*
X158766141Y-98061234D01*
X158814004Y-98037500D01*
X158905423Y-97928538D01*
X158965278Y-97757269D01*
X158996801Y-97510439D01*
X159003800Y-97259492D01*
X159001882Y-97050499D01*
X158992975Y-96923143D01*
X158972352Y-96857485D01*
X158935286Y-96833588D01*
X158902200Y-96831000D01*
X158854448Y-96838496D01*
X158824487Y-96873708D01*
X158808161Y-96955722D01*
X158801310Y-97103621D01*
X158799823Y-97300900D01*
X158795644Y-97513522D01*
X158785104Y-97689327D01*
X158770089Y-97802270D01*
X158761723Y-97826695D01*
X158645313Y-97927519D01*
X158492002Y-97971239D01*
X158337243Y-97956749D01*
X158216486Y-97882947D01*
X158189661Y-97844496D01*
X158167500Y-97753963D01*
X158150473Y-97590890D01*
X158141176Y-97384305D01*
X158140200Y-97291539D01*
X158138526Y-97073377D01*
X158130668Y-96937525D01*
X158112375Y-96864714D01*
X158079396Y-96835671D01*
X158038600Y-96831000D01*
X157988845Y-96839163D01*
X157988845Y-96839163D01*
G37*
X157988845Y-96839163D02*
X157958619Y-96877008D01*
X157943125Y-96964567D01*
X157937564Y-97121871D01*
X157937000Y-97255219D01*
X157951628Y-97591334D01*
X157996407Y-97835238D01*
X158072683Y-97992147D01*
X158142204Y-98051272D01*
X158267735Y-98086561D01*
X158441511Y-98099411D01*
X158621618Y-98090683D01*
X158766141Y-98061234D01*
X158814004Y-98037500D01*
X158905423Y-97928538D01*
X158965278Y-97757269D01*
X158996801Y-97510439D01*
X159003800Y-97259492D01*
X159001882Y-97050499D01*
X158992975Y-96923143D01*
X158972352Y-96857485D01*
X158935286Y-96833588D01*
X158902200Y-96831000D01*
X158854448Y-96838496D01*
X158824487Y-96873708D01*
X158808161Y-96955722D01*
X158801310Y-97103621D01*
X158799823Y-97300900D01*
X158795644Y-97513522D01*
X158785104Y-97689327D01*
X158770089Y-97802270D01*
X158761723Y-97826695D01*
X158645313Y-97927519D01*
X158492002Y-97971239D01*
X158337243Y-97956749D01*
X158216486Y-97882947D01*
X158189661Y-97844496D01*
X158167500Y-97753963D01*
X158150473Y-97590890D01*
X158141176Y-97384305D01*
X158140200Y-97291539D01*
X158138526Y-97073377D01*
X158130668Y-96937525D01*
X158112375Y-96864714D01*
X158079396Y-96835671D01*
X158038600Y-96831000D01*
X157988845Y-96839163D01*
G36*
X160515371Y-93015851D02*
G01*
X160473983Y-93136878D01*
X160423432Y-93309385D01*
X160369958Y-93509477D01*
X160319799Y-93713261D01*
X160279194Y-93896843D01*
X160254380Y-94036328D01*
X160249688Y-94087301D01*
X160294420Y-94151515D01*
X160400180Y-94189292D01*
X160529940Y-94244406D01*
X160570943Y-94316791D01*
X160618532Y-94420015D01*
X160658935Y-94457768D01*
X160705003Y-94527878D01*
X160745894Y-94662535D01*
X160761870Y-94753282D01*
X160808372Y-94952682D01*
X160894756Y-95076870D01*
X161037048Y-95136348D01*
X161251273Y-95141618D01*
X161341536Y-95133133D01*
X161516095Y-95118265D01*
X161610468Y-95125207D01*
X161644168Y-95156216D01*
X161645400Y-95168257D01*
X161625462Y-95297714D01*
X161573615Y-95483566D01*
X161501814Y-95690565D01*
X161422013Y-95883462D01*
X161364147Y-95997599D01*
X161213273Y-96186711D01*
X160994996Y-96370611D01*
X160741921Y-96526158D01*
X160486649Y-96630206D01*
X160464300Y-96636354D01*
X160223000Y-96699672D01*
X160223000Y-98202600D01*
X164693400Y-98202600D01*
X164693400Y-96466368D01*
X164537103Y-96597884D01*
X164386311Y-96690653D01*
X164237557Y-96729331D01*
X164232303Y-96729400D01*
X164130789Y-96725986D01*
X164093246Y-96699486D01*
X164112225Y-96625508D01*
X164165521Y-96510676D01*
X164215682Y-96387060D01*
X164215097Y-96294887D01*
X164164217Y-96178753D01*
X164093160Y-96072775D01*
X164027060Y-96022089D01*
X164018996Y-96021304D01*
X163955897Y-96061425D01*
X163862852Y-96160581D01*
X163803706Y-96237204D01*
X163671015Y-96385635D01*
X163515752Y-96510693D01*
X163455844Y-96545454D01*
X163310699Y-96604400D01*
X163188969Y-96611319D01*
X163059680Y-96580568D01*
X162797061Y-96452202D01*
X162564761Y-96245697D01*
X162374614Y-95982822D01*
X162238457Y-95685342D01*
X162168125Y-95375026D01*
X162175453Y-95073641D01*
X162194327Y-94989081D01*
X162216075Y-94845947D01*
X162193331Y-94764109D01*
X162134031Y-94758182D01*
X162088014Y-94793266D01*
X161970585Y-94848071D01*
X161830096Y-94828417D01*
X161695076Y-94747377D01*
X161594052Y-94618022D01*
X161569561Y-94555714D01*
X161556067Y-94474415D01*
X161601311Y-94458569D01*
X161666747Y-94472321D01*
X161872030Y-94482458D01*
X162037102Y-94406565D01*
X162127077Y-94292786D01*
X162192787Y-94122985D01*
X162186766Y-93980118D01*
X162102283Y-93837736D01*
X161979129Y-93711420D01*
X161850228Y-93574512D01*
X161753746Y-93439279D01*
X161719286Y-93362560D01*
X161674476Y-93251703D01*
X161591174Y-93178035D01*
X161447111Y-93128520D01*
X161264400Y-93096277D01*
X161118366Y-93079285D01*
X161056650Y-93085129D01*
X161064073Y-93116069D01*
X161072017Y-93124940D01*
X161098139Y-93181647D01*
X161043235Y-93235433D01*
X161003230Y-93257606D01*
X160871820Y-93301050D01*
X160799319Y-93262730D01*
X160781800Y-93172189D01*
X160738935Y-93075442D01*
X160638829Y-92996496D01*
X160541358Y-92970200D01*
X160515371Y-93015851D01*
X160515371Y-93015851D01*
G37*
X160515371Y-93015851D02*
X160473983Y-93136878D01*
X160423432Y-93309385D01*
X160369958Y-93509477D01*
X160319799Y-93713261D01*
X160279194Y-93896843D01*
X160254380Y-94036328D01*
X160249688Y-94087301D01*
X160294420Y-94151515D01*
X160400180Y-94189292D01*
X160529940Y-94244406D01*
X160570943Y-94316791D01*
X160618532Y-94420015D01*
X160658935Y-94457768D01*
X160705003Y-94527878D01*
X160745894Y-94662535D01*
X160761870Y-94753282D01*
X160808372Y-94952682D01*
X160894756Y-95076870D01*
X161037048Y-95136348D01*
X161251273Y-95141618D01*
X161341536Y-95133133D01*
X161516095Y-95118265D01*
X161610468Y-95125207D01*
X161644168Y-95156216D01*
X161645400Y-95168257D01*
X161625462Y-95297714D01*
X161573615Y-95483566D01*
X161501814Y-95690565D01*
X161422013Y-95883462D01*
X161364147Y-95997599D01*
X161213273Y-96186711D01*
X160994996Y-96370611D01*
X160741921Y-96526158D01*
X160486649Y-96630206D01*
X160464300Y-96636354D01*
X160223000Y-96699672D01*
X160223000Y-98202600D01*
X164693400Y-98202600D01*
X164693400Y-96466368D01*
X164537103Y-96597884D01*
X164386311Y-96690653D01*
X164237557Y-96729331D01*
X164232303Y-96729400D01*
X164130789Y-96725986D01*
X164093246Y-96699486D01*
X164112225Y-96625508D01*
X164165521Y-96510676D01*
X164215682Y-96387060D01*
X164215097Y-96294887D01*
X164164217Y-96178753D01*
X164093160Y-96072775D01*
X164027060Y-96022089D01*
X164018996Y-96021304D01*
X163955897Y-96061425D01*
X163862852Y-96160581D01*
X163803706Y-96237204D01*
X163671015Y-96385635D01*
X163515752Y-96510693D01*
X163455844Y-96545454D01*
X163310699Y-96604400D01*
X163188969Y-96611319D01*
X163059680Y-96580568D01*
X162797061Y-96452202D01*
X162564761Y-96245697D01*
X162374614Y-95982822D01*
X162238457Y-95685342D01*
X162168125Y-95375026D01*
X162175453Y-95073641D01*
X162194327Y-94989081D01*
X162216075Y-94845947D01*
X162193331Y-94764109D01*
X162134031Y-94758182D01*
X162088014Y-94793266D01*
X161970585Y-94848071D01*
X161830096Y-94828417D01*
X161695076Y-94747377D01*
X161594052Y-94618022D01*
X161569561Y-94555714D01*
X161556067Y-94474415D01*
X161601311Y-94458569D01*
X161666747Y-94472321D01*
X161872030Y-94482458D01*
X162037102Y-94406565D01*
X162127077Y-94292786D01*
X162192787Y-94122985D01*
X162186766Y-93980118D01*
X162102283Y-93837736D01*
X161979129Y-93711420D01*
X161850228Y-93574512D01*
X161753746Y-93439279D01*
X161719286Y-93362560D01*
X161674476Y-93251703D01*
X161591174Y-93178035D01*
X161447111Y-93128520D01*
X161264400Y-93096277D01*
X161118366Y-93079285D01*
X161056650Y-93085129D01*
X161064073Y-93116069D01*
X161072017Y-93124940D01*
X161098139Y-93181647D01*
X161043235Y-93235433D01*
X161003230Y-93257606D01*
X160871820Y-93301050D01*
X160799319Y-93262730D01*
X160781800Y-93172189D01*
X160738935Y-93075442D01*
X160638829Y-92996496D01*
X160541358Y-92970200D01*
X160515371Y-93015851D01*
D11*
X161252380Y-139156666D02*
X161966666Y-139156666D01*
X162109523Y-139109047D01*
X162204761Y-139013809D01*
X162252380Y-138870952D01*
X162252380Y-138775714D01*
X161252380Y-139537619D02*
X161252380Y-140156666D01*
X161633333Y-139823333D01*
X161633333Y-139966190D01*
X161680952Y-140061428D01*
X161728571Y-140109047D01*
X161823809Y-140156666D01*
X162061904Y-140156666D01*
X162157142Y-140109047D01*
X162204761Y-140061428D01*
X162252380Y-139966190D01*
X162252380Y-139680476D01*
X162204761Y-139585238D01*
X162157142Y-139537619D01*
X161082380Y-82366666D02*
X161796666Y-82366666D01*
X161939523Y-82319047D01*
X162034761Y-82223809D01*
X162082380Y-82080952D01*
X162082380Y-81985714D01*
X161177619Y-82795238D02*
X161130000Y-82842857D01*
X161082380Y-82938095D01*
X161082380Y-83176190D01*
X161130000Y-83271428D01*
X161177619Y-83319047D01*
X161272857Y-83366666D01*
X161368095Y-83366666D01*
X161510952Y-83319047D01*
X162082380Y-82747619D01*
X162082380Y-83366666D01*
M02*
