G04 #@! TF.GenerationSoftware,KiCad,Pcbnew,(5.1.2)-1*
G04 #@! TF.CreationDate,2022-07-04T19:57:45-03:00*
G04 #@! TF.ProjectId,esp32,65737033-322e-46b6-9963-61645f706362,rev?*
G04 #@! TF.SameCoordinates,Original*
G04 #@! TF.FileFunction,Soldermask,Top*
G04 #@! TF.FilePolarity,Negative*
%FSLAX46Y46*%
G04 Gerber Fmt 4.6, Leading zero omitted, Abs format (unit mm)*
G04 Created by KiCad (PCBNEW (5.1.2)-1) date 2022-07-04 19:57:45*
%MOMM*%
%LPD*%
G04 APERTURE LIST*
%ADD10C,0.100000*%
G04 APERTURE END LIST*
D10*
G36*
X164724549Y-138371116D02*
G01*
X164835734Y-138393232D01*
X165045203Y-138479997D01*
X165233720Y-138605960D01*
X165394040Y-138766280D01*
X165449856Y-138849815D01*
X165520004Y-138954799D01*
X165545416Y-139016150D01*
X165606768Y-139164266D01*
X165651000Y-139386636D01*
X165651000Y-139613364D01*
X165606768Y-139835734D01*
X165520003Y-140045203D01*
X165394040Y-140233720D01*
X165233720Y-140394040D01*
X165045203Y-140520003D01*
X164835734Y-140606768D01*
X164724549Y-140628884D01*
X164613365Y-140651000D01*
X164386635Y-140651000D01*
X164275451Y-140628884D01*
X164164266Y-140606768D01*
X163954797Y-140520003D01*
X163766280Y-140394040D01*
X163605960Y-140233720D01*
X163479997Y-140045203D01*
X163393232Y-139835734D01*
X163349000Y-139613364D01*
X163349000Y-139386636D01*
X163393232Y-139164266D01*
X163454584Y-139016150D01*
X163479996Y-138954799D01*
X163550144Y-138849815D01*
X163605960Y-138766280D01*
X163766280Y-138605960D01*
X163954797Y-138479997D01*
X164164266Y-138393232D01*
X164275451Y-138371116D01*
X164386635Y-138349000D01*
X164613365Y-138349000D01*
X164724549Y-138371116D01*
X164724549Y-138371116D01*
G37*
G36*
X91224549Y-138371116D02*
G01*
X91335734Y-138393232D01*
X91545203Y-138479997D01*
X91733720Y-138605960D01*
X91894040Y-138766280D01*
X91949856Y-138849815D01*
X92020004Y-138954799D01*
X92045416Y-139016150D01*
X92106768Y-139164266D01*
X92151000Y-139386636D01*
X92151000Y-139613364D01*
X92106768Y-139835734D01*
X92020003Y-140045203D01*
X91894040Y-140233720D01*
X91733720Y-140394040D01*
X91545203Y-140520003D01*
X91335734Y-140606768D01*
X91224549Y-140628884D01*
X91113365Y-140651000D01*
X90886635Y-140651000D01*
X90775451Y-140628884D01*
X90664266Y-140606768D01*
X90454797Y-140520003D01*
X90266280Y-140394040D01*
X90105960Y-140233720D01*
X89979997Y-140045203D01*
X89893232Y-139835734D01*
X89849000Y-139613364D01*
X89849000Y-139386636D01*
X89893232Y-139164266D01*
X89954584Y-139016150D01*
X89979996Y-138954799D01*
X90050144Y-138849815D01*
X90105960Y-138766280D01*
X90266280Y-138605960D01*
X90454797Y-138479997D01*
X90664266Y-138393232D01*
X90775451Y-138371116D01*
X90886635Y-138349000D01*
X91113365Y-138349000D01*
X91224549Y-138371116D01*
X91224549Y-138371116D01*
G37*
G36*
X131640442Y-138595518D02*
G01*
X131706627Y-138602037D01*
X131876466Y-138653557D01*
X132032991Y-138737222D01*
X132068398Y-138766280D01*
X132170186Y-138849814D01*
X132253448Y-138951271D01*
X132282778Y-138987009D01*
X132366443Y-139143534D01*
X132417963Y-139313373D01*
X132435359Y-139490000D01*
X132417963Y-139666627D01*
X132366443Y-139836466D01*
X132282778Y-139992991D01*
X132253448Y-140028729D01*
X132170186Y-140130186D01*
X132068729Y-140213448D01*
X132032991Y-140242778D01*
X131876466Y-140326443D01*
X131706627Y-140377963D01*
X131640443Y-140384481D01*
X131574260Y-140391000D01*
X131485740Y-140391000D01*
X131419557Y-140384481D01*
X131353373Y-140377963D01*
X131183534Y-140326443D01*
X131027009Y-140242778D01*
X130991271Y-140213448D01*
X130889814Y-140130186D01*
X130806552Y-140028729D01*
X130777222Y-139992991D01*
X130693557Y-139836466D01*
X130642037Y-139666627D01*
X130624641Y-139490000D01*
X130642037Y-139313373D01*
X130693557Y-139143534D01*
X130777222Y-138987009D01*
X130806552Y-138951271D01*
X130889814Y-138849814D01*
X130991602Y-138766280D01*
X131027009Y-138737222D01*
X131183534Y-138653557D01*
X131353373Y-138602037D01*
X131419558Y-138595518D01*
X131485740Y-138589000D01*
X131574260Y-138589000D01*
X131640442Y-138595518D01*
X131640442Y-138595518D01*
G37*
G36*
X121480442Y-138595518D02*
G01*
X121546627Y-138602037D01*
X121716466Y-138653557D01*
X121872991Y-138737222D01*
X121908398Y-138766280D01*
X122010186Y-138849814D01*
X122093448Y-138951271D01*
X122122778Y-138987009D01*
X122206443Y-139143534D01*
X122257963Y-139313373D01*
X122275359Y-139490000D01*
X122257963Y-139666627D01*
X122206443Y-139836466D01*
X122122778Y-139992991D01*
X122093448Y-140028729D01*
X122010186Y-140130186D01*
X121908729Y-140213448D01*
X121872991Y-140242778D01*
X121716466Y-140326443D01*
X121546627Y-140377963D01*
X121480443Y-140384481D01*
X121414260Y-140391000D01*
X121325740Y-140391000D01*
X121259557Y-140384481D01*
X121193373Y-140377963D01*
X121023534Y-140326443D01*
X120867009Y-140242778D01*
X120831271Y-140213448D01*
X120729814Y-140130186D01*
X120646552Y-140028729D01*
X120617222Y-139992991D01*
X120533557Y-139836466D01*
X120482037Y-139666627D01*
X120464641Y-139490000D01*
X120482037Y-139313373D01*
X120533557Y-139143534D01*
X120617222Y-138987009D01*
X120646552Y-138951271D01*
X120729814Y-138849814D01*
X120831602Y-138766280D01*
X120867009Y-138737222D01*
X121023534Y-138653557D01*
X121193373Y-138602037D01*
X121259558Y-138595518D01*
X121325740Y-138589000D01*
X121414260Y-138589000D01*
X121480442Y-138595518D01*
X121480442Y-138595518D01*
G37*
G36*
X151960442Y-138595518D02*
G01*
X152026627Y-138602037D01*
X152196466Y-138653557D01*
X152352991Y-138737222D01*
X152388398Y-138766280D01*
X152490186Y-138849814D01*
X152573448Y-138951271D01*
X152602778Y-138987009D01*
X152686443Y-139143534D01*
X152737963Y-139313373D01*
X152755359Y-139490000D01*
X152737963Y-139666627D01*
X152686443Y-139836466D01*
X152602778Y-139992991D01*
X152573448Y-140028729D01*
X152490186Y-140130186D01*
X152388729Y-140213448D01*
X152352991Y-140242778D01*
X152196466Y-140326443D01*
X152026627Y-140377963D01*
X151960443Y-140384481D01*
X151894260Y-140391000D01*
X151805740Y-140391000D01*
X151739557Y-140384481D01*
X151673373Y-140377963D01*
X151503534Y-140326443D01*
X151347009Y-140242778D01*
X151311271Y-140213448D01*
X151209814Y-140130186D01*
X151126552Y-140028729D01*
X151097222Y-139992991D01*
X151013557Y-139836466D01*
X150962037Y-139666627D01*
X150944641Y-139490000D01*
X150962037Y-139313373D01*
X151013557Y-139143534D01*
X151097222Y-138987009D01*
X151126552Y-138951271D01*
X151209814Y-138849814D01*
X151311602Y-138766280D01*
X151347009Y-138737222D01*
X151503534Y-138653557D01*
X151673373Y-138602037D01*
X151739558Y-138595518D01*
X151805740Y-138589000D01*
X151894260Y-138589000D01*
X151960442Y-138595518D01*
X151960442Y-138595518D01*
G37*
G36*
X149420442Y-138595518D02*
G01*
X149486627Y-138602037D01*
X149656466Y-138653557D01*
X149812991Y-138737222D01*
X149848398Y-138766280D01*
X149950186Y-138849814D01*
X150033448Y-138951271D01*
X150062778Y-138987009D01*
X150146443Y-139143534D01*
X150197963Y-139313373D01*
X150215359Y-139490000D01*
X150197963Y-139666627D01*
X150146443Y-139836466D01*
X150062778Y-139992991D01*
X150033448Y-140028729D01*
X149950186Y-140130186D01*
X149848729Y-140213448D01*
X149812991Y-140242778D01*
X149656466Y-140326443D01*
X149486627Y-140377963D01*
X149420443Y-140384481D01*
X149354260Y-140391000D01*
X149265740Y-140391000D01*
X149199557Y-140384481D01*
X149133373Y-140377963D01*
X148963534Y-140326443D01*
X148807009Y-140242778D01*
X148771271Y-140213448D01*
X148669814Y-140130186D01*
X148586552Y-140028729D01*
X148557222Y-139992991D01*
X148473557Y-139836466D01*
X148422037Y-139666627D01*
X148404641Y-139490000D01*
X148422037Y-139313373D01*
X148473557Y-139143534D01*
X148557222Y-138987009D01*
X148586552Y-138951271D01*
X148669814Y-138849814D01*
X148771602Y-138766280D01*
X148807009Y-138737222D01*
X148963534Y-138653557D01*
X149133373Y-138602037D01*
X149199558Y-138595518D01*
X149265740Y-138589000D01*
X149354260Y-138589000D01*
X149420442Y-138595518D01*
X149420442Y-138595518D01*
G37*
G36*
X146880442Y-138595518D02*
G01*
X146946627Y-138602037D01*
X147116466Y-138653557D01*
X147272991Y-138737222D01*
X147308398Y-138766280D01*
X147410186Y-138849814D01*
X147493448Y-138951271D01*
X147522778Y-138987009D01*
X147606443Y-139143534D01*
X147657963Y-139313373D01*
X147675359Y-139490000D01*
X147657963Y-139666627D01*
X147606443Y-139836466D01*
X147522778Y-139992991D01*
X147493448Y-140028729D01*
X147410186Y-140130186D01*
X147308729Y-140213448D01*
X147272991Y-140242778D01*
X147116466Y-140326443D01*
X146946627Y-140377963D01*
X146880443Y-140384481D01*
X146814260Y-140391000D01*
X146725740Y-140391000D01*
X146659557Y-140384481D01*
X146593373Y-140377963D01*
X146423534Y-140326443D01*
X146267009Y-140242778D01*
X146231271Y-140213448D01*
X146129814Y-140130186D01*
X146046552Y-140028729D01*
X146017222Y-139992991D01*
X145933557Y-139836466D01*
X145882037Y-139666627D01*
X145864641Y-139490000D01*
X145882037Y-139313373D01*
X145933557Y-139143534D01*
X146017222Y-138987009D01*
X146046552Y-138951271D01*
X146129814Y-138849814D01*
X146231602Y-138766280D01*
X146267009Y-138737222D01*
X146423534Y-138653557D01*
X146593373Y-138602037D01*
X146659558Y-138595518D01*
X146725740Y-138589000D01*
X146814260Y-138589000D01*
X146880442Y-138595518D01*
X146880442Y-138595518D01*
G37*
G36*
X144340442Y-138595518D02*
G01*
X144406627Y-138602037D01*
X144576466Y-138653557D01*
X144732991Y-138737222D01*
X144768398Y-138766280D01*
X144870186Y-138849814D01*
X144953448Y-138951271D01*
X144982778Y-138987009D01*
X145066443Y-139143534D01*
X145117963Y-139313373D01*
X145135359Y-139490000D01*
X145117963Y-139666627D01*
X145066443Y-139836466D01*
X144982778Y-139992991D01*
X144953448Y-140028729D01*
X144870186Y-140130186D01*
X144768729Y-140213448D01*
X144732991Y-140242778D01*
X144576466Y-140326443D01*
X144406627Y-140377963D01*
X144340443Y-140384481D01*
X144274260Y-140391000D01*
X144185740Y-140391000D01*
X144119557Y-140384481D01*
X144053373Y-140377963D01*
X143883534Y-140326443D01*
X143727009Y-140242778D01*
X143691271Y-140213448D01*
X143589814Y-140130186D01*
X143506552Y-140028729D01*
X143477222Y-139992991D01*
X143393557Y-139836466D01*
X143342037Y-139666627D01*
X143324641Y-139490000D01*
X143342037Y-139313373D01*
X143393557Y-139143534D01*
X143477222Y-138987009D01*
X143506552Y-138951271D01*
X143589814Y-138849814D01*
X143691602Y-138766280D01*
X143727009Y-138737222D01*
X143883534Y-138653557D01*
X144053373Y-138602037D01*
X144119558Y-138595518D01*
X144185740Y-138589000D01*
X144274260Y-138589000D01*
X144340442Y-138595518D01*
X144340442Y-138595518D01*
G37*
G36*
X141800442Y-138595518D02*
G01*
X141866627Y-138602037D01*
X142036466Y-138653557D01*
X142192991Y-138737222D01*
X142228398Y-138766280D01*
X142330186Y-138849814D01*
X142413448Y-138951271D01*
X142442778Y-138987009D01*
X142526443Y-139143534D01*
X142577963Y-139313373D01*
X142595359Y-139490000D01*
X142577963Y-139666627D01*
X142526443Y-139836466D01*
X142442778Y-139992991D01*
X142413448Y-140028729D01*
X142330186Y-140130186D01*
X142228729Y-140213448D01*
X142192991Y-140242778D01*
X142036466Y-140326443D01*
X141866627Y-140377963D01*
X141800443Y-140384481D01*
X141734260Y-140391000D01*
X141645740Y-140391000D01*
X141579557Y-140384481D01*
X141513373Y-140377963D01*
X141343534Y-140326443D01*
X141187009Y-140242778D01*
X141151271Y-140213448D01*
X141049814Y-140130186D01*
X140966552Y-140028729D01*
X140937222Y-139992991D01*
X140853557Y-139836466D01*
X140802037Y-139666627D01*
X140784641Y-139490000D01*
X140802037Y-139313373D01*
X140853557Y-139143534D01*
X140937222Y-138987009D01*
X140966552Y-138951271D01*
X141049814Y-138849814D01*
X141151602Y-138766280D01*
X141187009Y-138737222D01*
X141343534Y-138653557D01*
X141513373Y-138602037D01*
X141579558Y-138595518D01*
X141645740Y-138589000D01*
X141734260Y-138589000D01*
X141800442Y-138595518D01*
X141800442Y-138595518D01*
G37*
G36*
X139260442Y-138595518D02*
G01*
X139326627Y-138602037D01*
X139496466Y-138653557D01*
X139652991Y-138737222D01*
X139688398Y-138766280D01*
X139790186Y-138849814D01*
X139873448Y-138951271D01*
X139902778Y-138987009D01*
X139986443Y-139143534D01*
X140037963Y-139313373D01*
X140055359Y-139490000D01*
X140037963Y-139666627D01*
X139986443Y-139836466D01*
X139902778Y-139992991D01*
X139873448Y-140028729D01*
X139790186Y-140130186D01*
X139688729Y-140213448D01*
X139652991Y-140242778D01*
X139496466Y-140326443D01*
X139326627Y-140377963D01*
X139260443Y-140384481D01*
X139194260Y-140391000D01*
X139105740Y-140391000D01*
X139039557Y-140384481D01*
X138973373Y-140377963D01*
X138803534Y-140326443D01*
X138647009Y-140242778D01*
X138611271Y-140213448D01*
X138509814Y-140130186D01*
X138426552Y-140028729D01*
X138397222Y-139992991D01*
X138313557Y-139836466D01*
X138262037Y-139666627D01*
X138244641Y-139490000D01*
X138262037Y-139313373D01*
X138313557Y-139143534D01*
X138397222Y-138987009D01*
X138426552Y-138951271D01*
X138509814Y-138849814D01*
X138611602Y-138766280D01*
X138647009Y-138737222D01*
X138803534Y-138653557D01*
X138973373Y-138602037D01*
X139039558Y-138595518D01*
X139105740Y-138589000D01*
X139194260Y-138589000D01*
X139260442Y-138595518D01*
X139260442Y-138595518D01*
G37*
G36*
X136720442Y-138595518D02*
G01*
X136786627Y-138602037D01*
X136956466Y-138653557D01*
X137112991Y-138737222D01*
X137148398Y-138766280D01*
X137250186Y-138849814D01*
X137333448Y-138951271D01*
X137362778Y-138987009D01*
X137446443Y-139143534D01*
X137497963Y-139313373D01*
X137515359Y-139490000D01*
X137497963Y-139666627D01*
X137446443Y-139836466D01*
X137362778Y-139992991D01*
X137333448Y-140028729D01*
X137250186Y-140130186D01*
X137148729Y-140213448D01*
X137112991Y-140242778D01*
X136956466Y-140326443D01*
X136786627Y-140377963D01*
X136720443Y-140384481D01*
X136654260Y-140391000D01*
X136565740Y-140391000D01*
X136499557Y-140384481D01*
X136433373Y-140377963D01*
X136263534Y-140326443D01*
X136107009Y-140242778D01*
X136071271Y-140213448D01*
X135969814Y-140130186D01*
X135886552Y-140028729D01*
X135857222Y-139992991D01*
X135773557Y-139836466D01*
X135722037Y-139666627D01*
X135704641Y-139490000D01*
X135722037Y-139313373D01*
X135773557Y-139143534D01*
X135857222Y-138987009D01*
X135886552Y-138951271D01*
X135969814Y-138849814D01*
X136071602Y-138766280D01*
X136107009Y-138737222D01*
X136263534Y-138653557D01*
X136433373Y-138602037D01*
X136499558Y-138595518D01*
X136565740Y-138589000D01*
X136654260Y-138589000D01*
X136720442Y-138595518D01*
X136720442Y-138595518D01*
G37*
G36*
X134180442Y-138595518D02*
G01*
X134246627Y-138602037D01*
X134416466Y-138653557D01*
X134572991Y-138737222D01*
X134608398Y-138766280D01*
X134710186Y-138849814D01*
X134793448Y-138951271D01*
X134822778Y-138987009D01*
X134906443Y-139143534D01*
X134957963Y-139313373D01*
X134975359Y-139490000D01*
X134957963Y-139666627D01*
X134906443Y-139836466D01*
X134822778Y-139992991D01*
X134793448Y-140028729D01*
X134710186Y-140130186D01*
X134608729Y-140213448D01*
X134572991Y-140242778D01*
X134416466Y-140326443D01*
X134246627Y-140377963D01*
X134180443Y-140384481D01*
X134114260Y-140391000D01*
X134025740Y-140391000D01*
X133959557Y-140384481D01*
X133893373Y-140377963D01*
X133723534Y-140326443D01*
X133567009Y-140242778D01*
X133531271Y-140213448D01*
X133429814Y-140130186D01*
X133346552Y-140028729D01*
X133317222Y-139992991D01*
X133233557Y-139836466D01*
X133182037Y-139666627D01*
X133164641Y-139490000D01*
X133182037Y-139313373D01*
X133233557Y-139143534D01*
X133317222Y-138987009D01*
X133346552Y-138951271D01*
X133429814Y-138849814D01*
X133531602Y-138766280D01*
X133567009Y-138737222D01*
X133723534Y-138653557D01*
X133893373Y-138602037D01*
X133959558Y-138595518D01*
X134025740Y-138589000D01*
X134114260Y-138589000D01*
X134180442Y-138595518D01*
X134180442Y-138595518D01*
G37*
G36*
X129100442Y-138595518D02*
G01*
X129166627Y-138602037D01*
X129336466Y-138653557D01*
X129492991Y-138737222D01*
X129528398Y-138766280D01*
X129630186Y-138849814D01*
X129713448Y-138951271D01*
X129742778Y-138987009D01*
X129826443Y-139143534D01*
X129877963Y-139313373D01*
X129895359Y-139490000D01*
X129877963Y-139666627D01*
X129826443Y-139836466D01*
X129742778Y-139992991D01*
X129713448Y-140028729D01*
X129630186Y-140130186D01*
X129528729Y-140213448D01*
X129492991Y-140242778D01*
X129336466Y-140326443D01*
X129166627Y-140377963D01*
X129100443Y-140384481D01*
X129034260Y-140391000D01*
X128945740Y-140391000D01*
X128879557Y-140384481D01*
X128813373Y-140377963D01*
X128643534Y-140326443D01*
X128487009Y-140242778D01*
X128451271Y-140213448D01*
X128349814Y-140130186D01*
X128266552Y-140028729D01*
X128237222Y-139992991D01*
X128153557Y-139836466D01*
X128102037Y-139666627D01*
X128084641Y-139490000D01*
X128102037Y-139313373D01*
X128153557Y-139143534D01*
X128237222Y-138987009D01*
X128266552Y-138951271D01*
X128349814Y-138849814D01*
X128451602Y-138766280D01*
X128487009Y-138737222D01*
X128643534Y-138653557D01*
X128813373Y-138602037D01*
X128879558Y-138595518D01*
X128945740Y-138589000D01*
X129034260Y-138589000D01*
X129100442Y-138595518D01*
X129100442Y-138595518D01*
G37*
G36*
X126560442Y-138595518D02*
G01*
X126626627Y-138602037D01*
X126796466Y-138653557D01*
X126952991Y-138737222D01*
X126988398Y-138766280D01*
X127090186Y-138849814D01*
X127173448Y-138951271D01*
X127202778Y-138987009D01*
X127286443Y-139143534D01*
X127337963Y-139313373D01*
X127355359Y-139490000D01*
X127337963Y-139666627D01*
X127286443Y-139836466D01*
X127202778Y-139992991D01*
X127173448Y-140028729D01*
X127090186Y-140130186D01*
X126988729Y-140213448D01*
X126952991Y-140242778D01*
X126796466Y-140326443D01*
X126626627Y-140377963D01*
X126560443Y-140384481D01*
X126494260Y-140391000D01*
X126405740Y-140391000D01*
X126339557Y-140384481D01*
X126273373Y-140377963D01*
X126103534Y-140326443D01*
X125947009Y-140242778D01*
X125911271Y-140213448D01*
X125809814Y-140130186D01*
X125726552Y-140028729D01*
X125697222Y-139992991D01*
X125613557Y-139836466D01*
X125562037Y-139666627D01*
X125544641Y-139490000D01*
X125562037Y-139313373D01*
X125613557Y-139143534D01*
X125697222Y-138987009D01*
X125726552Y-138951271D01*
X125809814Y-138849814D01*
X125911602Y-138766280D01*
X125947009Y-138737222D01*
X126103534Y-138653557D01*
X126273373Y-138602037D01*
X126339558Y-138595518D01*
X126405740Y-138589000D01*
X126494260Y-138589000D01*
X126560442Y-138595518D01*
X126560442Y-138595518D01*
G37*
G36*
X157040442Y-138595518D02*
G01*
X157106627Y-138602037D01*
X157276466Y-138653557D01*
X157432991Y-138737222D01*
X157468398Y-138766280D01*
X157570186Y-138849814D01*
X157653448Y-138951271D01*
X157682778Y-138987009D01*
X157766443Y-139143534D01*
X157817963Y-139313373D01*
X157835359Y-139490000D01*
X157817963Y-139666627D01*
X157766443Y-139836466D01*
X157682778Y-139992991D01*
X157653448Y-140028729D01*
X157570186Y-140130186D01*
X157468729Y-140213448D01*
X157432991Y-140242778D01*
X157276466Y-140326443D01*
X157106627Y-140377963D01*
X157040443Y-140384481D01*
X156974260Y-140391000D01*
X156885740Y-140391000D01*
X156819557Y-140384481D01*
X156753373Y-140377963D01*
X156583534Y-140326443D01*
X156427009Y-140242778D01*
X156391271Y-140213448D01*
X156289814Y-140130186D01*
X156206552Y-140028729D01*
X156177222Y-139992991D01*
X156093557Y-139836466D01*
X156042037Y-139666627D01*
X156024641Y-139490000D01*
X156042037Y-139313373D01*
X156093557Y-139143534D01*
X156177222Y-138987009D01*
X156206552Y-138951271D01*
X156289814Y-138849814D01*
X156391602Y-138766280D01*
X156427009Y-138737222D01*
X156583534Y-138653557D01*
X156753373Y-138602037D01*
X156819558Y-138595518D01*
X156885740Y-138589000D01*
X156974260Y-138589000D01*
X157040442Y-138595518D01*
X157040442Y-138595518D01*
G37*
G36*
X98620442Y-138595518D02*
G01*
X98686627Y-138602037D01*
X98856466Y-138653557D01*
X99012991Y-138737222D01*
X99048398Y-138766280D01*
X99150186Y-138849814D01*
X99233448Y-138951271D01*
X99262778Y-138987009D01*
X99346443Y-139143534D01*
X99397963Y-139313373D01*
X99415359Y-139490000D01*
X99397963Y-139666627D01*
X99346443Y-139836466D01*
X99262778Y-139992991D01*
X99233448Y-140028729D01*
X99150186Y-140130186D01*
X99048729Y-140213448D01*
X99012991Y-140242778D01*
X98856466Y-140326443D01*
X98686627Y-140377963D01*
X98620443Y-140384481D01*
X98554260Y-140391000D01*
X98465740Y-140391000D01*
X98399557Y-140384481D01*
X98333373Y-140377963D01*
X98163534Y-140326443D01*
X98007009Y-140242778D01*
X97971271Y-140213448D01*
X97869814Y-140130186D01*
X97786552Y-140028729D01*
X97757222Y-139992991D01*
X97673557Y-139836466D01*
X97622037Y-139666627D01*
X97604641Y-139490000D01*
X97622037Y-139313373D01*
X97673557Y-139143534D01*
X97757222Y-138987009D01*
X97786552Y-138951271D01*
X97869814Y-138849814D01*
X97971602Y-138766280D01*
X98007009Y-138737222D01*
X98163534Y-138653557D01*
X98333373Y-138602037D01*
X98399558Y-138595518D01*
X98465740Y-138589000D01*
X98554260Y-138589000D01*
X98620442Y-138595518D01*
X98620442Y-138595518D01*
G37*
G36*
X124020442Y-138595518D02*
G01*
X124086627Y-138602037D01*
X124256466Y-138653557D01*
X124412991Y-138737222D01*
X124448398Y-138766280D01*
X124550186Y-138849814D01*
X124633448Y-138951271D01*
X124662778Y-138987009D01*
X124746443Y-139143534D01*
X124797963Y-139313373D01*
X124815359Y-139490000D01*
X124797963Y-139666627D01*
X124746443Y-139836466D01*
X124662778Y-139992991D01*
X124633448Y-140028729D01*
X124550186Y-140130186D01*
X124448729Y-140213448D01*
X124412991Y-140242778D01*
X124256466Y-140326443D01*
X124086627Y-140377963D01*
X124020443Y-140384481D01*
X123954260Y-140391000D01*
X123865740Y-140391000D01*
X123799557Y-140384481D01*
X123733373Y-140377963D01*
X123563534Y-140326443D01*
X123407009Y-140242778D01*
X123371271Y-140213448D01*
X123269814Y-140130186D01*
X123186552Y-140028729D01*
X123157222Y-139992991D01*
X123073557Y-139836466D01*
X123022037Y-139666627D01*
X123004641Y-139490000D01*
X123022037Y-139313373D01*
X123073557Y-139143534D01*
X123157222Y-138987009D01*
X123186552Y-138951271D01*
X123269814Y-138849814D01*
X123371602Y-138766280D01*
X123407009Y-138737222D01*
X123563534Y-138653557D01*
X123733373Y-138602037D01*
X123799558Y-138595518D01*
X123865740Y-138589000D01*
X123954260Y-138589000D01*
X124020442Y-138595518D01*
X124020442Y-138595518D01*
G37*
G36*
X160371000Y-140391000D02*
G01*
X158569000Y-140391000D01*
X158569000Y-138589000D01*
X160371000Y-138589000D01*
X160371000Y-140391000D01*
X160371000Y-140391000D01*
G37*
G36*
X96080442Y-138595518D02*
G01*
X96146627Y-138602037D01*
X96316466Y-138653557D01*
X96472991Y-138737222D01*
X96508398Y-138766280D01*
X96610186Y-138849814D01*
X96693448Y-138951271D01*
X96722778Y-138987009D01*
X96806443Y-139143534D01*
X96857963Y-139313373D01*
X96875359Y-139490000D01*
X96857963Y-139666627D01*
X96806443Y-139836466D01*
X96722778Y-139992991D01*
X96693448Y-140028729D01*
X96610186Y-140130186D01*
X96508729Y-140213448D01*
X96472991Y-140242778D01*
X96316466Y-140326443D01*
X96146627Y-140377963D01*
X96080443Y-140384481D01*
X96014260Y-140391000D01*
X95925740Y-140391000D01*
X95859557Y-140384481D01*
X95793373Y-140377963D01*
X95623534Y-140326443D01*
X95467009Y-140242778D01*
X95431271Y-140213448D01*
X95329814Y-140130186D01*
X95246552Y-140028729D01*
X95217222Y-139992991D01*
X95133557Y-139836466D01*
X95082037Y-139666627D01*
X95064641Y-139490000D01*
X95082037Y-139313373D01*
X95133557Y-139143534D01*
X95217222Y-138987009D01*
X95246552Y-138951271D01*
X95329814Y-138849814D01*
X95431602Y-138766280D01*
X95467009Y-138737222D01*
X95623534Y-138653557D01*
X95793373Y-138602037D01*
X95859558Y-138595518D01*
X95925740Y-138589000D01*
X96014260Y-138589000D01*
X96080442Y-138595518D01*
X96080442Y-138595518D01*
G37*
G36*
X154500442Y-138595518D02*
G01*
X154566627Y-138602037D01*
X154736466Y-138653557D01*
X154892991Y-138737222D01*
X154928398Y-138766280D01*
X155030186Y-138849814D01*
X155113448Y-138951271D01*
X155142778Y-138987009D01*
X155226443Y-139143534D01*
X155277963Y-139313373D01*
X155295359Y-139490000D01*
X155277963Y-139666627D01*
X155226443Y-139836466D01*
X155142778Y-139992991D01*
X155113448Y-140028729D01*
X155030186Y-140130186D01*
X154928729Y-140213448D01*
X154892991Y-140242778D01*
X154736466Y-140326443D01*
X154566627Y-140377963D01*
X154500443Y-140384481D01*
X154434260Y-140391000D01*
X154345740Y-140391000D01*
X154279557Y-140384481D01*
X154213373Y-140377963D01*
X154043534Y-140326443D01*
X153887009Y-140242778D01*
X153851271Y-140213448D01*
X153749814Y-140130186D01*
X153666552Y-140028729D01*
X153637222Y-139992991D01*
X153553557Y-139836466D01*
X153502037Y-139666627D01*
X153484641Y-139490000D01*
X153502037Y-139313373D01*
X153553557Y-139143534D01*
X153637222Y-138987009D01*
X153666552Y-138951271D01*
X153749814Y-138849814D01*
X153851602Y-138766280D01*
X153887009Y-138737222D01*
X154043534Y-138653557D01*
X154213373Y-138602037D01*
X154279558Y-138595518D01*
X154345740Y-138589000D01*
X154434260Y-138589000D01*
X154500442Y-138595518D01*
X154500442Y-138595518D01*
G37*
G36*
X101160442Y-138595518D02*
G01*
X101226627Y-138602037D01*
X101396466Y-138653557D01*
X101552991Y-138737222D01*
X101588398Y-138766280D01*
X101690186Y-138849814D01*
X101773448Y-138951271D01*
X101802778Y-138987009D01*
X101886443Y-139143534D01*
X101937963Y-139313373D01*
X101955359Y-139490000D01*
X101937963Y-139666627D01*
X101886443Y-139836466D01*
X101802778Y-139992991D01*
X101773448Y-140028729D01*
X101690186Y-140130186D01*
X101588729Y-140213448D01*
X101552991Y-140242778D01*
X101396466Y-140326443D01*
X101226627Y-140377963D01*
X101160443Y-140384481D01*
X101094260Y-140391000D01*
X101005740Y-140391000D01*
X100939557Y-140384481D01*
X100873373Y-140377963D01*
X100703534Y-140326443D01*
X100547009Y-140242778D01*
X100511271Y-140213448D01*
X100409814Y-140130186D01*
X100326552Y-140028729D01*
X100297222Y-139992991D01*
X100213557Y-139836466D01*
X100162037Y-139666627D01*
X100144641Y-139490000D01*
X100162037Y-139313373D01*
X100213557Y-139143534D01*
X100297222Y-138987009D01*
X100326552Y-138951271D01*
X100409814Y-138849814D01*
X100511602Y-138766280D01*
X100547009Y-138737222D01*
X100703534Y-138653557D01*
X100873373Y-138602037D01*
X100939558Y-138595518D01*
X101005740Y-138589000D01*
X101094260Y-138589000D01*
X101160442Y-138595518D01*
X101160442Y-138595518D01*
G37*
G36*
X103700442Y-138595518D02*
G01*
X103766627Y-138602037D01*
X103936466Y-138653557D01*
X104092991Y-138737222D01*
X104128398Y-138766280D01*
X104230186Y-138849814D01*
X104313448Y-138951271D01*
X104342778Y-138987009D01*
X104426443Y-139143534D01*
X104477963Y-139313373D01*
X104495359Y-139490000D01*
X104477963Y-139666627D01*
X104426443Y-139836466D01*
X104342778Y-139992991D01*
X104313448Y-140028729D01*
X104230186Y-140130186D01*
X104128729Y-140213448D01*
X104092991Y-140242778D01*
X103936466Y-140326443D01*
X103766627Y-140377963D01*
X103700443Y-140384481D01*
X103634260Y-140391000D01*
X103545740Y-140391000D01*
X103479557Y-140384481D01*
X103413373Y-140377963D01*
X103243534Y-140326443D01*
X103087009Y-140242778D01*
X103051271Y-140213448D01*
X102949814Y-140130186D01*
X102866552Y-140028729D01*
X102837222Y-139992991D01*
X102753557Y-139836466D01*
X102702037Y-139666627D01*
X102684641Y-139490000D01*
X102702037Y-139313373D01*
X102753557Y-139143534D01*
X102837222Y-138987009D01*
X102866552Y-138951271D01*
X102949814Y-138849814D01*
X103051602Y-138766280D01*
X103087009Y-138737222D01*
X103243534Y-138653557D01*
X103413373Y-138602037D01*
X103479558Y-138595518D01*
X103545740Y-138589000D01*
X103634260Y-138589000D01*
X103700442Y-138595518D01*
X103700442Y-138595518D01*
G37*
G36*
X106240442Y-138595518D02*
G01*
X106306627Y-138602037D01*
X106476466Y-138653557D01*
X106632991Y-138737222D01*
X106668398Y-138766280D01*
X106770186Y-138849814D01*
X106853448Y-138951271D01*
X106882778Y-138987009D01*
X106966443Y-139143534D01*
X107017963Y-139313373D01*
X107035359Y-139490000D01*
X107017963Y-139666627D01*
X106966443Y-139836466D01*
X106882778Y-139992991D01*
X106853448Y-140028729D01*
X106770186Y-140130186D01*
X106668729Y-140213448D01*
X106632991Y-140242778D01*
X106476466Y-140326443D01*
X106306627Y-140377963D01*
X106240443Y-140384481D01*
X106174260Y-140391000D01*
X106085740Y-140391000D01*
X106019557Y-140384481D01*
X105953373Y-140377963D01*
X105783534Y-140326443D01*
X105627009Y-140242778D01*
X105591271Y-140213448D01*
X105489814Y-140130186D01*
X105406552Y-140028729D01*
X105377222Y-139992991D01*
X105293557Y-139836466D01*
X105242037Y-139666627D01*
X105224641Y-139490000D01*
X105242037Y-139313373D01*
X105293557Y-139143534D01*
X105377222Y-138987009D01*
X105406552Y-138951271D01*
X105489814Y-138849814D01*
X105591602Y-138766280D01*
X105627009Y-138737222D01*
X105783534Y-138653557D01*
X105953373Y-138602037D01*
X106019558Y-138595518D01*
X106085740Y-138589000D01*
X106174260Y-138589000D01*
X106240442Y-138595518D01*
X106240442Y-138595518D01*
G37*
G36*
X108780442Y-138595518D02*
G01*
X108846627Y-138602037D01*
X109016466Y-138653557D01*
X109172991Y-138737222D01*
X109208398Y-138766280D01*
X109310186Y-138849814D01*
X109393448Y-138951271D01*
X109422778Y-138987009D01*
X109506443Y-139143534D01*
X109557963Y-139313373D01*
X109575359Y-139490000D01*
X109557963Y-139666627D01*
X109506443Y-139836466D01*
X109422778Y-139992991D01*
X109393448Y-140028729D01*
X109310186Y-140130186D01*
X109208729Y-140213448D01*
X109172991Y-140242778D01*
X109016466Y-140326443D01*
X108846627Y-140377963D01*
X108780443Y-140384481D01*
X108714260Y-140391000D01*
X108625740Y-140391000D01*
X108559557Y-140384481D01*
X108493373Y-140377963D01*
X108323534Y-140326443D01*
X108167009Y-140242778D01*
X108131271Y-140213448D01*
X108029814Y-140130186D01*
X107946552Y-140028729D01*
X107917222Y-139992991D01*
X107833557Y-139836466D01*
X107782037Y-139666627D01*
X107764641Y-139490000D01*
X107782037Y-139313373D01*
X107833557Y-139143534D01*
X107917222Y-138987009D01*
X107946552Y-138951271D01*
X108029814Y-138849814D01*
X108131602Y-138766280D01*
X108167009Y-138737222D01*
X108323534Y-138653557D01*
X108493373Y-138602037D01*
X108559558Y-138595518D01*
X108625740Y-138589000D01*
X108714260Y-138589000D01*
X108780442Y-138595518D01*
X108780442Y-138595518D01*
G37*
G36*
X111320442Y-138595518D02*
G01*
X111386627Y-138602037D01*
X111556466Y-138653557D01*
X111712991Y-138737222D01*
X111748398Y-138766280D01*
X111850186Y-138849814D01*
X111933448Y-138951271D01*
X111962778Y-138987009D01*
X112046443Y-139143534D01*
X112097963Y-139313373D01*
X112115359Y-139490000D01*
X112097963Y-139666627D01*
X112046443Y-139836466D01*
X111962778Y-139992991D01*
X111933448Y-140028729D01*
X111850186Y-140130186D01*
X111748729Y-140213448D01*
X111712991Y-140242778D01*
X111556466Y-140326443D01*
X111386627Y-140377963D01*
X111320443Y-140384481D01*
X111254260Y-140391000D01*
X111165740Y-140391000D01*
X111099557Y-140384481D01*
X111033373Y-140377963D01*
X110863534Y-140326443D01*
X110707009Y-140242778D01*
X110671271Y-140213448D01*
X110569814Y-140130186D01*
X110486552Y-140028729D01*
X110457222Y-139992991D01*
X110373557Y-139836466D01*
X110322037Y-139666627D01*
X110304641Y-139490000D01*
X110322037Y-139313373D01*
X110373557Y-139143534D01*
X110457222Y-138987009D01*
X110486552Y-138951271D01*
X110569814Y-138849814D01*
X110671602Y-138766280D01*
X110707009Y-138737222D01*
X110863534Y-138653557D01*
X111033373Y-138602037D01*
X111099558Y-138595518D01*
X111165740Y-138589000D01*
X111254260Y-138589000D01*
X111320442Y-138595518D01*
X111320442Y-138595518D01*
G37*
G36*
X113860442Y-138595518D02*
G01*
X113926627Y-138602037D01*
X114096466Y-138653557D01*
X114252991Y-138737222D01*
X114288398Y-138766280D01*
X114390186Y-138849814D01*
X114473448Y-138951271D01*
X114502778Y-138987009D01*
X114586443Y-139143534D01*
X114637963Y-139313373D01*
X114655359Y-139490000D01*
X114637963Y-139666627D01*
X114586443Y-139836466D01*
X114502778Y-139992991D01*
X114473448Y-140028729D01*
X114390186Y-140130186D01*
X114288729Y-140213448D01*
X114252991Y-140242778D01*
X114096466Y-140326443D01*
X113926627Y-140377963D01*
X113860443Y-140384481D01*
X113794260Y-140391000D01*
X113705740Y-140391000D01*
X113639557Y-140384481D01*
X113573373Y-140377963D01*
X113403534Y-140326443D01*
X113247009Y-140242778D01*
X113211271Y-140213448D01*
X113109814Y-140130186D01*
X113026552Y-140028729D01*
X112997222Y-139992991D01*
X112913557Y-139836466D01*
X112862037Y-139666627D01*
X112844641Y-139490000D01*
X112862037Y-139313373D01*
X112913557Y-139143534D01*
X112997222Y-138987009D01*
X113026552Y-138951271D01*
X113109814Y-138849814D01*
X113211602Y-138766280D01*
X113247009Y-138737222D01*
X113403534Y-138653557D01*
X113573373Y-138602037D01*
X113639558Y-138595518D01*
X113705740Y-138589000D01*
X113794260Y-138589000D01*
X113860442Y-138595518D01*
X113860442Y-138595518D01*
G37*
G36*
X116400442Y-138595518D02*
G01*
X116466627Y-138602037D01*
X116636466Y-138653557D01*
X116792991Y-138737222D01*
X116828398Y-138766280D01*
X116930186Y-138849814D01*
X117013448Y-138951271D01*
X117042778Y-138987009D01*
X117126443Y-139143534D01*
X117177963Y-139313373D01*
X117195359Y-139490000D01*
X117177963Y-139666627D01*
X117126443Y-139836466D01*
X117042778Y-139992991D01*
X117013448Y-140028729D01*
X116930186Y-140130186D01*
X116828729Y-140213448D01*
X116792991Y-140242778D01*
X116636466Y-140326443D01*
X116466627Y-140377963D01*
X116400443Y-140384481D01*
X116334260Y-140391000D01*
X116245740Y-140391000D01*
X116179557Y-140384481D01*
X116113373Y-140377963D01*
X115943534Y-140326443D01*
X115787009Y-140242778D01*
X115751271Y-140213448D01*
X115649814Y-140130186D01*
X115566552Y-140028729D01*
X115537222Y-139992991D01*
X115453557Y-139836466D01*
X115402037Y-139666627D01*
X115384641Y-139490000D01*
X115402037Y-139313373D01*
X115453557Y-139143534D01*
X115537222Y-138987009D01*
X115566552Y-138951271D01*
X115649814Y-138849814D01*
X115751602Y-138766280D01*
X115787009Y-138737222D01*
X115943534Y-138653557D01*
X116113373Y-138602037D01*
X116179558Y-138595518D01*
X116245740Y-138589000D01*
X116334260Y-138589000D01*
X116400442Y-138595518D01*
X116400442Y-138595518D01*
G37*
G36*
X118940442Y-138595518D02*
G01*
X119006627Y-138602037D01*
X119176466Y-138653557D01*
X119332991Y-138737222D01*
X119368398Y-138766280D01*
X119470186Y-138849814D01*
X119553448Y-138951271D01*
X119582778Y-138987009D01*
X119666443Y-139143534D01*
X119717963Y-139313373D01*
X119735359Y-139490000D01*
X119717963Y-139666627D01*
X119666443Y-139836466D01*
X119582778Y-139992991D01*
X119553448Y-140028729D01*
X119470186Y-140130186D01*
X119368729Y-140213448D01*
X119332991Y-140242778D01*
X119176466Y-140326443D01*
X119006627Y-140377963D01*
X118940443Y-140384481D01*
X118874260Y-140391000D01*
X118785740Y-140391000D01*
X118719557Y-140384481D01*
X118653373Y-140377963D01*
X118483534Y-140326443D01*
X118327009Y-140242778D01*
X118291271Y-140213448D01*
X118189814Y-140130186D01*
X118106552Y-140028729D01*
X118077222Y-139992991D01*
X117993557Y-139836466D01*
X117942037Y-139666627D01*
X117924641Y-139490000D01*
X117942037Y-139313373D01*
X117993557Y-139143534D01*
X118077222Y-138987009D01*
X118106552Y-138951271D01*
X118189814Y-138849814D01*
X118291602Y-138766280D01*
X118327009Y-138737222D01*
X118483534Y-138653557D01*
X118653373Y-138602037D01*
X118719558Y-138595518D01*
X118785740Y-138589000D01*
X118874260Y-138589000D01*
X118940442Y-138595518D01*
X118940442Y-138595518D01*
G37*
G36*
X105228674Y-134678465D02*
G01*
X105266367Y-134689899D01*
X105301103Y-134708466D01*
X105331548Y-134733452D01*
X105356534Y-134763897D01*
X105375101Y-134798633D01*
X105386535Y-134836326D01*
X105391000Y-134881661D01*
X105391000Y-135718339D01*
X105386535Y-135763674D01*
X105375101Y-135801367D01*
X105356534Y-135836103D01*
X105331548Y-135866548D01*
X105301103Y-135891534D01*
X105266367Y-135910101D01*
X105228674Y-135921535D01*
X105183339Y-135926000D01*
X104096661Y-135926000D01*
X104051326Y-135921535D01*
X104013633Y-135910101D01*
X103978897Y-135891534D01*
X103948452Y-135866548D01*
X103923466Y-135836103D01*
X103904899Y-135801367D01*
X103893465Y-135763674D01*
X103889000Y-135718339D01*
X103889000Y-134881661D01*
X103893465Y-134836326D01*
X103904899Y-134798633D01*
X103923466Y-134763897D01*
X103948452Y-134733452D01*
X103978897Y-134708466D01*
X104013633Y-134689899D01*
X104051326Y-134678465D01*
X104096661Y-134674000D01*
X105183339Y-134674000D01*
X105228674Y-134678465D01*
X105228674Y-134678465D01*
G37*
G36*
X108718674Y-134678465D02*
G01*
X108756367Y-134689899D01*
X108791103Y-134708466D01*
X108821548Y-134733452D01*
X108846534Y-134763897D01*
X108865101Y-134798633D01*
X108876535Y-134836326D01*
X108881000Y-134881661D01*
X108881000Y-135718339D01*
X108876535Y-135763674D01*
X108865101Y-135801367D01*
X108846534Y-135836103D01*
X108821548Y-135866548D01*
X108791103Y-135891534D01*
X108756367Y-135910101D01*
X108718674Y-135921535D01*
X108673339Y-135926000D01*
X107586661Y-135926000D01*
X107541326Y-135921535D01*
X107503633Y-135910101D01*
X107468897Y-135891534D01*
X107438452Y-135866548D01*
X107413466Y-135836103D01*
X107394899Y-135801367D01*
X107383465Y-135763674D01*
X107379000Y-135718339D01*
X107379000Y-134881661D01*
X107383465Y-134836326D01*
X107394899Y-134798633D01*
X107413466Y-134763897D01*
X107438452Y-134733452D01*
X107468897Y-134708466D01*
X107503633Y-134689899D01*
X107541326Y-134678465D01*
X107586661Y-134674000D01*
X108673339Y-134674000D01*
X108718674Y-134678465D01*
X108718674Y-134678465D01*
G37*
G36*
X123368674Y-134138465D02*
G01*
X123406367Y-134149899D01*
X123441103Y-134168466D01*
X123471548Y-134193452D01*
X123496534Y-134223897D01*
X123515101Y-134258633D01*
X123526535Y-134296326D01*
X123531000Y-134341661D01*
X123531000Y-135178339D01*
X123526535Y-135223674D01*
X123515101Y-135261367D01*
X123496534Y-135296103D01*
X123471548Y-135326548D01*
X123441103Y-135351534D01*
X123406367Y-135370101D01*
X123368674Y-135381535D01*
X123323339Y-135386000D01*
X122236661Y-135386000D01*
X122191326Y-135381535D01*
X122153633Y-135370101D01*
X122118897Y-135351534D01*
X122088452Y-135326548D01*
X122063466Y-135296103D01*
X122044899Y-135261367D01*
X122033465Y-135223674D01*
X122029000Y-135178339D01*
X122029000Y-134341661D01*
X122033465Y-134296326D01*
X122044899Y-134258633D01*
X122063466Y-134223897D01*
X122088452Y-134193452D01*
X122118897Y-134168466D01*
X122153633Y-134149899D01*
X122191326Y-134138465D01*
X122236661Y-134134000D01*
X123323339Y-134134000D01*
X123368674Y-134138465D01*
X123368674Y-134138465D01*
G37*
G36*
X95916000Y-134741000D02*
G01*
X93614000Y-134741000D01*
X93614000Y-133089000D01*
X95916000Y-133089000D01*
X95916000Y-134741000D01*
X95916000Y-134741000D01*
G37*
G36*
X91816000Y-134741000D02*
G01*
X89514000Y-134741000D01*
X89514000Y-133089000D01*
X91816000Y-133089000D01*
X91816000Y-134741000D01*
X91816000Y-134741000D01*
G37*
G36*
X105228674Y-132628465D02*
G01*
X105266367Y-132639899D01*
X105301103Y-132658466D01*
X105331548Y-132683452D01*
X105356534Y-132713897D01*
X105375101Y-132748633D01*
X105386535Y-132786326D01*
X105391000Y-132831661D01*
X105391000Y-133668339D01*
X105386535Y-133713674D01*
X105375101Y-133751367D01*
X105356534Y-133786103D01*
X105331548Y-133816548D01*
X105301103Y-133841534D01*
X105266367Y-133860101D01*
X105228674Y-133871535D01*
X105183339Y-133876000D01*
X104096661Y-133876000D01*
X104051326Y-133871535D01*
X104013633Y-133860101D01*
X103978897Y-133841534D01*
X103948452Y-133816548D01*
X103923466Y-133786103D01*
X103904899Y-133751367D01*
X103893465Y-133713674D01*
X103889000Y-133668339D01*
X103889000Y-132831661D01*
X103893465Y-132786326D01*
X103904899Y-132748633D01*
X103923466Y-132713897D01*
X103948452Y-132683452D01*
X103978897Y-132658466D01*
X104013633Y-132639899D01*
X104051326Y-132628465D01*
X104096661Y-132624000D01*
X105183339Y-132624000D01*
X105228674Y-132628465D01*
X105228674Y-132628465D01*
G37*
G36*
X108718674Y-132628465D02*
G01*
X108756367Y-132639899D01*
X108791103Y-132658466D01*
X108821548Y-132683452D01*
X108846534Y-132713897D01*
X108865101Y-132748633D01*
X108876535Y-132786326D01*
X108881000Y-132831661D01*
X108881000Y-133668339D01*
X108876535Y-133713674D01*
X108865101Y-133751367D01*
X108846534Y-133786103D01*
X108821548Y-133816548D01*
X108791103Y-133841534D01*
X108756367Y-133860101D01*
X108718674Y-133871535D01*
X108673339Y-133876000D01*
X107586661Y-133876000D01*
X107541326Y-133871535D01*
X107503633Y-133860101D01*
X107468897Y-133841534D01*
X107438452Y-133816548D01*
X107413466Y-133786103D01*
X107394899Y-133751367D01*
X107383465Y-133713674D01*
X107379000Y-133668339D01*
X107379000Y-132831661D01*
X107383465Y-132786326D01*
X107394899Y-132748633D01*
X107413466Y-132713897D01*
X107438452Y-132683452D01*
X107468897Y-132658466D01*
X107503633Y-132639899D01*
X107541326Y-132628465D01*
X107586661Y-132624000D01*
X108673339Y-132624000D01*
X108718674Y-132628465D01*
X108718674Y-132628465D01*
G37*
G36*
X129481000Y-133436000D02*
G01*
X127679000Y-133436000D01*
X127679000Y-132434000D01*
X129481000Y-132434000D01*
X129481000Y-133436000D01*
X129481000Y-133436000D01*
G37*
G36*
X123368674Y-132088465D02*
G01*
X123406367Y-132099899D01*
X123441103Y-132118466D01*
X123471548Y-132143452D01*
X123496534Y-132173897D01*
X123515101Y-132208633D01*
X123526535Y-132246326D01*
X123531000Y-132291661D01*
X123531000Y-133128339D01*
X123526535Y-133173674D01*
X123515101Y-133211367D01*
X123496534Y-133246103D01*
X123471548Y-133276548D01*
X123441103Y-133301534D01*
X123406367Y-133320101D01*
X123368674Y-133331535D01*
X123323339Y-133336000D01*
X122236661Y-133336000D01*
X122191326Y-133331535D01*
X122153633Y-133320101D01*
X122118897Y-133301534D01*
X122088452Y-133276548D01*
X122063466Y-133246103D01*
X122044899Y-133211367D01*
X122033465Y-133173674D01*
X122029000Y-133128339D01*
X122029000Y-132291661D01*
X122033465Y-132246326D01*
X122044899Y-132208633D01*
X122063466Y-132173897D01*
X122088452Y-132143452D01*
X122118897Y-132118466D01*
X122153633Y-132099899D01*
X122191326Y-132088465D01*
X122236661Y-132084000D01*
X123323339Y-132084000D01*
X123368674Y-132088465D01*
X123368674Y-132088465D01*
G37*
G36*
X115713642Y-130364781D02*
G01*
X115859414Y-130425162D01*
X115859416Y-130425163D01*
X115990608Y-130512822D01*
X116102178Y-130624392D01*
X116102759Y-130625262D01*
X116189838Y-130755586D01*
X116250219Y-130901358D01*
X116281000Y-131056107D01*
X116281000Y-131213893D01*
X116250219Y-131368642D01*
X116189838Y-131514414D01*
X116189837Y-131514416D01*
X116102178Y-131645608D01*
X115990608Y-131757178D01*
X115859416Y-131844837D01*
X115859415Y-131844838D01*
X115859414Y-131844838D01*
X115713642Y-131905219D01*
X115558893Y-131936000D01*
X115401107Y-131936000D01*
X115246358Y-131905219D01*
X115100586Y-131844838D01*
X115100585Y-131844838D01*
X115100584Y-131844837D01*
X114969392Y-131757178D01*
X114857822Y-131645608D01*
X114770163Y-131514416D01*
X114770162Y-131514414D01*
X114709781Y-131368642D01*
X114679000Y-131213893D01*
X114679000Y-131056107D01*
X114709781Y-130901358D01*
X114770162Y-130755586D01*
X114857241Y-130625262D01*
X114857822Y-130624392D01*
X114969392Y-130512822D01*
X115100584Y-130425163D01*
X115100586Y-130425162D01*
X115246358Y-130364781D01*
X115401107Y-130334000D01*
X115558893Y-130334000D01*
X115713642Y-130364781D01*
X115713642Y-130364781D01*
G37*
G36*
X109749928Y-130486764D02*
G01*
X109771009Y-130493160D01*
X109790445Y-130503548D01*
X109807476Y-130517524D01*
X109821452Y-130534555D01*
X109831840Y-130553991D01*
X109838236Y-130575072D01*
X109841000Y-130603140D01*
X109841000Y-131066860D01*
X109838236Y-131094928D01*
X109831840Y-131116009D01*
X109821452Y-131135445D01*
X109807476Y-131152476D01*
X109790445Y-131166452D01*
X109771009Y-131176840D01*
X109749928Y-131183236D01*
X109721860Y-131186000D01*
X107908140Y-131186000D01*
X107880072Y-131183236D01*
X107858991Y-131176840D01*
X107839555Y-131166452D01*
X107822524Y-131152476D01*
X107808548Y-131135445D01*
X107798160Y-131116009D01*
X107791764Y-131094928D01*
X107789000Y-131066860D01*
X107789000Y-130603140D01*
X107791764Y-130575072D01*
X107798160Y-130553991D01*
X107808548Y-130534555D01*
X107822524Y-130517524D01*
X107839555Y-130503548D01*
X107858991Y-130493160D01*
X107880072Y-130486764D01*
X107908140Y-130484000D01*
X109721860Y-130484000D01*
X109749928Y-130486764D01*
X109749928Y-130486764D01*
G37*
G36*
X104799928Y-130486764D02*
G01*
X104821009Y-130493160D01*
X104840445Y-130503548D01*
X104857476Y-130517524D01*
X104871452Y-130534555D01*
X104881840Y-130553991D01*
X104888236Y-130575072D01*
X104891000Y-130603140D01*
X104891000Y-131066860D01*
X104888236Y-131094928D01*
X104881840Y-131116009D01*
X104871452Y-131135445D01*
X104857476Y-131152476D01*
X104840445Y-131166452D01*
X104821009Y-131176840D01*
X104799928Y-131183236D01*
X104771860Y-131186000D01*
X102958140Y-131186000D01*
X102930072Y-131183236D01*
X102908991Y-131176840D01*
X102889555Y-131166452D01*
X102872524Y-131152476D01*
X102858548Y-131135445D01*
X102848160Y-131116009D01*
X102841764Y-131094928D01*
X102839000Y-131066860D01*
X102839000Y-130603140D01*
X102841764Y-130575072D01*
X102848160Y-130553991D01*
X102858548Y-130534555D01*
X102872524Y-130517524D01*
X102889555Y-130503548D01*
X102908991Y-130493160D01*
X102930072Y-130486764D01*
X102958140Y-130484000D01*
X104771860Y-130484000D01*
X104799928Y-130486764D01*
X104799928Y-130486764D01*
G37*
G36*
X123368674Y-129138465D02*
G01*
X123406367Y-129149899D01*
X123441103Y-129168466D01*
X123471548Y-129193452D01*
X123496534Y-129223897D01*
X123515101Y-129258633D01*
X123526535Y-129296326D01*
X123531000Y-129341661D01*
X123531000Y-130178339D01*
X123526535Y-130223674D01*
X123515101Y-130261367D01*
X123496534Y-130296103D01*
X123471548Y-130326548D01*
X123441103Y-130351534D01*
X123406367Y-130370101D01*
X123368674Y-130381535D01*
X123323339Y-130386000D01*
X122236661Y-130386000D01*
X122191326Y-130381535D01*
X122153633Y-130370101D01*
X122118897Y-130351534D01*
X122088452Y-130326548D01*
X122063466Y-130296103D01*
X122044899Y-130261367D01*
X122033465Y-130223674D01*
X122029000Y-130178339D01*
X122029000Y-129341661D01*
X122033465Y-129296326D01*
X122044899Y-129258633D01*
X122063466Y-129223897D01*
X122088452Y-129193452D01*
X122118897Y-129168466D01*
X122153633Y-129149899D01*
X122191326Y-129138465D01*
X122236661Y-129134000D01*
X123323339Y-129134000D01*
X123368674Y-129138465D01*
X123368674Y-129138465D01*
G37*
G36*
X134968674Y-129133465D02*
G01*
X135006367Y-129144899D01*
X135041103Y-129163466D01*
X135071548Y-129188452D01*
X135096534Y-129218897D01*
X135115101Y-129253633D01*
X135126535Y-129291326D01*
X135131000Y-129336661D01*
X135131000Y-130173339D01*
X135126535Y-130218674D01*
X135115101Y-130256367D01*
X135096534Y-130291103D01*
X135071548Y-130321548D01*
X135041103Y-130346534D01*
X135006367Y-130365101D01*
X134968674Y-130376535D01*
X134923339Y-130381000D01*
X133836661Y-130381000D01*
X133791326Y-130376535D01*
X133753633Y-130365101D01*
X133718897Y-130346534D01*
X133688452Y-130321548D01*
X133663466Y-130291103D01*
X133644899Y-130256367D01*
X133633465Y-130218674D01*
X133629000Y-130173339D01*
X133629000Y-129336661D01*
X133633465Y-129291326D01*
X133644899Y-129253633D01*
X133663466Y-129218897D01*
X133688452Y-129188452D01*
X133718897Y-129163466D01*
X133753633Y-129144899D01*
X133791326Y-129133465D01*
X133836661Y-129129000D01*
X134923339Y-129129000D01*
X134968674Y-129133465D01*
X134968674Y-129133465D01*
G37*
G36*
X95916000Y-130066000D02*
G01*
X93614000Y-130066000D01*
X93614000Y-128414000D01*
X95916000Y-128414000D01*
X95916000Y-130066000D01*
X95916000Y-130066000D01*
G37*
G36*
X91816000Y-130066000D02*
G01*
X89514000Y-130066000D01*
X89514000Y-128414000D01*
X91816000Y-128414000D01*
X91816000Y-130066000D01*
X91816000Y-130066000D01*
G37*
G36*
X129481000Y-130036000D02*
G01*
X127679000Y-130036000D01*
X127679000Y-129034000D01*
X129481000Y-129034000D01*
X129481000Y-130036000D01*
X129481000Y-130036000D01*
G37*
G36*
X109749928Y-129216764D02*
G01*
X109771009Y-129223160D01*
X109790445Y-129233548D01*
X109807476Y-129247524D01*
X109821452Y-129264555D01*
X109831840Y-129283991D01*
X109838236Y-129305072D01*
X109841000Y-129333140D01*
X109841000Y-129796860D01*
X109838236Y-129824928D01*
X109831840Y-129846009D01*
X109821452Y-129865445D01*
X109807476Y-129882476D01*
X109790445Y-129896452D01*
X109771009Y-129906840D01*
X109749928Y-129913236D01*
X109721860Y-129916000D01*
X107908140Y-129916000D01*
X107880072Y-129913236D01*
X107858991Y-129906840D01*
X107839555Y-129896452D01*
X107822524Y-129882476D01*
X107808548Y-129865445D01*
X107798160Y-129846009D01*
X107791764Y-129824928D01*
X107789000Y-129796860D01*
X107789000Y-129333140D01*
X107791764Y-129305072D01*
X107798160Y-129283991D01*
X107808548Y-129264555D01*
X107822524Y-129247524D01*
X107839555Y-129233548D01*
X107858991Y-129223160D01*
X107880072Y-129216764D01*
X107908140Y-129214000D01*
X109721860Y-129214000D01*
X109749928Y-129216764D01*
X109749928Y-129216764D01*
G37*
G36*
X104799928Y-129216764D02*
G01*
X104821009Y-129223160D01*
X104840445Y-129233548D01*
X104857476Y-129247524D01*
X104871452Y-129264555D01*
X104881840Y-129283991D01*
X104888236Y-129305072D01*
X104891000Y-129333140D01*
X104891000Y-129796860D01*
X104888236Y-129824928D01*
X104881840Y-129846009D01*
X104871452Y-129865445D01*
X104857476Y-129882476D01*
X104840445Y-129896452D01*
X104821009Y-129906840D01*
X104799928Y-129913236D01*
X104771860Y-129916000D01*
X102958140Y-129916000D01*
X102930072Y-129913236D01*
X102908991Y-129906840D01*
X102889555Y-129896452D01*
X102872524Y-129882476D01*
X102858548Y-129865445D01*
X102848160Y-129846009D01*
X102841764Y-129824928D01*
X102839000Y-129796860D01*
X102839000Y-129333140D01*
X102841764Y-129305072D01*
X102848160Y-129283991D01*
X102858548Y-129264555D01*
X102872524Y-129247524D01*
X102889555Y-129233548D01*
X102908991Y-129223160D01*
X102930072Y-129216764D01*
X102958140Y-129214000D01*
X104771860Y-129214000D01*
X104799928Y-129216764D01*
X104799928Y-129216764D01*
G37*
G36*
X100978674Y-127843465D02*
G01*
X101016367Y-127854899D01*
X101051103Y-127873466D01*
X101081548Y-127898452D01*
X101106534Y-127928897D01*
X101125101Y-127963633D01*
X101136535Y-128001326D01*
X101141000Y-128046661D01*
X101141000Y-128883339D01*
X101136535Y-128928674D01*
X101125101Y-128966367D01*
X101106534Y-129001103D01*
X101081548Y-129031548D01*
X101051103Y-129056534D01*
X101016367Y-129075101D01*
X100978674Y-129086535D01*
X100933339Y-129091000D01*
X99846661Y-129091000D01*
X99801326Y-129086535D01*
X99763633Y-129075101D01*
X99728897Y-129056534D01*
X99698452Y-129031548D01*
X99673466Y-129001103D01*
X99654899Y-128966367D01*
X99643465Y-128928674D01*
X99639000Y-128883339D01*
X99639000Y-128046661D01*
X99643465Y-128001326D01*
X99654899Y-127963633D01*
X99673466Y-127928897D01*
X99698452Y-127898452D01*
X99728897Y-127873466D01*
X99763633Y-127854899D01*
X99801326Y-127843465D01*
X99846661Y-127839000D01*
X100933339Y-127839000D01*
X100978674Y-127843465D01*
X100978674Y-127843465D01*
G37*
G36*
X109749928Y-127946764D02*
G01*
X109771009Y-127953160D01*
X109790445Y-127963548D01*
X109807476Y-127977524D01*
X109821452Y-127994555D01*
X109831840Y-128013991D01*
X109838236Y-128035072D01*
X109841000Y-128063140D01*
X109841000Y-128526860D01*
X109838236Y-128554928D01*
X109831840Y-128576009D01*
X109821452Y-128595445D01*
X109807476Y-128612476D01*
X109790445Y-128626452D01*
X109771009Y-128636840D01*
X109749928Y-128643236D01*
X109721860Y-128646000D01*
X107908140Y-128646000D01*
X107880072Y-128643236D01*
X107858991Y-128636840D01*
X107839555Y-128626452D01*
X107822524Y-128612476D01*
X107808548Y-128595445D01*
X107798160Y-128576009D01*
X107791764Y-128554928D01*
X107789000Y-128526860D01*
X107789000Y-128063140D01*
X107791764Y-128035072D01*
X107798160Y-128013991D01*
X107808548Y-127994555D01*
X107822524Y-127977524D01*
X107839555Y-127963548D01*
X107858991Y-127953160D01*
X107880072Y-127946764D01*
X107908140Y-127944000D01*
X109721860Y-127944000D01*
X109749928Y-127946764D01*
X109749928Y-127946764D01*
G37*
G36*
X104799928Y-127946764D02*
G01*
X104821009Y-127953160D01*
X104840445Y-127963548D01*
X104857476Y-127977524D01*
X104871452Y-127994555D01*
X104881840Y-128013991D01*
X104888236Y-128035072D01*
X104891000Y-128063140D01*
X104891000Y-128526860D01*
X104888236Y-128554928D01*
X104881840Y-128576009D01*
X104871452Y-128595445D01*
X104857476Y-128612476D01*
X104840445Y-128626452D01*
X104821009Y-128636840D01*
X104799928Y-128643236D01*
X104771860Y-128646000D01*
X102958140Y-128646000D01*
X102930072Y-128643236D01*
X102908991Y-128636840D01*
X102889555Y-128626452D01*
X102872524Y-128612476D01*
X102858548Y-128595445D01*
X102848160Y-128576009D01*
X102841764Y-128554928D01*
X102839000Y-128526860D01*
X102839000Y-128063140D01*
X102841764Y-128035072D01*
X102848160Y-128013991D01*
X102858548Y-127994555D01*
X102872524Y-127977524D01*
X102889555Y-127963548D01*
X102908991Y-127953160D01*
X102930072Y-127946764D01*
X102958140Y-127944000D01*
X104771860Y-127944000D01*
X104799928Y-127946764D01*
X104799928Y-127946764D01*
G37*
G36*
X123368674Y-127088465D02*
G01*
X123406367Y-127099899D01*
X123441103Y-127118466D01*
X123471548Y-127143452D01*
X123496534Y-127173897D01*
X123515101Y-127208633D01*
X123526535Y-127246326D01*
X123531000Y-127291661D01*
X123531000Y-128128339D01*
X123526535Y-128173674D01*
X123515101Y-128211367D01*
X123496534Y-128246103D01*
X123471548Y-128276548D01*
X123441103Y-128301534D01*
X123406367Y-128320101D01*
X123368674Y-128331535D01*
X123323339Y-128336000D01*
X122236661Y-128336000D01*
X122191326Y-128331535D01*
X122153633Y-128320101D01*
X122118897Y-128301534D01*
X122088452Y-128276548D01*
X122063466Y-128246103D01*
X122044899Y-128211367D01*
X122033465Y-128173674D01*
X122029000Y-128128339D01*
X122029000Y-127291661D01*
X122033465Y-127246326D01*
X122044899Y-127208633D01*
X122063466Y-127173897D01*
X122088452Y-127143452D01*
X122118897Y-127118466D01*
X122153633Y-127099899D01*
X122191326Y-127088465D01*
X122236661Y-127084000D01*
X123323339Y-127084000D01*
X123368674Y-127088465D01*
X123368674Y-127088465D01*
G37*
G36*
X134968674Y-127083465D02*
G01*
X135006367Y-127094899D01*
X135041103Y-127113466D01*
X135071548Y-127138452D01*
X135096534Y-127168897D01*
X135115101Y-127203633D01*
X135126535Y-127241326D01*
X135131000Y-127286661D01*
X135131000Y-128123339D01*
X135126535Y-128168674D01*
X135115101Y-128206367D01*
X135096534Y-128241103D01*
X135071548Y-128271548D01*
X135041103Y-128296534D01*
X135006367Y-128315101D01*
X134968674Y-128326535D01*
X134923339Y-128331000D01*
X133836661Y-128331000D01*
X133791326Y-128326535D01*
X133753633Y-128315101D01*
X133718897Y-128296534D01*
X133688452Y-128271548D01*
X133663466Y-128241103D01*
X133644899Y-128206367D01*
X133633465Y-128168674D01*
X133629000Y-128123339D01*
X133629000Y-127286661D01*
X133633465Y-127241326D01*
X133644899Y-127203633D01*
X133663466Y-127168897D01*
X133688452Y-127138452D01*
X133718897Y-127113466D01*
X133753633Y-127094899D01*
X133791326Y-127083465D01*
X133836661Y-127079000D01*
X134923339Y-127079000D01*
X134968674Y-127083465D01*
X134968674Y-127083465D01*
G37*
G36*
X109749928Y-126676764D02*
G01*
X109771009Y-126683160D01*
X109790445Y-126693548D01*
X109807476Y-126707524D01*
X109821452Y-126724555D01*
X109831840Y-126743991D01*
X109838236Y-126765072D01*
X109841000Y-126793140D01*
X109841000Y-127256860D01*
X109838236Y-127284928D01*
X109831840Y-127306009D01*
X109821452Y-127325445D01*
X109807476Y-127342476D01*
X109790445Y-127356452D01*
X109771009Y-127366840D01*
X109749928Y-127373236D01*
X109721860Y-127376000D01*
X107908140Y-127376000D01*
X107880072Y-127373236D01*
X107858991Y-127366840D01*
X107839555Y-127356452D01*
X107822524Y-127342476D01*
X107808548Y-127325445D01*
X107798160Y-127306009D01*
X107791764Y-127284928D01*
X107789000Y-127256860D01*
X107789000Y-126793140D01*
X107791764Y-126765072D01*
X107798160Y-126743991D01*
X107808548Y-126724555D01*
X107822524Y-126707524D01*
X107839555Y-126693548D01*
X107858991Y-126683160D01*
X107880072Y-126676764D01*
X107908140Y-126674000D01*
X109721860Y-126674000D01*
X109749928Y-126676764D01*
X109749928Y-126676764D01*
G37*
G36*
X104799928Y-126676764D02*
G01*
X104821009Y-126683160D01*
X104840445Y-126693548D01*
X104857476Y-126707524D01*
X104871452Y-126724555D01*
X104881840Y-126743991D01*
X104888236Y-126765072D01*
X104891000Y-126793140D01*
X104891000Y-127256860D01*
X104888236Y-127284928D01*
X104881840Y-127306009D01*
X104871452Y-127325445D01*
X104857476Y-127342476D01*
X104840445Y-127356452D01*
X104821009Y-127366840D01*
X104799928Y-127373236D01*
X104771860Y-127376000D01*
X102958140Y-127376000D01*
X102930072Y-127373236D01*
X102908991Y-127366840D01*
X102889555Y-127356452D01*
X102872524Y-127342476D01*
X102858548Y-127325445D01*
X102848160Y-127306009D01*
X102841764Y-127284928D01*
X102839000Y-127256860D01*
X102839000Y-126793140D01*
X102841764Y-126765072D01*
X102848160Y-126743991D01*
X102858548Y-126724555D01*
X102872524Y-126707524D01*
X102889555Y-126693548D01*
X102908991Y-126683160D01*
X102930072Y-126676764D01*
X102958140Y-126674000D01*
X104771860Y-126674000D01*
X104799928Y-126676764D01*
X104799928Y-126676764D01*
G37*
G36*
X100978674Y-125793465D02*
G01*
X101016367Y-125804899D01*
X101051103Y-125823466D01*
X101081548Y-125848452D01*
X101106534Y-125878897D01*
X101125101Y-125913633D01*
X101136535Y-125951326D01*
X101141000Y-125996661D01*
X101141000Y-126833339D01*
X101136535Y-126878674D01*
X101125101Y-126916367D01*
X101106534Y-126951103D01*
X101081548Y-126981548D01*
X101051103Y-127006534D01*
X101016367Y-127025101D01*
X100978674Y-127036535D01*
X100933339Y-127041000D01*
X99846661Y-127041000D01*
X99801326Y-127036535D01*
X99763633Y-127025101D01*
X99728897Y-127006534D01*
X99698452Y-126981548D01*
X99673466Y-126951103D01*
X99654899Y-126916367D01*
X99643465Y-126878674D01*
X99639000Y-126833339D01*
X99639000Y-125996661D01*
X99643465Y-125951326D01*
X99654899Y-125913633D01*
X99673466Y-125878897D01*
X99698452Y-125848452D01*
X99728897Y-125823466D01*
X99763633Y-125804899D01*
X99801326Y-125793465D01*
X99846661Y-125789000D01*
X100933339Y-125789000D01*
X100978674Y-125793465D01*
X100978674Y-125793465D01*
G37*
G36*
X115713642Y-125464781D02*
G01*
X115854532Y-125523140D01*
X115859416Y-125525163D01*
X115990608Y-125612822D01*
X116102178Y-125724392D01*
X116189837Y-125855584D01*
X116189838Y-125855586D01*
X116250219Y-126001358D01*
X116281000Y-126156107D01*
X116281000Y-126313893D01*
X116250219Y-126468642D01*
X116189838Y-126614414D01*
X116189837Y-126614416D01*
X116102178Y-126745608D01*
X115990608Y-126857178D01*
X115859416Y-126944837D01*
X115859415Y-126944838D01*
X115859414Y-126944838D01*
X115713642Y-127005219D01*
X115558893Y-127036000D01*
X115401107Y-127036000D01*
X115246358Y-127005219D01*
X115100586Y-126944838D01*
X115100585Y-126944838D01*
X115100584Y-126944837D01*
X114969392Y-126857178D01*
X114857822Y-126745608D01*
X114770163Y-126614416D01*
X114770162Y-126614414D01*
X114709781Y-126468642D01*
X114679000Y-126313893D01*
X114679000Y-126156107D01*
X114709781Y-126001358D01*
X114770162Y-125855586D01*
X114770163Y-125855584D01*
X114857822Y-125724392D01*
X114969392Y-125612822D01*
X115100584Y-125525163D01*
X115105468Y-125523140D01*
X115246358Y-125464781D01*
X115401107Y-125434000D01*
X115558893Y-125434000D01*
X115713642Y-125464781D01*
X115713642Y-125464781D01*
G37*
G36*
X128081000Y-126306000D02*
G01*
X127079000Y-126306000D01*
X127079000Y-125404000D01*
X128081000Y-125404000D01*
X128081000Y-126306000D01*
X128081000Y-126306000D01*
G37*
G36*
X109749928Y-125406764D02*
G01*
X109771009Y-125413160D01*
X109790445Y-125423548D01*
X109807476Y-125437524D01*
X109821452Y-125454555D01*
X109831840Y-125473991D01*
X109838236Y-125495072D01*
X109841000Y-125523140D01*
X109841000Y-125986860D01*
X109838236Y-126014928D01*
X109831840Y-126036009D01*
X109821452Y-126055445D01*
X109807476Y-126072476D01*
X109790445Y-126086452D01*
X109771009Y-126096840D01*
X109749928Y-126103236D01*
X109721860Y-126106000D01*
X107908140Y-126106000D01*
X107880072Y-126103236D01*
X107858991Y-126096840D01*
X107839555Y-126086452D01*
X107822524Y-126072476D01*
X107808548Y-126055445D01*
X107798160Y-126036009D01*
X107791764Y-126014928D01*
X107789000Y-125986860D01*
X107789000Y-125523140D01*
X107791764Y-125495072D01*
X107798160Y-125473991D01*
X107808548Y-125454555D01*
X107822524Y-125437524D01*
X107839555Y-125423548D01*
X107858991Y-125413160D01*
X107880072Y-125406764D01*
X107908140Y-125404000D01*
X109721860Y-125404000D01*
X109749928Y-125406764D01*
X109749928Y-125406764D01*
G37*
G36*
X104799928Y-125406764D02*
G01*
X104821009Y-125413160D01*
X104840445Y-125423548D01*
X104857476Y-125437524D01*
X104871452Y-125454555D01*
X104881840Y-125473991D01*
X104888236Y-125495072D01*
X104891000Y-125523140D01*
X104891000Y-125986860D01*
X104888236Y-126014928D01*
X104881840Y-126036009D01*
X104871452Y-126055445D01*
X104857476Y-126072476D01*
X104840445Y-126086452D01*
X104821009Y-126096840D01*
X104799928Y-126103236D01*
X104771860Y-126106000D01*
X102958140Y-126106000D01*
X102930072Y-126103236D01*
X102908991Y-126096840D01*
X102889555Y-126086452D01*
X102872524Y-126072476D01*
X102858548Y-126055445D01*
X102848160Y-126036009D01*
X102841764Y-126014928D01*
X102839000Y-125986860D01*
X102839000Y-125523140D01*
X102841764Y-125495072D01*
X102848160Y-125473991D01*
X102858548Y-125454555D01*
X102872524Y-125437524D01*
X102889555Y-125423548D01*
X102908991Y-125413160D01*
X102930072Y-125406764D01*
X102958140Y-125404000D01*
X104771860Y-125404000D01*
X104799928Y-125406764D01*
X104799928Y-125406764D01*
G37*
G36*
X95306195Y-116006604D02*
G01*
X95409171Y-116037842D01*
X95504075Y-116088570D01*
X95587262Y-116156838D01*
X95655530Y-116240025D01*
X95706258Y-116334929D01*
X95737496Y-116437905D01*
X95748043Y-116545000D01*
X95737496Y-116652095D01*
X95706258Y-116755071D01*
X95655530Y-116849975D01*
X95587262Y-116933162D01*
X95504075Y-117001430D01*
X95409171Y-117052158D01*
X95368208Y-117064584D01*
X95345569Y-117073961D01*
X95325195Y-117087575D01*
X95307868Y-117104902D01*
X95294254Y-117125276D01*
X95284877Y-117147915D01*
X95280097Y-117171949D01*
X95280097Y-117196453D01*
X95284878Y-117220486D01*
X95294255Y-117243125D01*
X95307869Y-117263499D01*
X95325196Y-117280826D01*
X95345570Y-117294440D01*
X95368209Y-117303817D01*
X95404494Y-117309199D01*
X95832800Y-117309199D01*
X95832800Y-124420799D01*
X95404487Y-124420799D01*
X95380101Y-124423201D01*
X95356652Y-124430314D01*
X95335041Y-124441865D01*
X95316099Y-124457410D01*
X95300554Y-124476352D01*
X95289003Y-124497963D01*
X95281890Y-124521412D01*
X95279488Y-124545798D01*
X95281890Y-124570184D01*
X95289003Y-124593633D01*
X95300554Y-124615244D01*
X95316099Y-124634186D01*
X95335041Y-124649731D01*
X95368201Y-124665414D01*
X95409171Y-124677842D01*
X95504075Y-124728570D01*
X95587262Y-124796838D01*
X95655530Y-124880025D01*
X95706258Y-124974929D01*
X95737496Y-125077905D01*
X95748043Y-125185000D01*
X95737496Y-125292095D01*
X95706258Y-125395071D01*
X95655530Y-125489975D01*
X95587262Y-125573162D01*
X95504075Y-125641430D01*
X95409171Y-125692158D01*
X95306195Y-125723396D01*
X95225938Y-125731300D01*
X94054662Y-125731300D01*
X93974405Y-125723396D01*
X93871429Y-125692158D01*
X93776525Y-125641430D01*
X93693338Y-125573162D01*
X93625070Y-125489975D01*
X93574342Y-125395071D01*
X93543104Y-125292095D01*
X93532557Y-125185000D01*
X93543104Y-125077905D01*
X93574342Y-124974929D01*
X93625070Y-124880025D01*
X93693338Y-124796838D01*
X93776525Y-124728570D01*
X93871429Y-124677842D01*
X93974405Y-124646604D01*
X94054662Y-124638700D01*
X94462801Y-124638700D01*
X94487187Y-124636298D01*
X94510636Y-124629185D01*
X94532247Y-124617634D01*
X94551189Y-124602089D01*
X94566734Y-124583147D01*
X94578285Y-124561536D01*
X94585398Y-124538087D01*
X94587800Y-124513701D01*
X94587800Y-124148311D01*
X94585398Y-124123925D01*
X94578285Y-124100476D01*
X94566734Y-124078865D01*
X94551189Y-124059923D01*
X94532247Y-124044378D01*
X94510636Y-124032827D01*
X94487187Y-124025714D01*
X94462801Y-124023312D01*
X94438415Y-124025714D01*
X94414966Y-124032827D01*
X94393356Y-124044378D01*
X94370091Y-124059923D01*
X94320866Y-124092814D01*
X94251492Y-124121549D01*
X94251491Y-124121549D01*
X94251489Y-124121550D01*
X94177846Y-124136199D01*
X94102754Y-124136199D01*
X94029111Y-124121550D01*
X94029109Y-124121549D01*
X94029108Y-124121549D01*
X93959734Y-124092814D01*
X93897299Y-124051096D01*
X93844203Y-123998000D01*
X93802485Y-123935565D01*
X93773750Y-123866191D01*
X93759100Y-123792544D01*
X93759100Y-123717454D01*
X93760742Y-123709199D01*
X93773749Y-123643810D01*
X93788989Y-123607017D01*
X93802485Y-123574433D01*
X93844203Y-123511998D01*
X93897299Y-123458902D01*
X93959734Y-123417184D01*
X94029108Y-123388449D01*
X94029109Y-123388449D01*
X94029111Y-123388448D01*
X94102754Y-123373799D01*
X94177846Y-123373799D01*
X94251489Y-123388448D01*
X94251491Y-123388449D01*
X94251492Y-123388449D01*
X94320866Y-123417184D01*
X94320869Y-123417186D01*
X94393356Y-123465620D01*
X94414967Y-123477171D01*
X94438416Y-123484284D01*
X94462802Y-123486686D01*
X94487188Y-123484284D01*
X94510637Y-123477171D01*
X94532247Y-123465619D01*
X94551189Y-123450074D01*
X94566734Y-123431132D01*
X94578285Y-123409521D01*
X94585398Y-123386072D01*
X94587800Y-123361687D01*
X94587800Y-118368313D01*
X94585398Y-118343927D01*
X94578285Y-118320478D01*
X94566734Y-118298867D01*
X94551189Y-118279925D01*
X94532247Y-118264380D01*
X94510636Y-118252829D01*
X94487187Y-118245716D01*
X94462801Y-118243314D01*
X94438415Y-118245716D01*
X94414966Y-118252829D01*
X94393356Y-118264380D01*
X94353860Y-118290770D01*
X94320866Y-118312816D01*
X94251492Y-118341551D01*
X94251491Y-118341551D01*
X94251489Y-118341552D01*
X94177846Y-118356201D01*
X94102754Y-118356201D01*
X94029111Y-118341552D01*
X94029109Y-118341551D01*
X94029108Y-118341551D01*
X93959734Y-118312816D01*
X93897299Y-118271098D01*
X93844203Y-118218002D01*
X93802485Y-118155567D01*
X93773750Y-118086193D01*
X93772188Y-118078339D01*
X93759100Y-118012547D01*
X93759100Y-117937455D01*
X93773749Y-117863812D01*
X93773750Y-117863809D01*
X93802485Y-117794435D01*
X93844203Y-117732000D01*
X93897299Y-117678904D01*
X93959734Y-117637186D01*
X94029108Y-117608451D01*
X94029109Y-117608451D01*
X94029111Y-117608450D01*
X94102754Y-117593801D01*
X94177846Y-117593801D01*
X94251489Y-117608450D01*
X94251491Y-117608451D01*
X94251492Y-117608451D01*
X94320866Y-117637186D01*
X94320869Y-117637188D01*
X94393356Y-117685622D01*
X94414967Y-117697173D01*
X94438416Y-117704286D01*
X94462802Y-117706688D01*
X94487188Y-117704286D01*
X94510637Y-117697173D01*
X94532247Y-117685621D01*
X94551189Y-117670076D01*
X94566734Y-117651134D01*
X94578285Y-117629523D01*
X94585398Y-117606074D01*
X94587800Y-117581689D01*
X94587800Y-117216299D01*
X94585398Y-117191913D01*
X94578285Y-117168464D01*
X94566734Y-117146853D01*
X94551189Y-117127911D01*
X94532247Y-117112366D01*
X94510636Y-117100815D01*
X94487187Y-117093702D01*
X94462801Y-117091300D01*
X94054662Y-117091300D01*
X93974405Y-117083396D01*
X93871429Y-117052158D01*
X93776525Y-117001430D01*
X93693338Y-116933162D01*
X93625070Y-116849975D01*
X93574342Y-116755071D01*
X93543104Y-116652095D01*
X93532557Y-116545000D01*
X93543104Y-116437905D01*
X93574342Y-116334929D01*
X93625070Y-116240025D01*
X93693338Y-116156838D01*
X93776525Y-116088570D01*
X93871429Y-116037842D01*
X93974405Y-116006604D01*
X94054662Y-115998700D01*
X95225938Y-115998700D01*
X95306195Y-116006604D01*
X95306195Y-116006604D01*
G37*
G36*
X90973794Y-124646604D02*
G01*
X91076770Y-124677842D01*
X91171674Y-124728570D01*
X91254861Y-124796838D01*
X91323129Y-124880025D01*
X91373857Y-124974929D01*
X91405095Y-125077905D01*
X91415642Y-125185000D01*
X91405095Y-125292095D01*
X91373857Y-125395071D01*
X91323129Y-125489975D01*
X91254861Y-125573162D01*
X91171674Y-125641430D01*
X91076770Y-125692158D01*
X90973794Y-125723396D01*
X90893537Y-125731300D01*
X90027061Y-125731300D01*
X89946804Y-125723396D01*
X89843828Y-125692158D01*
X89748924Y-125641430D01*
X89665737Y-125573162D01*
X89597469Y-125489975D01*
X89546741Y-125395071D01*
X89515503Y-125292095D01*
X89504956Y-125185000D01*
X89515503Y-125077905D01*
X89546741Y-124974929D01*
X89597469Y-124880025D01*
X89665737Y-124796838D01*
X89748924Y-124728570D01*
X89843828Y-124677842D01*
X89946804Y-124646604D01*
X90027061Y-124638700D01*
X90893537Y-124638700D01*
X90973794Y-124646604D01*
X90973794Y-124646604D01*
G37*
G36*
X123368674Y-124138465D02*
G01*
X123406367Y-124149899D01*
X123441103Y-124168466D01*
X123471548Y-124193452D01*
X123496534Y-124223897D01*
X123515101Y-124258633D01*
X123526535Y-124296326D01*
X123531000Y-124341661D01*
X123531000Y-125178339D01*
X123526535Y-125223674D01*
X123515101Y-125261367D01*
X123496534Y-125296103D01*
X123471548Y-125326548D01*
X123441103Y-125351534D01*
X123406367Y-125370101D01*
X123368674Y-125381535D01*
X123323339Y-125386000D01*
X122236661Y-125386000D01*
X122191326Y-125381535D01*
X122153633Y-125370101D01*
X122118897Y-125351534D01*
X122088452Y-125326548D01*
X122063466Y-125296103D01*
X122044899Y-125261367D01*
X122033465Y-125223674D01*
X122029000Y-125178339D01*
X122029000Y-124341661D01*
X122033465Y-124296326D01*
X122044899Y-124258633D01*
X122063466Y-124223897D01*
X122088452Y-124193452D01*
X122118897Y-124168466D01*
X122153633Y-124149899D01*
X122191326Y-124138465D01*
X122236661Y-124134000D01*
X123323339Y-124134000D01*
X123368674Y-124138465D01*
X123368674Y-124138465D01*
G37*
G36*
X130081000Y-125356000D02*
G01*
X129079000Y-125356000D01*
X129079000Y-124454000D01*
X130081000Y-124454000D01*
X130081000Y-125356000D01*
X130081000Y-125356000D01*
G37*
G36*
X109749928Y-124136764D02*
G01*
X109771009Y-124143160D01*
X109790445Y-124153548D01*
X109807476Y-124167524D01*
X109821452Y-124184555D01*
X109831840Y-124203991D01*
X109838236Y-124225072D01*
X109841000Y-124253140D01*
X109841000Y-124716860D01*
X109838236Y-124744928D01*
X109831840Y-124766009D01*
X109821452Y-124785445D01*
X109807476Y-124802476D01*
X109790445Y-124816452D01*
X109771009Y-124826840D01*
X109749928Y-124833236D01*
X109721860Y-124836000D01*
X107908140Y-124836000D01*
X107880072Y-124833236D01*
X107858991Y-124826840D01*
X107839555Y-124816452D01*
X107822524Y-124802476D01*
X107808548Y-124785445D01*
X107798160Y-124766009D01*
X107791764Y-124744928D01*
X107789000Y-124716860D01*
X107789000Y-124253140D01*
X107791764Y-124225072D01*
X107798160Y-124203991D01*
X107808548Y-124184555D01*
X107822524Y-124167524D01*
X107839555Y-124153548D01*
X107858991Y-124143160D01*
X107880072Y-124136764D01*
X107908140Y-124134000D01*
X109721860Y-124134000D01*
X109749928Y-124136764D01*
X109749928Y-124136764D01*
G37*
G36*
X104799928Y-124136764D02*
G01*
X104821009Y-124143160D01*
X104840445Y-124153548D01*
X104857476Y-124167524D01*
X104871452Y-124184555D01*
X104881840Y-124203991D01*
X104888236Y-124225072D01*
X104891000Y-124253140D01*
X104891000Y-124716860D01*
X104888236Y-124744928D01*
X104881840Y-124766009D01*
X104871452Y-124785445D01*
X104857476Y-124802476D01*
X104840445Y-124816452D01*
X104821009Y-124826840D01*
X104799928Y-124833236D01*
X104771860Y-124836000D01*
X102958140Y-124836000D01*
X102930072Y-124833236D01*
X102908991Y-124826840D01*
X102889555Y-124816452D01*
X102872524Y-124802476D01*
X102858548Y-124785445D01*
X102848160Y-124766009D01*
X102841764Y-124744928D01*
X102839000Y-124716860D01*
X102839000Y-124253140D01*
X102841764Y-124225072D01*
X102848160Y-124203991D01*
X102858548Y-124184555D01*
X102872524Y-124167524D01*
X102889555Y-124153548D01*
X102908991Y-124143160D01*
X102930072Y-124136764D01*
X102958140Y-124134000D01*
X104771860Y-124134000D01*
X104799928Y-124136764D01*
X104799928Y-124136764D01*
G37*
G36*
X100978674Y-123443465D02*
G01*
X101016367Y-123454899D01*
X101051103Y-123473466D01*
X101081548Y-123498452D01*
X101106534Y-123528897D01*
X101125101Y-123563633D01*
X101136535Y-123601326D01*
X101141000Y-123646661D01*
X101141000Y-124483339D01*
X101136535Y-124528674D01*
X101125101Y-124566367D01*
X101106534Y-124601103D01*
X101081548Y-124631548D01*
X101051103Y-124656534D01*
X101016367Y-124675101D01*
X100978674Y-124686535D01*
X100933339Y-124691000D01*
X99846661Y-124691000D01*
X99801326Y-124686535D01*
X99763633Y-124675101D01*
X99728897Y-124656534D01*
X99698452Y-124631548D01*
X99673466Y-124601103D01*
X99654899Y-124566367D01*
X99643465Y-124528674D01*
X99639000Y-124483339D01*
X99639000Y-123646661D01*
X99643465Y-123601326D01*
X99654899Y-123563633D01*
X99673466Y-123528897D01*
X99698452Y-123498452D01*
X99728897Y-123473466D01*
X99763633Y-123454899D01*
X99801326Y-123443465D01*
X99846661Y-123439000D01*
X100933339Y-123439000D01*
X100978674Y-123443465D01*
X100978674Y-123443465D01*
G37*
G36*
X128081000Y-124406000D02*
G01*
X127079000Y-124406000D01*
X127079000Y-123504000D01*
X128081000Y-123504000D01*
X128081000Y-124406000D01*
X128081000Y-124406000D01*
G37*
G36*
X109749928Y-122866764D02*
G01*
X109771009Y-122873160D01*
X109790445Y-122883548D01*
X109807476Y-122897524D01*
X109821452Y-122914555D01*
X109831840Y-122933991D01*
X109838236Y-122955072D01*
X109841000Y-122983140D01*
X109841000Y-123446860D01*
X109838236Y-123474928D01*
X109831840Y-123496009D01*
X109821452Y-123515445D01*
X109807476Y-123532476D01*
X109790445Y-123546452D01*
X109771009Y-123556840D01*
X109749928Y-123563236D01*
X109721860Y-123566000D01*
X107908140Y-123566000D01*
X107880072Y-123563236D01*
X107858991Y-123556840D01*
X107839555Y-123546452D01*
X107822524Y-123532476D01*
X107808548Y-123515445D01*
X107798160Y-123496009D01*
X107791764Y-123474928D01*
X107789000Y-123446860D01*
X107789000Y-122983140D01*
X107791764Y-122955072D01*
X107798160Y-122933991D01*
X107808548Y-122914555D01*
X107822524Y-122897524D01*
X107839555Y-122883548D01*
X107858991Y-122873160D01*
X107880072Y-122866764D01*
X107908140Y-122864000D01*
X109721860Y-122864000D01*
X109749928Y-122866764D01*
X109749928Y-122866764D01*
G37*
G36*
X104799928Y-122866764D02*
G01*
X104821009Y-122873160D01*
X104840445Y-122883548D01*
X104857476Y-122897524D01*
X104871452Y-122914555D01*
X104881840Y-122933991D01*
X104888236Y-122955072D01*
X104891000Y-122983140D01*
X104891000Y-123446860D01*
X104888236Y-123474928D01*
X104881840Y-123496009D01*
X104871452Y-123515445D01*
X104857476Y-123532476D01*
X104840445Y-123546452D01*
X104821009Y-123556840D01*
X104799928Y-123563236D01*
X104771860Y-123566000D01*
X102958140Y-123566000D01*
X102930072Y-123563236D01*
X102908991Y-123556840D01*
X102889555Y-123546452D01*
X102872524Y-123532476D01*
X102858548Y-123515445D01*
X102848160Y-123496009D01*
X102841764Y-123474928D01*
X102839000Y-123446860D01*
X102839000Y-122983140D01*
X102841764Y-122955072D01*
X102848160Y-122933991D01*
X102858548Y-122914555D01*
X102872524Y-122897524D01*
X102889555Y-122883548D01*
X102908991Y-122873160D01*
X102930072Y-122866764D01*
X102958140Y-122864000D01*
X104771860Y-122864000D01*
X104799928Y-122866764D01*
X104799928Y-122866764D01*
G37*
G36*
X123368674Y-122088465D02*
G01*
X123406367Y-122099899D01*
X123441103Y-122118466D01*
X123471548Y-122143452D01*
X123496534Y-122173897D01*
X123515101Y-122208633D01*
X123526535Y-122246326D01*
X123531000Y-122291661D01*
X123531000Y-123128339D01*
X123526535Y-123173674D01*
X123515101Y-123211367D01*
X123496534Y-123246103D01*
X123471548Y-123276548D01*
X123441103Y-123301534D01*
X123406367Y-123320101D01*
X123368674Y-123331535D01*
X123323339Y-123336000D01*
X122236661Y-123336000D01*
X122191326Y-123331535D01*
X122153633Y-123320101D01*
X122118897Y-123301534D01*
X122088452Y-123276548D01*
X122063466Y-123246103D01*
X122044899Y-123211367D01*
X122033465Y-123173674D01*
X122029000Y-123128339D01*
X122029000Y-122291661D01*
X122033465Y-122246326D01*
X122044899Y-122208633D01*
X122063466Y-122173897D01*
X122088452Y-122143452D01*
X122118897Y-122118466D01*
X122153633Y-122099899D01*
X122191326Y-122088465D01*
X122236661Y-122084000D01*
X123323339Y-122084000D01*
X123368674Y-122088465D01*
X123368674Y-122088465D01*
G37*
G36*
X145801000Y-123276000D02*
G01*
X144799000Y-123276000D01*
X144799000Y-121174000D01*
X145801000Y-121174000D01*
X145801000Y-123276000D01*
X145801000Y-123276000D01*
G37*
G36*
X155961000Y-123276000D02*
G01*
X154959000Y-123276000D01*
X154959000Y-121174000D01*
X155961000Y-121174000D01*
X155961000Y-123276000D01*
X155961000Y-123276000D01*
G37*
G36*
X157231000Y-123276000D02*
G01*
X156229000Y-123276000D01*
X156229000Y-121174000D01*
X157231000Y-121174000D01*
X157231000Y-123276000D01*
X157231000Y-123276000D01*
G37*
G36*
X158501000Y-123276000D02*
G01*
X157499000Y-123276000D01*
X157499000Y-121174000D01*
X158501000Y-121174000D01*
X158501000Y-123276000D01*
X158501000Y-123276000D01*
G37*
G36*
X153421000Y-123276000D02*
G01*
X152419000Y-123276000D01*
X152419000Y-121174000D01*
X153421000Y-121174000D01*
X153421000Y-123276000D01*
X153421000Y-123276000D01*
G37*
G36*
X152151000Y-123276000D02*
G01*
X151149000Y-123276000D01*
X151149000Y-121174000D01*
X152151000Y-121174000D01*
X152151000Y-123276000D01*
X152151000Y-123276000D01*
G37*
G36*
X150881000Y-123276000D02*
G01*
X149879000Y-123276000D01*
X149879000Y-121174000D01*
X150881000Y-121174000D01*
X150881000Y-123276000D01*
X150881000Y-123276000D01*
G37*
G36*
X149611000Y-123276000D02*
G01*
X148609000Y-123276000D01*
X148609000Y-121174000D01*
X149611000Y-121174000D01*
X149611000Y-123276000D01*
X149611000Y-123276000D01*
G37*
G36*
X148341000Y-123276000D02*
G01*
X147339000Y-123276000D01*
X147339000Y-121174000D01*
X148341000Y-121174000D01*
X148341000Y-123276000D01*
X148341000Y-123276000D01*
G37*
G36*
X147071000Y-123276000D02*
G01*
X146069000Y-123276000D01*
X146069000Y-121174000D01*
X147071000Y-121174000D01*
X147071000Y-123276000D01*
X147071000Y-123276000D01*
G37*
G36*
X141991000Y-123276000D02*
G01*
X140989000Y-123276000D01*
X140989000Y-121174000D01*
X141991000Y-121174000D01*
X141991000Y-123276000D01*
X141991000Y-123276000D01*
G37*
G36*
X143261000Y-123276000D02*
G01*
X142259000Y-123276000D01*
X142259000Y-121174000D01*
X143261000Y-121174000D01*
X143261000Y-123276000D01*
X143261000Y-123276000D01*
G37*
G36*
X144531000Y-123276000D02*
G01*
X143529000Y-123276000D01*
X143529000Y-121174000D01*
X144531000Y-121174000D01*
X144531000Y-123276000D01*
X144531000Y-123276000D01*
G37*
G36*
X154691000Y-123276000D02*
G01*
X153689000Y-123276000D01*
X153689000Y-121174000D01*
X154691000Y-121174000D01*
X154691000Y-123276000D01*
X154691000Y-123276000D01*
G37*
G36*
X100978674Y-121393465D02*
G01*
X101016367Y-121404899D01*
X101051103Y-121423466D01*
X101081548Y-121448452D01*
X101106534Y-121478897D01*
X101125101Y-121513633D01*
X101136535Y-121551326D01*
X101141000Y-121596661D01*
X101141000Y-122433339D01*
X101136535Y-122478674D01*
X101125101Y-122516367D01*
X101106534Y-122551103D01*
X101081548Y-122581548D01*
X101051103Y-122606534D01*
X101016367Y-122625101D01*
X100978674Y-122636535D01*
X100933339Y-122641000D01*
X99846661Y-122641000D01*
X99801326Y-122636535D01*
X99763633Y-122625101D01*
X99728897Y-122606534D01*
X99698452Y-122581548D01*
X99673466Y-122551103D01*
X99654899Y-122516367D01*
X99643465Y-122478674D01*
X99639000Y-122433339D01*
X99639000Y-121596661D01*
X99643465Y-121551326D01*
X99654899Y-121513633D01*
X99673466Y-121478897D01*
X99698452Y-121448452D01*
X99728897Y-121423466D01*
X99763633Y-121404899D01*
X99801326Y-121393465D01*
X99846661Y-121389000D01*
X100933339Y-121389000D01*
X100978674Y-121393465D01*
X100978674Y-121393465D01*
G37*
G36*
X109749928Y-121596764D02*
G01*
X109771009Y-121603160D01*
X109790445Y-121613548D01*
X109807476Y-121627524D01*
X109821452Y-121644555D01*
X109831840Y-121663991D01*
X109838236Y-121685072D01*
X109841000Y-121713140D01*
X109841000Y-122176860D01*
X109838236Y-122204928D01*
X109831840Y-122226009D01*
X109821452Y-122245445D01*
X109807476Y-122262476D01*
X109790445Y-122276452D01*
X109771009Y-122286840D01*
X109749928Y-122293236D01*
X109721860Y-122296000D01*
X107908140Y-122296000D01*
X107880072Y-122293236D01*
X107858991Y-122286840D01*
X107839555Y-122276452D01*
X107822524Y-122262476D01*
X107808548Y-122245445D01*
X107798160Y-122226009D01*
X107791764Y-122204928D01*
X107789000Y-122176860D01*
X107789000Y-121713140D01*
X107791764Y-121685072D01*
X107798160Y-121663991D01*
X107808548Y-121644555D01*
X107822524Y-121627524D01*
X107839555Y-121613548D01*
X107858991Y-121603160D01*
X107880072Y-121596764D01*
X107908140Y-121594000D01*
X109721860Y-121594000D01*
X109749928Y-121596764D01*
X109749928Y-121596764D01*
G37*
G36*
X104799928Y-121596764D02*
G01*
X104821009Y-121603160D01*
X104840445Y-121613548D01*
X104857476Y-121627524D01*
X104871452Y-121644555D01*
X104881840Y-121663991D01*
X104888236Y-121685072D01*
X104891000Y-121713140D01*
X104891000Y-122176860D01*
X104888236Y-122204928D01*
X104881840Y-122226009D01*
X104871452Y-122245445D01*
X104857476Y-122262476D01*
X104840445Y-122276452D01*
X104821009Y-122286840D01*
X104799928Y-122293236D01*
X104771860Y-122296000D01*
X102958140Y-122296000D01*
X102930072Y-122293236D01*
X102908991Y-122286840D01*
X102889555Y-122276452D01*
X102872524Y-122262476D01*
X102858548Y-122245445D01*
X102848160Y-122226009D01*
X102841764Y-122204928D01*
X102839000Y-122176860D01*
X102839000Y-121713140D01*
X102841764Y-121685072D01*
X102848160Y-121663991D01*
X102858548Y-121644555D01*
X102872524Y-121627524D01*
X102889555Y-121613548D01*
X102908991Y-121603160D01*
X102930072Y-121596764D01*
X102958140Y-121594000D01*
X104771860Y-121594000D01*
X104799928Y-121596764D01*
X104799928Y-121596764D01*
G37*
G36*
X129481000Y-120896000D02*
G01*
X127679000Y-120896000D01*
X127679000Y-119894000D01*
X129481000Y-119894000D01*
X129481000Y-120896000D01*
X129481000Y-120896000D01*
G37*
G36*
X117548674Y-119098465D02*
G01*
X117586367Y-119109899D01*
X117621103Y-119128466D01*
X117651548Y-119153452D01*
X117676534Y-119183897D01*
X117695101Y-119218633D01*
X117706535Y-119256326D01*
X117711000Y-119301661D01*
X117711000Y-120138339D01*
X117706535Y-120183674D01*
X117695101Y-120221367D01*
X117676534Y-120256103D01*
X117651548Y-120286548D01*
X117621103Y-120311534D01*
X117586367Y-120330101D01*
X117548674Y-120341535D01*
X117503339Y-120346000D01*
X116416661Y-120346000D01*
X116371326Y-120341535D01*
X116333633Y-120330101D01*
X116298897Y-120311534D01*
X116268452Y-120286548D01*
X116243466Y-120256103D01*
X116224899Y-120221367D01*
X116213465Y-120183674D01*
X116209000Y-120138339D01*
X116209000Y-119301661D01*
X116213465Y-119256326D01*
X116224899Y-119218633D01*
X116243466Y-119183897D01*
X116268452Y-119153452D01*
X116298897Y-119128466D01*
X116333633Y-119109899D01*
X116371326Y-119098465D01*
X116416661Y-119094000D01*
X117503339Y-119094000D01*
X117548674Y-119098465D01*
X117548674Y-119098465D01*
G37*
G36*
X123368674Y-119098465D02*
G01*
X123406367Y-119109899D01*
X123441103Y-119128466D01*
X123471548Y-119153452D01*
X123496534Y-119183897D01*
X123515101Y-119218633D01*
X123526535Y-119256326D01*
X123531000Y-119301661D01*
X123531000Y-120138339D01*
X123526535Y-120183674D01*
X123515101Y-120221367D01*
X123496534Y-120256103D01*
X123471548Y-120286548D01*
X123441103Y-120311534D01*
X123406367Y-120330101D01*
X123368674Y-120341535D01*
X123323339Y-120346000D01*
X122236661Y-120346000D01*
X122191326Y-120341535D01*
X122153633Y-120330101D01*
X122118897Y-120311534D01*
X122088452Y-120286548D01*
X122063466Y-120256103D01*
X122044899Y-120221367D01*
X122033465Y-120183674D01*
X122029000Y-120138339D01*
X122029000Y-119301661D01*
X122033465Y-119256326D01*
X122044899Y-119218633D01*
X122063466Y-119183897D01*
X122088452Y-119153452D01*
X122118897Y-119128466D01*
X122153633Y-119109899D01*
X122191326Y-119098465D01*
X122236661Y-119094000D01*
X123323339Y-119094000D01*
X123368674Y-119098465D01*
X123368674Y-119098465D01*
G37*
G36*
X134968674Y-119098465D02*
G01*
X135006367Y-119109899D01*
X135041103Y-119128466D01*
X135071548Y-119153452D01*
X135096534Y-119183897D01*
X135115101Y-119218633D01*
X135126535Y-119256326D01*
X135131000Y-119301661D01*
X135131000Y-120138339D01*
X135126535Y-120183674D01*
X135115101Y-120221367D01*
X135096534Y-120256103D01*
X135071548Y-120286548D01*
X135041103Y-120311534D01*
X135006367Y-120330101D01*
X134968674Y-120341535D01*
X134923339Y-120346000D01*
X133836661Y-120346000D01*
X133791326Y-120341535D01*
X133753633Y-120330101D01*
X133718897Y-120311534D01*
X133688452Y-120286548D01*
X133663466Y-120256103D01*
X133644899Y-120221367D01*
X133633465Y-120183674D01*
X133629000Y-120138339D01*
X133629000Y-119301661D01*
X133633465Y-119256326D01*
X133644899Y-119218633D01*
X133663466Y-119183897D01*
X133688452Y-119153452D01*
X133718897Y-119128466D01*
X133753633Y-119109899D01*
X133791326Y-119098465D01*
X133836661Y-119094000D01*
X134923339Y-119094000D01*
X134968674Y-119098465D01*
X134968674Y-119098465D01*
G37*
G36*
X109308674Y-119093465D02*
G01*
X109346367Y-119104899D01*
X109381103Y-119123466D01*
X109411548Y-119148452D01*
X109436534Y-119178897D01*
X109455101Y-119213633D01*
X109466535Y-119251326D01*
X109471000Y-119296661D01*
X109471000Y-120133339D01*
X109466535Y-120178674D01*
X109455101Y-120216367D01*
X109436534Y-120251103D01*
X109411548Y-120281548D01*
X109381103Y-120306534D01*
X109346367Y-120325101D01*
X109308674Y-120336535D01*
X109263339Y-120341000D01*
X108176661Y-120341000D01*
X108131326Y-120336535D01*
X108093633Y-120325101D01*
X108058897Y-120306534D01*
X108028452Y-120281548D01*
X108003466Y-120251103D01*
X107984899Y-120216367D01*
X107973465Y-120178674D01*
X107969000Y-120133339D01*
X107969000Y-119296661D01*
X107973465Y-119251326D01*
X107984899Y-119213633D01*
X108003466Y-119178897D01*
X108028452Y-119148452D01*
X108058897Y-119123466D01*
X108093633Y-119104899D01*
X108131326Y-119093465D01*
X108176661Y-119089000D01*
X109263339Y-119089000D01*
X109308674Y-119093465D01*
X109308674Y-119093465D01*
G37*
G36*
X100978674Y-119093465D02*
G01*
X101016367Y-119104899D01*
X101051103Y-119123466D01*
X101081548Y-119148452D01*
X101106534Y-119178897D01*
X101125101Y-119213633D01*
X101136535Y-119251326D01*
X101141000Y-119296661D01*
X101141000Y-120133339D01*
X101136535Y-120178674D01*
X101125101Y-120216367D01*
X101106534Y-120251103D01*
X101081548Y-120281548D01*
X101051103Y-120306534D01*
X101016367Y-120325101D01*
X100978674Y-120336535D01*
X100933339Y-120341000D01*
X99846661Y-120341000D01*
X99801326Y-120336535D01*
X99763633Y-120325101D01*
X99728897Y-120306534D01*
X99698452Y-120281548D01*
X99673466Y-120251103D01*
X99654899Y-120216367D01*
X99643465Y-120178674D01*
X99639000Y-120133339D01*
X99639000Y-119296661D01*
X99643465Y-119251326D01*
X99654899Y-119213633D01*
X99673466Y-119178897D01*
X99698452Y-119148452D01*
X99728897Y-119123466D01*
X99763633Y-119104899D01*
X99801326Y-119093465D01*
X99846661Y-119089000D01*
X100933339Y-119089000D01*
X100978674Y-119093465D01*
X100978674Y-119093465D01*
G37*
G36*
X105058674Y-119088465D02*
G01*
X105096367Y-119099899D01*
X105131103Y-119118466D01*
X105161548Y-119143452D01*
X105186534Y-119173897D01*
X105205101Y-119208633D01*
X105216535Y-119246326D01*
X105221000Y-119291661D01*
X105221000Y-120128339D01*
X105216535Y-120173674D01*
X105205101Y-120211367D01*
X105186534Y-120246103D01*
X105161548Y-120276548D01*
X105131103Y-120301534D01*
X105096367Y-120320101D01*
X105058674Y-120331535D01*
X105013339Y-120336000D01*
X103926661Y-120336000D01*
X103881326Y-120331535D01*
X103843633Y-120320101D01*
X103808897Y-120301534D01*
X103778452Y-120276548D01*
X103753466Y-120246103D01*
X103734899Y-120211367D01*
X103723465Y-120173674D01*
X103719000Y-120128339D01*
X103719000Y-119291661D01*
X103723465Y-119246326D01*
X103734899Y-119208633D01*
X103753466Y-119173897D01*
X103778452Y-119143452D01*
X103808897Y-119118466D01*
X103843633Y-119099899D01*
X103881326Y-119088465D01*
X103926661Y-119084000D01*
X105013339Y-119084000D01*
X105058674Y-119088465D01*
X105058674Y-119088465D01*
G37*
G36*
X141541000Y-119941000D02*
G01*
X139439000Y-119941000D01*
X139439000Y-118939000D01*
X141541000Y-118939000D01*
X141541000Y-119941000D01*
X141541000Y-119941000D01*
G37*
G36*
X113222199Y-117489954D02*
G01*
X113234450Y-117490556D01*
X113252869Y-117490556D01*
X113275149Y-117492750D01*
X113359233Y-117509476D01*
X113380660Y-117515976D01*
X113459858Y-117548780D01*
X113465303Y-117551691D01*
X113465309Y-117551693D01*
X113474169Y-117556429D01*
X113474173Y-117556432D01*
X113479614Y-117559340D01*
X113550899Y-117606971D01*
X113568204Y-117621172D01*
X113628828Y-117681796D01*
X113643029Y-117699101D01*
X113690660Y-117770386D01*
X113693568Y-117775827D01*
X113693571Y-117775831D01*
X113698307Y-117784691D01*
X113698309Y-117784697D01*
X113701220Y-117790142D01*
X113734024Y-117869340D01*
X113740524Y-117890767D01*
X113757250Y-117974851D01*
X113759444Y-117997131D01*
X113759444Y-118015550D01*
X113760046Y-118027801D01*
X113761852Y-118046139D01*
X113761852Y-118533860D01*
X113760263Y-118549999D01*
X113757348Y-118559608D01*
X113752610Y-118568472D01*
X113746237Y-118576237D01*
X113733794Y-118586448D01*
X113723425Y-118593378D01*
X113706098Y-118610705D01*
X113692485Y-118631080D01*
X113683109Y-118653720D01*
X113678329Y-118677753D01*
X113678330Y-118702257D01*
X113683112Y-118726290D01*
X113692490Y-118748929D01*
X113706105Y-118769302D01*
X113723432Y-118786629D01*
X113733802Y-118793558D01*
X113746237Y-118803763D01*
X113752610Y-118811528D01*
X113757348Y-118820392D01*
X113760263Y-118830001D01*
X113761852Y-118846140D01*
X113761852Y-119333862D01*
X113760046Y-119352199D01*
X113759444Y-119364450D01*
X113759444Y-119382869D01*
X113757250Y-119405149D01*
X113740524Y-119489233D01*
X113734024Y-119510660D01*
X113701220Y-119589858D01*
X113698309Y-119595303D01*
X113698307Y-119595309D01*
X113693571Y-119604169D01*
X113693568Y-119604173D01*
X113690660Y-119609614D01*
X113643029Y-119680899D01*
X113628828Y-119698204D01*
X113568204Y-119758828D01*
X113550899Y-119773029D01*
X113479614Y-119820660D01*
X113474173Y-119823568D01*
X113474169Y-119823571D01*
X113465309Y-119828307D01*
X113465303Y-119828309D01*
X113459858Y-119831220D01*
X113380660Y-119864024D01*
X113359233Y-119870524D01*
X113275149Y-119887250D01*
X113252869Y-119889444D01*
X113234450Y-119889444D01*
X113222199Y-119890046D01*
X113203862Y-119891852D01*
X112716138Y-119891852D01*
X112697801Y-119890046D01*
X112685550Y-119889444D01*
X112667131Y-119889444D01*
X112644851Y-119887250D01*
X112560767Y-119870524D01*
X112539340Y-119864024D01*
X112460142Y-119831220D01*
X112454697Y-119828309D01*
X112454691Y-119828307D01*
X112445831Y-119823571D01*
X112445827Y-119823568D01*
X112440386Y-119820660D01*
X112369101Y-119773029D01*
X112351796Y-119758828D01*
X112291172Y-119698204D01*
X112276971Y-119680899D01*
X112229340Y-119609614D01*
X112226432Y-119604173D01*
X112226429Y-119604169D01*
X112221693Y-119595309D01*
X112221691Y-119595303D01*
X112218780Y-119589858D01*
X112185976Y-119510660D01*
X112179476Y-119489233D01*
X112162750Y-119405149D01*
X112160556Y-119382869D01*
X112160556Y-119364450D01*
X112159954Y-119352199D01*
X112158148Y-119333862D01*
X112158148Y-118846140D01*
X112159737Y-118830001D01*
X112162652Y-118820392D01*
X112167390Y-118811528D01*
X112173763Y-118803763D01*
X112186206Y-118793552D01*
X112196575Y-118786622D01*
X112213902Y-118769295D01*
X112227515Y-118748920D01*
X112236891Y-118726280D01*
X112241671Y-118702247D01*
X112241670Y-118677743D01*
X112236888Y-118653710D01*
X112227510Y-118631071D01*
X112213895Y-118610698D01*
X112196568Y-118593371D01*
X112186198Y-118586442D01*
X112173763Y-118576237D01*
X112167390Y-118568472D01*
X112162652Y-118559608D01*
X112159737Y-118549999D01*
X112158148Y-118533860D01*
X112158148Y-118046139D01*
X112159954Y-118027801D01*
X112160556Y-118015550D01*
X112160556Y-117997131D01*
X112162750Y-117974851D01*
X112179476Y-117890767D01*
X112185976Y-117869340D01*
X112218780Y-117790142D01*
X112221691Y-117784697D01*
X112221693Y-117784691D01*
X112226429Y-117775831D01*
X112226432Y-117775827D01*
X112229340Y-117770386D01*
X112276971Y-117699101D01*
X112291172Y-117681796D01*
X112351796Y-117621172D01*
X112369101Y-117606971D01*
X112440386Y-117559340D01*
X112445827Y-117556432D01*
X112445831Y-117556429D01*
X112454691Y-117551693D01*
X112454697Y-117551691D01*
X112460142Y-117548780D01*
X112539340Y-117515976D01*
X112560767Y-117509476D01*
X112644851Y-117492750D01*
X112667131Y-117490556D01*
X112685550Y-117490556D01*
X112697801Y-117489954D01*
X112716139Y-117488148D01*
X113203861Y-117488148D01*
X113222199Y-117489954D01*
X113222199Y-117489954D01*
G37*
G36*
X141541000Y-118671000D02*
G01*
X139439000Y-118671000D01*
X139439000Y-117669000D01*
X141541000Y-117669000D01*
X141541000Y-118671000D01*
X141541000Y-118671000D01*
G37*
G36*
X117548674Y-117048465D02*
G01*
X117586367Y-117059899D01*
X117621103Y-117078466D01*
X117651548Y-117103452D01*
X117676534Y-117133897D01*
X117695101Y-117168633D01*
X117706535Y-117206326D01*
X117711000Y-117251661D01*
X117711000Y-118088339D01*
X117706535Y-118133674D01*
X117695101Y-118171367D01*
X117676534Y-118206103D01*
X117651548Y-118236548D01*
X117621103Y-118261534D01*
X117586367Y-118280101D01*
X117548674Y-118291535D01*
X117503339Y-118296000D01*
X116416661Y-118296000D01*
X116371326Y-118291535D01*
X116333633Y-118280101D01*
X116298897Y-118261534D01*
X116268452Y-118236548D01*
X116243466Y-118206103D01*
X116224899Y-118171367D01*
X116213465Y-118133674D01*
X116209000Y-118088339D01*
X116209000Y-117251661D01*
X116213465Y-117206326D01*
X116224899Y-117168633D01*
X116243466Y-117133897D01*
X116268452Y-117103452D01*
X116298897Y-117078466D01*
X116333633Y-117059899D01*
X116371326Y-117048465D01*
X116416661Y-117044000D01*
X117503339Y-117044000D01*
X117548674Y-117048465D01*
X117548674Y-117048465D01*
G37*
G36*
X134968674Y-117048465D02*
G01*
X135006367Y-117059899D01*
X135041103Y-117078466D01*
X135071548Y-117103452D01*
X135096534Y-117133897D01*
X135115101Y-117168633D01*
X135126535Y-117206326D01*
X135131000Y-117251661D01*
X135131000Y-118088339D01*
X135126535Y-118133674D01*
X135115101Y-118171367D01*
X135096534Y-118206103D01*
X135071548Y-118236548D01*
X135041103Y-118261534D01*
X135006367Y-118280101D01*
X134968674Y-118291535D01*
X134923339Y-118296000D01*
X133836661Y-118296000D01*
X133791326Y-118291535D01*
X133753633Y-118280101D01*
X133718897Y-118261534D01*
X133688452Y-118236548D01*
X133663466Y-118206103D01*
X133644899Y-118171367D01*
X133633465Y-118133674D01*
X133629000Y-118088339D01*
X133629000Y-117251661D01*
X133633465Y-117206326D01*
X133644899Y-117168633D01*
X133663466Y-117133897D01*
X133688452Y-117103452D01*
X133718897Y-117078466D01*
X133753633Y-117059899D01*
X133791326Y-117048465D01*
X133836661Y-117044000D01*
X134923339Y-117044000D01*
X134968674Y-117048465D01*
X134968674Y-117048465D01*
G37*
G36*
X123368674Y-117048465D02*
G01*
X123406367Y-117059899D01*
X123441103Y-117078466D01*
X123471548Y-117103452D01*
X123496534Y-117133897D01*
X123515101Y-117168633D01*
X123526535Y-117206326D01*
X123531000Y-117251661D01*
X123531000Y-118088339D01*
X123526535Y-118133674D01*
X123515101Y-118171367D01*
X123496534Y-118206103D01*
X123471548Y-118236548D01*
X123441103Y-118261534D01*
X123406367Y-118280101D01*
X123368674Y-118291535D01*
X123323339Y-118296000D01*
X122236661Y-118296000D01*
X122191326Y-118291535D01*
X122153633Y-118280101D01*
X122118897Y-118261534D01*
X122088452Y-118236548D01*
X122063466Y-118206103D01*
X122044899Y-118171367D01*
X122033465Y-118133674D01*
X122029000Y-118088339D01*
X122029000Y-117251661D01*
X122033465Y-117206326D01*
X122044899Y-117168633D01*
X122063466Y-117133897D01*
X122088452Y-117103452D01*
X122118897Y-117078466D01*
X122153633Y-117059899D01*
X122191326Y-117048465D01*
X122236661Y-117044000D01*
X123323339Y-117044000D01*
X123368674Y-117048465D01*
X123368674Y-117048465D01*
G37*
G36*
X100978674Y-117043465D02*
G01*
X101016367Y-117054899D01*
X101051103Y-117073466D01*
X101081548Y-117098452D01*
X101106534Y-117128897D01*
X101125101Y-117163633D01*
X101136535Y-117201326D01*
X101141000Y-117246661D01*
X101141000Y-118083339D01*
X101136535Y-118128674D01*
X101125101Y-118166367D01*
X101106534Y-118201103D01*
X101081548Y-118231548D01*
X101051103Y-118256534D01*
X101016367Y-118275101D01*
X100978674Y-118286535D01*
X100933339Y-118291000D01*
X99846661Y-118291000D01*
X99801326Y-118286535D01*
X99763633Y-118275101D01*
X99728897Y-118256534D01*
X99698452Y-118231548D01*
X99673466Y-118201103D01*
X99654899Y-118166367D01*
X99643465Y-118128674D01*
X99639000Y-118083339D01*
X99639000Y-117246661D01*
X99643465Y-117201326D01*
X99654899Y-117163633D01*
X99673466Y-117128897D01*
X99698452Y-117098452D01*
X99728897Y-117073466D01*
X99763633Y-117054899D01*
X99801326Y-117043465D01*
X99846661Y-117039000D01*
X100933339Y-117039000D01*
X100978674Y-117043465D01*
X100978674Y-117043465D01*
G37*
G36*
X109308674Y-117043465D02*
G01*
X109346367Y-117054899D01*
X109381103Y-117073466D01*
X109411548Y-117098452D01*
X109436534Y-117128897D01*
X109455101Y-117163633D01*
X109466535Y-117201326D01*
X109471000Y-117246661D01*
X109471000Y-118083339D01*
X109466535Y-118128674D01*
X109455101Y-118166367D01*
X109436534Y-118201103D01*
X109411548Y-118231548D01*
X109381103Y-118256534D01*
X109346367Y-118275101D01*
X109308674Y-118286535D01*
X109263339Y-118291000D01*
X108176661Y-118291000D01*
X108131326Y-118286535D01*
X108093633Y-118275101D01*
X108058897Y-118256534D01*
X108028452Y-118231548D01*
X108003466Y-118201103D01*
X107984899Y-118166367D01*
X107973465Y-118128674D01*
X107969000Y-118083339D01*
X107969000Y-117246661D01*
X107973465Y-117201326D01*
X107984899Y-117163633D01*
X108003466Y-117128897D01*
X108028452Y-117098452D01*
X108058897Y-117073466D01*
X108093633Y-117054899D01*
X108131326Y-117043465D01*
X108176661Y-117039000D01*
X109263339Y-117039000D01*
X109308674Y-117043465D01*
X109308674Y-117043465D01*
G37*
G36*
X105058674Y-117038465D02*
G01*
X105096367Y-117049899D01*
X105131103Y-117068466D01*
X105161548Y-117093452D01*
X105186534Y-117123897D01*
X105205101Y-117158633D01*
X105216535Y-117196326D01*
X105221000Y-117241661D01*
X105221000Y-118078339D01*
X105216535Y-118123674D01*
X105205101Y-118161367D01*
X105186534Y-118196103D01*
X105161548Y-118226548D01*
X105131103Y-118251534D01*
X105096367Y-118270101D01*
X105058674Y-118281535D01*
X105013339Y-118286000D01*
X103926661Y-118286000D01*
X103881326Y-118281535D01*
X103843633Y-118270101D01*
X103808897Y-118251534D01*
X103778452Y-118226548D01*
X103753466Y-118196103D01*
X103734899Y-118161367D01*
X103723465Y-118123674D01*
X103719000Y-118078339D01*
X103719000Y-117241661D01*
X103723465Y-117196326D01*
X103734899Y-117158633D01*
X103753466Y-117123897D01*
X103778452Y-117093452D01*
X103808897Y-117068466D01*
X103843633Y-117049899D01*
X103881326Y-117038465D01*
X103926661Y-117034000D01*
X105013339Y-117034000D01*
X105058674Y-117038465D01*
X105058674Y-117038465D01*
G37*
G36*
X129481000Y-117496000D02*
G01*
X127679000Y-117496000D01*
X127679000Y-116494000D01*
X129481000Y-116494000D01*
X129481000Y-117496000D01*
X129481000Y-117496000D01*
G37*
G36*
X141541000Y-117401000D02*
G01*
X139439000Y-117401000D01*
X139439000Y-116399000D01*
X141541000Y-116399000D01*
X141541000Y-117401000D01*
X141541000Y-117401000D01*
G37*
G36*
X90973794Y-116006604D02*
G01*
X91076770Y-116037842D01*
X91171674Y-116088570D01*
X91254861Y-116156838D01*
X91323129Y-116240025D01*
X91373857Y-116334929D01*
X91405095Y-116437905D01*
X91415642Y-116545000D01*
X91405095Y-116652095D01*
X91373857Y-116755071D01*
X91323129Y-116849975D01*
X91254861Y-116933162D01*
X91171674Y-117001430D01*
X91076770Y-117052158D01*
X90973794Y-117083396D01*
X90893537Y-117091300D01*
X90027061Y-117091300D01*
X89946804Y-117083396D01*
X89843828Y-117052158D01*
X89748924Y-117001430D01*
X89665737Y-116933162D01*
X89597469Y-116849975D01*
X89546741Y-116755071D01*
X89515503Y-116652095D01*
X89504956Y-116545000D01*
X89515503Y-116437905D01*
X89546741Y-116334929D01*
X89597469Y-116240025D01*
X89665737Y-116156838D01*
X89748924Y-116088570D01*
X89843828Y-116037842D01*
X89946804Y-116006604D01*
X90027061Y-115998700D01*
X90893537Y-115998700D01*
X90973794Y-116006604D01*
X90973794Y-116006604D01*
G37*
G36*
X141541000Y-116131000D02*
G01*
X139439000Y-116131000D01*
X139439000Y-115129000D01*
X141541000Y-115129000D01*
X141541000Y-116131000D01*
X141541000Y-116131000D01*
G37*
G36*
X100958674Y-114463465D02*
G01*
X100996367Y-114474899D01*
X101031103Y-114493466D01*
X101061548Y-114518452D01*
X101086534Y-114548897D01*
X101105101Y-114583633D01*
X101116535Y-114621326D01*
X101121000Y-114666661D01*
X101121000Y-115503339D01*
X101116535Y-115548674D01*
X101105101Y-115586367D01*
X101086534Y-115621103D01*
X101061548Y-115651548D01*
X101031103Y-115676534D01*
X100996367Y-115695101D01*
X100958674Y-115706535D01*
X100913339Y-115711000D01*
X99826661Y-115711000D01*
X99781326Y-115706535D01*
X99743633Y-115695101D01*
X99708897Y-115676534D01*
X99678452Y-115651548D01*
X99653466Y-115621103D01*
X99634899Y-115586367D01*
X99623465Y-115548674D01*
X99619000Y-115503339D01*
X99619000Y-114666661D01*
X99623465Y-114621326D01*
X99634899Y-114583633D01*
X99653466Y-114548897D01*
X99678452Y-114518452D01*
X99708897Y-114493466D01*
X99743633Y-114474899D01*
X99781326Y-114463465D01*
X99826661Y-114459000D01*
X100913339Y-114459000D01*
X100958674Y-114463465D01*
X100958674Y-114463465D01*
G37*
G36*
X117745562Y-113923181D02*
G01*
X117780481Y-113933774D01*
X117812663Y-113950976D01*
X117840873Y-113974127D01*
X117864024Y-114002337D01*
X117881226Y-114034519D01*
X117891819Y-114069438D01*
X117896000Y-114111895D01*
X117896000Y-115253105D01*
X117891819Y-115295562D01*
X117881226Y-115330481D01*
X117864024Y-115362663D01*
X117840873Y-115390873D01*
X117812663Y-115414024D01*
X117780481Y-115431226D01*
X117745562Y-115441819D01*
X117703105Y-115446000D01*
X116236895Y-115446000D01*
X116194438Y-115441819D01*
X116159519Y-115431226D01*
X116127337Y-115414024D01*
X116099127Y-115390873D01*
X116075976Y-115362663D01*
X116058774Y-115330481D01*
X116048181Y-115295562D01*
X116044000Y-115253105D01*
X116044000Y-114111895D01*
X116048181Y-114069438D01*
X116058774Y-114034519D01*
X116075976Y-114002337D01*
X116099127Y-113974127D01*
X116127337Y-113950976D01*
X116159519Y-113933774D01*
X116194438Y-113923181D01*
X116236895Y-113919000D01*
X117703105Y-113919000D01*
X117745562Y-113923181D01*
X117745562Y-113923181D01*
G37*
G36*
X113745562Y-113923181D02*
G01*
X113780481Y-113933774D01*
X113812663Y-113950976D01*
X113840873Y-113974127D01*
X113864024Y-114002337D01*
X113881226Y-114034519D01*
X113891819Y-114069438D01*
X113896000Y-114111895D01*
X113896000Y-115253105D01*
X113891819Y-115295562D01*
X113881226Y-115330481D01*
X113864024Y-115362663D01*
X113840873Y-115390873D01*
X113812663Y-115414024D01*
X113780481Y-115431226D01*
X113745562Y-115441819D01*
X113703105Y-115446000D01*
X112236895Y-115446000D01*
X112194438Y-115441819D01*
X112159519Y-115431226D01*
X112127337Y-115414024D01*
X112099127Y-115390873D01*
X112075976Y-115362663D01*
X112058774Y-115330481D01*
X112048181Y-115295562D01*
X112044000Y-115253105D01*
X112044000Y-114111895D01*
X112048181Y-114069438D01*
X112058774Y-114034519D01*
X112075976Y-114002337D01*
X112099127Y-113974127D01*
X112127337Y-113950976D01*
X112159519Y-113933774D01*
X112194438Y-113923181D01*
X112236895Y-113919000D01*
X113703105Y-113919000D01*
X113745562Y-113923181D01*
X113745562Y-113923181D01*
G37*
G36*
X104799928Y-114731764D02*
G01*
X104821009Y-114738160D01*
X104840445Y-114748548D01*
X104857476Y-114762524D01*
X104871452Y-114779555D01*
X104881840Y-114798991D01*
X104888236Y-114820072D01*
X104891000Y-114848140D01*
X104891000Y-115311860D01*
X104888236Y-115339928D01*
X104881840Y-115361009D01*
X104871452Y-115380445D01*
X104857476Y-115397476D01*
X104840445Y-115411452D01*
X104821009Y-115421840D01*
X104799928Y-115428236D01*
X104771860Y-115431000D01*
X102958140Y-115431000D01*
X102930072Y-115428236D01*
X102908991Y-115421840D01*
X102889555Y-115411452D01*
X102872524Y-115397476D01*
X102858548Y-115380445D01*
X102848160Y-115361009D01*
X102841764Y-115339928D01*
X102839000Y-115311860D01*
X102839000Y-114848140D01*
X102841764Y-114820072D01*
X102848160Y-114798991D01*
X102858548Y-114779555D01*
X102872524Y-114762524D01*
X102889555Y-114748548D01*
X102908991Y-114738160D01*
X102930072Y-114731764D01*
X102958140Y-114729000D01*
X104771860Y-114729000D01*
X104799928Y-114731764D01*
X104799928Y-114731764D01*
G37*
G36*
X109749928Y-114731764D02*
G01*
X109771009Y-114738160D01*
X109790445Y-114748548D01*
X109807476Y-114762524D01*
X109821452Y-114779555D01*
X109831840Y-114798991D01*
X109838236Y-114820072D01*
X109841000Y-114848140D01*
X109841000Y-115311860D01*
X109838236Y-115339928D01*
X109831840Y-115361009D01*
X109821452Y-115380445D01*
X109807476Y-115397476D01*
X109790445Y-115411452D01*
X109771009Y-115421840D01*
X109749928Y-115428236D01*
X109721860Y-115431000D01*
X107908140Y-115431000D01*
X107880072Y-115428236D01*
X107858991Y-115421840D01*
X107839555Y-115411452D01*
X107822524Y-115397476D01*
X107808548Y-115380445D01*
X107798160Y-115361009D01*
X107791764Y-115339928D01*
X107789000Y-115311860D01*
X107789000Y-114848140D01*
X107791764Y-114820072D01*
X107798160Y-114798991D01*
X107808548Y-114779555D01*
X107822524Y-114762524D01*
X107839555Y-114748548D01*
X107858991Y-114738160D01*
X107880072Y-114731764D01*
X107908140Y-114729000D01*
X109721860Y-114729000D01*
X109749928Y-114731764D01*
X109749928Y-114731764D01*
G37*
G36*
X153051000Y-115276000D02*
G01*
X147949000Y-115276000D01*
X147949000Y-110174000D01*
X153051000Y-110174000D01*
X153051000Y-115276000D01*
X153051000Y-115276000D01*
G37*
G36*
X141541000Y-114861000D02*
G01*
X139439000Y-114861000D01*
X139439000Y-113859000D01*
X141541000Y-113859000D01*
X141541000Y-114861000D01*
X141541000Y-114861000D01*
G37*
G36*
X123981000Y-114826000D02*
G01*
X121579000Y-114826000D01*
X121579000Y-111224000D01*
X123981000Y-111224000D01*
X123981000Y-114826000D01*
X123981000Y-114826000D01*
G37*
G36*
X109749928Y-113461764D02*
G01*
X109771009Y-113468160D01*
X109790445Y-113478548D01*
X109807476Y-113492524D01*
X109821452Y-113509555D01*
X109831840Y-113528991D01*
X109838236Y-113550072D01*
X109841000Y-113578140D01*
X109841000Y-114041860D01*
X109838236Y-114069928D01*
X109831840Y-114091009D01*
X109821452Y-114110445D01*
X109807476Y-114127476D01*
X109790445Y-114141452D01*
X109771009Y-114151840D01*
X109749928Y-114158236D01*
X109721860Y-114161000D01*
X107908140Y-114161000D01*
X107880072Y-114158236D01*
X107858991Y-114151840D01*
X107839555Y-114141452D01*
X107822524Y-114127476D01*
X107808548Y-114110445D01*
X107798160Y-114091009D01*
X107791764Y-114069928D01*
X107789000Y-114041860D01*
X107789000Y-113578140D01*
X107791764Y-113550072D01*
X107798160Y-113528991D01*
X107808548Y-113509555D01*
X107822524Y-113492524D01*
X107839555Y-113478548D01*
X107858991Y-113468160D01*
X107880072Y-113461764D01*
X107908140Y-113459000D01*
X109721860Y-113459000D01*
X109749928Y-113461764D01*
X109749928Y-113461764D01*
G37*
G36*
X104799928Y-113461764D02*
G01*
X104821009Y-113468160D01*
X104840445Y-113478548D01*
X104857476Y-113492524D01*
X104871452Y-113509555D01*
X104881840Y-113528991D01*
X104888236Y-113550072D01*
X104891000Y-113578140D01*
X104891000Y-114041860D01*
X104888236Y-114069928D01*
X104881840Y-114091009D01*
X104871452Y-114110445D01*
X104857476Y-114127476D01*
X104840445Y-114141452D01*
X104821009Y-114151840D01*
X104799928Y-114158236D01*
X104771860Y-114161000D01*
X102958140Y-114161000D01*
X102930072Y-114158236D01*
X102908991Y-114151840D01*
X102889555Y-114141452D01*
X102872524Y-114127476D01*
X102858548Y-114110445D01*
X102848160Y-114091009D01*
X102841764Y-114069928D01*
X102839000Y-114041860D01*
X102839000Y-113578140D01*
X102841764Y-113550072D01*
X102848160Y-113528991D01*
X102858548Y-113509555D01*
X102872524Y-113492524D01*
X102889555Y-113478548D01*
X102908991Y-113468160D01*
X102930072Y-113461764D01*
X102958140Y-113459000D01*
X104771860Y-113459000D01*
X104799928Y-113461764D01*
X104799928Y-113461764D01*
G37*
G36*
X100958674Y-112413465D02*
G01*
X100996367Y-112424899D01*
X101031103Y-112443466D01*
X101061548Y-112468452D01*
X101086534Y-112498897D01*
X101105101Y-112533633D01*
X101116535Y-112571326D01*
X101121000Y-112616661D01*
X101121000Y-113453339D01*
X101116535Y-113498674D01*
X101105101Y-113536367D01*
X101086534Y-113571103D01*
X101061548Y-113601548D01*
X101031103Y-113626534D01*
X100996367Y-113645101D01*
X100958674Y-113656535D01*
X100913339Y-113661000D01*
X99826661Y-113661000D01*
X99781326Y-113656535D01*
X99743633Y-113645101D01*
X99708897Y-113626534D01*
X99678452Y-113601548D01*
X99653466Y-113571103D01*
X99634899Y-113536367D01*
X99623465Y-113498674D01*
X99619000Y-113453339D01*
X99619000Y-112616661D01*
X99623465Y-112571326D01*
X99634899Y-112533633D01*
X99653466Y-112498897D01*
X99678452Y-112468452D01*
X99708897Y-112443466D01*
X99743633Y-112424899D01*
X99781326Y-112413465D01*
X99826661Y-112409000D01*
X100913339Y-112409000D01*
X100958674Y-112413465D01*
X100958674Y-112413465D01*
G37*
G36*
X128081000Y-113636000D02*
G01*
X127079000Y-113636000D01*
X127079000Y-112734000D01*
X128081000Y-112734000D01*
X128081000Y-113636000D01*
X128081000Y-113636000D01*
G37*
G36*
X141541000Y-113591000D02*
G01*
X139439000Y-113591000D01*
X139439000Y-112589000D01*
X141541000Y-112589000D01*
X141541000Y-113591000D01*
X141541000Y-113591000D01*
G37*
G36*
X95911000Y-113341000D02*
G01*
X93609000Y-113341000D01*
X93609000Y-111689000D01*
X95911000Y-111689000D01*
X95911000Y-113341000D01*
X95911000Y-113341000D01*
G37*
G36*
X91811000Y-113341000D02*
G01*
X89509000Y-113341000D01*
X89509000Y-111689000D01*
X91811000Y-111689000D01*
X91811000Y-113341000D01*
X91811000Y-113341000D01*
G37*
G36*
X109749928Y-112191764D02*
G01*
X109771009Y-112198160D01*
X109790445Y-112208548D01*
X109807476Y-112222524D01*
X109821452Y-112239555D01*
X109831840Y-112258991D01*
X109838236Y-112280072D01*
X109841000Y-112308140D01*
X109841000Y-112771860D01*
X109838236Y-112799928D01*
X109831840Y-112821009D01*
X109821452Y-112840445D01*
X109807476Y-112857476D01*
X109790445Y-112871452D01*
X109771009Y-112881840D01*
X109749928Y-112888236D01*
X109721860Y-112891000D01*
X107908140Y-112891000D01*
X107880072Y-112888236D01*
X107858991Y-112881840D01*
X107839555Y-112871452D01*
X107822524Y-112857476D01*
X107808548Y-112840445D01*
X107798160Y-112821009D01*
X107791764Y-112799928D01*
X107789000Y-112771860D01*
X107789000Y-112308140D01*
X107791764Y-112280072D01*
X107798160Y-112258991D01*
X107808548Y-112239555D01*
X107822524Y-112222524D01*
X107839555Y-112208548D01*
X107858991Y-112198160D01*
X107880072Y-112191764D01*
X107908140Y-112189000D01*
X109721860Y-112189000D01*
X109749928Y-112191764D01*
X109749928Y-112191764D01*
G37*
G36*
X104799928Y-112191764D02*
G01*
X104821009Y-112198160D01*
X104840445Y-112208548D01*
X104857476Y-112222524D01*
X104871452Y-112239555D01*
X104881840Y-112258991D01*
X104888236Y-112280072D01*
X104891000Y-112308140D01*
X104891000Y-112771860D01*
X104888236Y-112799928D01*
X104881840Y-112821009D01*
X104871452Y-112840445D01*
X104857476Y-112857476D01*
X104840445Y-112871452D01*
X104821009Y-112881840D01*
X104799928Y-112888236D01*
X104771860Y-112891000D01*
X102958140Y-112891000D01*
X102930072Y-112888236D01*
X102908991Y-112881840D01*
X102889555Y-112871452D01*
X102872524Y-112857476D01*
X102858548Y-112840445D01*
X102848160Y-112821009D01*
X102841764Y-112799928D01*
X102839000Y-112771860D01*
X102839000Y-112308140D01*
X102841764Y-112280072D01*
X102848160Y-112258991D01*
X102858548Y-112239555D01*
X102872524Y-112222524D01*
X102889555Y-112208548D01*
X102908991Y-112198160D01*
X102930072Y-112191764D01*
X102958140Y-112189000D01*
X104771860Y-112189000D01*
X104799928Y-112191764D01*
X104799928Y-112191764D01*
G37*
G36*
X130081000Y-112686000D02*
G01*
X129079000Y-112686000D01*
X129079000Y-111784000D01*
X130081000Y-111784000D01*
X130081000Y-112686000D01*
X130081000Y-112686000D01*
G37*
G36*
X117745562Y-110948181D02*
G01*
X117780481Y-110958774D01*
X117812663Y-110975976D01*
X117840873Y-110999127D01*
X117864024Y-111027337D01*
X117881226Y-111059519D01*
X117891819Y-111094438D01*
X117896000Y-111136895D01*
X117896000Y-112278105D01*
X117891819Y-112320562D01*
X117881226Y-112355481D01*
X117864024Y-112387663D01*
X117840873Y-112415873D01*
X117812663Y-112439024D01*
X117780481Y-112456226D01*
X117745562Y-112466819D01*
X117703105Y-112471000D01*
X116236895Y-112471000D01*
X116194438Y-112466819D01*
X116159519Y-112456226D01*
X116127337Y-112439024D01*
X116099127Y-112415873D01*
X116075976Y-112387663D01*
X116058774Y-112355481D01*
X116048181Y-112320562D01*
X116044000Y-112278105D01*
X116044000Y-111136895D01*
X116048181Y-111094438D01*
X116058774Y-111059519D01*
X116075976Y-111027337D01*
X116099127Y-110999127D01*
X116127337Y-110975976D01*
X116159519Y-110958774D01*
X116194438Y-110948181D01*
X116236895Y-110944000D01*
X117703105Y-110944000D01*
X117745562Y-110948181D01*
X117745562Y-110948181D01*
G37*
G36*
X113745562Y-110948181D02*
G01*
X113780481Y-110958774D01*
X113812663Y-110975976D01*
X113840873Y-110999127D01*
X113864024Y-111027337D01*
X113881226Y-111059519D01*
X113891819Y-111094438D01*
X113896000Y-111136895D01*
X113896000Y-112278105D01*
X113891819Y-112320562D01*
X113881226Y-112355481D01*
X113864024Y-112387663D01*
X113840873Y-112415873D01*
X113812663Y-112439024D01*
X113780481Y-112456226D01*
X113745562Y-112466819D01*
X113703105Y-112471000D01*
X112236895Y-112471000D01*
X112194438Y-112466819D01*
X112159519Y-112456226D01*
X112127337Y-112439024D01*
X112099127Y-112415873D01*
X112075976Y-112387663D01*
X112058774Y-112355481D01*
X112048181Y-112320562D01*
X112044000Y-112278105D01*
X112044000Y-111136895D01*
X112048181Y-111094438D01*
X112058774Y-111059519D01*
X112075976Y-111027337D01*
X112099127Y-110999127D01*
X112127337Y-110975976D01*
X112159519Y-110958774D01*
X112194438Y-110948181D01*
X112236895Y-110944000D01*
X113703105Y-110944000D01*
X113745562Y-110948181D01*
X113745562Y-110948181D01*
G37*
G36*
X141541000Y-112321000D02*
G01*
X139439000Y-112321000D01*
X139439000Y-111319000D01*
X141541000Y-111319000D01*
X141541000Y-112321000D01*
X141541000Y-112321000D01*
G37*
G36*
X128081000Y-111736000D02*
G01*
X127079000Y-111736000D01*
X127079000Y-110834000D01*
X128081000Y-110834000D01*
X128081000Y-111736000D01*
X128081000Y-111736000D01*
G37*
G36*
X109749928Y-110921764D02*
G01*
X109771009Y-110928160D01*
X109790445Y-110938548D01*
X109807476Y-110952524D01*
X109821452Y-110969555D01*
X109831840Y-110988991D01*
X109838236Y-111010072D01*
X109841000Y-111038140D01*
X109841000Y-111501860D01*
X109838236Y-111529928D01*
X109831840Y-111551009D01*
X109821452Y-111570445D01*
X109807476Y-111587476D01*
X109790445Y-111601452D01*
X109771009Y-111611840D01*
X109749928Y-111618236D01*
X109721860Y-111621000D01*
X107908140Y-111621000D01*
X107880072Y-111618236D01*
X107858991Y-111611840D01*
X107839555Y-111601452D01*
X107822524Y-111587476D01*
X107808548Y-111570445D01*
X107798160Y-111551009D01*
X107791764Y-111529928D01*
X107789000Y-111501860D01*
X107789000Y-111038140D01*
X107791764Y-111010072D01*
X107798160Y-110988991D01*
X107808548Y-110969555D01*
X107822524Y-110952524D01*
X107839555Y-110938548D01*
X107858991Y-110928160D01*
X107880072Y-110921764D01*
X107908140Y-110919000D01*
X109721860Y-110919000D01*
X109749928Y-110921764D01*
X109749928Y-110921764D01*
G37*
G36*
X104799928Y-110921764D02*
G01*
X104821009Y-110928160D01*
X104840445Y-110938548D01*
X104857476Y-110952524D01*
X104871452Y-110969555D01*
X104881840Y-110988991D01*
X104888236Y-111010072D01*
X104891000Y-111038140D01*
X104891000Y-111501860D01*
X104888236Y-111529928D01*
X104881840Y-111551009D01*
X104871452Y-111570445D01*
X104857476Y-111587476D01*
X104840445Y-111601452D01*
X104821009Y-111611840D01*
X104799928Y-111618236D01*
X104771860Y-111621000D01*
X102958140Y-111621000D01*
X102930072Y-111618236D01*
X102908991Y-111611840D01*
X102889555Y-111601452D01*
X102872524Y-111587476D01*
X102858548Y-111570445D01*
X102848160Y-111551009D01*
X102841764Y-111529928D01*
X102839000Y-111501860D01*
X102839000Y-111038140D01*
X102841764Y-111010072D01*
X102848160Y-110988991D01*
X102858548Y-110969555D01*
X102872524Y-110952524D01*
X102889555Y-110938548D01*
X102908991Y-110928160D01*
X102930072Y-110921764D01*
X102958140Y-110919000D01*
X104771860Y-110919000D01*
X104799928Y-110921764D01*
X104799928Y-110921764D01*
G37*
G36*
X141541000Y-111051000D02*
G01*
X139439000Y-111051000D01*
X139439000Y-110049000D01*
X141541000Y-110049000D01*
X141541000Y-111051000D01*
X141541000Y-111051000D01*
G37*
G36*
X141541000Y-109781000D02*
G01*
X139439000Y-109781000D01*
X139439000Y-108779000D01*
X141541000Y-108779000D01*
X141541000Y-109781000D01*
X141541000Y-109781000D01*
G37*
G36*
X123981000Y-109426000D02*
G01*
X121579000Y-109426000D01*
X121579000Y-105824000D01*
X123981000Y-105824000D01*
X123981000Y-109426000D01*
X123981000Y-109426000D01*
G37*
G36*
X101325562Y-107833181D02*
G01*
X101360481Y-107843774D01*
X101392663Y-107860976D01*
X101420873Y-107884127D01*
X101444024Y-107912337D01*
X101461226Y-107944519D01*
X101471819Y-107979438D01*
X101476000Y-108021895D01*
X101476000Y-109163105D01*
X101471819Y-109205562D01*
X101461226Y-109240481D01*
X101444024Y-109272663D01*
X101420873Y-109300873D01*
X101392663Y-109324024D01*
X101360481Y-109341226D01*
X101325562Y-109351819D01*
X101283105Y-109356000D01*
X99816895Y-109356000D01*
X99774438Y-109351819D01*
X99739519Y-109341226D01*
X99707337Y-109324024D01*
X99679127Y-109300873D01*
X99655976Y-109272663D01*
X99638774Y-109240481D01*
X99628181Y-109205562D01*
X99624000Y-109163105D01*
X99624000Y-108021895D01*
X99628181Y-107979438D01*
X99638774Y-107944519D01*
X99655976Y-107912337D01*
X99679127Y-107884127D01*
X99707337Y-107860976D01*
X99739519Y-107843774D01*
X99774438Y-107833181D01*
X99816895Y-107829000D01*
X101283105Y-107829000D01*
X101325562Y-107833181D01*
X101325562Y-107833181D01*
G37*
G36*
X141541000Y-108511000D02*
G01*
X139439000Y-108511000D01*
X139439000Y-107509000D01*
X141541000Y-107509000D01*
X141541000Y-108511000D01*
X141541000Y-108511000D01*
G37*
G36*
X105058674Y-107098465D02*
G01*
X105096367Y-107109899D01*
X105131103Y-107128466D01*
X105161548Y-107153452D01*
X105186534Y-107183897D01*
X105205101Y-107218633D01*
X105216535Y-107256326D01*
X105221000Y-107301661D01*
X105221000Y-108138339D01*
X105216535Y-108183674D01*
X105205101Y-108221367D01*
X105186534Y-108256103D01*
X105161548Y-108286548D01*
X105131103Y-108311534D01*
X105096367Y-108330101D01*
X105058674Y-108341535D01*
X105013339Y-108346000D01*
X103926661Y-108346000D01*
X103881326Y-108341535D01*
X103843633Y-108330101D01*
X103808897Y-108311534D01*
X103778452Y-108286548D01*
X103753466Y-108256103D01*
X103734899Y-108221367D01*
X103723465Y-108183674D01*
X103719000Y-108138339D01*
X103719000Y-107301661D01*
X103723465Y-107256326D01*
X103734899Y-107218633D01*
X103753466Y-107183897D01*
X103778452Y-107153452D01*
X103808897Y-107128466D01*
X103843633Y-107109899D01*
X103881326Y-107098465D01*
X103926661Y-107094000D01*
X105013339Y-107094000D01*
X105058674Y-107098465D01*
X105058674Y-107098465D01*
G37*
G36*
X117558674Y-107098465D02*
G01*
X117596367Y-107109899D01*
X117631103Y-107128466D01*
X117661548Y-107153452D01*
X117686534Y-107183897D01*
X117705101Y-107218633D01*
X117716535Y-107256326D01*
X117721000Y-107301661D01*
X117721000Y-108138339D01*
X117716535Y-108183674D01*
X117705101Y-108221367D01*
X117686534Y-108256103D01*
X117661548Y-108286548D01*
X117631103Y-108311534D01*
X117596367Y-108330101D01*
X117558674Y-108341535D01*
X117513339Y-108346000D01*
X116426661Y-108346000D01*
X116381326Y-108341535D01*
X116343633Y-108330101D01*
X116308897Y-108311534D01*
X116278452Y-108286548D01*
X116253466Y-108256103D01*
X116234899Y-108221367D01*
X116223465Y-108183674D01*
X116219000Y-108138339D01*
X116219000Y-107301661D01*
X116223465Y-107256326D01*
X116234899Y-107218633D01*
X116253466Y-107183897D01*
X116278452Y-107153452D01*
X116308897Y-107128466D01*
X116343633Y-107109899D01*
X116381326Y-107098465D01*
X116426661Y-107094000D01*
X117513339Y-107094000D01*
X117558674Y-107098465D01*
X117558674Y-107098465D01*
G37*
G36*
X113558674Y-107098465D02*
G01*
X113596367Y-107109899D01*
X113631103Y-107128466D01*
X113661548Y-107153452D01*
X113686534Y-107183897D01*
X113705101Y-107218633D01*
X113716535Y-107256326D01*
X113721000Y-107301661D01*
X113721000Y-108138339D01*
X113716535Y-108183674D01*
X113705101Y-108221367D01*
X113686534Y-108256103D01*
X113661548Y-108286548D01*
X113631103Y-108311534D01*
X113596367Y-108330101D01*
X113558674Y-108341535D01*
X113513339Y-108346000D01*
X112426661Y-108346000D01*
X112381326Y-108341535D01*
X112343633Y-108330101D01*
X112308897Y-108311534D01*
X112278452Y-108286548D01*
X112253466Y-108256103D01*
X112234899Y-108221367D01*
X112223465Y-108183674D01*
X112219000Y-108138339D01*
X112219000Y-107301661D01*
X112223465Y-107256326D01*
X112234899Y-107218633D01*
X112253466Y-107183897D01*
X112278452Y-107153452D01*
X112308897Y-107128466D01*
X112343633Y-107109899D01*
X112381326Y-107098465D01*
X112426661Y-107094000D01*
X113513339Y-107094000D01*
X113558674Y-107098465D01*
X113558674Y-107098465D01*
G37*
G36*
X109308674Y-107098465D02*
G01*
X109346367Y-107109899D01*
X109381103Y-107128466D01*
X109411548Y-107153452D01*
X109436534Y-107183897D01*
X109455101Y-107218633D01*
X109466535Y-107256326D01*
X109471000Y-107301661D01*
X109471000Y-108138339D01*
X109466535Y-108183674D01*
X109455101Y-108221367D01*
X109436534Y-108256103D01*
X109411548Y-108286548D01*
X109381103Y-108311534D01*
X109346367Y-108330101D01*
X109308674Y-108341535D01*
X109263339Y-108346000D01*
X108176661Y-108346000D01*
X108131326Y-108341535D01*
X108093633Y-108330101D01*
X108058897Y-108311534D01*
X108028452Y-108286548D01*
X108003466Y-108256103D01*
X107984899Y-108221367D01*
X107973465Y-108183674D01*
X107969000Y-108138339D01*
X107969000Y-107301661D01*
X107973465Y-107256326D01*
X107984899Y-107218633D01*
X108003466Y-107183897D01*
X108028452Y-107153452D01*
X108058897Y-107128466D01*
X108093633Y-107109899D01*
X108131326Y-107098465D01*
X108176661Y-107094000D01*
X109263339Y-107094000D01*
X109308674Y-107098465D01*
X109308674Y-107098465D01*
G37*
G36*
X128693875Y-106893897D02*
G01*
X128769890Y-106909017D01*
X128888364Y-106958091D01*
X128994988Y-107029335D01*
X129085665Y-107120012D01*
X129151562Y-107218633D01*
X129156910Y-107226638D01*
X129205983Y-107345110D01*
X129231000Y-107470881D01*
X129231000Y-107599119D01*
X129205983Y-107724890D01*
X129160727Y-107834148D01*
X129156909Y-107843364D01*
X129085665Y-107949988D01*
X128994988Y-108040665D01*
X128888364Y-108111909D01*
X128888363Y-108111910D01*
X128888362Y-108111910D01*
X128769890Y-108160983D01*
X128644119Y-108186000D01*
X128515881Y-108186000D01*
X128390110Y-108160983D01*
X128271638Y-108111910D01*
X128271637Y-108111910D01*
X128271636Y-108111909D01*
X128165012Y-108040665D01*
X128074335Y-107949988D01*
X128003091Y-107843364D01*
X127999274Y-107834148D01*
X127954017Y-107724890D01*
X127929000Y-107599119D01*
X127929000Y-107470881D01*
X127954017Y-107345110D01*
X128003090Y-107226638D01*
X128008439Y-107218633D01*
X128074335Y-107120012D01*
X128165012Y-107029335D01*
X128271636Y-106958091D01*
X128390110Y-106909017D01*
X128466125Y-106893897D01*
X128515881Y-106884000D01*
X128644119Y-106884000D01*
X128693875Y-106893897D01*
X128693875Y-106893897D01*
G37*
G36*
X134968674Y-106808465D02*
G01*
X135006367Y-106819899D01*
X135041103Y-106838466D01*
X135071548Y-106863452D01*
X135096534Y-106893897D01*
X135115101Y-106928633D01*
X135126535Y-106966326D01*
X135131000Y-107011661D01*
X135131000Y-107848339D01*
X135126535Y-107893674D01*
X135115101Y-107931367D01*
X135096534Y-107966103D01*
X135071548Y-107996548D01*
X135041103Y-108021534D01*
X135006367Y-108040101D01*
X134968674Y-108051535D01*
X134923339Y-108056000D01*
X133836661Y-108056000D01*
X133791326Y-108051535D01*
X133753633Y-108040101D01*
X133718897Y-108021534D01*
X133688452Y-107996548D01*
X133663466Y-107966103D01*
X133644899Y-107931367D01*
X133633465Y-107893674D01*
X133629000Y-107848339D01*
X133629000Y-107011661D01*
X133633465Y-106966326D01*
X133644899Y-106928633D01*
X133663466Y-106893897D01*
X133688452Y-106863452D01*
X133718897Y-106838466D01*
X133753633Y-106819899D01*
X133791326Y-106808465D01*
X133836661Y-106804000D01*
X134923339Y-106804000D01*
X134968674Y-106808465D01*
X134968674Y-106808465D01*
G37*
G36*
X91316000Y-107796000D02*
G01*
X89764000Y-107796000D01*
X89764000Y-105294000D01*
X91316000Y-105294000D01*
X91316000Y-107796000D01*
X91316000Y-107796000D01*
G37*
G36*
X97216000Y-107796000D02*
G01*
X95664000Y-107796000D01*
X95664000Y-105294000D01*
X97216000Y-105294000D01*
X97216000Y-107796000D01*
X97216000Y-107796000D01*
G37*
G36*
X101325562Y-104858181D02*
G01*
X101360481Y-104868774D01*
X101392663Y-104885976D01*
X101420873Y-104909127D01*
X101444024Y-104937337D01*
X101461226Y-104969519D01*
X101471819Y-105004438D01*
X101476000Y-105046895D01*
X101476000Y-106188105D01*
X101471819Y-106230562D01*
X101461226Y-106265481D01*
X101444024Y-106297663D01*
X101420873Y-106325873D01*
X101392663Y-106349024D01*
X101360481Y-106366226D01*
X101325562Y-106376819D01*
X101283105Y-106381000D01*
X99816895Y-106381000D01*
X99774438Y-106376819D01*
X99739519Y-106366226D01*
X99707337Y-106349024D01*
X99679127Y-106325873D01*
X99655976Y-106297663D01*
X99638774Y-106265481D01*
X99628181Y-106230562D01*
X99624000Y-106188105D01*
X99624000Y-105046895D01*
X99628181Y-105004438D01*
X99638774Y-104969519D01*
X99655976Y-104937337D01*
X99679127Y-104909127D01*
X99707337Y-104885976D01*
X99739519Y-104868774D01*
X99774438Y-104858181D01*
X99816895Y-104854000D01*
X101283105Y-104854000D01*
X101325562Y-104858181D01*
X101325562Y-104858181D01*
G37*
G36*
X109308674Y-105048465D02*
G01*
X109346367Y-105059899D01*
X109381103Y-105078466D01*
X109411548Y-105103452D01*
X109436534Y-105133897D01*
X109455101Y-105168633D01*
X109466535Y-105206326D01*
X109471000Y-105251661D01*
X109471000Y-106088339D01*
X109466535Y-106133674D01*
X109455101Y-106171367D01*
X109436534Y-106206103D01*
X109411548Y-106236548D01*
X109381103Y-106261534D01*
X109346367Y-106280101D01*
X109308674Y-106291535D01*
X109263339Y-106296000D01*
X108176661Y-106296000D01*
X108131326Y-106291535D01*
X108093633Y-106280101D01*
X108058897Y-106261534D01*
X108028452Y-106236548D01*
X108003466Y-106206103D01*
X107984899Y-106171367D01*
X107973465Y-106133674D01*
X107969000Y-106088339D01*
X107969000Y-105251661D01*
X107973465Y-105206326D01*
X107984899Y-105168633D01*
X108003466Y-105133897D01*
X108028452Y-105103452D01*
X108058897Y-105078466D01*
X108093633Y-105059899D01*
X108131326Y-105048465D01*
X108176661Y-105044000D01*
X109263339Y-105044000D01*
X109308674Y-105048465D01*
X109308674Y-105048465D01*
G37*
G36*
X105058674Y-105048465D02*
G01*
X105096367Y-105059899D01*
X105131103Y-105078466D01*
X105161548Y-105103452D01*
X105186534Y-105133897D01*
X105205101Y-105168633D01*
X105216535Y-105206326D01*
X105221000Y-105251661D01*
X105221000Y-106088339D01*
X105216535Y-106133674D01*
X105205101Y-106171367D01*
X105186534Y-106206103D01*
X105161548Y-106236548D01*
X105131103Y-106261534D01*
X105096367Y-106280101D01*
X105058674Y-106291535D01*
X105013339Y-106296000D01*
X103926661Y-106296000D01*
X103881326Y-106291535D01*
X103843633Y-106280101D01*
X103808897Y-106261534D01*
X103778452Y-106236548D01*
X103753466Y-106206103D01*
X103734899Y-106171367D01*
X103723465Y-106133674D01*
X103719000Y-106088339D01*
X103719000Y-105251661D01*
X103723465Y-105206326D01*
X103734899Y-105168633D01*
X103753466Y-105133897D01*
X103778452Y-105103452D01*
X103808897Y-105078466D01*
X103843633Y-105059899D01*
X103881326Y-105048465D01*
X103926661Y-105044000D01*
X105013339Y-105044000D01*
X105058674Y-105048465D01*
X105058674Y-105048465D01*
G37*
G36*
X117558674Y-105048465D02*
G01*
X117596367Y-105059899D01*
X117631103Y-105078466D01*
X117661548Y-105103452D01*
X117686534Y-105133897D01*
X117705101Y-105168633D01*
X117716535Y-105206326D01*
X117721000Y-105251661D01*
X117721000Y-106088339D01*
X117716535Y-106133674D01*
X117705101Y-106171367D01*
X117686534Y-106206103D01*
X117661548Y-106236548D01*
X117631103Y-106261534D01*
X117596367Y-106280101D01*
X117558674Y-106291535D01*
X117513339Y-106296000D01*
X116426661Y-106296000D01*
X116381326Y-106291535D01*
X116343633Y-106280101D01*
X116308897Y-106261534D01*
X116278452Y-106236548D01*
X116253466Y-106206103D01*
X116234899Y-106171367D01*
X116223465Y-106133674D01*
X116219000Y-106088339D01*
X116219000Y-105251661D01*
X116223465Y-105206326D01*
X116234899Y-105168633D01*
X116253466Y-105133897D01*
X116278452Y-105103452D01*
X116308897Y-105078466D01*
X116343633Y-105059899D01*
X116381326Y-105048465D01*
X116426661Y-105044000D01*
X117513339Y-105044000D01*
X117558674Y-105048465D01*
X117558674Y-105048465D01*
G37*
G36*
X113558674Y-105048465D02*
G01*
X113596367Y-105059899D01*
X113631103Y-105078466D01*
X113661548Y-105103452D01*
X113686534Y-105133897D01*
X113705101Y-105168633D01*
X113716535Y-105206326D01*
X113721000Y-105251661D01*
X113721000Y-106088339D01*
X113716535Y-106133674D01*
X113705101Y-106171367D01*
X113686534Y-106206103D01*
X113661548Y-106236548D01*
X113631103Y-106261534D01*
X113596367Y-106280101D01*
X113558674Y-106291535D01*
X113513339Y-106296000D01*
X112426661Y-106296000D01*
X112381326Y-106291535D01*
X112343633Y-106280101D01*
X112308897Y-106261534D01*
X112278452Y-106236548D01*
X112253466Y-106206103D01*
X112234899Y-106171367D01*
X112223465Y-106133674D01*
X112219000Y-106088339D01*
X112219000Y-105251661D01*
X112223465Y-105206326D01*
X112234899Y-105168633D01*
X112253466Y-105133897D01*
X112278452Y-105103452D01*
X112308897Y-105078466D01*
X112343633Y-105059899D01*
X112381326Y-105048465D01*
X112426661Y-105044000D01*
X113513339Y-105044000D01*
X113558674Y-105048465D01*
X113558674Y-105048465D01*
G37*
G36*
X155961000Y-106276000D02*
G01*
X154959000Y-106276000D01*
X154959000Y-104174000D01*
X155961000Y-104174000D01*
X155961000Y-106276000D01*
X155961000Y-106276000D01*
G37*
G36*
X149611000Y-106276000D02*
G01*
X148609000Y-106276000D01*
X148609000Y-104174000D01*
X149611000Y-104174000D01*
X149611000Y-106276000D01*
X149611000Y-106276000D01*
G37*
G36*
X158501000Y-106276000D02*
G01*
X157499000Y-106276000D01*
X157499000Y-104174000D01*
X158501000Y-104174000D01*
X158501000Y-106276000D01*
X158501000Y-106276000D01*
G37*
G36*
X150881000Y-106276000D02*
G01*
X149879000Y-106276000D01*
X149879000Y-104174000D01*
X150881000Y-104174000D01*
X150881000Y-106276000D01*
X150881000Y-106276000D01*
G37*
G36*
X157231000Y-106276000D02*
G01*
X156229000Y-106276000D01*
X156229000Y-104174000D01*
X157231000Y-104174000D01*
X157231000Y-106276000D01*
X157231000Y-106276000D01*
G37*
G36*
X143261000Y-106276000D02*
G01*
X142259000Y-106276000D01*
X142259000Y-104174000D01*
X143261000Y-104174000D01*
X143261000Y-106276000D01*
X143261000Y-106276000D01*
G37*
G36*
X154691000Y-106276000D02*
G01*
X153689000Y-106276000D01*
X153689000Y-104174000D01*
X154691000Y-104174000D01*
X154691000Y-106276000D01*
X154691000Y-106276000D01*
G37*
G36*
X144531000Y-106276000D02*
G01*
X143529000Y-106276000D01*
X143529000Y-104174000D01*
X144531000Y-104174000D01*
X144531000Y-106276000D01*
X144531000Y-106276000D01*
G37*
G36*
X145801000Y-106276000D02*
G01*
X144799000Y-106276000D01*
X144799000Y-104174000D01*
X145801000Y-104174000D01*
X145801000Y-106276000D01*
X145801000Y-106276000D01*
G37*
G36*
X141991000Y-106276000D02*
G01*
X140989000Y-106276000D01*
X140989000Y-104174000D01*
X141991000Y-104174000D01*
X141991000Y-106276000D01*
X141991000Y-106276000D01*
G37*
G36*
X153421000Y-106276000D02*
G01*
X152419000Y-106276000D01*
X152419000Y-104174000D01*
X153421000Y-104174000D01*
X153421000Y-106276000D01*
X153421000Y-106276000D01*
G37*
G36*
X147071000Y-106276000D02*
G01*
X146069000Y-106276000D01*
X146069000Y-104174000D01*
X147071000Y-104174000D01*
X147071000Y-106276000D01*
X147071000Y-106276000D01*
G37*
G36*
X152151000Y-106276000D02*
G01*
X151149000Y-106276000D01*
X151149000Y-104174000D01*
X152151000Y-104174000D01*
X152151000Y-106276000D01*
X152151000Y-106276000D01*
G37*
G36*
X148341000Y-106276000D02*
G01*
X147339000Y-106276000D01*
X147339000Y-104174000D01*
X148341000Y-104174000D01*
X148341000Y-106276000D01*
X148341000Y-106276000D01*
G37*
G36*
X129231000Y-106186000D02*
G01*
X127929000Y-106186000D01*
X127929000Y-104884000D01*
X129231000Y-104884000D01*
X129231000Y-106186000D01*
X129231000Y-106186000D01*
G37*
G36*
X134968674Y-104758465D02*
G01*
X135006367Y-104769899D01*
X135041103Y-104788466D01*
X135071548Y-104813452D01*
X135096534Y-104843897D01*
X135115101Y-104878633D01*
X135126535Y-104916326D01*
X135131000Y-104961661D01*
X135131000Y-105798339D01*
X135126535Y-105843674D01*
X135115101Y-105881367D01*
X135096534Y-105916103D01*
X135071548Y-105946548D01*
X135041103Y-105971534D01*
X135006367Y-105990101D01*
X134968674Y-106001535D01*
X134923339Y-106006000D01*
X133836661Y-106006000D01*
X133791326Y-106001535D01*
X133753633Y-105990101D01*
X133718897Y-105971534D01*
X133688452Y-105946548D01*
X133663466Y-105916103D01*
X133644899Y-105881367D01*
X133633465Y-105843674D01*
X133629000Y-105798339D01*
X133629000Y-104961661D01*
X133633465Y-104916326D01*
X133644899Y-104878633D01*
X133663466Y-104843897D01*
X133688452Y-104813452D01*
X133718897Y-104788466D01*
X133753633Y-104769899D01*
X133791326Y-104758465D01*
X133836661Y-104754000D01*
X134923339Y-104754000D01*
X134968674Y-104758465D01*
X134968674Y-104758465D01*
G37*
G36*
X113558674Y-100688465D02*
G01*
X113596367Y-100699899D01*
X113631103Y-100718466D01*
X113661548Y-100743452D01*
X113686534Y-100773897D01*
X113705101Y-100808633D01*
X113716535Y-100846326D01*
X113721000Y-100891661D01*
X113721000Y-101728339D01*
X113716535Y-101773674D01*
X113705101Y-101811367D01*
X113686534Y-101846103D01*
X113661548Y-101876548D01*
X113631103Y-101901534D01*
X113596367Y-101920101D01*
X113558674Y-101931535D01*
X113513339Y-101936000D01*
X112426661Y-101936000D01*
X112381326Y-101931535D01*
X112343633Y-101920101D01*
X112308897Y-101901534D01*
X112278452Y-101876548D01*
X112253466Y-101846103D01*
X112234899Y-101811367D01*
X112223465Y-101773674D01*
X112219000Y-101728339D01*
X112219000Y-100891661D01*
X112223465Y-100846326D01*
X112234899Y-100808633D01*
X112253466Y-100773897D01*
X112278452Y-100743452D01*
X112308897Y-100718466D01*
X112343633Y-100699899D01*
X112381326Y-100688465D01*
X112426661Y-100684000D01*
X113513339Y-100684000D01*
X113558674Y-100688465D01*
X113558674Y-100688465D01*
G37*
G36*
X117558674Y-100688465D02*
G01*
X117596367Y-100699899D01*
X117631103Y-100718466D01*
X117661548Y-100743452D01*
X117686534Y-100773897D01*
X117705101Y-100808633D01*
X117716535Y-100846326D01*
X117721000Y-100891661D01*
X117721000Y-101728339D01*
X117716535Y-101773674D01*
X117705101Y-101811367D01*
X117686534Y-101846103D01*
X117661548Y-101876548D01*
X117631103Y-101901534D01*
X117596367Y-101920101D01*
X117558674Y-101931535D01*
X117513339Y-101936000D01*
X116426661Y-101936000D01*
X116381326Y-101931535D01*
X116343633Y-101920101D01*
X116308897Y-101901534D01*
X116278452Y-101876548D01*
X116253466Y-101846103D01*
X116234899Y-101811367D01*
X116223465Y-101773674D01*
X116219000Y-101728339D01*
X116219000Y-100891661D01*
X116223465Y-100846326D01*
X116234899Y-100808633D01*
X116253466Y-100773897D01*
X116278452Y-100743452D01*
X116308897Y-100718466D01*
X116343633Y-100699899D01*
X116381326Y-100688465D01*
X116426661Y-100684000D01*
X117513339Y-100684000D01*
X117558674Y-100688465D01*
X117558674Y-100688465D01*
G37*
G36*
X101298674Y-100668465D02*
G01*
X101336367Y-100679899D01*
X101371103Y-100698466D01*
X101401548Y-100723452D01*
X101426534Y-100753897D01*
X101445101Y-100788633D01*
X101456535Y-100826326D01*
X101461000Y-100871661D01*
X101461000Y-101708339D01*
X101456535Y-101753674D01*
X101445101Y-101791367D01*
X101426534Y-101826103D01*
X101401548Y-101856548D01*
X101371103Y-101881534D01*
X101336367Y-101900101D01*
X101298674Y-101911535D01*
X101253339Y-101916000D01*
X100166661Y-101916000D01*
X100121326Y-101911535D01*
X100083633Y-101900101D01*
X100048897Y-101881534D01*
X100018452Y-101856548D01*
X99993466Y-101826103D01*
X99974899Y-101791367D01*
X99963465Y-101753674D01*
X99959000Y-101708339D01*
X99959000Y-100871661D01*
X99963465Y-100826326D01*
X99974899Y-100788633D01*
X99993466Y-100753897D01*
X100018452Y-100723452D01*
X100048897Y-100698466D01*
X100083633Y-100679899D01*
X100121326Y-100668465D01*
X100166661Y-100664000D01*
X101253339Y-100664000D01*
X101298674Y-100668465D01*
X101298674Y-100668465D01*
G37*
G36*
X129168674Y-100618465D02*
G01*
X129206367Y-100629899D01*
X129241103Y-100648466D01*
X129271548Y-100673452D01*
X129296534Y-100703897D01*
X129315101Y-100738633D01*
X129326535Y-100776326D01*
X129331000Y-100821661D01*
X129331000Y-101658339D01*
X129326535Y-101703674D01*
X129315101Y-101741367D01*
X129296534Y-101776103D01*
X129271548Y-101806548D01*
X129241103Y-101831534D01*
X129206367Y-101850101D01*
X129168674Y-101861535D01*
X129123339Y-101866000D01*
X128036661Y-101866000D01*
X127991326Y-101861535D01*
X127953633Y-101850101D01*
X127918897Y-101831534D01*
X127888452Y-101806548D01*
X127863466Y-101776103D01*
X127844899Y-101741367D01*
X127833465Y-101703674D01*
X127829000Y-101658339D01*
X127829000Y-100821661D01*
X127833465Y-100776326D01*
X127844899Y-100738633D01*
X127863466Y-100703897D01*
X127888452Y-100673452D01*
X127918897Y-100648466D01*
X127953633Y-100629899D01*
X127991326Y-100618465D01*
X128036661Y-100614000D01*
X129123339Y-100614000D01*
X129168674Y-100618465D01*
X129168674Y-100618465D01*
G37*
G36*
X134968674Y-100618465D02*
G01*
X135006367Y-100629899D01*
X135041103Y-100648466D01*
X135071548Y-100673452D01*
X135096534Y-100703897D01*
X135115101Y-100738633D01*
X135126535Y-100776326D01*
X135131000Y-100821661D01*
X135131000Y-101658339D01*
X135126535Y-101703674D01*
X135115101Y-101741367D01*
X135096534Y-101776103D01*
X135071548Y-101806548D01*
X135041103Y-101831534D01*
X135006367Y-101850101D01*
X134968674Y-101861535D01*
X134923339Y-101866000D01*
X133836661Y-101866000D01*
X133791326Y-101861535D01*
X133753633Y-101850101D01*
X133718897Y-101831534D01*
X133688452Y-101806548D01*
X133663466Y-101776103D01*
X133644899Y-101741367D01*
X133633465Y-101703674D01*
X133629000Y-101658339D01*
X133629000Y-100821661D01*
X133633465Y-100776326D01*
X133644899Y-100738633D01*
X133663466Y-100703897D01*
X133688452Y-100673452D01*
X133718897Y-100648466D01*
X133753633Y-100629899D01*
X133791326Y-100618465D01*
X133836661Y-100614000D01*
X134923339Y-100614000D01*
X134968674Y-100618465D01*
X134968674Y-100618465D01*
G37*
G36*
X122431000Y-101786000D02*
G01*
X120929000Y-101786000D01*
X120929000Y-100684000D01*
X122431000Y-100684000D01*
X122431000Y-101786000D01*
X122431000Y-101786000D01*
G37*
G36*
X108761000Y-101611000D02*
G01*
X107099000Y-101611000D01*
X107099000Y-98959000D01*
X108761000Y-98959000D01*
X108761000Y-101611000D01*
X108761000Y-101611000D01*
G37*
G36*
X106061000Y-101611000D02*
G01*
X104399000Y-101611000D01*
X104399000Y-98959000D01*
X106061000Y-98959000D01*
X106061000Y-101611000D01*
X106061000Y-101611000D01*
G37*
G36*
X124631000Y-100836000D02*
G01*
X123129000Y-100836000D01*
X123129000Y-99734000D01*
X124631000Y-99734000D01*
X124631000Y-100836000D01*
X124631000Y-100836000D01*
G37*
G36*
X93859487Y-98093996D02*
G01*
X94096253Y-98192068D01*
X94096255Y-98192069D01*
X94309339Y-98334447D01*
X94490553Y-98515661D01*
X94631315Y-98726326D01*
X94632932Y-98728747D01*
X94731004Y-98965513D01*
X94781000Y-99216861D01*
X94781000Y-99473139D01*
X94731004Y-99724487D01*
X94666269Y-99880770D01*
X94632931Y-99961255D01*
X94490553Y-100174339D01*
X94309339Y-100355553D01*
X94096255Y-100497931D01*
X94096254Y-100497932D01*
X94096253Y-100497932D01*
X93859487Y-100596004D01*
X93608139Y-100646000D01*
X93351861Y-100646000D01*
X93100513Y-100596004D01*
X92863747Y-100497932D01*
X92863746Y-100497932D01*
X92863745Y-100497931D01*
X92650661Y-100355553D01*
X92469447Y-100174339D01*
X92327069Y-99961255D01*
X92293731Y-99880770D01*
X92228996Y-99724487D01*
X92179000Y-99473139D01*
X92179000Y-99216861D01*
X92228996Y-98965513D01*
X92327068Y-98728747D01*
X92328686Y-98726326D01*
X92469447Y-98515661D01*
X92650661Y-98334447D01*
X92863745Y-98192069D01*
X92863747Y-98192068D01*
X93100513Y-98093996D01*
X93351861Y-98044000D01*
X93608139Y-98044000D01*
X93859487Y-98093996D01*
X93859487Y-98093996D01*
G37*
G36*
X122431000Y-99886000D02*
G01*
X120929000Y-99886000D01*
X120929000Y-98784000D01*
X122431000Y-98784000D01*
X122431000Y-99886000D01*
X122431000Y-99886000D01*
G37*
G36*
X117558674Y-98638465D02*
G01*
X117596367Y-98649899D01*
X117631103Y-98668466D01*
X117661548Y-98693452D01*
X117686534Y-98723897D01*
X117705101Y-98758633D01*
X117716535Y-98796326D01*
X117721000Y-98841661D01*
X117721000Y-99678339D01*
X117716535Y-99723674D01*
X117705101Y-99761367D01*
X117686534Y-99796103D01*
X117661548Y-99826548D01*
X117631103Y-99851534D01*
X117596367Y-99870101D01*
X117558674Y-99881535D01*
X117513339Y-99886000D01*
X116426661Y-99886000D01*
X116381326Y-99881535D01*
X116343633Y-99870101D01*
X116308897Y-99851534D01*
X116278452Y-99826548D01*
X116253466Y-99796103D01*
X116234899Y-99761367D01*
X116223465Y-99723674D01*
X116219000Y-99678339D01*
X116219000Y-98841661D01*
X116223465Y-98796326D01*
X116234899Y-98758633D01*
X116253466Y-98723897D01*
X116278452Y-98693452D01*
X116308897Y-98668466D01*
X116343633Y-98649899D01*
X116381326Y-98638465D01*
X116426661Y-98634000D01*
X117513339Y-98634000D01*
X117558674Y-98638465D01*
X117558674Y-98638465D01*
G37*
G36*
X113558674Y-98638465D02*
G01*
X113596367Y-98649899D01*
X113631103Y-98668466D01*
X113661548Y-98693452D01*
X113686534Y-98723897D01*
X113705101Y-98758633D01*
X113716535Y-98796326D01*
X113721000Y-98841661D01*
X113721000Y-99678339D01*
X113716535Y-99723674D01*
X113705101Y-99761367D01*
X113686534Y-99796103D01*
X113661548Y-99826548D01*
X113631103Y-99851534D01*
X113596367Y-99870101D01*
X113558674Y-99881535D01*
X113513339Y-99886000D01*
X112426661Y-99886000D01*
X112381326Y-99881535D01*
X112343633Y-99870101D01*
X112308897Y-99851534D01*
X112278452Y-99826548D01*
X112253466Y-99796103D01*
X112234899Y-99761367D01*
X112223465Y-99723674D01*
X112219000Y-99678339D01*
X112219000Y-98841661D01*
X112223465Y-98796326D01*
X112234899Y-98758633D01*
X112253466Y-98723897D01*
X112278452Y-98693452D01*
X112308897Y-98668466D01*
X112343633Y-98649899D01*
X112381326Y-98638465D01*
X112426661Y-98634000D01*
X113513339Y-98634000D01*
X113558674Y-98638465D01*
X113558674Y-98638465D01*
G37*
G36*
X101298674Y-98618465D02*
G01*
X101336367Y-98629899D01*
X101371103Y-98648466D01*
X101401548Y-98673452D01*
X101426534Y-98703897D01*
X101445101Y-98738633D01*
X101456535Y-98776326D01*
X101461000Y-98821661D01*
X101461000Y-99658339D01*
X101456535Y-99703674D01*
X101445101Y-99741367D01*
X101426534Y-99776103D01*
X101401548Y-99806548D01*
X101371103Y-99831534D01*
X101336367Y-99850101D01*
X101298674Y-99861535D01*
X101253339Y-99866000D01*
X100166661Y-99866000D01*
X100121326Y-99861535D01*
X100083633Y-99850101D01*
X100048897Y-99831534D01*
X100018452Y-99806548D01*
X99993466Y-99776103D01*
X99974899Y-99741367D01*
X99963465Y-99703674D01*
X99959000Y-99658339D01*
X99959000Y-98821661D01*
X99963465Y-98776326D01*
X99974899Y-98738633D01*
X99993466Y-98703897D01*
X100018452Y-98673452D01*
X100048897Y-98648466D01*
X100083633Y-98629899D01*
X100121326Y-98618465D01*
X100166661Y-98614000D01*
X101253339Y-98614000D01*
X101298674Y-98618465D01*
X101298674Y-98618465D01*
G37*
G36*
X129168674Y-98568465D02*
G01*
X129206367Y-98579899D01*
X129241103Y-98598466D01*
X129271548Y-98623452D01*
X129296534Y-98653897D01*
X129315101Y-98688633D01*
X129326535Y-98726326D01*
X129331000Y-98771661D01*
X129331000Y-99608339D01*
X129326535Y-99653674D01*
X129315101Y-99691367D01*
X129296534Y-99726103D01*
X129271548Y-99756548D01*
X129241103Y-99781534D01*
X129206367Y-99800101D01*
X129168674Y-99811535D01*
X129123339Y-99816000D01*
X128036661Y-99816000D01*
X127991326Y-99811535D01*
X127953633Y-99800101D01*
X127918897Y-99781534D01*
X127888452Y-99756548D01*
X127863466Y-99726103D01*
X127844899Y-99691367D01*
X127833465Y-99653674D01*
X127829000Y-99608339D01*
X127829000Y-98771661D01*
X127833465Y-98726326D01*
X127844899Y-98688633D01*
X127863466Y-98653897D01*
X127888452Y-98623452D01*
X127918897Y-98598466D01*
X127953633Y-98579899D01*
X127991326Y-98568465D01*
X128036661Y-98564000D01*
X129123339Y-98564000D01*
X129168674Y-98568465D01*
X129168674Y-98568465D01*
G37*
G36*
X134968674Y-98568465D02*
G01*
X135006367Y-98579899D01*
X135041103Y-98598466D01*
X135071548Y-98623452D01*
X135096534Y-98653897D01*
X135115101Y-98688633D01*
X135126535Y-98726326D01*
X135131000Y-98771661D01*
X135131000Y-99608339D01*
X135126535Y-99653674D01*
X135115101Y-99691367D01*
X135096534Y-99726103D01*
X135071548Y-99756548D01*
X135041103Y-99781534D01*
X135006367Y-99800101D01*
X134968674Y-99811535D01*
X134923339Y-99816000D01*
X133836661Y-99816000D01*
X133791326Y-99811535D01*
X133753633Y-99800101D01*
X133718897Y-99781534D01*
X133688452Y-99756548D01*
X133663466Y-99726103D01*
X133644899Y-99691367D01*
X133633465Y-99653674D01*
X133629000Y-99608339D01*
X133629000Y-98771661D01*
X133633465Y-98726326D01*
X133644899Y-98688633D01*
X133663466Y-98653897D01*
X133688452Y-98623452D01*
X133718897Y-98598466D01*
X133753633Y-98579899D01*
X133791326Y-98568465D01*
X133836661Y-98564000D01*
X134923339Y-98564000D01*
X134968674Y-98568465D01*
X134968674Y-98568465D01*
G37*
G36*
X157163674Y-95703465D02*
G01*
X157201367Y-95714899D01*
X157236103Y-95733466D01*
X157266548Y-95758452D01*
X157291534Y-95788897D01*
X157310101Y-95823633D01*
X157321535Y-95861326D01*
X157326000Y-95906661D01*
X157326000Y-96993339D01*
X157321535Y-97038674D01*
X157310101Y-97076367D01*
X157291534Y-97111103D01*
X157266548Y-97141548D01*
X157236103Y-97166534D01*
X157201367Y-97185101D01*
X157163674Y-97196535D01*
X157118339Y-97201000D01*
X156281661Y-97201000D01*
X156236326Y-97196535D01*
X156198633Y-97185101D01*
X156163897Y-97166534D01*
X156133452Y-97141548D01*
X156108466Y-97111103D01*
X156089899Y-97076367D01*
X156078465Y-97038674D01*
X156074000Y-96993339D01*
X156074000Y-95906661D01*
X156078465Y-95861326D01*
X156089899Y-95823633D01*
X156108466Y-95788897D01*
X156133452Y-95758452D01*
X156163897Y-95733466D01*
X156198633Y-95714899D01*
X156236326Y-95703465D01*
X156281661Y-95699000D01*
X157118339Y-95699000D01*
X157163674Y-95703465D01*
X157163674Y-95703465D01*
G37*
G36*
X159213674Y-95703465D02*
G01*
X159251367Y-95714899D01*
X159286103Y-95733466D01*
X159316548Y-95758452D01*
X159341534Y-95788897D01*
X159360101Y-95823633D01*
X159371535Y-95861326D01*
X159376000Y-95906661D01*
X159376000Y-96993339D01*
X159371535Y-97038674D01*
X159360101Y-97076367D01*
X159341534Y-97111103D01*
X159316548Y-97141548D01*
X159286103Y-97166534D01*
X159251367Y-97185101D01*
X159213674Y-97196535D01*
X159168339Y-97201000D01*
X158331661Y-97201000D01*
X158286326Y-97196535D01*
X158248633Y-97185101D01*
X158213897Y-97166534D01*
X158183452Y-97141548D01*
X158158466Y-97111103D01*
X158139899Y-97076367D01*
X158128465Y-97038674D01*
X158124000Y-96993339D01*
X158124000Y-95906661D01*
X158128465Y-95861326D01*
X158139899Y-95823633D01*
X158158466Y-95788897D01*
X158183452Y-95758452D01*
X158213897Y-95733466D01*
X158248633Y-95714899D01*
X158286326Y-95703465D01*
X158331661Y-95699000D01*
X159168339Y-95699000D01*
X159213674Y-95703465D01*
X159213674Y-95703465D01*
G37*
G36*
X122931000Y-96616000D02*
G01*
X120729000Y-96616000D01*
X120729000Y-95514000D01*
X122931000Y-95514000D01*
X122931000Y-96616000D01*
X122931000Y-96616000D01*
G37*
G36*
X118006000Y-96286000D02*
G01*
X112054000Y-96286000D01*
X112054000Y-91284000D01*
X118006000Y-91284000D01*
X118006000Y-96286000D01*
X118006000Y-96286000D01*
G37*
G36*
X129481000Y-96016000D02*
G01*
X127679000Y-96016000D01*
X127679000Y-94214000D01*
X129481000Y-94214000D01*
X129481000Y-96016000D01*
X129481000Y-96016000D01*
G37*
G36*
X107481000Y-95986000D02*
G01*
X105679000Y-95986000D01*
X105679000Y-94184000D01*
X107481000Y-94184000D01*
X107481000Y-95986000D01*
X107481000Y-95986000D01*
G37*
G36*
X94781000Y-95646000D02*
G01*
X92179000Y-95646000D01*
X92179000Y-93044000D01*
X94781000Y-93044000D01*
X94781000Y-95646000D01*
X94781000Y-95646000D01*
G37*
G36*
X101318674Y-94188465D02*
G01*
X101356367Y-94199899D01*
X101391103Y-94218466D01*
X101421548Y-94243452D01*
X101446534Y-94273897D01*
X101465101Y-94308633D01*
X101476535Y-94346326D01*
X101481000Y-94391661D01*
X101481000Y-95228339D01*
X101476535Y-95273674D01*
X101465101Y-95311367D01*
X101446534Y-95346103D01*
X101421548Y-95376548D01*
X101391103Y-95401534D01*
X101356367Y-95420101D01*
X101318674Y-95431535D01*
X101273339Y-95436000D01*
X100186661Y-95436000D01*
X100141326Y-95431535D01*
X100103633Y-95420101D01*
X100068897Y-95401534D01*
X100038452Y-95376548D01*
X100013466Y-95346103D01*
X99994899Y-95311367D01*
X99983465Y-95273674D01*
X99979000Y-95228339D01*
X99979000Y-94391661D01*
X99983465Y-94346326D01*
X99994899Y-94308633D01*
X100013466Y-94273897D01*
X100038452Y-94243452D01*
X100068897Y-94218466D01*
X100103633Y-94199899D01*
X100141326Y-94188465D01*
X100186661Y-94184000D01*
X101273339Y-94184000D01*
X101318674Y-94188465D01*
X101318674Y-94188465D01*
G37*
G36*
X157158674Y-92153465D02*
G01*
X157196367Y-92164899D01*
X157231103Y-92183466D01*
X157261548Y-92208452D01*
X157286534Y-92238897D01*
X157305101Y-92273633D01*
X157316535Y-92311326D01*
X157321000Y-92356661D01*
X157321000Y-93443339D01*
X157316535Y-93488674D01*
X157305101Y-93526367D01*
X157286534Y-93561103D01*
X157261548Y-93591548D01*
X157231103Y-93616534D01*
X157196367Y-93635101D01*
X157158674Y-93646535D01*
X157113339Y-93651000D01*
X156276661Y-93651000D01*
X156231326Y-93646535D01*
X156193633Y-93635101D01*
X156158897Y-93616534D01*
X156128452Y-93591548D01*
X156103466Y-93561103D01*
X156084899Y-93526367D01*
X156073465Y-93488674D01*
X156069000Y-93443339D01*
X156069000Y-92356661D01*
X156073465Y-92311326D01*
X156084899Y-92273633D01*
X156103466Y-92238897D01*
X156128452Y-92208452D01*
X156158897Y-92183466D01*
X156193633Y-92164899D01*
X156231326Y-92153465D01*
X156276661Y-92149000D01*
X157113339Y-92149000D01*
X157158674Y-92153465D01*
X157158674Y-92153465D01*
G37*
G36*
X159208674Y-92153465D02*
G01*
X159246367Y-92164899D01*
X159281103Y-92183466D01*
X159311548Y-92208452D01*
X159336534Y-92238897D01*
X159355101Y-92273633D01*
X159366535Y-92311326D01*
X159371000Y-92356661D01*
X159371000Y-93443339D01*
X159366535Y-93488674D01*
X159355101Y-93526367D01*
X159336534Y-93561103D01*
X159311548Y-93591548D01*
X159281103Y-93616534D01*
X159246367Y-93635101D01*
X159208674Y-93646535D01*
X159163339Y-93651000D01*
X158326661Y-93651000D01*
X158281326Y-93646535D01*
X158243633Y-93635101D01*
X158208897Y-93616534D01*
X158178452Y-93591548D01*
X158153466Y-93561103D01*
X158134899Y-93526367D01*
X158123465Y-93488674D01*
X158119000Y-93443339D01*
X158119000Y-92356661D01*
X158123465Y-92311326D01*
X158134899Y-92273633D01*
X158153466Y-92238897D01*
X158178452Y-92208452D01*
X158208897Y-92183466D01*
X158243633Y-92164899D01*
X158281326Y-92153465D01*
X158326661Y-92149000D01*
X159163339Y-92149000D01*
X159208674Y-92153465D01*
X159208674Y-92153465D01*
G37*
G36*
X128690443Y-91680519D02*
G01*
X128756627Y-91687037D01*
X128926466Y-91738557D01*
X129082991Y-91822222D01*
X129118729Y-91851552D01*
X129220186Y-91934814D01*
X129303448Y-92036271D01*
X129332778Y-92072009D01*
X129332779Y-92072011D01*
X129413965Y-92223897D01*
X129416443Y-92228534D01*
X129467963Y-92398373D01*
X129485359Y-92575000D01*
X129467963Y-92751627D01*
X129416443Y-92921466D01*
X129332778Y-93077991D01*
X129303448Y-93113729D01*
X129220186Y-93215186D01*
X129121587Y-93296103D01*
X129082991Y-93327778D01*
X129082989Y-93327779D01*
X128982594Y-93381442D01*
X128926466Y-93411443D01*
X128756627Y-93462963D01*
X128690443Y-93469481D01*
X128624260Y-93476000D01*
X128535740Y-93476000D01*
X128469558Y-93469482D01*
X128403373Y-93462963D01*
X128233534Y-93411443D01*
X128177407Y-93381442D01*
X128077011Y-93327779D01*
X128077009Y-93327778D01*
X128038413Y-93296103D01*
X127939814Y-93215186D01*
X127856552Y-93113729D01*
X127827222Y-93077991D01*
X127743557Y-92921466D01*
X127692037Y-92751627D01*
X127674641Y-92575000D01*
X127692037Y-92398373D01*
X127743557Y-92228534D01*
X127746036Y-92223897D01*
X127827221Y-92072011D01*
X127827222Y-92072009D01*
X127856552Y-92036271D01*
X127939814Y-91934814D01*
X128041271Y-91851552D01*
X128077009Y-91822222D01*
X128233534Y-91738557D01*
X128403373Y-91687037D01*
X128469557Y-91680519D01*
X128535740Y-91674000D01*
X128624260Y-91674000D01*
X128690443Y-91680519D01*
X128690443Y-91680519D01*
G37*
G36*
X106690443Y-91650519D02*
G01*
X106756627Y-91657037D01*
X106926466Y-91708557D01*
X106926468Y-91708558D01*
X107004728Y-91750389D01*
X107082991Y-91792222D01*
X107118729Y-91821552D01*
X107220186Y-91904814D01*
X107303448Y-92006271D01*
X107332778Y-92042009D01*
X107416443Y-92198534D01*
X107467963Y-92368373D01*
X107485359Y-92545000D01*
X107467963Y-92721627D01*
X107416443Y-92891466D01*
X107416442Y-92891468D01*
X107374611Y-92969728D01*
X107332778Y-93047991D01*
X107308159Y-93077989D01*
X107220186Y-93185186D01*
X107127358Y-93261367D01*
X107082991Y-93297778D01*
X106926466Y-93381443D01*
X106756627Y-93432963D01*
X106690442Y-93439482D01*
X106624260Y-93446000D01*
X106535740Y-93446000D01*
X106469558Y-93439482D01*
X106403373Y-93432963D01*
X106233534Y-93381443D01*
X106077009Y-93297778D01*
X106032642Y-93261367D01*
X105939814Y-93185186D01*
X105851841Y-93077989D01*
X105827222Y-93047991D01*
X105785390Y-92969729D01*
X105743558Y-92891468D01*
X105743557Y-92891466D01*
X105692037Y-92721627D01*
X105674641Y-92545000D01*
X105692037Y-92368373D01*
X105743557Y-92198534D01*
X105827222Y-92042009D01*
X105856552Y-92006271D01*
X105939814Y-91904814D01*
X106041271Y-91821552D01*
X106077009Y-91792222D01*
X106155272Y-91750389D01*
X106233532Y-91708558D01*
X106233534Y-91708557D01*
X106403373Y-91657037D01*
X106469557Y-91650519D01*
X106535740Y-91644000D01*
X106624260Y-91644000D01*
X106690443Y-91650519D01*
X106690443Y-91650519D01*
G37*
G36*
X101318674Y-92138465D02*
G01*
X101356367Y-92149899D01*
X101391103Y-92168466D01*
X101421548Y-92193452D01*
X101446534Y-92223897D01*
X101465101Y-92258633D01*
X101476535Y-92296326D01*
X101481000Y-92341661D01*
X101481000Y-93178339D01*
X101476535Y-93223674D01*
X101465101Y-93261367D01*
X101446534Y-93296103D01*
X101421548Y-93326548D01*
X101391103Y-93351534D01*
X101356367Y-93370101D01*
X101318674Y-93381535D01*
X101273339Y-93386000D01*
X100186661Y-93386000D01*
X100141326Y-93381535D01*
X100103633Y-93370101D01*
X100068897Y-93351534D01*
X100038452Y-93326548D01*
X100013466Y-93296103D01*
X99994899Y-93261367D01*
X99983465Y-93223674D01*
X99979000Y-93178339D01*
X99979000Y-92341661D01*
X99983465Y-92296326D01*
X99994899Y-92258633D01*
X100013466Y-92223897D01*
X100038452Y-92193452D01*
X100068897Y-92168466D01*
X100103633Y-92149899D01*
X100141326Y-92138465D01*
X100186661Y-92134000D01*
X101273339Y-92134000D01*
X101318674Y-92138465D01*
X101318674Y-92138465D01*
G37*
G36*
X122931000Y-92056000D02*
G01*
X120729000Y-92056000D01*
X120729000Y-90954000D01*
X122931000Y-90954000D01*
X122931000Y-92056000D01*
X122931000Y-92056000D01*
G37*
G36*
X129168674Y-87728465D02*
G01*
X129206367Y-87739899D01*
X129241103Y-87758466D01*
X129271548Y-87783452D01*
X129296534Y-87813897D01*
X129315101Y-87848633D01*
X129326535Y-87886326D01*
X129331000Y-87931661D01*
X129331000Y-88768339D01*
X129326535Y-88813674D01*
X129315101Y-88851367D01*
X129296534Y-88886103D01*
X129271548Y-88916548D01*
X129241103Y-88941534D01*
X129206367Y-88960101D01*
X129168674Y-88971535D01*
X129123339Y-88976000D01*
X128036661Y-88976000D01*
X127991326Y-88971535D01*
X127953633Y-88960101D01*
X127918897Y-88941534D01*
X127888452Y-88916548D01*
X127863466Y-88886103D01*
X127844899Y-88851367D01*
X127833465Y-88813674D01*
X127829000Y-88768339D01*
X127829000Y-87931661D01*
X127833465Y-87886326D01*
X127844899Y-87848633D01*
X127863466Y-87813897D01*
X127888452Y-87783452D01*
X127918897Y-87758466D01*
X127953633Y-87739899D01*
X127991326Y-87728465D01*
X128036661Y-87724000D01*
X129123339Y-87724000D01*
X129168674Y-87728465D01*
X129168674Y-87728465D01*
G37*
G36*
X107168674Y-87728465D02*
G01*
X107206367Y-87739899D01*
X107241103Y-87758466D01*
X107271548Y-87783452D01*
X107296534Y-87813897D01*
X107315101Y-87848633D01*
X107326535Y-87886326D01*
X107331000Y-87931661D01*
X107331000Y-88768339D01*
X107326535Y-88813674D01*
X107315101Y-88851367D01*
X107296534Y-88886103D01*
X107271548Y-88916548D01*
X107241103Y-88941534D01*
X107206367Y-88960101D01*
X107168674Y-88971535D01*
X107123339Y-88976000D01*
X106036661Y-88976000D01*
X105991326Y-88971535D01*
X105953633Y-88960101D01*
X105918897Y-88941534D01*
X105888452Y-88916548D01*
X105863466Y-88886103D01*
X105844899Y-88851367D01*
X105833465Y-88813674D01*
X105829000Y-88768339D01*
X105829000Y-87931661D01*
X105833465Y-87886326D01*
X105844899Y-87848633D01*
X105863466Y-87813897D01*
X105888452Y-87783452D01*
X105918897Y-87758466D01*
X105953633Y-87739899D01*
X105991326Y-87728465D01*
X106036661Y-87724000D01*
X107123339Y-87724000D01*
X107168674Y-87728465D01*
X107168674Y-87728465D01*
G37*
G36*
X120125443Y-86405519D02*
G01*
X120191627Y-86412037D01*
X120361466Y-86463557D01*
X120517991Y-86547222D01*
X120553729Y-86576552D01*
X120655186Y-86659814D01*
X120735750Y-86757983D01*
X120767778Y-86797009D01*
X120851443Y-86953534D01*
X120902963Y-87123373D01*
X120920359Y-87300000D01*
X120902963Y-87476627D01*
X120851443Y-87646466D01*
X120767778Y-87802991D01*
X120738448Y-87838729D01*
X120655186Y-87940186D01*
X120553729Y-88023448D01*
X120517991Y-88052778D01*
X120361466Y-88136443D01*
X120191627Y-88187963D01*
X120125443Y-88194481D01*
X120059260Y-88201000D01*
X119970740Y-88201000D01*
X119904557Y-88194481D01*
X119838373Y-88187963D01*
X119668534Y-88136443D01*
X119512009Y-88052778D01*
X119476271Y-88023448D01*
X119374814Y-87940186D01*
X119291552Y-87838729D01*
X119262222Y-87802991D01*
X119178557Y-87646466D01*
X119127037Y-87476627D01*
X119109641Y-87300000D01*
X119127037Y-87123373D01*
X119178557Y-86953534D01*
X119262222Y-86797009D01*
X119294250Y-86757983D01*
X119374814Y-86659814D01*
X119476271Y-86576552D01*
X119512009Y-86547222D01*
X119668534Y-86463557D01*
X119838373Y-86412037D01*
X119904557Y-86405519D01*
X119970740Y-86399000D01*
X120059260Y-86399000D01*
X120125443Y-86405519D01*
X120125443Y-86405519D01*
G37*
G36*
X115836000Y-88201000D02*
G01*
X114034000Y-88201000D01*
X114034000Y-86399000D01*
X115836000Y-86399000D01*
X115836000Y-88201000D01*
X115836000Y-88201000D01*
G37*
G36*
X117585443Y-86405519D02*
G01*
X117651627Y-86412037D01*
X117821466Y-86463557D01*
X117977991Y-86547222D01*
X118013729Y-86576552D01*
X118115186Y-86659814D01*
X118195750Y-86757983D01*
X118227778Y-86797009D01*
X118311443Y-86953534D01*
X118362963Y-87123373D01*
X118380359Y-87300000D01*
X118362963Y-87476627D01*
X118311443Y-87646466D01*
X118227778Y-87802991D01*
X118198448Y-87838729D01*
X118115186Y-87940186D01*
X118013729Y-88023448D01*
X117977991Y-88052778D01*
X117821466Y-88136443D01*
X117651627Y-88187963D01*
X117585443Y-88194481D01*
X117519260Y-88201000D01*
X117430740Y-88201000D01*
X117364557Y-88194481D01*
X117298373Y-88187963D01*
X117128534Y-88136443D01*
X116972009Y-88052778D01*
X116936271Y-88023448D01*
X116834814Y-87940186D01*
X116751552Y-87838729D01*
X116722222Y-87802991D01*
X116638557Y-87646466D01*
X116587037Y-87476627D01*
X116569641Y-87300000D01*
X116587037Y-87123373D01*
X116638557Y-86953534D01*
X116722222Y-86797009D01*
X116754250Y-86757983D01*
X116834814Y-86659814D01*
X116936271Y-86576552D01*
X116972009Y-86547222D01*
X117128534Y-86463557D01*
X117298373Y-86412037D01*
X117364557Y-86405519D01*
X117430740Y-86399000D01*
X117519260Y-86399000D01*
X117585443Y-86405519D01*
X117585443Y-86405519D01*
G37*
G36*
X107168674Y-85678465D02*
G01*
X107206367Y-85689899D01*
X107241103Y-85708466D01*
X107271548Y-85733452D01*
X107296534Y-85763897D01*
X107315101Y-85798633D01*
X107326535Y-85836326D01*
X107331000Y-85881661D01*
X107331000Y-86718339D01*
X107326535Y-86763674D01*
X107315101Y-86801367D01*
X107296534Y-86836103D01*
X107271548Y-86866548D01*
X107241103Y-86891534D01*
X107206367Y-86910101D01*
X107168674Y-86921535D01*
X107123339Y-86926000D01*
X106036661Y-86926000D01*
X105991326Y-86921535D01*
X105953633Y-86910101D01*
X105918897Y-86891534D01*
X105888452Y-86866548D01*
X105863466Y-86836103D01*
X105844899Y-86801367D01*
X105833465Y-86763674D01*
X105829000Y-86718339D01*
X105829000Y-85881661D01*
X105833465Y-85836326D01*
X105844899Y-85798633D01*
X105863466Y-85763897D01*
X105888452Y-85733452D01*
X105918897Y-85708466D01*
X105953633Y-85689899D01*
X105991326Y-85678465D01*
X106036661Y-85674000D01*
X107123339Y-85674000D01*
X107168674Y-85678465D01*
X107168674Y-85678465D01*
G37*
G36*
X129168674Y-85678465D02*
G01*
X129206367Y-85689899D01*
X129241103Y-85708466D01*
X129271548Y-85733452D01*
X129296534Y-85763897D01*
X129315101Y-85798633D01*
X129326535Y-85836326D01*
X129331000Y-85881661D01*
X129331000Y-86718339D01*
X129326535Y-86763674D01*
X129315101Y-86801367D01*
X129296534Y-86836103D01*
X129271548Y-86866548D01*
X129241103Y-86891534D01*
X129206367Y-86910101D01*
X129168674Y-86921535D01*
X129123339Y-86926000D01*
X128036661Y-86926000D01*
X127991326Y-86921535D01*
X127953633Y-86910101D01*
X127918897Y-86891534D01*
X127888452Y-86866548D01*
X127863466Y-86836103D01*
X127844899Y-86801367D01*
X127833465Y-86763674D01*
X127829000Y-86718339D01*
X127829000Y-85881661D01*
X127833465Y-85836326D01*
X127844899Y-85798633D01*
X127863466Y-85763897D01*
X127888452Y-85733452D01*
X127918897Y-85708466D01*
X127953633Y-85689899D01*
X127991326Y-85678465D01*
X128036661Y-85674000D01*
X129123339Y-85674000D01*
X129168674Y-85678465D01*
X129168674Y-85678465D01*
G37*
G36*
X164724549Y-81871116D02*
G01*
X164835734Y-81893232D01*
X165045203Y-81979997D01*
X165233720Y-82105960D01*
X165394040Y-82266280D01*
X165520003Y-82454797D01*
X165606768Y-82664266D01*
X165651000Y-82886636D01*
X165651000Y-83113364D01*
X165606768Y-83335734D01*
X165520003Y-83545203D01*
X165394040Y-83733720D01*
X165233720Y-83894040D01*
X165045203Y-84020003D01*
X164835734Y-84106768D01*
X164724549Y-84128884D01*
X164613365Y-84151000D01*
X164386635Y-84151000D01*
X164275451Y-84128884D01*
X164164266Y-84106768D01*
X163954797Y-84020003D01*
X163766280Y-83894040D01*
X163605960Y-83733720D01*
X163479997Y-83545203D01*
X163393232Y-83335734D01*
X163349000Y-83113364D01*
X163349000Y-82886636D01*
X163393232Y-82664266D01*
X163479997Y-82454797D01*
X163605960Y-82266280D01*
X163766280Y-82105960D01*
X163954797Y-81979997D01*
X164164266Y-81893232D01*
X164275451Y-81871116D01*
X164386635Y-81849000D01*
X164613365Y-81849000D01*
X164724549Y-81871116D01*
X164724549Y-81871116D01*
G37*
G36*
X91224549Y-81871116D02*
G01*
X91335734Y-81893232D01*
X91545203Y-81979997D01*
X91733720Y-82105960D01*
X91894040Y-82266280D01*
X92020003Y-82454797D01*
X92106768Y-82664266D01*
X92151000Y-82886636D01*
X92151000Y-83113364D01*
X92106768Y-83335734D01*
X92020003Y-83545203D01*
X91894040Y-83733720D01*
X91733720Y-83894040D01*
X91545203Y-84020003D01*
X91335734Y-84106768D01*
X91224549Y-84128884D01*
X91113365Y-84151000D01*
X90886635Y-84151000D01*
X90775451Y-84128884D01*
X90664266Y-84106768D01*
X90454797Y-84020003D01*
X90266280Y-83894040D01*
X90105960Y-83733720D01*
X89979997Y-83545203D01*
X89893232Y-83335734D01*
X89849000Y-83113364D01*
X89849000Y-82886636D01*
X89893232Y-82664266D01*
X89979997Y-82454797D01*
X90105960Y-82266280D01*
X90266280Y-82105960D01*
X90454797Y-81979997D01*
X90664266Y-81893232D01*
X90775451Y-81871116D01*
X90886635Y-81849000D01*
X91113365Y-81849000D01*
X91224549Y-81871116D01*
X91224549Y-81871116D01*
G37*
G36*
X154330442Y-81805518D02*
G01*
X154396627Y-81812037D01*
X154566466Y-81863557D01*
X154722991Y-81947222D01*
X154758729Y-81976552D01*
X154860186Y-82059814D01*
X154943448Y-82161271D01*
X154972778Y-82197009D01*
X155056443Y-82353534D01*
X155107963Y-82523373D01*
X155125359Y-82700000D01*
X155107963Y-82876627D01*
X155056443Y-83046466D01*
X154972778Y-83202991D01*
X154943448Y-83238729D01*
X154860186Y-83340186D01*
X154758729Y-83423448D01*
X154722991Y-83452778D01*
X154566466Y-83536443D01*
X154396627Y-83587963D01*
X154330443Y-83594481D01*
X154264260Y-83601000D01*
X154175740Y-83601000D01*
X154109557Y-83594481D01*
X154043373Y-83587963D01*
X153873534Y-83536443D01*
X153717009Y-83452778D01*
X153681271Y-83423448D01*
X153579814Y-83340186D01*
X153496552Y-83238729D01*
X153467222Y-83202991D01*
X153383557Y-83046466D01*
X153332037Y-82876627D01*
X153314641Y-82700000D01*
X153332037Y-82523373D01*
X153383557Y-82353534D01*
X153467222Y-82197009D01*
X153496552Y-82161271D01*
X153579814Y-82059814D01*
X153681271Y-81976552D01*
X153717009Y-81947222D01*
X153873534Y-81863557D01*
X154043373Y-81812037D01*
X154109558Y-81805518D01*
X154175740Y-81799000D01*
X154264260Y-81799000D01*
X154330442Y-81805518D01*
X154330442Y-81805518D01*
G37*
G36*
X156870442Y-81805518D02*
G01*
X156936627Y-81812037D01*
X157106466Y-81863557D01*
X157262991Y-81947222D01*
X157298729Y-81976552D01*
X157400186Y-82059814D01*
X157483448Y-82161271D01*
X157512778Y-82197009D01*
X157596443Y-82353534D01*
X157647963Y-82523373D01*
X157665359Y-82700000D01*
X157647963Y-82876627D01*
X157596443Y-83046466D01*
X157512778Y-83202991D01*
X157483448Y-83238729D01*
X157400186Y-83340186D01*
X157298729Y-83423448D01*
X157262991Y-83452778D01*
X157106466Y-83536443D01*
X156936627Y-83587963D01*
X156870443Y-83594481D01*
X156804260Y-83601000D01*
X156715740Y-83601000D01*
X156649557Y-83594481D01*
X156583373Y-83587963D01*
X156413534Y-83536443D01*
X156257009Y-83452778D01*
X156221271Y-83423448D01*
X156119814Y-83340186D01*
X156036552Y-83238729D01*
X156007222Y-83202991D01*
X155923557Y-83046466D01*
X155872037Y-82876627D01*
X155854641Y-82700000D01*
X155872037Y-82523373D01*
X155923557Y-82353534D01*
X156007222Y-82197009D01*
X156036552Y-82161271D01*
X156119814Y-82059814D01*
X156221271Y-81976552D01*
X156257009Y-81947222D01*
X156413534Y-81863557D01*
X156583373Y-81812037D01*
X156649558Y-81805518D01*
X156715740Y-81799000D01*
X156804260Y-81799000D01*
X156870442Y-81805518D01*
X156870442Y-81805518D01*
G37*
G36*
X160201000Y-83601000D02*
G01*
X158399000Y-83601000D01*
X158399000Y-81799000D01*
X160201000Y-81799000D01*
X160201000Y-83601000D01*
X160201000Y-83601000D01*
G37*
G36*
X108610442Y-81805518D02*
G01*
X108676627Y-81812037D01*
X108846466Y-81863557D01*
X109002991Y-81947222D01*
X109038729Y-81976552D01*
X109140186Y-82059814D01*
X109223448Y-82161271D01*
X109252778Y-82197009D01*
X109336443Y-82353534D01*
X109387963Y-82523373D01*
X109405359Y-82700000D01*
X109387963Y-82876627D01*
X109336443Y-83046466D01*
X109252778Y-83202991D01*
X109223448Y-83238729D01*
X109140186Y-83340186D01*
X109038729Y-83423448D01*
X109002991Y-83452778D01*
X108846466Y-83536443D01*
X108676627Y-83587963D01*
X108610443Y-83594481D01*
X108544260Y-83601000D01*
X108455740Y-83601000D01*
X108389557Y-83594481D01*
X108323373Y-83587963D01*
X108153534Y-83536443D01*
X107997009Y-83452778D01*
X107961271Y-83423448D01*
X107859814Y-83340186D01*
X107776552Y-83238729D01*
X107747222Y-83202991D01*
X107663557Y-83046466D01*
X107612037Y-82876627D01*
X107594641Y-82700000D01*
X107612037Y-82523373D01*
X107663557Y-82353534D01*
X107747222Y-82197009D01*
X107776552Y-82161271D01*
X107859814Y-82059814D01*
X107961271Y-81976552D01*
X107997009Y-81947222D01*
X108153534Y-81863557D01*
X108323373Y-81812037D01*
X108389558Y-81805518D01*
X108455740Y-81799000D01*
X108544260Y-81799000D01*
X108610442Y-81805518D01*
X108610442Y-81805518D01*
G37*
G36*
X103530442Y-81805518D02*
G01*
X103596627Y-81812037D01*
X103766466Y-81863557D01*
X103922991Y-81947222D01*
X103958729Y-81976552D01*
X104060186Y-82059814D01*
X104143448Y-82161271D01*
X104172778Y-82197009D01*
X104256443Y-82353534D01*
X104307963Y-82523373D01*
X104325359Y-82700000D01*
X104307963Y-82876627D01*
X104256443Y-83046466D01*
X104172778Y-83202991D01*
X104143448Y-83238729D01*
X104060186Y-83340186D01*
X103958729Y-83423448D01*
X103922991Y-83452778D01*
X103766466Y-83536443D01*
X103596627Y-83587963D01*
X103530443Y-83594481D01*
X103464260Y-83601000D01*
X103375740Y-83601000D01*
X103309557Y-83594481D01*
X103243373Y-83587963D01*
X103073534Y-83536443D01*
X102917009Y-83452778D01*
X102881271Y-83423448D01*
X102779814Y-83340186D01*
X102696552Y-83238729D01*
X102667222Y-83202991D01*
X102583557Y-83046466D01*
X102532037Y-82876627D01*
X102514641Y-82700000D01*
X102532037Y-82523373D01*
X102583557Y-82353534D01*
X102667222Y-82197009D01*
X102696552Y-82161271D01*
X102779814Y-82059814D01*
X102881271Y-81976552D01*
X102917009Y-81947222D01*
X103073534Y-81863557D01*
X103243373Y-81812037D01*
X103309558Y-81805518D01*
X103375740Y-81799000D01*
X103464260Y-81799000D01*
X103530442Y-81805518D01*
X103530442Y-81805518D01*
G37*
G36*
X100990442Y-81805518D02*
G01*
X101056627Y-81812037D01*
X101226466Y-81863557D01*
X101382991Y-81947222D01*
X101418729Y-81976552D01*
X101520186Y-82059814D01*
X101603448Y-82161271D01*
X101632778Y-82197009D01*
X101716443Y-82353534D01*
X101767963Y-82523373D01*
X101785359Y-82700000D01*
X101767963Y-82876627D01*
X101716443Y-83046466D01*
X101632778Y-83202991D01*
X101603448Y-83238729D01*
X101520186Y-83340186D01*
X101418729Y-83423448D01*
X101382991Y-83452778D01*
X101226466Y-83536443D01*
X101056627Y-83587963D01*
X100990443Y-83594481D01*
X100924260Y-83601000D01*
X100835740Y-83601000D01*
X100769557Y-83594481D01*
X100703373Y-83587963D01*
X100533534Y-83536443D01*
X100377009Y-83452778D01*
X100341271Y-83423448D01*
X100239814Y-83340186D01*
X100156552Y-83238729D01*
X100127222Y-83202991D01*
X100043557Y-83046466D01*
X99992037Y-82876627D01*
X99974641Y-82700000D01*
X99992037Y-82523373D01*
X100043557Y-82353534D01*
X100127222Y-82197009D01*
X100156552Y-82161271D01*
X100239814Y-82059814D01*
X100341271Y-81976552D01*
X100377009Y-81947222D01*
X100533534Y-81863557D01*
X100703373Y-81812037D01*
X100769558Y-81805518D01*
X100835740Y-81799000D01*
X100924260Y-81799000D01*
X100990442Y-81805518D01*
X100990442Y-81805518D01*
G37*
G36*
X98450442Y-81805518D02*
G01*
X98516627Y-81812037D01*
X98686466Y-81863557D01*
X98842991Y-81947222D01*
X98878729Y-81976552D01*
X98980186Y-82059814D01*
X99063448Y-82161271D01*
X99092778Y-82197009D01*
X99176443Y-82353534D01*
X99227963Y-82523373D01*
X99245359Y-82700000D01*
X99227963Y-82876627D01*
X99176443Y-83046466D01*
X99092778Y-83202991D01*
X99063448Y-83238729D01*
X98980186Y-83340186D01*
X98878729Y-83423448D01*
X98842991Y-83452778D01*
X98686466Y-83536443D01*
X98516627Y-83587963D01*
X98450443Y-83594481D01*
X98384260Y-83601000D01*
X98295740Y-83601000D01*
X98229557Y-83594481D01*
X98163373Y-83587963D01*
X97993534Y-83536443D01*
X97837009Y-83452778D01*
X97801271Y-83423448D01*
X97699814Y-83340186D01*
X97616552Y-83238729D01*
X97587222Y-83202991D01*
X97503557Y-83046466D01*
X97452037Y-82876627D01*
X97434641Y-82700000D01*
X97452037Y-82523373D01*
X97503557Y-82353534D01*
X97587222Y-82197009D01*
X97616552Y-82161271D01*
X97699814Y-82059814D01*
X97801271Y-81976552D01*
X97837009Y-81947222D01*
X97993534Y-81863557D01*
X98163373Y-81812037D01*
X98229558Y-81805518D01*
X98295740Y-81799000D01*
X98384260Y-81799000D01*
X98450442Y-81805518D01*
X98450442Y-81805518D01*
G37*
G36*
X95910442Y-81805518D02*
G01*
X95976627Y-81812037D01*
X96146466Y-81863557D01*
X96302991Y-81947222D01*
X96338729Y-81976552D01*
X96440186Y-82059814D01*
X96523448Y-82161271D01*
X96552778Y-82197009D01*
X96636443Y-82353534D01*
X96687963Y-82523373D01*
X96705359Y-82700000D01*
X96687963Y-82876627D01*
X96636443Y-83046466D01*
X96552778Y-83202991D01*
X96523448Y-83238729D01*
X96440186Y-83340186D01*
X96338729Y-83423448D01*
X96302991Y-83452778D01*
X96146466Y-83536443D01*
X95976627Y-83587963D01*
X95910443Y-83594481D01*
X95844260Y-83601000D01*
X95755740Y-83601000D01*
X95689557Y-83594481D01*
X95623373Y-83587963D01*
X95453534Y-83536443D01*
X95297009Y-83452778D01*
X95261271Y-83423448D01*
X95159814Y-83340186D01*
X95076552Y-83238729D01*
X95047222Y-83202991D01*
X94963557Y-83046466D01*
X94912037Y-82876627D01*
X94894641Y-82700000D01*
X94912037Y-82523373D01*
X94963557Y-82353534D01*
X95047222Y-82197009D01*
X95076552Y-82161271D01*
X95159814Y-82059814D01*
X95261271Y-81976552D01*
X95297009Y-81947222D01*
X95453534Y-81863557D01*
X95623373Y-81812037D01*
X95689558Y-81805518D01*
X95755740Y-81799000D01*
X95844260Y-81799000D01*
X95910442Y-81805518D01*
X95910442Y-81805518D01*
G37*
G36*
X111150442Y-81805518D02*
G01*
X111216627Y-81812037D01*
X111386466Y-81863557D01*
X111542991Y-81947222D01*
X111578729Y-81976552D01*
X111680186Y-82059814D01*
X111763448Y-82161271D01*
X111792778Y-82197009D01*
X111876443Y-82353534D01*
X111927963Y-82523373D01*
X111945359Y-82700000D01*
X111927963Y-82876627D01*
X111876443Y-83046466D01*
X111792778Y-83202991D01*
X111763448Y-83238729D01*
X111680186Y-83340186D01*
X111578729Y-83423448D01*
X111542991Y-83452778D01*
X111386466Y-83536443D01*
X111216627Y-83587963D01*
X111150443Y-83594481D01*
X111084260Y-83601000D01*
X110995740Y-83601000D01*
X110929557Y-83594481D01*
X110863373Y-83587963D01*
X110693534Y-83536443D01*
X110537009Y-83452778D01*
X110501271Y-83423448D01*
X110399814Y-83340186D01*
X110316552Y-83238729D01*
X110287222Y-83202991D01*
X110203557Y-83046466D01*
X110152037Y-82876627D01*
X110134641Y-82700000D01*
X110152037Y-82523373D01*
X110203557Y-82353534D01*
X110287222Y-82197009D01*
X110316552Y-82161271D01*
X110399814Y-82059814D01*
X110501271Y-81976552D01*
X110537009Y-81947222D01*
X110693534Y-81863557D01*
X110863373Y-81812037D01*
X110929558Y-81805518D01*
X110995740Y-81799000D01*
X111084260Y-81799000D01*
X111150442Y-81805518D01*
X111150442Y-81805518D01*
G37*
G36*
X113690442Y-81805518D02*
G01*
X113756627Y-81812037D01*
X113926466Y-81863557D01*
X114082991Y-81947222D01*
X114118729Y-81976552D01*
X114220186Y-82059814D01*
X114303448Y-82161271D01*
X114332778Y-82197009D01*
X114416443Y-82353534D01*
X114467963Y-82523373D01*
X114485359Y-82700000D01*
X114467963Y-82876627D01*
X114416443Y-83046466D01*
X114332778Y-83202991D01*
X114303448Y-83238729D01*
X114220186Y-83340186D01*
X114118729Y-83423448D01*
X114082991Y-83452778D01*
X113926466Y-83536443D01*
X113756627Y-83587963D01*
X113690443Y-83594481D01*
X113624260Y-83601000D01*
X113535740Y-83601000D01*
X113469557Y-83594481D01*
X113403373Y-83587963D01*
X113233534Y-83536443D01*
X113077009Y-83452778D01*
X113041271Y-83423448D01*
X112939814Y-83340186D01*
X112856552Y-83238729D01*
X112827222Y-83202991D01*
X112743557Y-83046466D01*
X112692037Y-82876627D01*
X112674641Y-82700000D01*
X112692037Y-82523373D01*
X112743557Y-82353534D01*
X112827222Y-82197009D01*
X112856552Y-82161271D01*
X112939814Y-82059814D01*
X113041271Y-81976552D01*
X113077009Y-81947222D01*
X113233534Y-81863557D01*
X113403373Y-81812037D01*
X113469558Y-81805518D01*
X113535740Y-81799000D01*
X113624260Y-81799000D01*
X113690442Y-81805518D01*
X113690442Y-81805518D01*
G37*
G36*
X106070442Y-81805518D02*
G01*
X106136627Y-81812037D01*
X106306466Y-81863557D01*
X106462991Y-81947222D01*
X106498729Y-81976552D01*
X106600186Y-82059814D01*
X106683448Y-82161271D01*
X106712778Y-82197009D01*
X106796443Y-82353534D01*
X106847963Y-82523373D01*
X106865359Y-82700000D01*
X106847963Y-82876627D01*
X106796443Y-83046466D01*
X106712778Y-83202991D01*
X106683448Y-83238729D01*
X106600186Y-83340186D01*
X106498729Y-83423448D01*
X106462991Y-83452778D01*
X106306466Y-83536443D01*
X106136627Y-83587963D01*
X106070443Y-83594481D01*
X106004260Y-83601000D01*
X105915740Y-83601000D01*
X105849557Y-83594481D01*
X105783373Y-83587963D01*
X105613534Y-83536443D01*
X105457009Y-83452778D01*
X105421271Y-83423448D01*
X105319814Y-83340186D01*
X105236552Y-83238729D01*
X105207222Y-83202991D01*
X105123557Y-83046466D01*
X105072037Y-82876627D01*
X105054641Y-82700000D01*
X105072037Y-82523373D01*
X105123557Y-82353534D01*
X105207222Y-82197009D01*
X105236552Y-82161271D01*
X105319814Y-82059814D01*
X105421271Y-81976552D01*
X105457009Y-81947222D01*
X105613534Y-81863557D01*
X105783373Y-81812037D01*
X105849558Y-81805518D01*
X105915740Y-81799000D01*
X106004260Y-81799000D01*
X106070442Y-81805518D01*
X106070442Y-81805518D01*
G37*
G36*
X116230442Y-81805518D02*
G01*
X116296627Y-81812037D01*
X116466466Y-81863557D01*
X116622991Y-81947222D01*
X116658729Y-81976552D01*
X116760186Y-82059814D01*
X116843448Y-82161271D01*
X116872778Y-82197009D01*
X116956443Y-82353534D01*
X117007963Y-82523373D01*
X117025359Y-82700000D01*
X117007963Y-82876627D01*
X116956443Y-83046466D01*
X116872778Y-83202991D01*
X116843448Y-83238729D01*
X116760186Y-83340186D01*
X116658729Y-83423448D01*
X116622991Y-83452778D01*
X116466466Y-83536443D01*
X116296627Y-83587963D01*
X116230443Y-83594481D01*
X116164260Y-83601000D01*
X116075740Y-83601000D01*
X116009557Y-83594481D01*
X115943373Y-83587963D01*
X115773534Y-83536443D01*
X115617009Y-83452778D01*
X115581271Y-83423448D01*
X115479814Y-83340186D01*
X115396552Y-83238729D01*
X115367222Y-83202991D01*
X115283557Y-83046466D01*
X115232037Y-82876627D01*
X115214641Y-82700000D01*
X115232037Y-82523373D01*
X115283557Y-82353534D01*
X115367222Y-82197009D01*
X115396552Y-82161271D01*
X115479814Y-82059814D01*
X115581271Y-81976552D01*
X115617009Y-81947222D01*
X115773534Y-81863557D01*
X115943373Y-81812037D01*
X116009558Y-81805518D01*
X116075740Y-81799000D01*
X116164260Y-81799000D01*
X116230442Y-81805518D01*
X116230442Y-81805518D01*
G37*
G36*
X118770442Y-81805518D02*
G01*
X118836627Y-81812037D01*
X119006466Y-81863557D01*
X119162991Y-81947222D01*
X119198729Y-81976552D01*
X119300186Y-82059814D01*
X119383448Y-82161271D01*
X119412778Y-82197009D01*
X119496443Y-82353534D01*
X119547963Y-82523373D01*
X119565359Y-82700000D01*
X119547963Y-82876627D01*
X119496443Y-83046466D01*
X119412778Y-83202991D01*
X119383448Y-83238729D01*
X119300186Y-83340186D01*
X119198729Y-83423448D01*
X119162991Y-83452778D01*
X119006466Y-83536443D01*
X118836627Y-83587963D01*
X118770443Y-83594481D01*
X118704260Y-83601000D01*
X118615740Y-83601000D01*
X118549557Y-83594481D01*
X118483373Y-83587963D01*
X118313534Y-83536443D01*
X118157009Y-83452778D01*
X118121271Y-83423448D01*
X118019814Y-83340186D01*
X117936552Y-83238729D01*
X117907222Y-83202991D01*
X117823557Y-83046466D01*
X117772037Y-82876627D01*
X117754641Y-82700000D01*
X117772037Y-82523373D01*
X117823557Y-82353534D01*
X117907222Y-82197009D01*
X117936552Y-82161271D01*
X118019814Y-82059814D01*
X118121271Y-81976552D01*
X118157009Y-81947222D01*
X118313534Y-81863557D01*
X118483373Y-81812037D01*
X118549558Y-81805518D01*
X118615740Y-81799000D01*
X118704260Y-81799000D01*
X118770442Y-81805518D01*
X118770442Y-81805518D01*
G37*
G36*
X121310442Y-81805518D02*
G01*
X121376627Y-81812037D01*
X121546466Y-81863557D01*
X121702991Y-81947222D01*
X121738729Y-81976552D01*
X121840186Y-82059814D01*
X121923448Y-82161271D01*
X121952778Y-82197009D01*
X122036443Y-82353534D01*
X122087963Y-82523373D01*
X122105359Y-82700000D01*
X122087963Y-82876627D01*
X122036443Y-83046466D01*
X121952778Y-83202991D01*
X121923448Y-83238729D01*
X121840186Y-83340186D01*
X121738729Y-83423448D01*
X121702991Y-83452778D01*
X121546466Y-83536443D01*
X121376627Y-83587963D01*
X121310443Y-83594481D01*
X121244260Y-83601000D01*
X121155740Y-83601000D01*
X121089557Y-83594481D01*
X121023373Y-83587963D01*
X120853534Y-83536443D01*
X120697009Y-83452778D01*
X120661271Y-83423448D01*
X120559814Y-83340186D01*
X120476552Y-83238729D01*
X120447222Y-83202991D01*
X120363557Y-83046466D01*
X120312037Y-82876627D01*
X120294641Y-82700000D01*
X120312037Y-82523373D01*
X120363557Y-82353534D01*
X120447222Y-82197009D01*
X120476552Y-82161271D01*
X120559814Y-82059814D01*
X120661271Y-81976552D01*
X120697009Y-81947222D01*
X120853534Y-81863557D01*
X121023373Y-81812037D01*
X121089558Y-81805518D01*
X121155740Y-81799000D01*
X121244260Y-81799000D01*
X121310442Y-81805518D01*
X121310442Y-81805518D01*
G37*
G36*
X123850442Y-81805518D02*
G01*
X123916627Y-81812037D01*
X124086466Y-81863557D01*
X124242991Y-81947222D01*
X124278729Y-81976552D01*
X124380186Y-82059814D01*
X124463448Y-82161271D01*
X124492778Y-82197009D01*
X124576443Y-82353534D01*
X124627963Y-82523373D01*
X124645359Y-82700000D01*
X124627963Y-82876627D01*
X124576443Y-83046466D01*
X124492778Y-83202991D01*
X124463448Y-83238729D01*
X124380186Y-83340186D01*
X124278729Y-83423448D01*
X124242991Y-83452778D01*
X124086466Y-83536443D01*
X123916627Y-83587963D01*
X123850443Y-83594481D01*
X123784260Y-83601000D01*
X123695740Y-83601000D01*
X123629557Y-83594481D01*
X123563373Y-83587963D01*
X123393534Y-83536443D01*
X123237009Y-83452778D01*
X123201271Y-83423448D01*
X123099814Y-83340186D01*
X123016552Y-83238729D01*
X122987222Y-83202991D01*
X122903557Y-83046466D01*
X122852037Y-82876627D01*
X122834641Y-82700000D01*
X122852037Y-82523373D01*
X122903557Y-82353534D01*
X122987222Y-82197009D01*
X123016552Y-82161271D01*
X123099814Y-82059814D01*
X123201271Y-81976552D01*
X123237009Y-81947222D01*
X123393534Y-81863557D01*
X123563373Y-81812037D01*
X123629558Y-81805518D01*
X123695740Y-81799000D01*
X123784260Y-81799000D01*
X123850442Y-81805518D01*
X123850442Y-81805518D01*
G37*
G36*
X126390442Y-81805518D02*
G01*
X126456627Y-81812037D01*
X126626466Y-81863557D01*
X126782991Y-81947222D01*
X126818729Y-81976552D01*
X126920186Y-82059814D01*
X127003448Y-82161271D01*
X127032778Y-82197009D01*
X127116443Y-82353534D01*
X127167963Y-82523373D01*
X127185359Y-82700000D01*
X127167963Y-82876627D01*
X127116443Y-83046466D01*
X127032778Y-83202991D01*
X127003448Y-83238729D01*
X126920186Y-83340186D01*
X126818729Y-83423448D01*
X126782991Y-83452778D01*
X126626466Y-83536443D01*
X126456627Y-83587963D01*
X126390443Y-83594481D01*
X126324260Y-83601000D01*
X126235740Y-83601000D01*
X126169557Y-83594481D01*
X126103373Y-83587963D01*
X125933534Y-83536443D01*
X125777009Y-83452778D01*
X125741271Y-83423448D01*
X125639814Y-83340186D01*
X125556552Y-83238729D01*
X125527222Y-83202991D01*
X125443557Y-83046466D01*
X125392037Y-82876627D01*
X125374641Y-82700000D01*
X125392037Y-82523373D01*
X125443557Y-82353534D01*
X125527222Y-82197009D01*
X125556552Y-82161271D01*
X125639814Y-82059814D01*
X125741271Y-81976552D01*
X125777009Y-81947222D01*
X125933534Y-81863557D01*
X126103373Y-81812037D01*
X126169558Y-81805518D01*
X126235740Y-81799000D01*
X126324260Y-81799000D01*
X126390442Y-81805518D01*
X126390442Y-81805518D01*
G37*
G36*
X128930442Y-81805518D02*
G01*
X128996627Y-81812037D01*
X129166466Y-81863557D01*
X129322991Y-81947222D01*
X129358729Y-81976552D01*
X129460186Y-82059814D01*
X129543448Y-82161271D01*
X129572778Y-82197009D01*
X129656443Y-82353534D01*
X129707963Y-82523373D01*
X129725359Y-82700000D01*
X129707963Y-82876627D01*
X129656443Y-83046466D01*
X129572778Y-83202991D01*
X129543448Y-83238729D01*
X129460186Y-83340186D01*
X129358729Y-83423448D01*
X129322991Y-83452778D01*
X129166466Y-83536443D01*
X128996627Y-83587963D01*
X128930443Y-83594481D01*
X128864260Y-83601000D01*
X128775740Y-83601000D01*
X128709557Y-83594481D01*
X128643373Y-83587963D01*
X128473534Y-83536443D01*
X128317009Y-83452778D01*
X128281271Y-83423448D01*
X128179814Y-83340186D01*
X128096552Y-83238729D01*
X128067222Y-83202991D01*
X127983557Y-83046466D01*
X127932037Y-82876627D01*
X127914641Y-82700000D01*
X127932037Y-82523373D01*
X127983557Y-82353534D01*
X128067222Y-82197009D01*
X128096552Y-82161271D01*
X128179814Y-82059814D01*
X128281271Y-81976552D01*
X128317009Y-81947222D01*
X128473534Y-81863557D01*
X128643373Y-81812037D01*
X128709558Y-81805518D01*
X128775740Y-81799000D01*
X128864260Y-81799000D01*
X128930442Y-81805518D01*
X128930442Y-81805518D01*
G37*
G36*
X131470442Y-81805518D02*
G01*
X131536627Y-81812037D01*
X131706466Y-81863557D01*
X131862991Y-81947222D01*
X131898729Y-81976552D01*
X132000186Y-82059814D01*
X132083448Y-82161271D01*
X132112778Y-82197009D01*
X132196443Y-82353534D01*
X132247963Y-82523373D01*
X132265359Y-82700000D01*
X132247963Y-82876627D01*
X132196443Y-83046466D01*
X132112778Y-83202991D01*
X132083448Y-83238729D01*
X132000186Y-83340186D01*
X131898729Y-83423448D01*
X131862991Y-83452778D01*
X131706466Y-83536443D01*
X131536627Y-83587963D01*
X131470443Y-83594481D01*
X131404260Y-83601000D01*
X131315740Y-83601000D01*
X131249557Y-83594481D01*
X131183373Y-83587963D01*
X131013534Y-83536443D01*
X130857009Y-83452778D01*
X130821271Y-83423448D01*
X130719814Y-83340186D01*
X130636552Y-83238729D01*
X130607222Y-83202991D01*
X130523557Y-83046466D01*
X130472037Y-82876627D01*
X130454641Y-82700000D01*
X130472037Y-82523373D01*
X130523557Y-82353534D01*
X130607222Y-82197009D01*
X130636552Y-82161271D01*
X130719814Y-82059814D01*
X130821271Y-81976552D01*
X130857009Y-81947222D01*
X131013534Y-81863557D01*
X131183373Y-81812037D01*
X131249558Y-81805518D01*
X131315740Y-81799000D01*
X131404260Y-81799000D01*
X131470442Y-81805518D01*
X131470442Y-81805518D01*
G37*
G36*
X134010442Y-81805518D02*
G01*
X134076627Y-81812037D01*
X134246466Y-81863557D01*
X134402991Y-81947222D01*
X134438729Y-81976552D01*
X134540186Y-82059814D01*
X134623448Y-82161271D01*
X134652778Y-82197009D01*
X134736443Y-82353534D01*
X134787963Y-82523373D01*
X134805359Y-82700000D01*
X134787963Y-82876627D01*
X134736443Y-83046466D01*
X134652778Y-83202991D01*
X134623448Y-83238729D01*
X134540186Y-83340186D01*
X134438729Y-83423448D01*
X134402991Y-83452778D01*
X134246466Y-83536443D01*
X134076627Y-83587963D01*
X134010443Y-83594481D01*
X133944260Y-83601000D01*
X133855740Y-83601000D01*
X133789557Y-83594481D01*
X133723373Y-83587963D01*
X133553534Y-83536443D01*
X133397009Y-83452778D01*
X133361271Y-83423448D01*
X133259814Y-83340186D01*
X133176552Y-83238729D01*
X133147222Y-83202991D01*
X133063557Y-83046466D01*
X133012037Y-82876627D01*
X132994641Y-82700000D01*
X133012037Y-82523373D01*
X133063557Y-82353534D01*
X133147222Y-82197009D01*
X133176552Y-82161271D01*
X133259814Y-82059814D01*
X133361271Y-81976552D01*
X133397009Y-81947222D01*
X133553534Y-81863557D01*
X133723373Y-81812037D01*
X133789558Y-81805518D01*
X133855740Y-81799000D01*
X133944260Y-81799000D01*
X134010442Y-81805518D01*
X134010442Y-81805518D01*
G37*
G36*
X136550442Y-81805518D02*
G01*
X136616627Y-81812037D01*
X136786466Y-81863557D01*
X136942991Y-81947222D01*
X136978729Y-81976552D01*
X137080186Y-82059814D01*
X137163448Y-82161271D01*
X137192778Y-82197009D01*
X137276443Y-82353534D01*
X137327963Y-82523373D01*
X137345359Y-82700000D01*
X137327963Y-82876627D01*
X137276443Y-83046466D01*
X137192778Y-83202991D01*
X137163448Y-83238729D01*
X137080186Y-83340186D01*
X136978729Y-83423448D01*
X136942991Y-83452778D01*
X136786466Y-83536443D01*
X136616627Y-83587963D01*
X136550443Y-83594481D01*
X136484260Y-83601000D01*
X136395740Y-83601000D01*
X136329557Y-83594481D01*
X136263373Y-83587963D01*
X136093534Y-83536443D01*
X135937009Y-83452778D01*
X135901271Y-83423448D01*
X135799814Y-83340186D01*
X135716552Y-83238729D01*
X135687222Y-83202991D01*
X135603557Y-83046466D01*
X135552037Y-82876627D01*
X135534641Y-82700000D01*
X135552037Y-82523373D01*
X135603557Y-82353534D01*
X135687222Y-82197009D01*
X135716552Y-82161271D01*
X135799814Y-82059814D01*
X135901271Y-81976552D01*
X135937009Y-81947222D01*
X136093534Y-81863557D01*
X136263373Y-81812037D01*
X136329558Y-81805518D01*
X136395740Y-81799000D01*
X136484260Y-81799000D01*
X136550442Y-81805518D01*
X136550442Y-81805518D01*
G37*
G36*
X149250442Y-81805518D02*
G01*
X149316627Y-81812037D01*
X149486466Y-81863557D01*
X149642991Y-81947222D01*
X149678729Y-81976552D01*
X149780186Y-82059814D01*
X149863448Y-82161271D01*
X149892778Y-82197009D01*
X149976443Y-82353534D01*
X150027963Y-82523373D01*
X150045359Y-82700000D01*
X150027963Y-82876627D01*
X149976443Y-83046466D01*
X149892778Y-83202991D01*
X149863448Y-83238729D01*
X149780186Y-83340186D01*
X149678729Y-83423448D01*
X149642991Y-83452778D01*
X149486466Y-83536443D01*
X149316627Y-83587963D01*
X149250443Y-83594481D01*
X149184260Y-83601000D01*
X149095740Y-83601000D01*
X149029557Y-83594481D01*
X148963373Y-83587963D01*
X148793534Y-83536443D01*
X148637009Y-83452778D01*
X148601271Y-83423448D01*
X148499814Y-83340186D01*
X148416552Y-83238729D01*
X148387222Y-83202991D01*
X148303557Y-83046466D01*
X148252037Y-82876627D01*
X148234641Y-82700000D01*
X148252037Y-82523373D01*
X148303557Y-82353534D01*
X148387222Y-82197009D01*
X148416552Y-82161271D01*
X148499814Y-82059814D01*
X148601271Y-81976552D01*
X148637009Y-81947222D01*
X148793534Y-81863557D01*
X148963373Y-81812037D01*
X149029558Y-81805518D01*
X149095740Y-81799000D01*
X149184260Y-81799000D01*
X149250442Y-81805518D01*
X149250442Y-81805518D01*
G37*
G36*
X139090442Y-81805518D02*
G01*
X139156627Y-81812037D01*
X139326466Y-81863557D01*
X139482991Y-81947222D01*
X139518729Y-81976552D01*
X139620186Y-82059814D01*
X139703448Y-82161271D01*
X139732778Y-82197009D01*
X139816443Y-82353534D01*
X139867963Y-82523373D01*
X139885359Y-82700000D01*
X139867963Y-82876627D01*
X139816443Y-83046466D01*
X139732778Y-83202991D01*
X139703448Y-83238729D01*
X139620186Y-83340186D01*
X139518729Y-83423448D01*
X139482991Y-83452778D01*
X139326466Y-83536443D01*
X139156627Y-83587963D01*
X139090443Y-83594481D01*
X139024260Y-83601000D01*
X138935740Y-83601000D01*
X138869557Y-83594481D01*
X138803373Y-83587963D01*
X138633534Y-83536443D01*
X138477009Y-83452778D01*
X138441271Y-83423448D01*
X138339814Y-83340186D01*
X138256552Y-83238729D01*
X138227222Y-83202991D01*
X138143557Y-83046466D01*
X138092037Y-82876627D01*
X138074641Y-82700000D01*
X138092037Y-82523373D01*
X138143557Y-82353534D01*
X138227222Y-82197009D01*
X138256552Y-82161271D01*
X138339814Y-82059814D01*
X138441271Y-81976552D01*
X138477009Y-81947222D01*
X138633534Y-81863557D01*
X138803373Y-81812037D01*
X138869558Y-81805518D01*
X138935740Y-81799000D01*
X139024260Y-81799000D01*
X139090442Y-81805518D01*
X139090442Y-81805518D01*
G37*
G36*
X146710442Y-81805518D02*
G01*
X146776627Y-81812037D01*
X146946466Y-81863557D01*
X147102991Y-81947222D01*
X147138729Y-81976552D01*
X147240186Y-82059814D01*
X147323448Y-82161271D01*
X147352778Y-82197009D01*
X147436443Y-82353534D01*
X147487963Y-82523373D01*
X147505359Y-82700000D01*
X147487963Y-82876627D01*
X147436443Y-83046466D01*
X147352778Y-83202991D01*
X147323448Y-83238729D01*
X147240186Y-83340186D01*
X147138729Y-83423448D01*
X147102991Y-83452778D01*
X146946466Y-83536443D01*
X146776627Y-83587963D01*
X146710443Y-83594481D01*
X146644260Y-83601000D01*
X146555740Y-83601000D01*
X146489557Y-83594481D01*
X146423373Y-83587963D01*
X146253534Y-83536443D01*
X146097009Y-83452778D01*
X146061271Y-83423448D01*
X145959814Y-83340186D01*
X145876552Y-83238729D01*
X145847222Y-83202991D01*
X145763557Y-83046466D01*
X145712037Y-82876627D01*
X145694641Y-82700000D01*
X145712037Y-82523373D01*
X145763557Y-82353534D01*
X145847222Y-82197009D01*
X145876552Y-82161271D01*
X145959814Y-82059814D01*
X146061271Y-81976552D01*
X146097009Y-81947222D01*
X146253534Y-81863557D01*
X146423373Y-81812037D01*
X146489558Y-81805518D01*
X146555740Y-81799000D01*
X146644260Y-81799000D01*
X146710442Y-81805518D01*
X146710442Y-81805518D01*
G37*
G36*
X151790442Y-81805518D02*
G01*
X151856627Y-81812037D01*
X152026466Y-81863557D01*
X152182991Y-81947222D01*
X152218729Y-81976552D01*
X152320186Y-82059814D01*
X152403448Y-82161271D01*
X152432778Y-82197009D01*
X152516443Y-82353534D01*
X152567963Y-82523373D01*
X152585359Y-82700000D01*
X152567963Y-82876627D01*
X152516443Y-83046466D01*
X152432778Y-83202991D01*
X152403448Y-83238729D01*
X152320186Y-83340186D01*
X152218729Y-83423448D01*
X152182991Y-83452778D01*
X152026466Y-83536443D01*
X151856627Y-83587963D01*
X151790443Y-83594481D01*
X151724260Y-83601000D01*
X151635740Y-83601000D01*
X151569557Y-83594481D01*
X151503373Y-83587963D01*
X151333534Y-83536443D01*
X151177009Y-83452778D01*
X151141271Y-83423448D01*
X151039814Y-83340186D01*
X150956552Y-83238729D01*
X150927222Y-83202991D01*
X150843557Y-83046466D01*
X150792037Y-82876627D01*
X150774641Y-82700000D01*
X150792037Y-82523373D01*
X150843557Y-82353534D01*
X150927222Y-82197009D01*
X150956552Y-82161271D01*
X151039814Y-82059814D01*
X151141271Y-81976552D01*
X151177009Y-81947222D01*
X151333534Y-81863557D01*
X151503373Y-81812037D01*
X151569558Y-81805518D01*
X151635740Y-81799000D01*
X151724260Y-81799000D01*
X151790442Y-81805518D01*
X151790442Y-81805518D01*
G37*
G36*
X141630442Y-81805518D02*
G01*
X141696627Y-81812037D01*
X141866466Y-81863557D01*
X142022991Y-81947222D01*
X142058729Y-81976552D01*
X142160186Y-82059814D01*
X142243448Y-82161271D01*
X142272778Y-82197009D01*
X142356443Y-82353534D01*
X142407963Y-82523373D01*
X142425359Y-82700000D01*
X142407963Y-82876627D01*
X142356443Y-83046466D01*
X142272778Y-83202991D01*
X142243448Y-83238729D01*
X142160186Y-83340186D01*
X142058729Y-83423448D01*
X142022991Y-83452778D01*
X141866466Y-83536443D01*
X141696627Y-83587963D01*
X141630443Y-83594481D01*
X141564260Y-83601000D01*
X141475740Y-83601000D01*
X141409557Y-83594481D01*
X141343373Y-83587963D01*
X141173534Y-83536443D01*
X141017009Y-83452778D01*
X140981271Y-83423448D01*
X140879814Y-83340186D01*
X140796552Y-83238729D01*
X140767222Y-83202991D01*
X140683557Y-83046466D01*
X140632037Y-82876627D01*
X140614641Y-82700000D01*
X140632037Y-82523373D01*
X140683557Y-82353534D01*
X140767222Y-82197009D01*
X140796552Y-82161271D01*
X140879814Y-82059814D01*
X140981271Y-81976552D01*
X141017009Y-81947222D01*
X141173534Y-81863557D01*
X141343373Y-81812037D01*
X141409558Y-81805518D01*
X141475740Y-81799000D01*
X141564260Y-81799000D01*
X141630442Y-81805518D01*
X141630442Y-81805518D01*
G37*
G36*
X144170442Y-81805518D02*
G01*
X144236627Y-81812037D01*
X144406466Y-81863557D01*
X144562991Y-81947222D01*
X144598729Y-81976552D01*
X144700186Y-82059814D01*
X144783448Y-82161271D01*
X144812778Y-82197009D01*
X144896443Y-82353534D01*
X144947963Y-82523373D01*
X144965359Y-82700000D01*
X144947963Y-82876627D01*
X144896443Y-83046466D01*
X144812778Y-83202991D01*
X144783448Y-83238729D01*
X144700186Y-83340186D01*
X144598729Y-83423448D01*
X144562991Y-83452778D01*
X144406466Y-83536443D01*
X144236627Y-83587963D01*
X144170443Y-83594481D01*
X144104260Y-83601000D01*
X144015740Y-83601000D01*
X143949557Y-83594481D01*
X143883373Y-83587963D01*
X143713534Y-83536443D01*
X143557009Y-83452778D01*
X143521271Y-83423448D01*
X143419814Y-83340186D01*
X143336552Y-83238729D01*
X143307222Y-83202991D01*
X143223557Y-83046466D01*
X143172037Y-82876627D01*
X143154641Y-82700000D01*
X143172037Y-82523373D01*
X143223557Y-82353534D01*
X143307222Y-82197009D01*
X143336552Y-82161271D01*
X143419814Y-82059814D01*
X143521271Y-81976552D01*
X143557009Y-81947222D01*
X143713534Y-81863557D01*
X143883373Y-81812037D01*
X143949558Y-81805518D01*
X144015740Y-81799000D01*
X144104260Y-81799000D01*
X144170442Y-81805518D01*
X144170442Y-81805518D01*
G37*
M02*
