G04 #@! TF.GenerationSoftware,KiCad,Pcbnew,(5.1.2)-1*
G04 #@! TF.CreationDate,2022-07-04T19:57:45-03:00*
G04 #@! TF.ProjectId,esp32,65737033-322e-46b6-9963-61645f706362,rev?*
G04 #@! TF.SameCoordinates,Original*
G04 #@! TF.FileFunction,Soldermask,Bot*
G04 #@! TF.FilePolarity,Negative*
%FSLAX46Y46*%
G04 Gerber Fmt 4.6, Leading zero omitted, Abs format (unit mm)*
G04 Created by KiCad (PCBNEW (5.1.2)-1) date 2022-07-04 19:57:45*
%MOMM*%
%LPD*%
G04 APERTURE LIST*
%ADD10C,0.100000*%
G04 APERTURE END LIST*
D10*
G36*
X164724549Y-138371116D02*
G01*
X164835734Y-138393232D01*
X165045203Y-138479997D01*
X165233720Y-138605960D01*
X165394040Y-138766280D01*
X165449856Y-138849815D01*
X165520004Y-138954799D01*
X165545416Y-139016150D01*
X165606768Y-139164266D01*
X165651000Y-139386636D01*
X165651000Y-139613364D01*
X165606768Y-139835734D01*
X165520003Y-140045203D01*
X165394040Y-140233720D01*
X165233720Y-140394040D01*
X165045203Y-140520003D01*
X164835734Y-140606768D01*
X164724549Y-140628884D01*
X164613365Y-140651000D01*
X164386635Y-140651000D01*
X164275451Y-140628884D01*
X164164266Y-140606768D01*
X163954797Y-140520003D01*
X163766280Y-140394040D01*
X163605960Y-140233720D01*
X163479997Y-140045203D01*
X163393232Y-139835734D01*
X163349000Y-139613364D01*
X163349000Y-139386636D01*
X163393232Y-139164266D01*
X163454584Y-139016150D01*
X163479996Y-138954799D01*
X163550144Y-138849815D01*
X163605960Y-138766280D01*
X163766280Y-138605960D01*
X163954797Y-138479997D01*
X164164266Y-138393232D01*
X164275451Y-138371116D01*
X164386635Y-138349000D01*
X164613365Y-138349000D01*
X164724549Y-138371116D01*
X164724549Y-138371116D01*
G37*
G36*
X91224549Y-138371116D02*
G01*
X91335734Y-138393232D01*
X91545203Y-138479997D01*
X91733720Y-138605960D01*
X91894040Y-138766280D01*
X91949856Y-138849815D01*
X92020004Y-138954799D01*
X92045416Y-139016150D01*
X92106768Y-139164266D01*
X92151000Y-139386636D01*
X92151000Y-139613364D01*
X92106768Y-139835734D01*
X92020003Y-140045203D01*
X91894040Y-140233720D01*
X91733720Y-140394040D01*
X91545203Y-140520003D01*
X91335734Y-140606768D01*
X91224549Y-140628884D01*
X91113365Y-140651000D01*
X90886635Y-140651000D01*
X90775451Y-140628884D01*
X90664266Y-140606768D01*
X90454797Y-140520003D01*
X90266280Y-140394040D01*
X90105960Y-140233720D01*
X89979997Y-140045203D01*
X89893232Y-139835734D01*
X89849000Y-139613364D01*
X89849000Y-139386636D01*
X89893232Y-139164266D01*
X89954584Y-139016150D01*
X89979996Y-138954799D01*
X90050144Y-138849815D01*
X90105960Y-138766280D01*
X90266280Y-138605960D01*
X90454797Y-138479997D01*
X90664266Y-138393232D01*
X90775451Y-138371116D01*
X90886635Y-138349000D01*
X91113365Y-138349000D01*
X91224549Y-138371116D01*
X91224549Y-138371116D01*
G37*
G36*
X96080442Y-138595518D02*
G01*
X96146627Y-138602037D01*
X96316466Y-138653557D01*
X96472991Y-138737222D01*
X96508398Y-138766280D01*
X96610186Y-138849814D01*
X96693448Y-138951271D01*
X96722778Y-138987009D01*
X96806443Y-139143534D01*
X96857963Y-139313373D01*
X96875359Y-139490000D01*
X96857963Y-139666627D01*
X96806443Y-139836466D01*
X96722778Y-139992991D01*
X96693448Y-140028729D01*
X96610186Y-140130186D01*
X96508729Y-140213448D01*
X96472991Y-140242778D01*
X96316466Y-140326443D01*
X96146627Y-140377963D01*
X96080443Y-140384481D01*
X96014260Y-140391000D01*
X95925740Y-140391000D01*
X95859557Y-140384481D01*
X95793373Y-140377963D01*
X95623534Y-140326443D01*
X95467009Y-140242778D01*
X95431271Y-140213448D01*
X95329814Y-140130186D01*
X95246552Y-140028729D01*
X95217222Y-139992991D01*
X95133557Y-139836466D01*
X95082037Y-139666627D01*
X95064641Y-139490000D01*
X95082037Y-139313373D01*
X95133557Y-139143534D01*
X95217222Y-138987009D01*
X95246552Y-138951271D01*
X95329814Y-138849814D01*
X95431602Y-138766280D01*
X95467009Y-138737222D01*
X95623534Y-138653557D01*
X95793373Y-138602037D01*
X95859558Y-138595518D01*
X95925740Y-138589000D01*
X96014260Y-138589000D01*
X96080442Y-138595518D01*
X96080442Y-138595518D01*
G37*
G36*
X98620442Y-138595518D02*
G01*
X98686627Y-138602037D01*
X98856466Y-138653557D01*
X99012991Y-138737222D01*
X99048398Y-138766280D01*
X99150186Y-138849814D01*
X99233448Y-138951271D01*
X99262778Y-138987009D01*
X99346443Y-139143534D01*
X99397963Y-139313373D01*
X99415359Y-139490000D01*
X99397963Y-139666627D01*
X99346443Y-139836466D01*
X99262778Y-139992991D01*
X99233448Y-140028729D01*
X99150186Y-140130186D01*
X99048729Y-140213448D01*
X99012991Y-140242778D01*
X98856466Y-140326443D01*
X98686627Y-140377963D01*
X98620443Y-140384481D01*
X98554260Y-140391000D01*
X98465740Y-140391000D01*
X98399557Y-140384481D01*
X98333373Y-140377963D01*
X98163534Y-140326443D01*
X98007009Y-140242778D01*
X97971271Y-140213448D01*
X97869814Y-140130186D01*
X97786552Y-140028729D01*
X97757222Y-139992991D01*
X97673557Y-139836466D01*
X97622037Y-139666627D01*
X97604641Y-139490000D01*
X97622037Y-139313373D01*
X97673557Y-139143534D01*
X97757222Y-138987009D01*
X97786552Y-138951271D01*
X97869814Y-138849814D01*
X97971602Y-138766280D01*
X98007009Y-138737222D01*
X98163534Y-138653557D01*
X98333373Y-138602037D01*
X98399558Y-138595518D01*
X98465740Y-138589000D01*
X98554260Y-138589000D01*
X98620442Y-138595518D01*
X98620442Y-138595518D01*
G37*
G36*
X101160442Y-138595518D02*
G01*
X101226627Y-138602037D01*
X101396466Y-138653557D01*
X101552991Y-138737222D01*
X101588398Y-138766280D01*
X101690186Y-138849814D01*
X101773448Y-138951271D01*
X101802778Y-138987009D01*
X101886443Y-139143534D01*
X101937963Y-139313373D01*
X101955359Y-139490000D01*
X101937963Y-139666627D01*
X101886443Y-139836466D01*
X101802778Y-139992991D01*
X101773448Y-140028729D01*
X101690186Y-140130186D01*
X101588729Y-140213448D01*
X101552991Y-140242778D01*
X101396466Y-140326443D01*
X101226627Y-140377963D01*
X101160443Y-140384481D01*
X101094260Y-140391000D01*
X101005740Y-140391000D01*
X100939557Y-140384481D01*
X100873373Y-140377963D01*
X100703534Y-140326443D01*
X100547009Y-140242778D01*
X100511271Y-140213448D01*
X100409814Y-140130186D01*
X100326552Y-140028729D01*
X100297222Y-139992991D01*
X100213557Y-139836466D01*
X100162037Y-139666627D01*
X100144641Y-139490000D01*
X100162037Y-139313373D01*
X100213557Y-139143534D01*
X100297222Y-138987009D01*
X100326552Y-138951271D01*
X100409814Y-138849814D01*
X100511602Y-138766280D01*
X100547009Y-138737222D01*
X100703534Y-138653557D01*
X100873373Y-138602037D01*
X100939558Y-138595518D01*
X101005740Y-138589000D01*
X101094260Y-138589000D01*
X101160442Y-138595518D01*
X101160442Y-138595518D01*
G37*
G36*
X103700442Y-138595518D02*
G01*
X103766627Y-138602037D01*
X103936466Y-138653557D01*
X104092991Y-138737222D01*
X104128398Y-138766280D01*
X104230186Y-138849814D01*
X104313448Y-138951271D01*
X104342778Y-138987009D01*
X104426443Y-139143534D01*
X104477963Y-139313373D01*
X104495359Y-139490000D01*
X104477963Y-139666627D01*
X104426443Y-139836466D01*
X104342778Y-139992991D01*
X104313448Y-140028729D01*
X104230186Y-140130186D01*
X104128729Y-140213448D01*
X104092991Y-140242778D01*
X103936466Y-140326443D01*
X103766627Y-140377963D01*
X103700443Y-140384481D01*
X103634260Y-140391000D01*
X103545740Y-140391000D01*
X103479557Y-140384481D01*
X103413373Y-140377963D01*
X103243534Y-140326443D01*
X103087009Y-140242778D01*
X103051271Y-140213448D01*
X102949814Y-140130186D01*
X102866552Y-140028729D01*
X102837222Y-139992991D01*
X102753557Y-139836466D01*
X102702037Y-139666627D01*
X102684641Y-139490000D01*
X102702037Y-139313373D01*
X102753557Y-139143534D01*
X102837222Y-138987009D01*
X102866552Y-138951271D01*
X102949814Y-138849814D01*
X103051602Y-138766280D01*
X103087009Y-138737222D01*
X103243534Y-138653557D01*
X103413373Y-138602037D01*
X103479558Y-138595518D01*
X103545740Y-138589000D01*
X103634260Y-138589000D01*
X103700442Y-138595518D01*
X103700442Y-138595518D01*
G37*
G36*
X106240442Y-138595518D02*
G01*
X106306627Y-138602037D01*
X106476466Y-138653557D01*
X106632991Y-138737222D01*
X106668398Y-138766280D01*
X106770186Y-138849814D01*
X106853448Y-138951271D01*
X106882778Y-138987009D01*
X106966443Y-139143534D01*
X107017963Y-139313373D01*
X107035359Y-139490000D01*
X107017963Y-139666627D01*
X106966443Y-139836466D01*
X106882778Y-139992991D01*
X106853448Y-140028729D01*
X106770186Y-140130186D01*
X106668729Y-140213448D01*
X106632991Y-140242778D01*
X106476466Y-140326443D01*
X106306627Y-140377963D01*
X106240443Y-140384481D01*
X106174260Y-140391000D01*
X106085740Y-140391000D01*
X106019557Y-140384481D01*
X105953373Y-140377963D01*
X105783534Y-140326443D01*
X105627009Y-140242778D01*
X105591271Y-140213448D01*
X105489814Y-140130186D01*
X105406552Y-140028729D01*
X105377222Y-139992991D01*
X105293557Y-139836466D01*
X105242037Y-139666627D01*
X105224641Y-139490000D01*
X105242037Y-139313373D01*
X105293557Y-139143534D01*
X105377222Y-138987009D01*
X105406552Y-138951271D01*
X105489814Y-138849814D01*
X105591602Y-138766280D01*
X105627009Y-138737222D01*
X105783534Y-138653557D01*
X105953373Y-138602037D01*
X106019558Y-138595518D01*
X106085740Y-138589000D01*
X106174260Y-138589000D01*
X106240442Y-138595518D01*
X106240442Y-138595518D01*
G37*
G36*
X108780442Y-138595518D02*
G01*
X108846627Y-138602037D01*
X109016466Y-138653557D01*
X109172991Y-138737222D01*
X109208398Y-138766280D01*
X109310186Y-138849814D01*
X109393448Y-138951271D01*
X109422778Y-138987009D01*
X109506443Y-139143534D01*
X109557963Y-139313373D01*
X109575359Y-139490000D01*
X109557963Y-139666627D01*
X109506443Y-139836466D01*
X109422778Y-139992991D01*
X109393448Y-140028729D01*
X109310186Y-140130186D01*
X109208729Y-140213448D01*
X109172991Y-140242778D01*
X109016466Y-140326443D01*
X108846627Y-140377963D01*
X108780443Y-140384481D01*
X108714260Y-140391000D01*
X108625740Y-140391000D01*
X108559557Y-140384481D01*
X108493373Y-140377963D01*
X108323534Y-140326443D01*
X108167009Y-140242778D01*
X108131271Y-140213448D01*
X108029814Y-140130186D01*
X107946552Y-140028729D01*
X107917222Y-139992991D01*
X107833557Y-139836466D01*
X107782037Y-139666627D01*
X107764641Y-139490000D01*
X107782037Y-139313373D01*
X107833557Y-139143534D01*
X107917222Y-138987009D01*
X107946552Y-138951271D01*
X108029814Y-138849814D01*
X108131602Y-138766280D01*
X108167009Y-138737222D01*
X108323534Y-138653557D01*
X108493373Y-138602037D01*
X108559558Y-138595518D01*
X108625740Y-138589000D01*
X108714260Y-138589000D01*
X108780442Y-138595518D01*
X108780442Y-138595518D01*
G37*
G36*
X111320442Y-138595518D02*
G01*
X111386627Y-138602037D01*
X111556466Y-138653557D01*
X111712991Y-138737222D01*
X111748398Y-138766280D01*
X111850186Y-138849814D01*
X111933448Y-138951271D01*
X111962778Y-138987009D01*
X112046443Y-139143534D01*
X112097963Y-139313373D01*
X112115359Y-139490000D01*
X112097963Y-139666627D01*
X112046443Y-139836466D01*
X111962778Y-139992991D01*
X111933448Y-140028729D01*
X111850186Y-140130186D01*
X111748729Y-140213448D01*
X111712991Y-140242778D01*
X111556466Y-140326443D01*
X111386627Y-140377963D01*
X111320443Y-140384481D01*
X111254260Y-140391000D01*
X111165740Y-140391000D01*
X111099557Y-140384481D01*
X111033373Y-140377963D01*
X110863534Y-140326443D01*
X110707009Y-140242778D01*
X110671271Y-140213448D01*
X110569814Y-140130186D01*
X110486552Y-140028729D01*
X110457222Y-139992991D01*
X110373557Y-139836466D01*
X110322037Y-139666627D01*
X110304641Y-139490000D01*
X110322037Y-139313373D01*
X110373557Y-139143534D01*
X110457222Y-138987009D01*
X110486552Y-138951271D01*
X110569814Y-138849814D01*
X110671602Y-138766280D01*
X110707009Y-138737222D01*
X110863534Y-138653557D01*
X111033373Y-138602037D01*
X111099558Y-138595518D01*
X111165740Y-138589000D01*
X111254260Y-138589000D01*
X111320442Y-138595518D01*
X111320442Y-138595518D01*
G37*
G36*
X113860442Y-138595518D02*
G01*
X113926627Y-138602037D01*
X114096466Y-138653557D01*
X114252991Y-138737222D01*
X114288398Y-138766280D01*
X114390186Y-138849814D01*
X114473448Y-138951271D01*
X114502778Y-138987009D01*
X114586443Y-139143534D01*
X114637963Y-139313373D01*
X114655359Y-139490000D01*
X114637963Y-139666627D01*
X114586443Y-139836466D01*
X114502778Y-139992991D01*
X114473448Y-140028729D01*
X114390186Y-140130186D01*
X114288729Y-140213448D01*
X114252991Y-140242778D01*
X114096466Y-140326443D01*
X113926627Y-140377963D01*
X113860443Y-140384481D01*
X113794260Y-140391000D01*
X113705740Y-140391000D01*
X113639557Y-140384481D01*
X113573373Y-140377963D01*
X113403534Y-140326443D01*
X113247009Y-140242778D01*
X113211271Y-140213448D01*
X113109814Y-140130186D01*
X113026552Y-140028729D01*
X112997222Y-139992991D01*
X112913557Y-139836466D01*
X112862037Y-139666627D01*
X112844641Y-139490000D01*
X112862037Y-139313373D01*
X112913557Y-139143534D01*
X112997222Y-138987009D01*
X113026552Y-138951271D01*
X113109814Y-138849814D01*
X113211602Y-138766280D01*
X113247009Y-138737222D01*
X113403534Y-138653557D01*
X113573373Y-138602037D01*
X113639558Y-138595518D01*
X113705740Y-138589000D01*
X113794260Y-138589000D01*
X113860442Y-138595518D01*
X113860442Y-138595518D01*
G37*
G36*
X116400442Y-138595518D02*
G01*
X116466627Y-138602037D01*
X116636466Y-138653557D01*
X116792991Y-138737222D01*
X116828398Y-138766280D01*
X116930186Y-138849814D01*
X117013448Y-138951271D01*
X117042778Y-138987009D01*
X117126443Y-139143534D01*
X117177963Y-139313373D01*
X117195359Y-139490000D01*
X117177963Y-139666627D01*
X117126443Y-139836466D01*
X117042778Y-139992991D01*
X117013448Y-140028729D01*
X116930186Y-140130186D01*
X116828729Y-140213448D01*
X116792991Y-140242778D01*
X116636466Y-140326443D01*
X116466627Y-140377963D01*
X116400443Y-140384481D01*
X116334260Y-140391000D01*
X116245740Y-140391000D01*
X116179557Y-140384481D01*
X116113373Y-140377963D01*
X115943534Y-140326443D01*
X115787009Y-140242778D01*
X115751271Y-140213448D01*
X115649814Y-140130186D01*
X115566552Y-140028729D01*
X115537222Y-139992991D01*
X115453557Y-139836466D01*
X115402037Y-139666627D01*
X115384641Y-139490000D01*
X115402037Y-139313373D01*
X115453557Y-139143534D01*
X115537222Y-138987009D01*
X115566552Y-138951271D01*
X115649814Y-138849814D01*
X115751602Y-138766280D01*
X115787009Y-138737222D01*
X115943534Y-138653557D01*
X116113373Y-138602037D01*
X116179558Y-138595518D01*
X116245740Y-138589000D01*
X116334260Y-138589000D01*
X116400442Y-138595518D01*
X116400442Y-138595518D01*
G37*
G36*
X118940442Y-138595518D02*
G01*
X119006627Y-138602037D01*
X119176466Y-138653557D01*
X119332991Y-138737222D01*
X119368398Y-138766280D01*
X119470186Y-138849814D01*
X119553448Y-138951271D01*
X119582778Y-138987009D01*
X119666443Y-139143534D01*
X119717963Y-139313373D01*
X119735359Y-139490000D01*
X119717963Y-139666627D01*
X119666443Y-139836466D01*
X119582778Y-139992991D01*
X119553448Y-140028729D01*
X119470186Y-140130186D01*
X119368729Y-140213448D01*
X119332991Y-140242778D01*
X119176466Y-140326443D01*
X119006627Y-140377963D01*
X118940443Y-140384481D01*
X118874260Y-140391000D01*
X118785740Y-140391000D01*
X118719557Y-140384481D01*
X118653373Y-140377963D01*
X118483534Y-140326443D01*
X118327009Y-140242778D01*
X118291271Y-140213448D01*
X118189814Y-140130186D01*
X118106552Y-140028729D01*
X118077222Y-139992991D01*
X117993557Y-139836466D01*
X117942037Y-139666627D01*
X117924641Y-139490000D01*
X117942037Y-139313373D01*
X117993557Y-139143534D01*
X118077222Y-138987009D01*
X118106552Y-138951271D01*
X118189814Y-138849814D01*
X118291602Y-138766280D01*
X118327009Y-138737222D01*
X118483534Y-138653557D01*
X118653373Y-138602037D01*
X118719558Y-138595518D01*
X118785740Y-138589000D01*
X118874260Y-138589000D01*
X118940442Y-138595518D01*
X118940442Y-138595518D01*
G37*
G36*
X121480442Y-138595518D02*
G01*
X121546627Y-138602037D01*
X121716466Y-138653557D01*
X121872991Y-138737222D01*
X121908398Y-138766280D01*
X122010186Y-138849814D01*
X122093448Y-138951271D01*
X122122778Y-138987009D01*
X122206443Y-139143534D01*
X122257963Y-139313373D01*
X122275359Y-139490000D01*
X122257963Y-139666627D01*
X122206443Y-139836466D01*
X122122778Y-139992991D01*
X122093448Y-140028729D01*
X122010186Y-140130186D01*
X121908729Y-140213448D01*
X121872991Y-140242778D01*
X121716466Y-140326443D01*
X121546627Y-140377963D01*
X121480443Y-140384481D01*
X121414260Y-140391000D01*
X121325740Y-140391000D01*
X121259557Y-140384481D01*
X121193373Y-140377963D01*
X121023534Y-140326443D01*
X120867009Y-140242778D01*
X120831271Y-140213448D01*
X120729814Y-140130186D01*
X120646552Y-140028729D01*
X120617222Y-139992991D01*
X120533557Y-139836466D01*
X120482037Y-139666627D01*
X120464641Y-139490000D01*
X120482037Y-139313373D01*
X120533557Y-139143534D01*
X120617222Y-138987009D01*
X120646552Y-138951271D01*
X120729814Y-138849814D01*
X120831602Y-138766280D01*
X120867009Y-138737222D01*
X121023534Y-138653557D01*
X121193373Y-138602037D01*
X121259558Y-138595518D01*
X121325740Y-138589000D01*
X121414260Y-138589000D01*
X121480442Y-138595518D01*
X121480442Y-138595518D01*
G37*
G36*
X124020442Y-138595518D02*
G01*
X124086627Y-138602037D01*
X124256466Y-138653557D01*
X124412991Y-138737222D01*
X124448398Y-138766280D01*
X124550186Y-138849814D01*
X124633448Y-138951271D01*
X124662778Y-138987009D01*
X124746443Y-139143534D01*
X124797963Y-139313373D01*
X124815359Y-139490000D01*
X124797963Y-139666627D01*
X124746443Y-139836466D01*
X124662778Y-139992991D01*
X124633448Y-140028729D01*
X124550186Y-140130186D01*
X124448729Y-140213448D01*
X124412991Y-140242778D01*
X124256466Y-140326443D01*
X124086627Y-140377963D01*
X124020443Y-140384481D01*
X123954260Y-140391000D01*
X123865740Y-140391000D01*
X123799557Y-140384481D01*
X123733373Y-140377963D01*
X123563534Y-140326443D01*
X123407009Y-140242778D01*
X123371271Y-140213448D01*
X123269814Y-140130186D01*
X123186552Y-140028729D01*
X123157222Y-139992991D01*
X123073557Y-139836466D01*
X123022037Y-139666627D01*
X123004641Y-139490000D01*
X123022037Y-139313373D01*
X123073557Y-139143534D01*
X123157222Y-138987009D01*
X123186552Y-138951271D01*
X123269814Y-138849814D01*
X123371602Y-138766280D01*
X123407009Y-138737222D01*
X123563534Y-138653557D01*
X123733373Y-138602037D01*
X123799558Y-138595518D01*
X123865740Y-138589000D01*
X123954260Y-138589000D01*
X124020442Y-138595518D01*
X124020442Y-138595518D01*
G37*
G36*
X126560442Y-138595518D02*
G01*
X126626627Y-138602037D01*
X126796466Y-138653557D01*
X126952991Y-138737222D01*
X126988398Y-138766280D01*
X127090186Y-138849814D01*
X127173448Y-138951271D01*
X127202778Y-138987009D01*
X127286443Y-139143534D01*
X127337963Y-139313373D01*
X127355359Y-139490000D01*
X127337963Y-139666627D01*
X127286443Y-139836466D01*
X127202778Y-139992991D01*
X127173448Y-140028729D01*
X127090186Y-140130186D01*
X126988729Y-140213448D01*
X126952991Y-140242778D01*
X126796466Y-140326443D01*
X126626627Y-140377963D01*
X126560443Y-140384481D01*
X126494260Y-140391000D01*
X126405740Y-140391000D01*
X126339557Y-140384481D01*
X126273373Y-140377963D01*
X126103534Y-140326443D01*
X125947009Y-140242778D01*
X125911271Y-140213448D01*
X125809814Y-140130186D01*
X125726552Y-140028729D01*
X125697222Y-139992991D01*
X125613557Y-139836466D01*
X125562037Y-139666627D01*
X125544641Y-139490000D01*
X125562037Y-139313373D01*
X125613557Y-139143534D01*
X125697222Y-138987009D01*
X125726552Y-138951271D01*
X125809814Y-138849814D01*
X125911602Y-138766280D01*
X125947009Y-138737222D01*
X126103534Y-138653557D01*
X126273373Y-138602037D01*
X126339558Y-138595518D01*
X126405740Y-138589000D01*
X126494260Y-138589000D01*
X126560442Y-138595518D01*
X126560442Y-138595518D01*
G37*
G36*
X134180442Y-138595518D02*
G01*
X134246627Y-138602037D01*
X134416466Y-138653557D01*
X134572991Y-138737222D01*
X134608398Y-138766280D01*
X134710186Y-138849814D01*
X134793448Y-138951271D01*
X134822778Y-138987009D01*
X134906443Y-139143534D01*
X134957963Y-139313373D01*
X134975359Y-139490000D01*
X134957963Y-139666627D01*
X134906443Y-139836466D01*
X134822778Y-139992991D01*
X134793448Y-140028729D01*
X134710186Y-140130186D01*
X134608729Y-140213448D01*
X134572991Y-140242778D01*
X134416466Y-140326443D01*
X134246627Y-140377963D01*
X134180443Y-140384481D01*
X134114260Y-140391000D01*
X134025740Y-140391000D01*
X133959557Y-140384481D01*
X133893373Y-140377963D01*
X133723534Y-140326443D01*
X133567009Y-140242778D01*
X133531271Y-140213448D01*
X133429814Y-140130186D01*
X133346552Y-140028729D01*
X133317222Y-139992991D01*
X133233557Y-139836466D01*
X133182037Y-139666627D01*
X133164641Y-139490000D01*
X133182037Y-139313373D01*
X133233557Y-139143534D01*
X133317222Y-138987009D01*
X133346552Y-138951271D01*
X133429814Y-138849814D01*
X133531602Y-138766280D01*
X133567009Y-138737222D01*
X133723534Y-138653557D01*
X133893373Y-138602037D01*
X133959558Y-138595518D01*
X134025740Y-138589000D01*
X134114260Y-138589000D01*
X134180442Y-138595518D01*
X134180442Y-138595518D01*
G37*
G36*
X129100442Y-138595518D02*
G01*
X129166627Y-138602037D01*
X129336466Y-138653557D01*
X129492991Y-138737222D01*
X129528398Y-138766280D01*
X129630186Y-138849814D01*
X129713448Y-138951271D01*
X129742778Y-138987009D01*
X129826443Y-139143534D01*
X129877963Y-139313373D01*
X129895359Y-139490000D01*
X129877963Y-139666627D01*
X129826443Y-139836466D01*
X129742778Y-139992991D01*
X129713448Y-140028729D01*
X129630186Y-140130186D01*
X129528729Y-140213448D01*
X129492991Y-140242778D01*
X129336466Y-140326443D01*
X129166627Y-140377963D01*
X129100443Y-140384481D01*
X129034260Y-140391000D01*
X128945740Y-140391000D01*
X128879557Y-140384481D01*
X128813373Y-140377963D01*
X128643534Y-140326443D01*
X128487009Y-140242778D01*
X128451271Y-140213448D01*
X128349814Y-140130186D01*
X128266552Y-140028729D01*
X128237222Y-139992991D01*
X128153557Y-139836466D01*
X128102037Y-139666627D01*
X128084641Y-139490000D01*
X128102037Y-139313373D01*
X128153557Y-139143534D01*
X128237222Y-138987009D01*
X128266552Y-138951271D01*
X128349814Y-138849814D01*
X128451602Y-138766280D01*
X128487009Y-138737222D01*
X128643534Y-138653557D01*
X128813373Y-138602037D01*
X128879558Y-138595518D01*
X128945740Y-138589000D01*
X129034260Y-138589000D01*
X129100442Y-138595518D01*
X129100442Y-138595518D01*
G37*
G36*
X160371000Y-140391000D02*
G01*
X158569000Y-140391000D01*
X158569000Y-138589000D01*
X160371000Y-138589000D01*
X160371000Y-140391000D01*
X160371000Y-140391000D01*
G37*
G36*
X157040442Y-138595518D02*
G01*
X157106627Y-138602037D01*
X157276466Y-138653557D01*
X157432991Y-138737222D01*
X157468398Y-138766280D01*
X157570186Y-138849814D01*
X157653448Y-138951271D01*
X157682778Y-138987009D01*
X157766443Y-139143534D01*
X157817963Y-139313373D01*
X157835359Y-139490000D01*
X157817963Y-139666627D01*
X157766443Y-139836466D01*
X157682778Y-139992991D01*
X157653448Y-140028729D01*
X157570186Y-140130186D01*
X157468729Y-140213448D01*
X157432991Y-140242778D01*
X157276466Y-140326443D01*
X157106627Y-140377963D01*
X157040443Y-140384481D01*
X156974260Y-140391000D01*
X156885740Y-140391000D01*
X156819557Y-140384481D01*
X156753373Y-140377963D01*
X156583534Y-140326443D01*
X156427009Y-140242778D01*
X156391271Y-140213448D01*
X156289814Y-140130186D01*
X156206552Y-140028729D01*
X156177222Y-139992991D01*
X156093557Y-139836466D01*
X156042037Y-139666627D01*
X156024641Y-139490000D01*
X156042037Y-139313373D01*
X156093557Y-139143534D01*
X156177222Y-138987009D01*
X156206552Y-138951271D01*
X156289814Y-138849814D01*
X156391602Y-138766280D01*
X156427009Y-138737222D01*
X156583534Y-138653557D01*
X156753373Y-138602037D01*
X156819558Y-138595518D01*
X156885740Y-138589000D01*
X156974260Y-138589000D01*
X157040442Y-138595518D01*
X157040442Y-138595518D01*
G37*
G36*
X154500442Y-138595518D02*
G01*
X154566627Y-138602037D01*
X154736466Y-138653557D01*
X154892991Y-138737222D01*
X154928398Y-138766280D01*
X155030186Y-138849814D01*
X155113448Y-138951271D01*
X155142778Y-138987009D01*
X155226443Y-139143534D01*
X155277963Y-139313373D01*
X155295359Y-139490000D01*
X155277963Y-139666627D01*
X155226443Y-139836466D01*
X155142778Y-139992991D01*
X155113448Y-140028729D01*
X155030186Y-140130186D01*
X154928729Y-140213448D01*
X154892991Y-140242778D01*
X154736466Y-140326443D01*
X154566627Y-140377963D01*
X154500443Y-140384481D01*
X154434260Y-140391000D01*
X154345740Y-140391000D01*
X154279557Y-140384481D01*
X154213373Y-140377963D01*
X154043534Y-140326443D01*
X153887009Y-140242778D01*
X153851271Y-140213448D01*
X153749814Y-140130186D01*
X153666552Y-140028729D01*
X153637222Y-139992991D01*
X153553557Y-139836466D01*
X153502037Y-139666627D01*
X153484641Y-139490000D01*
X153502037Y-139313373D01*
X153553557Y-139143534D01*
X153637222Y-138987009D01*
X153666552Y-138951271D01*
X153749814Y-138849814D01*
X153851602Y-138766280D01*
X153887009Y-138737222D01*
X154043534Y-138653557D01*
X154213373Y-138602037D01*
X154279558Y-138595518D01*
X154345740Y-138589000D01*
X154434260Y-138589000D01*
X154500442Y-138595518D01*
X154500442Y-138595518D01*
G37*
G36*
X151960442Y-138595518D02*
G01*
X152026627Y-138602037D01*
X152196466Y-138653557D01*
X152352991Y-138737222D01*
X152388398Y-138766280D01*
X152490186Y-138849814D01*
X152573448Y-138951271D01*
X152602778Y-138987009D01*
X152686443Y-139143534D01*
X152737963Y-139313373D01*
X152755359Y-139490000D01*
X152737963Y-139666627D01*
X152686443Y-139836466D01*
X152602778Y-139992991D01*
X152573448Y-140028729D01*
X152490186Y-140130186D01*
X152388729Y-140213448D01*
X152352991Y-140242778D01*
X152196466Y-140326443D01*
X152026627Y-140377963D01*
X151960443Y-140384481D01*
X151894260Y-140391000D01*
X151805740Y-140391000D01*
X151739557Y-140384481D01*
X151673373Y-140377963D01*
X151503534Y-140326443D01*
X151347009Y-140242778D01*
X151311271Y-140213448D01*
X151209814Y-140130186D01*
X151126552Y-140028729D01*
X151097222Y-139992991D01*
X151013557Y-139836466D01*
X150962037Y-139666627D01*
X150944641Y-139490000D01*
X150962037Y-139313373D01*
X151013557Y-139143534D01*
X151097222Y-138987009D01*
X151126552Y-138951271D01*
X151209814Y-138849814D01*
X151311602Y-138766280D01*
X151347009Y-138737222D01*
X151503534Y-138653557D01*
X151673373Y-138602037D01*
X151739558Y-138595518D01*
X151805740Y-138589000D01*
X151894260Y-138589000D01*
X151960442Y-138595518D01*
X151960442Y-138595518D01*
G37*
G36*
X149420442Y-138595518D02*
G01*
X149486627Y-138602037D01*
X149656466Y-138653557D01*
X149812991Y-138737222D01*
X149848398Y-138766280D01*
X149950186Y-138849814D01*
X150033448Y-138951271D01*
X150062778Y-138987009D01*
X150146443Y-139143534D01*
X150197963Y-139313373D01*
X150215359Y-139490000D01*
X150197963Y-139666627D01*
X150146443Y-139836466D01*
X150062778Y-139992991D01*
X150033448Y-140028729D01*
X149950186Y-140130186D01*
X149848729Y-140213448D01*
X149812991Y-140242778D01*
X149656466Y-140326443D01*
X149486627Y-140377963D01*
X149420443Y-140384481D01*
X149354260Y-140391000D01*
X149265740Y-140391000D01*
X149199557Y-140384481D01*
X149133373Y-140377963D01*
X148963534Y-140326443D01*
X148807009Y-140242778D01*
X148771271Y-140213448D01*
X148669814Y-140130186D01*
X148586552Y-140028729D01*
X148557222Y-139992991D01*
X148473557Y-139836466D01*
X148422037Y-139666627D01*
X148404641Y-139490000D01*
X148422037Y-139313373D01*
X148473557Y-139143534D01*
X148557222Y-138987009D01*
X148586552Y-138951271D01*
X148669814Y-138849814D01*
X148771602Y-138766280D01*
X148807009Y-138737222D01*
X148963534Y-138653557D01*
X149133373Y-138602037D01*
X149199558Y-138595518D01*
X149265740Y-138589000D01*
X149354260Y-138589000D01*
X149420442Y-138595518D01*
X149420442Y-138595518D01*
G37*
G36*
X144340442Y-138595518D02*
G01*
X144406627Y-138602037D01*
X144576466Y-138653557D01*
X144732991Y-138737222D01*
X144768398Y-138766280D01*
X144870186Y-138849814D01*
X144953448Y-138951271D01*
X144982778Y-138987009D01*
X145066443Y-139143534D01*
X145117963Y-139313373D01*
X145135359Y-139490000D01*
X145117963Y-139666627D01*
X145066443Y-139836466D01*
X144982778Y-139992991D01*
X144953448Y-140028729D01*
X144870186Y-140130186D01*
X144768729Y-140213448D01*
X144732991Y-140242778D01*
X144576466Y-140326443D01*
X144406627Y-140377963D01*
X144340443Y-140384481D01*
X144274260Y-140391000D01*
X144185740Y-140391000D01*
X144119557Y-140384481D01*
X144053373Y-140377963D01*
X143883534Y-140326443D01*
X143727009Y-140242778D01*
X143691271Y-140213448D01*
X143589814Y-140130186D01*
X143506552Y-140028729D01*
X143477222Y-139992991D01*
X143393557Y-139836466D01*
X143342037Y-139666627D01*
X143324641Y-139490000D01*
X143342037Y-139313373D01*
X143393557Y-139143534D01*
X143477222Y-138987009D01*
X143506552Y-138951271D01*
X143589814Y-138849814D01*
X143691602Y-138766280D01*
X143727009Y-138737222D01*
X143883534Y-138653557D01*
X144053373Y-138602037D01*
X144119558Y-138595518D01*
X144185740Y-138589000D01*
X144274260Y-138589000D01*
X144340442Y-138595518D01*
X144340442Y-138595518D01*
G37*
G36*
X141800442Y-138595518D02*
G01*
X141866627Y-138602037D01*
X142036466Y-138653557D01*
X142192991Y-138737222D01*
X142228398Y-138766280D01*
X142330186Y-138849814D01*
X142413448Y-138951271D01*
X142442778Y-138987009D01*
X142526443Y-139143534D01*
X142577963Y-139313373D01*
X142595359Y-139490000D01*
X142577963Y-139666627D01*
X142526443Y-139836466D01*
X142442778Y-139992991D01*
X142413448Y-140028729D01*
X142330186Y-140130186D01*
X142228729Y-140213448D01*
X142192991Y-140242778D01*
X142036466Y-140326443D01*
X141866627Y-140377963D01*
X141800443Y-140384481D01*
X141734260Y-140391000D01*
X141645740Y-140391000D01*
X141579557Y-140384481D01*
X141513373Y-140377963D01*
X141343534Y-140326443D01*
X141187009Y-140242778D01*
X141151271Y-140213448D01*
X141049814Y-140130186D01*
X140966552Y-140028729D01*
X140937222Y-139992991D01*
X140853557Y-139836466D01*
X140802037Y-139666627D01*
X140784641Y-139490000D01*
X140802037Y-139313373D01*
X140853557Y-139143534D01*
X140937222Y-138987009D01*
X140966552Y-138951271D01*
X141049814Y-138849814D01*
X141151602Y-138766280D01*
X141187009Y-138737222D01*
X141343534Y-138653557D01*
X141513373Y-138602037D01*
X141579558Y-138595518D01*
X141645740Y-138589000D01*
X141734260Y-138589000D01*
X141800442Y-138595518D01*
X141800442Y-138595518D01*
G37*
G36*
X139260442Y-138595518D02*
G01*
X139326627Y-138602037D01*
X139496466Y-138653557D01*
X139652991Y-138737222D01*
X139688398Y-138766280D01*
X139790186Y-138849814D01*
X139873448Y-138951271D01*
X139902778Y-138987009D01*
X139986443Y-139143534D01*
X140037963Y-139313373D01*
X140055359Y-139490000D01*
X140037963Y-139666627D01*
X139986443Y-139836466D01*
X139902778Y-139992991D01*
X139873448Y-140028729D01*
X139790186Y-140130186D01*
X139688729Y-140213448D01*
X139652991Y-140242778D01*
X139496466Y-140326443D01*
X139326627Y-140377963D01*
X139260443Y-140384481D01*
X139194260Y-140391000D01*
X139105740Y-140391000D01*
X139039557Y-140384481D01*
X138973373Y-140377963D01*
X138803534Y-140326443D01*
X138647009Y-140242778D01*
X138611271Y-140213448D01*
X138509814Y-140130186D01*
X138426552Y-140028729D01*
X138397222Y-139992991D01*
X138313557Y-139836466D01*
X138262037Y-139666627D01*
X138244641Y-139490000D01*
X138262037Y-139313373D01*
X138313557Y-139143534D01*
X138397222Y-138987009D01*
X138426552Y-138951271D01*
X138509814Y-138849814D01*
X138611602Y-138766280D01*
X138647009Y-138737222D01*
X138803534Y-138653557D01*
X138973373Y-138602037D01*
X139039558Y-138595518D01*
X139105740Y-138589000D01*
X139194260Y-138589000D01*
X139260442Y-138595518D01*
X139260442Y-138595518D01*
G37*
G36*
X136720442Y-138595518D02*
G01*
X136786627Y-138602037D01*
X136956466Y-138653557D01*
X137112991Y-138737222D01*
X137148398Y-138766280D01*
X137250186Y-138849814D01*
X137333448Y-138951271D01*
X137362778Y-138987009D01*
X137446443Y-139143534D01*
X137497963Y-139313373D01*
X137515359Y-139490000D01*
X137497963Y-139666627D01*
X137446443Y-139836466D01*
X137362778Y-139992991D01*
X137333448Y-140028729D01*
X137250186Y-140130186D01*
X137148729Y-140213448D01*
X137112991Y-140242778D01*
X136956466Y-140326443D01*
X136786627Y-140377963D01*
X136720443Y-140384481D01*
X136654260Y-140391000D01*
X136565740Y-140391000D01*
X136499557Y-140384481D01*
X136433373Y-140377963D01*
X136263534Y-140326443D01*
X136107009Y-140242778D01*
X136071271Y-140213448D01*
X135969814Y-140130186D01*
X135886552Y-140028729D01*
X135857222Y-139992991D01*
X135773557Y-139836466D01*
X135722037Y-139666627D01*
X135704641Y-139490000D01*
X135722037Y-139313373D01*
X135773557Y-139143534D01*
X135857222Y-138987009D01*
X135886552Y-138951271D01*
X135969814Y-138849814D01*
X136071602Y-138766280D01*
X136107009Y-138737222D01*
X136263534Y-138653557D01*
X136433373Y-138602037D01*
X136499558Y-138595518D01*
X136565740Y-138589000D01*
X136654260Y-138589000D01*
X136720442Y-138595518D01*
X136720442Y-138595518D01*
G37*
G36*
X131640442Y-138595518D02*
G01*
X131706627Y-138602037D01*
X131876466Y-138653557D01*
X132032991Y-138737222D01*
X132068398Y-138766280D01*
X132170186Y-138849814D01*
X132253448Y-138951271D01*
X132282778Y-138987009D01*
X132366443Y-139143534D01*
X132417963Y-139313373D01*
X132435359Y-139490000D01*
X132417963Y-139666627D01*
X132366443Y-139836466D01*
X132282778Y-139992991D01*
X132253448Y-140028729D01*
X132170186Y-140130186D01*
X132068729Y-140213448D01*
X132032991Y-140242778D01*
X131876466Y-140326443D01*
X131706627Y-140377963D01*
X131640443Y-140384481D01*
X131574260Y-140391000D01*
X131485740Y-140391000D01*
X131419557Y-140384481D01*
X131353373Y-140377963D01*
X131183534Y-140326443D01*
X131027009Y-140242778D01*
X130991271Y-140213448D01*
X130889814Y-140130186D01*
X130806552Y-140028729D01*
X130777222Y-139992991D01*
X130693557Y-139836466D01*
X130642037Y-139666627D01*
X130624641Y-139490000D01*
X130642037Y-139313373D01*
X130693557Y-139143534D01*
X130777222Y-138987009D01*
X130806552Y-138951271D01*
X130889814Y-138849814D01*
X130991602Y-138766280D01*
X131027009Y-138737222D01*
X131183534Y-138653557D01*
X131353373Y-138602037D01*
X131419558Y-138595518D01*
X131485740Y-138589000D01*
X131574260Y-138589000D01*
X131640442Y-138595518D01*
X131640442Y-138595518D01*
G37*
G36*
X146880442Y-138595518D02*
G01*
X146946627Y-138602037D01*
X147116466Y-138653557D01*
X147272991Y-138737222D01*
X147308398Y-138766280D01*
X147410186Y-138849814D01*
X147493448Y-138951271D01*
X147522778Y-138987009D01*
X147606443Y-139143534D01*
X147657963Y-139313373D01*
X147675359Y-139490000D01*
X147657963Y-139666627D01*
X147606443Y-139836466D01*
X147522778Y-139992991D01*
X147493448Y-140028729D01*
X147410186Y-140130186D01*
X147308729Y-140213448D01*
X147272991Y-140242778D01*
X147116466Y-140326443D01*
X146946627Y-140377963D01*
X146880443Y-140384481D01*
X146814260Y-140391000D01*
X146725740Y-140391000D01*
X146659557Y-140384481D01*
X146593373Y-140377963D01*
X146423534Y-140326443D01*
X146267009Y-140242778D01*
X146231271Y-140213448D01*
X146129814Y-140130186D01*
X146046552Y-140028729D01*
X146017222Y-139992991D01*
X145933557Y-139836466D01*
X145882037Y-139666627D01*
X145864641Y-139490000D01*
X145882037Y-139313373D01*
X145933557Y-139143534D01*
X146017222Y-138987009D01*
X146046552Y-138951271D01*
X146129814Y-138849814D01*
X146231602Y-138766280D01*
X146267009Y-138737222D01*
X146423534Y-138653557D01*
X146593373Y-138602037D01*
X146659558Y-138595518D01*
X146725740Y-138589000D01*
X146814260Y-138589000D01*
X146880442Y-138595518D01*
X146880442Y-138595518D01*
G37*
G36*
X115713642Y-130364781D02*
G01*
X115859414Y-130425162D01*
X115859416Y-130425163D01*
X115990608Y-130512822D01*
X116102178Y-130624392D01*
X116189837Y-130755584D01*
X116189838Y-130755586D01*
X116250219Y-130901358D01*
X116281000Y-131056107D01*
X116281000Y-131213893D01*
X116250219Y-131368642D01*
X116189838Y-131514414D01*
X116189837Y-131514416D01*
X116102178Y-131645608D01*
X115990608Y-131757178D01*
X115859416Y-131844837D01*
X115859415Y-131844838D01*
X115859414Y-131844838D01*
X115713642Y-131905219D01*
X115558893Y-131936000D01*
X115401107Y-131936000D01*
X115246358Y-131905219D01*
X115100586Y-131844838D01*
X115100585Y-131844838D01*
X115100584Y-131844837D01*
X114969392Y-131757178D01*
X114857822Y-131645608D01*
X114770163Y-131514416D01*
X114770162Y-131514414D01*
X114709781Y-131368642D01*
X114679000Y-131213893D01*
X114679000Y-131056107D01*
X114709781Y-130901358D01*
X114770162Y-130755586D01*
X114770163Y-130755584D01*
X114857822Y-130624392D01*
X114969392Y-130512822D01*
X115100584Y-130425163D01*
X115100586Y-130425162D01*
X115246358Y-130364781D01*
X115401107Y-130334000D01*
X115558893Y-130334000D01*
X115713642Y-130364781D01*
X115713642Y-130364781D01*
G37*
G36*
X115713642Y-125464781D02*
G01*
X115859414Y-125525162D01*
X115859416Y-125525163D01*
X115990608Y-125612822D01*
X116102178Y-125724392D01*
X116189837Y-125855584D01*
X116189838Y-125855586D01*
X116250219Y-126001358D01*
X116281000Y-126156107D01*
X116281000Y-126313893D01*
X116250219Y-126468642D01*
X116189838Y-126614414D01*
X116189837Y-126614416D01*
X116102178Y-126745608D01*
X115990608Y-126857178D01*
X115859416Y-126944837D01*
X115859415Y-126944838D01*
X115859414Y-126944838D01*
X115713642Y-127005219D01*
X115558893Y-127036000D01*
X115401107Y-127036000D01*
X115246358Y-127005219D01*
X115100586Y-126944838D01*
X115100585Y-126944838D01*
X115100584Y-126944837D01*
X114969392Y-126857178D01*
X114857822Y-126745608D01*
X114770163Y-126614416D01*
X114770162Y-126614414D01*
X114709781Y-126468642D01*
X114679000Y-126313893D01*
X114679000Y-126156107D01*
X114709781Y-126001358D01*
X114770162Y-125855586D01*
X114770163Y-125855584D01*
X114857822Y-125724392D01*
X114969392Y-125612822D01*
X115100584Y-125525163D01*
X115100586Y-125525162D01*
X115246358Y-125464781D01*
X115401107Y-125434000D01*
X115558893Y-125434000D01*
X115713642Y-125464781D01*
X115713642Y-125464781D01*
G37*
G36*
X94175070Y-124838315D02*
G01*
X94197983Y-124842873D01*
X94262735Y-124869694D01*
X94321010Y-124908632D01*
X94370568Y-124958190D01*
X94409506Y-125016465D01*
X94436327Y-125081217D01*
X94450000Y-125149957D01*
X94450000Y-125220043D01*
X94436327Y-125288783D01*
X94409506Y-125353535D01*
X94370568Y-125411810D01*
X94321010Y-125461368D01*
X94262735Y-125500306D01*
X94197983Y-125527127D01*
X94175070Y-125531685D01*
X94129245Y-125540800D01*
X94059155Y-125540800D01*
X94013330Y-125531685D01*
X93990417Y-125527127D01*
X93925665Y-125500306D01*
X93867390Y-125461368D01*
X93817832Y-125411810D01*
X93778894Y-125353535D01*
X93752073Y-125288783D01*
X93738400Y-125220043D01*
X93738400Y-125149957D01*
X93752073Y-125081217D01*
X93778894Y-125016465D01*
X93817832Y-124958190D01*
X93867390Y-124908632D01*
X93925665Y-124869694D01*
X93990417Y-124842873D01*
X94013330Y-124838315D01*
X94059155Y-124829200D01*
X94129245Y-124829200D01*
X94175070Y-124838315D01*
X94175070Y-124838315D01*
G37*
G36*
X90147469Y-124838315D02*
G01*
X90170382Y-124842873D01*
X90235134Y-124869694D01*
X90293409Y-124908632D01*
X90342967Y-124958190D01*
X90356369Y-124978248D01*
X90371911Y-124997186D01*
X90390853Y-125012732D01*
X90412464Y-125024283D01*
X90435913Y-125031396D01*
X90460299Y-125033798D01*
X90484685Y-125031396D01*
X90508134Y-125024283D01*
X90529744Y-125012732D01*
X90548686Y-124997187D01*
X90564229Y-124978248D01*
X90577631Y-124958190D01*
X90627189Y-124908632D01*
X90685464Y-124869694D01*
X90750216Y-124842873D01*
X90773129Y-124838315D01*
X90818954Y-124829200D01*
X90889044Y-124829200D01*
X90934869Y-124838315D01*
X90957782Y-124842873D01*
X91022534Y-124869694D01*
X91080809Y-124908632D01*
X91130367Y-124958190D01*
X91169305Y-125016465D01*
X91196126Y-125081217D01*
X91209799Y-125149957D01*
X91209799Y-125220043D01*
X91196126Y-125288783D01*
X91169305Y-125353535D01*
X91130367Y-125411810D01*
X91080809Y-125461368D01*
X91022534Y-125500306D01*
X90957782Y-125527127D01*
X90934869Y-125531685D01*
X90889044Y-125540800D01*
X90818954Y-125540800D01*
X90773129Y-125531685D01*
X90750216Y-125527127D01*
X90685464Y-125500306D01*
X90627189Y-125461368D01*
X90577631Y-125411810D01*
X90564229Y-125391752D01*
X90548687Y-125372814D01*
X90529745Y-125357268D01*
X90508134Y-125345717D01*
X90484685Y-125338604D01*
X90460299Y-125336202D01*
X90435913Y-125338604D01*
X90412464Y-125345717D01*
X90390854Y-125357268D01*
X90371912Y-125372813D01*
X90356369Y-125391752D01*
X90342967Y-125411810D01*
X90293409Y-125461368D01*
X90235134Y-125500306D01*
X90170382Y-125527127D01*
X90147469Y-125531685D01*
X90101644Y-125540800D01*
X90031554Y-125540800D01*
X89985729Y-125531685D01*
X89962816Y-125527127D01*
X89898064Y-125500306D01*
X89839789Y-125461368D01*
X89790231Y-125411810D01*
X89751293Y-125353535D01*
X89724472Y-125288783D01*
X89710799Y-125220043D01*
X89710799Y-125149957D01*
X89724472Y-125081217D01*
X89751293Y-125016465D01*
X89790231Y-124958190D01*
X89839789Y-124908632D01*
X89898064Y-124869694D01*
X89962816Y-124842873D01*
X89985729Y-124838315D01*
X90031554Y-124829200D01*
X90101644Y-124829200D01*
X90147469Y-124838315D01*
X90147469Y-124838315D01*
G37*
G36*
X95267270Y-124838315D02*
G01*
X95290183Y-124842873D01*
X95354935Y-124869694D01*
X95413210Y-124908632D01*
X95462768Y-124958190D01*
X95501706Y-125016465D01*
X95528527Y-125081217D01*
X95542200Y-125149957D01*
X95542200Y-125220043D01*
X95528527Y-125288783D01*
X95501706Y-125353535D01*
X95462768Y-125411810D01*
X95413210Y-125461368D01*
X95354935Y-125500306D01*
X95290183Y-125527127D01*
X95267270Y-125531685D01*
X95221445Y-125540800D01*
X95151355Y-125540800D01*
X95105530Y-125531685D01*
X95082617Y-125527127D01*
X95017865Y-125500306D01*
X94959590Y-125461368D01*
X94910032Y-125411810D01*
X94871094Y-125353535D01*
X94844273Y-125288783D01*
X94830600Y-125220043D01*
X94830600Y-125149957D01*
X94844273Y-125081217D01*
X94871094Y-125016465D01*
X94910032Y-124958190D01*
X94959590Y-124908632D01*
X95017865Y-124869694D01*
X95082617Y-124842873D01*
X95105530Y-124838315D01*
X95151355Y-124829200D01*
X95221445Y-124829200D01*
X95267270Y-124838315D01*
X95267270Y-124838315D01*
G37*
G36*
X94251489Y-123388448D02*
G01*
X94251491Y-123388449D01*
X94251492Y-123388449D01*
X94320866Y-123417184D01*
X94383301Y-123458902D01*
X94436397Y-123511998D01*
X94478115Y-123574433D01*
X94506850Y-123643807D01*
X94521500Y-123717454D01*
X94521500Y-123792544D01*
X94506850Y-123866191D01*
X94478115Y-123935565D01*
X94436397Y-123998000D01*
X94383301Y-124051096D01*
X94320866Y-124092814D01*
X94251492Y-124121549D01*
X94251491Y-124121549D01*
X94251489Y-124121550D01*
X94177846Y-124136199D01*
X94102754Y-124136199D01*
X94029111Y-124121550D01*
X94029109Y-124121549D01*
X94029108Y-124121549D01*
X93959734Y-124092814D01*
X93897299Y-124051096D01*
X93844203Y-123998000D01*
X93802485Y-123935565D01*
X93773750Y-123866191D01*
X93759100Y-123792544D01*
X93759100Y-123717454D01*
X93773750Y-123643807D01*
X93802485Y-123574433D01*
X93844203Y-123511998D01*
X93897299Y-123458902D01*
X93959734Y-123417184D01*
X94029108Y-123388449D01*
X94029109Y-123388449D01*
X94029111Y-123388448D01*
X94102754Y-123373799D01*
X94177846Y-123373799D01*
X94251489Y-123388448D01*
X94251489Y-123388448D01*
G37*
G36*
X94251489Y-117608450D02*
G01*
X94251491Y-117608451D01*
X94251492Y-117608451D01*
X94320866Y-117637186D01*
X94383301Y-117678904D01*
X94436397Y-117732000D01*
X94478115Y-117794435D01*
X94506850Y-117863809D01*
X94521500Y-117937456D01*
X94521500Y-118012546D01*
X94506850Y-118086193D01*
X94478115Y-118155567D01*
X94436397Y-118218002D01*
X94383301Y-118271098D01*
X94320866Y-118312816D01*
X94251492Y-118341551D01*
X94251491Y-118341551D01*
X94251489Y-118341552D01*
X94177846Y-118356201D01*
X94102754Y-118356201D01*
X94029111Y-118341552D01*
X94029109Y-118341551D01*
X94029108Y-118341551D01*
X93959734Y-118312816D01*
X93897299Y-118271098D01*
X93844203Y-118218002D01*
X93802485Y-118155567D01*
X93773750Y-118086193D01*
X93759100Y-118012546D01*
X93759100Y-117937456D01*
X93773750Y-117863809D01*
X93802485Y-117794435D01*
X93844203Y-117732000D01*
X93897299Y-117678904D01*
X93959734Y-117637186D01*
X94029108Y-117608451D01*
X94029109Y-117608451D01*
X94029111Y-117608450D01*
X94102754Y-117593801D01*
X94177846Y-117593801D01*
X94251489Y-117608450D01*
X94251489Y-117608450D01*
G37*
G36*
X94175070Y-116198315D02*
G01*
X94197983Y-116202873D01*
X94262735Y-116229694D01*
X94321010Y-116268632D01*
X94370568Y-116318190D01*
X94409506Y-116376465D01*
X94436327Y-116441217D01*
X94450000Y-116509957D01*
X94450000Y-116580043D01*
X94436327Y-116648783D01*
X94409506Y-116713535D01*
X94370568Y-116771810D01*
X94321010Y-116821368D01*
X94262735Y-116860306D01*
X94197983Y-116887127D01*
X94175070Y-116891685D01*
X94129245Y-116900800D01*
X94059155Y-116900800D01*
X94013330Y-116891685D01*
X93990417Y-116887127D01*
X93925665Y-116860306D01*
X93867390Y-116821368D01*
X93817832Y-116771810D01*
X93778894Y-116713535D01*
X93752073Y-116648783D01*
X93738400Y-116580043D01*
X93738400Y-116509957D01*
X93752073Y-116441217D01*
X93778894Y-116376465D01*
X93817832Y-116318190D01*
X93867390Y-116268632D01*
X93925665Y-116229694D01*
X93990417Y-116202873D01*
X94013330Y-116198315D01*
X94059155Y-116189200D01*
X94129245Y-116189200D01*
X94175070Y-116198315D01*
X94175070Y-116198315D01*
G37*
G36*
X95267270Y-116198315D02*
G01*
X95290183Y-116202873D01*
X95354935Y-116229694D01*
X95413210Y-116268632D01*
X95462768Y-116318190D01*
X95501706Y-116376465D01*
X95528527Y-116441217D01*
X95542200Y-116509957D01*
X95542200Y-116580043D01*
X95528527Y-116648783D01*
X95501706Y-116713535D01*
X95462768Y-116771810D01*
X95413210Y-116821368D01*
X95354935Y-116860306D01*
X95290183Y-116887127D01*
X95267270Y-116891685D01*
X95221445Y-116900800D01*
X95151355Y-116900800D01*
X95105530Y-116891685D01*
X95082617Y-116887127D01*
X95017865Y-116860306D01*
X94959590Y-116821368D01*
X94910032Y-116771810D01*
X94871094Y-116713535D01*
X94844273Y-116648783D01*
X94830600Y-116580043D01*
X94830600Y-116509957D01*
X94844273Y-116441217D01*
X94871094Y-116376465D01*
X94910032Y-116318190D01*
X94959590Y-116268632D01*
X95017865Y-116229694D01*
X95082617Y-116202873D01*
X95105530Y-116198315D01*
X95151355Y-116189200D01*
X95221445Y-116189200D01*
X95267270Y-116198315D01*
X95267270Y-116198315D01*
G37*
G36*
X90147469Y-116198315D02*
G01*
X90170382Y-116202873D01*
X90235134Y-116229694D01*
X90293409Y-116268632D01*
X90342967Y-116318190D01*
X90356369Y-116338248D01*
X90371911Y-116357186D01*
X90390853Y-116372732D01*
X90412464Y-116384283D01*
X90435913Y-116391396D01*
X90460299Y-116393798D01*
X90484685Y-116391396D01*
X90508134Y-116384283D01*
X90529744Y-116372732D01*
X90548686Y-116357187D01*
X90564229Y-116338248D01*
X90577631Y-116318190D01*
X90627189Y-116268632D01*
X90685464Y-116229694D01*
X90750216Y-116202873D01*
X90773129Y-116198315D01*
X90818954Y-116189200D01*
X90889044Y-116189200D01*
X90934869Y-116198315D01*
X90957782Y-116202873D01*
X91022534Y-116229694D01*
X91080809Y-116268632D01*
X91130367Y-116318190D01*
X91169305Y-116376465D01*
X91196126Y-116441217D01*
X91209799Y-116509957D01*
X91209799Y-116580043D01*
X91196126Y-116648783D01*
X91169305Y-116713535D01*
X91130367Y-116771810D01*
X91080809Y-116821368D01*
X91022534Y-116860306D01*
X90957782Y-116887127D01*
X90934869Y-116891685D01*
X90889044Y-116900800D01*
X90818954Y-116900800D01*
X90773129Y-116891685D01*
X90750216Y-116887127D01*
X90685464Y-116860306D01*
X90627189Y-116821368D01*
X90577631Y-116771810D01*
X90564229Y-116751752D01*
X90548687Y-116732814D01*
X90529745Y-116717268D01*
X90508134Y-116705717D01*
X90484685Y-116698604D01*
X90460299Y-116696202D01*
X90435913Y-116698604D01*
X90412464Y-116705717D01*
X90390854Y-116717268D01*
X90371912Y-116732813D01*
X90356369Y-116751752D01*
X90342967Y-116771810D01*
X90293409Y-116821368D01*
X90235134Y-116860306D01*
X90170382Y-116887127D01*
X90147469Y-116891685D01*
X90101644Y-116900800D01*
X90031554Y-116900800D01*
X89985729Y-116891685D01*
X89962816Y-116887127D01*
X89898064Y-116860306D01*
X89839789Y-116821368D01*
X89790231Y-116771810D01*
X89751293Y-116713535D01*
X89724472Y-116648783D01*
X89710799Y-116580043D01*
X89710799Y-116509957D01*
X89724472Y-116441217D01*
X89751293Y-116376465D01*
X89790231Y-116318190D01*
X89839789Y-116268632D01*
X89898064Y-116229694D01*
X89962816Y-116202873D01*
X89985729Y-116198315D01*
X90031554Y-116189200D01*
X90101644Y-116189200D01*
X90147469Y-116198315D01*
X90147469Y-116198315D01*
G37*
G36*
X128769890Y-106909017D02*
G01*
X128888364Y-106958091D01*
X128994988Y-107029335D01*
X129085665Y-107120012D01*
X129156909Y-107226636D01*
X129205983Y-107345110D01*
X129231000Y-107470882D01*
X129231000Y-107599118D01*
X129205983Y-107724890D01*
X129156909Y-107843364D01*
X129085665Y-107949988D01*
X128994988Y-108040665D01*
X128888364Y-108111909D01*
X128888363Y-108111910D01*
X128888362Y-108111910D01*
X128769890Y-108160983D01*
X128644119Y-108186000D01*
X128515881Y-108186000D01*
X128390110Y-108160983D01*
X128271638Y-108111910D01*
X128271637Y-108111910D01*
X128271636Y-108111909D01*
X128165012Y-108040665D01*
X128074335Y-107949988D01*
X128003091Y-107843364D01*
X127954017Y-107724890D01*
X127929000Y-107599118D01*
X127929000Y-107470882D01*
X127954017Y-107345110D01*
X128003091Y-107226636D01*
X128074335Y-107120012D01*
X128165012Y-107029335D01*
X128271636Y-106958091D01*
X128390110Y-106909017D01*
X128515881Y-106884000D01*
X128644119Y-106884000D01*
X128769890Y-106909017D01*
X128769890Y-106909017D01*
G37*
G36*
X129231000Y-106186000D02*
G01*
X127929000Y-106186000D01*
X127929000Y-104884000D01*
X129231000Y-104884000D01*
X129231000Y-106186000D01*
X129231000Y-106186000D01*
G37*
G36*
X93859487Y-98093996D02*
G01*
X94096253Y-98192068D01*
X94096255Y-98192069D01*
X94309339Y-98334447D01*
X94490553Y-98515661D01*
X94632932Y-98728747D01*
X94731004Y-98965513D01*
X94781000Y-99216861D01*
X94781000Y-99473139D01*
X94731004Y-99724487D01*
X94632932Y-99961253D01*
X94632931Y-99961255D01*
X94490553Y-100174339D01*
X94309339Y-100355553D01*
X94096255Y-100497931D01*
X94096254Y-100497932D01*
X94096253Y-100497932D01*
X93859487Y-100596004D01*
X93608139Y-100646000D01*
X93351861Y-100646000D01*
X93100513Y-100596004D01*
X92863747Y-100497932D01*
X92863746Y-100497932D01*
X92863745Y-100497931D01*
X92650661Y-100355553D01*
X92469447Y-100174339D01*
X92327069Y-99961255D01*
X92327068Y-99961253D01*
X92228996Y-99724487D01*
X92179000Y-99473139D01*
X92179000Y-99216861D01*
X92228996Y-98965513D01*
X92327068Y-98728747D01*
X92469447Y-98515661D01*
X92650661Y-98334447D01*
X92863745Y-98192069D01*
X92863747Y-98192068D01*
X93100513Y-98093996D01*
X93351861Y-98044000D01*
X93608139Y-98044000D01*
X93859487Y-98093996D01*
X93859487Y-98093996D01*
G37*
G36*
X129481000Y-96016000D02*
G01*
X127679000Y-96016000D01*
X127679000Y-94214000D01*
X129481000Y-94214000D01*
X129481000Y-96016000D01*
X129481000Y-96016000D01*
G37*
G36*
X107481000Y-95986000D02*
G01*
X105679000Y-95986000D01*
X105679000Y-94184000D01*
X107481000Y-94184000D01*
X107481000Y-95986000D01*
X107481000Y-95986000D01*
G37*
G36*
X94781000Y-95646000D02*
G01*
X92179000Y-95646000D01*
X92179000Y-93044000D01*
X94781000Y-93044000D01*
X94781000Y-95646000D01*
X94781000Y-95646000D01*
G37*
G36*
X128690443Y-91680519D02*
G01*
X128756627Y-91687037D01*
X128926466Y-91738557D01*
X129082991Y-91822222D01*
X129118729Y-91851552D01*
X129220186Y-91934814D01*
X129303448Y-92036271D01*
X129332778Y-92072009D01*
X129332779Y-92072011D01*
X129400407Y-92198532D01*
X129416443Y-92228534D01*
X129467963Y-92398373D01*
X129485359Y-92575000D01*
X129467963Y-92751627D01*
X129416443Y-92921466D01*
X129332778Y-93077991D01*
X129303448Y-93113729D01*
X129220186Y-93215186D01*
X129119546Y-93297778D01*
X129082991Y-93327778D01*
X129082989Y-93327779D01*
X128982594Y-93381442D01*
X128926466Y-93411443D01*
X128756627Y-93462963D01*
X128690443Y-93469481D01*
X128624260Y-93476000D01*
X128535740Y-93476000D01*
X128469558Y-93469482D01*
X128403373Y-93462963D01*
X128233534Y-93411443D01*
X128177407Y-93381442D01*
X128077011Y-93327779D01*
X128077009Y-93327778D01*
X128040454Y-93297778D01*
X127939814Y-93215186D01*
X127856552Y-93113729D01*
X127827222Y-93077991D01*
X127743557Y-92921466D01*
X127692037Y-92751627D01*
X127674641Y-92575000D01*
X127692037Y-92398373D01*
X127743557Y-92228534D01*
X127759594Y-92198532D01*
X127827221Y-92072011D01*
X127827222Y-92072009D01*
X127856552Y-92036271D01*
X127939814Y-91934814D01*
X128041271Y-91851552D01*
X128077009Y-91822222D01*
X128233534Y-91738557D01*
X128403373Y-91687037D01*
X128469557Y-91680519D01*
X128535740Y-91674000D01*
X128624260Y-91674000D01*
X128690443Y-91680519D01*
X128690443Y-91680519D01*
G37*
G36*
X106690443Y-91650519D02*
G01*
X106756627Y-91657037D01*
X106926466Y-91708557D01*
X106926468Y-91708558D01*
X107004728Y-91750389D01*
X107082991Y-91792222D01*
X107118729Y-91821552D01*
X107220186Y-91904814D01*
X107303448Y-92006271D01*
X107332778Y-92042009D01*
X107416443Y-92198534D01*
X107467963Y-92368373D01*
X107485359Y-92545000D01*
X107467963Y-92721627D01*
X107416443Y-92891466D01*
X107416442Y-92891468D01*
X107374611Y-92969728D01*
X107332778Y-93047991D01*
X107308159Y-93077989D01*
X107220186Y-93185186D01*
X107118729Y-93268448D01*
X107082991Y-93297778D01*
X106926466Y-93381443D01*
X106756627Y-93432963D01*
X106690442Y-93439482D01*
X106624260Y-93446000D01*
X106535740Y-93446000D01*
X106469558Y-93439482D01*
X106403373Y-93432963D01*
X106233534Y-93381443D01*
X106077009Y-93297778D01*
X106041271Y-93268448D01*
X105939814Y-93185186D01*
X105851841Y-93077989D01*
X105827222Y-93047991D01*
X105785390Y-92969729D01*
X105743558Y-92891468D01*
X105743557Y-92891466D01*
X105692037Y-92721627D01*
X105674641Y-92545000D01*
X105692037Y-92368373D01*
X105743557Y-92198534D01*
X105827222Y-92042009D01*
X105856552Y-92006271D01*
X105939814Y-91904814D01*
X106041271Y-91821552D01*
X106077009Y-91792222D01*
X106155272Y-91750389D01*
X106233532Y-91708558D01*
X106233534Y-91708557D01*
X106403373Y-91657037D01*
X106469557Y-91650519D01*
X106535740Y-91644000D01*
X106624260Y-91644000D01*
X106690443Y-91650519D01*
X106690443Y-91650519D01*
G37*
G36*
X120125443Y-86405519D02*
G01*
X120191627Y-86412037D01*
X120361466Y-86463557D01*
X120517991Y-86547222D01*
X120553729Y-86576552D01*
X120655186Y-86659814D01*
X120738448Y-86761271D01*
X120767778Y-86797009D01*
X120851443Y-86953534D01*
X120902963Y-87123373D01*
X120920359Y-87300000D01*
X120902963Y-87476627D01*
X120851443Y-87646466D01*
X120767778Y-87802991D01*
X120738448Y-87838729D01*
X120655186Y-87940186D01*
X120553729Y-88023448D01*
X120517991Y-88052778D01*
X120361466Y-88136443D01*
X120191627Y-88187963D01*
X120125443Y-88194481D01*
X120059260Y-88201000D01*
X119970740Y-88201000D01*
X119904557Y-88194481D01*
X119838373Y-88187963D01*
X119668534Y-88136443D01*
X119512009Y-88052778D01*
X119476271Y-88023448D01*
X119374814Y-87940186D01*
X119291552Y-87838729D01*
X119262222Y-87802991D01*
X119178557Y-87646466D01*
X119127037Y-87476627D01*
X119109641Y-87300000D01*
X119127037Y-87123373D01*
X119178557Y-86953534D01*
X119262222Y-86797009D01*
X119291552Y-86761271D01*
X119374814Y-86659814D01*
X119476271Y-86576552D01*
X119512009Y-86547222D01*
X119668534Y-86463557D01*
X119838373Y-86412037D01*
X119904557Y-86405519D01*
X119970740Y-86399000D01*
X120059260Y-86399000D01*
X120125443Y-86405519D01*
X120125443Y-86405519D01*
G37*
G36*
X117585443Y-86405519D02*
G01*
X117651627Y-86412037D01*
X117821466Y-86463557D01*
X117977991Y-86547222D01*
X118013729Y-86576552D01*
X118115186Y-86659814D01*
X118198448Y-86761271D01*
X118227778Y-86797009D01*
X118311443Y-86953534D01*
X118362963Y-87123373D01*
X118380359Y-87300000D01*
X118362963Y-87476627D01*
X118311443Y-87646466D01*
X118227778Y-87802991D01*
X118198448Y-87838729D01*
X118115186Y-87940186D01*
X118013729Y-88023448D01*
X117977991Y-88052778D01*
X117821466Y-88136443D01*
X117651627Y-88187963D01*
X117585443Y-88194481D01*
X117519260Y-88201000D01*
X117430740Y-88201000D01*
X117364557Y-88194481D01*
X117298373Y-88187963D01*
X117128534Y-88136443D01*
X116972009Y-88052778D01*
X116936271Y-88023448D01*
X116834814Y-87940186D01*
X116751552Y-87838729D01*
X116722222Y-87802991D01*
X116638557Y-87646466D01*
X116587037Y-87476627D01*
X116569641Y-87300000D01*
X116587037Y-87123373D01*
X116638557Y-86953534D01*
X116722222Y-86797009D01*
X116751552Y-86761271D01*
X116834814Y-86659814D01*
X116936271Y-86576552D01*
X116972009Y-86547222D01*
X117128534Y-86463557D01*
X117298373Y-86412037D01*
X117364557Y-86405519D01*
X117430740Y-86399000D01*
X117519260Y-86399000D01*
X117585443Y-86405519D01*
X117585443Y-86405519D01*
G37*
G36*
X115836000Y-88201000D02*
G01*
X114034000Y-88201000D01*
X114034000Y-86399000D01*
X115836000Y-86399000D01*
X115836000Y-88201000D01*
X115836000Y-88201000D01*
G37*
G36*
X164724549Y-81871116D02*
G01*
X164835734Y-81893232D01*
X165045203Y-81979997D01*
X165233720Y-82105960D01*
X165394040Y-82266280D01*
X165520003Y-82454797D01*
X165606768Y-82664266D01*
X165651000Y-82886636D01*
X165651000Y-83113364D01*
X165606768Y-83335734D01*
X165520003Y-83545203D01*
X165394040Y-83733720D01*
X165233720Y-83894040D01*
X165045203Y-84020003D01*
X164835734Y-84106768D01*
X164724549Y-84128884D01*
X164613365Y-84151000D01*
X164386635Y-84151000D01*
X164275451Y-84128884D01*
X164164266Y-84106768D01*
X163954797Y-84020003D01*
X163766280Y-83894040D01*
X163605960Y-83733720D01*
X163479997Y-83545203D01*
X163393232Y-83335734D01*
X163349000Y-83113364D01*
X163349000Y-82886636D01*
X163393232Y-82664266D01*
X163479997Y-82454797D01*
X163605960Y-82266280D01*
X163766280Y-82105960D01*
X163954797Y-81979997D01*
X164164266Y-81893232D01*
X164275451Y-81871116D01*
X164386635Y-81849000D01*
X164613365Y-81849000D01*
X164724549Y-81871116D01*
X164724549Y-81871116D01*
G37*
G36*
X91224549Y-81871116D02*
G01*
X91335734Y-81893232D01*
X91545203Y-81979997D01*
X91733720Y-82105960D01*
X91894040Y-82266280D01*
X92020003Y-82454797D01*
X92106768Y-82664266D01*
X92151000Y-82886636D01*
X92151000Y-83113364D01*
X92106768Y-83335734D01*
X92020003Y-83545203D01*
X91894040Y-83733720D01*
X91733720Y-83894040D01*
X91545203Y-84020003D01*
X91335734Y-84106768D01*
X91224549Y-84128884D01*
X91113365Y-84151000D01*
X90886635Y-84151000D01*
X90775451Y-84128884D01*
X90664266Y-84106768D01*
X90454797Y-84020003D01*
X90266280Y-83894040D01*
X90105960Y-83733720D01*
X89979997Y-83545203D01*
X89893232Y-83335734D01*
X89849000Y-83113364D01*
X89849000Y-82886636D01*
X89893232Y-82664266D01*
X89979997Y-82454797D01*
X90105960Y-82266280D01*
X90266280Y-82105960D01*
X90454797Y-81979997D01*
X90664266Y-81893232D01*
X90775451Y-81871116D01*
X90886635Y-81849000D01*
X91113365Y-81849000D01*
X91224549Y-81871116D01*
X91224549Y-81871116D01*
G37*
G36*
X146710442Y-81805518D02*
G01*
X146776627Y-81812037D01*
X146946466Y-81863557D01*
X147102991Y-81947222D01*
X147138729Y-81976552D01*
X147240186Y-82059814D01*
X147323448Y-82161271D01*
X147352778Y-82197009D01*
X147436443Y-82353534D01*
X147487963Y-82523373D01*
X147505359Y-82700000D01*
X147487963Y-82876627D01*
X147436443Y-83046466D01*
X147352778Y-83202991D01*
X147323448Y-83238729D01*
X147240186Y-83340186D01*
X147138729Y-83423448D01*
X147102991Y-83452778D01*
X146946466Y-83536443D01*
X146776627Y-83587963D01*
X146710443Y-83594481D01*
X146644260Y-83601000D01*
X146555740Y-83601000D01*
X146489557Y-83594481D01*
X146423373Y-83587963D01*
X146253534Y-83536443D01*
X146097009Y-83452778D01*
X146061271Y-83423448D01*
X145959814Y-83340186D01*
X145876552Y-83238729D01*
X145847222Y-83202991D01*
X145763557Y-83046466D01*
X145712037Y-82876627D01*
X145694641Y-82700000D01*
X145712037Y-82523373D01*
X145763557Y-82353534D01*
X145847222Y-82197009D01*
X145876552Y-82161271D01*
X145959814Y-82059814D01*
X146061271Y-81976552D01*
X146097009Y-81947222D01*
X146253534Y-81863557D01*
X146423373Y-81812037D01*
X146489558Y-81805518D01*
X146555740Y-81799000D01*
X146644260Y-81799000D01*
X146710442Y-81805518D01*
X146710442Y-81805518D01*
G37*
G36*
X154330442Y-81805518D02*
G01*
X154396627Y-81812037D01*
X154566466Y-81863557D01*
X154722991Y-81947222D01*
X154758729Y-81976552D01*
X154860186Y-82059814D01*
X154943448Y-82161271D01*
X154972778Y-82197009D01*
X155056443Y-82353534D01*
X155107963Y-82523373D01*
X155125359Y-82700000D01*
X155107963Y-82876627D01*
X155056443Y-83046466D01*
X154972778Y-83202991D01*
X154943448Y-83238729D01*
X154860186Y-83340186D01*
X154758729Y-83423448D01*
X154722991Y-83452778D01*
X154566466Y-83536443D01*
X154396627Y-83587963D01*
X154330443Y-83594481D01*
X154264260Y-83601000D01*
X154175740Y-83601000D01*
X154109557Y-83594481D01*
X154043373Y-83587963D01*
X153873534Y-83536443D01*
X153717009Y-83452778D01*
X153681271Y-83423448D01*
X153579814Y-83340186D01*
X153496552Y-83238729D01*
X153467222Y-83202991D01*
X153383557Y-83046466D01*
X153332037Y-82876627D01*
X153314641Y-82700000D01*
X153332037Y-82523373D01*
X153383557Y-82353534D01*
X153467222Y-82197009D01*
X153496552Y-82161271D01*
X153579814Y-82059814D01*
X153681271Y-81976552D01*
X153717009Y-81947222D01*
X153873534Y-81863557D01*
X154043373Y-81812037D01*
X154109558Y-81805518D01*
X154175740Y-81799000D01*
X154264260Y-81799000D01*
X154330442Y-81805518D01*
X154330442Y-81805518D01*
G37*
G36*
X151790442Y-81805518D02*
G01*
X151856627Y-81812037D01*
X152026466Y-81863557D01*
X152182991Y-81947222D01*
X152218729Y-81976552D01*
X152320186Y-82059814D01*
X152403448Y-82161271D01*
X152432778Y-82197009D01*
X152516443Y-82353534D01*
X152567963Y-82523373D01*
X152585359Y-82700000D01*
X152567963Y-82876627D01*
X152516443Y-83046466D01*
X152432778Y-83202991D01*
X152403448Y-83238729D01*
X152320186Y-83340186D01*
X152218729Y-83423448D01*
X152182991Y-83452778D01*
X152026466Y-83536443D01*
X151856627Y-83587963D01*
X151790443Y-83594481D01*
X151724260Y-83601000D01*
X151635740Y-83601000D01*
X151569557Y-83594481D01*
X151503373Y-83587963D01*
X151333534Y-83536443D01*
X151177009Y-83452778D01*
X151141271Y-83423448D01*
X151039814Y-83340186D01*
X150956552Y-83238729D01*
X150927222Y-83202991D01*
X150843557Y-83046466D01*
X150792037Y-82876627D01*
X150774641Y-82700000D01*
X150792037Y-82523373D01*
X150843557Y-82353534D01*
X150927222Y-82197009D01*
X150956552Y-82161271D01*
X151039814Y-82059814D01*
X151141271Y-81976552D01*
X151177009Y-81947222D01*
X151333534Y-81863557D01*
X151503373Y-81812037D01*
X151569558Y-81805518D01*
X151635740Y-81799000D01*
X151724260Y-81799000D01*
X151790442Y-81805518D01*
X151790442Y-81805518D01*
G37*
G36*
X149250442Y-81805518D02*
G01*
X149316627Y-81812037D01*
X149486466Y-81863557D01*
X149642991Y-81947222D01*
X149678729Y-81976552D01*
X149780186Y-82059814D01*
X149863448Y-82161271D01*
X149892778Y-82197009D01*
X149976443Y-82353534D01*
X150027963Y-82523373D01*
X150045359Y-82700000D01*
X150027963Y-82876627D01*
X149976443Y-83046466D01*
X149892778Y-83202991D01*
X149863448Y-83238729D01*
X149780186Y-83340186D01*
X149678729Y-83423448D01*
X149642991Y-83452778D01*
X149486466Y-83536443D01*
X149316627Y-83587963D01*
X149250443Y-83594481D01*
X149184260Y-83601000D01*
X149095740Y-83601000D01*
X149029557Y-83594481D01*
X148963373Y-83587963D01*
X148793534Y-83536443D01*
X148637009Y-83452778D01*
X148601271Y-83423448D01*
X148499814Y-83340186D01*
X148416552Y-83238729D01*
X148387222Y-83202991D01*
X148303557Y-83046466D01*
X148252037Y-82876627D01*
X148234641Y-82700000D01*
X148252037Y-82523373D01*
X148303557Y-82353534D01*
X148387222Y-82197009D01*
X148416552Y-82161271D01*
X148499814Y-82059814D01*
X148601271Y-81976552D01*
X148637009Y-81947222D01*
X148793534Y-81863557D01*
X148963373Y-81812037D01*
X149029558Y-81805518D01*
X149095740Y-81799000D01*
X149184260Y-81799000D01*
X149250442Y-81805518D01*
X149250442Y-81805518D01*
G37*
G36*
X106070442Y-81805518D02*
G01*
X106136627Y-81812037D01*
X106306466Y-81863557D01*
X106462991Y-81947222D01*
X106498729Y-81976552D01*
X106600186Y-82059814D01*
X106683448Y-82161271D01*
X106712778Y-82197009D01*
X106796443Y-82353534D01*
X106847963Y-82523373D01*
X106865359Y-82700000D01*
X106847963Y-82876627D01*
X106796443Y-83046466D01*
X106712778Y-83202991D01*
X106683448Y-83238729D01*
X106600186Y-83340186D01*
X106498729Y-83423448D01*
X106462991Y-83452778D01*
X106306466Y-83536443D01*
X106136627Y-83587963D01*
X106070443Y-83594481D01*
X106004260Y-83601000D01*
X105915740Y-83601000D01*
X105849557Y-83594481D01*
X105783373Y-83587963D01*
X105613534Y-83536443D01*
X105457009Y-83452778D01*
X105421271Y-83423448D01*
X105319814Y-83340186D01*
X105236552Y-83238729D01*
X105207222Y-83202991D01*
X105123557Y-83046466D01*
X105072037Y-82876627D01*
X105054641Y-82700000D01*
X105072037Y-82523373D01*
X105123557Y-82353534D01*
X105207222Y-82197009D01*
X105236552Y-82161271D01*
X105319814Y-82059814D01*
X105421271Y-81976552D01*
X105457009Y-81947222D01*
X105613534Y-81863557D01*
X105783373Y-81812037D01*
X105849558Y-81805518D01*
X105915740Y-81799000D01*
X106004260Y-81799000D01*
X106070442Y-81805518D01*
X106070442Y-81805518D01*
G37*
G36*
X108610442Y-81805518D02*
G01*
X108676627Y-81812037D01*
X108846466Y-81863557D01*
X109002991Y-81947222D01*
X109038729Y-81976552D01*
X109140186Y-82059814D01*
X109223448Y-82161271D01*
X109252778Y-82197009D01*
X109336443Y-82353534D01*
X109387963Y-82523373D01*
X109405359Y-82700000D01*
X109387963Y-82876627D01*
X109336443Y-83046466D01*
X109252778Y-83202991D01*
X109223448Y-83238729D01*
X109140186Y-83340186D01*
X109038729Y-83423448D01*
X109002991Y-83452778D01*
X108846466Y-83536443D01*
X108676627Y-83587963D01*
X108610443Y-83594481D01*
X108544260Y-83601000D01*
X108455740Y-83601000D01*
X108389557Y-83594481D01*
X108323373Y-83587963D01*
X108153534Y-83536443D01*
X107997009Y-83452778D01*
X107961271Y-83423448D01*
X107859814Y-83340186D01*
X107776552Y-83238729D01*
X107747222Y-83202991D01*
X107663557Y-83046466D01*
X107612037Y-82876627D01*
X107594641Y-82700000D01*
X107612037Y-82523373D01*
X107663557Y-82353534D01*
X107747222Y-82197009D01*
X107776552Y-82161271D01*
X107859814Y-82059814D01*
X107961271Y-81976552D01*
X107997009Y-81947222D01*
X108153534Y-81863557D01*
X108323373Y-81812037D01*
X108389558Y-81805518D01*
X108455740Y-81799000D01*
X108544260Y-81799000D01*
X108610442Y-81805518D01*
X108610442Y-81805518D01*
G37*
G36*
X111150442Y-81805518D02*
G01*
X111216627Y-81812037D01*
X111386466Y-81863557D01*
X111542991Y-81947222D01*
X111578729Y-81976552D01*
X111680186Y-82059814D01*
X111763448Y-82161271D01*
X111792778Y-82197009D01*
X111876443Y-82353534D01*
X111927963Y-82523373D01*
X111945359Y-82700000D01*
X111927963Y-82876627D01*
X111876443Y-83046466D01*
X111792778Y-83202991D01*
X111763448Y-83238729D01*
X111680186Y-83340186D01*
X111578729Y-83423448D01*
X111542991Y-83452778D01*
X111386466Y-83536443D01*
X111216627Y-83587963D01*
X111150443Y-83594481D01*
X111084260Y-83601000D01*
X110995740Y-83601000D01*
X110929557Y-83594481D01*
X110863373Y-83587963D01*
X110693534Y-83536443D01*
X110537009Y-83452778D01*
X110501271Y-83423448D01*
X110399814Y-83340186D01*
X110316552Y-83238729D01*
X110287222Y-83202991D01*
X110203557Y-83046466D01*
X110152037Y-82876627D01*
X110134641Y-82700000D01*
X110152037Y-82523373D01*
X110203557Y-82353534D01*
X110287222Y-82197009D01*
X110316552Y-82161271D01*
X110399814Y-82059814D01*
X110501271Y-81976552D01*
X110537009Y-81947222D01*
X110693534Y-81863557D01*
X110863373Y-81812037D01*
X110929558Y-81805518D01*
X110995740Y-81799000D01*
X111084260Y-81799000D01*
X111150442Y-81805518D01*
X111150442Y-81805518D01*
G37*
G36*
X113690442Y-81805518D02*
G01*
X113756627Y-81812037D01*
X113926466Y-81863557D01*
X114082991Y-81947222D01*
X114118729Y-81976552D01*
X114220186Y-82059814D01*
X114303448Y-82161271D01*
X114332778Y-82197009D01*
X114416443Y-82353534D01*
X114467963Y-82523373D01*
X114485359Y-82700000D01*
X114467963Y-82876627D01*
X114416443Y-83046466D01*
X114332778Y-83202991D01*
X114303448Y-83238729D01*
X114220186Y-83340186D01*
X114118729Y-83423448D01*
X114082991Y-83452778D01*
X113926466Y-83536443D01*
X113756627Y-83587963D01*
X113690443Y-83594481D01*
X113624260Y-83601000D01*
X113535740Y-83601000D01*
X113469557Y-83594481D01*
X113403373Y-83587963D01*
X113233534Y-83536443D01*
X113077009Y-83452778D01*
X113041271Y-83423448D01*
X112939814Y-83340186D01*
X112856552Y-83238729D01*
X112827222Y-83202991D01*
X112743557Y-83046466D01*
X112692037Y-82876627D01*
X112674641Y-82700000D01*
X112692037Y-82523373D01*
X112743557Y-82353534D01*
X112827222Y-82197009D01*
X112856552Y-82161271D01*
X112939814Y-82059814D01*
X113041271Y-81976552D01*
X113077009Y-81947222D01*
X113233534Y-81863557D01*
X113403373Y-81812037D01*
X113469558Y-81805518D01*
X113535740Y-81799000D01*
X113624260Y-81799000D01*
X113690442Y-81805518D01*
X113690442Y-81805518D01*
G37*
G36*
X116230442Y-81805518D02*
G01*
X116296627Y-81812037D01*
X116466466Y-81863557D01*
X116622991Y-81947222D01*
X116658729Y-81976552D01*
X116760186Y-82059814D01*
X116843448Y-82161271D01*
X116872778Y-82197009D01*
X116956443Y-82353534D01*
X117007963Y-82523373D01*
X117025359Y-82700000D01*
X117007963Y-82876627D01*
X116956443Y-83046466D01*
X116872778Y-83202991D01*
X116843448Y-83238729D01*
X116760186Y-83340186D01*
X116658729Y-83423448D01*
X116622991Y-83452778D01*
X116466466Y-83536443D01*
X116296627Y-83587963D01*
X116230443Y-83594481D01*
X116164260Y-83601000D01*
X116075740Y-83601000D01*
X116009557Y-83594481D01*
X115943373Y-83587963D01*
X115773534Y-83536443D01*
X115617009Y-83452778D01*
X115581271Y-83423448D01*
X115479814Y-83340186D01*
X115396552Y-83238729D01*
X115367222Y-83202991D01*
X115283557Y-83046466D01*
X115232037Y-82876627D01*
X115214641Y-82700000D01*
X115232037Y-82523373D01*
X115283557Y-82353534D01*
X115367222Y-82197009D01*
X115396552Y-82161271D01*
X115479814Y-82059814D01*
X115581271Y-81976552D01*
X115617009Y-81947222D01*
X115773534Y-81863557D01*
X115943373Y-81812037D01*
X116009558Y-81805518D01*
X116075740Y-81799000D01*
X116164260Y-81799000D01*
X116230442Y-81805518D01*
X116230442Y-81805518D01*
G37*
G36*
X118770442Y-81805518D02*
G01*
X118836627Y-81812037D01*
X119006466Y-81863557D01*
X119162991Y-81947222D01*
X119198729Y-81976552D01*
X119300186Y-82059814D01*
X119383448Y-82161271D01*
X119412778Y-82197009D01*
X119496443Y-82353534D01*
X119547963Y-82523373D01*
X119565359Y-82700000D01*
X119547963Y-82876627D01*
X119496443Y-83046466D01*
X119412778Y-83202991D01*
X119383448Y-83238729D01*
X119300186Y-83340186D01*
X119198729Y-83423448D01*
X119162991Y-83452778D01*
X119006466Y-83536443D01*
X118836627Y-83587963D01*
X118770443Y-83594481D01*
X118704260Y-83601000D01*
X118615740Y-83601000D01*
X118549557Y-83594481D01*
X118483373Y-83587963D01*
X118313534Y-83536443D01*
X118157009Y-83452778D01*
X118121271Y-83423448D01*
X118019814Y-83340186D01*
X117936552Y-83238729D01*
X117907222Y-83202991D01*
X117823557Y-83046466D01*
X117772037Y-82876627D01*
X117754641Y-82700000D01*
X117772037Y-82523373D01*
X117823557Y-82353534D01*
X117907222Y-82197009D01*
X117936552Y-82161271D01*
X118019814Y-82059814D01*
X118121271Y-81976552D01*
X118157009Y-81947222D01*
X118313534Y-81863557D01*
X118483373Y-81812037D01*
X118549558Y-81805518D01*
X118615740Y-81799000D01*
X118704260Y-81799000D01*
X118770442Y-81805518D01*
X118770442Y-81805518D01*
G37*
G36*
X121310442Y-81805518D02*
G01*
X121376627Y-81812037D01*
X121546466Y-81863557D01*
X121702991Y-81947222D01*
X121738729Y-81976552D01*
X121840186Y-82059814D01*
X121923448Y-82161271D01*
X121952778Y-82197009D01*
X122036443Y-82353534D01*
X122087963Y-82523373D01*
X122105359Y-82700000D01*
X122087963Y-82876627D01*
X122036443Y-83046466D01*
X121952778Y-83202991D01*
X121923448Y-83238729D01*
X121840186Y-83340186D01*
X121738729Y-83423448D01*
X121702991Y-83452778D01*
X121546466Y-83536443D01*
X121376627Y-83587963D01*
X121310443Y-83594481D01*
X121244260Y-83601000D01*
X121155740Y-83601000D01*
X121089557Y-83594481D01*
X121023373Y-83587963D01*
X120853534Y-83536443D01*
X120697009Y-83452778D01*
X120661271Y-83423448D01*
X120559814Y-83340186D01*
X120476552Y-83238729D01*
X120447222Y-83202991D01*
X120363557Y-83046466D01*
X120312037Y-82876627D01*
X120294641Y-82700000D01*
X120312037Y-82523373D01*
X120363557Y-82353534D01*
X120447222Y-82197009D01*
X120476552Y-82161271D01*
X120559814Y-82059814D01*
X120661271Y-81976552D01*
X120697009Y-81947222D01*
X120853534Y-81863557D01*
X121023373Y-81812037D01*
X121089558Y-81805518D01*
X121155740Y-81799000D01*
X121244260Y-81799000D01*
X121310442Y-81805518D01*
X121310442Y-81805518D01*
G37*
G36*
X123850442Y-81805518D02*
G01*
X123916627Y-81812037D01*
X124086466Y-81863557D01*
X124242991Y-81947222D01*
X124278729Y-81976552D01*
X124380186Y-82059814D01*
X124463448Y-82161271D01*
X124492778Y-82197009D01*
X124576443Y-82353534D01*
X124627963Y-82523373D01*
X124645359Y-82700000D01*
X124627963Y-82876627D01*
X124576443Y-83046466D01*
X124492778Y-83202991D01*
X124463448Y-83238729D01*
X124380186Y-83340186D01*
X124278729Y-83423448D01*
X124242991Y-83452778D01*
X124086466Y-83536443D01*
X123916627Y-83587963D01*
X123850443Y-83594481D01*
X123784260Y-83601000D01*
X123695740Y-83601000D01*
X123629557Y-83594481D01*
X123563373Y-83587963D01*
X123393534Y-83536443D01*
X123237009Y-83452778D01*
X123201271Y-83423448D01*
X123099814Y-83340186D01*
X123016552Y-83238729D01*
X122987222Y-83202991D01*
X122903557Y-83046466D01*
X122852037Y-82876627D01*
X122834641Y-82700000D01*
X122852037Y-82523373D01*
X122903557Y-82353534D01*
X122987222Y-82197009D01*
X123016552Y-82161271D01*
X123099814Y-82059814D01*
X123201271Y-81976552D01*
X123237009Y-81947222D01*
X123393534Y-81863557D01*
X123563373Y-81812037D01*
X123629558Y-81805518D01*
X123695740Y-81799000D01*
X123784260Y-81799000D01*
X123850442Y-81805518D01*
X123850442Y-81805518D01*
G37*
G36*
X126390442Y-81805518D02*
G01*
X126456627Y-81812037D01*
X126626466Y-81863557D01*
X126782991Y-81947222D01*
X126818729Y-81976552D01*
X126920186Y-82059814D01*
X127003448Y-82161271D01*
X127032778Y-82197009D01*
X127116443Y-82353534D01*
X127167963Y-82523373D01*
X127185359Y-82700000D01*
X127167963Y-82876627D01*
X127116443Y-83046466D01*
X127032778Y-83202991D01*
X127003448Y-83238729D01*
X126920186Y-83340186D01*
X126818729Y-83423448D01*
X126782991Y-83452778D01*
X126626466Y-83536443D01*
X126456627Y-83587963D01*
X126390443Y-83594481D01*
X126324260Y-83601000D01*
X126235740Y-83601000D01*
X126169557Y-83594481D01*
X126103373Y-83587963D01*
X125933534Y-83536443D01*
X125777009Y-83452778D01*
X125741271Y-83423448D01*
X125639814Y-83340186D01*
X125556552Y-83238729D01*
X125527222Y-83202991D01*
X125443557Y-83046466D01*
X125392037Y-82876627D01*
X125374641Y-82700000D01*
X125392037Y-82523373D01*
X125443557Y-82353534D01*
X125527222Y-82197009D01*
X125556552Y-82161271D01*
X125639814Y-82059814D01*
X125741271Y-81976552D01*
X125777009Y-81947222D01*
X125933534Y-81863557D01*
X126103373Y-81812037D01*
X126169558Y-81805518D01*
X126235740Y-81799000D01*
X126324260Y-81799000D01*
X126390442Y-81805518D01*
X126390442Y-81805518D01*
G37*
G36*
X128930442Y-81805518D02*
G01*
X128996627Y-81812037D01*
X129166466Y-81863557D01*
X129322991Y-81947222D01*
X129358729Y-81976552D01*
X129460186Y-82059814D01*
X129543448Y-82161271D01*
X129572778Y-82197009D01*
X129656443Y-82353534D01*
X129707963Y-82523373D01*
X129725359Y-82700000D01*
X129707963Y-82876627D01*
X129656443Y-83046466D01*
X129572778Y-83202991D01*
X129543448Y-83238729D01*
X129460186Y-83340186D01*
X129358729Y-83423448D01*
X129322991Y-83452778D01*
X129166466Y-83536443D01*
X128996627Y-83587963D01*
X128930443Y-83594481D01*
X128864260Y-83601000D01*
X128775740Y-83601000D01*
X128709557Y-83594481D01*
X128643373Y-83587963D01*
X128473534Y-83536443D01*
X128317009Y-83452778D01*
X128281271Y-83423448D01*
X128179814Y-83340186D01*
X128096552Y-83238729D01*
X128067222Y-83202991D01*
X127983557Y-83046466D01*
X127932037Y-82876627D01*
X127914641Y-82700000D01*
X127932037Y-82523373D01*
X127983557Y-82353534D01*
X128067222Y-82197009D01*
X128096552Y-82161271D01*
X128179814Y-82059814D01*
X128281271Y-81976552D01*
X128317009Y-81947222D01*
X128473534Y-81863557D01*
X128643373Y-81812037D01*
X128709558Y-81805518D01*
X128775740Y-81799000D01*
X128864260Y-81799000D01*
X128930442Y-81805518D01*
X128930442Y-81805518D01*
G37*
G36*
X131470442Y-81805518D02*
G01*
X131536627Y-81812037D01*
X131706466Y-81863557D01*
X131862991Y-81947222D01*
X131898729Y-81976552D01*
X132000186Y-82059814D01*
X132083448Y-82161271D01*
X132112778Y-82197009D01*
X132196443Y-82353534D01*
X132247963Y-82523373D01*
X132265359Y-82700000D01*
X132247963Y-82876627D01*
X132196443Y-83046466D01*
X132112778Y-83202991D01*
X132083448Y-83238729D01*
X132000186Y-83340186D01*
X131898729Y-83423448D01*
X131862991Y-83452778D01*
X131706466Y-83536443D01*
X131536627Y-83587963D01*
X131470443Y-83594481D01*
X131404260Y-83601000D01*
X131315740Y-83601000D01*
X131249557Y-83594481D01*
X131183373Y-83587963D01*
X131013534Y-83536443D01*
X130857009Y-83452778D01*
X130821271Y-83423448D01*
X130719814Y-83340186D01*
X130636552Y-83238729D01*
X130607222Y-83202991D01*
X130523557Y-83046466D01*
X130472037Y-82876627D01*
X130454641Y-82700000D01*
X130472037Y-82523373D01*
X130523557Y-82353534D01*
X130607222Y-82197009D01*
X130636552Y-82161271D01*
X130719814Y-82059814D01*
X130821271Y-81976552D01*
X130857009Y-81947222D01*
X131013534Y-81863557D01*
X131183373Y-81812037D01*
X131249558Y-81805518D01*
X131315740Y-81799000D01*
X131404260Y-81799000D01*
X131470442Y-81805518D01*
X131470442Y-81805518D01*
G37*
G36*
X160201000Y-83601000D02*
G01*
X158399000Y-83601000D01*
X158399000Y-81799000D01*
X160201000Y-81799000D01*
X160201000Y-83601000D01*
X160201000Y-83601000D01*
G37*
G36*
X156870442Y-81805518D02*
G01*
X156936627Y-81812037D01*
X157106466Y-81863557D01*
X157262991Y-81947222D01*
X157298729Y-81976552D01*
X157400186Y-82059814D01*
X157483448Y-82161271D01*
X157512778Y-82197009D01*
X157596443Y-82353534D01*
X157647963Y-82523373D01*
X157665359Y-82700000D01*
X157647963Y-82876627D01*
X157596443Y-83046466D01*
X157512778Y-83202991D01*
X157483448Y-83238729D01*
X157400186Y-83340186D01*
X157298729Y-83423448D01*
X157262991Y-83452778D01*
X157106466Y-83536443D01*
X156936627Y-83587963D01*
X156870443Y-83594481D01*
X156804260Y-83601000D01*
X156715740Y-83601000D01*
X156649557Y-83594481D01*
X156583373Y-83587963D01*
X156413534Y-83536443D01*
X156257009Y-83452778D01*
X156221271Y-83423448D01*
X156119814Y-83340186D01*
X156036552Y-83238729D01*
X156007222Y-83202991D01*
X155923557Y-83046466D01*
X155872037Y-82876627D01*
X155854641Y-82700000D01*
X155872037Y-82523373D01*
X155923557Y-82353534D01*
X156007222Y-82197009D01*
X156036552Y-82161271D01*
X156119814Y-82059814D01*
X156221271Y-81976552D01*
X156257009Y-81947222D01*
X156413534Y-81863557D01*
X156583373Y-81812037D01*
X156649558Y-81805518D01*
X156715740Y-81799000D01*
X156804260Y-81799000D01*
X156870442Y-81805518D01*
X156870442Y-81805518D01*
G37*
G36*
X134010442Y-81805518D02*
G01*
X134076627Y-81812037D01*
X134246466Y-81863557D01*
X134402991Y-81947222D01*
X134438729Y-81976552D01*
X134540186Y-82059814D01*
X134623448Y-82161271D01*
X134652778Y-82197009D01*
X134736443Y-82353534D01*
X134787963Y-82523373D01*
X134805359Y-82700000D01*
X134787963Y-82876627D01*
X134736443Y-83046466D01*
X134652778Y-83202991D01*
X134623448Y-83238729D01*
X134540186Y-83340186D01*
X134438729Y-83423448D01*
X134402991Y-83452778D01*
X134246466Y-83536443D01*
X134076627Y-83587963D01*
X134010443Y-83594481D01*
X133944260Y-83601000D01*
X133855740Y-83601000D01*
X133789557Y-83594481D01*
X133723373Y-83587963D01*
X133553534Y-83536443D01*
X133397009Y-83452778D01*
X133361271Y-83423448D01*
X133259814Y-83340186D01*
X133176552Y-83238729D01*
X133147222Y-83202991D01*
X133063557Y-83046466D01*
X133012037Y-82876627D01*
X132994641Y-82700000D01*
X133012037Y-82523373D01*
X133063557Y-82353534D01*
X133147222Y-82197009D01*
X133176552Y-82161271D01*
X133259814Y-82059814D01*
X133361271Y-81976552D01*
X133397009Y-81947222D01*
X133553534Y-81863557D01*
X133723373Y-81812037D01*
X133789558Y-81805518D01*
X133855740Y-81799000D01*
X133944260Y-81799000D01*
X134010442Y-81805518D01*
X134010442Y-81805518D01*
G37*
G36*
X136550442Y-81805518D02*
G01*
X136616627Y-81812037D01*
X136786466Y-81863557D01*
X136942991Y-81947222D01*
X136978729Y-81976552D01*
X137080186Y-82059814D01*
X137163448Y-82161271D01*
X137192778Y-82197009D01*
X137276443Y-82353534D01*
X137327963Y-82523373D01*
X137345359Y-82700000D01*
X137327963Y-82876627D01*
X137276443Y-83046466D01*
X137192778Y-83202991D01*
X137163448Y-83238729D01*
X137080186Y-83340186D01*
X136978729Y-83423448D01*
X136942991Y-83452778D01*
X136786466Y-83536443D01*
X136616627Y-83587963D01*
X136550443Y-83594481D01*
X136484260Y-83601000D01*
X136395740Y-83601000D01*
X136329557Y-83594481D01*
X136263373Y-83587963D01*
X136093534Y-83536443D01*
X135937009Y-83452778D01*
X135901271Y-83423448D01*
X135799814Y-83340186D01*
X135716552Y-83238729D01*
X135687222Y-83202991D01*
X135603557Y-83046466D01*
X135552037Y-82876627D01*
X135534641Y-82700000D01*
X135552037Y-82523373D01*
X135603557Y-82353534D01*
X135687222Y-82197009D01*
X135716552Y-82161271D01*
X135799814Y-82059814D01*
X135901271Y-81976552D01*
X135937009Y-81947222D01*
X136093534Y-81863557D01*
X136263373Y-81812037D01*
X136329558Y-81805518D01*
X136395740Y-81799000D01*
X136484260Y-81799000D01*
X136550442Y-81805518D01*
X136550442Y-81805518D01*
G37*
G36*
X139090442Y-81805518D02*
G01*
X139156627Y-81812037D01*
X139326466Y-81863557D01*
X139482991Y-81947222D01*
X139518729Y-81976552D01*
X139620186Y-82059814D01*
X139703448Y-82161271D01*
X139732778Y-82197009D01*
X139816443Y-82353534D01*
X139867963Y-82523373D01*
X139885359Y-82700000D01*
X139867963Y-82876627D01*
X139816443Y-83046466D01*
X139732778Y-83202991D01*
X139703448Y-83238729D01*
X139620186Y-83340186D01*
X139518729Y-83423448D01*
X139482991Y-83452778D01*
X139326466Y-83536443D01*
X139156627Y-83587963D01*
X139090443Y-83594481D01*
X139024260Y-83601000D01*
X138935740Y-83601000D01*
X138869557Y-83594481D01*
X138803373Y-83587963D01*
X138633534Y-83536443D01*
X138477009Y-83452778D01*
X138441271Y-83423448D01*
X138339814Y-83340186D01*
X138256552Y-83238729D01*
X138227222Y-83202991D01*
X138143557Y-83046466D01*
X138092037Y-82876627D01*
X138074641Y-82700000D01*
X138092037Y-82523373D01*
X138143557Y-82353534D01*
X138227222Y-82197009D01*
X138256552Y-82161271D01*
X138339814Y-82059814D01*
X138441271Y-81976552D01*
X138477009Y-81947222D01*
X138633534Y-81863557D01*
X138803373Y-81812037D01*
X138869558Y-81805518D01*
X138935740Y-81799000D01*
X139024260Y-81799000D01*
X139090442Y-81805518D01*
X139090442Y-81805518D01*
G37*
G36*
X141630442Y-81805518D02*
G01*
X141696627Y-81812037D01*
X141866466Y-81863557D01*
X142022991Y-81947222D01*
X142058729Y-81976552D01*
X142160186Y-82059814D01*
X142243448Y-82161271D01*
X142272778Y-82197009D01*
X142356443Y-82353534D01*
X142407963Y-82523373D01*
X142425359Y-82700000D01*
X142407963Y-82876627D01*
X142356443Y-83046466D01*
X142272778Y-83202991D01*
X142243448Y-83238729D01*
X142160186Y-83340186D01*
X142058729Y-83423448D01*
X142022991Y-83452778D01*
X141866466Y-83536443D01*
X141696627Y-83587963D01*
X141630443Y-83594481D01*
X141564260Y-83601000D01*
X141475740Y-83601000D01*
X141409557Y-83594481D01*
X141343373Y-83587963D01*
X141173534Y-83536443D01*
X141017009Y-83452778D01*
X140981271Y-83423448D01*
X140879814Y-83340186D01*
X140796552Y-83238729D01*
X140767222Y-83202991D01*
X140683557Y-83046466D01*
X140632037Y-82876627D01*
X140614641Y-82700000D01*
X140632037Y-82523373D01*
X140683557Y-82353534D01*
X140767222Y-82197009D01*
X140796552Y-82161271D01*
X140879814Y-82059814D01*
X140981271Y-81976552D01*
X141017009Y-81947222D01*
X141173534Y-81863557D01*
X141343373Y-81812037D01*
X141409558Y-81805518D01*
X141475740Y-81799000D01*
X141564260Y-81799000D01*
X141630442Y-81805518D01*
X141630442Y-81805518D01*
G37*
G36*
X144170442Y-81805518D02*
G01*
X144236627Y-81812037D01*
X144406466Y-81863557D01*
X144562991Y-81947222D01*
X144598729Y-81976552D01*
X144700186Y-82059814D01*
X144783448Y-82161271D01*
X144812778Y-82197009D01*
X144896443Y-82353534D01*
X144947963Y-82523373D01*
X144965359Y-82700000D01*
X144947963Y-82876627D01*
X144896443Y-83046466D01*
X144812778Y-83202991D01*
X144783448Y-83238729D01*
X144700186Y-83340186D01*
X144598729Y-83423448D01*
X144562991Y-83452778D01*
X144406466Y-83536443D01*
X144236627Y-83587963D01*
X144170443Y-83594481D01*
X144104260Y-83601000D01*
X144015740Y-83601000D01*
X143949557Y-83594481D01*
X143883373Y-83587963D01*
X143713534Y-83536443D01*
X143557009Y-83452778D01*
X143521271Y-83423448D01*
X143419814Y-83340186D01*
X143336552Y-83238729D01*
X143307222Y-83202991D01*
X143223557Y-83046466D01*
X143172037Y-82876627D01*
X143154641Y-82700000D01*
X143172037Y-82523373D01*
X143223557Y-82353534D01*
X143307222Y-82197009D01*
X143336552Y-82161271D01*
X143419814Y-82059814D01*
X143521271Y-81976552D01*
X143557009Y-81947222D01*
X143713534Y-81863557D01*
X143883373Y-81812037D01*
X143949558Y-81805518D01*
X144015740Y-81799000D01*
X144104260Y-81799000D01*
X144170442Y-81805518D01*
X144170442Y-81805518D01*
G37*
G36*
X95910442Y-81805518D02*
G01*
X95976627Y-81812037D01*
X96146466Y-81863557D01*
X96302991Y-81947222D01*
X96338729Y-81976552D01*
X96440186Y-82059814D01*
X96523448Y-82161271D01*
X96552778Y-82197009D01*
X96636443Y-82353534D01*
X96687963Y-82523373D01*
X96705359Y-82700000D01*
X96687963Y-82876627D01*
X96636443Y-83046466D01*
X96552778Y-83202991D01*
X96523448Y-83238729D01*
X96440186Y-83340186D01*
X96338729Y-83423448D01*
X96302991Y-83452778D01*
X96146466Y-83536443D01*
X95976627Y-83587963D01*
X95910443Y-83594481D01*
X95844260Y-83601000D01*
X95755740Y-83601000D01*
X95689557Y-83594481D01*
X95623373Y-83587963D01*
X95453534Y-83536443D01*
X95297009Y-83452778D01*
X95261271Y-83423448D01*
X95159814Y-83340186D01*
X95076552Y-83238729D01*
X95047222Y-83202991D01*
X94963557Y-83046466D01*
X94912037Y-82876627D01*
X94894641Y-82700000D01*
X94912037Y-82523373D01*
X94963557Y-82353534D01*
X95047222Y-82197009D01*
X95076552Y-82161271D01*
X95159814Y-82059814D01*
X95261271Y-81976552D01*
X95297009Y-81947222D01*
X95453534Y-81863557D01*
X95623373Y-81812037D01*
X95689558Y-81805518D01*
X95755740Y-81799000D01*
X95844260Y-81799000D01*
X95910442Y-81805518D01*
X95910442Y-81805518D01*
G37*
G36*
X98450442Y-81805518D02*
G01*
X98516627Y-81812037D01*
X98686466Y-81863557D01*
X98842991Y-81947222D01*
X98878729Y-81976552D01*
X98980186Y-82059814D01*
X99063448Y-82161271D01*
X99092778Y-82197009D01*
X99176443Y-82353534D01*
X99227963Y-82523373D01*
X99245359Y-82700000D01*
X99227963Y-82876627D01*
X99176443Y-83046466D01*
X99092778Y-83202991D01*
X99063448Y-83238729D01*
X98980186Y-83340186D01*
X98878729Y-83423448D01*
X98842991Y-83452778D01*
X98686466Y-83536443D01*
X98516627Y-83587963D01*
X98450443Y-83594481D01*
X98384260Y-83601000D01*
X98295740Y-83601000D01*
X98229557Y-83594481D01*
X98163373Y-83587963D01*
X97993534Y-83536443D01*
X97837009Y-83452778D01*
X97801271Y-83423448D01*
X97699814Y-83340186D01*
X97616552Y-83238729D01*
X97587222Y-83202991D01*
X97503557Y-83046466D01*
X97452037Y-82876627D01*
X97434641Y-82700000D01*
X97452037Y-82523373D01*
X97503557Y-82353534D01*
X97587222Y-82197009D01*
X97616552Y-82161271D01*
X97699814Y-82059814D01*
X97801271Y-81976552D01*
X97837009Y-81947222D01*
X97993534Y-81863557D01*
X98163373Y-81812037D01*
X98229558Y-81805518D01*
X98295740Y-81799000D01*
X98384260Y-81799000D01*
X98450442Y-81805518D01*
X98450442Y-81805518D01*
G37*
G36*
X103530442Y-81805518D02*
G01*
X103596627Y-81812037D01*
X103766466Y-81863557D01*
X103922991Y-81947222D01*
X103958729Y-81976552D01*
X104060186Y-82059814D01*
X104143448Y-82161271D01*
X104172778Y-82197009D01*
X104256443Y-82353534D01*
X104307963Y-82523373D01*
X104325359Y-82700000D01*
X104307963Y-82876627D01*
X104256443Y-83046466D01*
X104172778Y-83202991D01*
X104143448Y-83238729D01*
X104060186Y-83340186D01*
X103958729Y-83423448D01*
X103922991Y-83452778D01*
X103766466Y-83536443D01*
X103596627Y-83587963D01*
X103530443Y-83594481D01*
X103464260Y-83601000D01*
X103375740Y-83601000D01*
X103309557Y-83594481D01*
X103243373Y-83587963D01*
X103073534Y-83536443D01*
X102917009Y-83452778D01*
X102881271Y-83423448D01*
X102779814Y-83340186D01*
X102696552Y-83238729D01*
X102667222Y-83202991D01*
X102583557Y-83046466D01*
X102532037Y-82876627D01*
X102514641Y-82700000D01*
X102532037Y-82523373D01*
X102583557Y-82353534D01*
X102667222Y-82197009D01*
X102696552Y-82161271D01*
X102779814Y-82059814D01*
X102881271Y-81976552D01*
X102917009Y-81947222D01*
X103073534Y-81863557D01*
X103243373Y-81812037D01*
X103309558Y-81805518D01*
X103375740Y-81799000D01*
X103464260Y-81799000D01*
X103530442Y-81805518D01*
X103530442Y-81805518D01*
G37*
G36*
X100990442Y-81805518D02*
G01*
X101056627Y-81812037D01*
X101226466Y-81863557D01*
X101382991Y-81947222D01*
X101418729Y-81976552D01*
X101520186Y-82059814D01*
X101603448Y-82161271D01*
X101632778Y-82197009D01*
X101716443Y-82353534D01*
X101767963Y-82523373D01*
X101785359Y-82700000D01*
X101767963Y-82876627D01*
X101716443Y-83046466D01*
X101632778Y-83202991D01*
X101603448Y-83238729D01*
X101520186Y-83340186D01*
X101418729Y-83423448D01*
X101382991Y-83452778D01*
X101226466Y-83536443D01*
X101056627Y-83587963D01*
X100990443Y-83594481D01*
X100924260Y-83601000D01*
X100835740Y-83601000D01*
X100769557Y-83594481D01*
X100703373Y-83587963D01*
X100533534Y-83536443D01*
X100377009Y-83452778D01*
X100341271Y-83423448D01*
X100239814Y-83340186D01*
X100156552Y-83238729D01*
X100127222Y-83202991D01*
X100043557Y-83046466D01*
X99992037Y-82876627D01*
X99974641Y-82700000D01*
X99992037Y-82523373D01*
X100043557Y-82353534D01*
X100127222Y-82197009D01*
X100156552Y-82161271D01*
X100239814Y-82059814D01*
X100341271Y-81976552D01*
X100377009Y-81947222D01*
X100533534Y-81863557D01*
X100703373Y-81812037D01*
X100769558Y-81805518D01*
X100835740Y-81799000D01*
X100924260Y-81799000D01*
X100990442Y-81805518D01*
X100990442Y-81805518D01*
G37*
M02*
